%TF.GenerationSoftware,KiCad,Pcbnew,(6.0.8)*%
%TF.CreationDate,2023-04-29T02:17:51+01:00*%
%TF.ProjectId,circuit board design v1.0,63697263-7569-4742-9062-6f6172642064,rev?*%
%TF.SameCoordinates,Original*%
%TF.FileFunction,Legend,Bot*%
%TF.FilePolarity,Positive*%
%FSLAX46Y46*%
G04 Gerber Fmt 4.6, Leading zero omitted, Abs format (unit mm)*
G04 Created by KiCad (PCBNEW (6.0.8)) date 2023-04-29 02:17:51*
%MOMM*%
%LPD*%
G01*
G04 APERTURE LIST*
%ADD10C,0.150000*%
%ADD11C,0.120000*%
G04 APERTURE END LIST*
D10*
X39909190Y-28984380D02*
X39909190Y-27984380D01*
X38861571Y-28889142D02*
X38909190Y-28936761D01*
X39052047Y-28984380D01*
X39147285Y-28984380D01*
X39290142Y-28936761D01*
X39385380Y-28841523D01*
X39433000Y-28746285D01*
X39480619Y-28555809D01*
X39480619Y-28412952D01*
X39433000Y-28222476D01*
X39385380Y-28127238D01*
X39290142Y-28032000D01*
X39147285Y-27984380D01*
X39052047Y-27984380D01*
X38909190Y-28032000D01*
X38861571Y-28079619D01*
X37718714Y-28936761D02*
X37575857Y-28984380D01*
X37337761Y-28984380D01*
X37242523Y-28936761D01*
X37194904Y-28889142D01*
X37147285Y-28793904D01*
X37147285Y-28698666D01*
X37194904Y-28603428D01*
X37242523Y-28555809D01*
X37337761Y-28508190D01*
X37528238Y-28460571D01*
X37623476Y-28412952D01*
X37671095Y-28365333D01*
X37718714Y-28270095D01*
X37718714Y-28174857D01*
X37671095Y-28079619D01*
X37623476Y-28032000D01*
X37528238Y-27984380D01*
X37290142Y-27984380D01*
X37147285Y-28032000D01*
X36718714Y-28317714D02*
X36718714Y-29317714D01*
X36718714Y-28365333D02*
X36623476Y-28317714D01*
X36433000Y-28317714D01*
X36337761Y-28365333D01*
X36290142Y-28412952D01*
X36242523Y-28508190D01*
X36242523Y-28793904D01*
X36290142Y-28889142D01*
X36337761Y-28936761D01*
X36433000Y-28984380D01*
X36623476Y-28984380D01*
X36718714Y-28936761D01*
X35385380Y-28984380D02*
X35385380Y-28460571D01*
X35433000Y-28365333D01*
X35528238Y-28317714D01*
X35718714Y-28317714D01*
X35813952Y-28365333D01*
X35385380Y-28936761D02*
X35480619Y-28984380D01*
X35718714Y-28984380D01*
X35813952Y-28936761D01*
X35861571Y-28841523D01*
X35861571Y-28746285D01*
X35813952Y-28651047D01*
X35718714Y-28603428D01*
X35480619Y-28603428D01*
X35385380Y-28555809D01*
X34480619Y-28936761D02*
X34575857Y-28984380D01*
X34766333Y-28984380D01*
X34861571Y-28936761D01*
X34909190Y-28889142D01*
X34956809Y-28793904D01*
X34956809Y-28508190D01*
X34909190Y-28412952D01*
X34861571Y-28365333D01*
X34766333Y-28317714D01*
X34575857Y-28317714D01*
X34480619Y-28365333D01*
X33671095Y-28936761D02*
X33766333Y-28984380D01*
X33956809Y-28984380D01*
X34052047Y-28936761D01*
X34099666Y-28841523D01*
X34099666Y-28460571D01*
X34052047Y-28365333D01*
X33956809Y-28317714D01*
X33766333Y-28317714D01*
X33671095Y-28365333D01*
X33623476Y-28460571D01*
X33623476Y-28555809D01*
X34099666Y-28651047D01*
X33242523Y-28936761D02*
X33099666Y-28984380D01*
X32861571Y-28984380D01*
X32766333Y-28936761D01*
X32718714Y-28889142D01*
X32671095Y-28793904D01*
X32671095Y-28698666D01*
X32718714Y-28603428D01*
X32766333Y-28555809D01*
X32861571Y-28508190D01*
X33052047Y-28460571D01*
X33147285Y-28412952D01*
X33194904Y-28365333D01*
X33242523Y-28270095D01*
X33242523Y-28174857D01*
X33194904Y-28079619D01*
X33147285Y-28032000D01*
X33052047Y-27984380D01*
X32813952Y-27984380D01*
X32671095Y-28032000D01*
X32099666Y-28984380D02*
X32194904Y-28936761D01*
X32242523Y-28889142D01*
X32290142Y-28793904D01*
X32290142Y-28508190D01*
X32242523Y-28412952D01*
X32194904Y-28365333D01*
X32099666Y-28317714D01*
X31956809Y-28317714D01*
X31861571Y-28365333D01*
X31813952Y-28412952D01*
X31766333Y-28508190D01*
X31766333Y-28793904D01*
X31813952Y-28889142D01*
X31861571Y-28936761D01*
X31956809Y-28984380D01*
X32099666Y-28984380D01*
X30909190Y-28936761D02*
X31004428Y-28984380D01*
X31194904Y-28984380D01*
X31290142Y-28936761D01*
X31337761Y-28889142D01*
X31385380Y-28793904D01*
X31385380Y-28508190D01*
X31337761Y-28412952D01*
X31290142Y-28365333D01*
X31194904Y-28317714D01*
X31004428Y-28317714D01*
X30909190Y-28365333D01*
X45194904Y-30070571D02*
X45528238Y-30070571D01*
X45528238Y-30594380D02*
X45528238Y-29594380D01*
X45052047Y-29594380D01*
X44528238Y-30594380D02*
X44623476Y-30546761D01*
X44671095Y-30451523D01*
X44671095Y-29594380D01*
X44147285Y-30594380D02*
X44147285Y-29927714D01*
X44147285Y-29594380D02*
X44194904Y-29642000D01*
X44147285Y-29689619D01*
X44099666Y-29642000D01*
X44147285Y-29594380D01*
X44147285Y-29689619D01*
X43242523Y-29927714D02*
X43242523Y-30737238D01*
X43290142Y-30832476D01*
X43337761Y-30880095D01*
X43433000Y-30927714D01*
X43575857Y-30927714D01*
X43671095Y-30880095D01*
X43242523Y-30546761D02*
X43337761Y-30594380D01*
X43528238Y-30594380D01*
X43623476Y-30546761D01*
X43671095Y-30499142D01*
X43718714Y-30403904D01*
X43718714Y-30118190D01*
X43671095Y-30022952D01*
X43623476Y-29975333D01*
X43528238Y-29927714D01*
X43337761Y-29927714D01*
X43242523Y-29975333D01*
X42766333Y-30594380D02*
X42766333Y-29594380D01*
X42337761Y-30594380D02*
X42337761Y-30070571D01*
X42385380Y-29975333D01*
X42480619Y-29927714D01*
X42623476Y-29927714D01*
X42718714Y-29975333D01*
X42766333Y-30022952D01*
X42004428Y-29927714D02*
X41623476Y-29927714D01*
X41861571Y-29594380D02*
X41861571Y-30451523D01*
X41813952Y-30546761D01*
X41718714Y-30594380D01*
X41623476Y-30594380D01*
X39956809Y-30499142D02*
X40004428Y-30546761D01*
X40147285Y-30594380D01*
X40242523Y-30594380D01*
X40385380Y-30546761D01*
X40480619Y-30451523D01*
X40528238Y-30356285D01*
X40575857Y-30165809D01*
X40575857Y-30022952D01*
X40528238Y-29832476D01*
X40480619Y-29737238D01*
X40385380Y-29642000D01*
X40242523Y-29594380D01*
X40147285Y-29594380D01*
X40004428Y-29642000D01*
X39956809Y-29689619D01*
X39385380Y-30594380D02*
X39480619Y-30546761D01*
X39528238Y-30499142D01*
X39575857Y-30403904D01*
X39575857Y-30118190D01*
X39528238Y-30022952D01*
X39480619Y-29975333D01*
X39385380Y-29927714D01*
X39242523Y-29927714D01*
X39147285Y-29975333D01*
X39099666Y-30022952D01*
X39052047Y-30118190D01*
X39052047Y-30403904D01*
X39099666Y-30499142D01*
X39147285Y-30546761D01*
X39242523Y-30594380D01*
X39385380Y-30594380D01*
X38623476Y-30594380D02*
X38623476Y-29927714D01*
X38623476Y-30022952D02*
X38575857Y-29975333D01*
X38480619Y-29927714D01*
X38337761Y-29927714D01*
X38242523Y-29975333D01*
X38194904Y-30070571D01*
X38194904Y-30594380D01*
X38194904Y-30070571D02*
X38147285Y-29975333D01*
X38052047Y-29927714D01*
X37909190Y-29927714D01*
X37813952Y-29975333D01*
X37766333Y-30070571D01*
X37766333Y-30594380D01*
X37290142Y-29927714D02*
X37290142Y-30927714D01*
X37290142Y-29975333D02*
X37194904Y-29927714D01*
X37004428Y-29927714D01*
X36909190Y-29975333D01*
X36861571Y-30022952D01*
X36813952Y-30118190D01*
X36813952Y-30403904D01*
X36861571Y-30499142D01*
X36909190Y-30546761D01*
X37004428Y-30594380D01*
X37194904Y-30594380D01*
X37290142Y-30546761D01*
X35956809Y-29927714D02*
X35956809Y-30594380D01*
X36385380Y-29927714D02*
X36385380Y-30451523D01*
X36337761Y-30546761D01*
X36242523Y-30594380D01*
X36099666Y-30594380D01*
X36004428Y-30546761D01*
X35956809Y-30499142D01*
X35623476Y-29927714D02*
X35242523Y-29927714D01*
X35480619Y-29594380D02*
X35480619Y-30451523D01*
X35433000Y-30546761D01*
X35337761Y-30594380D01*
X35242523Y-30594380D01*
X34528238Y-30546761D02*
X34623476Y-30594380D01*
X34813952Y-30594380D01*
X34909190Y-30546761D01*
X34956809Y-30451523D01*
X34956809Y-30070571D01*
X34909190Y-29975333D01*
X34813952Y-29927714D01*
X34623476Y-29927714D01*
X34528238Y-29975333D01*
X34480619Y-30070571D01*
X34480619Y-30165809D01*
X34956809Y-30261047D01*
X34052047Y-30594380D02*
X34052047Y-29927714D01*
X34052047Y-30118190D02*
X34004428Y-30022952D01*
X33956809Y-29975333D01*
X33861571Y-29927714D01*
X33766333Y-29927714D01*
X32813952Y-29594380D02*
X32480619Y-30594380D01*
X32147285Y-29594380D01*
X31861571Y-29689619D02*
X31813952Y-29642000D01*
X31718714Y-29594380D01*
X31480619Y-29594380D01*
X31385380Y-29642000D01*
X31337761Y-29689619D01*
X31290142Y-29784857D01*
X31290142Y-29880095D01*
X31337761Y-30022952D01*
X31909190Y-30594380D01*
X31290142Y-30594380D01*
X30861571Y-30499142D02*
X30813952Y-30546761D01*
X30861571Y-30594380D01*
X30909190Y-30546761D01*
X30861571Y-30499142D01*
X30861571Y-30594380D01*
X30194904Y-29594380D02*
X30099666Y-29594380D01*
X30004428Y-29642000D01*
X29956809Y-29689619D01*
X29909190Y-29784857D01*
X29861571Y-29975333D01*
X29861571Y-30213428D01*
X29909190Y-30403904D01*
X29956809Y-30499142D01*
X30004428Y-30546761D01*
X30099666Y-30594380D01*
X30194904Y-30594380D01*
X30290142Y-30546761D01*
X30337761Y-30499142D01*
X30385380Y-30403904D01*
X30433000Y-30213428D01*
X30433000Y-29975333D01*
X30385380Y-29784857D01*
X30337761Y-29689619D01*
X30290142Y-29642000D01*
X30194904Y-29594380D01*
X28718714Y-29689619D02*
X28671095Y-29642000D01*
X28575857Y-29594380D01*
X28337761Y-29594380D01*
X28242523Y-29642000D01*
X28194904Y-29689619D01*
X28147285Y-29784857D01*
X28147285Y-29880095D01*
X28194904Y-30022952D01*
X28766333Y-30594380D01*
X28147285Y-30594380D01*
X27528238Y-29594380D02*
X27433000Y-29594380D01*
X27337761Y-29642000D01*
X27290142Y-29689619D01*
X27242523Y-29784857D01*
X27194904Y-29975333D01*
X27194904Y-30213428D01*
X27242523Y-30403904D01*
X27290142Y-30499142D01*
X27337761Y-30546761D01*
X27433000Y-30594380D01*
X27528238Y-30594380D01*
X27623476Y-30546761D01*
X27671095Y-30499142D01*
X27718714Y-30403904D01*
X27766333Y-30213428D01*
X27766333Y-29975333D01*
X27718714Y-29784857D01*
X27671095Y-29689619D01*
X27623476Y-29642000D01*
X27528238Y-29594380D01*
X26813952Y-29689619D02*
X26766333Y-29642000D01*
X26671095Y-29594380D01*
X26433000Y-29594380D01*
X26337761Y-29642000D01*
X26290142Y-29689619D01*
X26242523Y-29784857D01*
X26242523Y-29880095D01*
X26290142Y-30022952D01*
X26861571Y-30594380D01*
X26242523Y-30594380D01*
X25909190Y-29594380D02*
X25290142Y-29594380D01*
X25623476Y-29975333D01*
X25480619Y-29975333D01*
X25385380Y-30022952D01*
X25337761Y-30070571D01*
X25290142Y-30165809D01*
X25290142Y-30403904D01*
X25337761Y-30499142D01*
X25385380Y-30546761D01*
X25480619Y-30594380D01*
X25766333Y-30594380D01*
X25861571Y-30546761D01*
X25909190Y-30499142D01*
%TO.C,C24*%
X30169142Y-74160142D02*
X30216761Y-74112523D01*
X30264380Y-73969666D01*
X30264380Y-73874428D01*
X30216761Y-73731571D01*
X30121523Y-73636333D01*
X30026285Y-73588714D01*
X29835809Y-73541095D01*
X29692952Y-73541095D01*
X29502476Y-73588714D01*
X29407238Y-73636333D01*
X29312000Y-73731571D01*
X29264380Y-73874428D01*
X29264380Y-73969666D01*
X29312000Y-74112523D01*
X29359619Y-74160142D01*
X29359619Y-74541095D02*
X29312000Y-74588714D01*
X29264380Y-74683952D01*
X29264380Y-74922047D01*
X29312000Y-75017285D01*
X29359619Y-75064904D01*
X29454857Y-75112523D01*
X29550095Y-75112523D01*
X29692952Y-75064904D01*
X30264380Y-74493476D01*
X30264380Y-75112523D01*
X29597714Y-75969666D02*
X30264380Y-75969666D01*
X29216761Y-75731571D02*
X29931047Y-75493476D01*
X29931047Y-76112523D01*
%TO.C,C23*%
X35028142Y-76954142D02*
X35075761Y-76906523D01*
X35123380Y-76763666D01*
X35123380Y-76668428D01*
X35075761Y-76525571D01*
X34980523Y-76430333D01*
X34885285Y-76382714D01*
X34694809Y-76335095D01*
X34551952Y-76335095D01*
X34361476Y-76382714D01*
X34266238Y-76430333D01*
X34171000Y-76525571D01*
X34123380Y-76668428D01*
X34123380Y-76763666D01*
X34171000Y-76906523D01*
X34218619Y-76954142D01*
X34218619Y-77335095D02*
X34171000Y-77382714D01*
X34123380Y-77477952D01*
X34123380Y-77716047D01*
X34171000Y-77811285D01*
X34218619Y-77858904D01*
X34313857Y-77906523D01*
X34409095Y-77906523D01*
X34551952Y-77858904D01*
X35123380Y-77287476D01*
X35123380Y-77906523D01*
X34123380Y-78239857D02*
X34123380Y-78858904D01*
X34504333Y-78525571D01*
X34504333Y-78668428D01*
X34551952Y-78763666D01*
X34599571Y-78811285D01*
X34694809Y-78858904D01*
X34932904Y-78858904D01*
X35028142Y-78811285D01*
X35075761Y-78763666D01*
X35123380Y-78668428D01*
X35123380Y-78382714D01*
X35075761Y-78287476D01*
X35028142Y-78239857D01*
%TO.C,C22*%
X32615142Y-76954142D02*
X32662761Y-76906523D01*
X32710380Y-76763666D01*
X32710380Y-76668428D01*
X32662761Y-76525571D01*
X32567523Y-76430333D01*
X32472285Y-76382714D01*
X32281809Y-76335095D01*
X32138952Y-76335095D01*
X31948476Y-76382714D01*
X31853238Y-76430333D01*
X31758000Y-76525571D01*
X31710380Y-76668428D01*
X31710380Y-76763666D01*
X31758000Y-76906523D01*
X31805619Y-76954142D01*
X31805619Y-77335095D02*
X31758000Y-77382714D01*
X31710380Y-77477952D01*
X31710380Y-77716047D01*
X31758000Y-77811285D01*
X31805619Y-77858904D01*
X31900857Y-77906523D01*
X31996095Y-77906523D01*
X32138952Y-77858904D01*
X32710380Y-77287476D01*
X32710380Y-77906523D01*
X31805619Y-78287476D02*
X31758000Y-78335095D01*
X31710380Y-78430333D01*
X31710380Y-78668428D01*
X31758000Y-78763666D01*
X31805619Y-78811285D01*
X31900857Y-78858904D01*
X31996095Y-78858904D01*
X32138952Y-78811285D01*
X32710380Y-78239857D01*
X32710380Y-78858904D01*
D11*
%TO.C,C24*%
X31752000Y-74656733D02*
X31752000Y-74949267D01*
X30732000Y-74656733D02*
X30732000Y-74949267D01*
%TO.C,C23*%
X35304000Y-77450733D02*
X35304000Y-77743267D01*
X36324000Y-77450733D02*
X36324000Y-77743267D01*
%TO.C,C22*%
X32891000Y-77450733D02*
X32891000Y-77743267D01*
X33911000Y-77450733D02*
X33911000Y-77743267D01*
%TD*%
M02*
