M48
; DRILL file {KiCad (6.0.8)} date Fri May  5 23:38:04 2023
; FORMAT={-:-/ absolute / inch / decimal}
; #@! TF.CreationDate,2023-05-05T23:38:04+01:00
; #@! TF.GenerationSoftware,Kicad,Pcbnew,(6.0.8)
; #@! TF.FileFunction,Plated,1,4,PTH
FMAT,2
INCH
; #@! TA.AperFunction,Plated,PTH,ViaDrill
T1C0.0157
; #@! TA.AperFunction,Plated,PTH,ComponentDrill
T2C0.0236
; #@! TA.AperFunction,Plated,PTH,ComponentDrill
T3C0.0295
; #@! TA.AperFunction,Plated,PTH,ComponentDrill
T4C0.0335
; #@! TA.AperFunction,Plated,PTH,ComponentDrill
T5C0.0394
; #@! TA.AperFunction,Plated,PTH,ComponentDrill
T6C0.1260
%
G90
G05
T1
X0.825Y-3.2
X0.84Y-2.455
X0.84Y-2.565
X0.84Y-2.92
X0.84Y-3.08
X0.845Y-2.49
X0.855Y-2.395
X0.855Y-3.38
X0.86Y-1.105
X0.86Y-1.2
X0.86Y-1.295
X0.86Y-1.98
X0.865Y-1.69
X0.8684Y-2.7
X0.875Y-2.755
X0.9Y-1.38
X0.9Y-1.59
X0.9Y-2.795
X0.9Y-2.855
X0.9Y-3.08
X0.905Y-3.0
X0.945Y-2.265
X0.945Y-2.35
X0.955Y-1.105
X0.955Y-1.2
X0.955Y-1.69
X0.96Y-1.38
X0.96Y-1.59
X0.98Y-1.34
X1.0223Y-2.2566
X1.03Y-2.13
X1.045Y-2.305
X1.08Y-1.93
X1.09Y-2.32
X1.1Y-3.045
X1.1Y-3.095
X1.1Y-3.14
X1.1Y-3.615
X1.1023Y-3.0
X1.1023Y-3.21
X1.1024Y-0.8661
X1.1024Y-0.9843
X1.105Y-2.955
X1.11Y-1.775
X1.115Y-2.6426
X1.115Y-2.68
X1.115Y-2.835
X1.115Y-2.8724
X1.125Y-3.33
X1.145Y-2.44
X1.145Y-2.5
X1.155Y-2.18
X1.16Y-1.755
X1.17Y-1.97
X1.18Y-2.92
X1.185Y-2.3
X1.19Y-2.01
X1.215Y-2.27
X1.215Y-3.615
X1.2402Y-0.8661
X1.2402Y-0.9843
X1.2501Y-3.3546
X1.2562Y-1.98
X1.2793Y-3.3254
X1.2866Y-2.515
X1.295Y-2.22
X1.305Y-2.61
X1.325Y-1.755
X1.325Y-2.28
X1.33Y-1.845
X1.3567Y-2.4483
X1.372Y-2.4101
X1.378Y-0.8661
X1.378Y-0.9843
X1.38Y-2.685
X1.385Y-2.49
X1.385Y-2.55
X1.385Y-2.61
X1.405Y-2.235
X1.4448Y-2.3102
X1.45Y-2.0343
X1.45Y-2.0757
X1.465Y-3.335
X1.485Y-2.38
X1.49Y-1.8735
X1.49Y-2.73
X1.49Y-2.84
X1.49Y-3.415
X1.51Y-2.505
X1.5157Y-0.8661
X1.5157Y-0.9843
X1.525Y-2.61
X1.53Y-1.905
X1.59Y-1.8985
X1.5925Y-1.9923
X1.595Y-2.175
X1.595Y-2.29
X1.6Y-2.84
X1.625Y-2.02
X1.635Y-2.425
X1.64Y-2.17
X1.64Y-2.895
X1.64Y-3.0
X1.65Y-1.8985
X1.6535Y-0.8661
X1.6535Y-0.9843
X1.685Y-2.29
X1.695Y-2.1412
X1.715Y-1.8165
X1.7449Y-2.3
X1.7505Y-2.2588
X1.78Y-1.64
X1.785Y-1.14
X1.785Y-1.34
X1.7897Y-2.1603
X1.79Y-1.26
X1.79Y-1.465
X1.83Y-2.32
X1.83Y-2.36
X1.8302Y-2.1605
X1.835Y-2.41
X1.87Y-2.16
X1.8898Y-1.14
X1.8898Y-1.26
X1.8898Y-1.35
X1.89Y-1.465
X1.89Y-1.64
X1.8937Y-2.4921
X1.8937Y-2.6378
X1.8937Y-2.7835
X1.8937Y-2.9291
X1.915Y-2.255
X1.92Y-2.16
X1.925Y-1.995
T3
X1.5285Y-3.2113
X1.5285Y-3.29
T4
X1.3236Y-3.4794
X1.5205Y-3.4794
T5
X1.2802Y-3.16
X1.3802Y-3.16
X1.4748Y-1.78
X1.5748Y-1.78
T6
X0.93Y-0.93
X0.935Y-3.563
X1.83Y-0.93
X1.83Y-3.563
T2
G00X1.2843Y-3.572
M15
G01X1.2843Y-3.5995
M16
G05
G00X1.5598Y-3.572
M15
G01X1.5598Y-3.5995
M16
G05
T0
M30
