%TF.GenerationSoftware,KiCad,Pcbnew,(6.0.8)*%
%TF.CreationDate,2023-05-05T23:38:08+01:00*%
%TF.ProjectId,circuit board design v1.0,63697263-7569-4742-9062-6f6172642064,rev?*%
%TF.SameCoordinates,Original*%
%TF.FileFunction,Legend,Bot*%
%TF.FilePolarity,Positive*%
%FSLAX46Y46*%
G04 Gerber Fmt 4.6, Leading zero omitted, Abs format (unit mm)*
G04 Created by KiCad (PCBNEW (6.0.8)) date 2023-05-05 23:38:08*
%MOMM*%
%LPD*%
G01*
G04 APERTURE LIST*
%ADD10C,0.150000*%
%ADD11C,0.254000*%
%ADD12C,0.010000*%
%ADD13C,0.127000*%
%ADD14C,0.120000*%
%ADD15C,0.200000*%
G04 APERTURE END LIST*
D10*
X39250428Y-49640380D02*
X39726619Y-49640380D01*
X39726619Y-48640380D01*
X38774238Y-49640380D02*
X38869476Y-49592761D01*
X38917095Y-49545142D01*
X38964714Y-49449904D01*
X38964714Y-49164190D01*
X38917095Y-49068952D01*
X38869476Y-49021333D01*
X38774238Y-48973714D01*
X38631380Y-48973714D01*
X38536142Y-49021333D01*
X38488523Y-49068952D01*
X38440904Y-49164190D01*
X38440904Y-49449904D01*
X38488523Y-49545142D01*
X38536142Y-49592761D01*
X38631380Y-49640380D01*
X38774238Y-49640380D01*
X37583761Y-48973714D02*
X37583761Y-49640380D01*
X38012333Y-48973714D02*
X38012333Y-49497523D01*
X37964714Y-49592761D01*
X37869476Y-49640380D01*
X37726619Y-49640380D01*
X37631380Y-49592761D01*
X37583761Y-49545142D01*
X36393285Y-49354666D02*
X35917095Y-49354666D01*
X36488523Y-49640380D02*
X36155190Y-48640380D01*
X35821857Y-49640380D01*
X35345666Y-49640380D02*
X35440904Y-49592761D01*
X35488523Y-49497523D01*
X35488523Y-48640380D01*
X35012333Y-49592761D02*
X34917095Y-49640380D01*
X34726619Y-49640380D01*
X34631380Y-49592761D01*
X34583761Y-49497523D01*
X34583761Y-49449904D01*
X34631380Y-49354666D01*
X34726619Y-49307047D01*
X34869476Y-49307047D01*
X34964714Y-49259428D01*
X35012333Y-49164190D01*
X35012333Y-49116571D01*
X34964714Y-49021333D01*
X34869476Y-48973714D01*
X34726619Y-48973714D01*
X34631380Y-49021333D01*
X34298047Y-48973714D02*
X33917095Y-48973714D01*
X34155190Y-48640380D02*
X34155190Y-49497523D01*
X34107571Y-49592761D01*
X34012333Y-49640380D01*
X33917095Y-49640380D01*
X33202809Y-49592761D02*
X33298047Y-49640380D01*
X33488523Y-49640380D01*
X33583761Y-49592761D01*
X33631380Y-49497523D01*
X33631380Y-49116571D01*
X33583761Y-49021333D01*
X33488523Y-48973714D01*
X33298047Y-48973714D01*
X33202809Y-49021333D01*
X33155190Y-49116571D01*
X33155190Y-49211809D01*
X33631380Y-49307047D01*
X32345666Y-49592761D02*
X32440904Y-49640380D01*
X32631380Y-49640380D01*
X32726619Y-49592761D01*
X32774238Y-49497523D01*
X32774238Y-49116571D01*
X32726619Y-49021333D01*
X32631380Y-48973714D01*
X32440904Y-48973714D01*
X32345666Y-49021333D01*
X32298047Y-49116571D01*
X32298047Y-49211809D01*
X32774238Y-49307047D01*
X31869476Y-48973714D02*
X31869476Y-49640380D01*
X31869476Y-49068952D02*
X31821857Y-49021333D01*
X31726619Y-48973714D01*
X31583761Y-48973714D01*
X31488523Y-49021333D01*
X31440904Y-49116571D01*
X31440904Y-49640380D01*
X31012333Y-49592761D02*
X30917095Y-49640380D01*
X30726619Y-49640380D01*
X30631380Y-49592761D01*
X30583761Y-49497523D01*
X30583761Y-49449904D01*
X30631380Y-49354666D01*
X30726619Y-49307047D01*
X30869476Y-49307047D01*
X30964714Y-49259428D01*
X31012333Y-49164190D01*
X31012333Y-49116571D01*
X30964714Y-49021333D01*
X30869476Y-48973714D01*
X30726619Y-48973714D01*
X30631380Y-49021333D01*
X38559952Y-51250380D02*
X38893285Y-50774190D01*
X39131380Y-51250380D02*
X39131380Y-50250380D01*
X38750428Y-50250380D01*
X38655190Y-50298000D01*
X38607571Y-50345619D01*
X38559952Y-50440857D01*
X38559952Y-50583714D01*
X38607571Y-50678952D01*
X38655190Y-50726571D01*
X38750428Y-50774190D01*
X39131380Y-50774190D01*
X38131380Y-51250380D02*
X38131380Y-50583714D01*
X38131380Y-50250380D02*
X38179000Y-50298000D01*
X38131380Y-50345619D01*
X38083761Y-50298000D01*
X38131380Y-50250380D01*
X38131380Y-50345619D01*
X37226619Y-51202761D02*
X37321857Y-51250380D01*
X37512333Y-51250380D01*
X37607571Y-51202761D01*
X37655190Y-51155142D01*
X37702809Y-51059904D01*
X37702809Y-50774190D01*
X37655190Y-50678952D01*
X37607571Y-50631333D01*
X37512333Y-50583714D01*
X37321857Y-50583714D01*
X37226619Y-50631333D01*
X36798047Y-51250380D02*
X36798047Y-50250380D01*
X36369476Y-51250380D02*
X36369476Y-50726571D01*
X36417095Y-50631333D01*
X36512333Y-50583714D01*
X36655190Y-50583714D01*
X36750428Y-50631333D01*
X36798047Y-50678952D01*
X35464714Y-51250380D02*
X35464714Y-50726571D01*
X35512333Y-50631333D01*
X35607571Y-50583714D01*
X35798047Y-50583714D01*
X35893285Y-50631333D01*
X35464714Y-51202761D02*
X35559952Y-51250380D01*
X35798047Y-51250380D01*
X35893285Y-51202761D01*
X35940904Y-51107523D01*
X35940904Y-51012285D01*
X35893285Y-50917047D01*
X35798047Y-50869428D01*
X35559952Y-50869428D01*
X35464714Y-50821809D01*
X34988523Y-51250380D02*
X34988523Y-50583714D01*
X34988523Y-50774190D02*
X34940904Y-50678952D01*
X34893285Y-50631333D01*
X34798047Y-50583714D01*
X34702809Y-50583714D01*
X33940904Y-51250380D02*
X33940904Y-50250380D01*
X33940904Y-51202761D02*
X34036142Y-51250380D01*
X34226619Y-51250380D01*
X34321857Y-51202761D01*
X34369476Y-51155142D01*
X34417095Y-51059904D01*
X34417095Y-50774190D01*
X34369476Y-50678952D01*
X34321857Y-50631333D01*
X34226619Y-50583714D01*
X34036142Y-50583714D01*
X33940904Y-50631333D01*
X32702809Y-51250380D02*
X32702809Y-50250380D01*
X32702809Y-50726571D02*
X32131380Y-50726571D01*
X32131380Y-51250380D02*
X32131380Y-50250380D01*
X31226619Y-50583714D02*
X31226619Y-51250380D01*
X31655190Y-50583714D02*
X31655190Y-51107523D01*
X31607571Y-51202761D01*
X31512333Y-51250380D01*
X31369476Y-51250380D01*
X31274238Y-51202761D01*
X31226619Y-51155142D01*
X41821857Y-51860380D02*
X41821857Y-52574666D01*
X41869476Y-52717523D01*
X41964714Y-52812761D01*
X42107571Y-52860380D01*
X42202809Y-52860380D01*
X40917095Y-52860380D02*
X40917095Y-52336571D01*
X40964714Y-52241333D01*
X41059952Y-52193714D01*
X41250428Y-52193714D01*
X41345666Y-52241333D01*
X40917095Y-52812761D02*
X41012333Y-52860380D01*
X41250428Y-52860380D01*
X41345666Y-52812761D01*
X41393285Y-52717523D01*
X41393285Y-52622285D01*
X41345666Y-52527047D01*
X41250428Y-52479428D01*
X41012333Y-52479428D01*
X40917095Y-52431809D01*
X40440904Y-52860380D02*
X40440904Y-51860380D01*
X40345666Y-52479428D02*
X40059952Y-52860380D01*
X40059952Y-52193714D02*
X40440904Y-52574666D01*
X39202809Y-52193714D02*
X39202809Y-52860380D01*
X39631380Y-52193714D02*
X39631380Y-52717523D01*
X39583761Y-52812761D01*
X39488523Y-52860380D01*
X39345666Y-52860380D01*
X39250428Y-52812761D01*
X39202809Y-52765142D01*
X38726619Y-52860380D02*
X38726619Y-51860380D01*
X38726619Y-52241333D02*
X38631380Y-52193714D01*
X38440904Y-52193714D01*
X38345666Y-52241333D01*
X38298047Y-52288952D01*
X38250428Y-52384190D01*
X38250428Y-52669904D01*
X38298047Y-52765142D01*
X38345666Y-52812761D01*
X38440904Y-52860380D01*
X38631380Y-52860380D01*
X38726619Y-52812761D01*
X36774238Y-51860380D02*
X36774238Y-52574666D01*
X36821857Y-52717523D01*
X36917095Y-52812761D01*
X37059952Y-52860380D01*
X37155190Y-52860380D01*
X35917095Y-52812761D02*
X36012333Y-52860380D01*
X36202809Y-52860380D01*
X36298047Y-52812761D01*
X36345666Y-52717523D01*
X36345666Y-52336571D01*
X36298047Y-52241333D01*
X36202809Y-52193714D01*
X36012333Y-52193714D01*
X35917095Y-52241333D01*
X35869476Y-52336571D01*
X35869476Y-52431809D01*
X36345666Y-52527047D01*
X36107571Y-52860380D02*
X36202809Y-52955619D01*
X36250428Y-53050857D01*
X36202809Y-53146095D01*
X36107571Y-53193714D01*
X36012333Y-53193714D01*
X35012333Y-52860380D02*
X35012333Y-51860380D01*
X35012333Y-52812761D02*
X35107571Y-52860380D01*
X35298047Y-52860380D01*
X35393285Y-52812761D01*
X35440904Y-52765142D01*
X35488523Y-52669904D01*
X35488523Y-52384190D01*
X35440904Y-52288952D01*
X35393285Y-52241333D01*
X35298047Y-52193714D01*
X35107571Y-52193714D01*
X35012333Y-52241333D01*
X34536142Y-52860380D02*
X34536142Y-52193714D01*
X34536142Y-52384190D02*
X34488523Y-52288952D01*
X34440904Y-52241333D01*
X34345666Y-52193714D01*
X34250428Y-52193714D01*
X34012333Y-52193714D02*
X33488523Y-52193714D01*
X34012333Y-52860380D01*
X33488523Y-52860380D01*
X32726619Y-52812761D02*
X32821857Y-52860380D01*
X33012333Y-52860380D01*
X33107571Y-52812761D01*
X33155190Y-52717523D01*
X33155190Y-52336571D01*
X33107571Y-52241333D01*
X33012333Y-52193714D01*
X32821857Y-52193714D01*
X32726619Y-52241333D01*
X32679000Y-52336571D01*
X32679000Y-52431809D01*
X33155190Y-52527047D01*
X32250428Y-52193714D02*
X32250428Y-53050857D01*
X32298047Y-53146095D01*
X32393285Y-53193714D01*
X32440904Y-53193714D01*
X32250428Y-51860380D02*
X32298047Y-51908000D01*
X32250428Y-51955619D01*
X32202809Y-51908000D01*
X32250428Y-51860380D01*
X32250428Y-51955619D01*
X31393285Y-52812761D02*
X31488523Y-52860380D01*
X31679000Y-52860380D01*
X31774238Y-52812761D01*
X31821857Y-52717523D01*
X31821857Y-52336571D01*
X31774238Y-52241333D01*
X31679000Y-52193714D01*
X31488523Y-52193714D01*
X31393285Y-52241333D01*
X31345666Y-52336571D01*
X31345666Y-52431809D01*
X31821857Y-52527047D01*
X31012333Y-52193714D02*
X30821857Y-52860380D01*
X30631380Y-52384190D01*
X30440904Y-52860380D01*
X30250428Y-52193714D01*
X29917095Y-52812761D02*
X29821857Y-52860380D01*
X29631380Y-52860380D01*
X29536142Y-52812761D01*
X29488523Y-52717523D01*
X29488523Y-52669904D01*
X29536142Y-52574666D01*
X29631380Y-52527047D01*
X29774238Y-52527047D01*
X29869476Y-52479428D01*
X29917095Y-52384190D01*
X29917095Y-52336571D01*
X29869476Y-52241333D01*
X29774238Y-52193714D01*
X29631380Y-52193714D01*
X29536142Y-52241333D01*
X29059952Y-52860380D02*
X29059952Y-51860380D01*
X28964714Y-52479428D02*
X28679000Y-52860380D01*
X28679000Y-52193714D02*
X29059952Y-52574666D01*
X28250428Y-52860380D02*
X28250428Y-52193714D01*
X28250428Y-51860380D02*
X28298047Y-51908000D01*
X28250428Y-51955619D01*
X28202809Y-51908000D01*
X28250428Y-51860380D01*
X28250428Y-51955619D01*
X38298047Y-53946571D02*
X38155190Y-53994190D01*
X38107571Y-54041809D01*
X38059952Y-54137047D01*
X38059952Y-54279904D01*
X38107571Y-54375142D01*
X38155190Y-54422761D01*
X38250428Y-54470380D01*
X38631380Y-54470380D01*
X38631380Y-53470380D01*
X38298047Y-53470380D01*
X38202809Y-53518000D01*
X38155190Y-53565619D01*
X38107571Y-53660857D01*
X38107571Y-53756095D01*
X38155190Y-53851333D01*
X38202809Y-53898952D01*
X38298047Y-53946571D01*
X38631380Y-53946571D01*
X37250428Y-54422761D02*
X37345666Y-54470380D01*
X37536142Y-54470380D01*
X37631380Y-54422761D01*
X37679000Y-54327523D01*
X37679000Y-53946571D01*
X37631380Y-53851333D01*
X37536142Y-53803714D01*
X37345666Y-53803714D01*
X37250428Y-53851333D01*
X37202809Y-53946571D01*
X37202809Y-54041809D01*
X37679000Y-54137047D01*
X36774238Y-53803714D02*
X36774238Y-54470380D01*
X36774238Y-53898952D02*
X36726619Y-53851333D01*
X36631380Y-53803714D01*
X36488523Y-53803714D01*
X36393285Y-53851333D01*
X36345666Y-53946571D01*
X36345666Y-54470380D01*
X35869476Y-53803714D02*
X35869476Y-54470380D01*
X35869476Y-53898952D02*
X35821857Y-53851333D01*
X35726619Y-53803714D01*
X35583761Y-53803714D01*
X35488523Y-53851333D01*
X35440904Y-53946571D01*
X35440904Y-54470380D01*
X35059952Y-53803714D02*
X34821857Y-54470380D01*
X34583761Y-53803714D02*
X34821857Y-54470380D01*
X34917095Y-54708476D01*
X34964714Y-54756095D01*
X35059952Y-54803714D01*
X32964714Y-54470380D02*
X33440904Y-54470380D01*
X33440904Y-53470380D01*
X32631380Y-54470380D02*
X32631380Y-53803714D01*
X32631380Y-53470380D02*
X32679000Y-53518000D01*
X32631380Y-53565619D01*
X32583761Y-53518000D01*
X32631380Y-53470380D01*
X32631380Y-53565619D01*
X31726619Y-53803714D02*
X31726619Y-54470380D01*
X32155190Y-53803714D02*
X32155190Y-54327523D01*
X32107571Y-54422761D01*
X32012333Y-54470380D01*
X31869476Y-54470380D01*
X31774238Y-54422761D01*
X31726619Y-54375142D01*
X41369476Y-55080380D02*
X40798047Y-55080380D01*
X41083761Y-56080380D02*
X41083761Y-55080380D01*
X40464714Y-56080380D02*
X40464714Y-55413714D01*
X40464714Y-55080380D02*
X40512333Y-55128000D01*
X40464714Y-55175619D01*
X40417095Y-55128000D01*
X40464714Y-55080380D01*
X40464714Y-55175619D01*
X39988523Y-56080380D02*
X39988523Y-55413714D01*
X39988523Y-55508952D02*
X39940904Y-55461333D01*
X39845666Y-55413714D01*
X39702809Y-55413714D01*
X39607571Y-55461333D01*
X39559952Y-55556571D01*
X39559952Y-56080380D01*
X39559952Y-55556571D02*
X39512333Y-55461333D01*
X39417095Y-55413714D01*
X39274238Y-55413714D01*
X39179000Y-55461333D01*
X39131380Y-55556571D01*
X39131380Y-56080380D01*
X38512333Y-56080380D02*
X38607571Y-56032761D01*
X38655190Y-55985142D01*
X38702809Y-55889904D01*
X38702809Y-55604190D01*
X38655190Y-55508952D01*
X38607571Y-55461333D01*
X38512333Y-55413714D01*
X38369476Y-55413714D01*
X38274238Y-55461333D01*
X38226619Y-55508952D01*
X38179000Y-55604190D01*
X38179000Y-55889904D01*
X38226619Y-55985142D01*
X38274238Y-56032761D01*
X38369476Y-56080380D01*
X38512333Y-56080380D01*
X37893285Y-55413714D02*
X37512333Y-55413714D01*
X37750428Y-55080380D02*
X37750428Y-55937523D01*
X37702809Y-56032761D01*
X37607571Y-56080380D01*
X37512333Y-56080380D01*
X37179000Y-56080380D02*
X37179000Y-55080380D01*
X36750428Y-56080380D02*
X36750428Y-55556571D01*
X36798047Y-55461333D01*
X36893285Y-55413714D01*
X37036142Y-55413714D01*
X37131380Y-55461333D01*
X37179000Y-55508952D01*
X36369476Y-55413714D02*
X36131380Y-56080380D01*
X35893285Y-55413714D02*
X36131380Y-56080380D01*
X36226619Y-56318476D01*
X36274238Y-56366095D01*
X36369476Y-56413714D01*
X34750428Y-56080380D02*
X34750428Y-55080380D01*
X34179000Y-56080380D01*
X34179000Y-55080380D01*
X33321857Y-56032761D02*
X33417095Y-56080380D01*
X33607571Y-56080380D01*
X33702809Y-56032761D01*
X33750428Y-55937523D01*
X33750428Y-55556571D01*
X33702809Y-55461333D01*
X33607571Y-55413714D01*
X33417095Y-55413714D01*
X33321857Y-55461333D01*
X33274238Y-55556571D01*
X33274238Y-55651809D01*
X33750428Y-55747047D01*
X32940904Y-55413714D02*
X32750428Y-56080380D01*
X32559952Y-55604190D01*
X32369476Y-56080380D01*
X32179000Y-55413714D01*
X31798047Y-56080380D02*
X31798047Y-55413714D01*
X31798047Y-55508952D02*
X31750428Y-55461333D01*
X31655190Y-55413714D01*
X31512333Y-55413714D01*
X31417095Y-55461333D01*
X31369476Y-55556571D01*
X31369476Y-56080380D01*
X31369476Y-55556571D02*
X31321857Y-55461333D01*
X31226619Y-55413714D01*
X31083761Y-55413714D01*
X30988523Y-55461333D01*
X30940904Y-55556571D01*
X30940904Y-56080380D01*
X30036142Y-56080380D02*
X30036142Y-55556571D01*
X30083761Y-55461333D01*
X30179000Y-55413714D01*
X30369476Y-55413714D01*
X30464714Y-55461333D01*
X30036142Y-56032761D02*
X30131380Y-56080380D01*
X30369476Y-56080380D01*
X30464714Y-56032761D01*
X30512333Y-55937523D01*
X30512333Y-55842285D01*
X30464714Y-55747047D01*
X30369476Y-55699428D01*
X30131380Y-55699428D01*
X30036142Y-55651809D01*
X29559952Y-55413714D02*
X29559952Y-56080380D01*
X29559952Y-55508952D02*
X29512333Y-55461333D01*
X29417095Y-55413714D01*
X29274238Y-55413714D01*
X29179000Y-55461333D01*
X29131380Y-55556571D01*
X29131380Y-56080380D01*
X40964714Y-56690380D02*
X40631380Y-57690380D01*
X40298047Y-56690380D01*
X39536142Y-57690380D02*
X39536142Y-57166571D01*
X39583761Y-57071333D01*
X39679000Y-57023714D01*
X39869476Y-57023714D01*
X39964714Y-57071333D01*
X39536142Y-57642761D02*
X39631380Y-57690380D01*
X39869476Y-57690380D01*
X39964714Y-57642761D01*
X40012333Y-57547523D01*
X40012333Y-57452285D01*
X39964714Y-57357047D01*
X39869476Y-57309428D01*
X39631380Y-57309428D01*
X39536142Y-57261809D01*
X39679000Y-56642761D02*
X39821857Y-56785619D01*
X38631380Y-57642761D02*
X38726619Y-57690380D01*
X38917095Y-57690380D01*
X39012333Y-57642761D01*
X39059952Y-57595142D01*
X39107571Y-57499904D01*
X39107571Y-57214190D01*
X39059952Y-57118952D01*
X39012333Y-57071333D01*
X38917095Y-57023714D01*
X38726619Y-57023714D01*
X38631380Y-57071333D01*
X38059952Y-57690380D02*
X38155190Y-57642761D01*
X38202809Y-57547523D01*
X38202809Y-56690380D01*
X37250428Y-57690380D02*
X37250428Y-57166571D01*
X37298047Y-57071333D01*
X37393285Y-57023714D01*
X37583761Y-57023714D01*
X37679000Y-57071333D01*
X37250428Y-57642761D02*
X37345666Y-57690380D01*
X37583761Y-57690380D01*
X37679000Y-57642761D01*
X37726619Y-57547523D01*
X37726619Y-57452285D01*
X37679000Y-57357047D01*
X37583761Y-57309428D01*
X37345666Y-57309428D01*
X37250428Y-57261809D01*
X36869476Y-57023714D02*
X36631380Y-57690380D01*
X36393285Y-57023714D01*
X35250428Y-57690380D02*
X35250428Y-56690380D01*
X34869476Y-56690380D01*
X34774238Y-56738000D01*
X34726619Y-56785619D01*
X34679000Y-56880857D01*
X34679000Y-57023714D01*
X34726619Y-57118952D01*
X34774238Y-57166571D01*
X34869476Y-57214190D01*
X35250428Y-57214190D01*
X33821857Y-57690380D02*
X33821857Y-57166571D01*
X33869476Y-57071333D01*
X33964714Y-57023714D01*
X34155190Y-57023714D01*
X34250428Y-57071333D01*
X33821857Y-57642761D02*
X33917095Y-57690380D01*
X34155190Y-57690380D01*
X34250428Y-57642761D01*
X34298047Y-57547523D01*
X34298047Y-57452285D01*
X34250428Y-57357047D01*
X34155190Y-57309428D01*
X33917095Y-57309428D01*
X33821857Y-57261809D01*
X33440904Y-57023714D02*
X33202809Y-57690380D01*
X32964714Y-57023714D01*
X32440904Y-57690380D02*
X32536142Y-57642761D01*
X32583761Y-57547523D01*
X32583761Y-56690380D01*
X32059952Y-57690380D02*
X32059952Y-57023714D01*
X31964714Y-56642761D02*
X32107571Y-56785619D01*
X31155190Y-57642761D02*
X31250428Y-57690380D01*
X31440904Y-57690380D01*
X31536142Y-57642761D01*
X31583761Y-57595142D01*
X31631380Y-57499904D01*
X31631380Y-57214190D01*
X31583761Y-57118952D01*
X31536142Y-57071333D01*
X31440904Y-57023714D01*
X31250428Y-57023714D01*
X31155190Y-57071333D01*
X30345666Y-57642761D02*
X30440904Y-57690380D01*
X30631380Y-57690380D01*
X30726619Y-57642761D01*
X30774238Y-57547523D01*
X30774238Y-57166571D01*
X30726619Y-57071333D01*
X30631380Y-57023714D01*
X30440904Y-57023714D01*
X30345666Y-57071333D01*
X30298047Y-57166571D01*
X30298047Y-57261809D01*
X30774238Y-57357047D01*
X29869476Y-57690380D02*
X29869476Y-56690380D01*
X29774238Y-57309428D02*
X29488523Y-57690380D01*
X29488523Y-57023714D02*
X29869476Y-57404666D01*
X21296380Y-41481952D02*
X22010666Y-41481952D01*
X22153523Y-41434333D01*
X22248761Y-41339095D01*
X22296380Y-41196238D01*
X22296380Y-41101000D01*
X22296380Y-42434333D02*
X22296380Y-41958142D01*
X21296380Y-41958142D01*
X22201142Y-43339095D02*
X22248761Y-43291476D01*
X22296380Y-43148619D01*
X22296380Y-43053380D01*
X22248761Y-42910523D01*
X22153523Y-42815285D01*
X22058285Y-42767666D01*
X21867809Y-42720047D01*
X21724952Y-42720047D01*
X21534476Y-42767666D01*
X21439238Y-42815285D01*
X21344000Y-42910523D01*
X21296380Y-43053380D01*
X21296380Y-43148619D01*
X21344000Y-43291476D01*
X21391619Y-43339095D01*
X21296380Y-44053380D02*
X22010666Y-44053380D01*
X22153523Y-44005761D01*
X22248761Y-43910523D01*
X22296380Y-43767666D01*
X22296380Y-43672428D01*
X22296380Y-45005761D02*
X22296380Y-44529571D01*
X21296380Y-44529571D01*
X22201142Y-45910523D02*
X22248761Y-45862904D01*
X22296380Y-45720047D01*
X22296380Y-45624809D01*
X22248761Y-45481952D01*
X22153523Y-45386714D01*
X22058285Y-45339095D01*
X21867809Y-45291476D01*
X21724952Y-45291476D01*
X21534476Y-45339095D01*
X21439238Y-45386714D01*
X21344000Y-45481952D01*
X21296380Y-45624809D01*
X21296380Y-45720047D01*
X21344000Y-45862904D01*
X21391619Y-45910523D01*
X21296380Y-46624809D02*
X22010666Y-46624809D01*
X22153523Y-46577190D01*
X22248761Y-46481952D01*
X22296380Y-46339095D01*
X22296380Y-46243857D01*
X22296380Y-47577190D02*
X22296380Y-47101000D01*
X21296380Y-47101000D01*
X22201142Y-48481952D02*
X22248761Y-48434333D01*
X22296380Y-48291476D01*
X22296380Y-48196238D01*
X22248761Y-48053380D01*
X22153523Y-47958142D01*
X22058285Y-47910523D01*
X21867809Y-47862904D01*
X21724952Y-47862904D01*
X21534476Y-47910523D01*
X21439238Y-47958142D01*
X21344000Y-48053380D01*
X21296380Y-48196238D01*
X21296380Y-48291476D01*
X21344000Y-48434333D01*
X21391619Y-48481952D01*
X21296380Y-49196238D02*
X22010666Y-49196238D01*
X22153523Y-49148619D01*
X22248761Y-49053380D01*
X22296380Y-48910523D01*
X22296380Y-48815285D01*
X22296380Y-50148619D02*
X22296380Y-49672428D01*
X21296380Y-49672428D01*
X22201142Y-51053380D02*
X22248761Y-51005761D01*
X22296380Y-50862904D01*
X22296380Y-50767666D01*
X22248761Y-50624809D01*
X22153523Y-50529571D01*
X22058285Y-50481952D01*
X21867809Y-50434333D01*
X21724952Y-50434333D01*
X21534476Y-50481952D01*
X21439238Y-50529571D01*
X21344000Y-50624809D01*
X21296380Y-50767666D01*
X21296380Y-50862904D01*
X21344000Y-51005761D01*
X21391619Y-51053380D01*
X45194904Y-29265571D02*
X45528238Y-29265571D01*
X45528238Y-29789380D02*
X45528238Y-28789380D01*
X45052047Y-28789380D01*
X44528238Y-29789380D02*
X44623476Y-29741761D01*
X44671095Y-29646523D01*
X44671095Y-28789380D01*
X44147285Y-29789380D02*
X44147285Y-29122714D01*
X44147285Y-28789380D02*
X44194904Y-28837000D01*
X44147285Y-28884619D01*
X44099666Y-28837000D01*
X44147285Y-28789380D01*
X44147285Y-28884619D01*
X43242523Y-29122714D02*
X43242523Y-29932238D01*
X43290142Y-30027476D01*
X43337761Y-30075095D01*
X43433000Y-30122714D01*
X43575857Y-30122714D01*
X43671095Y-30075095D01*
X43242523Y-29741761D02*
X43337761Y-29789380D01*
X43528238Y-29789380D01*
X43623476Y-29741761D01*
X43671095Y-29694142D01*
X43718714Y-29598904D01*
X43718714Y-29313190D01*
X43671095Y-29217952D01*
X43623476Y-29170333D01*
X43528238Y-29122714D01*
X43337761Y-29122714D01*
X43242523Y-29170333D01*
X42766333Y-29789380D02*
X42766333Y-28789380D01*
X42337761Y-29789380D02*
X42337761Y-29265571D01*
X42385380Y-29170333D01*
X42480619Y-29122714D01*
X42623476Y-29122714D01*
X42718714Y-29170333D01*
X42766333Y-29217952D01*
X42004428Y-29122714D02*
X41623476Y-29122714D01*
X41861571Y-28789380D02*
X41861571Y-29646523D01*
X41813952Y-29741761D01*
X41718714Y-29789380D01*
X41623476Y-29789380D01*
X39956809Y-29694142D02*
X40004428Y-29741761D01*
X40147285Y-29789380D01*
X40242523Y-29789380D01*
X40385380Y-29741761D01*
X40480619Y-29646523D01*
X40528238Y-29551285D01*
X40575857Y-29360809D01*
X40575857Y-29217952D01*
X40528238Y-29027476D01*
X40480619Y-28932238D01*
X40385380Y-28837000D01*
X40242523Y-28789380D01*
X40147285Y-28789380D01*
X40004428Y-28837000D01*
X39956809Y-28884619D01*
X39385380Y-29789380D02*
X39480619Y-29741761D01*
X39528238Y-29694142D01*
X39575857Y-29598904D01*
X39575857Y-29313190D01*
X39528238Y-29217952D01*
X39480619Y-29170333D01*
X39385380Y-29122714D01*
X39242523Y-29122714D01*
X39147285Y-29170333D01*
X39099666Y-29217952D01*
X39052047Y-29313190D01*
X39052047Y-29598904D01*
X39099666Y-29694142D01*
X39147285Y-29741761D01*
X39242523Y-29789380D01*
X39385380Y-29789380D01*
X38623476Y-29789380D02*
X38623476Y-29122714D01*
X38623476Y-29217952D02*
X38575857Y-29170333D01*
X38480619Y-29122714D01*
X38337761Y-29122714D01*
X38242523Y-29170333D01*
X38194904Y-29265571D01*
X38194904Y-29789380D01*
X38194904Y-29265571D02*
X38147285Y-29170333D01*
X38052047Y-29122714D01*
X37909190Y-29122714D01*
X37813952Y-29170333D01*
X37766333Y-29265571D01*
X37766333Y-29789380D01*
X37290142Y-29122714D02*
X37290142Y-30122714D01*
X37290142Y-29170333D02*
X37194904Y-29122714D01*
X37004428Y-29122714D01*
X36909190Y-29170333D01*
X36861571Y-29217952D01*
X36813952Y-29313190D01*
X36813952Y-29598904D01*
X36861571Y-29694142D01*
X36909190Y-29741761D01*
X37004428Y-29789380D01*
X37194904Y-29789380D01*
X37290142Y-29741761D01*
X35956809Y-29122714D02*
X35956809Y-29789380D01*
X36385380Y-29122714D02*
X36385380Y-29646523D01*
X36337761Y-29741761D01*
X36242523Y-29789380D01*
X36099666Y-29789380D01*
X36004428Y-29741761D01*
X35956809Y-29694142D01*
X35623476Y-29122714D02*
X35242523Y-29122714D01*
X35480619Y-28789380D02*
X35480619Y-29646523D01*
X35433000Y-29741761D01*
X35337761Y-29789380D01*
X35242523Y-29789380D01*
X34528238Y-29741761D02*
X34623476Y-29789380D01*
X34813952Y-29789380D01*
X34909190Y-29741761D01*
X34956809Y-29646523D01*
X34956809Y-29265571D01*
X34909190Y-29170333D01*
X34813952Y-29122714D01*
X34623476Y-29122714D01*
X34528238Y-29170333D01*
X34480619Y-29265571D01*
X34480619Y-29360809D01*
X34956809Y-29456047D01*
X34052047Y-29789380D02*
X34052047Y-29122714D01*
X34052047Y-29313190D02*
X34004428Y-29217952D01*
X33956809Y-29170333D01*
X33861571Y-29122714D01*
X33766333Y-29122714D01*
X32813952Y-28789380D02*
X32480619Y-29789380D01*
X32147285Y-28789380D01*
X31861571Y-28884619D02*
X31813952Y-28837000D01*
X31718714Y-28789380D01*
X31480619Y-28789380D01*
X31385380Y-28837000D01*
X31337761Y-28884619D01*
X31290142Y-28979857D01*
X31290142Y-29075095D01*
X31337761Y-29217952D01*
X31909190Y-29789380D01*
X31290142Y-29789380D01*
X30861571Y-29694142D02*
X30813952Y-29741761D01*
X30861571Y-29789380D01*
X30909190Y-29741761D01*
X30861571Y-29694142D01*
X30861571Y-29789380D01*
X30194904Y-28789380D02*
X30099666Y-28789380D01*
X30004428Y-28837000D01*
X29956809Y-28884619D01*
X29909190Y-28979857D01*
X29861571Y-29170333D01*
X29861571Y-29408428D01*
X29909190Y-29598904D01*
X29956809Y-29694142D01*
X30004428Y-29741761D01*
X30099666Y-29789380D01*
X30194904Y-29789380D01*
X30290142Y-29741761D01*
X30337761Y-29694142D01*
X30385380Y-29598904D01*
X30433000Y-29408428D01*
X30433000Y-29170333D01*
X30385380Y-28979857D01*
X30337761Y-28884619D01*
X30290142Y-28837000D01*
X30194904Y-28789380D01*
X28718714Y-28884619D02*
X28671095Y-28837000D01*
X28575857Y-28789380D01*
X28337761Y-28789380D01*
X28242523Y-28837000D01*
X28194904Y-28884619D01*
X28147285Y-28979857D01*
X28147285Y-29075095D01*
X28194904Y-29217952D01*
X28766333Y-29789380D01*
X28147285Y-29789380D01*
X27528238Y-28789380D02*
X27433000Y-28789380D01*
X27337761Y-28837000D01*
X27290142Y-28884619D01*
X27242523Y-28979857D01*
X27194904Y-29170333D01*
X27194904Y-29408428D01*
X27242523Y-29598904D01*
X27290142Y-29694142D01*
X27337761Y-29741761D01*
X27433000Y-29789380D01*
X27528238Y-29789380D01*
X27623476Y-29741761D01*
X27671095Y-29694142D01*
X27718714Y-29598904D01*
X27766333Y-29408428D01*
X27766333Y-29170333D01*
X27718714Y-28979857D01*
X27671095Y-28884619D01*
X27623476Y-28837000D01*
X27528238Y-28789380D01*
X26813952Y-28884619D02*
X26766333Y-28837000D01*
X26671095Y-28789380D01*
X26433000Y-28789380D01*
X26337761Y-28837000D01*
X26290142Y-28884619D01*
X26242523Y-28979857D01*
X26242523Y-29075095D01*
X26290142Y-29217952D01*
X26861571Y-29789380D01*
X26242523Y-29789380D01*
X25909190Y-28789380D02*
X25290142Y-28789380D01*
X25623476Y-29170333D01*
X25480619Y-29170333D01*
X25385380Y-29217952D01*
X25337761Y-29265571D01*
X25290142Y-29360809D01*
X25290142Y-29598904D01*
X25337761Y-29694142D01*
X25385380Y-29741761D01*
X25480619Y-29789380D01*
X25766333Y-29789380D01*
X25861571Y-29741761D01*
X25909190Y-29694142D01*
%TO.C,U10*%
X24352095Y-86320380D02*
X24352095Y-87129904D01*
X24304476Y-87225142D01*
X24256857Y-87272761D01*
X24161619Y-87320380D01*
X23971142Y-87320380D01*
X23875904Y-87272761D01*
X23828285Y-87225142D01*
X23780666Y-87129904D01*
X23780666Y-86320380D01*
X22780666Y-87320380D02*
X23352095Y-87320380D01*
X23066380Y-87320380D02*
X23066380Y-86320380D01*
X23161619Y-86463238D01*
X23256857Y-86558476D01*
X23352095Y-86606095D01*
X22161619Y-86320380D02*
X22066380Y-86320380D01*
X21971142Y-86368000D01*
X21923523Y-86415619D01*
X21875904Y-86510857D01*
X21828285Y-86701333D01*
X21828285Y-86939428D01*
X21875904Y-87129904D01*
X21923523Y-87225142D01*
X21971142Y-87272761D01*
X22066380Y-87320380D01*
X22161619Y-87320380D01*
X22256857Y-87272761D01*
X22304476Y-87225142D01*
X22352095Y-87129904D01*
X22399714Y-86939428D01*
X22399714Y-86701333D01*
X22352095Y-86510857D01*
X22304476Y-86415619D01*
X22256857Y-86368000D01*
X22161619Y-86320380D01*
%TO.C,C27*%
X23123142Y-75430142D02*
X23170761Y-75382523D01*
X23218380Y-75239666D01*
X23218380Y-75144428D01*
X23170761Y-75001571D01*
X23075523Y-74906333D01*
X22980285Y-74858714D01*
X22789809Y-74811095D01*
X22646952Y-74811095D01*
X22456476Y-74858714D01*
X22361238Y-74906333D01*
X22266000Y-75001571D01*
X22218380Y-75144428D01*
X22218380Y-75239666D01*
X22266000Y-75382523D01*
X22313619Y-75430142D01*
X22313619Y-75811095D02*
X22266000Y-75858714D01*
X22218380Y-75953952D01*
X22218380Y-76192047D01*
X22266000Y-76287285D01*
X22313619Y-76334904D01*
X22408857Y-76382523D01*
X22504095Y-76382523D01*
X22646952Y-76334904D01*
X23218380Y-75763476D01*
X23218380Y-76382523D01*
X22218380Y-76715857D02*
X22218380Y-77382523D01*
X23218380Y-76953952D01*
D11*
%TO.C,J4*%
X29760333Y-92014523D02*
X29760333Y-92921666D01*
X29820809Y-93103095D01*
X29941761Y-93224047D01*
X30123190Y-93284523D01*
X30244142Y-93284523D01*
X28611285Y-92437857D02*
X28611285Y-93284523D01*
X28913666Y-91954047D02*
X29216047Y-92861190D01*
X28429857Y-92861190D01*
%TO.C,G\u002A\u002A\u002A*%
G36*
X33378374Y-30522655D02*
G01*
X33492671Y-30528683D01*
X33768045Y-30553344D01*
X34030226Y-30591489D01*
X34277591Y-30642695D01*
X34508519Y-30706536D01*
X34721388Y-30782588D01*
X34914577Y-30870428D01*
X35086463Y-30969629D01*
X35179250Y-31032665D01*
X35296048Y-31122319D01*
X35399664Y-31216730D01*
X35496876Y-31322242D01*
X35594460Y-31445200D01*
X35641134Y-31510524D01*
X35716224Y-31633387D01*
X35778022Y-31763087D01*
X35831189Y-31908750D01*
X35844511Y-31950641D01*
X35877332Y-32060557D01*
X35902215Y-32158256D01*
X35920021Y-32249982D01*
X35931608Y-32341980D01*
X35937838Y-32440493D01*
X35939568Y-32551765D01*
X35937660Y-32682041D01*
X35931619Y-32829500D01*
X35918583Y-32979812D01*
X35898119Y-33114389D01*
X35869282Y-33238055D01*
X35831124Y-33355637D01*
X35782700Y-33471960D01*
X35742605Y-33550857D01*
X35654059Y-33689404D01*
X35546526Y-33822816D01*
X35424068Y-33946744D01*
X35290748Y-34056837D01*
X35150629Y-34148746D01*
X35071719Y-34191744D01*
X34961871Y-34244880D01*
X34843186Y-34294712D01*
X34713598Y-34341840D01*
X34571044Y-34386864D01*
X34413458Y-34430383D01*
X34238776Y-34472996D01*
X34044932Y-34515303D01*
X33829862Y-34557904D01*
X33591500Y-34601397D01*
X33447705Y-34627183D01*
X33232010Y-34668043D01*
X33039160Y-34707706D01*
X32867622Y-34746672D01*
X32715857Y-34785439D01*
X32582330Y-34824508D01*
X32465507Y-34864376D01*
X32363849Y-34905544D01*
X32275823Y-34948509D01*
X32199891Y-34993773D01*
X32134518Y-35041833D01*
X32078168Y-35093188D01*
X32066856Y-35104925D01*
X31995974Y-35193995D01*
X31944091Y-35291979D01*
X31910298Y-35401706D01*
X31893684Y-35526006D01*
X31893339Y-35667707D01*
X31894906Y-35694554D01*
X31909390Y-35813397D01*
X31937087Y-35915788D01*
X31980561Y-36007411D01*
X32042378Y-36093947D01*
X32125103Y-36181078D01*
X32225027Y-36264105D01*
X32357592Y-36348826D01*
X32506222Y-36421459D01*
X32666797Y-36480281D01*
X32835197Y-36523571D01*
X33007300Y-36549607D01*
X33056104Y-36553998D01*
X33184835Y-36562667D01*
X33322685Y-36568378D01*
X33465354Y-36571199D01*
X33608540Y-36571198D01*
X33747944Y-36568442D01*
X33879264Y-36562998D01*
X33998202Y-36554934D01*
X34100456Y-36544316D01*
X34181725Y-36531213D01*
X34244751Y-36517516D01*
X34430990Y-36469858D01*
X34621564Y-36411296D01*
X34811520Y-36343789D01*
X34995904Y-36269296D01*
X35169763Y-36189773D01*
X35328142Y-36107180D01*
X35466089Y-36023474D01*
X35479206Y-36014827D01*
X35532238Y-35980916D01*
X35577729Y-35953438D01*
X35611202Y-35935022D01*
X35628176Y-35928300D01*
X35634975Y-35929857D01*
X35653602Y-35942306D01*
X35680451Y-35968412D01*
X35716767Y-36009622D01*
X35763796Y-36067382D01*
X35822781Y-36143140D01*
X35894969Y-36238341D01*
X35906302Y-36253449D01*
X35978444Y-36350836D01*
X36045977Y-36444033D01*
X36107076Y-36530393D01*
X36159917Y-36607268D01*
X36202674Y-36672010D01*
X36233524Y-36721969D01*
X36250641Y-36754499D01*
X36251773Y-36757266D01*
X36261430Y-36790804D01*
X36262312Y-36815925D01*
X36261107Y-36819202D01*
X36241432Y-36843596D01*
X36201930Y-36876726D01*
X36145367Y-36917000D01*
X36074508Y-36962829D01*
X35992119Y-37012622D01*
X35900965Y-37064791D01*
X35803812Y-37117745D01*
X35703426Y-37169894D01*
X35602572Y-37219648D01*
X35504016Y-37265417D01*
X35410523Y-37305612D01*
X35319386Y-37341579D01*
X35133872Y-37407550D01*
X34940119Y-37467870D01*
X34743143Y-37521321D01*
X34547959Y-37566688D01*
X34359580Y-37602753D01*
X34183023Y-37628300D01*
X34023300Y-37642113D01*
X34008253Y-37642860D01*
X33878922Y-37648215D01*
X33750467Y-37651442D01*
X33617650Y-37652549D01*
X33475234Y-37651540D01*
X33317980Y-37648423D01*
X33140650Y-37643205D01*
X33049704Y-37640039D01*
X32943278Y-37635593D01*
X32853989Y-37630504D01*
X32777056Y-37624186D01*
X32707698Y-37616052D01*
X32641135Y-37605515D01*
X32572585Y-37591990D01*
X32497267Y-37574889D01*
X32410400Y-37553627D01*
X32335427Y-37534322D01*
X32104465Y-37466451D01*
X31895637Y-37390995D01*
X31707041Y-37306941D01*
X31536772Y-37213275D01*
X31382929Y-37108982D01*
X31243608Y-36993050D01*
X31116907Y-36864464D01*
X31050165Y-36785684D01*
X30929615Y-36615844D01*
X30831407Y-36435039D01*
X30755337Y-36242698D01*
X30701200Y-36038254D01*
X30668791Y-35821137D01*
X30657905Y-35590780D01*
X30665061Y-35392252D01*
X30692369Y-35171836D01*
X30740129Y-34966404D01*
X30808371Y-34775874D01*
X30897127Y-34600160D01*
X31006427Y-34439179D01*
X31136303Y-34292845D01*
X31155879Y-34273723D01*
X31206886Y-34227265D01*
X31259417Y-34185316D01*
X31317843Y-34144986D01*
X31386535Y-34103388D01*
X31469863Y-34057633D01*
X31572199Y-34004835D01*
X31580013Y-34000890D01*
X31666206Y-33958188D01*
X31747659Y-33919750D01*
X31826847Y-33884835D01*
X31906249Y-33852703D01*
X31988339Y-33822616D01*
X32075595Y-33793833D01*
X32170493Y-33765615D01*
X32275510Y-33737222D01*
X32393122Y-33707914D01*
X32525805Y-33676952D01*
X32676037Y-33643597D01*
X32846293Y-33607108D01*
X33039050Y-33566746D01*
X33192686Y-33534788D01*
X33324917Y-33507156D01*
X33437118Y-33483528D01*
X33531724Y-33463360D01*
X33611170Y-33446110D01*
X33677890Y-33431234D01*
X33734322Y-33418190D01*
X33782899Y-33406434D01*
X33826056Y-33395424D01*
X33866231Y-33384616D01*
X33905856Y-33373468D01*
X33920251Y-33369306D01*
X34099322Y-33309799D01*
X34254465Y-33242720D01*
X34386050Y-33167830D01*
X34494447Y-33084888D01*
X34580024Y-32993655D01*
X34643151Y-32893889D01*
X34651722Y-32876243D01*
X34676510Y-32815890D01*
X34693479Y-32754116D01*
X34703593Y-32685003D01*
X34707816Y-32602635D01*
X34707109Y-32501096D01*
X34702745Y-32327850D01*
X34647103Y-32214025D01*
X34637419Y-32194554D01*
X34607743Y-32140703D01*
X34575813Y-32094158D01*
X34535833Y-32047117D01*
X34482006Y-31991775D01*
X34481712Y-31991484D01*
X34394154Y-31912434D01*
X34302690Y-31846233D01*
X34203045Y-31790817D01*
X34090948Y-31744127D01*
X33962124Y-31704100D01*
X33812300Y-31668674D01*
X33799705Y-31666056D01*
X33634313Y-31634981D01*
X33481292Y-31613420D01*
X33335542Y-31601451D01*
X33191965Y-31599152D01*
X33045461Y-31606601D01*
X32890932Y-31623877D01*
X32723278Y-31651058D01*
X32537400Y-31688222D01*
X32531478Y-31689496D01*
X32437205Y-31711081D01*
X32351057Y-31733886D01*
X32267963Y-31759736D01*
X32182852Y-31790453D01*
X32090653Y-31827860D01*
X31986296Y-31873779D01*
X31864708Y-31930034D01*
X31819317Y-31951844D01*
X31746284Y-31988641D01*
X31675348Y-32026219D01*
X31610677Y-32062233D01*
X31556434Y-32094343D01*
X31516786Y-32120203D01*
X31495898Y-32137472D01*
X31486352Y-32146274D01*
X31453370Y-32156173D01*
X31415094Y-32147561D01*
X31379093Y-32121474D01*
X31369143Y-32109428D01*
X31344660Y-32075837D01*
X31310732Y-32026588D01*
X31269160Y-31964518D01*
X31221748Y-31892462D01*
X31170298Y-31813254D01*
X31116612Y-31729731D01*
X31062492Y-31644728D01*
X31009741Y-31561081D01*
X30960160Y-31481624D01*
X30915553Y-31409194D01*
X30877721Y-31346625D01*
X30848467Y-31296754D01*
X30829592Y-31262415D01*
X30822900Y-31246445D01*
X30827212Y-31239247D01*
X30850926Y-31219882D01*
X30892661Y-31192359D01*
X30949363Y-31158328D01*
X31017976Y-31119437D01*
X31095446Y-31077335D01*
X31178716Y-31033670D01*
X31264732Y-30990092D01*
X31350438Y-30948249D01*
X31432779Y-30909790D01*
X31508700Y-30876363D01*
X31539509Y-30863478D01*
X31789863Y-30769700D01*
X32052398Y-30689425D01*
X32322273Y-30623569D01*
X32594648Y-30573049D01*
X32864683Y-30538779D01*
X33127539Y-30521676D01*
X33378374Y-30522655D01*
G37*
D12*
X33378374Y-30522655D02*
X33492671Y-30528683D01*
X33768045Y-30553344D01*
X34030226Y-30591489D01*
X34277591Y-30642695D01*
X34508519Y-30706536D01*
X34721388Y-30782588D01*
X34914577Y-30870428D01*
X35086463Y-30969629D01*
X35179250Y-31032665D01*
X35296048Y-31122319D01*
X35399664Y-31216730D01*
X35496876Y-31322242D01*
X35594460Y-31445200D01*
X35641134Y-31510524D01*
X35716224Y-31633387D01*
X35778022Y-31763087D01*
X35831189Y-31908750D01*
X35844511Y-31950641D01*
X35877332Y-32060557D01*
X35902215Y-32158256D01*
X35920021Y-32249982D01*
X35931608Y-32341980D01*
X35937838Y-32440493D01*
X35939568Y-32551765D01*
X35937660Y-32682041D01*
X35931619Y-32829500D01*
X35918583Y-32979812D01*
X35898119Y-33114389D01*
X35869282Y-33238055D01*
X35831124Y-33355637D01*
X35782700Y-33471960D01*
X35742605Y-33550857D01*
X35654059Y-33689404D01*
X35546526Y-33822816D01*
X35424068Y-33946744D01*
X35290748Y-34056837D01*
X35150629Y-34148746D01*
X35071719Y-34191744D01*
X34961871Y-34244880D01*
X34843186Y-34294712D01*
X34713598Y-34341840D01*
X34571044Y-34386864D01*
X34413458Y-34430383D01*
X34238776Y-34472996D01*
X34044932Y-34515303D01*
X33829862Y-34557904D01*
X33591500Y-34601397D01*
X33447705Y-34627183D01*
X33232010Y-34668043D01*
X33039160Y-34707706D01*
X32867622Y-34746672D01*
X32715857Y-34785439D01*
X32582330Y-34824508D01*
X32465507Y-34864376D01*
X32363849Y-34905544D01*
X32275823Y-34948509D01*
X32199891Y-34993773D01*
X32134518Y-35041833D01*
X32078168Y-35093188D01*
X32066856Y-35104925D01*
X31995974Y-35193995D01*
X31944091Y-35291979D01*
X31910298Y-35401706D01*
X31893684Y-35526006D01*
X31893339Y-35667707D01*
X31894906Y-35694554D01*
X31909390Y-35813397D01*
X31937087Y-35915788D01*
X31980561Y-36007411D01*
X32042378Y-36093947D01*
X32125103Y-36181078D01*
X32225027Y-36264105D01*
X32357592Y-36348826D01*
X32506222Y-36421459D01*
X32666797Y-36480281D01*
X32835197Y-36523571D01*
X33007300Y-36549607D01*
X33056104Y-36553998D01*
X33184835Y-36562667D01*
X33322685Y-36568378D01*
X33465354Y-36571199D01*
X33608540Y-36571198D01*
X33747944Y-36568442D01*
X33879264Y-36562998D01*
X33998202Y-36554934D01*
X34100456Y-36544316D01*
X34181725Y-36531213D01*
X34244751Y-36517516D01*
X34430990Y-36469858D01*
X34621564Y-36411296D01*
X34811520Y-36343789D01*
X34995904Y-36269296D01*
X35169763Y-36189773D01*
X35328142Y-36107180D01*
X35466089Y-36023474D01*
X35479206Y-36014827D01*
X35532238Y-35980916D01*
X35577729Y-35953438D01*
X35611202Y-35935022D01*
X35628176Y-35928300D01*
X35634975Y-35929857D01*
X35653602Y-35942306D01*
X35680451Y-35968412D01*
X35716767Y-36009622D01*
X35763796Y-36067382D01*
X35822781Y-36143140D01*
X35894969Y-36238341D01*
X35906302Y-36253449D01*
X35978444Y-36350836D01*
X36045977Y-36444033D01*
X36107076Y-36530393D01*
X36159917Y-36607268D01*
X36202674Y-36672010D01*
X36233524Y-36721969D01*
X36250641Y-36754499D01*
X36251773Y-36757266D01*
X36261430Y-36790804D01*
X36262312Y-36815925D01*
X36261107Y-36819202D01*
X36241432Y-36843596D01*
X36201930Y-36876726D01*
X36145367Y-36917000D01*
X36074508Y-36962829D01*
X35992119Y-37012622D01*
X35900965Y-37064791D01*
X35803812Y-37117745D01*
X35703426Y-37169894D01*
X35602572Y-37219648D01*
X35504016Y-37265417D01*
X35410523Y-37305612D01*
X35319386Y-37341579D01*
X35133872Y-37407550D01*
X34940119Y-37467870D01*
X34743143Y-37521321D01*
X34547959Y-37566688D01*
X34359580Y-37602753D01*
X34183023Y-37628300D01*
X34023300Y-37642113D01*
X34008253Y-37642860D01*
X33878922Y-37648215D01*
X33750467Y-37651442D01*
X33617650Y-37652549D01*
X33475234Y-37651540D01*
X33317980Y-37648423D01*
X33140650Y-37643205D01*
X33049704Y-37640039D01*
X32943278Y-37635593D01*
X32853989Y-37630504D01*
X32777056Y-37624186D01*
X32707698Y-37616052D01*
X32641135Y-37605515D01*
X32572585Y-37591990D01*
X32497267Y-37574889D01*
X32410400Y-37553627D01*
X32335427Y-37534322D01*
X32104465Y-37466451D01*
X31895637Y-37390995D01*
X31707041Y-37306941D01*
X31536772Y-37213275D01*
X31382929Y-37108982D01*
X31243608Y-36993050D01*
X31116907Y-36864464D01*
X31050165Y-36785684D01*
X30929615Y-36615844D01*
X30831407Y-36435039D01*
X30755337Y-36242698D01*
X30701200Y-36038254D01*
X30668791Y-35821137D01*
X30657905Y-35590780D01*
X30665061Y-35392252D01*
X30692369Y-35171836D01*
X30740129Y-34966404D01*
X30808371Y-34775874D01*
X30897127Y-34600160D01*
X31006427Y-34439179D01*
X31136303Y-34292845D01*
X31155879Y-34273723D01*
X31206886Y-34227265D01*
X31259417Y-34185316D01*
X31317843Y-34144986D01*
X31386535Y-34103388D01*
X31469863Y-34057633D01*
X31572199Y-34004835D01*
X31580013Y-34000890D01*
X31666206Y-33958188D01*
X31747659Y-33919750D01*
X31826847Y-33884835D01*
X31906249Y-33852703D01*
X31988339Y-33822616D01*
X32075595Y-33793833D01*
X32170493Y-33765615D01*
X32275510Y-33737222D01*
X32393122Y-33707914D01*
X32525805Y-33676952D01*
X32676037Y-33643597D01*
X32846293Y-33607108D01*
X33039050Y-33566746D01*
X33192686Y-33534788D01*
X33324917Y-33507156D01*
X33437118Y-33483528D01*
X33531724Y-33463360D01*
X33611170Y-33446110D01*
X33677890Y-33431234D01*
X33734322Y-33418190D01*
X33782899Y-33406434D01*
X33826056Y-33395424D01*
X33866231Y-33384616D01*
X33905856Y-33373468D01*
X33920251Y-33369306D01*
X34099322Y-33309799D01*
X34254465Y-33242720D01*
X34386050Y-33167830D01*
X34494447Y-33084888D01*
X34580024Y-32993655D01*
X34643151Y-32893889D01*
X34651722Y-32876243D01*
X34676510Y-32815890D01*
X34693479Y-32754116D01*
X34703593Y-32685003D01*
X34707816Y-32602635D01*
X34707109Y-32501096D01*
X34702745Y-32327850D01*
X34647103Y-32214025D01*
X34637419Y-32194554D01*
X34607743Y-32140703D01*
X34575813Y-32094158D01*
X34535833Y-32047117D01*
X34482006Y-31991775D01*
X34481712Y-31991484D01*
X34394154Y-31912434D01*
X34302690Y-31846233D01*
X34203045Y-31790817D01*
X34090948Y-31744127D01*
X33962124Y-31704100D01*
X33812300Y-31668674D01*
X33799705Y-31666056D01*
X33634313Y-31634981D01*
X33481292Y-31613420D01*
X33335542Y-31601451D01*
X33191965Y-31599152D01*
X33045461Y-31606601D01*
X32890932Y-31623877D01*
X32723278Y-31651058D01*
X32537400Y-31688222D01*
X32531478Y-31689496D01*
X32437205Y-31711081D01*
X32351057Y-31733886D01*
X32267963Y-31759736D01*
X32182852Y-31790453D01*
X32090653Y-31827860D01*
X31986296Y-31873779D01*
X31864708Y-31930034D01*
X31819317Y-31951844D01*
X31746284Y-31988641D01*
X31675348Y-32026219D01*
X31610677Y-32062233D01*
X31556434Y-32094343D01*
X31516786Y-32120203D01*
X31495898Y-32137472D01*
X31486352Y-32146274D01*
X31453370Y-32156173D01*
X31415094Y-32147561D01*
X31379093Y-32121474D01*
X31369143Y-32109428D01*
X31344660Y-32075837D01*
X31310732Y-32026588D01*
X31269160Y-31964518D01*
X31221748Y-31892462D01*
X31170298Y-31813254D01*
X31116612Y-31729731D01*
X31062492Y-31644728D01*
X31009741Y-31561081D01*
X30960160Y-31481624D01*
X30915553Y-31409194D01*
X30877721Y-31346625D01*
X30848467Y-31296754D01*
X30829592Y-31262415D01*
X30822900Y-31246445D01*
X30827212Y-31239247D01*
X30850926Y-31219882D01*
X30892661Y-31192359D01*
X30949363Y-31158328D01*
X31017976Y-31119437D01*
X31095446Y-31077335D01*
X31178716Y-31033670D01*
X31264732Y-30990092D01*
X31350438Y-30948249D01*
X31432779Y-30909790D01*
X31508700Y-30876363D01*
X31539509Y-30863478D01*
X31789863Y-30769700D01*
X32052398Y-30689425D01*
X32322273Y-30623569D01*
X32594648Y-30573049D01*
X32864683Y-30538779D01*
X33127539Y-30521676D01*
X33378374Y-30522655D01*
G36*
X27180774Y-30522655D02*
G01*
X27295071Y-30528683D01*
X27570445Y-30553344D01*
X27832626Y-30591489D01*
X28079991Y-30642695D01*
X28310919Y-30706536D01*
X28523788Y-30782588D01*
X28716977Y-30870428D01*
X28888863Y-30969629D01*
X28981650Y-31032665D01*
X29098448Y-31122319D01*
X29202064Y-31216730D01*
X29299276Y-31322242D01*
X29396860Y-31445200D01*
X29443534Y-31510524D01*
X29518624Y-31633387D01*
X29580422Y-31763087D01*
X29633589Y-31908750D01*
X29646911Y-31950641D01*
X29679732Y-32060557D01*
X29704615Y-32158256D01*
X29722421Y-32249982D01*
X29734008Y-32341980D01*
X29740238Y-32440493D01*
X29741968Y-32551765D01*
X29740060Y-32682041D01*
X29734019Y-32829500D01*
X29720983Y-32979812D01*
X29700519Y-33114389D01*
X29671682Y-33238055D01*
X29633524Y-33355637D01*
X29585100Y-33471960D01*
X29545005Y-33550857D01*
X29456459Y-33689404D01*
X29348926Y-33822816D01*
X29226468Y-33946744D01*
X29093148Y-34056837D01*
X28953029Y-34148746D01*
X28874119Y-34191744D01*
X28764271Y-34244880D01*
X28645586Y-34294712D01*
X28515998Y-34341840D01*
X28373444Y-34386864D01*
X28215858Y-34430383D01*
X28041176Y-34472996D01*
X27847332Y-34515303D01*
X27632262Y-34557904D01*
X27393900Y-34601397D01*
X27250105Y-34627183D01*
X27034410Y-34668043D01*
X26841560Y-34707706D01*
X26670022Y-34746672D01*
X26518257Y-34785439D01*
X26384730Y-34824508D01*
X26267907Y-34864376D01*
X26166249Y-34905544D01*
X26078223Y-34948509D01*
X26002291Y-34993773D01*
X25936918Y-35041833D01*
X25880568Y-35093188D01*
X25869256Y-35104925D01*
X25798374Y-35193995D01*
X25746491Y-35291979D01*
X25712698Y-35401706D01*
X25696084Y-35526006D01*
X25695739Y-35667707D01*
X25697306Y-35694554D01*
X25711790Y-35813397D01*
X25739487Y-35915788D01*
X25782961Y-36007411D01*
X25844778Y-36093947D01*
X25927503Y-36181078D01*
X26027427Y-36264105D01*
X26159992Y-36348826D01*
X26308622Y-36421459D01*
X26469197Y-36480281D01*
X26637597Y-36523571D01*
X26809700Y-36549607D01*
X26858504Y-36553998D01*
X26987235Y-36562667D01*
X27125085Y-36568378D01*
X27267754Y-36571199D01*
X27410940Y-36571198D01*
X27550344Y-36568442D01*
X27681664Y-36562998D01*
X27800602Y-36554934D01*
X27902856Y-36544316D01*
X27984125Y-36531213D01*
X28047151Y-36517516D01*
X28233390Y-36469858D01*
X28423964Y-36411296D01*
X28613920Y-36343789D01*
X28798304Y-36269296D01*
X28972163Y-36189773D01*
X29130542Y-36107180D01*
X29268489Y-36023474D01*
X29281606Y-36014827D01*
X29334638Y-35980916D01*
X29380129Y-35953438D01*
X29413602Y-35935022D01*
X29430576Y-35928300D01*
X29437375Y-35929857D01*
X29456002Y-35942306D01*
X29482851Y-35968412D01*
X29519167Y-36009622D01*
X29566196Y-36067382D01*
X29625181Y-36143140D01*
X29697369Y-36238341D01*
X29708702Y-36253449D01*
X29780844Y-36350836D01*
X29848377Y-36444033D01*
X29909476Y-36530393D01*
X29962317Y-36607268D01*
X30005074Y-36672010D01*
X30035924Y-36721969D01*
X30053041Y-36754499D01*
X30054173Y-36757266D01*
X30063830Y-36790804D01*
X30064712Y-36815925D01*
X30063507Y-36819202D01*
X30043832Y-36843596D01*
X30004330Y-36876726D01*
X29947767Y-36917000D01*
X29876908Y-36962829D01*
X29794519Y-37012622D01*
X29703365Y-37064791D01*
X29606212Y-37117745D01*
X29505826Y-37169894D01*
X29404972Y-37219648D01*
X29306416Y-37265417D01*
X29212923Y-37305612D01*
X29121786Y-37341579D01*
X28936272Y-37407550D01*
X28742519Y-37467870D01*
X28545543Y-37521321D01*
X28350359Y-37566688D01*
X28161980Y-37602753D01*
X27985423Y-37628300D01*
X27825700Y-37642113D01*
X27810653Y-37642860D01*
X27681322Y-37648215D01*
X27552867Y-37651442D01*
X27420050Y-37652549D01*
X27277634Y-37651540D01*
X27120380Y-37648423D01*
X26943050Y-37643205D01*
X26852104Y-37640039D01*
X26745678Y-37635593D01*
X26656389Y-37630504D01*
X26579456Y-37624186D01*
X26510098Y-37616052D01*
X26443535Y-37605515D01*
X26374985Y-37591990D01*
X26299667Y-37574889D01*
X26212800Y-37553627D01*
X26137827Y-37534322D01*
X25906865Y-37466451D01*
X25698037Y-37390995D01*
X25509441Y-37306941D01*
X25339172Y-37213275D01*
X25185329Y-37108982D01*
X25046008Y-36993050D01*
X24919307Y-36864464D01*
X24847290Y-36779286D01*
X24730799Y-36615184D01*
X24635951Y-36441740D01*
X24562172Y-36257401D01*
X24508890Y-36060616D01*
X24475533Y-35849833D01*
X24461528Y-35623500D01*
X24466505Y-35406558D01*
X24491986Y-35188243D01*
X24538079Y-34983211D01*
X24604580Y-34792036D01*
X24691287Y-34615292D01*
X24797998Y-34453555D01*
X24924511Y-34307399D01*
X24953049Y-34279056D01*
X25005476Y-34230806D01*
X25059124Y-34187549D01*
X25118428Y-34146303D01*
X25187819Y-34104089D01*
X25271732Y-34057926D01*
X25374599Y-34004835D01*
X25382413Y-34000890D01*
X25468606Y-33958188D01*
X25550059Y-33919750D01*
X25629247Y-33884835D01*
X25708649Y-33852703D01*
X25790739Y-33822616D01*
X25877995Y-33793833D01*
X25972893Y-33765615D01*
X26077910Y-33737222D01*
X26195522Y-33707914D01*
X26328205Y-33676952D01*
X26478437Y-33643597D01*
X26648693Y-33607108D01*
X26841450Y-33566746D01*
X26995086Y-33534788D01*
X27127317Y-33507156D01*
X27239518Y-33483528D01*
X27334124Y-33463360D01*
X27413570Y-33446110D01*
X27480290Y-33431234D01*
X27536722Y-33418190D01*
X27585299Y-33406434D01*
X27628456Y-33395424D01*
X27668631Y-33384616D01*
X27708256Y-33373468D01*
X27722651Y-33369306D01*
X27901722Y-33309799D01*
X28056865Y-33242720D01*
X28188450Y-33167830D01*
X28296847Y-33084888D01*
X28382424Y-32993655D01*
X28445551Y-32893889D01*
X28454122Y-32876243D01*
X28478910Y-32815890D01*
X28495879Y-32754116D01*
X28505993Y-32685003D01*
X28510216Y-32602635D01*
X28509509Y-32501096D01*
X28505145Y-32327850D01*
X28449503Y-32214025D01*
X28439819Y-32194554D01*
X28410143Y-32140703D01*
X28378213Y-32094158D01*
X28338233Y-32047117D01*
X28284406Y-31991775D01*
X28284112Y-31991484D01*
X28196554Y-31912434D01*
X28105090Y-31846233D01*
X28005445Y-31790817D01*
X27893348Y-31744127D01*
X27764524Y-31704100D01*
X27614700Y-31668674D01*
X27602105Y-31666056D01*
X27436713Y-31634981D01*
X27283692Y-31613420D01*
X27137942Y-31601451D01*
X26994365Y-31599152D01*
X26847861Y-31606601D01*
X26693332Y-31623877D01*
X26525678Y-31651058D01*
X26339800Y-31688222D01*
X26333878Y-31689496D01*
X26239605Y-31711081D01*
X26153457Y-31733886D01*
X26070363Y-31759736D01*
X25985252Y-31790453D01*
X25893053Y-31827860D01*
X25788696Y-31873779D01*
X25667108Y-31930034D01*
X25621717Y-31951844D01*
X25548684Y-31988641D01*
X25477748Y-32026219D01*
X25413077Y-32062233D01*
X25358834Y-32094343D01*
X25319186Y-32120203D01*
X25298298Y-32137472D01*
X25288752Y-32146274D01*
X25255770Y-32156173D01*
X25217494Y-32147561D01*
X25181493Y-32121474D01*
X25171543Y-32109428D01*
X25147060Y-32075837D01*
X25113132Y-32026588D01*
X25071560Y-31964518D01*
X25024148Y-31892462D01*
X24972698Y-31813254D01*
X24919012Y-31729731D01*
X24864892Y-31644728D01*
X24812141Y-31561081D01*
X24762560Y-31481624D01*
X24717953Y-31409194D01*
X24680121Y-31346625D01*
X24650867Y-31296754D01*
X24631992Y-31262415D01*
X24625300Y-31246445D01*
X24629612Y-31239247D01*
X24653326Y-31219882D01*
X24695061Y-31192359D01*
X24751763Y-31158328D01*
X24820376Y-31119437D01*
X24897846Y-31077335D01*
X24981116Y-31033670D01*
X25067132Y-30990092D01*
X25152838Y-30948249D01*
X25235179Y-30909790D01*
X25311100Y-30876363D01*
X25341909Y-30863478D01*
X25592263Y-30769700D01*
X25854798Y-30689425D01*
X26124673Y-30623569D01*
X26397048Y-30573049D01*
X26667083Y-30538779D01*
X26929939Y-30521676D01*
X27180774Y-30522655D01*
G37*
X27180774Y-30522655D02*
X27295071Y-30528683D01*
X27570445Y-30553344D01*
X27832626Y-30591489D01*
X28079991Y-30642695D01*
X28310919Y-30706536D01*
X28523788Y-30782588D01*
X28716977Y-30870428D01*
X28888863Y-30969629D01*
X28981650Y-31032665D01*
X29098448Y-31122319D01*
X29202064Y-31216730D01*
X29299276Y-31322242D01*
X29396860Y-31445200D01*
X29443534Y-31510524D01*
X29518624Y-31633387D01*
X29580422Y-31763087D01*
X29633589Y-31908750D01*
X29646911Y-31950641D01*
X29679732Y-32060557D01*
X29704615Y-32158256D01*
X29722421Y-32249982D01*
X29734008Y-32341980D01*
X29740238Y-32440493D01*
X29741968Y-32551765D01*
X29740060Y-32682041D01*
X29734019Y-32829500D01*
X29720983Y-32979812D01*
X29700519Y-33114389D01*
X29671682Y-33238055D01*
X29633524Y-33355637D01*
X29585100Y-33471960D01*
X29545005Y-33550857D01*
X29456459Y-33689404D01*
X29348926Y-33822816D01*
X29226468Y-33946744D01*
X29093148Y-34056837D01*
X28953029Y-34148746D01*
X28874119Y-34191744D01*
X28764271Y-34244880D01*
X28645586Y-34294712D01*
X28515998Y-34341840D01*
X28373444Y-34386864D01*
X28215858Y-34430383D01*
X28041176Y-34472996D01*
X27847332Y-34515303D01*
X27632262Y-34557904D01*
X27393900Y-34601397D01*
X27250105Y-34627183D01*
X27034410Y-34668043D01*
X26841560Y-34707706D01*
X26670022Y-34746672D01*
X26518257Y-34785439D01*
X26384730Y-34824508D01*
X26267907Y-34864376D01*
X26166249Y-34905544D01*
X26078223Y-34948509D01*
X26002291Y-34993773D01*
X25936918Y-35041833D01*
X25880568Y-35093188D01*
X25869256Y-35104925D01*
X25798374Y-35193995D01*
X25746491Y-35291979D01*
X25712698Y-35401706D01*
X25696084Y-35526006D01*
X25695739Y-35667707D01*
X25697306Y-35694554D01*
X25711790Y-35813397D01*
X25739487Y-35915788D01*
X25782961Y-36007411D01*
X25844778Y-36093947D01*
X25927503Y-36181078D01*
X26027427Y-36264105D01*
X26159992Y-36348826D01*
X26308622Y-36421459D01*
X26469197Y-36480281D01*
X26637597Y-36523571D01*
X26809700Y-36549607D01*
X26858504Y-36553998D01*
X26987235Y-36562667D01*
X27125085Y-36568378D01*
X27267754Y-36571199D01*
X27410940Y-36571198D01*
X27550344Y-36568442D01*
X27681664Y-36562998D01*
X27800602Y-36554934D01*
X27902856Y-36544316D01*
X27984125Y-36531213D01*
X28047151Y-36517516D01*
X28233390Y-36469858D01*
X28423964Y-36411296D01*
X28613920Y-36343789D01*
X28798304Y-36269296D01*
X28972163Y-36189773D01*
X29130542Y-36107180D01*
X29268489Y-36023474D01*
X29281606Y-36014827D01*
X29334638Y-35980916D01*
X29380129Y-35953438D01*
X29413602Y-35935022D01*
X29430576Y-35928300D01*
X29437375Y-35929857D01*
X29456002Y-35942306D01*
X29482851Y-35968412D01*
X29519167Y-36009622D01*
X29566196Y-36067382D01*
X29625181Y-36143140D01*
X29697369Y-36238341D01*
X29708702Y-36253449D01*
X29780844Y-36350836D01*
X29848377Y-36444033D01*
X29909476Y-36530393D01*
X29962317Y-36607268D01*
X30005074Y-36672010D01*
X30035924Y-36721969D01*
X30053041Y-36754499D01*
X30054173Y-36757266D01*
X30063830Y-36790804D01*
X30064712Y-36815925D01*
X30063507Y-36819202D01*
X30043832Y-36843596D01*
X30004330Y-36876726D01*
X29947767Y-36917000D01*
X29876908Y-36962829D01*
X29794519Y-37012622D01*
X29703365Y-37064791D01*
X29606212Y-37117745D01*
X29505826Y-37169894D01*
X29404972Y-37219648D01*
X29306416Y-37265417D01*
X29212923Y-37305612D01*
X29121786Y-37341579D01*
X28936272Y-37407550D01*
X28742519Y-37467870D01*
X28545543Y-37521321D01*
X28350359Y-37566688D01*
X28161980Y-37602753D01*
X27985423Y-37628300D01*
X27825700Y-37642113D01*
X27810653Y-37642860D01*
X27681322Y-37648215D01*
X27552867Y-37651442D01*
X27420050Y-37652549D01*
X27277634Y-37651540D01*
X27120380Y-37648423D01*
X26943050Y-37643205D01*
X26852104Y-37640039D01*
X26745678Y-37635593D01*
X26656389Y-37630504D01*
X26579456Y-37624186D01*
X26510098Y-37616052D01*
X26443535Y-37605515D01*
X26374985Y-37591990D01*
X26299667Y-37574889D01*
X26212800Y-37553627D01*
X26137827Y-37534322D01*
X25906865Y-37466451D01*
X25698037Y-37390995D01*
X25509441Y-37306941D01*
X25339172Y-37213275D01*
X25185329Y-37108982D01*
X25046008Y-36993050D01*
X24919307Y-36864464D01*
X24847290Y-36779286D01*
X24730799Y-36615184D01*
X24635951Y-36441740D01*
X24562172Y-36257401D01*
X24508890Y-36060616D01*
X24475533Y-35849833D01*
X24461528Y-35623500D01*
X24466505Y-35406558D01*
X24491986Y-35188243D01*
X24538079Y-34983211D01*
X24604580Y-34792036D01*
X24691287Y-34615292D01*
X24797998Y-34453555D01*
X24924511Y-34307399D01*
X24953049Y-34279056D01*
X25005476Y-34230806D01*
X25059124Y-34187549D01*
X25118428Y-34146303D01*
X25187819Y-34104089D01*
X25271732Y-34057926D01*
X25374599Y-34004835D01*
X25382413Y-34000890D01*
X25468606Y-33958188D01*
X25550059Y-33919750D01*
X25629247Y-33884835D01*
X25708649Y-33852703D01*
X25790739Y-33822616D01*
X25877995Y-33793833D01*
X25972893Y-33765615D01*
X26077910Y-33737222D01*
X26195522Y-33707914D01*
X26328205Y-33676952D01*
X26478437Y-33643597D01*
X26648693Y-33607108D01*
X26841450Y-33566746D01*
X26995086Y-33534788D01*
X27127317Y-33507156D01*
X27239518Y-33483528D01*
X27334124Y-33463360D01*
X27413570Y-33446110D01*
X27480290Y-33431234D01*
X27536722Y-33418190D01*
X27585299Y-33406434D01*
X27628456Y-33395424D01*
X27668631Y-33384616D01*
X27708256Y-33373468D01*
X27722651Y-33369306D01*
X27901722Y-33309799D01*
X28056865Y-33242720D01*
X28188450Y-33167830D01*
X28296847Y-33084888D01*
X28382424Y-32993655D01*
X28445551Y-32893889D01*
X28454122Y-32876243D01*
X28478910Y-32815890D01*
X28495879Y-32754116D01*
X28505993Y-32685003D01*
X28510216Y-32602635D01*
X28509509Y-32501096D01*
X28505145Y-32327850D01*
X28449503Y-32214025D01*
X28439819Y-32194554D01*
X28410143Y-32140703D01*
X28378213Y-32094158D01*
X28338233Y-32047117D01*
X28284406Y-31991775D01*
X28284112Y-31991484D01*
X28196554Y-31912434D01*
X28105090Y-31846233D01*
X28005445Y-31790817D01*
X27893348Y-31744127D01*
X27764524Y-31704100D01*
X27614700Y-31668674D01*
X27602105Y-31666056D01*
X27436713Y-31634981D01*
X27283692Y-31613420D01*
X27137942Y-31601451D01*
X26994365Y-31599152D01*
X26847861Y-31606601D01*
X26693332Y-31623877D01*
X26525678Y-31651058D01*
X26339800Y-31688222D01*
X26333878Y-31689496D01*
X26239605Y-31711081D01*
X26153457Y-31733886D01*
X26070363Y-31759736D01*
X25985252Y-31790453D01*
X25893053Y-31827860D01*
X25788696Y-31873779D01*
X25667108Y-31930034D01*
X25621717Y-31951844D01*
X25548684Y-31988641D01*
X25477748Y-32026219D01*
X25413077Y-32062233D01*
X25358834Y-32094343D01*
X25319186Y-32120203D01*
X25298298Y-32137472D01*
X25288752Y-32146274D01*
X25255770Y-32156173D01*
X25217494Y-32147561D01*
X25181493Y-32121474D01*
X25171543Y-32109428D01*
X25147060Y-32075837D01*
X25113132Y-32026588D01*
X25071560Y-31964518D01*
X25024148Y-31892462D01*
X24972698Y-31813254D01*
X24919012Y-31729731D01*
X24864892Y-31644728D01*
X24812141Y-31561081D01*
X24762560Y-31481624D01*
X24717953Y-31409194D01*
X24680121Y-31346625D01*
X24650867Y-31296754D01*
X24631992Y-31262415D01*
X24625300Y-31246445D01*
X24629612Y-31239247D01*
X24653326Y-31219882D01*
X24695061Y-31192359D01*
X24751763Y-31158328D01*
X24820376Y-31119437D01*
X24897846Y-31077335D01*
X24981116Y-31033670D01*
X25067132Y-30990092D01*
X25152838Y-30948249D01*
X25235179Y-30909790D01*
X25311100Y-30876363D01*
X25341909Y-30863478D01*
X25592263Y-30769700D01*
X25854798Y-30689425D01*
X26124673Y-30623569D01*
X26397048Y-30573049D01*
X26667083Y-30538779D01*
X26929939Y-30521676D01*
X27180774Y-30522655D01*
G36*
X45808900Y-37642800D02*
G01*
X44894500Y-37642800D01*
X44894500Y-35204400D01*
X45808900Y-35204400D01*
X45808900Y-37642800D01*
G37*
X45808900Y-37642800D02*
X44894500Y-37642800D01*
X44894500Y-35204400D01*
X45808900Y-35204400D01*
X45808900Y-37642800D01*
G36*
X40464959Y-30534596D02*
G01*
X40763034Y-30563477D01*
X41058239Y-30616345D01*
X41349050Y-30693145D01*
X41633943Y-30793820D01*
X41911394Y-30918315D01*
X42105864Y-31022025D01*
X42310082Y-31148193D01*
X42502791Y-31287556D01*
X42689370Y-31444042D01*
X42875200Y-31621577D01*
X42927471Y-31675201D01*
X43029882Y-31786257D01*
X43121735Y-31895816D01*
X43209808Y-32012193D01*
X43300880Y-32143700D01*
X43365623Y-32244109D01*
X43503946Y-32488525D01*
X43620636Y-32742160D01*
X43716471Y-33007056D01*
X43792232Y-33285255D01*
X43848697Y-33578800D01*
X43853172Y-33612159D01*
X43860515Y-33692459D01*
X43866174Y-33789635D01*
X43870111Y-33898411D01*
X43872287Y-34013514D01*
X43872664Y-34129669D01*
X43871204Y-34241601D01*
X43867867Y-34344035D01*
X43862616Y-34431696D01*
X43855412Y-34499310D01*
X43828733Y-34661139D01*
X43767689Y-34938440D01*
X43688746Y-35200790D01*
X43590614Y-35451318D01*
X43472000Y-35693152D01*
X43331611Y-35929420D01*
X43168156Y-36163250D01*
X43121250Y-36223548D01*
X43022282Y-36340821D01*
X42911562Y-36461637D01*
X42795242Y-36579635D01*
X42679471Y-36688450D01*
X42570400Y-36781718D01*
X42455996Y-36869918D01*
X42211136Y-37035916D01*
X41952740Y-37182506D01*
X41683836Y-37308201D01*
X41407454Y-37411513D01*
X41126626Y-37490952D01*
X41098408Y-37497404D01*
X41013284Y-37514859D01*
X40915829Y-37532645D01*
X40813463Y-37549572D01*
X40713606Y-37564448D01*
X40623678Y-37576084D01*
X40551100Y-37583289D01*
X40531560Y-37584353D01*
X40485486Y-37585944D01*
X40423528Y-37587467D01*
X40351325Y-37588790D01*
X40274514Y-37589781D01*
X40064775Y-37586040D01*
X39762579Y-37559727D01*
X39466069Y-37509082D01*
X39176385Y-37434572D01*
X38894667Y-37336664D01*
X38622055Y-37215824D01*
X38359690Y-37072521D01*
X38108711Y-36907221D01*
X37870257Y-36720392D01*
X37645469Y-36512500D01*
X37634336Y-36501260D01*
X37578530Y-36443029D01*
X37522127Y-36381425D01*
X37467712Y-36319563D01*
X37417868Y-36260556D01*
X37375179Y-36207516D01*
X37342227Y-36163557D01*
X37321597Y-36131792D01*
X37315872Y-36115334D01*
X37320261Y-36110141D01*
X37342319Y-36091516D01*
X37379553Y-36063028D01*
X37428275Y-36027466D01*
X37484796Y-35987620D01*
X37606653Y-35903152D01*
X37756341Y-35799598D01*
X37886981Y-35709481D01*
X37998327Y-35632971D01*
X38090133Y-35570235D01*
X38162152Y-35521442D01*
X38214138Y-35486760D01*
X38245843Y-35466357D01*
X38257021Y-35460402D01*
X38257595Y-35461161D01*
X38269481Y-35475381D01*
X38294149Y-35504355D01*
X38328434Y-35544379D01*
X38369175Y-35591750D01*
X38497964Y-35729348D01*
X38678824Y-35889778D01*
X38876803Y-36032045D01*
X39090600Y-36155134D01*
X39191268Y-36204665D01*
X39336555Y-36267913D01*
X39480916Y-36319644D01*
X39633086Y-36362874D01*
X39801800Y-36400617D01*
X39807110Y-36401675D01*
X39857164Y-36411020D01*
X39903724Y-36418064D01*
X39951606Y-36423119D01*
X40005625Y-36426493D01*
X40070596Y-36428497D01*
X40151332Y-36429441D01*
X40252650Y-36429634D01*
X40320259Y-36429384D01*
X40433270Y-36427508D01*
X40529664Y-36423181D01*
X40615186Y-36415673D01*
X40695582Y-36404253D01*
X40776597Y-36388189D01*
X40863975Y-36366750D01*
X40963461Y-36339207D01*
X41110933Y-36291494D01*
X41328020Y-36201261D01*
X41536722Y-36090656D01*
X41734474Y-35961586D01*
X41918712Y-35815953D01*
X42086871Y-35655662D01*
X42236386Y-35482619D01*
X42364693Y-35298726D01*
X42438615Y-35172288D01*
X42542795Y-34959912D01*
X42622677Y-34745255D01*
X42678930Y-34526020D01*
X42712221Y-34299909D01*
X42723217Y-34064626D01*
X42716644Y-33873919D01*
X42690447Y-33655406D01*
X42643269Y-33445387D01*
X42574045Y-33239309D01*
X42481710Y-33032618D01*
X42468560Y-33006710D01*
X42345807Y-32795648D01*
X42203335Y-32599800D01*
X42042338Y-32420066D01*
X41864014Y-32257349D01*
X41669556Y-32112548D01*
X41460160Y-31986565D01*
X41237022Y-31880300D01*
X41001337Y-31794656D01*
X40754300Y-31730533D01*
X40686650Y-31718277D01*
X40565715Y-31703113D01*
X40431750Y-31692825D01*
X40292030Y-31687634D01*
X40153831Y-31687762D01*
X40024428Y-31693431D01*
X39911098Y-31704861D01*
X39830158Y-31717439D01*
X39589268Y-31770403D01*
X39359316Y-31844784D01*
X39142690Y-31939851D01*
X39128712Y-31946837D01*
X39081515Y-31969205D01*
X39050800Y-31980687D01*
X39032035Y-31982643D01*
X39020691Y-31976429D01*
X39009869Y-31964333D01*
X38984905Y-31935880D01*
X38950822Y-31896740D01*
X38911713Y-31851600D01*
X38878552Y-31813368D01*
X38845591Y-31775686D01*
X38821879Y-31748944D01*
X38811073Y-31737300D01*
X38807987Y-31734057D01*
X38790528Y-31714571D01*
X38760108Y-31680116D01*
X38719197Y-31633502D01*
X38670266Y-31577543D01*
X38615786Y-31515050D01*
X38601022Y-31498096D01*
X38540283Y-31428483D01*
X38480545Y-31360202D01*
X38425722Y-31297716D01*
X38379725Y-31245487D01*
X38346468Y-31207975D01*
X38325257Y-31183973D01*
X38294303Y-31147941D01*
X38273018Y-31121813D01*
X38265100Y-31110041D01*
X38272239Y-31100891D01*
X38299286Y-31081310D01*
X38343313Y-31054313D01*
X38400939Y-31021673D01*
X38468785Y-30985165D01*
X38543467Y-30946565D01*
X38621606Y-30907647D01*
X38699821Y-30870186D01*
X38774729Y-30835956D01*
X38842950Y-30806732D01*
X38984854Y-30751930D01*
X39274426Y-30660047D01*
X39568746Y-30592427D01*
X39866291Y-30549016D01*
X40165536Y-30529757D01*
X40464959Y-30534596D01*
G37*
X40464959Y-30534596D02*
X40763034Y-30563477D01*
X41058239Y-30616345D01*
X41349050Y-30693145D01*
X41633943Y-30793820D01*
X41911394Y-30918315D01*
X42105864Y-31022025D01*
X42310082Y-31148193D01*
X42502791Y-31287556D01*
X42689370Y-31444042D01*
X42875200Y-31621577D01*
X42927471Y-31675201D01*
X43029882Y-31786257D01*
X43121735Y-31895816D01*
X43209808Y-32012193D01*
X43300880Y-32143700D01*
X43365623Y-32244109D01*
X43503946Y-32488525D01*
X43620636Y-32742160D01*
X43716471Y-33007056D01*
X43792232Y-33285255D01*
X43848697Y-33578800D01*
X43853172Y-33612159D01*
X43860515Y-33692459D01*
X43866174Y-33789635D01*
X43870111Y-33898411D01*
X43872287Y-34013514D01*
X43872664Y-34129669D01*
X43871204Y-34241601D01*
X43867867Y-34344035D01*
X43862616Y-34431696D01*
X43855412Y-34499310D01*
X43828733Y-34661139D01*
X43767689Y-34938440D01*
X43688746Y-35200790D01*
X43590614Y-35451318D01*
X43472000Y-35693152D01*
X43331611Y-35929420D01*
X43168156Y-36163250D01*
X43121250Y-36223548D01*
X43022282Y-36340821D01*
X42911562Y-36461637D01*
X42795242Y-36579635D01*
X42679471Y-36688450D01*
X42570400Y-36781718D01*
X42455996Y-36869918D01*
X42211136Y-37035916D01*
X41952740Y-37182506D01*
X41683836Y-37308201D01*
X41407454Y-37411513D01*
X41126626Y-37490952D01*
X41098408Y-37497404D01*
X41013284Y-37514859D01*
X40915829Y-37532645D01*
X40813463Y-37549572D01*
X40713606Y-37564448D01*
X40623678Y-37576084D01*
X40551100Y-37583289D01*
X40531560Y-37584353D01*
X40485486Y-37585944D01*
X40423528Y-37587467D01*
X40351325Y-37588790D01*
X40274514Y-37589781D01*
X40064775Y-37586040D01*
X39762579Y-37559727D01*
X39466069Y-37509082D01*
X39176385Y-37434572D01*
X38894667Y-37336664D01*
X38622055Y-37215824D01*
X38359690Y-37072521D01*
X38108711Y-36907221D01*
X37870257Y-36720392D01*
X37645469Y-36512500D01*
X37634336Y-36501260D01*
X37578530Y-36443029D01*
X37522127Y-36381425D01*
X37467712Y-36319563D01*
X37417868Y-36260556D01*
X37375179Y-36207516D01*
X37342227Y-36163557D01*
X37321597Y-36131792D01*
X37315872Y-36115334D01*
X37320261Y-36110141D01*
X37342319Y-36091516D01*
X37379553Y-36063028D01*
X37428275Y-36027466D01*
X37484796Y-35987620D01*
X37606653Y-35903152D01*
X37756341Y-35799598D01*
X37886981Y-35709481D01*
X37998327Y-35632971D01*
X38090133Y-35570235D01*
X38162152Y-35521442D01*
X38214138Y-35486760D01*
X38245843Y-35466357D01*
X38257021Y-35460402D01*
X38257595Y-35461161D01*
X38269481Y-35475381D01*
X38294149Y-35504355D01*
X38328434Y-35544379D01*
X38369175Y-35591750D01*
X38497964Y-35729348D01*
X38678824Y-35889778D01*
X38876803Y-36032045D01*
X39090600Y-36155134D01*
X39191268Y-36204665D01*
X39336555Y-36267913D01*
X39480916Y-36319644D01*
X39633086Y-36362874D01*
X39801800Y-36400617D01*
X39807110Y-36401675D01*
X39857164Y-36411020D01*
X39903724Y-36418064D01*
X39951606Y-36423119D01*
X40005625Y-36426493D01*
X40070596Y-36428497D01*
X40151332Y-36429441D01*
X40252650Y-36429634D01*
X40320259Y-36429384D01*
X40433270Y-36427508D01*
X40529664Y-36423181D01*
X40615186Y-36415673D01*
X40695582Y-36404253D01*
X40776597Y-36388189D01*
X40863975Y-36366750D01*
X40963461Y-36339207D01*
X41110933Y-36291494D01*
X41328020Y-36201261D01*
X41536722Y-36090656D01*
X41734474Y-35961586D01*
X41918712Y-35815953D01*
X42086871Y-35655662D01*
X42236386Y-35482619D01*
X42364693Y-35298726D01*
X42438615Y-35172288D01*
X42542795Y-34959912D01*
X42622677Y-34745255D01*
X42678930Y-34526020D01*
X42712221Y-34299909D01*
X42723217Y-34064626D01*
X42716644Y-33873919D01*
X42690447Y-33655406D01*
X42643269Y-33445387D01*
X42574045Y-33239309D01*
X42481710Y-33032618D01*
X42468560Y-33006710D01*
X42345807Y-32795648D01*
X42203335Y-32599800D01*
X42042338Y-32420066D01*
X41864014Y-32257349D01*
X41669556Y-32112548D01*
X41460160Y-31986565D01*
X41237022Y-31880300D01*
X41001337Y-31794656D01*
X40754300Y-31730533D01*
X40686650Y-31718277D01*
X40565715Y-31703113D01*
X40431750Y-31692825D01*
X40292030Y-31687634D01*
X40153831Y-31687762D01*
X40024428Y-31693431D01*
X39911098Y-31704861D01*
X39830158Y-31717439D01*
X39589268Y-31770403D01*
X39359316Y-31844784D01*
X39142690Y-31939851D01*
X39128712Y-31946837D01*
X39081515Y-31969205D01*
X39050800Y-31980687D01*
X39032035Y-31982643D01*
X39020691Y-31976429D01*
X39009869Y-31964333D01*
X38984905Y-31935880D01*
X38950822Y-31896740D01*
X38911713Y-31851600D01*
X38878552Y-31813368D01*
X38845591Y-31775686D01*
X38821879Y-31748944D01*
X38811073Y-31737300D01*
X38807987Y-31734057D01*
X38790528Y-31714571D01*
X38760108Y-31680116D01*
X38719197Y-31633502D01*
X38670266Y-31577543D01*
X38615786Y-31515050D01*
X38601022Y-31498096D01*
X38540283Y-31428483D01*
X38480545Y-31360202D01*
X38425722Y-31297716D01*
X38379725Y-31245487D01*
X38346468Y-31207975D01*
X38325257Y-31183973D01*
X38294303Y-31147941D01*
X38273018Y-31121813D01*
X38265100Y-31110041D01*
X38272239Y-31100891D01*
X38299286Y-31081310D01*
X38343313Y-31054313D01*
X38400939Y-31021673D01*
X38468785Y-30985165D01*
X38543467Y-30946565D01*
X38621606Y-30907647D01*
X38699821Y-30870186D01*
X38774729Y-30835956D01*
X38842950Y-30806732D01*
X38984854Y-30751930D01*
X39274426Y-30660047D01*
X39568746Y-30592427D01*
X39866291Y-30549016D01*
X40165536Y-30529757D01*
X40464959Y-30534596D01*
G36*
X45397921Y-30532130D02*
G01*
X45410652Y-30551659D01*
X45425547Y-30585419D01*
X45443832Y-30635951D01*
X45466733Y-30705798D01*
X45495474Y-30797500D01*
X45522520Y-30888167D01*
X45564354Y-31040229D01*
X45606327Y-31205708D01*
X45646730Y-31377530D01*
X45683859Y-31548619D01*
X45716005Y-31711900D01*
X45717831Y-31722296D01*
X45722222Y-31753018D01*
X45726060Y-31789945D01*
X45729365Y-31834556D01*
X45732156Y-31888326D01*
X45734452Y-31952731D01*
X45736272Y-32029248D01*
X45737636Y-32119353D01*
X45738562Y-32224522D01*
X45739069Y-32346232D01*
X45739177Y-32485959D01*
X45738905Y-32645178D01*
X45738272Y-32825367D01*
X45737297Y-33028002D01*
X45735999Y-33254559D01*
X45735847Y-33281013D01*
X45735434Y-33403341D01*
X45735690Y-33502582D01*
X45736669Y-33580672D01*
X45738423Y-33639543D01*
X45741006Y-33681128D01*
X45744473Y-33707362D01*
X45748875Y-33720177D01*
X45749019Y-33720375D01*
X45762098Y-33737168D01*
X45788378Y-33770053D01*
X45825058Y-33815553D01*
X45869333Y-33870192D01*
X45918403Y-33930492D01*
X46072355Y-34119298D01*
X46099398Y-34487224D01*
X46100550Y-34502858D01*
X46107767Y-34599143D01*
X46114706Y-34689055D01*
X46121061Y-34768801D01*
X46126524Y-34834590D01*
X46130789Y-34882629D01*
X46133549Y-34909125D01*
X46140656Y-34963100D01*
X45884627Y-34963100D01*
X45811839Y-34905957D01*
X45789923Y-34889797D01*
X45744584Y-34863060D01*
X45706278Y-34849175D01*
X45679129Y-34849321D01*
X45667263Y-34864675D01*
X45665532Y-34881330D01*
X45662850Y-34912300D01*
X45660903Y-34935350D01*
X45658438Y-34959925D01*
X45657538Y-34964678D01*
X45648211Y-34974400D01*
X45626286Y-34970826D01*
X45587485Y-34953575D01*
X45580694Y-34949958D01*
X45553461Y-34929157D01*
X45542513Y-34909125D01*
X45541751Y-34903380D01*
X45535687Y-34896018D01*
X45520177Y-34891225D01*
X45491235Y-34888465D01*
X45444872Y-34887202D01*
X45377100Y-34886900D01*
X45334443Y-34886991D01*
X45279738Y-34887793D01*
X45244096Y-34889872D01*
X45223530Y-34893763D01*
X45214052Y-34900002D01*
X45211673Y-34909125D01*
X45210127Y-34914719D01*
X45192735Y-34933757D01*
X45162838Y-34953698D01*
X45129026Y-34969420D01*
X45099890Y-34975800D01*
X45095799Y-34974131D01*
X45087819Y-34953662D01*
X45085000Y-34912300D01*
X45084520Y-34878510D01*
X45080254Y-34857632D01*
X45067869Y-34849915D01*
X45043031Y-34848800D01*
X45020021Y-34851967D01*
X44976401Y-34870148D01*
X44919900Y-34905950D01*
X44838740Y-34963100D01*
X44707870Y-34963100D01*
X44681287Y-34963075D01*
X44631579Y-34962480D01*
X44600864Y-34960323D01*
X44584581Y-34955609D01*
X44578170Y-34947342D01*
X44577073Y-34934525D01*
X44577188Y-34930831D01*
X44578864Y-34903862D01*
X44582328Y-34856083D01*
X44587319Y-34790898D01*
X44593570Y-34711711D01*
X44600820Y-34621927D01*
X44608803Y-34524950D01*
X44611653Y-34490605D01*
X44619375Y-34396966D01*
X44626276Y-34312466D01*
X44632097Y-34240339D01*
X44636578Y-34183820D01*
X44639460Y-34146143D01*
X44640481Y-34130543D01*
X44641951Y-34127192D01*
X44656424Y-34107062D01*
X44684392Y-34072176D01*
X44723421Y-34025466D01*
X44771079Y-33969861D01*
X44824934Y-33908293D01*
X45009367Y-33699450D01*
X45003125Y-33254950D01*
X45002749Y-33228439D01*
X45000811Y-33099429D01*
X44998580Y-32960649D01*
X44996178Y-32819132D01*
X44993726Y-32681913D01*
X44991345Y-32556024D01*
X44989159Y-32448500D01*
X44988222Y-32401233D01*
X44986602Y-32255295D01*
X44987765Y-32127779D01*
X44992196Y-32013362D01*
X45000384Y-31906725D01*
X45012816Y-31802546D01*
X45029979Y-31695504D01*
X45052360Y-31580279D01*
X45080447Y-31451550D01*
X45088926Y-31414857D01*
X45112989Y-31316629D01*
X45140080Y-31212928D01*
X45169266Y-31106761D01*
X45199616Y-31001137D01*
X45230196Y-30899063D01*
X45260074Y-30803548D01*
X45288318Y-30717599D01*
X45313994Y-30644225D01*
X45336169Y-30586434D01*
X45353912Y-30547233D01*
X45366290Y-30529632D01*
X45374050Y-30525597D01*
X45386129Y-30524290D01*
X45397921Y-30532130D01*
G37*
X45397921Y-30532130D02*
X45410652Y-30551659D01*
X45425547Y-30585419D01*
X45443832Y-30635951D01*
X45466733Y-30705798D01*
X45495474Y-30797500D01*
X45522520Y-30888167D01*
X45564354Y-31040229D01*
X45606327Y-31205708D01*
X45646730Y-31377530D01*
X45683859Y-31548619D01*
X45716005Y-31711900D01*
X45717831Y-31722296D01*
X45722222Y-31753018D01*
X45726060Y-31789945D01*
X45729365Y-31834556D01*
X45732156Y-31888326D01*
X45734452Y-31952731D01*
X45736272Y-32029248D01*
X45737636Y-32119353D01*
X45738562Y-32224522D01*
X45739069Y-32346232D01*
X45739177Y-32485959D01*
X45738905Y-32645178D01*
X45738272Y-32825367D01*
X45737297Y-33028002D01*
X45735999Y-33254559D01*
X45735847Y-33281013D01*
X45735434Y-33403341D01*
X45735690Y-33502582D01*
X45736669Y-33580672D01*
X45738423Y-33639543D01*
X45741006Y-33681128D01*
X45744473Y-33707362D01*
X45748875Y-33720177D01*
X45749019Y-33720375D01*
X45762098Y-33737168D01*
X45788378Y-33770053D01*
X45825058Y-33815553D01*
X45869333Y-33870192D01*
X45918403Y-33930492D01*
X46072355Y-34119298D01*
X46099398Y-34487224D01*
X46100550Y-34502858D01*
X46107767Y-34599143D01*
X46114706Y-34689055D01*
X46121061Y-34768801D01*
X46126524Y-34834590D01*
X46130789Y-34882629D01*
X46133549Y-34909125D01*
X46140656Y-34963100D01*
X45884627Y-34963100D01*
X45811839Y-34905957D01*
X45789923Y-34889797D01*
X45744584Y-34863060D01*
X45706278Y-34849175D01*
X45679129Y-34849321D01*
X45667263Y-34864675D01*
X45665532Y-34881330D01*
X45662850Y-34912300D01*
X45660903Y-34935350D01*
X45658438Y-34959925D01*
X45657538Y-34964678D01*
X45648211Y-34974400D01*
X45626286Y-34970826D01*
X45587485Y-34953575D01*
X45580694Y-34949958D01*
X45553461Y-34929157D01*
X45542513Y-34909125D01*
X45541751Y-34903380D01*
X45535687Y-34896018D01*
X45520177Y-34891225D01*
X45491235Y-34888465D01*
X45444872Y-34887202D01*
X45377100Y-34886900D01*
X45334443Y-34886991D01*
X45279738Y-34887793D01*
X45244096Y-34889872D01*
X45223530Y-34893763D01*
X45214052Y-34900002D01*
X45211673Y-34909125D01*
X45210127Y-34914719D01*
X45192735Y-34933757D01*
X45162838Y-34953698D01*
X45129026Y-34969420D01*
X45099890Y-34975800D01*
X45095799Y-34974131D01*
X45087819Y-34953662D01*
X45085000Y-34912300D01*
X45084520Y-34878510D01*
X45080254Y-34857632D01*
X45067869Y-34849915D01*
X45043031Y-34848800D01*
X45020021Y-34851967D01*
X44976401Y-34870148D01*
X44919900Y-34905950D01*
X44838740Y-34963100D01*
X44707870Y-34963100D01*
X44681287Y-34963075D01*
X44631579Y-34962480D01*
X44600864Y-34960323D01*
X44584581Y-34955609D01*
X44578170Y-34947342D01*
X44577073Y-34934525D01*
X44577188Y-34930831D01*
X44578864Y-34903862D01*
X44582328Y-34856083D01*
X44587319Y-34790898D01*
X44593570Y-34711711D01*
X44600820Y-34621927D01*
X44608803Y-34524950D01*
X44611653Y-34490605D01*
X44619375Y-34396966D01*
X44626276Y-34312466D01*
X44632097Y-34240339D01*
X44636578Y-34183820D01*
X44639460Y-34146143D01*
X44640481Y-34130543D01*
X44641951Y-34127192D01*
X44656424Y-34107062D01*
X44684392Y-34072176D01*
X44723421Y-34025466D01*
X44771079Y-33969861D01*
X44824934Y-33908293D01*
X45009367Y-33699450D01*
X45003125Y-33254950D01*
X45002749Y-33228439D01*
X45000811Y-33099429D01*
X44998580Y-32960649D01*
X44996178Y-32819132D01*
X44993726Y-32681913D01*
X44991345Y-32556024D01*
X44989159Y-32448500D01*
X44988222Y-32401233D01*
X44986602Y-32255295D01*
X44987765Y-32127779D01*
X44992196Y-32013362D01*
X45000384Y-31906725D01*
X45012816Y-31802546D01*
X45029979Y-31695504D01*
X45052360Y-31580279D01*
X45080447Y-31451550D01*
X45088926Y-31414857D01*
X45112989Y-31316629D01*
X45140080Y-31212928D01*
X45169266Y-31106761D01*
X45199616Y-31001137D01*
X45230196Y-30899063D01*
X45260074Y-30803548D01*
X45288318Y-30717599D01*
X45313994Y-30644225D01*
X45336169Y-30586434D01*
X45353912Y-30547233D01*
X45366290Y-30529632D01*
X45374050Y-30525597D01*
X45386129Y-30524290D01*
X45397921Y-30532130D01*
G36*
X36624890Y-29933902D02*
G01*
X36637753Y-29943193D01*
X36661514Y-29967004D01*
X36691104Y-30000263D01*
X36713761Y-30026865D01*
X36755756Y-30075884D01*
X36802297Y-30129945D01*
X36850371Y-30185574D01*
X36896963Y-30239298D01*
X36939060Y-30287646D01*
X36973648Y-30327144D01*
X36997713Y-30354319D01*
X37008242Y-30365700D01*
X37008550Y-30365994D01*
X37020045Y-30378807D01*
X37046023Y-30408480D01*
X37084622Y-30452865D01*
X37133975Y-30509808D01*
X37192220Y-30577161D01*
X37257492Y-30652773D01*
X37327927Y-30734493D01*
X37334260Y-30741844D01*
X37404968Y-30823738D01*
X37470912Y-30899780D01*
X37530129Y-30967731D01*
X37580657Y-31025354D01*
X37620535Y-31070411D01*
X37647801Y-31100663D01*
X37660493Y-31113873D01*
X37663136Y-31116068D01*
X37675100Y-31126998D01*
X37681215Y-31137656D01*
X37679566Y-31150446D01*
X37668235Y-31167772D01*
X37645307Y-31192038D01*
X37608864Y-31225648D01*
X37556991Y-31271005D01*
X37487770Y-31330514D01*
X37443462Y-31369157D01*
X37411277Y-31399470D01*
X37393924Y-31420056D01*
X37388761Y-31434107D01*
X37393147Y-31444814D01*
X37404090Y-31457767D01*
X37429282Y-31487095D01*
X37463645Y-31526834D01*
X37503050Y-31572200D01*
X37536288Y-31610411D01*
X37570098Y-31649344D01*
X37594820Y-31677887D01*
X37606654Y-31691658D01*
X37619041Y-31693465D01*
X37649300Y-31686042D01*
X37690622Y-31669808D01*
X37785597Y-31635712D01*
X37904152Y-31615182D01*
X38021473Y-31617218D01*
X38134879Y-31640395D01*
X38241691Y-31683290D01*
X38339225Y-31744479D01*
X38424802Y-31822538D01*
X38495740Y-31916044D01*
X38549357Y-32023572D01*
X38582974Y-32143700D01*
X38585638Y-32159985D01*
X38590726Y-32273856D01*
X38574621Y-32390466D01*
X38538840Y-32502699D01*
X38484900Y-32603442D01*
X38445972Y-32661122D01*
X38542861Y-32776125D01*
X38580377Y-32819727D01*
X38615428Y-32858622D01*
X38642104Y-32886222D01*
X38656529Y-32898363D01*
X38659515Y-32898448D01*
X38680189Y-32888085D01*
X38715419Y-32863185D01*
X38762221Y-32825967D01*
X38817609Y-32778648D01*
X38843221Y-32756359D01*
X38892246Y-32715109D01*
X38933648Y-32682120D01*
X38963689Y-32660317D01*
X38978631Y-32652626D01*
X38982477Y-32654337D01*
X39001949Y-32670793D01*
X39032942Y-32701878D01*
X39072083Y-32744120D01*
X39116000Y-32794047D01*
X39154907Y-32839334D01*
X39228259Y-32924628D01*
X39303953Y-33012548D01*
X39379290Y-33099965D01*
X39451571Y-33183753D01*
X39518097Y-33260782D01*
X39576170Y-33327927D01*
X39623090Y-33382058D01*
X39656160Y-33420050D01*
X39681172Y-33448688D01*
X39722412Y-33495954D01*
X39772603Y-33553514D01*
X39827580Y-33616588D01*
X39883176Y-33680400D01*
X40043581Y-33864550D01*
X39959160Y-33940750D01*
X39944321Y-33954025D01*
X39904529Y-33989178D01*
X39850258Y-34036770D01*
X39784557Y-34094142D01*
X39710473Y-34158634D01*
X39631053Y-34227587D01*
X39549345Y-34298341D01*
X39520207Y-34323529D01*
X39437775Y-34394571D01*
X39371832Y-34450862D01*
X39320372Y-34493913D01*
X39281389Y-34525232D01*
X39252878Y-34546329D01*
X39232834Y-34558714D01*
X39219250Y-34563896D01*
X39210121Y-34563385D01*
X39203441Y-34558691D01*
X39194610Y-34549370D01*
X39166157Y-34518103D01*
X39125130Y-34472056D01*
X39073250Y-34413225D01*
X39012238Y-34343604D01*
X38943817Y-34265190D01*
X38869709Y-34179977D01*
X38791634Y-34089962D01*
X38711316Y-33997139D01*
X38630475Y-33903504D01*
X38550834Y-33811052D01*
X38474114Y-33721779D01*
X38402037Y-33637680D01*
X38336325Y-33560750D01*
X38278700Y-33492986D01*
X38230883Y-33436381D01*
X38194596Y-33392933D01*
X38171561Y-33364636D01*
X38163500Y-33353485D01*
X38166997Y-33348156D01*
X38186404Y-33328058D01*
X38219950Y-33296492D01*
X38264360Y-33256508D01*
X38316358Y-33211156D01*
X38362532Y-33171949D01*
X38407518Y-33133558D01*
X38436315Y-33105499D01*
X38449927Y-33083456D01*
X38449354Y-33063114D01*
X38435599Y-33040157D01*
X38409663Y-33010270D01*
X38372549Y-32969138D01*
X38351888Y-32945466D01*
X38315994Y-32903737D01*
X38286790Y-32869102D01*
X38251329Y-32826278D01*
X38171839Y-32852372D01*
X38075353Y-32877047D01*
X37948555Y-32888453D01*
X37825384Y-32876019D01*
X37708249Y-32840288D01*
X37599556Y-32781804D01*
X37501712Y-32701111D01*
X37454802Y-32649093D01*
X37386100Y-32545420D01*
X37340013Y-32433108D01*
X37316931Y-32314766D01*
X37317243Y-32193000D01*
X37341338Y-32070420D01*
X37389605Y-31949633D01*
X37427457Y-31875145D01*
X37305362Y-31736288D01*
X37183266Y-31597432D01*
X37134630Y-31638791D01*
X37114453Y-31655987D01*
X37074427Y-31690190D01*
X37026232Y-31731439D01*
X36976318Y-31774217D01*
X36933032Y-31810771D01*
X36897862Y-31838342D01*
X36874661Y-31852705D01*
X36859857Y-31856013D01*
X36849880Y-31850417D01*
X36846703Y-31846919D01*
X36827824Y-31825320D01*
X36797197Y-31789758D01*
X36758284Y-31744258D01*
X36714541Y-31692850D01*
X36698446Y-31673902D01*
X36656586Y-31624778D01*
X36621138Y-31583392D01*
X36595435Y-31553629D01*
X36582809Y-31539370D01*
X36580085Y-31536433D01*
X36561975Y-31516106D01*
X36533601Y-31483711D01*
X36499800Y-31444765D01*
X36496476Y-31440920D01*
X36455109Y-31393222D01*
X36413092Y-31345002D01*
X36379037Y-31306145D01*
X36357235Y-31281394D01*
X36322312Y-31241743D01*
X36294578Y-31210250D01*
X36277768Y-31190998D01*
X36246510Y-31154954D01*
X36205104Y-31107067D01*
X36156225Y-31050444D01*
X36102548Y-30988190D01*
X36046748Y-30923414D01*
X35991499Y-30859221D01*
X35939477Y-30798719D01*
X35893356Y-30745013D01*
X35855812Y-30701212D01*
X35829518Y-30670421D01*
X35817151Y-30655747D01*
X35815167Y-30652315D01*
X35815624Y-30642790D01*
X35823996Y-30628600D01*
X35842211Y-30607806D01*
X35872201Y-30578473D01*
X35915893Y-30538663D01*
X35975216Y-30486440D01*
X36052101Y-30419865D01*
X36091285Y-30386086D01*
X36172613Y-30315946D01*
X36255151Y-30244731D01*
X36333786Y-30176855D01*
X36403403Y-30116730D01*
X36458890Y-30068771D01*
X36494610Y-30038104D01*
X36543765Y-29996706D01*
X36584138Y-29963676D01*
X36612294Y-29941809D01*
X36624793Y-29933900D01*
X36624890Y-29933902D01*
G37*
X36624890Y-29933902D02*
X36637753Y-29943193D01*
X36661514Y-29967004D01*
X36691104Y-30000263D01*
X36713761Y-30026865D01*
X36755756Y-30075884D01*
X36802297Y-30129945D01*
X36850371Y-30185574D01*
X36896963Y-30239298D01*
X36939060Y-30287646D01*
X36973648Y-30327144D01*
X36997713Y-30354319D01*
X37008242Y-30365700D01*
X37008550Y-30365994D01*
X37020045Y-30378807D01*
X37046023Y-30408480D01*
X37084622Y-30452865D01*
X37133975Y-30509808D01*
X37192220Y-30577161D01*
X37257492Y-30652773D01*
X37327927Y-30734493D01*
X37334260Y-30741844D01*
X37404968Y-30823738D01*
X37470912Y-30899780D01*
X37530129Y-30967731D01*
X37580657Y-31025354D01*
X37620535Y-31070411D01*
X37647801Y-31100663D01*
X37660493Y-31113873D01*
X37663136Y-31116068D01*
X37675100Y-31126998D01*
X37681215Y-31137656D01*
X37679566Y-31150446D01*
X37668235Y-31167772D01*
X37645307Y-31192038D01*
X37608864Y-31225648D01*
X37556991Y-31271005D01*
X37487770Y-31330514D01*
X37443462Y-31369157D01*
X37411277Y-31399470D01*
X37393924Y-31420056D01*
X37388761Y-31434107D01*
X37393147Y-31444814D01*
X37404090Y-31457767D01*
X37429282Y-31487095D01*
X37463645Y-31526834D01*
X37503050Y-31572200D01*
X37536288Y-31610411D01*
X37570098Y-31649344D01*
X37594820Y-31677887D01*
X37606654Y-31691658D01*
X37619041Y-31693465D01*
X37649300Y-31686042D01*
X37690622Y-31669808D01*
X37785597Y-31635712D01*
X37904152Y-31615182D01*
X38021473Y-31617218D01*
X38134879Y-31640395D01*
X38241691Y-31683290D01*
X38339225Y-31744479D01*
X38424802Y-31822538D01*
X38495740Y-31916044D01*
X38549357Y-32023572D01*
X38582974Y-32143700D01*
X38585638Y-32159985D01*
X38590726Y-32273856D01*
X38574621Y-32390466D01*
X38538840Y-32502699D01*
X38484900Y-32603442D01*
X38445972Y-32661122D01*
X38542861Y-32776125D01*
X38580377Y-32819727D01*
X38615428Y-32858622D01*
X38642104Y-32886222D01*
X38656529Y-32898363D01*
X38659515Y-32898448D01*
X38680189Y-32888085D01*
X38715419Y-32863185D01*
X38762221Y-32825967D01*
X38817609Y-32778648D01*
X38843221Y-32756359D01*
X38892246Y-32715109D01*
X38933648Y-32682120D01*
X38963689Y-32660317D01*
X38978631Y-32652626D01*
X38982477Y-32654337D01*
X39001949Y-32670793D01*
X39032942Y-32701878D01*
X39072083Y-32744120D01*
X39116000Y-32794047D01*
X39154907Y-32839334D01*
X39228259Y-32924628D01*
X39303953Y-33012548D01*
X39379290Y-33099965D01*
X39451571Y-33183753D01*
X39518097Y-33260782D01*
X39576170Y-33327927D01*
X39623090Y-33382058D01*
X39656160Y-33420050D01*
X39681172Y-33448688D01*
X39722412Y-33495954D01*
X39772603Y-33553514D01*
X39827580Y-33616588D01*
X39883176Y-33680400D01*
X40043581Y-33864550D01*
X39959160Y-33940750D01*
X39944321Y-33954025D01*
X39904529Y-33989178D01*
X39850258Y-34036770D01*
X39784557Y-34094142D01*
X39710473Y-34158634D01*
X39631053Y-34227587D01*
X39549345Y-34298341D01*
X39520207Y-34323529D01*
X39437775Y-34394571D01*
X39371832Y-34450862D01*
X39320372Y-34493913D01*
X39281389Y-34525232D01*
X39252878Y-34546329D01*
X39232834Y-34558714D01*
X39219250Y-34563896D01*
X39210121Y-34563385D01*
X39203441Y-34558691D01*
X39194610Y-34549370D01*
X39166157Y-34518103D01*
X39125130Y-34472056D01*
X39073250Y-34413225D01*
X39012238Y-34343604D01*
X38943817Y-34265190D01*
X38869709Y-34179977D01*
X38791634Y-34089962D01*
X38711316Y-33997139D01*
X38630475Y-33903504D01*
X38550834Y-33811052D01*
X38474114Y-33721779D01*
X38402037Y-33637680D01*
X38336325Y-33560750D01*
X38278700Y-33492986D01*
X38230883Y-33436381D01*
X38194596Y-33392933D01*
X38171561Y-33364636D01*
X38163500Y-33353485D01*
X38166997Y-33348156D01*
X38186404Y-33328058D01*
X38219950Y-33296492D01*
X38264360Y-33256508D01*
X38316358Y-33211156D01*
X38362532Y-33171949D01*
X38407518Y-33133558D01*
X38436315Y-33105499D01*
X38449927Y-33083456D01*
X38449354Y-33063114D01*
X38435599Y-33040157D01*
X38409663Y-33010270D01*
X38372549Y-32969138D01*
X38351888Y-32945466D01*
X38315994Y-32903737D01*
X38286790Y-32869102D01*
X38251329Y-32826278D01*
X38171839Y-32852372D01*
X38075353Y-32877047D01*
X37948555Y-32888453D01*
X37825384Y-32876019D01*
X37708249Y-32840288D01*
X37599556Y-32781804D01*
X37501712Y-32701111D01*
X37454802Y-32649093D01*
X37386100Y-32545420D01*
X37340013Y-32433108D01*
X37316931Y-32314766D01*
X37317243Y-32193000D01*
X37341338Y-32070420D01*
X37389605Y-31949633D01*
X37427457Y-31875145D01*
X37305362Y-31736288D01*
X37183266Y-31597432D01*
X37134630Y-31638791D01*
X37114453Y-31655987D01*
X37074427Y-31690190D01*
X37026232Y-31731439D01*
X36976318Y-31774217D01*
X36933032Y-31810771D01*
X36897862Y-31838342D01*
X36874661Y-31852705D01*
X36859857Y-31856013D01*
X36849880Y-31850417D01*
X36846703Y-31846919D01*
X36827824Y-31825320D01*
X36797197Y-31789758D01*
X36758284Y-31744258D01*
X36714541Y-31692850D01*
X36698446Y-31673902D01*
X36656586Y-31624778D01*
X36621138Y-31583392D01*
X36595435Y-31553629D01*
X36582809Y-31539370D01*
X36580085Y-31536433D01*
X36561975Y-31516106D01*
X36533601Y-31483711D01*
X36499800Y-31444765D01*
X36496476Y-31440920D01*
X36455109Y-31393222D01*
X36413092Y-31345002D01*
X36379037Y-31306145D01*
X36357235Y-31281394D01*
X36322312Y-31241743D01*
X36294578Y-31210250D01*
X36277768Y-31190998D01*
X36246510Y-31154954D01*
X36205104Y-31107067D01*
X36156225Y-31050444D01*
X36102548Y-30988190D01*
X36046748Y-30923414D01*
X35991499Y-30859221D01*
X35939477Y-30798719D01*
X35893356Y-30745013D01*
X35855812Y-30701212D01*
X35829518Y-30670421D01*
X35817151Y-30655747D01*
X35815167Y-30652315D01*
X35815624Y-30642790D01*
X35823996Y-30628600D01*
X35842211Y-30607806D01*
X35872201Y-30578473D01*
X35915893Y-30538663D01*
X35975216Y-30486440D01*
X36052101Y-30419865D01*
X36091285Y-30386086D01*
X36172613Y-30315946D01*
X36255151Y-30244731D01*
X36333786Y-30176855D01*
X36403403Y-30116730D01*
X36458890Y-30068771D01*
X36494610Y-30038104D01*
X36543765Y-29996706D01*
X36584138Y-29963676D01*
X36612294Y-29941809D01*
X36624793Y-29933900D01*
X36624890Y-29933902D01*
D13*
%TO.C,U10*%
X24953238Y-82927928D02*
X24950000Y-87516000D01*
X24950000Y-87516000D02*
X44900000Y-87516000D01*
X44900000Y-60566000D02*
X24950000Y-60566000D01*
D14*
X24950000Y-60566000D02*
X24953627Y-61737115D01*
D13*
X44900000Y-87516000D02*
X44890309Y-83010071D01*
D14*
X44900000Y-60566000D02*
X44898012Y-61768401D01*
D15*
X24702878Y-82934517D02*
G75*
G03*
X24702878Y-82934517I-100000J0D01*
G01*
D14*
%TO.C,C27*%
X20826000Y-76219267D02*
X20826000Y-75926733D01*
X21846000Y-76219267D02*
X21846000Y-75926733D01*
D11*
%TO.C,J4*%
X28037000Y-88800500D02*
X28549000Y-88800500D01*
X30637000Y-91400500D02*
X28037000Y-91400500D01*
X30637000Y-88800500D02*
X30106670Y-88800500D01*
%TD*%
M02*
