%TF.GenerationSoftware,KiCad,Pcbnew,(6.0.8)*%
%TF.CreationDate,2023-05-05T23:38:08+01:00*%
%TF.ProjectId,circuit board design v1.0,63697263-7569-4742-9062-6f6172642064,rev?*%
%TF.SameCoordinates,Original*%
%TF.FileFunction,Soldermask,Top*%
%TF.FilePolarity,Negative*%
%FSLAX46Y46*%
G04 Gerber Fmt 4.6, Leading zero omitted, Abs format (unit mm)*
G04 Created by KiCad (PCBNEW (6.0.8)) date 2023-05-05 23:38:08*
%MOMM*%
%LPD*%
G01*
G04 APERTURE LIST*
G04 Aperture macros list*
%AMRoundRect*
0 Rectangle with rounded corners*
0 $1 Rounding radius*
0 $2 $3 $4 $5 $6 $7 $8 $9 X,Y pos of 4 corners*
0 Add a 4 corners polygon primitive as box body*
4,1,4,$2,$3,$4,$5,$6,$7,$8,$9,$2,$3,0*
0 Add four circle primitives for the rounded corners*
1,1,$1+$1,$2,$3*
1,1,$1+$1,$4,$5*
1,1,$1+$1,$6,$7*
1,1,$1+$1,$8,$9*
0 Add four rect primitives between the rounded corners*
20,1,$1+$1,$2,$3,$4,$5,0*
20,1,$1+$1,$4,$5,$6,$7,0*
20,1,$1+$1,$6,$7,$8,$9,0*
20,1,$1+$1,$8,$9,$2,$3,0*%
%AMFreePoly0*
4,1,48,0.029755,1.351579,0.045398,1.349101,0.056598,1.337902,0.070711,1.330711,1.330711,0.070711,1.334374,0.063522,1.340902,0.058779,1.348138,0.036507,1.358769,0.015643,1.357507,0.007674,1.360000,0.000000,1.360000,-1.180000,1.355106,-1.195063,1.355107,-1.210902,1.345796,-1.223715,1.340902,-1.238779,1.328089,-1.248089,1.318779,-1.260902,1.303715,-1.265796,1.290902,-1.275107,
1.275063,-1.275106,1.260000,-1.280000,-1.260000,-1.280000,-1.275063,-1.275106,-1.290902,-1.275107,-1.303715,-1.265796,-1.318779,-1.260902,-1.328089,-1.248089,-1.340902,-1.238779,-1.345796,-1.223715,-1.355107,-1.210902,-1.355106,-1.195063,-1.360000,-1.180000,-1.360000,0.000000,-1.357507,0.007674,-1.358769,0.015643,-1.348138,0.036507,-1.340902,0.058779,-1.334374,0.063522,-1.330711,0.070711,
-0.070711,1.330711,-0.056598,1.337902,-0.045398,1.349101,-0.029755,1.351579,-0.015643,1.358769,0.000000,1.356292,0.015643,1.358769,0.029755,1.351579,0.029755,1.351579,$1*%
G04 Aperture macros list end*
%ADD10C,0.010000*%
%ADD11R,1.700000X1.700000*%
%ADD12O,1.700000X1.700000*%
%ADD13R,0.400000X1.350000*%
%ADD14C,1.450000*%
%ADD15R,1.500000X1.900000*%
%ADD16R,1.800000X1.900000*%
%ADD17O,0.800000X1.600000*%
%ADD18R,0.532600X1.512799*%
%ADD19C,3.600000*%
%ADD20C,5.700000*%
%ADD21R,1.500000X2.400000*%
%ADD22R,1.500000X1.050000*%
%ADD23RoundRect,0.225000X0.225000X0.250000X-0.225000X0.250000X-0.225000X-0.250000X0.225000X-0.250000X0*%
%ADD24RoundRect,0.225000X-0.250000X0.225000X-0.250000X-0.225000X0.250000X-0.225000X0.250000X0.225000X0*%
%ADD25RoundRect,0.200000X0.275000X-0.200000X0.275000X0.200000X-0.275000X0.200000X-0.275000X-0.200000X0*%
%ADD26RoundRect,0.250000X0.625000X-0.350000X0.625000X0.350000X-0.625000X0.350000X-0.625000X-0.350000X0*%
%ADD27O,1.750000X1.200000*%
%ADD28RoundRect,0.250000X-0.450000X0.262500X-0.450000X-0.262500X0.450000X-0.262500X0.450000X0.262500X0*%
%ADD29R,2.500000X1.000000*%
%ADD30RoundRect,0.225000X0.250000X-0.225000X0.250000X0.225000X-0.250000X0.225000X-0.250000X-0.225000X0*%
%ADD31RoundRect,0.225000X-0.225000X-0.250000X0.225000X-0.250000X0.225000X0.250000X-0.225000X0.250000X0*%
%ADD32R,0.250000X1.100000*%
%ADD33R,1.100000X0.250000*%
%ADD34R,0.568000X1.309599*%
%ADD35RoundRect,0.041300X0.618700X0.253700X-0.618700X0.253700X-0.618700X-0.253700X0.618700X-0.253700X0*%
%ADD36R,1.300000X1.100000*%
%ADD37FreePoly0,315.000000*%
%ADD38FreePoly0,45.000000*%
%ADD39FreePoly0,135.000000*%
%ADD40FreePoly0,225.000000*%
%ADD41R,0.950000X0.600000*%
%ADD42R,0.350000X0.700000*%
%ADD43RoundRect,0.250000X-0.325000X-0.650000X0.325000X-0.650000X0.325000X0.650000X-0.325000X0.650000X0*%
%ADD44RoundRect,0.200000X-0.275000X0.200000X-0.275000X-0.200000X0.275000X-0.200000X0.275000X0.200000X0*%
%ADD45RoundRect,0.150000X0.512500X0.150000X-0.512500X0.150000X-0.512500X-0.150000X0.512500X-0.150000X0*%
%ADD46RoundRect,0.237500X0.300000X0.237500X-0.300000X0.237500X-0.300000X-0.237500X0.300000X-0.237500X0*%
%ADD47RoundRect,0.075000X-0.700000X-0.075000X0.700000X-0.075000X0.700000X0.075000X-0.700000X0.075000X0*%
%ADD48RoundRect,0.075000X-0.075000X-0.700000X0.075000X-0.700000X0.075000X0.700000X-0.075000X0.700000X0*%
G04 APERTURE END LIST*
%TO.C,U9*%
G36*
X45270000Y-59673000D02*
G01*
X44820000Y-59673000D01*
X44820000Y-59198000D01*
X45270000Y-59198000D01*
X45270000Y-59673000D01*
G37*
D10*
X45270000Y-59673000D02*
X44820000Y-59673000D01*
X44820000Y-59198000D01*
X45270000Y-59198000D01*
X45270000Y-59673000D01*
G36*
X45795000Y-59673000D02*
G01*
X45320000Y-59673000D01*
X45320000Y-59223000D01*
X45795000Y-59223000D01*
X45795000Y-59673000D01*
G37*
X45795000Y-59673000D02*
X45320000Y-59673000D01*
X45320000Y-59223000D01*
X45795000Y-59223000D01*
X45795000Y-59673000D01*
G36*
X44270000Y-60673000D02*
G01*
X43795000Y-60673000D01*
X43795000Y-60223000D01*
X44270000Y-60223000D01*
X44270000Y-60673000D01*
G37*
X44270000Y-60673000D02*
X43795000Y-60673000D01*
X43795000Y-60223000D01*
X44270000Y-60223000D01*
X44270000Y-60673000D01*
G36*
X44270000Y-60173000D02*
G01*
X43795000Y-60173000D01*
X43795000Y-59723000D01*
X44270000Y-59723000D01*
X44270000Y-60173000D01*
G37*
X44270000Y-60173000D02*
X43795000Y-60173000D01*
X43795000Y-59723000D01*
X44270000Y-59723000D01*
X44270000Y-60173000D01*
G36*
X44770000Y-61198000D02*
G01*
X44320000Y-61198000D01*
X44320000Y-60723000D01*
X44770000Y-60723000D01*
X44770000Y-61198000D01*
G37*
X44770000Y-61198000D02*
X44320000Y-61198000D01*
X44320000Y-60723000D01*
X44770000Y-60723000D01*
X44770000Y-61198000D01*
G36*
X45795000Y-61173000D02*
G01*
X45320000Y-61173000D01*
X45320000Y-60723000D01*
X45795000Y-60723000D01*
X45795000Y-61173000D01*
G37*
X45795000Y-61173000D02*
X45320000Y-61173000D01*
X45320000Y-60723000D01*
X45795000Y-60723000D01*
X45795000Y-61173000D01*
G36*
X44770000Y-59673000D02*
G01*
X44320000Y-59673000D01*
X44320000Y-59198000D01*
X44770000Y-59198000D01*
X44770000Y-59673000D01*
G37*
X44770000Y-59673000D02*
X44320000Y-59673000D01*
X44320000Y-59198000D01*
X44770000Y-59198000D01*
X44770000Y-59673000D01*
G36*
X44270000Y-61173000D02*
G01*
X43795000Y-61173000D01*
X43795000Y-60723000D01*
X44270000Y-60723000D01*
X44270000Y-61173000D01*
G37*
X44270000Y-61173000D02*
X43795000Y-61173000D01*
X43795000Y-60723000D01*
X44270000Y-60723000D01*
X44270000Y-61173000D01*
G36*
X45795000Y-60173000D02*
G01*
X45320000Y-60173000D01*
X45320000Y-59723000D01*
X45795000Y-59723000D01*
X45795000Y-60173000D01*
G37*
X45795000Y-60173000D02*
X45320000Y-60173000D01*
X45320000Y-59723000D01*
X45795000Y-59723000D01*
X45795000Y-60173000D01*
G36*
X44270000Y-59673000D02*
G01*
X43795000Y-59673000D01*
X43795000Y-59223000D01*
X44270000Y-59223000D01*
X44270000Y-59673000D01*
G37*
X44270000Y-59673000D02*
X43795000Y-59673000D01*
X43795000Y-59223000D01*
X44270000Y-59223000D01*
X44270000Y-59673000D01*
G36*
X45795000Y-60673000D02*
G01*
X45320000Y-60673000D01*
X45320000Y-60223000D01*
X45795000Y-60223000D01*
X45795000Y-60673000D01*
G37*
X45795000Y-60673000D02*
X45320000Y-60673000D01*
X45320000Y-60223000D01*
X45795000Y-60223000D01*
X45795000Y-60673000D01*
G36*
X45270000Y-61198000D02*
G01*
X44820000Y-61198000D01*
X44820000Y-60723000D01*
X45270000Y-60723000D01*
X45270000Y-61198000D01*
G37*
X45270000Y-61198000D02*
X44820000Y-61198000D01*
X44820000Y-60723000D01*
X45270000Y-60723000D01*
X45270000Y-61198000D01*
%TD*%
D11*
%TO.C,J6*%
X37460000Y-45212000D03*
D12*
X40000000Y-45212000D03*
%TD*%
D11*
%TO.C,J1*%
X35057000Y-80264000D03*
D12*
X32517000Y-80264000D03*
%TD*%
D13*
%TO.C,J3*%
X34820000Y-88403000D03*
X35470000Y-88403000D03*
X36120000Y-88403000D03*
X36770000Y-88403000D03*
X37420000Y-88403000D03*
D14*
X33620000Y-88378000D03*
X38620000Y-88378000D03*
D15*
X35120000Y-91078000D03*
X37120000Y-91078000D03*
D16*
X32920000Y-91078000D03*
X39320000Y-91078000D03*
D17*
X32620000Y-91078000D03*
X39620000Y-91078000D03*
%TD*%
D18*
%TO.C,U2*%
X47371000Y-44488100D03*
X46101000Y-44488100D03*
X44831000Y-44488100D03*
X43561000Y-44488100D03*
X43561000Y-51777900D03*
X44831000Y-51777900D03*
X46101000Y-51777900D03*
X47371000Y-51777900D03*
%TD*%
D19*
%TO.C,H4*%
X46482000Y-90500000D03*
D20*
X46482000Y-90500000D03*
%TD*%
D21*
%TO.C,D2*%
X29972000Y-71969999D03*
D22*
X29972000Y-69595000D03*
%TD*%
D23*
%TO.C,C20*%
X24016000Y-62357000D03*
X22466000Y-62357000D03*
%TD*%
D24*
%TO.C,C13*%
X48768000Y-52057000D03*
X48768000Y-53607000D03*
%TD*%
D23*
%TO.C,C17*%
X24778000Y-50292000D03*
X23228000Y-50292000D03*
%TD*%
%TO.C,C12*%
X25667000Y-56134000D03*
X24117000Y-56134000D03*
%TD*%
D25*
%TO.C,R4*%
X30734000Y-46291000D03*
X30734000Y-44641000D03*
%TD*%
D26*
%TO.C,J2*%
X38825000Y-83566000D03*
D27*
X38825000Y-81566000D03*
%TD*%
D28*
%TO.C,FB1*%
X26035000Y-60809500D03*
X26035000Y-62634500D03*
%TD*%
D29*
%TO.C,U8*%
X27302000Y-28948000D03*
X27302000Y-31488000D03*
X27302000Y-34028000D03*
X27302000Y-36568000D03*
X27302000Y-39108000D03*
X27302000Y-41648000D03*
X42802000Y-41648000D03*
X42802000Y-39108000D03*
X42802000Y-36568000D03*
X42802000Y-34028000D03*
X42802000Y-31488000D03*
X42802000Y-28948000D03*
%TD*%
D25*
%TO.C,R3*%
X32385000Y-46291000D03*
X32385000Y-44641000D03*
%TD*%
D23*
%TO.C,C6*%
X24397000Y-36449000D03*
X22847000Y-36449000D03*
%TD*%
D24*
%TO.C,C10*%
X30099000Y-61963000D03*
X30099000Y-63513000D03*
%TD*%
D30*
%TO.C,R1*%
X37719000Y-66307000D03*
X37719000Y-64757000D03*
%TD*%
D31*
%TO.C,C26*%
X45466000Y-62357000D03*
X47016000Y-62357000D03*
%TD*%
D30*
%TO.C,C14*%
X21971000Y-65672000D03*
X21971000Y-64122000D03*
%TD*%
D20*
%TO.C,H2*%
X46482000Y-23622000D03*
D19*
X46482000Y-23622000D03*
%TD*%
D30*
%TO.C,C21*%
X42558000Y-60846000D03*
X42558000Y-59296000D03*
%TD*%
D32*
%TO.C,IC1*%
X23900000Y-68198500D03*
X24400000Y-68198500D03*
X24900000Y-68198500D03*
X25400000Y-68198500D03*
X25900000Y-68198500D03*
X26400000Y-68198500D03*
X26900000Y-68198500D03*
D33*
X27515000Y-69563500D03*
D32*
X26900000Y-70928500D03*
X26400000Y-70928500D03*
X25900000Y-70928500D03*
X25400000Y-70928500D03*
X24900000Y-70928500D03*
X24400000Y-70928500D03*
X23900000Y-70928500D03*
D33*
X23285000Y-69563500D03*
%TD*%
D30*
%TO.C,C4*%
X21336000Y-76975000D03*
X21336000Y-75425000D03*
%TD*%
D31*
%TO.C,C1*%
X45707000Y-57277000D03*
X47257000Y-57277000D03*
%TD*%
D34*
%TO.C,Q1*%
X33131001Y-65265300D03*
X31130999Y-65265300D03*
X32131000Y-67652900D03*
%TD*%
D35*
%TO.C,U7*%
X25275000Y-77150000D03*
X25275000Y-76200000D03*
X25275000Y-75250000D03*
X22985000Y-75250000D03*
X22985000Y-77150000D03*
%TD*%
D24*
%TO.C,C9*%
X36195000Y-61709000D03*
X36195000Y-63259000D03*
%TD*%
D36*
%TO.C,Y1*%
X24772000Y-54113000D03*
X22472000Y-54113000D03*
X22472000Y-52313000D03*
X24772000Y-52313000D03*
%TD*%
D37*
%TO.C,U3*%
X39512000Y-70470000D03*
D38*
X33132000Y-70470000D03*
D39*
X33132000Y-76850000D03*
D40*
X39512000Y-76850000D03*
%TD*%
D23*
%TO.C,C25*%
X43968000Y-62357000D03*
X42418000Y-62357000D03*
%TD*%
D41*
%TO.C,U5*%
X33673000Y-83759000D03*
X33673000Y-84709000D03*
X33673000Y-85659000D03*
X35923000Y-85659000D03*
X35923000Y-84709000D03*
X35923000Y-83759000D03*
%TD*%
D23*
%TO.C,C3*%
X23254000Y-84582000D03*
X21704000Y-84582000D03*
%TD*%
%TO.C,C19*%
X24016000Y-60833000D03*
X22466000Y-60833000D03*
%TD*%
D21*
%TO.C,D1*%
X29972000Y-85812999D03*
D22*
X29972000Y-83438000D03*
%TD*%
D20*
%TO.C,H3*%
X23622000Y-23622000D03*
D19*
X23622000Y-23622000D03*
%TD*%
D42*
%TO.C,U4*%
X45507000Y-53739000D03*
X46157000Y-53739000D03*
X46807000Y-53739000D03*
X47457000Y-53739000D03*
X47457000Y-55989000D03*
X46807000Y-55989000D03*
X46157000Y-55989000D03*
X45507000Y-55989000D03*
%TD*%
D24*
%TO.C,C8*%
X37719000Y-61709000D03*
X37719000Y-63259000D03*
%TD*%
D43*
%TO.C,C16*%
X22274000Y-81534000D03*
X25224000Y-81534000D03*
%TD*%
D31*
%TO.C,C7*%
X40246000Y-49276000D03*
X41796000Y-49276000D03*
%TD*%
%TO.C,C15*%
X23990000Y-72517000D03*
X25540000Y-72517000D03*
%TD*%
D19*
%TO.C,H1*%
X23749000Y-90500000D03*
D20*
X23622000Y-90500000D03*
%TD*%
D44*
%TO.C,R6*%
X29464000Y-65088000D03*
X29464000Y-66738000D03*
%TD*%
D45*
%TO.C,U6*%
X27299500Y-85532000D03*
X27299500Y-84582000D03*
X27299500Y-83632000D03*
X25024500Y-83632000D03*
X25024500Y-85532000D03*
%TD*%
D46*
%TO.C,C22*%
X37819500Y-68199000D03*
X36094500Y-68199000D03*
%TD*%
D24*
%TO.C,C18*%
X22352000Y-56121000D03*
X22352000Y-57671000D03*
%TD*%
%TO.C,C2*%
X44196000Y-54089000D03*
X44196000Y-55639000D03*
%TD*%
D30*
%TO.C,R2*%
X36195000Y-66307000D03*
X36195000Y-64757000D03*
%TD*%
D47*
%TO.C,U1*%
X27726000Y-50479000D03*
X27726000Y-50979000D03*
X27726000Y-51479000D03*
X27726000Y-51979000D03*
X27726000Y-52479000D03*
X27726000Y-52979000D03*
X27726000Y-53479000D03*
X27726000Y-53979000D03*
X27726000Y-54479000D03*
X27726000Y-54979000D03*
X27726000Y-55479000D03*
X27726000Y-55979000D03*
X27726000Y-56479000D03*
X27726000Y-56979000D03*
X27726000Y-57479000D03*
X27726000Y-57979000D03*
D48*
X29651000Y-59904000D03*
X30151000Y-59904000D03*
X30651000Y-59904000D03*
X31151000Y-59904000D03*
X31651000Y-59904000D03*
X32151000Y-59904000D03*
X32651000Y-59904000D03*
X33151000Y-59904000D03*
X33651000Y-59904000D03*
X34151000Y-59904000D03*
X34651000Y-59904000D03*
X35151000Y-59904000D03*
X35651000Y-59904000D03*
X36151000Y-59904000D03*
X36651000Y-59904000D03*
X37151000Y-59904000D03*
D47*
X39076000Y-57979000D03*
X39076000Y-57479000D03*
X39076000Y-56979000D03*
X39076000Y-56479000D03*
X39076000Y-55979000D03*
X39076000Y-55479000D03*
X39076000Y-54979000D03*
X39076000Y-54479000D03*
X39076000Y-53979000D03*
X39076000Y-53479000D03*
X39076000Y-52979000D03*
X39076000Y-52479000D03*
X39076000Y-51979000D03*
X39076000Y-51479000D03*
X39076000Y-50979000D03*
X39076000Y-50479000D03*
D48*
X37151000Y-48554000D03*
X36651000Y-48554000D03*
X36151000Y-48554000D03*
X35651000Y-48554000D03*
X35151000Y-48554000D03*
X34651000Y-48554000D03*
X34151000Y-48554000D03*
X33651000Y-48554000D03*
X33151000Y-48554000D03*
X32651000Y-48554000D03*
X32151000Y-48554000D03*
X31651000Y-48554000D03*
X31151000Y-48554000D03*
X30651000Y-48554000D03*
X30151000Y-48554000D03*
X29651000Y-48554000D03*
%TD*%
D30*
%TO.C,C11*%
X28194000Y-47892000D03*
X28194000Y-46342000D03*
%TD*%
D23*
%TO.C,C5*%
X24397000Y-39116000D03*
X22847000Y-39116000D03*
%TD*%
M02*
