%TF.GenerationSoftware,KiCad,Pcbnew,(6.0.8)*%
%TF.CreationDate,2023-04-29T02:17:51+01:00*%
%TF.ProjectId,circuit board design v1.0,63697263-7569-4742-9062-6f6172642064,rev?*%
%TF.SameCoordinates,Original*%
%TF.FileFunction,Copper,L4,Bot*%
%TF.FilePolarity,Positive*%
%FSLAX46Y46*%
G04 Gerber Fmt 4.6, Leading zero omitted, Abs format (unit mm)*
G04 Created by KiCad (PCBNEW (6.0.8)) date 2023-04-29 02:17:51*
%MOMM*%
%LPD*%
G01*
G04 APERTURE LIST*
G04 Aperture macros list*
%AMRoundRect*
0 Rectangle with rounded corners*
0 $1 Rounding radius*
0 $2 $3 $4 $5 $6 $7 $8 $9 X,Y pos of 4 corners*
0 Add a 4 corners polygon primitive as box body*
4,1,4,$2,$3,$4,$5,$6,$7,$8,$9,$2,$3,0*
0 Add four circle primitives for the rounded corners*
1,1,$1+$1,$2,$3*
1,1,$1+$1,$4,$5*
1,1,$1+$1,$6,$7*
1,1,$1+$1,$8,$9*
0 Add four rect primitives between the rounded corners*
20,1,$1+$1,$2,$3,$4,$5,0*
20,1,$1+$1,$4,$5,$6,$7,0*
20,1,$1+$1,$6,$7,$8,$9,0*
20,1,$1+$1,$8,$9,$2,$3,0*%
G04 Aperture macros list end*
%TA.AperFunction,ComponentPad*%
%ADD10C,1.450000*%
%TD*%
%TA.AperFunction,ComponentPad*%
%ADD11O,0.800000X1.600000*%
%TD*%
%TA.AperFunction,SMDPad,CuDef*%
%ADD12RoundRect,0.237500X-0.237500X0.300000X-0.237500X-0.300000X0.237500X-0.300000X0.237500X0.300000X0*%
%TD*%
%TA.AperFunction,ComponentPad*%
%ADD13C,3.600000*%
%TD*%
%TA.AperFunction,ConnectorPad*%
%ADD14C,5.700000*%
%TD*%
%TA.AperFunction,ComponentPad*%
%ADD15RoundRect,0.250000X0.625000X-0.350000X0.625000X0.350000X-0.625000X0.350000X-0.625000X-0.350000X0*%
%TD*%
%TA.AperFunction,ComponentPad*%
%ADD16O,1.750000X1.200000*%
%TD*%
%TA.AperFunction,ComponentPad*%
%ADD17R,1.700000X1.700000*%
%TD*%
%TA.AperFunction,ComponentPad*%
%ADD18O,1.700000X1.700000*%
%TD*%
%TA.AperFunction,ViaPad*%
%ADD19C,0.800000*%
%TD*%
%TA.AperFunction,Conductor*%
%ADD20C,0.500000*%
%TD*%
%TA.AperFunction,Conductor*%
%ADD21C,0.250000*%
%TD*%
G04 APERTURE END LIST*
D10*
%TO.P,J3,P$1,Shield*%
%TO.N,GND*%
X33620000Y-88378000D03*
%TO.P,J3,P$2,Shield*%
X38620000Y-88378000D03*
D11*
%TO.P,J3,P$12,Shield*%
X32620000Y-91078000D03*
%TO.P,J3,P$13,Shield*%
X39620000Y-91078000D03*
%TD*%
D12*
%TO.P,C24,2*%
%TO.N,GND*%
X31242000Y-75665500D03*
%TO.P,C24,1*%
%TO.N,+3.3V*%
X31242000Y-73940500D03*
%TD*%
%TO.P,C23,1*%
%TO.N,+3.3V*%
X35814000Y-76734500D03*
%TO.P,C23,2*%
%TO.N,GND*%
X35814000Y-78459500D03*
%TD*%
%TO.P,C22,1*%
%TO.N,+3.3V*%
X33401000Y-76734500D03*
%TO.P,C22,2*%
%TO.N,GND*%
X33401000Y-78459500D03*
%TD*%
D13*
%TO.P,H4,1,1*%
%TO.N,GND*%
X46482000Y-90500000D03*
D14*
X46482000Y-90500000D03*
%TD*%
D15*
%TO.P,J2,1,Pin_1*%
%TO.N,GND*%
X38825000Y-83566000D03*
D16*
%TO.P,J2,2,Pin_2*%
%TO.N,Net-(J2-Pad2)*%
X38825000Y-81566000D03*
%TD*%
D14*
%TO.P,H2,1,1*%
%TO.N,GND*%
X46482000Y-23622000D03*
D13*
X46482000Y-23622000D03*
%TD*%
D15*
%TO.P,J4,1,Pin_1*%
%TO.N,/MCU/SPI1_SCK*%
X38825000Y-76660000D03*
D16*
%TO.P,J4,2,Pin_2*%
%TO.N,/MCU/SPI1_MISO*%
X38825000Y-74660000D03*
%TO.P,J4,3,Pin_3*%
%TO.N,/MCU/SPI1_MOSI*%
X38825000Y-72660000D03*
%TO.P,J4,4,Pin_4*%
%TO.N,/MCU/Radio_Enable*%
X38825000Y-70660000D03*
%TD*%
D17*
%TO.P,J1,1,Pin_1*%
%TO.N,+3.3V*%
X41915000Y-66406000D03*
D18*
%TO.P,J1,2,Pin_2*%
%TO.N,/MCU/SYS_JTCK_SWCLK*%
X39375000Y-66406000D03*
%TO.P,J1,3,Pin_3*%
%TO.N,GND*%
X41915000Y-63866000D03*
%TO.P,J1,4,Pin_4*%
%TO.N,/MCU/SYS_JTRST*%
X39375000Y-63866000D03*
%TO.P,J1,5,Pin_5*%
%TO.N,/MCU/SYS_JTMS_SWDIO*%
X41915000Y-61326000D03*
%TO.P,J1,6,Pin_6*%
%TO.N,/MCU/SYS_JTDO_SWO*%
X39375000Y-61326000D03*
%TD*%
D13*
%TO.P,H3,1,1*%
%TO.N,GND*%
X23622000Y-23622000D03*
D14*
X23622000Y-23622000D03*
%TD*%
D13*
%TO.P,H1,1,1*%
%TO.N,GND*%
X23749000Y-90500000D03*
D14*
X23622000Y-90500000D03*
%TD*%
D19*
%TO.N,GND*%
X34544000Y-78105000D03*
X36830000Y-78486000D03*
X31242000Y-76835000D03*
X45000000Y-87000000D03*
X42500000Y-87000000D03*
X45000000Y-84000000D03*
X42500000Y-84000000D03*
X45000000Y-81000000D03*
X42500000Y-81000000D03*
X45000000Y-78000000D03*
X42500000Y-78000000D03*
X45000000Y-75000000D03*
X42500000Y-75000000D03*
X45000000Y-72000000D03*
X42500000Y-72000000D03*
X45000000Y-69000000D03*
X42500000Y-69000000D03*
X48006000Y-41656000D03*
X48006000Y-37211000D03*
X45466000Y-37211000D03*
X48000000Y-34290000D03*
X48000000Y-32004000D03*
X45466000Y-32004000D03*
X48000000Y-28956000D03*
X24257000Y-42926000D03*
X21971000Y-42926000D03*
X21844000Y-32893000D03*
X24257000Y-30480000D03*
X21844000Y-28067000D03*
X21844000Y-30480000D03*
X24257000Y-28067000D03*
X42000000Y-25000000D03*
X38500000Y-25000000D03*
X35000000Y-25000000D03*
X31500000Y-25000000D03*
X28000000Y-25000000D03*
X42000000Y-22000000D03*
X38500000Y-22000000D03*
X35000000Y-22000000D03*
X31500000Y-22000000D03*
X28000000Y-22000000D03*
%TO.N,+3.3V*%
X22987000Y-76200000D03*
%TO.N,GND*%
X29337000Y-67437000D03*
%TO.N,+3.3V*%
X34671000Y-72517000D03*
X35814000Y-75438000D03*
%TO.N,GND*%
X26035000Y-46355000D03*
%TO.N,+3.3V*%
X21971000Y-46355000D03*
%TO.N,/MCU/QUADSPI_CLK*%
X42286003Y-58424997D03*
X33305500Y-57553317D03*
%TO.N,/MCU/SYS_JTCK_SWCLK*%
X37084000Y-57404000D03*
%TO.N,/MCU/QUADSPI_NCS*%
X33782000Y-46863000D03*
X47244000Y-46863000D03*
%TO.N,/MCU/usb_dm*%
X37707254Y-54141922D03*
X32601780Y-84708013D03*
%TO.N,/MCU/usb_dp*%
X32501461Y-85702469D03*
X37276418Y-52542131D03*
%TO.N,/MCU/SCL*%
X47117000Y-61722000D03*
X30693273Y-51476434D03*
X26670000Y-69088000D03*
%TO.N,GND*%
X21844000Y-50292000D03*
X24892000Y-34036000D03*
X36577642Y-61342642D03*
X21463000Y-72644000D03*
X28575000Y-84582000D03*
X21209000Y-60833000D03*
X40894000Y-51308000D03*
X42418000Y-45847000D03*
X26797000Y-67310000D03*
X22860000Y-35052000D03*
X21336000Y-74168000D03*
X35433000Y-65405000D03*
X21717000Y-85852000D03*
X29464000Y-63500000D03*
X34290000Y-65405000D03*
X22860000Y-40386000D03*
X37211000Y-84709000D03*
X37846000Y-86741000D03*
X30099000Y-58420000D03*
X26162000Y-54102000D03*
X29337000Y-55372000D03*
X28194000Y-45085000D03*
X21209000Y-63246000D03*
X45212000Y-41656000D03*
X29718000Y-50038000D03*
X26289000Y-65786000D03*
X45212000Y-57785000D03*
X47879000Y-64516000D03*
X24003000Y-57531000D03*
X25527000Y-72009000D03*
X25654000Y-79883000D03*
X45339000Y-28956000D03*
X41148000Y-50419000D03*
X45720000Y-56388000D03*
X26543000Y-76200000D03*
%TO.N,+3.3V*%
X47371000Y-56388000D03*
X33655000Y-44577000D03*
X31242000Y-72771000D03*
X38227000Y-48387000D03*
X24384000Y-35052000D03*
X45339000Y-34036000D03*
X29464000Y-61976000D03*
X29464000Y-44577000D03*
X24384000Y-40386000D03*
X37465000Y-61849000D03*
X25527000Y-73152000D03*
X33401000Y-75438000D03*
X27432000Y-49022000D03*
X22987000Y-78232000D03*
X21336000Y-78232000D03*
X20955000Y-81280000D03*
X46736000Y-57785000D03*
%TO.N,+3.3VA*%
X40438021Y-57774852D03*
X24003000Y-61849000D03*
X22225000Y-65786000D03*
X32893395Y-56388000D03*
%TO.N,/MCU/SYS_JTMS_SWDIO*%
X37734426Y-51262167D03*
X40513000Y-58965500D03*
%TO.N,/MCU/SDA*%
X26289000Y-70612000D03*
X31906687Y-50292000D03*
X45974000Y-61722000D03*
%TO.N,/MCU/PWR_BVOLTS*%
X33435092Y-58544382D03*
X36576000Y-65405000D03*
%TD*%
D20*
%TO.N,+3.3V*%
X35814000Y-75438000D02*
X35814000Y-76734500D01*
X33401000Y-75438000D02*
X33401000Y-76734500D01*
X31242000Y-72771000D02*
X31242000Y-73940500D01*
%TO.N,GND*%
X31242000Y-76835000D02*
X31242000Y-75665500D01*
X33755500Y-78105000D02*
X33401000Y-78459500D01*
X34544000Y-78105000D02*
X33755500Y-78105000D01*
D21*
X36803500Y-78459500D02*
X36830000Y-78486000D01*
D20*
X35814000Y-78459500D02*
X36803500Y-78459500D01*
D21*
%TO.N,/MCU/QUADSPI_CLK*%
X39713021Y-57748417D02*
X39713021Y-59190826D01*
X34274817Y-56584000D02*
X38548604Y-56584000D01*
X38548604Y-56584000D02*
X39713021Y-57748417D01*
X40212695Y-59690500D02*
X41020500Y-59690500D01*
X33305500Y-57553317D02*
X34274817Y-56584000D01*
X41020500Y-59690500D02*
X42286003Y-58424997D01*
X39713021Y-59190826D02*
X40212695Y-59690500D01*
%TO.N,/MCU/SYS_JTCK_SWCLK*%
X38200000Y-65231000D02*
X39375000Y-66406000D01*
X37084000Y-57404000D02*
X37719000Y-57404000D01*
X37719000Y-57404000D02*
X38200000Y-57885000D01*
X38200000Y-57885000D02*
X38200000Y-65231000D01*
%TO.N,/MCU/QUADSPI_NCS*%
X47244000Y-46863000D02*
X33782000Y-46863000D01*
%TO.N,/MCU/usb_dm*%
X36895176Y-54954000D02*
X33213090Y-54954000D01*
X37707254Y-54141922D02*
X36895176Y-54954000D01*
X32168895Y-55998195D02*
X32168895Y-57019316D01*
X32581000Y-84687233D02*
X32601780Y-84708013D01*
X33213090Y-54954000D02*
X32168895Y-55998195D01*
X32168895Y-57019316D02*
X32581000Y-57431421D01*
X32581000Y-57431421D02*
X32581000Y-84687233D01*
%TO.N,/MCU/usb_dp*%
X37276418Y-52542131D02*
X37116621Y-52701928D01*
X32301195Y-85434000D02*
X32301195Y-85502203D01*
X31876500Y-84408695D02*
X31876500Y-85009305D01*
X31718895Y-55657105D02*
X31718895Y-57205712D01*
X31718895Y-57205712D02*
X32131000Y-57617817D01*
X32301195Y-85502203D02*
X32501461Y-85702469D01*
X31876500Y-85009305D02*
X32301195Y-85434000D01*
X34674072Y-52701928D02*
X31718895Y-55657105D01*
X32131000Y-84154195D02*
X31876500Y-84408695D01*
X32131000Y-57617817D02*
X32131000Y-84154195D01*
X37116621Y-52701928D02*
X34674072Y-52701928D01*
%TO.N,/MCU/SCL*%
X27686000Y-65602000D02*
X27686000Y-65552000D01*
X30988000Y-50185382D02*
X30988000Y-51181707D01*
X30988000Y-51181707D02*
X30693273Y-51476434D01*
X27386000Y-66502000D02*
X27236000Y-66502000D01*
X27686000Y-68072000D02*
X27686000Y-66802000D01*
X38010000Y-49567000D02*
X31606382Y-49567000D01*
X30693273Y-51602727D02*
X30693273Y-51476434D01*
X31606382Y-49567000D02*
X30988000Y-50185382D01*
X27686000Y-65552000D02*
X27686000Y-54610000D01*
X42106000Y-53663000D02*
X38010000Y-49567000D01*
X42106000Y-56584000D02*
X42106000Y-53663000D01*
X27686000Y-54610000D02*
X30693273Y-51602727D01*
X26670000Y-69088000D02*
X27686000Y-68072000D01*
X47117000Y-61722000D02*
X47117000Y-61595000D01*
X47117000Y-61595000D02*
X42106000Y-56584000D01*
X27236000Y-65902000D02*
X27386000Y-65902000D01*
X27236000Y-65902000D02*
G75*
G03*
X26936000Y-66202000I0J-300000D01*
G01*
X27386000Y-66502000D02*
G75*
G02*
X27686000Y-66802000I0J-300000D01*
G01*
X26936000Y-66202000D02*
G75*
G03*
X27236000Y-66502000I300000J0D01*
G01*
X27686000Y-65602000D02*
G75*
G02*
X27386000Y-65902000I-300000J0D01*
G01*
%TO.N,+3.3VA*%
X24003000Y-64008000D02*
X24003000Y-61849000D01*
X38797169Y-56134000D02*
X40438021Y-57774852D01*
X22225000Y-65786000D02*
X24003000Y-64008000D01*
X33147395Y-56134000D02*
X38797169Y-56134000D01*
X32893395Y-56388000D02*
X33147395Y-56134000D01*
%TO.N,/MCU/SYS_JTMS_SWDIO*%
X41163021Y-54943115D02*
X37734426Y-51514520D01*
X41163021Y-58315479D02*
X41163021Y-54943115D01*
X37734426Y-51514520D02*
X37734426Y-51262167D01*
X40513000Y-58965500D02*
X41163021Y-58315479D01*
%TO.N,/MCU/SDA*%
X28136000Y-68766396D02*
X26290396Y-70612000D01*
X37933425Y-50252425D02*
X31946262Y-50252425D01*
X28136000Y-54796396D02*
X28136000Y-68766396D01*
X31946262Y-50252425D02*
X31906687Y-50292000D01*
X30645396Y-52287000D02*
X28136000Y-54796396D01*
X30907305Y-52287000D02*
X30645396Y-52287000D01*
X41656000Y-53975000D02*
X37933425Y-50252425D01*
X31906687Y-50292000D02*
X31906687Y-51287618D01*
X45974000Y-61088396D02*
X41656000Y-56770396D01*
X26290396Y-70612000D02*
X26289000Y-70612000D01*
X31906687Y-51287618D02*
X30907305Y-52287000D01*
X45974000Y-61722000D02*
X45974000Y-61088396D01*
X41656000Y-56770396D02*
X41656000Y-53975000D01*
%TO.N,/MCU/PWR_BVOLTS*%
X33435092Y-58544382D02*
X33401000Y-58578474D01*
X33401000Y-62230000D02*
X36576000Y-65405000D01*
X33401000Y-58578474D02*
X33401000Y-62230000D01*
%TD*%
%TA.AperFunction,Conductor*%
%TO.N,GND*%
G36*
X21680692Y-20620462D02*
G01*
X21735230Y-20675000D01*
X21755192Y-20749500D01*
X21735230Y-20824000D01*
X21696070Y-20868340D01*
X21454587Y-21050973D01*
X21448435Y-21056172D01*
X21445694Y-21058755D01*
X21437658Y-21071766D01*
X21446084Y-21086874D01*
X23608129Y-23248919D01*
X23622000Y-23256927D01*
X23635871Y-23248919D01*
X25799107Y-21085683D01*
X25806797Y-21072363D01*
X25798794Y-21058911D01*
X25798371Y-21058551D01*
X25548271Y-20868026D01*
X25501105Y-20807000D01*
X25490771Y-20730567D01*
X25520037Y-20659208D01*
X25581063Y-20612042D01*
X25638563Y-20600500D01*
X44466192Y-20600500D01*
X44540692Y-20620462D01*
X44595230Y-20675000D01*
X44615192Y-20749500D01*
X44595230Y-20824000D01*
X44556070Y-20868340D01*
X44314587Y-21050973D01*
X44308435Y-21056172D01*
X44305694Y-21058755D01*
X44297658Y-21071766D01*
X44306084Y-21086874D01*
X46468129Y-23248919D01*
X46482000Y-23256927D01*
X46495871Y-23248919D01*
X48659107Y-21085683D01*
X48666797Y-21072363D01*
X48658794Y-21058911D01*
X48658371Y-21058551D01*
X48408271Y-20868026D01*
X48361105Y-20807000D01*
X48350771Y-20730567D01*
X48380037Y-20659208D01*
X48441063Y-20612042D01*
X48498563Y-20600500D01*
X49251097Y-20600500D01*
X49325597Y-20620462D01*
X49380135Y-20675000D01*
X49400097Y-20749380D01*
X49400337Y-21050973D01*
X49400667Y-21465580D01*
X49380764Y-21540096D01*
X49326270Y-21594677D01*
X49251786Y-21614699D01*
X49177270Y-21594796D01*
X49138029Y-21562070D01*
X49042012Y-21448849D01*
X49028842Y-21439730D01*
X49018674Y-21444536D01*
X46855081Y-23608129D01*
X46847073Y-23622000D01*
X46855081Y-23635871D01*
X49015404Y-25796194D01*
X49029275Y-25804202D01*
X49039292Y-25798419D01*
X49142140Y-25678848D01*
X49205856Y-25635385D01*
X49282767Y-25629602D01*
X49352265Y-25663049D01*
X49395728Y-25726765D01*
X49404102Y-25775891D01*
X49416544Y-41390562D01*
X49437029Y-67100029D01*
X49417126Y-67174545D01*
X49362632Y-67229126D01*
X49322787Y-67245037D01*
X48586015Y-67421784D01*
X47289443Y-67732823D01*
X47273980Y-67735678D01*
X47261524Y-67737304D01*
X47244569Y-67739516D01*
X47244567Y-67739517D01*
X47234886Y-67740780D01*
X47225864Y-67744505D01*
X47225857Y-67744507D01*
X47170546Y-67767345D01*
X47167056Y-67768735D01*
X47111196Y-67790167D01*
X47111194Y-67790168D01*
X47102077Y-67793666D01*
X47095852Y-67798187D01*
X47088739Y-67801124D01*
X47050441Y-67830443D01*
X47033486Y-67843423D01*
X47030471Y-67845671D01*
X46982051Y-67880837D01*
X46982048Y-67880840D01*
X46974143Y-67886581D01*
X46969300Y-67892560D01*
X46963190Y-67897237D01*
X46920741Y-67952429D01*
X46918437Y-67955347D01*
X46874617Y-68009441D01*
X46871485Y-68016472D01*
X46866795Y-68022570D01*
X46863048Y-68031586D01*
X46863048Y-68031587D01*
X46840093Y-68086829D01*
X46838606Y-68090283D01*
X46814253Y-68144954D01*
X46814252Y-68144959D01*
X46810280Y-68153875D01*
X46809074Y-68161478D01*
X46806123Y-68168581D01*
X46804838Y-68178261D01*
X46804837Y-68178263D01*
X46796963Y-68237559D01*
X46796425Y-68241253D01*
X46785518Y-68310039D01*
X46789634Y-68349264D01*
X46790446Y-68364966D01*
X46778429Y-79052809D01*
X46770695Y-85932120D01*
X46770580Y-86034013D01*
X46768576Y-86054831D01*
X46768258Y-86060121D01*
X46766406Y-86069710D01*
X46767098Y-86079448D01*
X46767098Y-86079449D01*
X46770095Y-86121614D01*
X46770470Y-86132344D01*
X46770456Y-86144686D01*
X46772698Y-86161865D01*
X46773573Y-86170562D01*
X46777615Y-86227427D01*
X46780804Y-86236653D01*
X46782428Y-86244592D01*
X46784516Y-86252420D01*
X46785780Y-86262104D01*
X46796263Y-86287491D01*
X46807534Y-86314788D01*
X46810640Y-86322986D01*
X46829261Y-86376869D01*
X46834732Y-86384960D01*
X46838357Y-86392210D01*
X46842400Y-86399231D01*
X46846124Y-86408251D01*
X46852057Y-86416001D01*
X46852058Y-86416003D01*
X46880775Y-86453515D01*
X46885894Y-86460626D01*
X46900057Y-86481571D01*
X46917827Y-86507852D01*
X46925201Y-86514248D01*
X46930569Y-86520301D01*
X46936300Y-86526045D01*
X46942237Y-86533800D01*
X46985036Y-86566718D01*
X46987417Y-86568549D01*
X46994203Y-86574093D01*
X47037275Y-86611449D01*
X47046059Y-86615721D01*
X47052826Y-86620189D01*
X47059831Y-86624244D01*
X47067569Y-86630195D01*
X47076585Y-86633941D01*
X47076586Y-86633942D01*
X47120211Y-86652069D01*
X47128187Y-86655661D01*
X47143764Y-86663237D01*
X47155473Y-86667140D01*
X47165525Y-86670899D01*
X47204559Y-86687119D01*
X47204562Y-86687120D01*
X47213580Y-86690867D01*
X47223265Y-86692153D01*
X47228407Y-86693537D01*
X47248756Y-86698234D01*
X49335619Y-87393855D01*
X49399982Y-87436351D01*
X49434475Y-87505336D01*
X49437500Y-87535208D01*
X49437500Y-88389801D01*
X49417538Y-88464301D01*
X49363000Y-88518839D01*
X49288500Y-88538801D01*
X49214000Y-88518839D01*
X49165121Y-88473339D01*
X49162937Y-88470113D01*
X49158069Y-88463699D01*
X49042012Y-88326849D01*
X49028842Y-88317730D01*
X49018674Y-88322536D01*
X46855081Y-90486129D01*
X46847073Y-90500000D01*
X46855081Y-90513871D01*
X49015404Y-92674194D01*
X49029275Y-92682202D01*
X49039292Y-92676419D01*
X49143790Y-92554930D01*
X49148699Y-92548556D01*
X49165705Y-92523811D01*
X49224353Y-92473720D01*
X49300190Y-92459664D01*
X49372894Y-92485410D01*
X49422985Y-92544058D01*
X49437500Y-92608205D01*
X49437500Y-93230500D01*
X49417538Y-93305000D01*
X49363000Y-93359538D01*
X49288500Y-93379500D01*
X48686243Y-93379500D01*
X48611743Y-93359538D01*
X48557205Y-93305000D01*
X48537243Y-93230500D01*
X48557205Y-93156000D01*
X48596780Y-93111347D01*
X48640432Y-93078572D01*
X48646591Y-93073403D01*
X48657893Y-93062827D01*
X48665928Y-93049918D01*
X48657456Y-93034666D01*
X46495871Y-90873081D01*
X46482000Y-90865073D01*
X46468129Y-90873081D01*
X44304468Y-93036742D01*
X44296736Y-93050134D01*
X44302969Y-93060650D01*
X44370267Y-93112290D01*
X44417220Y-93173480D01*
X44427287Y-93249948D01*
X44397772Y-93321205D01*
X44336582Y-93368158D01*
X44279562Y-93379500D01*
X41268750Y-93379500D01*
X41194250Y-93359538D01*
X41149552Y-93319903D01*
X41039983Y-93173811D01*
X41038587Y-93171696D01*
X41037536Y-93169159D01*
X40991918Y-93109708D01*
X40990929Y-93108404D01*
X40972710Y-93084112D01*
X40972700Y-93084101D01*
X40969783Y-93080211D01*
X40967918Y-93078304D01*
X40966139Y-93076112D01*
X40954275Y-93060650D01*
X40941282Y-93043718D01*
X40932191Y-93036742D01*
X40920818Y-93028015D01*
X40905013Y-93014000D01*
X40893810Y-93002548D01*
X40886978Y-92995564D01*
X40872640Y-92987074D01*
X40857662Y-92978205D01*
X40842873Y-92968205D01*
X40823593Y-92953411D01*
X40823587Y-92953408D01*
X40815841Y-92947464D01*
X40806820Y-92943728D01*
X40806814Y-92943724D01*
X40792005Y-92937590D01*
X40773109Y-92928142D01*
X40759328Y-92919982D01*
X40759327Y-92919982D01*
X40750924Y-92915006D01*
X40718123Y-92905829D01*
X40701248Y-92899997D01*
X40678789Y-92890694D01*
X40678781Y-92890692D01*
X40669762Y-92886956D01*
X40660080Y-92885681D01*
X40660079Y-92885681D01*
X40653386Y-92884800D01*
X40644194Y-92883590D01*
X40623499Y-92879355D01*
X40608061Y-92875036D01*
X40608060Y-92875036D01*
X40598656Y-92872405D01*
X40557822Y-92871956D01*
X40555008Y-92871848D01*
X40552361Y-92871500D01*
X40517148Y-92871500D01*
X40515510Y-92871491D01*
X40440551Y-92870667D01*
X40437896Y-92871347D01*
X40435351Y-92871500D01*
X31827649Y-92871500D01*
X31825104Y-92871347D01*
X31822449Y-92870667D01*
X31747490Y-92871491D01*
X31745852Y-92871500D01*
X31710639Y-92871500D01*
X31707992Y-92871848D01*
X31705178Y-92871956D01*
X31664344Y-92872405D01*
X31654940Y-92875036D01*
X31654939Y-92875036D01*
X31639501Y-92879355D01*
X31618806Y-92883590D01*
X31609614Y-92884800D01*
X31602921Y-92885681D01*
X31602920Y-92885681D01*
X31593238Y-92886956D01*
X31584219Y-92890692D01*
X31584211Y-92890694D01*
X31561752Y-92899997D01*
X31544877Y-92905829D01*
X31512076Y-92915006D01*
X31503673Y-92919982D01*
X31503672Y-92919982D01*
X31489891Y-92928142D01*
X31470995Y-92937590D01*
X31456186Y-92943724D01*
X31456180Y-92943728D01*
X31447159Y-92947464D01*
X31439413Y-92953408D01*
X31439407Y-92953411D01*
X31420127Y-92968205D01*
X31405338Y-92978205D01*
X31390360Y-92987074D01*
X31376022Y-92995564D01*
X31369190Y-93002548D01*
X31357987Y-93014000D01*
X31342182Y-93028015D01*
X31330809Y-93036742D01*
X31321718Y-93043718D01*
X31308726Y-93060650D01*
X31296861Y-93076112D01*
X31295082Y-93078304D01*
X31293217Y-93080211D01*
X31290300Y-93084101D01*
X31290290Y-93084112D01*
X31272071Y-93108404D01*
X31271082Y-93109708D01*
X31225464Y-93169159D01*
X31224413Y-93171696D01*
X31223017Y-93173811D01*
X31113449Y-93319902D01*
X31052780Y-93367523D01*
X30994250Y-93379500D01*
X25826243Y-93379500D01*
X25751743Y-93359538D01*
X25697205Y-93305000D01*
X25677243Y-93230500D01*
X25697205Y-93156000D01*
X25736780Y-93111347D01*
X25780432Y-93078572D01*
X25786591Y-93073403D01*
X25797893Y-93062827D01*
X25805928Y-93049918D01*
X25797456Y-93034666D01*
X23699371Y-90936581D01*
X23685500Y-90928573D01*
X23671629Y-90936581D01*
X22362461Y-92245749D01*
X22295666Y-92284313D01*
X22218538Y-92284313D01*
X22211672Y-92281469D01*
X22206179Y-92281469D01*
X22190947Y-92290263D01*
X21444468Y-93036742D01*
X21436736Y-93050134D01*
X21442969Y-93060650D01*
X21510267Y-93112290D01*
X21557220Y-93173480D01*
X21567287Y-93249948D01*
X21537772Y-93321205D01*
X21476582Y-93368158D01*
X21419562Y-93379500D01*
X20749500Y-93379500D01*
X20675000Y-93359538D01*
X20620462Y-93305000D01*
X20600500Y-93230500D01*
X20600500Y-92513107D01*
X20620462Y-92438607D01*
X20675000Y-92384069D01*
X20749500Y-92364107D01*
X20824000Y-92384069D01*
X20873172Y-92430003D01*
X20933996Y-92520519D01*
X20938838Y-92526945D01*
X21061976Y-92673175D01*
X21075111Y-92682338D01*
X21085159Y-92677631D01*
X23248919Y-90513871D01*
X23256927Y-90500000D01*
X24114073Y-90500000D01*
X24122081Y-90513871D01*
X25494749Y-91886539D01*
X25533313Y-91953334D01*
X25533313Y-92030462D01*
X25530469Y-92037328D01*
X25530469Y-92042821D01*
X25539263Y-92058053D01*
X26155404Y-92674194D01*
X26169275Y-92682202D01*
X26179292Y-92676419D01*
X26283790Y-92554930D01*
X26288699Y-92548555D01*
X26490151Y-92255440D01*
X26494343Y-92248572D01*
X26662960Y-91935418D01*
X26666387Y-91928135D01*
X26800197Y-91598603D01*
X26802823Y-91590975D01*
X26822559Y-91521690D01*
X31712000Y-91521690D01*
X31712408Y-91529471D01*
X31726133Y-91660062D01*
X31729362Y-91675249D01*
X31783518Y-91841924D01*
X31789835Y-91856112D01*
X31877464Y-92007891D01*
X31886588Y-92020448D01*
X32003858Y-92150691D01*
X32015396Y-92161081D01*
X32157183Y-92264094D01*
X32170633Y-92271859D01*
X32330730Y-92343139D01*
X32345507Y-92347941D01*
X32346813Y-92348219D01*
X32362807Y-92347380D01*
X32366000Y-92341115D01*
X32366000Y-92332681D01*
X32874000Y-92332681D01*
X32878145Y-92348152D01*
X32884939Y-92349972D01*
X32894493Y-92347941D01*
X32909270Y-92343139D01*
X33069367Y-92271859D01*
X33082817Y-92264094D01*
X33224604Y-92161081D01*
X33236142Y-92150691D01*
X33353412Y-92020448D01*
X33362536Y-92007891D01*
X33450165Y-91856112D01*
X33456482Y-91841924D01*
X33510638Y-91675249D01*
X33513867Y-91660062D01*
X33527592Y-91529471D01*
X33528000Y-91521690D01*
X38712000Y-91521690D01*
X38712408Y-91529471D01*
X38726133Y-91660062D01*
X38729362Y-91675249D01*
X38783518Y-91841924D01*
X38789835Y-91856112D01*
X38877464Y-92007891D01*
X38886588Y-92020448D01*
X39003858Y-92150691D01*
X39015396Y-92161081D01*
X39157183Y-92264094D01*
X39170633Y-92271859D01*
X39330730Y-92343139D01*
X39345507Y-92347941D01*
X39346813Y-92348219D01*
X39362807Y-92347380D01*
X39366000Y-92341115D01*
X39366000Y-92332681D01*
X39874000Y-92332681D01*
X39878145Y-92348152D01*
X39884939Y-92349972D01*
X39894493Y-92347941D01*
X39909270Y-92343139D01*
X40069367Y-92271859D01*
X40082817Y-92264094D01*
X40224604Y-92161081D01*
X40236142Y-92150691D01*
X40353412Y-92020448D01*
X40362536Y-92007891D01*
X40450165Y-91856112D01*
X40456482Y-91841924D01*
X40510638Y-91675249D01*
X40513867Y-91660062D01*
X40527592Y-91529471D01*
X40528000Y-91521690D01*
X40528000Y-91351616D01*
X40523855Y-91336145D01*
X40508384Y-91332000D01*
X39893616Y-91332000D01*
X39878145Y-91336145D01*
X39874000Y-91351616D01*
X39874000Y-92332681D01*
X39366000Y-92332681D01*
X39366000Y-91351616D01*
X39361855Y-91336145D01*
X39346384Y-91332000D01*
X38731616Y-91332000D01*
X38716145Y-91336145D01*
X38712000Y-91351616D01*
X38712000Y-91521690D01*
X33528000Y-91521690D01*
X33528000Y-91351616D01*
X33523855Y-91336145D01*
X33508384Y-91332000D01*
X32893616Y-91332000D01*
X32878145Y-91336145D01*
X32874000Y-91351616D01*
X32874000Y-92332681D01*
X32366000Y-92332681D01*
X32366000Y-91351616D01*
X32361855Y-91336145D01*
X32346384Y-91332000D01*
X31731616Y-91332000D01*
X31716145Y-91336145D01*
X31712000Y-91351616D01*
X31712000Y-91521690D01*
X26822559Y-91521690D01*
X26900255Y-91248934D01*
X26902040Y-91241081D01*
X26961966Y-90890501D01*
X26962891Y-90882498D01*
X26967669Y-90804384D01*
X31712000Y-90804384D01*
X31716145Y-90819855D01*
X31731616Y-90824000D01*
X32346384Y-90824000D01*
X32361855Y-90819855D01*
X32366000Y-90804384D01*
X32874000Y-90804384D01*
X32878145Y-90819855D01*
X32893616Y-90824000D01*
X33508384Y-90824000D01*
X33523855Y-90819855D01*
X33528000Y-90804384D01*
X38712000Y-90804384D01*
X38716145Y-90819855D01*
X38731616Y-90824000D01*
X39346384Y-90824000D01*
X39361855Y-90819855D01*
X39366000Y-90804384D01*
X39874000Y-90804384D01*
X39878145Y-90819855D01*
X39893616Y-90824000D01*
X40508384Y-90824000D01*
X40523855Y-90819855D01*
X40528000Y-90804384D01*
X40528000Y-90634310D01*
X40527592Y-90626529D01*
X40513867Y-90495938D01*
X40513091Y-90492288D01*
X43119292Y-90492288D01*
X43137286Y-90847501D01*
X43138126Y-90855492D01*
X43194380Y-91206695D01*
X43196081Y-91214560D01*
X43289932Y-91557623D01*
X43292470Y-91565252D01*
X43422823Y-91896173D01*
X43426174Y-91903492D01*
X43591504Y-92218400D01*
X43595621Y-92225306D01*
X43793996Y-92520519D01*
X43798838Y-92526945D01*
X43921976Y-92673175D01*
X43935111Y-92682338D01*
X43945159Y-92677631D01*
X46108919Y-90513871D01*
X46116927Y-90500000D01*
X46108919Y-90486129D01*
X43948586Y-88325796D01*
X43934715Y-88317788D01*
X43924837Y-88323491D01*
X43813056Y-88454371D01*
X43808171Y-88460760D01*
X43607740Y-88754579D01*
X43603565Y-88761474D01*
X43436052Y-89075199D01*
X43432644Y-89082509D01*
X43299983Y-89412510D01*
X43297394Y-89420116D01*
X43201149Y-89762516D01*
X43199393Y-89770373D01*
X43140691Y-90121165D01*
X43139794Y-90129163D01*
X43119320Y-90484238D01*
X43119292Y-90492288D01*
X40513091Y-90492288D01*
X40510638Y-90480751D01*
X40456482Y-90314076D01*
X40450165Y-90299888D01*
X40362536Y-90148109D01*
X40353412Y-90135552D01*
X40236142Y-90005309D01*
X40224604Y-89994919D01*
X40082817Y-89891906D01*
X40069367Y-89884141D01*
X39909270Y-89812861D01*
X39894493Y-89808059D01*
X39893187Y-89807781D01*
X39877193Y-89808620D01*
X39874000Y-89814885D01*
X39874000Y-90804384D01*
X39366000Y-90804384D01*
X39366000Y-89823319D01*
X39361855Y-89807848D01*
X39355061Y-89806028D01*
X39345507Y-89808059D01*
X39330730Y-89812861D01*
X39170633Y-89884141D01*
X39157183Y-89891906D01*
X39015396Y-89994919D01*
X39003858Y-90005309D01*
X38886588Y-90135552D01*
X38877464Y-90148109D01*
X38789835Y-90299888D01*
X38783518Y-90314076D01*
X38729362Y-90480751D01*
X38726133Y-90495938D01*
X38712408Y-90626529D01*
X38712000Y-90634310D01*
X38712000Y-90804384D01*
X33528000Y-90804384D01*
X33528000Y-90634310D01*
X33527592Y-90626529D01*
X33513867Y-90495938D01*
X33510638Y-90480751D01*
X33456482Y-90314076D01*
X33450165Y-90299888D01*
X33362536Y-90148109D01*
X33353412Y-90135552D01*
X33236142Y-90005309D01*
X33224604Y-89994919D01*
X33082817Y-89891906D01*
X33069367Y-89884141D01*
X32909270Y-89812861D01*
X32894493Y-89808059D01*
X32893187Y-89807781D01*
X32877193Y-89808620D01*
X32874000Y-89814885D01*
X32874000Y-90804384D01*
X32366000Y-90804384D01*
X32366000Y-89823319D01*
X32361855Y-89807848D01*
X32355061Y-89806028D01*
X32345507Y-89808059D01*
X32330730Y-89812861D01*
X32170633Y-89884141D01*
X32157183Y-89891906D01*
X32015396Y-89994919D01*
X32003858Y-90005309D01*
X31886588Y-90135552D01*
X31877464Y-90148109D01*
X31789835Y-90299888D01*
X31783518Y-90314076D01*
X31729362Y-90480751D01*
X31726133Y-90495938D01*
X31712408Y-90626529D01*
X31712000Y-90634310D01*
X31712000Y-90804384D01*
X26967669Y-90804384D01*
X26984720Y-90525611D01*
X26984857Y-90521341D01*
X26984925Y-90502135D01*
X26984817Y-90497870D01*
X26965480Y-90140834D01*
X26964609Y-90132820D01*
X26907135Y-89781847D01*
X26905404Y-89773971D01*
X26810358Y-89431245D01*
X26807792Y-89423620D01*
X26802869Y-89411248D01*
X32951825Y-89411248D01*
X32955803Y-89418139D01*
X32995815Y-89446156D01*
X33007043Y-89452638D01*
X33190785Y-89538319D01*
X33202959Y-89542750D01*
X33398795Y-89595224D01*
X33411550Y-89597473D01*
X33613519Y-89615143D01*
X33626481Y-89615143D01*
X33828450Y-89597473D01*
X33841205Y-89595224D01*
X34037041Y-89542750D01*
X34049215Y-89538319D01*
X34232957Y-89452638D01*
X34244185Y-89446156D01*
X34277969Y-89422500D01*
X34287410Y-89411248D01*
X37951825Y-89411248D01*
X37955803Y-89418139D01*
X37995815Y-89446156D01*
X38007043Y-89452638D01*
X38190785Y-89538319D01*
X38202959Y-89542750D01*
X38398795Y-89595224D01*
X38411550Y-89597473D01*
X38613519Y-89615143D01*
X38626481Y-89615143D01*
X38828450Y-89597473D01*
X38841205Y-89595224D01*
X39037041Y-89542750D01*
X39049215Y-89538319D01*
X39232957Y-89452638D01*
X39244185Y-89446156D01*
X39277969Y-89422500D01*
X39288264Y-89410230D01*
X39285543Y-89402753D01*
X38633871Y-88751081D01*
X38620000Y-88743073D01*
X38606129Y-88751081D01*
X37959833Y-89397377D01*
X37951825Y-89411248D01*
X34287410Y-89411248D01*
X34288264Y-89410230D01*
X34285543Y-89402753D01*
X33633871Y-88751081D01*
X33620000Y-88743073D01*
X33606129Y-88751081D01*
X32959833Y-89397377D01*
X32951825Y-89411248D01*
X26802869Y-89411248D01*
X26676284Y-89093155D01*
X26672909Y-89085850D01*
X26506484Y-88771530D01*
X26502330Y-88764617D01*
X26302936Y-88470112D01*
X26298069Y-88463699D01*
X26230887Y-88384481D01*
X32382857Y-88384481D01*
X32400527Y-88586450D01*
X32402776Y-88599205D01*
X32455250Y-88795041D01*
X32459681Y-88807215D01*
X32545362Y-88990957D01*
X32551844Y-89002185D01*
X32575500Y-89035969D01*
X32587770Y-89046264D01*
X32595247Y-89043543D01*
X33246919Y-88391871D01*
X33254927Y-88378000D01*
X33985073Y-88378000D01*
X33993081Y-88391871D01*
X34639377Y-89038167D01*
X34653248Y-89046175D01*
X34660139Y-89042197D01*
X34688156Y-89002185D01*
X34694638Y-88990957D01*
X34780319Y-88807215D01*
X34784750Y-88795041D01*
X34837224Y-88599205D01*
X34839473Y-88586450D01*
X34857143Y-88384481D01*
X37382857Y-88384481D01*
X37400527Y-88586450D01*
X37402776Y-88599205D01*
X37455250Y-88795041D01*
X37459681Y-88807215D01*
X37545362Y-88990957D01*
X37551844Y-89002185D01*
X37575500Y-89035969D01*
X37587770Y-89046264D01*
X37595247Y-89043543D01*
X38246919Y-88391871D01*
X38254927Y-88378000D01*
X38985073Y-88378000D01*
X38993081Y-88391871D01*
X39639377Y-89038167D01*
X39653248Y-89046175D01*
X39660139Y-89042197D01*
X39688156Y-89002185D01*
X39694638Y-88990957D01*
X39780319Y-88807215D01*
X39784750Y-88795041D01*
X39837224Y-88599205D01*
X39839473Y-88586450D01*
X39857143Y-88384481D01*
X39857143Y-88371519D01*
X39839473Y-88169550D01*
X39837224Y-88156795D01*
X39784750Y-87960959D01*
X39780676Y-87949766D01*
X44297658Y-87949766D01*
X44306084Y-87964874D01*
X46468129Y-90126919D01*
X46482000Y-90134927D01*
X46495871Y-90126919D01*
X48659107Y-87963683D01*
X48666797Y-87950363D01*
X48658794Y-87936911D01*
X48658371Y-87936551D01*
X48375452Y-87721025D01*
X48368801Y-87716505D01*
X48064249Y-87532787D01*
X48057147Y-87529011D01*
X47734545Y-87379264D01*
X47727057Y-87376269D01*
X47390181Y-87262244D01*
X47382423Y-87260077D01*
X47035200Y-87183100D01*
X47027234Y-87181781D01*
X46673725Y-87142754D01*
X46665703Y-87142305D01*
X46310038Y-87141684D01*
X46301976Y-87142107D01*
X45948337Y-87179900D01*
X45940399Y-87181185D01*
X45592898Y-87256953D01*
X45585119Y-87259096D01*
X45247857Y-87371942D01*
X45240352Y-87374913D01*
X44917233Y-87523531D01*
X44910119Y-87527281D01*
X44604921Y-87709939D01*
X44598263Y-87714430D01*
X44314587Y-87928973D01*
X44308435Y-87934172D01*
X44305694Y-87936755D01*
X44297658Y-87949766D01*
X39780676Y-87949766D01*
X39780319Y-87948785D01*
X39694638Y-87765043D01*
X39688156Y-87753815D01*
X39664500Y-87720031D01*
X39652230Y-87709736D01*
X39644753Y-87712457D01*
X38993081Y-88364129D01*
X38985073Y-88378000D01*
X38254927Y-88378000D01*
X38246919Y-88364129D01*
X37600623Y-87717833D01*
X37586752Y-87709825D01*
X37579861Y-87713803D01*
X37551844Y-87753815D01*
X37545362Y-87765043D01*
X37459681Y-87948785D01*
X37455250Y-87960959D01*
X37402776Y-88156795D01*
X37400527Y-88169550D01*
X37382857Y-88371519D01*
X37382857Y-88384481D01*
X34857143Y-88384481D01*
X34857143Y-88371519D01*
X34839473Y-88169550D01*
X34837224Y-88156795D01*
X34784750Y-87960959D01*
X34780319Y-87948785D01*
X34694638Y-87765043D01*
X34688156Y-87753815D01*
X34664500Y-87720031D01*
X34652230Y-87709736D01*
X34644753Y-87712457D01*
X33993081Y-88364129D01*
X33985073Y-88378000D01*
X33254927Y-88378000D01*
X33246919Y-88364129D01*
X32600623Y-87717833D01*
X32586752Y-87709825D01*
X32579861Y-87713803D01*
X32551844Y-87753815D01*
X32545362Y-87765043D01*
X32459681Y-87948785D01*
X32455250Y-87960959D01*
X32402776Y-88156795D01*
X32400527Y-88169550D01*
X32382857Y-88371519D01*
X32382857Y-88384481D01*
X26230887Y-88384481D01*
X26182012Y-88326849D01*
X26168842Y-88317730D01*
X26158674Y-88322536D01*
X25539263Y-88941947D01*
X25530469Y-88957179D01*
X25530469Y-88978541D01*
X25538390Y-89008104D01*
X25518427Y-89082604D01*
X25494749Y-89113461D01*
X24122081Y-90486129D01*
X24114073Y-90500000D01*
X23256927Y-90500000D01*
X23248919Y-90486129D01*
X21088586Y-88325796D01*
X21074715Y-88317788D01*
X21064837Y-88323491D01*
X20953056Y-88454371D01*
X20948171Y-88460760D01*
X20872589Y-88571558D01*
X20814115Y-88621853D01*
X20738328Y-88636173D01*
X20665534Y-88610681D01*
X20615239Y-88552207D01*
X20600500Y-88487592D01*
X20600500Y-87949766D01*
X21437658Y-87949766D01*
X21446084Y-87964874D01*
X22190947Y-88709737D01*
X22206179Y-88718531D01*
X22227541Y-88718531D01*
X22257104Y-88710610D01*
X22331604Y-88730573D01*
X22362461Y-88754251D01*
X23671629Y-90063419D01*
X23685500Y-90071427D01*
X23699371Y-90063419D01*
X25799107Y-87963683D01*
X25806797Y-87950363D01*
X25798794Y-87936911D01*
X25798371Y-87936551D01*
X25515452Y-87721025D01*
X25508801Y-87716505D01*
X25204249Y-87532787D01*
X25197147Y-87529011D01*
X24874545Y-87379264D01*
X24867057Y-87376269D01*
X24776951Y-87345770D01*
X32951736Y-87345770D01*
X32954457Y-87353247D01*
X33606129Y-88004919D01*
X33620000Y-88012927D01*
X33633871Y-88004919D01*
X34280167Y-87358623D01*
X34287587Y-87345770D01*
X37951736Y-87345770D01*
X37954457Y-87353247D01*
X38606129Y-88004919D01*
X38620000Y-88012927D01*
X38633871Y-88004919D01*
X39280167Y-87358623D01*
X39288175Y-87344752D01*
X39284197Y-87337861D01*
X39244185Y-87309844D01*
X39232957Y-87303362D01*
X39049215Y-87217681D01*
X39037041Y-87213250D01*
X38841205Y-87160776D01*
X38828450Y-87158527D01*
X38626481Y-87140857D01*
X38613519Y-87140857D01*
X38411550Y-87158527D01*
X38398795Y-87160776D01*
X38202959Y-87213250D01*
X38190785Y-87217681D01*
X38007043Y-87303362D01*
X37995815Y-87309844D01*
X37962031Y-87333500D01*
X37951736Y-87345770D01*
X34287587Y-87345770D01*
X34288175Y-87344752D01*
X34284197Y-87337861D01*
X34244185Y-87309844D01*
X34232957Y-87303362D01*
X34049215Y-87217681D01*
X34037041Y-87213250D01*
X33841205Y-87160776D01*
X33828450Y-87158527D01*
X33626481Y-87140857D01*
X33613519Y-87140857D01*
X33411550Y-87158527D01*
X33398795Y-87160776D01*
X33202959Y-87213250D01*
X33190785Y-87217681D01*
X33007043Y-87303362D01*
X32995815Y-87309844D01*
X32962031Y-87333500D01*
X32951736Y-87345770D01*
X24776951Y-87345770D01*
X24530181Y-87262244D01*
X24522423Y-87260077D01*
X24175200Y-87183100D01*
X24167234Y-87181781D01*
X23813725Y-87142754D01*
X23805703Y-87142305D01*
X23450038Y-87141684D01*
X23441976Y-87142107D01*
X23088337Y-87179900D01*
X23080399Y-87181185D01*
X22732898Y-87256953D01*
X22725119Y-87259096D01*
X22387857Y-87371942D01*
X22380352Y-87374913D01*
X22057233Y-87523531D01*
X22050119Y-87527281D01*
X21744921Y-87709939D01*
X21738263Y-87714430D01*
X21454587Y-87928973D01*
X21448435Y-87934172D01*
X21445694Y-87936755D01*
X21437658Y-87949766D01*
X20600500Y-87949766D01*
X20600500Y-82413183D01*
X20620462Y-82338683D01*
X20675000Y-82284145D01*
X20749500Y-82264183D01*
X20767142Y-82265231D01*
X20926715Y-82284259D01*
X20926718Y-82284259D01*
X20933946Y-82285121D01*
X21045443Y-82276542D01*
X21122314Y-82270627D01*
X21122316Y-82270627D01*
X21129576Y-82270068D01*
X21318556Y-82217303D01*
X21325062Y-82214016D01*
X21325066Y-82214015D01*
X21487184Y-82132123D01*
X21487185Y-82132123D01*
X21493689Y-82128837D01*
X21648303Y-82008040D01*
X21776509Y-81859511D01*
X21873425Y-81688909D01*
X21935358Y-81502732D01*
X21939316Y-81471406D01*
X21959427Y-81312200D01*
X21959949Y-81308071D01*
X21960341Y-81280000D01*
X21941194Y-81084728D01*
X21884484Y-80896894D01*
X21853080Y-80837832D01*
X21795792Y-80730088D01*
X21795790Y-80730085D01*
X21792370Y-80723653D01*
X21787767Y-80718010D01*
X21787765Y-80718006D01*
X21672964Y-80577246D01*
X21668361Y-80571602D01*
X21517180Y-80446535D01*
X21344585Y-80353213D01*
X21214202Y-80312853D01*
X21164111Y-80297347D01*
X21164109Y-80297347D01*
X21157152Y-80295193D01*
X21149910Y-80294432D01*
X21149906Y-80294431D01*
X20969260Y-80275444D01*
X20969259Y-80275444D01*
X20962019Y-80274683D01*
X20766618Y-80292466D01*
X20766423Y-80290324D01*
X20700484Y-80285475D01*
X20636697Y-80242115D01*
X20603136Y-80172672D01*
X20600500Y-80144768D01*
X20600500Y-79221107D01*
X20620462Y-79146607D01*
X20675000Y-79092069D01*
X20749500Y-79072107D01*
X20822191Y-79091042D01*
X20927141Y-79149697D01*
X20927151Y-79149701D01*
X20933513Y-79153257D01*
X21120118Y-79213889D01*
X21193397Y-79222627D01*
X21307715Y-79236259D01*
X21307718Y-79236259D01*
X21314946Y-79237121D01*
X21426443Y-79228542D01*
X21503314Y-79222627D01*
X21503316Y-79222627D01*
X21510576Y-79222068D01*
X21699556Y-79169303D01*
X21706062Y-79166016D01*
X21706066Y-79166015D01*
X21868184Y-79084123D01*
X21868185Y-79084123D01*
X21874689Y-79080837D01*
X22029303Y-78960040D01*
X22034067Y-78954521D01*
X22047357Y-78939125D01*
X22111148Y-78895773D01*
X22188069Y-78890125D01*
X22257509Y-78923695D01*
X22261578Y-78927542D01*
X22263818Y-78930369D01*
X22413238Y-79057535D01*
X22419601Y-79061091D01*
X22578149Y-79149701D01*
X22578155Y-79149704D01*
X22584513Y-79153257D01*
X22771118Y-79213889D01*
X22844397Y-79222627D01*
X22958715Y-79236259D01*
X22958718Y-79236259D01*
X22965946Y-79237121D01*
X23077443Y-79228542D01*
X23154314Y-79222627D01*
X23154316Y-79222627D01*
X23161576Y-79222068D01*
X23350556Y-79169303D01*
X23357062Y-79166016D01*
X23357066Y-79166015D01*
X23519184Y-79084123D01*
X23519185Y-79084123D01*
X23525689Y-79080837D01*
X23680303Y-78960040D01*
X23808509Y-78811511D01*
X23905425Y-78640909D01*
X23967358Y-78454732D01*
X23991949Y-78260071D01*
X23992341Y-78232000D01*
X23973194Y-78036728D01*
X23916484Y-77848894D01*
X23913061Y-77842456D01*
X23827792Y-77682088D01*
X23827790Y-77682085D01*
X23824370Y-77675653D01*
X23819767Y-77670010D01*
X23819765Y-77670006D01*
X23704964Y-77529246D01*
X23700361Y-77523602D01*
X23549180Y-77398535D01*
X23454170Y-77347163D01*
X23398132Y-77294170D01*
X23376097Y-77220257D01*
X23393971Y-77145228D01*
X23446965Y-77089189D01*
X23457858Y-77083101D01*
X23519184Y-77052123D01*
X23519185Y-77052123D01*
X23525689Y-77048837D01*
X23680303Y-76928040D01*
X23808509Y-76779511D01*
X23905425Y-76608909D01*
X23967358Y-76422732D01*
X23975349Y-76359480D01*
X23990571Y-76238978D01*
X23991949Y-76228071D01*
X23992341Y-76200000D01*
X23973826Y-76011175D01*
X30259000Y-76011175D01*
X30259398Y-76018872D01*
X30268945Y-76110878D01*
X30272368Y-76126726D01*
X30322061Y-76275676D01*
X30329360Y-76291258D01*
X30411724Y-76424357D01*
X30422404Y-76437833D01*
X30533184Y-76548420D01*
X30546678Y-76559077D01*
X30679919Y-76641207D01*
X30695512Y-76648478D01*
X30844576Y-76697920D01*
X30860383Y-76701309D01*
X30951182Y-76710612D01*
X30958774Y-76711000D01*
X30968384Y-76711000D01*
X30983855Y-76706855D01*
X30988000Y-76691384D01*
X30988000Y-75939116D01*
X30983855Y-75923645D01*
X30968384Y-75919500D01*
X30278616Y-75919500D01*
X30263145Y-75923645D01*
X30259000Y-75939116D01*
X30259000Y-76011175D01*
X23973826Y-76011175D01*
X23973194Y-76004728D01*
X23916484Y-75816894D01*
X23913061Y-75810456D01*
X23827792Y-75650088D01*
X23827790Y-75650085D01*
X23824370Y-75643653D01*
X23819767Y-75638010D01*
X23819765Y-75638006D01*
X23704964Y-75497246D01*
X23700361Y-75491602D01*
X23549180Y-75366535D01*
X23376585Y-75273213D01*
X23233684Y-75228978D01*
X23196111Y-75217347D01*
X23196109Y-75217347D01*
X23189152Y-75215193D01*
X23181910Y-75214432D01*
X23181906Y-75214431D01*
X23001260Y-75195444D01*
X23001259Y-75195444D01*
X22994019Y-75194683D01*
X22798618Y-75212466D01*
X22610393Y-75267864D01*
X22436512Y-75358767D01*
X22430838Y-75363329D01*
X22315693Y-75455908D01*
X22283600Y-75481711D01*
X22157480Y-75632016D01*
X22062956Y-75803954D01*
X22003628Y-75990978D01*
X22002815Y-75998222D01*
X22002815Y-75998224D01*
X22001273Y-76011974D01*
X21981757Y-76185963D01*
X21998175Y-76381483D01*
X22052258Y-76570091D01*
X22141944Y-76744601D01*
X22263818Y-76898369D01*
X22413238Y-77025535D01*
X22419601Y-77029091D01*
X22419608Y-77029096D01*
X22521592Y-77086093D01*
X22576886Y-77139864D01*
X22597886Y-77214078D01*
X22578966Y-77288849D01*
X22525195Y-77344143D01*
X22517972Y-77348181D01*
X22436512Y-77390767D01*
X22430838Y-77395329D01*
X22345803Y-77463699D01*
X22283600Y-77513711D01*
X22276255Y-77522464D01*
X22274231Y-77523882D01*
X22273711Y-77524391D01*
X22273627Y-77524305D01*
X22213080Y-77566705D01*
X22136246Y-77573432D01*
X22066342Y-77540840D01*
X22056384Y-77531683D01*
X22053964Y-77529246D01*
X22049361Y-77523602D01*
X22007114Y-77488652D01*
X21903796Y-77403181D01*
X21898180Y-77398535D01*
X21725585Y-77305213D01*
X21595202Y-77264853D01*
X21545111Y-77249347D01*
X21545109Y-77249347D01*
X21538152Y-77247193D01*
X21530910Y-77246432D01*
X21530906Y-77246431D01*
X21350260Y-77227444D01*
X21350259Y-77227444D01*
X21343019Y-77226683D01*
X21147618Y-77244466D01*
X20959393Y-77299864D01*
X20868917Y-77347164D01*
X20818531Y-77373505D01*
X20743261Y-77390330D01*
X20669662Y-77367266D01*
X20617456Y-77310492D01*
X20600500Y-77241461D01*
X20600500Y-73137963D01*
X24521757Y-73137963D01*
X24538175Y-73333483D01*
X24540185Y-73340492D01*
X24540185Y-73340493D01*
X24585605Y-73498889D01*
X24592258Y-73522091D01*
X24681944Y-73696601D01*
X24803818Y-73850369D01*
X24953238Y-73977535D01*
X24959601Y-73981091D01*
X25118149Y-74069701D01*
X25118155Y-74069704D01*
X25124513Y-74073257D01*
X25311118Y-74133889D01*
X25384397Y-74142627D01*
X25498715Y-74156259D01*
X25498718Y-74156259D01*
X25505946Y-74157121D01*
X25632723Y-74147366D01*
X25694314Y-74142627D01*
X25694316Y-74142627D01*
X25701576Y-74142068D01*
X25773771Y-74121911D01*
X25883533Y-74091264D01*
X25883534Y-74091264D01*
X25890556Y-74089303D01*
X25897062Y-74086016D01*
X25897066Y-74086015D01*
X26059184Y-74004123D01*
X26059185Y-74004123D01*
X26065689Y-74000837D01*
X26220303Y-73880040D01*
X26348509Y-73731511D01*
X26408367Y-73626142D01*
X26441827Y-73567243D01*
X26441828Y-73567241D01*
X26445425Y-73560909D01*
X26507358Y-73374732D01*
X26508868Y-73362784D01*
X26523175Y-73249527D01*
X26531949Y-73180071D01*
X26532095Y-73169599D01*
X26532283Y-73156176D01*
X26532283Y-73156170D01*
X26532341Y-73152000D01*
X26513194Y-72956728D01*
X26456484Y-72768894D01*
X26440978Y-72739732D01*
X26367792Y-72602088D01*
X26367790Y-72602085D01*
X26364370Y-72595653D01*
X26359767Y-72590010D01*
X26359765Y-72590006D01*
X26244964Y-72449246D01*
X26240361Y-72443602D01*
X26089180Y-72318535D01*
X26082197Y-72314759D01*
X26069655Y-72307978D01*
X25916585Y-72225213D01*
X25786202Y-72184853D01*
X25736111Y-72169347D01*
X25736109Y-72169347D01*
X25729152Y-72167193D01*
X25721910Y-72166432D01*
X25721906Y-72166431D01*
X25541260Y-72147444D01*
X25541259Y-72147444D01*
X25534019Y-72146683D01*
X25338618Y-72164466D01*
X25150393Y-72219864D01*
X24976512Y-72310767D01*
X24970838Y-72315329D01*
X24888038Y-72381902D01*
X24823600Y-72433711D01*
X24697480Y-72584016D01*
X24602956Y-72755954D01*
X24543628Y-72942978D01*
X24542815Y-72950222D01*
X24542815Y-72950224D01*
X24526267Y-73097757D01*
X24521757Y-73137963D01*
X20600500Y-73137963D01*
X20600500Y-70597963D01*
X25283757Y-70597963D01*
X25300175Y-70793483D01*
X25302185Y-70800492D01*
X25302185Y-70800493D01*
X25351377Y-70972043D01*
X25354258Y-70982091D01*
X25443944Y-71156601D01*
X25565818Y-71310369D01*
X25715238Y-71437535D01*
X25721601Y-71441091D01*
X25880149Y-71529701D01*
X25880155Y-71529704D01*
X25886513Y-71533257D01*
X26073118Y-71593889D01*
X26182021Y-71606875D01*
X26260715Y-71616259D01*
X26260718Y-71616259D01*
X26267946Y-71617121D01*
X26379443Y-71608542D01*
X26456314Y-71602627D01*
X26456316Y-71602627D01*
X26463576Y-71602068D01*
X26652556Y-71549303D01*
X26659062Y-71546016D01*
X26659066Y-71546015D01*
X26821184Y-71464123D01*
X26821185Y-71464123D01*
X26827689Y-71460837D01*
X26982303Y-71340040D01*
X27110509Y-71191511D01*
X27207425Y-71020909D01*
X27269358Y-70834732D01*
X27288367Y-70684259D01*
X27317509Y-70612849D01*
X27330833Y-70597575D01*
X28602126Y-69326282D01*
X28619171Y-69311634D01*
X28627189Y-69305734D01*
X28627191Y-69305732D01*
X28634158Y-69300605D01*
X28666129Y-69262973D01*
X28674323Y-69254085D01*
X28678961Y-69249447D01*
X28695528Y-69228508D01*
X28698810Y-69224505D01*
X28738087Y-69178273D01*
X28743692Y-69171676D01*
X28747630Y-69163965D01*
X28749846Y-69160641D01*
X28749928Y-69160528D01*
X28750007Y-69160388D01*
X28752092Y-69157012D01*
X28757465Y-69150221D01*
X28761564Y-69141451D01*
X28786816Y-69087423D01*
X28789099Y-69082753D01*
X28816689Y-69028720D01*
X28816690Y-69028717D01*
X28820627Y-69021007D01*
X28822684Y-69012599D01*
X28824075Y-69008860D01*
X28824131Y-69008726D01*
X28824172Y-69008584D01*
X28825431Y-69004800D01*
X28829096Y-68996958D01*
X28843213Y-68929084D01*
X28844351Y-68924053D01*
X28860838Y-68856679D01*
X28861500Y-68846008D01*
X28861500Y-68845261D01*
X28861846Y-68839506D01*
X28863547Y-68831328D01*
X28861555Y-68757710D01*
X28861500Y-68753681D01*
X28861500Y-63036793D01*
X28881462Y-62962293D01*
X28936000Y-62907755D01*
X29010500Y-62887793D01*
X29061150Y-62898375D01*
X29061513Y-62897257D01*
X29248118Y-62957889D01*
X29321397Y-62966627D01*
X29435715Y-62980259D01*
X29435718Y-62980259D01*
X29442946Y-62981121D01*
X29554443Y-62972542D01*
X29631314Y-62966627D01*
X29631316Y-62966627D01*
X29638576Y-62966068D01*
X29710771Y-62945911D01*
X29820533Y-62915264D01*
X29820534Y-62915264D01*
X29827556Y-62913303D01*
X29834062Y-62910016D01*
X29834066Y-62910015D01*
X29996184Y-62828123D01*
X29996185Y-62828123D01*
X30002689Y-62824837D01*
X30124269Y-62729849D01*
X30151560Y-62708527D01*
X30151561Y-62708526D01*
X30157303Y-62704040D01*
X30285509Y-62555511D01*
X30354897Y-62433367D01*
X30378827Y-62391243D01*
X30378828Y-62391241D01*
X30382425Y-62384909D01*
X30444358Y-62198732D01*
X30446662Y-62180499D01*
X30459283Y-62080589D01*
X30468949Y-62004071D01*
X30469341Y-61976000D01*
X30450194Y-61780728D01*
X30393484Y-61592894D01*
X30354845Y-61520224D01*
X30304792Y-61426088D01*
X30304790Y-61426085D01*
X30301370Y-61419653D01*
X30296767Y-61414010D01*
X30296765Y-61414006D01*
X30188301Y-61281016D01*
X30177361Y-61267602D01*
X30026180Y-61142535D01*
X29853585Y-61049213D01*
X29708791Y-61004392D01*
X29673111Y-60993347D01*
X29673109Y-60993347D01*
X29666152Y-60991193D01*
X29658910Y-60990432D01*
X29658906Y-60990431D01*
X29478260Y-60971444D01*
X29478259Y-60971444D01*
X29471019Y-60970683D01*
X29275618Y-60988466D01*
X29087393Y-61043864D01*
X29080936Y-61047239D01*
X29080935Y-61047240D01*
X29079529Y-61047975D01*
X29078605Y-61048182D01*
X29074181Y-61049969D01*
X29073885Y-61049236D01*
X29004258Y-61064799D01*
X28930660Y-61041734D01*
X28878455Y-60984959D01*
X28861500Y-60915930D01*
X28861500Y-55158626D01*
X28881462Y-55084126D01*
X28905141Y-55053267D01*
X30907979Y-53050429D01*
X30974774Y-53011865D01*
X31001258Y-53007278D01*
X31015258Y-53006140D01*
X31041806Y-53003981D01*
X31041810Y-53003980D01*
X31050432Y-53003279D01*
X31058666Y-53000612D01*
X31062583Y-52999829D01*
X31062726Y-52999806D01*
X31062849Y-52999772D01*
X31066747Y-52998850D01*
X31075342Y-52997848D01*
X31140522Y-52974189D01*
X31145385Y-52972519D01*
X31211372Y-52951142D01*
X31218771Y-52946652D01*
X31222411Y-52944986D01*
X31222529Y-52944938D01*
X31222655Y-52944868D01*
X31226225Y-52943080D01*
X31234366Y-52940125D01*
X31292364Y-52902099D01*
X31296737Y-52899341D01*
X31350328Y-52866822D01*
X31350331Y-52866820D01*
X31356003Y-52863378D01*
X31364017Y-52856300D01*
X31364540Y-52855777D01*
X31368858Y-52851948D01*
X31375845Y-52847367D01*
X31426485Y-52793910D01*
X31429296Y-52791021D01*
X32372813Y-51847504D01*
X32389858Y-51832856D01*
X32397876Y-51826956D01*
X32397878Y-51826954D01*
X32404845Y-51821827D01*
X32436816Y-51784195D01*
X32445010Y-51775307D01*
X32449648Y-51770669D01*
X32466218Y-51749725D01*
X32469466Y-51745764D01*
X32514379Y-51692898D01*
X32518316Y-51685188D01*
X32520528Y-51681871D01*
X32520614Y-51681752D01*
X32520686Y-51681625D01*
X32522782Y-51678232D01*
X32528153Y-51671443D01*
X32557526Y-51608594D01*
X32559788Y-51603969D01*
X32587375Y-51549944D01*
X32587376Y-51549941D01*
X32591314Y-51542229D01*
X32593372Y-51533818D01*
X32594764Y-51530076D01*
X32594819Y-51529944D01*
X32594857Y-51529813D01*
X32596119Y-51526021D01*
X32599783Y-51518180D01*
X32601544Y-51509712D01*
X32601546Y-51509707D01*
X32613901Y-51450305D01*
X32615042Y-51445261D01*
X32631525Y-51377901D01*
X32632187Y-51367230D01*
X32632187Y-51366483D01*
X32632533Y-51360728D01*
X32634234Y-51352549D01*
X32632242Y-51278931D01*
X32632187Y-51274902D01*
X32632187Y-51126925D01*
X32652149Y-51052425D01*
X32706687Y-50997887D01*
X32781187Y-50977925D01*
X36592844Y-50977925D01*
X36667344Y-50997887D01*
X36721882Y-51052425D01*
X36741844Y-51126925D01*
X36740915Y-51143533D01*
X36729183Y-51248130D01*
X36745601Y-51443650D01*
X36747611Y-51450659D01*
X36747611Y-51450660D01*
X36774573Y-51544687D01*
X36775919Y-51621803D01*
X36738527Y-51689261D01*
X36724709Y-51701878D01*
X36578704Y-51819269D01*
X36578696Y-51819277D01*
X36573018Y-51823842D01*
X36489645Y-51923203D01*
X36426466Y-51967442D01*
X36375504Y-51976428D01*
X34740366Y-51976428D01*
X34717957Y-51974733D01*
X34714105Y-51974147D01*
X34699564Y-51971935D01*
X34690943Y-51972636D01*
X34690939Y-51972636D01*
X34650346Y-51975938D01*
X34638267Y-51976428D01*
X34631709Y-51976428D01*
X34627434Y-51976926D01*
X34627424Y-51976927D01*
X34605194Y-51979519D01*
X34600019Y-51980031D01*
X34586725Y-51981112D01*
X34530945Y-51985649D01*
X34522711Y-51988316D01*
X34518793Y-51989099D01*
X34518658Y-51989120D01*
X34518527Y-51989157D01*
X34514636Y-51990077D01*
X34506035Y-51991080D01*
X34440874Y-52014733D01*
X34435953Y-52016423D01*
X34378242Y-52035118D01*
X34378240Y-52035119D01*
X34370004Y-52037787D01*
X34362600Y-52042280D01*
X34358988Y-52043934D01*
X34358842Y-52043994D01*
X34358715Y-52044064D01*
X34355151Y-52045849D01*
X34347011Y-52048803D01*
X34339773Y-52053549D01*
X34339766Y-52053552D01*
X34289027Y-52086818D01*
X34284630Y-52089592D01*
X34231045Y-52122109D01*
X34231039Y-52122113D01*
X34225374Y-52125551D01*
X34217360Y-52132628D01*
X34216831Y-52133157D01*
X34212519Y-52136980D01*
X34205532Y-52141561D01*
X34199578Y-52147846D01*
X34199577Y-52147847D01*
X34154892Y-52195018D01*
X34152081Y-52197907D01*
X31252769Y-55097219D01*
X31235724Y-55111867D01*
X31227706Y-55117767D01*
X31227704Y-55117769D01*
X31220737Y-55122896D01*
X31215134Y-55129491D01*
X31215133Y-55129492D01*
X31188766Y-55160528D01*
X31180572Y-55169416D01*
X31175934Y-55174054D01*
X31159364Y-55194998D01*
X31156116Y-55198959D01*
X31111203Y-55251825D01*
X31107266Y-55259535D01*
X31105054Y-55262852D01*
X31104968Y-55262971D01*
X31104896Y-55263098D01*
X31102800Y-55266491D01*
X31097429Y-55273280D01*
X31068056Y-55336129D01*
X31065796Y-55340751D01*
X31034268Y-55402494D01*
X31032210Y-55410905D01*
X31030818Y-55414647D01*
X31030763Y-55414779D01*
X31030725Y-55414910D01*
X31029463Y-55418702D01*
X31025799Y-55426543D01*
X31024038Y-55435011D01*
X31024036Y-55435016D01*
X31011681Y-55494418D01*
X31010540Y-55499462D01*
X30994057Y-55566822D01*
X30993395Y-55577493D01*
X30993395Y-55578240D01*
X30993049Y-55583995D01*
X30991348Y-55592174D01*
X30991582Y-55600827D01*
X30991582Y-55600828D01*
X30993340Y-55665791D01*
X30993395Y-55669821D01*
X30993395Y-57139412D01*
X30991700Y-57161821D01*
X30988901Y-57180220D01*
X30989602Y-57188840D01*
X30989602Y-57188844D01*
X30992905Y-57229447D01*
X30993395Y-57241526D01*
X30993395Y-57248075D01*
X30993897Y-57252380D01*
X30996482Y-57274554D01*
X30996995Y-57279730D01*
X31000702Y-57325303D01*
X31002616Y-57348839D01*
X31005283Y-57357073D01*
X31006066Y-57360990D01*
X31006089Y-57361133D01*
X31006123Y-57361256D01*
X31007045Y-57365154D01*
X31008047Y-57373749D01*
X31031706Y-57438929D01*
X31033376Y-57443792D01*
X31054753Y-57509779D01*
X31059243Y-57517178D01*
X31060909Y-57520818D01*
X31060957Y-57520936D01*
X31061027Y-57521062D01*
X31062815Y-57524632D01*
X31065770Y-57532773D01*
X31103796Y-57590771D01*
X31106554Y-57595144D01*
X31124051Y-57623978D01*
X31142517Y-57654410D01*
X31149595Y-57662424D01*
X31150118Y-57662947D01*
X31153947Y-57667265D01*
X31158528Y-57674252D01*
X31164815Y-57680207D01*
X31164816Y-57680209D01*
X31211985Y-57724892D01*
X31214874Y-57727703D01*
X31361859Y-57874688D01*
X31400423Y-57941483D01*
X31405500Y-57980047D01*
X31405500Y-71617442D01*
X31385538Y-71691942D01*
X31331000Y-71746480D01*
X31255673Y-71766382D01*
X31249019Y-71765683D01*
X31053618Y-71783466D01*
X30865393Y-71838864D01*
X30691512Y-71929767D01*
X30538600Y-72052711D01*
X30412480Y-72203016D01*
X30317956Y-72374954D01*
X30258628Y-72561978D01*
X30257815Y-72569222D01*
X30257815Y-72569224D01*
X30237789Y-72747760D01*
X30236757Y-72756963D01*
X30253175Y-72952483D01*
X30255185Y-72959492D01*
X30255185Y-72959493D01*
X30294832Y-73097757D01*
X30296178Y-73174873D01*
X30285065Y-73205076D01*
X30213406Y-73349434D01*
X30169358Y-73526100D01*
X30168911Y-73532655D01*
X30168911Y-73532656D01*
X30167322Y-73555967D01*
X30166500Y-73568023D01*
X30166501Y-74312976D01*
X30166674Y-74315509D01*
X30166674Y-74315520D01*
X30167271Y-74324281D01*
X30169358Y-74354900D01*
X30213406Y-74531566D01*
X30216995Y-74538796D01*
X30290772Y-74687421D01*
X30290774Y-74687425D01*
X30294362Y-74694652D01*
X30299419Y-74700942D01*
X30299420Y-74700943D01*
X30368746Y-74787167D01*
X30399871Y-74857736D01*
X30391541Y-74934413D01*
X30379464Y-74958715D01*
X30328793Y-75040919D01*
X30321522Y-75056512D01*
X30272080Y-75205576D01*
X30268691Y-75221383D01*
X30259388Y-75312182D01*
X30259000Y-75319774D01*
X30259000Y-75391884D01*
X30263145Y-75407355D01*
X30278616Y-75411500D01*
X31256500Y-75411500D01*
X31331000Y-75431462D01*
X31385538Y-75486000D01*
X31405500Y-75560500D01*
X31405500Y-83787772D01*
X31385538Y-83862272D01*
X31370058Y-83884237D01*
X31346361Y-83912130D01*
X31338177Y-83921006D01*
X31333539Y-83925644D01*
X31316969Y-83946588D01*
X31313721Y-83950549D01*
X31268808Y-84003415D01*
X31264871Y-84011125D01*
X31262659Y-84014442D01*
X31262573Y-84014561D01*
X31262501Y-84014688D01*
X31260405Y-84018081D01*
X31255034Y-84024870D01*
X31225661Y-84087719D01*
X31223401Y-84092341D01*
X31191873Y-84154084D01*
X31189815Y-84162495D01*
X31188423Y-84166237D01*
X31188368Y-84166369D01*
X31188330Y-84166500D01*
X31187068Y-84170292D01*
X31183404Y-84178133D01*
X31181643Y-84186601D01*
X31181641Y-84186606D01*
X31172552Y-84230307D01*
X31169310Y-84245895D01*
X31169286Y-84246008D01*
X31168145Y-84251052D01*
X31151662Y-84318412D01*
X31151000Y-84329083D01*
X31151000Y-84329830D01*
X31150654Y-84335585D01*
X31148953Y-84343764D01*
X31149187Y-84352417D01*
X31149187Y-84352418D01*
X31150945Y-84417381D01*
X31151000Y-84421411D01*
X31151000Y-84943005D01*
X31149305Y-84965414D01*
X31146506Y-84983813D01*
X31147207Y-84992433D01*
X31147207Y-84992437D01*
X31150510Y-85033040D01*
X31151000Y-85045119D01*
X31151000Y-85051668D01*
X31151502Y-85055973D01*
X31154087Y-85078147D01*
X31154600Y-85083323D01*
X31157849Y-85123264D01*
X31160221Y-85152432D01*
X31162888Y-85160666D01*
X31163671Y-85164583D01*
X31163694Y-85164726D01*
X31163728Y-85164849D01*
X31164650Y-85168747D01*
X31165652Y-85177342D01*
X31189311Y-85242522D01*
X31190981Y-85247385D01*
X31212358Y-85313372D01*
X31216848Y-85320771D01*
X31218514Y-85324411D01*
X31218562Y-85324529D01*
X31218632Y-85324655D01*
X31220420Y-85328225D01*
X31223375Y-85336366D01*
X31261401Y-85394364D01*
X31264158Y-85398736D01*
X31300122Y-85458003D01*
X31307200Y-85466017D01*
X31307723Y-85466540D01*
X31311552Y-85470858D01*
X31316133Y-85477845D01*
X31322420Y-85483800D01*
X31322421Y-85483802D01*
X31369590Y-85528485D01*
X31372479Y-85531296D01*
X31454601Y-85613418D01*
X31493165Y-85680213D01*
X31497719Y-85706309D01*
X31512636Y-85883952D01*
X31566719Y-86072560D01*
X31656405Y-86247070D01*
X31660927Y-86252775D01*
X31771441Y-86392210D01*
X31778279Y-86400838D01*
X31927699Y-86528004D01*
X31934062Y-86531560D01*
X32092610Y-86620170D01*
X32092616Y-86620173D01*
X32098974Y-86623726D01*
X32285579Y-86684358D01*
X32394482Y-86697344D01*
X32473176Y-86706728D01*
X32473179Y-86706728D01*
X32480407Y-86707590D01*
X32591904Y-86699011D01*
X32668775Y-86693096D01*
X32668777Y-86693096D01*
X32676037Y-86692537D01*
X32766997Y-86667140D01*
X32857994Y-86641733D01*
X32857995Y-86641733D01*
X32865017Y-86639772D01*
X32871523Y-86636485D01*
X32871527Y-86636484D01*
X33033645Y-86554592D01*
X33033646Y-86554592D01*
X33040150Y-86551306D01*
X33160867Y-86456992D01*
X33189021Y-86434996D01*
X33189022Y-86434995D01*
X33194764Y-86430509D01*
X33322970Y-86281980D01*
X33403738Y-86139804D01*
X33416288Y-86117712D01*
X33416289Y-86117710D01*
X33419886Y-86111378D01*
X33481819Y-85925201D01*
X33506410Y-85730540D01*
X33506802Y-85702469D01*
X33487655Y-85507197D01*
X33440469Y-85350908D01*
X33438047Y-85273820D01*
X33453556Y-85234246D01*
X33516603Y-85123264D01*
X33516606Y-85123258D01*
X33520205Y-85116922D01*
X33582138Y-84930745D01*
X33606729Y-84736084D01*
X33607121Y-84708013D01*
X33587974Y-84512741D01*
X33531264Y-84324907D01*
X33524386Y-84311972D01*
X33442572Y-84158101D01*
X33442570Y-84158098D01*
X33439150Y-84151666D01*
X33434547Y-84146023D01*
X33434545Y-84146019D01*
X33340033Y-84030136D01*
X33309638Y-83962503D01*
X37442001Y-83962503D01*
X37442400Y-83970204D01*
X37452127Y-84063953D01*
X37455547Y-84079793D01*
X37506168Y-84231524D01*
X37513461Y-84247093D01*
X37597359Y-84382669D01*
X37608048Y-84396156D01*
X37720883Y-84508795D01*
X37734377Y-84519452D01*
X37870105Y-84603115D01*
X37885693Y-84610384D01*
X38037518Y-84660743D01*
X38053333Y-84664133D01*
X38145849Y-84673612D01*
X38153444Y-84674000D01*
X38551384Y-84674000D01*
X38566855Y-84669855D01*
X38571000Y-84654384D01*
X38571000Y-84654383D01*
X39079000Y-84654383D01*
X39083145Y-84669854D01*
X39098616Y-84673999D01*
X39496503Y-84673999D01*
X39504204Y-84673600D01*
X39597953Y-84663873D01*
X39613793Y-84660453D01*
X39765524Y-84609832D01*
X39781093Y-84602539D01*
X39916669Y-84518641D01*
X39930156Y-84507952D01*
X40042795Y-84395117D01*
X40053452Y-84381623D01*
X40137115Y-84245895D01*
X40144384Y-84230307D01*
X40194743Y-84078482D01*
X40198133Y-84062667D01*
X40207612Y-83970151D01*
X40208000Y-83962556D01*
X40208000Y-83839616D01*
X40203855Y-83824145D01*
X40188384Y-83820000D01*
X39098616Y-83820000D01*
X39083145Y-83824145D01*
X39079000Y-83839616D01*
X39079000Y-84654383D01*
X38571000Y-84654383D01*
X38571000Y-83839616D01*
X38566855Y-83824145D01*
X38551384Y-83820000D01*
X37461617Y-83820000D01*
X37446146Y-83824145D01*
X37442001Y-83839616D01*
X37442001Y-83962503D01*
X33309638Y-83962503D01*
X33308417Y-83959786D01*
X33306500Y-83935964D01*
X33306500Y-81660594D01*
X37348074Y-81660594D01*
X37385438Y-81878043D01*
X37387799Y-81884442D01*
X37387800Y-81884447D01*
X37394172Y-81901719D01*
X37461804Y-82085043D01*
X37574614Y-82274659D01*
X37696096Y-82413183D01*
X37713711Y-82433269D01*
X37747824Y-82502443D01*
X37742780Y-82579406D01*
X37707137Y-82636779D01*
X37607202Y-82736888D01*
X37596548Y-82750377D01*
X37512885Y-82886105D01*
X37505616Y-82901693D01*
X37455257Y-83053518D01*
X37451867Y-83069333D01*
X37442388Y-83161849D01*
X37442000Y-83169445D01*
X37442000Y-83292384D01*
X37446145Y-83307855D01*
X37461616Y-83312000D01*
X40188383Y-83312000D01*
X40203854Y-83307855D01*
X40207999Y-83292384D01*
X40207999Y-83169497D01*
X40207600Y-83161796D01*
X40197873Y-83068047D01*
X40194453Y-83052207D01*
X40143832Y-82900476D01*
X40136539Y-82884907D01*
X40052641Y-82749331D01*
X40041952Y-82735844D01*
X39941436Y-82635503D01*
X39902814Y-82568742D01*
X39902747Y-82491614D01*
X39937289Y-82428912D01*
X40051860Y-82304970D01*
X40051862Y-82304968D01*
X40056501Y-82299949D01*
X40066210Y-82284562D01*
X40170591Y-82119127D01*
X40174236Y-82113350D01*
X40255994Y-81908421D01*
X40299038Y-81692024D01*
X40300501Y-81580264D01*
X40301837Y-81478240D01*
X40301837Y-81478235D01*
X40301926Y-81471406D01*
X40264562Y-81253957D01*
X40262201Y-81247558D01*
X40262200Y-81247553D01*
X40220487Y-81134487D01*
X40188196Y-81046957D01*
X40075386Y-80857341D01*
X39929910Y-80691457D01*
X39924547Y-80687229D01*
X39762005Y-80559092D01*
X39762002Y-80559090D01*
X39756640Y-80554863D01*
X39649506Y-80498496D01*
X39567425Y-80455311D01*
X39567421Y-80455309D01*
X39561380Y-80452131D01*
X39463136Y-80421625D01*
X39357187Y-80388727D01*
X39357182Y-80388726D01*
X39350667Y-80386703D01*
X39343890Y-80385901D01*
X39343886Y-80385900D01*
X39175877Y-80366015D01*
X39175873Y-80366015D01*
X39171524Y-80365500D01*
X38494030Y-80365500D01*
X38330289Y-80380546D01*
X38117936Y-80440435D01*
X38111807Y-80443457D01*
X38111803Y-80443459D01*
X38087770Y-80455311D01*
X37920053Y-80538020D01*
X37914582Y-80542105D01*
X37914581Y-80542106D01*
X37891834Y-80559092D01*
X37743267Y-80670033D01*
X37738629Y-80675050D01*
X37738626Y-80675053D01*
X37598140Y-80827030D01*
X37593499Y-80832051D01*
X37589854Y-80837829D01*
X37589851Y-80837832D01*
X37479409Y-81012873D01*
X37475764Y-81018650D01*
X37394006Y-81223579D01*
X37386625Y-81260685D01*
X37377200Y-81308071D01*
X37350962Y-81439976D01*
X37348074Y-81660594D01*
X33306500Y-81660594D01*
X33306500Y-79485384D01*
X33655000Y-79485384D01*
X33659145Y-79500855D01*
X33674616Y-79505000D01*
X33684175Y-79505000D01*
X33691872Y-79504602D01*
X33783878Y-79495055D01*
X33799726Y-79491632D01*
X33948676Y-79441939D01*
X33964258Y-79434640D01*
X34097357Y-79352276D01*
X34110833Y-79341596D01*
X34221420Y-79230816D01*
X34232077Y-79217322D01*
X34314207Y-79084081D01*
X34321478Y-79068488D01*
X34370920Y-78919424D01*
X34374309Y-78903617D01*
X34383612Y-78812818D01*
X34384000Y-78805226D01*
X34384000Y-78805175D01*
X34831000Y-78805175D01*
X34831398Y-78812872D01*
X34840945Y-78904878D01*
X34844368Y-78920726D01*
X34894061Y-79069676D01*
X34901360Y-79085258D01*
X34983724Y-79218357D01*
X34994404Y-79231833D01*
X35105184Y-79342420D01*
X35118678Y-79353077D01*
X35251919Y-79435207D01*
X35267512Y-79442478D01*
X35416576Y-79491920D01*
X35432383Y-79495309D01*
X35523182Y-79504612D01*
X35530774Y-79505000D01*
X35540384Y-79505000D01*
X35555855Y-79500855D01*
X35560000Y-79485384D01*
X36068000Y-79485384D01*
X36072145Y-79500855D01*
X36087616Y-79505000D01*
X36097175Y-79505000D01*
X36104872Y-79504602D01*
X36196878Y-79495055D01*
X36212726Y-79491632D01*
X36361676Y-79441939D01*
X36377258Y-79434640D01*
X36510357Y-79352276D01*
X36523833Y-79341596D01*
X36634420Y-79230816D01*
X36645077Y-79217322D01*
X36727207Y-79084081D01*
X36734478Y-79068488D01*
X36783920Y-78919424D01*
X36787309Y-78903617D01*
X36796612Y-78812818D01*
X36797000Y-78805226D01*
X36797000Y-78733116D01*
X36792855Y-78717645D01*
X36777384Y-78713500D01*
X36087616Y-78713500D01*
X36072145Y-78717645D01*
X36068000Y-78733116D01*
X36068000Y-79485384D01*
X35560000Y-79485384D01*
X35560000Y-78733116D01*
X35555855Y-78717645D01*
X35540384Y-78713500D01*
X34850616Y-78713500D01*
X34835145Y-78717645D01*
X34831000Y-78733116D01*
X34831000Y-78805175D01*
X34384000Y-78805175D01*
X34384000Y-78733116D01*
X34379855Y-78717645D01*
X34364384Y-78713500D01*
X33674616Y-78713500D01*
X33659145Y-78717645D01*
X33655000Y-78733116D01*
X33655000Y-79485384D01*
X33306500Y-79485384D01*
X33306500Y-78354500D01*
X33326462Y-78280000D01*
X33381000Y-78225462D01*
X33455500Y-78205500D01*
X34364384Y-78205500D01*
X34379855Y-78201355D01*
X34384000Y-78185884D01*
X34384000Y-78113826D01*
X34383602Y-78106128D01*
X34374055Y-78014122D01*
X34370632Y-77998274D01*
X34320939Y-77849324D01*
X34313640Y-77833742D01*
X34263651Y-77752961D01*
X34241423Y-77679106D01*
X34259102Y-77604031D01*
X34274228Y-77581199D01*
X34348638Y-77488652D01*
X34352226Y-77481425D01*
X34352228Y-77481421D01*
X34426005Y-77332796D01*
X34429594Y-77325566D01*
X34436515Y-77297808D01*
X34462926Y-77191880D01*
X34500318Y-77124422D01*
X34566430Y-77084698D01*
X34643546Y-77083352D01*
X34711004Y-77120744D01*
X34752074Y-77191880D01*
X34778485Y-77297808D01*
X34785406Y-77325566D01*
X34788995Y-77332796D01*
X34862772Y-77481421D01*
X34862774Y-77481425D01*
X34866362Y-77488652D01*
X34871419Y-77494942D01*
X34871420Y-77494943D01*
X34940746Y-77581167D01*
X34971871Y-77651736D01*
X34963541Y-77728413D01*
X34951464Y-77752715D01*
X34900793Y-77834919D01*
X34893522Y-77850512D01*
X34844080Y-77999576D01*
X34840691Y-78015383D01*
X34831388Y-78106182D01*
X34831000Y-78113774D01*
X34831000Y-78185884D01*
X34835145Y-78201355D01*
X34850616Y-78205500D01*
X36777384Y-78205500D01*
X36792855Y-78201355D01*
X36797000Y-78185884D01*
X36797000Y-78113826D01*
X36796602Y-78106128D01*
X36787055Y-78014122D01*
X36783632Y-77998274D01*
X36733939Y-77849324D01*
X36726640Y-77833742D01*
X36676651Y-77752961D01*
X36654423Y-77679106D01*
X36672102Y-77604031D01*
X36687228Y-77581199D01*
X36761638Y-77488652D01*
X36765226Y-77481425D01*
X36765228Y-77481421D01*
X36839005Y-77332796D01*
X36842594Y-77325566D01*
X36886642Y-77148900D01*
X36888527Y-77121257D01*
X36889327Y-77109515D01*
X36889327Y-77109514D01*
X36889500Y-77106977D01*
X36889499Y-76362024D01*
X36886642Y-76320100D01*
X36842594Y-76143434D01*
X36761638Y-75980348D01*
X36756584Y-75974062D01*
X36752232Y-75967257D01*
X36754659Y-75965705D01*
X36729357Y-75908351D01*
X36735218Y-75838514D01*
X36794358Y-75660732D01*
X36818949Y-75466071D01*
X36819341Y-75438000D01*
X36800194Y-75242728D01*
X36791679Y-75214523D01*
X36745591Y-75061873D01*
X36743484Y-75054894D01*
X36736604Y-75041954D01*
X36654792Y-74888088D01*
X36654790Y-74888085D01*
X36651370Y-74881653D01*
X36646767Y-74876010D01*
X36646765Y-74876006D01*
X36547744Y-74754594D01*
X37348074Y-74754594D01*
X37385438Y-74972043D01*
X37387799Y-74978442D01*
X37387800Y-74978447D01*
X37424712Y-75078500D01*
X37461804Y-75179043D01*
X37574614Y-75368659D01*
X37616764Y-75416722D01*
X37653552Y-75458671D01*
X37687665Y-75527845D01*
X37682620Y-75604808D01*
X37634892Y-75673034D01*
X37595060Y-75705060D01*
X37590001Y-75711352D01*
X37501561Y-75821349D01*
X37479269Y-75849074D01*
X37475683Y-75856298D01*
X37475681Y-75856301D01*
X37444309Y-75919500D01*
X37397105Y-76014592D01*
X37352400Y-76193893D01*
X37349500Y-76236434D01*
X37349500Y-77083566D01*
X37352400Y-77126107D01*
X37397105Y-77305408D01*
X37479269Y-77470926D01*
X37484325Y-77477214D01*
X37484326Y-77477216D01*
X37544428Y-77551967D01*
X37595060Y-77614940D01*
X37601352Y-77619999D01*
X37678575Y-77682088D01*
X37739074Y-77730731D01*
X37746298Y-77734317D01*
X37746301Y-77734319D01*
X37822405Y-77772097D01*
X37904592Y-77812895D01*
X38083893Y-77857600D01*
X38090448Y-77858047D01*
X38090449Y-77858047D01*
X38123896Y-77860327D01*
X38126434Y-77860500D01*
X39523566Y-77860500D01*
X39526104Y-77860327D01*
X39559551Y-77858047D01*
X39559552Y-77858047D01*
X39566107Y-77857600D01*
X39745408Y-77812895D01*
X39827595Y-77772097D01*
X39903699Y-77734319D01*
X39903702Y-77734317D01*
X39910926Y-77730731D01*
X39971426Y-77682088D01*
X40048648Y-77619999D01*
X40054940Y-77614940D01*
X40105572Y-77551967D01*
X40165674Y-77477216D01*
X40165675Y-77477214D01*
X40170731Y-77470926D01*
X40252895Y-77305408D01*
X40297600Y-77126107D01*
X40300500Y-77083566D01*
X40300500Y-76236434D01*
X40297600Y-76193893D01*
X40252895Y-76014592D01*
X40205691Y-75919500D01*
X40174319Y-75856301D01*
X40174317Y-75856298D01*
X40170731Y-75849074D01*
X40148440Y-75821349D01*
X40059999Y-75711352D01*
X40054940Y-75705060D01*
X40015277Y-75673170D01*
X39969725Y-75610931D01*
X39961395Y-75534254D01*
X39992520Y-75463685D01*
X39999227Y-75455908D01*
X40051860Y-75398970D01*
X40051862Y-75398968D01*
X40056501Y-75393949D01*
X40075986Y-75363068D01*
X40170591Y-75213127D01*
X40174236Y-75207350D01*
X40255994Y-75002421D01*
X40281061Y-74876401D01*
X40297705Y-74792727D01*
X40297705Y-74792724D01*
X40299038Y-74786024D01*
X40301459Y-74601068D01*
X40301837Y-74572240D01*
X40301837Y-74572235D01*
X40301926Y-74565406D01*
X40264562Y-74347957D01*
X40262201Y-74341558D01*
X40262200Y-74341553D01*
X40190560Y-74147366D01*
X40188196Y-74140957D01*
X40075386Y-73951341D01*
X39929910Y-73785457D01*
X39919994Y-73777640D01*
X39873846Y-73715841D01*
X39864780Y-73639248D01*
X39895225Y-73568383D01*
X39906798Y-73556027D01*
X39906733Y-73555967D01*
X40051860Y-73398970D01*
X40051862Y-73398968D01*
X40056501Y-73393949D01*
X40064261Y-73381651D01*
X40170591Y-73213127D01*
X40174236Y-73207350D01*
X40255994Y-73002421D01*
X40299038Y-72786024D01*
X40301604Y-72590006D01*
X40301837Y-72572240D01*
X40301837Y-72572235D01*
X40301926Y-72565406D01*
X40293609Y-72517000D01*
X40265718Y-72354685D01*
X40264562Y-72347957D01*
X40262201Y-72341558D01*
X40262200Y-72341553D01*
X40218552Y-72223240D01*
X40188196Y-72140957D01*
X40075386Y-71951341D01*
X39929910Y-71785457D01*
X39919994Y-71777640D01*
X39873846Y-71715841D01*
X39864780Y-71639248D01*
X39895225Y-71568383D01*
X39906798Y-71556027D01*
X39906733Y-71555967D01*
X40051860Y-71398970D01*
X40051862Y-71398968D01*
X40056501Y-71393949D01*
X40174236Y-71207350D01*
X40255994Y-71002421D01*
X40287973Y-70841651D01*
X40297705Y-70792727D01*
X40297705Y-70792724D01*
X40299038Y-70786024D01*
X40301926Y-70565406D01*
X40264562Y-70347957D01*
X40262201Y-70341558D01*
X40262200Y-70341553D01*
X40215864Y-70215954D01*
X40188196Y-70140957D01*
X40075386Y-69951341D01*
X39929910Y-69785457D01*
X39911276Y-69770767D01*
X39762005Y-69653092D01*
X39762002Y-69653090D01*
X39756640Y-69648863D01*
X39649506Y-69592496D01*
X39567425Y-69549311D01*
X39567421Y-69549309D01*
X39561380Y-69546131D01*
X39463136Y-69515625D01*
X39357187Y-69482727D01*
X39357182Y-69482726D01*
X39350667Y-69480703D01*
X39343890Y-69479901D01*
X39343886Y-69479900D01*
X39175877Y-69460015D01*
X39175873Y-69460015D01*
X39171524Y-69459500D01*
X38494030Y-69459500D01*
X38330289Y-69474546D01*
X38117936Y-69534435D01*
X38111807Y-69537457D01*
X38111803Y-69537459D01*
X37926181Y-69628998D01*
X37920053Y-69632020D01*
X37914582Y-69636105D01*
X37914581Y-69636106D01*
X37895482Y-69650368D01*
X37743267Y-69764033D01*
X37738629Y-69769050D01*
X37738626Y-69769053D01*
X37618231Y-69899296D01*
X37593499Y-69926051D01*
X37475764Y-70112650D01*
X37394006Y-70317579D01*
X37386625Y-70354685D01*
X37378402Y-70396028D01*
X37350962Y-70533976D01*
X37348074Y-70754594D01*
X37385438Y-70972043D01*
X37387799Y-70978442D01*
X37387800Y-70978447D01*
X37405802Y-71027243D01*
X37461804Y-71179043D01*
X37574614Y-71368659D01*
X37720090Y-71534543D01*
X37725452Y-71538770D01*
X37730006Y-71542360D01*
X37776154Y-71604159D01*
X37785220Y-71680752D01*
X37754775Y-71751617D01*
X37743202Y-71763973D01*
X37743267Y-71764033D01*
X37696851Y-71814246D01*
X37593499Y-71926051D01*
X37589854Y-71931829D01*
X37589851Y-71931832D01*
X37510059Y-72058296D01*
X37475764Y-72112650D01*
X37394006Y-72317579D01*
X37386625Y-72354685D01*
X37354339Y-72517000D01*
X37350962Y-72533976D01*
X37349499Y-72645736D01*
X37348269Y-72739732D01*
X37348074Y-72754594D01*
X37349231Y-72761327D01*
X37349231Y-72761328D01*
X37349729Y-72764224D01*
X37385438Y-72972043D01*
X37387799Y-72978442D01*
X37387800Y-72978447D01*
X37420582Y-73067306D01*
X37461804Y-73179043D01*
X37574614Y-73368659D01*
X37720090Y-73534543D01*
X37725452Y-73538770D01*
X37730006Y-73542360D01*
X37776154Y-73604159D01*
X37785220Y-73680752D01*
X37754775Y-73751617D01*
X37743202Y-73763973D01*
X37743267Y-73764033D01*
X37593499Y-73926051D01*
X37589854Y-73931829D01*
X37589851Y-73931832D01*
X37479409Y-74106873D01*
X37475764Y-74112650D01*
X37394006Y-74317579D01*
X37350962Y-74533976D01*
X37349978Y-74609181D01*
X37348458Y-74725296D01*
X37348074Y-74754594D01*
X36547744Y-74754594D01*
X36531964Y-74735246D01*
X36527361Y-74729602D01*
X36376180Y-74604535D01*
X36203585Y-74511213D01*
X36073202Y-74470853D01*
X36023111Y-74455347D01*
X36023109Y-74455347D01*
X36016152Y-74453193D01*
X36008910Y-74452432D01*
X36008906Y-74452431D01*
X35828260Y-74433444D01*
X35828259Y-74433444D01*
X35821019Y-74432683D01*
X35625618Y-74450466D01*
X35437393Y-74505864D01*
X35263512Y-74596767D01*
X35110600Y-74719711D01*
X34984480Y-74870016D01*
X34889956Y-75041954D01*
X34830628Y-75228978D01*
X34829815Y-75236222D01*
X34829815Y-75236224D01*
X34811560Y-75398970D01*
X34808757Y-75423963D01*
X34825175Y-75619483D01*
X34827185Y-75626492D01*
X34827185Y-75626493D01*
X34840531Y-75673034D01*
X34879258Y-75808091D01*
X34882588Y-75814571D01*
X34882591Y-75814578D01*
X34884007Y-75817333D01*
X34884398Y-75819141D01*
X34885272Y-75821349D01*
X34884907Y-75821494D01*
X34900305Y-75892719D01*
X34876726Y-75966155D01*
X34874492Y-75969253D01*
X34871419Y-75974059D01*
X34866362Y-75980348D01*
X34785406Y-76143434D01*
X34783454Y-76151264D01*
X34783453Y-76151267D01*
X34752074Y-76277120D01*
X34714682Y-76344578D01*
X34648570Y-76384302D01*
X34571454Y-76385648D01*
X34503996Y-76348256D01*
X34462926Y-76277120D01*
X34431547Y-76151267D01*
X34431546Y-76151264D01*
X34429594Y-76143434D01*
X34348638Y-75980348D01*
X34343584Y-75974062D01*
X34339232Y-75967257D01*
X34341659Y-75965705D01*
X34316357Y-75908351D01*
X34322218Y-75838514D01*
X34381358Y-75660732D01*
X34405949Y-75466071D01*
X34406341Y-75438000D01*
X34387194Y-75242728D01*
X34378679Y-75214523D01*
X34332591Y-75061873D01*
X34330484Y-75054894D01*
X34323604Y-75041954D01*
X34241792Y-74888088D01*
X34241790Y-74888085D01*
X34238370Y-74881653D01*
X34233767Y-74876010D01*
X34233765Y-74876006D01*
X34118964Y-74735246D01*
X34114361Y-74729602D01*
X33963180Y-74604535D01*
X33790585Y-74511213D01*
X33660202Y-74470853D01*
X33610111Y-74455347D01*
X33610109Y-74455347D01*
X33603152Y-74453193D01*
X33595910Y-74452432D01*
X33595906Y-74452431D01*
X33521884Y-74444651D01*
X33439923Y-74436036D01*
X33367920Y-74408396D01*
X33319382Y-74348457D01*
X33306500Y-74287853D01*
X33306500Y-72502963D01*
X33665757Y-72502963D01*
X33682175Y-72698483D01*
X33736258Y-72887091D01*
X33825944Y-73061601D01*
X33947818Y-73215369D01*
X34097238Y-73342535D01*
X34123587Y-73357261D01*
X34262149Y-73434701D01*
X34262155Y-73434704D01*
X34268513Y-73438257D01*
X34455118Y-73498889D01*
X34528397Y-73507627D01*
X34642715Y-73521259D01*
X34642718Y-73521259D01*
X34649946Y-73522121D01*
X34761443Y-73513542D01*
X34838314Y-73507627D01*
X34838316Y-73507627D01*
X34845576Y-73507068D01*
X35034556Y-73454303D01*
X35041062Y-73451016D01*
X35041066Y-73451015D01*
X35203184Y-73369123D01*
X35203185Y-73369123D01*
X35209689Y-73365837D01*
X35364303Y-73245040D01*
X35492509Y-73096511D01*
X35578458Y-72945214D01*
X35585827Y-72932243D01*
X35585828Y-72932241D01*
X35589425Y-72925909D01*
X35651358Y-72739732D01*
X35675949Y-72545071D01*
X35676341Y-72517000D01*
X35657194Y-72321728D01*
X35600484Y-72133894D01*
X35590209Y-72114570D01*
X35511792Y-71967088D01*
X35511790Y-71967085D01*
X35508370Y-71960653D01*
X35503767Y-71955010D01*
X35503765Y-71955006D01*
X35388964Y-71814246D01*
X35384361Y-71808602D01*
X35233180Y-71683535D01*
X35060585Y-71590213D01*
X34917804Y-71546015D01*
X34880111Y-71534347D01*
X34880109Y-71534347D01*
X34873152Y-71532193D01*
X34865910Y-71531432D01*
X34865906Y-71531431D01*
X34685260Y-71512444D01*
X34685259Y-71512444D01*
X34678019Y-71511683D01*
X34482618Y-71529466D01*
X34294393Y-71584864D01*
X34120512Y-71675767D01*
X34114838Y-71680329D01*
X33984003Y-71785523D01*
X33967600Y-71798711D01*
X33841480Y-71949016D01*
X33746956Y-72120954D01*
X33687628Y-72307978D01*
X33686815Y-72315222D01*
X33686815Y-72315224D01*
X33680115Y-72374954D01*
X33665757Y-72502963D01*
X33306500Y-72502963D01*
X33306500Y-63521230D01*
X33326462Y-63446730D01*
X33381000Y-63392192D01*
X33455500Y-63372230D01*
X33530000Y-63392192D01*
X33560859Y-63415871D01*
X35535393Y-65390405D01*
X35573957Y-65457200D01*
X35578509Y-65483282D01*
X35587175Y-65586483D01*
X35641258Y-65775091D01*
X35730944Y-65949601D01*
X35852818Y-66103369D01*
X36002238Y-66230535D01*
X36008601Y-66234091D01*
X36167149Y-66322701D01*
X36167155Y-66322704D01*
X36173513Y-66326257D01*
X36360118Y-66386889D01*
X36433397Y-66395627D01*
X36547715Y-66409259D01*
X36547718Y-66409259D01*
X36554946Y-66410121D01*
X36666443Y-66401542D01*
X36743314Y-66395627D01*
X36743316Y-66395627D01*
X36750576Y-66395068D01*
X36939556Y-66342303D01*
X36946062Y-66339016D01*
X36946066Y-66339015D01*
X37108184Y-66257123D01*
X37108185Y-66257123D01*
X37114689Y-66253837D01*
X37248766Y-66149085D01*
X37263560Y-66137527D01*
X37263561Y-66137526D01*
X37269303Y-66133040D01*
X37397509Y-65984511D01*
X37407183Y-65967483D01*
X37492902Y-65816590D01*
X37547058Y-65761672D01*
X37621417Y-65741191D01*
X37696054Y-65760632D01*
X37727816Y-65784828D01*
X37912297Y-65969309D01*
X37950861Y-66036104D01*
X37950519Y-66114485D01*
X37945309Y-66133272D01*
X37919963Y-66370440D01*
X37933694Y-66608562D01*
X37986131Y-66841245D01*
X38075867Y-67062239D01*
X38079061Y-67067451D01*
X38144689Y-67174545D01*
X38200493Y-67265609D01*
X38204496Y-67270230D01*
X38204498Y-67270233D01*
X38327960Y-67412762D01*
X38356660Y-67445894D01*
X38540176Y-67598252D01*
X38746112Y-67718591D01*
X38968937Y-67803680D01*
X39202666Y-67851233D01*
X39208775Y-67851457D01*
X39434908Y-67859749D01*
X39434912Y-67859749D01*
X39441025Y-67859973D01*
X39507501Y-67851457D01*
X39671538Y-67830443D01*
X39671541Y-67830442D01*
X39677609Y-67829665D01*
X39906068Y-67761125D01*
X40120264Y-67656191D01*
X40269395Y-67549817D01*
X40309467Y-67521234D01*
X40309469Y-67521233D01*
X40314445Y-67517683D01*
X40316089Y-67516045D01*
X40384788Y-67483715D01*
X40461646Y-67490168D01*
X40524980Y-67534184D01*
X40537815Y-67552445D01*
X40540464Y-67558841D01*
X40636718Y-67684282D01*
X40762159Y-67780536D01*
X40771182Y-67784274D01*
X40771183Y-67784274D01*
X40880767Y-67829665D01*
X40908238Y-67841044D01*
X40917919Y-67842319D01*
X40917921Y-67842319D01*
X41020797Y-67855863D01*
X41020804Y-67855863D01*
X41025639Y-67856500D01*
X41914908Y-67856500D01*
X42804360Y-67856499D01*
X42921762Y-67841044D01*
X42947355Y-67830443D01*
X43058817Y-67784274D01*
X43058818Y-67784274D01*
X43067841Y-67780536D01*
X43193282Y-67684282D01*
X43289536Y-67558841D01*
X43350044Y-67412762D01*
X43351319Y-67403079D01*
X43364863Y-67300203D01*
X43364863Y-67300196D01*
X43365500Y-67295361D01*
X43365499Y-65516640D01*
X43350044Y-65399238D01*
X43346305Y-65390211D01*
X43293274Y-65262183D01*
X43293274Y-65262182D01*
X43289536Y-65253159D01*
X43193282Y-65127718D01*
X43067841Y-65031464D01*
X42992815Y-65000387D01*
X42931626Y-64953434D01*
X42902111Y-64882176D01*
X42912178Y-64805708D01*
X42944661Y-64757187D01*
X42948381Y-64753480D01*
X42956281Y-64744198D01*
X43079451Y-64572789D01*
X43085734Y-64562332D01*
X43179254Y-64373109D01*
X43183742Y-64361775D01*
X43245100Y-64159822D01*
X43247680Y-64147890D01*
X43248791Y-64139447D01*
X43246700Y-64123569D01*
X43238083Y-64120000D01*
X41810000Y-64120000D01*
X41735500Y-64100038D01*
X41680962Y-64045500D01*
X41661000Y-63971000D01*
X41661000Y-63761000D01*
X41680962Y-63686500D01*
X41735500Y-63631962D01*
X41810000Y-63612000D01*
X43231843Y-63612000D01*
X43247314Y-63607855D01*
X43248916Y-63601875D01*
X43206445Y-63432793D01*
X43202516Y-63421254D01*
X43118350Y-63227685D01*
X43112590Y-63216942D01*
X42997937Y-63039716D01*
X42990504Y-63030063D01*
X42848440Y-62873937D01*
X42839534Y-62865632D01*
X42717627Y-62769356D01*
X42671533Y-62707517D01*
X42662535Y-62630915D01*
X42693042Y-62560077D01*
X42723450Y-62531121D01*
X42849460Y-62441240D01*
X42849469Y-62441232D01*
X42854445Y-62437683D01*
X43023397Y-62269320D01*
X43026962Y-62264358D01*
X43026966Y-62264354D01*
X43159014Y-62080589D01*
X43159016Y-62080585D01*
X43162582Y-62075623D01*
X43244195Y-61910493D01*
X43265552Y-61867281D01*
X43265553Y-61867277D01*
X43268263Y-61861795D01*
X43337600Y-61633577D01*
X43342038Y-61599873D01*
X43360465Y-61459902D01*
X43368733Y-61397099D01*
X43370471Y-61326000D01*
X43350927Y-61088284D01*
X43332169Y-61013602D01*
X43294310Y-60862880D01*
X43292821Y-60856952D01*
X43290387Y-60851355D01*
X43290385Y-60851348D01*
X43200151Y-60643826D01*
X43197712Y-60638216D01*
X43068155Y-60437951D01*
X42907629Y-60261536D01*
X42720445Y-60113707D01*
X42715092Y-60110752D01*
X42715089Y-60110750D01*
X42616038Y-60056071D01*
X42511631Y-59998436D01*
X42286794Y-59918817D01*
X42203018Y-59903894D01*
X42170235Y-59898054D01*
X42100391Y-59865336D01*
X42056263Y-59802079D01*
X42049675Y-59725232D01*
X42082393Y-59655388D01*
X42091007Y-59646004D01*
X42271416Y-59465595D01*
X42338211Y-59427031D01*
X42365344Y-59422393D01*
X42453317Y-59415624D01*
X42453319Y-59415624D01*
X42460579Y-59415065D01*
X42649559Y-59362300D01*
X42656065Y-59359013D01*
X42656069Y-59359012D01*
X42818187Y-59277120D01*
X42818188Y-59277120D01*
X42824692Y-59273834D01*
X42878705Y-59231635D01*
X42894135Y-59219580D01*
X42965132Y-59189444D01*
X43041685Y-59198844D01*
X43091227Y-59231635D01*
X45019843Y-61160251D01*
X45058407Y-61227046D01*
X45058407Y-61304174D01*
X45052414Y-61321483D01*
X45049956Y-61325954D01*
X44990628Y-61512978D01*
X44989815Y-61520222D01*
X44989815Y-61520224D01*
X44969569Y-61700722D01*
X44968757Y-61707963D01*
X44985175Y-61903483D01*
X44987185Y-61910492D01*
X44987185Y-61910493D01*
X45012824Y-61999907D01*
X45039258Y-62092091D01*
X45128944Y-62266601D01*
X45250818Y-62420369D01*
X45400238Y-62547535D01*
X45422679Y-62560077D01*
X45565149Y-62639701D01*
X45565155Y-62639704D01*
X45571513Y-62643257D01*
X45758118Y-62703889D01*
X45831397Y-62712627D01*
X45945715Y-62726259D01*
X45945718Y-62726259D01*
X45952946Y-62727121D01*
X46064443Y-62718542D01*
X46141314Y-62712627D01*
X46141316Y-62712627D01*
X46148576Y-62712068D01*
X46283002Y-62674535D01*
X46330533Y-62661264D01*
X46330534Y-62661264D01*
X46337556Y-62659303D01*
X46344062Y-62656016D01*
X46344066Y-62656015D01*
X46474121Y-62590319D01*
X46479920Y-62587390D01*
X46555417Y-62571617D01*
X46619791Y-62590319D01*
X46708149Y-62639701D01*
X46708155Y-62639704D01*
X46714513Y-62643257D01*
X46901118Y-62703889D01*
X46974397Y-62712627D01*
X47088715Y-62726259D01*
X47088718Y-62726259D01*
X47095946Y-62727121D01*
X47207443Y-62718542D01*
X47284314Y-62712627D01*
X47284316Y-62712627D01*
X47291576Y-62712068D01*
X47426002Y-62674535D01*
X47473533Y-62661264D01*
X47473534Y-62661264D01*
X47480556Y-62659303D01*
X47487062Y-62656016D01*
X47487066Y-62656015D01*
X47649184Y-62574123D01*
X47649185Y-62574123D01*
X47655689Y-62570837D01*
X47810303Y-62450040D01*
X47938509Y-62301511D01*
X48015661Y-62165700D01*
X48031827Y-62137243D01*
X48031828Y-62137241D01*
X48035425Y-62130909D01*
X48097358Y-61944732D01*
X48121949Y-61750071D01*
X48122341Y-61722000D01*
X48103194Y-61526728D01*
X48046484Y-61338894D01*
X48038725Y-61324302D01*
X47957792Y-61172088D01*
X47957790Y-61172085D01*
X47954370Y-61165653D01*
X47949767Y-61160010D01*
X47949765Y-61160006D01*
X47834964Y-61019246D01*
X47830361Y-61013602D01*
X47679180Y-60888535D01*
X47506585Y-60795213D01*
X47390068Y-60759145D01*
X47326108Y-60739346D01*
X47326106Y-60739346D01*
X47319152Y-60737193D01*
X47318804Y-60737156D01*
X47252177Y-60703794D01*
X47245741Y-60697729D01*
X44318975Y-57770963D01*
X45730757Y-57770963D01*
X45747175Y-57966483D01*
X45801258Y-58155091D01*
X45890944Y-58329601D01*
X46012818Y-58483369D01*
X46162238Y-58610535D01*
X46168601Y-58614091D01*
X46327149Y-58702701D01*
X46327155Y-58702704D01*
X46333513Y-58706257D01*
X46520118Y-58766889D01*
X46593397Y-58775627D01*
X46707715Y-58789259D01*
X46707718Y-58789259D01*
X46714946Y-58790121D01*
X46826443Y-58781542D01*
X46903314Y-58775627D01*
X46903316Y-58775627D01*
X46910576Y-58775068D01*
X47099556Y-58722303D01*
X47106062Y-58719016D01*
X47106066Y-58719015D01*
X47268184Y-58637123D01*
X47268185Y-58637123D01*
X47274689Y-58633837D01*
X47429303Y-58513040D01*
X47557509Y-58364511D01*
X47632166Y-58233091D01*
X47650827Y-58200243D01*
X47650828Y-58200241D01*
X47654425Y-58193909D01*
X47716358Y-58007732D01*
X47719856Y-57980047D01*
X47740427Y-57817200D01*
X47740949Y-57813071D01*
X47741341Y-57785000D01*
X47722194Y-57589728D01*
X47690696Y-57485401D01*
X47688274Y-57408311D01*
X47724721Y-57340338D01*
X47766156Y-57309341D01*
X47903184Y-57240123D01*
X47903185Y-57240123D01*
X47909689Y-57236837D01*
X48064303Y-57116040D01*
X48192509Y-56967511D01*
X48289425Y-56796909D01*
X48351358Y-56610732D01*
X48375949Y-56416071D01*
X48376341Y-56388000D01*
X48357194Y-56192728D01*
X48300484Y-56004894D01*
X48208370Y-55831653D01*
X48203767Y-55826010D01*
X48203765Y-55826006D01*
X48088964Y-55685246D01*
X48084361Y-55679602D01*
X47933180Y-55554535D01*
X47760585Y-55461213D01*
X47611004Y-55414910D01*
X47580111Y-55405347D01*
X47580109Y-55405347D01*
X47573152Y-55403193D01*
X47565910Y-55402432D01*
X47565906Y-55402431D01*
X47385260Y-55383444D01*
X47385259Y-55383444D01*
X47378019Y-55382683D01*
X47182618Y-55400466D01*
X46994393Y-55455864D01*
X46820512Y-55546767D01*
X46814838Y-55551329D01*
X46691085Y-55650829D01*
X46667600Y-55669711D01*
X46541480Y-55820016D01*
X46446956Y-55991954D01*
X46387628Y-56178978D01*
X46386815Y-56186222D01*
X46386815Y-56186224D01*
X46385273Y-56199974D01*
X46365757Y-56373963D01*
X46382175Y-56569483D01*
X46416375Y-56688752D01*
X46417721Y-56765866D01*
X46380329Y-56833323D01*
X46342179Y-56861863D01*
X46185512Y-56943767D01*
X46032600Y-57066711D01*
X45906480Y-57217016D01*
X45811956Y-57388954D01*
X45752628Y-57575978D01*
X45751815Y-57583222D01*
X45751815Y-57583224D01*
X45735767Y-57726294D01*
X45730757Y-57770963D01*
X44318975Y-57770963D01*
X42875141Y-56327129D01*
X42836577Y-56260334D01*
X42831500Y-56221770D01*
X42831500Y-53729300D01*
X42833195Y-53706890D01*
X42834692Y-53697049D01*
X42835994Y-53688492D01*
X42831990Y-53639261D01*
X42831500Y-53627183D01*
X42831500Y-53620637D01*
X42828410Y-53594135D01*
X42827901Y-53588995D01*
X42826879Y-53576428D01*
X42822280Y-53519873D01*
X42819613Y-53511641D01*
X42818829Y-53507716D01*
X42818808Y-53507581D01*
X42818768Y-53507439D01*
X42817850Y-53503555D01*
X42816848Y-53494963D01*
X42793184Y-53429771D01*
X42791511Y-53424895D01*
X42772810Y-53367167D01*
X42772808Y-53367163D01*
X42770142Y-53358933D01*
X42765653Y-53351534D01*
X42763986Y-53347894D01*
X42763938Y-53347776D01*
X42763868Y-53347650D01*
X42762080Y-53344080D01*
X42759125Y-53335939D01*
X42721099Y-53277941D01*
X42718341Y-53273568D01*
X42685822Y-53219977D01*
X42685820Y-53219974D01*
X42682378Y-53214302D01*
X42675300Y-53206288D01*
X42674777Y-53205765D01*
X42670948Y-53201447D01*
X42666367Y-53194460D01*
X42612910Y-53143820D01*
X42610021Y-53141009D01*
X38850621Y-49381609D01*
X38812057Y-49314814D01*
X38812057Y-49237686D01*
X38850621Y-49170891D01*
X38864246Y-49158837D01*
X38914558Y-49119529D01*
X38914561Y-49119526D01*
X38920303Y-49115040D01*
X39048509Y-48966511D01*
X39114686Y-48850019D01*
X39141827Y-48802243D01*
X39141828Y-48802241D01*
X39145425Y-48795909D01*
X39207358Y-48609732D01*
X39231949Y-48415071D01*
X39232341Y-48387000D01*
X39213194Y-48191728D01*
X39156484Y-48003894D01*
X39146209Y-47984570D01*
X39067792Y-47837088D01*
X39067790Y-47837085D01*
X39064370Y-47830653D01*
X39059765Y-47825007D01*
X39056408Y-47819954D01*
X39031808Y-47746854D01*
X39047054Y-47671248D01*
X39098060Y-47613394D01*
X39171160Y-47588794D01*
X39180514Y-47588500D01*
X46497876Y-47588500D01*
X46572376Y-47608462D01*
X46594445Y-47624031D01*
X46670238Y-47688535D01*
X46676601Y-47692091D01*
X46835149Y-47780701D01*
X46835155Y-47780704D01*
X46841513Y-47784257D01*
X47028118Y-47844889D01*
X47101397Y-47853627D01*
X47215715Y-47867259D01*
X47215718Y-47867259D01*
X47222946Y-47868121D01*
X47334443Y-47859542D01*
X47411314Y-47853627D01*
X47411316Y-47853627D01*
X47418576Y-47853068D01*
X47607556Y-47800303D01*
X47614062Y-47797016D01*
X47614066Y-47797015D01*
X47776184Y-47715123D01*
X47776185Y-47715123D01*
X47782689Y-47711837D01*
X47937303Y-47591040D01*
X48065509Y-47442511D01*
X48150840Y-47292303D01*
X48158827Y-47278243D01*
X48158828Y-47278241D01*
X48162425Y-47271909D01*
X48224358Y-47085732D01*
X48228447Y-47053369D01*
X48244261Y-46928182D01*
X48248949Y-46891071D01*
X48249341Y-46863000D01*
X48230194Y-46667728D01*
X48173484Y-46479894D01*
X48124198Y-46387200D01*
X48084792Y-46313088D01*
X48084790Y-46313085D01*
X48081370Y-46306653D01*
X48076767Y-46301010D01*
X48076765Y-46301006D01*
X47961964Y-46160246D01*
X47957361Y-46154602D01*
X47806180Y-46029535D01*
X47633585Y-45936213D01*
X47503202Y-45895853D01*
X47453111Y-45880347D01*
X47453109Y-45880347D01*
X47446152Y-45878193D01*
X47438910Y-45877432D01*
X47438906Y-45877431D01*
X47258260Y-45858444D01*
X47258259Y-45858444D01*
X47251019Y-45857683D01*
X47055618Y-45875466D01*
X46867393Y-45930864D01*
X46693512Y-46021767D01*
X46590460Y-46104623D01*
X46519893Y-46135746D01*
X46497098Y-46137500D01*
X34528332Y-46137500D01*
X34453832Y-46117538D01*
X34433356Y-46103307D01*
X34349796Y-46034181D01*
X34344180Y-46029535D01*
X34171585Y-45936213D01*
X34041202Y-45895853D01*
X33991111Y-45880347D01*
X33991109Y-45880347D01*
X33984152Y-45878193D01*
X33870772Y-45866276D01*
X33833613Y-45862370D01*
X33761608Y-45834729D01*
X33719112Y-45782250D01*
X33705708Y-45815762D01*
X33645096Y-45863458D01*
X33607923Y-45872865D01*
X33608033Y-45873440D01*
X33600874Y-45874806D01*
X33593618Y-45875466D01*
X33405393Y-45930864D01*
X33231512Y-46021767D01*
X33225838Y-46026329D01*
X33087569Y-46137500D01*
X33078600Y-46144711D01*
X32952480Y-46295016D01*
X32857956Y-46466954D01*
X32798628Y-46653978D01*
X32797815Y-46661222D01*
X32797815Y-46661224D01*
X32796273Y-46674974D01*
X32776757Y-46848963D01*
X32793175Y-47044483D01*
X32847258Y-47233091D01*
X32936944Y-47407601D01*
X33058818Y-47561369D01*
X33208238Y-47688535D01*
X33214601Y-47692091D01*
X33373149Y-47780701D01*
X33373155Y-47780704D01*
X33379513Y-47784257D01*
X33566118Y-47844889D01*
X33639397Y-47853627D01*
X33753715Y-47867259D01*
X33753718Y-47867259D01*
X33760946Y-47868121D01*
X33872443Y-47859542D01*
X33949314Y-47853627D01*
X33949316Y-47853627D01*
X33956576Y-47853068D01*
X34145556Y-47800303D01*
X34152062Y-47797016D01*
X34152066Y-47797015D01*
X34314184Y-47715123D01*
X34314185Y-47715123D01*
X34320689Y-47711837D01*
X34383198Y-47663000D01*
X34438126Y-47620086D01*
X34509123Y-47589950D01*
X34529859Y-47588500D01*
X37273576Y-47588500D01*
X37348076Y-47608462D01*
X37402614Y-47663000D01*
X37422576Y-47737500D01*
X37402614Y-47812000D01*
X37400348Y-47815598D01*
X37397480Y-47819016D01*
X37302956Y-47990954D01*
X37243628Y-48177978D01*
X37242815Y-48185222D01*
X37242815Y-48185224D01*
X37241273Y-48198974D01*
X37221757Y-48372963D01*
X37238175Y-48568483D01*
X37260367Y-48645873D01*
X37261960Y-48651430D01*
X37263306Y-48728546D01*
X37225914Y-48796004D01*
X37159802Y-48835728D01*
X37118732Y-48841500D01*
X31672682Y-48841500D01*
X31650272Y-48839805D01*
X31631874Y-48837006D01*
X31623254Y-48837707D01*
X31623250Y-48837707D01*
X31582647Y-48841010D01*
X31570568Y-48841500D01*
X31564019Y-48841500D01*
X31559713Y-48842002D01*
X31559714Y-48842002D01*
X31537540Y-48844587D01*
X31532364Y-48845100D01*
X31471881Y-48850019D01*
X31471877Y-48850020D01*
X31463255Y-48850721D01*
X31455021Y-48853388D01*
X31451104Y-48854171D01*
X31450960Y-48854194D01*
X31450834Y-48854229D01*
X31446939Y-48855150D01*
X31438345Y-48856152D01*
X31430213Y-48859104D01*
X31430212Y-48859104D01*
X31373161Y-48879812D01*
X31368245Y-48881500D01*
X31302315Y-48902859D01*
X31294917Y-48907349D01*
X31291297Y-48909006D01*
X31291158Y-48909063D01*
X31291024Y-48909137D01*
X31287464Y-48910920D01*
X31279321Y-48913875D01*
X31221314Y-48951906D01*
X31216948Y-48954660D01*
X31163351Y-48987183D01*
X31163342Y-48987190D01*
X31157684Y-48990623D01*
X31149670Y-48997700D01*
X31149141Y-48998229D01*
X31144829Y-49002052D01*
X31137842Y-49006633D01*
X31131888Y-49012918D01*
X31131887Y-49012919D01*
X31087202Y-49060090D01*
X31084391Y-49062979D01*
X30521874Y-49625496D01*
X30504829Y-49640144D01*
X30496811Y-49646044D01*
X30496809Y-49646046D01*
X30489842Y-49651173D01*
X30484239Y-49657768D01*
X30484238Y-49657769D01*
X30457871Y-49688805D01*
X30449677Y-49697693D01*
X30445039Y-49702331D01*
X30428469Y-49723275D01*
X30425221Y-49727236D01*
X30380308Y-49780102D01*
X30376371Y-49787812D01*
X30374159Y-49791129D01*
X30374073Y-49791248D01*
X30374001Y-49791375D01*
X30371905Y-49794768D01*
X30366534Y-49801557D01*
X30337161Y-49864406D01*
X30334901Y-49869028D01*
X30303373Y-49930771D01*
X30301315Y-49939182D01*
X30299923Y-49942924D01*
X30299868Y-49943056D01*
X30299830Y-49943187D01*
X30298568Y-49946979D01*
X30294904Y-49954820D01*
X30293143Y-49963288D01*
X30293141Y-49963293D01*
X30280786Y-50022695D01*
X30279645Y-50027739D01*
X30263162Y-50095099D01*
X30262500Y-50105770D01*
X30262500Y-50106517D01*
X30262154Y-50112272D01*
X30260453Y-50120451D01*
X30260687Y-50129104D01*
X30260687Y-50129105D01*
X30262445Y-50194068D01*
X30262500Y-50198098D01*
X30262500Y-50482378D01*
X30242538Y-50556878D01*
X30182533Y-50614421D01*
X30142785Y-50635201D01*
X29989873Y-50758145D01*
X29863753Y-50908450D01*
X29769229Y-51080388D01*
X29709901Y-51267412D01*
X29709088Y-51274656D01*
X29709088Y-51274658D01*
X29688842Y-51455156D01*
X29688030Y-51462397D01*
X29691505Y-51503775D01*
X29677848Y-51579682D01*
X29648387Y-51621601D01*
X27219874Y-54050114D01*
X27202829Y-54064762D01*
X27194811Y-54070662D01*
X27194809Y-54070664D01*
X27187842Y-54075791D01*
X27182239Y-54082386D01*
X27182238Y-54082387D01*
X27155871Y-54113423D01*
X27147677Y-54122311D01*
X27143039Y-54126949D01*
X27126469Y-54147893D01*
X27123221Y-54151854D01*
X27078308Y-54204720D01*
X27074371Y-54212430D01*
X27072159Y-54215747D01*
X27072073Y-54215866D01*
X27072001Y-54215993D01*
X27069905Y-54219386D01*
X27064534Y-54226175D01*
X27035161Y-54289024D01*
X27032901Y-54293646D01*
X27001373Y-54355389D01*
X26999315Y-54363800D01*
X26997923Y-54367542D01*
X26997868Y-54367674D01*
X26997830Y-54367805D01*
X26996568Y-54371597D01*
X26992904Y-54379438D01*
X26991143Y-54387906D01*
X26991141Y-54387911D01*
X26978786Y-54447313D01*
X26977645Y-54452357D01*
X26961162Y-54519717D01*
X26960500Y-54530388D01*
X26960500Y-54531135D01*
X26960154Y-54536890D01*
X26958453Y-54545069D01*
X26958687Y-54553722D01*
X26958687Y-54553723D01*
X26960445Y-54618686D01*
X26960500Y-54622716D01*
X26960500Y-65104030D01*
X26940538Y-65178530D01*
X26886000Y-65233068D01*
X26874470Y-65239070D01*
X26727185Y-65307750D01*
X26727176Y-65307755D01*
X26721292Y-65310499D01*
X26574304Y-65413421D01*
X26447421Y-65540304D01*
X26344499Y-65687292D01*
X26268664Y-65849919D01*
X26243826Y-65942617D01*
X26224257Y-66015651D01*
X26222222Y-66023244D01*
X26221656Y-66029715D01*
X26221655Y-66029720D01*
X26211091Y-66150471D01*
X26210483Y-66156159D01*
X26205980Y-66191806D01*
X26206770Y-66199863D01*
X26206583Y-66202000D01*
X26209391Y-66234091D01*
X26220788Y-66364362D01*
X26222222Y-66380756D01*
X26223903Y-66387030D01*
X26223904Y-66387035D01*
X26229859Y-66409259D01*
X26268664Y-66554081D01*
X26271412Y-66559974D01*
X26341749Y-66710813D01*
X26341752Y-66710819D01*
X26344499Y-66716709D01*
X26348230Y-66722037D01*
X26348232Y-66722041D01*
X26380336Y-66767889D01*
X26447421Y-66863696D01*
X26574304Y-66990579D01*
X26721292Y-67093501D01*
X26727176Y-67096245D01*
X26727185Y-67096250D01*
X26874470Y-67164930D01*
X26933554Y-67214507D01*
X26959933Y-67286984D01*
X26960500Y-67299970D01*
X26960500Y-67709770D01*
X26940538Y-67784270D01*
X26916859Y-67815129D01*
X26684670Y-68047318D01*
X26617875Y-68085882D01*
X26592816Y-68090346D01*
X26535854Y-68095530D01*
X26481618Y-68100466D01*
X26293393Y-68155864D01*
X26119512Y-68246767D01*
X26113838Y-68251329D01*
X25972502Y-68364966D01*
X25966600Y-68369711D01*
X25840480Y-68520016D01*
X25745956Y-68691954D01*
X25686628Y-68878978D01*
X25664757Y-69073963D01*
X25681175Y-69269483D01*
X25735258Y-69458091D01*
X25738590Y-69464574D01*
X25738591Y-69464577D01*
X25795331Y-69574982D01*
X25811630Y-69650368D01*
X25788052Y-69723804D01*
X25744549Y-69767611D01*
X25738512Y-69770767D01*
X25585600Y-69893711D01*
X25459480Y-70044016D01*
X25364956Y-70215954D01*
X25305628Y-70402978D01*
X25304815Y-70410222D01*
X25304815Y-70410224D01*
X25288164Y-70558672D01*
X25283757Y-70597963D01*
X20600500Y-70597963D01*
X20600500Y-65771963D01*
X21219757Y-65771963D01*
X21236175Y-65967483D01*
X21290258Y-66156091D01*
X21379944Y-66330601D01*
X21501818Y-66484369D01*
X21651238Y-66611535D01*
X21657601Y-66615091D01*
X21816149Y-66703701D01*
X21816155Y-66703704D01*
X21822513Y-66707257D01*
X22009118Y-66767889D01*
X22082397Y-66776627D01*
X22196715Y-66790259D01*
X22196718Y-66790259D01*
X22203946Y-66791121D01*
X22315443Y-66782542D01*
X22392314Y-66776627D01*
X22392316Y-66776627D01*
X22399576Y-66776068D01*
X22588556Y-66723303D01*
X22595062Y-66720016D01*
X22595066Y-66720015D01*
X22757184Y-66638123D01*
X22757185Y-66638123D01*
X22763689Y-66634837D01*
X22918303Y-66514040D01*
X23046509Y-66365511D01*
X23121166Y-66234091D01*
X23139827Y-66201243D01*
X23139828Y-66201241D01*
X23143425Y-66194909D01*
X23205358Y-66008732D01*
X23224569Y-65856661D01*
X23253711Y-65785251D01*
X23267035Y-65769977D01*
X24469126Y-64567886D01*
X24486171Y-64553238D01*
X24494189Y-64547338D01*
X24494191Y-64547336D01*
X24501158Y-64542209D01*
X24533129Y-64504577D01*
X24541323Y-64495689D01*
X24545961Y-64491051D01*
X24562531Y-64470107D01*
X24565779Y-64466146D01*
X24610692Y-64413280D01*
X24614629Y-64405570D01*
X24616841Y-64402253D01*
X24616927Y-64402134D01*
X24616999Y-64402007D01*
X24619095Y-64398614D01*
X24624466Y-64391825D01*
X24653839Y-64328976D01*
X24656101Y-64324351D01*
X24683688Y-64270326D01*
X24683689Y-64270323D01*
X24687627Y-64262611D01*
X24689685Y-64254200D01*
X24691077Y-64250458D01*
X24691132Y-64250326D01*
X24691170Y-64250195D01*
X24692432Y-64246403D01*
X24696096Y-64238562D01*
X24697857Y-64230094D01*
X24697859Y-64230089D01*
X24710214Y-64170687D01*
X24711355Y-64165643D01*
X24727838Y-64098283D01*
X24728500Y-64087612D01*
X24728500Y-64086865D01*
X24728846Y-64081110D01*
X24730547Y-64072931D01*
X24728555Y-63999313D01*
X24728500Y-63995284D01*
X24728500Y-62595150D01*
X24748462Y-62520650D01*
X24764702Y-62497798D01*
X24824509Y-62428511D01*
X24829135Y-62420369D01*
X24917827Y-62264243D01*
X24917828Y-62264241D01*
X24921425Y-62257909D01*
X24983358Y-62071732D01*
X24988631Y-62029996D01*
X24995976Y-61971849D01*
X25007949Y-61877071D01*
X25008341Y-61849000D01*
X24989194Y-61653728D01*
X24932484Y-61465894D01*
X24861534Y-61332456D01*
X24843792Y-61299088D01*
X24843790Y-61299085D01*
X24840370Y-61292653D01*
X24835767Y-61287010D01*
X24835765Y-61287006D01*
X24720964Y-61146246D01*
X24716361Y-61140602D01*
X24565180Y-61015535D01*
X24392585Y-60922213D01*
X24262202Y-60881853D01*
X24212111Y-60866347D01*
X24212109Y-60866347D01*
X24205152Y-60864193D01*
X24197910Y-60863432D01*
X24197906Y-60863431D01*
X24017260Y-60844444D01*
X24017259Y-60844444D01*
X24010019Y-60843683D01*
X23814618Y-60861466D01*
X23626393Y-60916864D01*
X23452512Y-61007767D01*
X23299600Y-61130711D01*
X23173480Y-61281016D01*
X23078956Y-61452954D01*
X23019628Y-61639978D01*
X23018815Y-61647222D01*
X23018815Y-61647224D01*
X22998569Y-61827722D01*
X22997757Y-61834963D01*
X23014175Y-62030483D01*
X23016185Y-62037492D01*
X23016185Y-62037493D01*
X23042972Y-62130909D01*
X23068258Y-62219091D01*
X23157944Y-62393601D01*
X23185613Y-62428511D01*
X23245271Y-62503781D01*
X23275902Y-62574566D01*
X23277500Y-62596332D01*
X23277500Y-63645770D01*
X23257538Y-63720270D01*
X23233859Y-63751129D01*
X22239670Y-64745318D01*
X22172875Y-64783882D01*
X22147816Y-64788346D01*
X22090854Y-64793530D01*
X22036618Y-64798466D01*
X21848393Y-64853864D01*
X21674512Y-64944767D01*
X21521600Y-65067711D01*
X21395480Y-65218016D01*
X21300956Y-65389954D01*
X21241628Y-65576978D01*
X21240815Y-65584222D01*
X21240815Y-65584224D01*
X21222043Y-65751582D01*
X21219757Y-65771963D01*
X20600500Y-65771963D01*
X20600500Y-49007963D01*
X26426757Y-49007963D01*
X26443175Y-49203483D01*
X26497258Y-49392091D01*
X26586944Y-49566601D01*
X26708818Y-49720369D01*
X26858238Y-49847535D01*
X26864601Y-49851091D01*
X27023149Y-49939701D01*
X27023155Y-49939704D01*
X27029513Y-49943257D01*
X27216118Y-50003889D01*
X27289397Y-50012627D01*
X27403715Y-50026259D01*
X27403718Y-50026259D01*
X27410946Y-50027121D01*
X27522443Y-50018542D01*
X27599314Y-50012627D01*
X27599316Y-50012627D01*
X27606576Y-50012068D01*
X27795556Y-49959303D01*
X27802062Y-49956016D01*
X27802066Y-49956015D01*
X27964184Y-49874123D01*
X27964185Y-49874123D01*
X27970689Y-49870837D01*
X28125303Y-49750040D01*
X28253509Y-49601511D01*
X28350425Y-49430909D01*
X28412358Y-49244732D01*
X28436949Y-49050071D01*
X28437341Y-49022000D01*
X28418194Y-48826728D01*
X28361484Y-48638894D01*
X28345978Y-48609732D01*
X28272792Y-48472088D01*
X28272790Y-48472085D01*
X28269370Y-48465653D01*
X28264767Y-48460010D01*
X28264765Y-48460006D01*
X28149964Y-48319246D01*
X28145361Y-48313602D01*
X27994180Y-48188535D01*
X27987197Y-48184759D01*
X27974655Y-48177978D01*
X27821585Y-48095213D01*
X27691202Y-48054853D01*
X27641111Y-48039347D01*
X27641109Y-48039347D01*
X27634152Y-48037193D01*
X27626910Y-48036432D01*
X27626906Y-48036431D01*
X27446260Y-48017444D01*
X27446259Y-48017444D01*
X27439019Y-48016683D01*
X27243618Y-48034466D01*
X27055393Y-48089864D01*
X26881512Y-48180767D01*
X26728600Y-48303711D01*
X26602480Y-48454016D01*
X26507956Y-48625954D01*
X26448628Y-48812978D01*
X26447815Y-48820222D01*
X26447815Y-48820224D01*
X26430788Y-48972022D01*
X26426757Y-49007963D01*
X20600500Y-49007963D01*
X20600500Y-46340963D01*
X20965757Y-46340963D01*
X20982175Y-46536483D01*
X21036258Y-46725091D01*
X21125944Y-46899601D01*
X21247818Y-47053369D01*
X21397238Y-47180535D01*
X21403601Y-47184091D01*
X21562149Y-47272701D01*
X21562155Y-47272704D01*
X21568513Y-47276257D01*
X21755118Y-47336889D01*
X21828397Y-47345627D01*
X21942715Y-47359259D01*
X21942718Y-47359259D01*
X21949946Y-47360121D01*
X22061443Y-47351542D01*
X22138314Y-47345627D01*
X22138316Y-47345627D01*
X22145576Y-47345068D01*
X22334556Y-47292303D01*
X22341062Y-47289016D01*
X22341066Y-47289015D01*
X22503184Y-47207123D01*
X22503185Y-47207123D01*
X22509689Y-47203837D01*
X22586996Y-47143439D01*
X22658560Y-47087527D01*
X22658561Y-47087526D01*
X22664303Y-47083040D01*
X22792509Y-46934511D01*
X22889425Y-46763909D01*
X22951358Y-46577732D01*
X22975949Y-46383071D01*
X22976341Y-46355000D01*
X22957194Y-46159728D01*
X22900484Y-45971894D01*
X22890209Y-45952570D01*
X22811792Y-45805088D01*
X22811790Y-45805085D01*
X22808370Y-45798653D01*
X22803767Y-45793010D01*
X22803765Y-45793006D01*
X22688964Y-45652246D01*
X22684361Y-45646602D01*
X22533180Y-45521535D01*
X22360585Y-45428213D01*
X22230202Y-45387853D01*
X22180111Y-45372347D01*
X22180109Y-45372347D01*
X22173152Y-45370193D01*
X22165910Y-45369432D01*
X22165906Y-45369431D01*
X21985260Y-45350444D01*
X21985259Y-45350444D01*
X21978019Y-45349683D01*
X21782618Y-45367466D01*
X21594393Y-45422864D01*
X21420512Y-45513767D01*
X21414838Y-45518329D01*
X21336569Y-45581259D01*
X21267600Y-45636711D01*
X21141480Y-45787016D01*
X21046956Y-45958954D01*
X20987628Y-46145978D01*
X20986815Y-46153222D01*
X20986815Y-46153224D01*
X20966569Y-46333722D01*
X20965757Y-46340963D01*
X20600500Y-46340963D01*
X20600500Y-44562963D01*
X28458757Y-44562963D01*
X28475175Y-44758483D01*
X28529258Y-44947091D01*
X28618944Y-45121601D01*
X28740818Y-45275369D01*
X28890238Y-45402535D01*
X28896601Y-45406091D01*
X29055149Y-45494701D01*
X29055155Y-45494704D01*
X29061513Y-45498257D01*
X29248118Y-45558889D01*
X29321397Y-45567627D01*
X29435715Y-45581259D01*
X29435718Y-45581259D01*
X29442946Y-45582121D01*
X29554443Y-45573542D01*
X29631314Y-45567627D01*
X29631316Y-45567627D01*
X29638576Y-45567068D01*
X29710771Y-45546911D01*
X29820533Y-45516264D01*
X29820534Y-45516264D01*
X29827556Y-45514303D01*
X29834062Y-45511016D01*
X29834066Y-45511015D01*
X29996184Y-45429123D01*
X29996185Y-45429123D01*
X30002689Y-45425837D01*
X30099188Y-45350444D01*
X30151560Y-45309527D01*
X30151561Y-45309526D01*
X30157303Y-45305040D01*
X30285509Y-45156511D01*
X30382425Y-44985909D01*
X30444358Y-44799732D01*
X30468949Y-44605071D01*
X30469341Y-44577000D01*
X30467965Y-44562963D01*
X32649757Y-44562963D01*
X32666175Y-44758483D01*
X32720258Y-44947091D01*
X32809944Y-45121601D01*
X32931818Y-45275369D01*
X33081238Y-45402535D01*
X33087601Y-45406091D01*
X33246149Y-45494701D01*
X33246155Y-45494704D01*
X33252513Y-45498257D01*
X33439118Y-45558889D01*
X33604041Y-45578555D01*
X33675654Y-45607198D01*
X33716278Y-45658823D01*
X33728646Y-45626605D01*
X33788586Y-45578067D01*
X33822876Y-45567584D01*
X33829576Y-45567068D01*
X33836597Y-45565108D01*
X33836601Y-45565107D01*
X34011533Y-45516264D01*
X34011534Y-45516264D01*
X34018556Y-45514303D01*
X34025062Y-45511016D01*
X34025066Y-45511015D01*
X34187184Y-45429123D01*
X34187185Y-45429123D01*
X34193689Y-45425837D01*
X34290188Y-45350444D01*
X34342560Y-45309527D01*
X34342561Y-45309526D01*
X34348303Y-45305040D01*
X34476509Y-45156511D01*
X34573425Y-44985909D01*
X34635358Y-44799732D01*
X34659949Y-44605071D01*
X34660341Y-44577000D01*
X34641194Y-44381728D01*
X34584484Y-44193894D01*
X34492370Y-44020653D01*
X34487767Y-44015010D01*
X34487765Y-44015006D01*
X34372964Y-43874246D01*
X34368361Y-43868602D01*
X34217180Y-43743535D01*
X34044585Y-43650213D01*
X33914202Y-43609853D01*
X33864111Y-43594347D01*
X33864109Y-43594347D01*
X33857152Y-43592193D01*
X33849910Y-43591432D01*
X33849906Y-43591431D01*
X33669260Y-43572444D01*
X33669259Y-43572444D01*
X33662019Y-43571683D01*
X33466618Y-43589466D01*
X33278393Y-43644864D01*
X33104512Y-43735767D01*
X32951600Y-43858711D01*
X32825480Y-44009016D01*
X32730956Y-44180954D01*
X32671628Y-44367978D01*
X32670815Y-44375222D01*
X32670815Y-44375224D01*
X32669273Y-44388974D01*
X32649757Y-44562963D01*
X30467965Y-44562963D01*
X30450194Y-44381728D01*
X30393484Y-44193894D01*
X30301370Y-44020653D01*
X30296767Y-44015010D01*
X30296765Y-44015006D01*
X30181964Y-43874246D01*
X30177361Y-43868602D01*
X30026180Y-43743535D01*
X29853585Y-43650213D01*
X29723202Y-43609853D01*
X29673111Y-43594347D01*
X29673109Y-43594347D01*
X29666152Y-43592193D01*
X29658910Y-43591432D01*
X29658906Y-43591431D01*
X29478260Y-43572444D01*
X29478259Y-43572444D01*
X29471019Y-43571683D01*
X29275618Y-43589466D01*
X29087393Y-43644864D01*
X28913512Y-43735767D01*
X28760600Y-43858711D01*
X28634480Y-44009016D01*
X28539956Y-44180954D01*
X28480628Y-44367978D01*
X28479815Y-44375222D01*
X28479815Y-44375224D01*
X28478273Y-44388974D01*
X28458757Y-44562963D01*
X20600500Y-44562963D01*
X20600500Y-40371963D01*
X23378757Y-40371963D01*
X23395175Y-40567483D01*
X23449258Y-40756091D01*
X23538944Y-40930601D01*
X23660818Y-41084369D01*
X23810238Y-41211535D01*
X23816601Y-41215091D01*
X23975149Y-41303701D01*
X23975155Y-41303704D01*
X23981513Y-41307257D01*
X24168118Y-41367889D01*
X24241397Y-41376627D01*
X24355715Y-41390259D01*
X24355718Y-41390259D01*
X24362946Y-41391121D01*
X24474443Y-41382542D01*
X24551314Y-41376627D01*
X24551316Y-41376627D01*
X24558576Y-41376068D01*
X24747556Y-41323303D01*
X24754062Y-41320016D01*
X24754066Y-41320015D01*
X24916184Y-41238123D01*
X24916185Y-41238123D01*
X24922689Y-41234837D01*
X25077303Y-41114040D01*
X25205509Y-40965511D01*
X25302425Y-40794909D01*
X25364358Y-40608732D01*
X25388949Y-40414071D01*
X25389341Y-40386000D01*
X25370194Y-40190728D01*
X25313484Y-40002894D01*
X25221370Y-39829653D01*
X25216767Y-39824010D01*
X25216765Y-39824006D01*
X25101964Y-39683246D01*
X25097361Y-39677602D01*
X24946180Y-39552535D01*
X24773585Y-39459213D01*
X24643202Y-39418853D01*
X24593111Y-39403347D01*
X24593109Y-39403347D01*
X24586152Y-39401193D01*
X24578910Y-39400432D01*
X24578906Y-39400431D01*
X24398260Y-39381444D01*
X24398259Y-39381444D01*
X24391019Y-39380683D01*
X24195618Y-39398466D01*
X24007393Y-39453864D01*
X23833512Y-39544767D01*
X23680600Y-39667711D01*
X23554480Y-39818016D01*
X23459956Y-39989954D01*
X23400628Y-40176978D01*
X23399815Y-40184222D01*
X23399815Y-40184224D01*
X23398273Y-40197974D01*
X23378757Y-40371963D01*
X20600500Y-40371963D01*
X20600500Y-35037963D01*
X23378757Y-35037963D01*
X23395175Y-35233483D01*
X23449258Y-35422091D01*
X23538944Y-35596601D01*
X23660818Y-35750369D01*
X23810238Y-35877535D01*
X23816601Y-35881091D01*
X23975149Y-35969701D01*
X23975155Y-35969704D01*
X23981513Y-35973257D01*
X24168118Y-36033889D01*
X24241397Y-36042627D01*
X24355715Y-36056259D01*
X24355718Y-36056259D01*
X24362946Y-36057121D01*
X24474443Y-36048542D01*
X24551314Y-36042627D01*
X24551316Y-36042627D01*
X24558576Y-36042068D01*
X24747556Y-35989303D01*
X24754062Y-35986016D01*
X24754066Y-35986015D01*
X24916184Y-35904123D01*
X24916185Y-35904123D01*
X24922689Y-35900837D01*
X25077303Y-35780040D01*
X25205509Y-35631511D01*
X25302425Y-35460909D01*
X25364358Y-35274732D01*
X25388949Y-35080071D01*
X25389341Y-35052000D01*
X25370194Y-34856728D01*
X25313484Y-34668894D01*
X25266538Y-34580601D01*
X25224792Y-34502088D01*
X25224790Y-34502085D01*
X25221370Y-34495653D01*
X25216767Y-34490010D01*
X25216765Y-34490006D01*
X25101964Y-34349246D01*
X25097361Y-34343602D01*
X24946180Y-34218535D01*
X24773585Y-34125213D01*
X24643202Y-34084853D01*
X24593111Y-34069347D01*
X24593109Y-34069347D01*
X24586152Y-34067193D01*
X24578910Y-34066432D01*
X24578906Y-34066431D01*
X24398260Y-34047444D01*
X24398259Y-34047444D01*
X24391019Y-34046683D01*
X24195618Y-34064466D01*
X24007393Y-34119864D01*
X23833512Y-34210767D01*
X23680600Y-34333711D01*
X23554480Y-34484016D01*
X23459956Y-34655954D01*
X23400628Y-34842978D01*
X23399815Y-34850222D01*
X23399815Y-34850224D01*
X23379569Y-35030722D01*
X23378757Y-35037963D01*
X20600500Y-35037963D01*
X20600500Y-34021963D01*
X44333757Y-34021963D01*
X44350175Y-34217483D01*
X44404258Y-34406091D01*
X44493944Y-34580601D01*
X44615818Y-34734369D01*
X44765238Y-34861535D01*
X44771601Y-34865091D01*
X44930149Y-34953701D01*
X44930155Y-34953704D01*
X44936513Y-34957257D01*
X45123118Y-35017889D01*
X45196397Y-35026627D01*
X45310715Y-35040259D01*
X45310718Y-35040259D01*
X45317946Y-35041121D01*
X45429443Y-35032542D01*
X45506314Y-35026627D01*
X45506316Y-35026627D01*
X45513576Y-35026068D01*
X45702556Y-34973303D01*
X45709062Y-34970016D01*
X45709066Y-34970015D01*
X45871184Y-34888123D01*
X45871185Y-34888123D01*
X45877689Y-34884837D01*
X46032303Y-34764040D01*
X46160509Y-34615511D01*
X46257425Y-34444909D01*
X46319358Y-34258732D01*
X46343949Y-34064071D01*
X46344341Y-34036000D01*
X46325194Y-33840728D01*
X46268484Y-33652894D01*
X46176370Y-33479653D01*
X46171767Y-33474010D01*
X46171765Y-33474006D01*
X46056964Y-33333246D01*
X46052361Y-33327602D01*
X45901180Y-33202535D01*
X45728585Y-33109213D01*
X45598202Y-33068853D01*
X45548111Y-33053347D01*
X45548109Y-33053347D01*
X45541152Y-33051193D01*
X45533910Y-33050432D01*
X45533906Y-33050431D01*
X45353260Y-33031444D01*
X45353259Y-33031444D01*
X45346019Y-33030683D01*
X45150618Y-33048466D01*
X44962393Y-33103864D01*
X44788512Y-33194767D01*
X44635600Y-33317711D01*
X44509480Y-33468016D01*
X44414956Y-33639954D01*
X44355628Y-33826978D01*
X44354815Y-33834222D01*
X44354815Y-33834224D01*
X44353273Y-33847974D01*
X44333757Y-34021963D01*
X20600500Y-34021963D01*
X20600500Y-26172134D01*
X21436736Y-26172134D01*
X21442969Y-26182651D01*
X21718855Y-26394346D01*
X21725501Y-26398897D01*
X22029388Y-26583662D01*
X22036500Y-26587477D01*
X22358580Y-26738349D01*
X22366029Y-26741359D01*
X22702527Y-26856568D01*
X22710273Y-26858760D01*
X23057244Y-26936954D01*
X23065170Y-26938294D01*
X23418541Y-26978555D01*
X23426597Y-26979034D01*
X23782252Y-26980896D01*
X23790281Y-26980503D01*
X24144064Y-26943944D01*
X24152024Y-26942683D01*
X24499786Y-26868129D01*
X24507553Y-26866019D01*
X24845225Y-26754344D01*
X24852727Y-26751404D01*
X25176360Y-26603916D01*
X25183501Y-26600183D01*
X25489324Y-26418598D01*
X25496001Y-26414129D01*
X25780432Y-26200572D01*
X25786591Y-26195403D01*
X25797893Y-26184827D01*
X25805794Y-26172134D01*
X44296736Y-26172134D01*
X44302969Y-26182651D01*
X44578855Y-26394346D01*
X44585501Y-26398897D01*
X44889388Y-26583662D01*
X44896500Y-26587477D01*
X45218580Y-26738349D01*
X45226029Y-26741359D01*
X45562527Y-26856568D01*
X45570273Y-26858760D01*
X45917244Y-26936954D01*
X45925170Y-26938294D01*
X46278541Y-26978555D01*
X46286597Y-26979034D01*
X46642252Y-26980896D01*
X46650281Y-26980503D01*
X47004064Y-26943944D01*
X47012024Y-26942683D01*
X47359786Y-26868129D01*
X47367553Y-26866019D01*
X47705225Y-26754344D01*
X47712727Y-26751404D01*
X48036360Y-26603916D01*
X48043501Y-26600183D01*
X48349324Y-26418598D01*
X48356001Y-26414129D01*
X48640432Y-26200572D01*
X48646591Y-26195403D01*
X48657893Y-26184827D01*
X48665928Y-26171918D01*
X48657456Y-26156666D01*
X46495871Y-23995081D01*
X46482000Y-23987073D01*
X46468129Y-23995081D01*
X44304468Y-26158742D01*
X44296736Y-26172134D01*
X25805794Y-26172134D01*
X25805928Y-26171918D01*
X25797456Y-26156666D01*
X23635871Y-23995081D01*
X23622000Y-23987073D01*
X23608129Y-23995081D01*
X21444468Y-26158742D01*
X21436736Y-26172134D01*
X20600500Y-26172134D01*
X20600500Y-25635107D01*
X20620462Y-25560607D01*
X20675000Y-25506069D01*
X20749500Y-25486107D01*
X20824000Y-25506069D01*
X20873172Y-25552003D01*
X20933996Y-25642519D01*
X20938838Y-25648945D01*
X21061976Y-25795175D01*
X21075111Y-25804338D01*
X21085159Y-25799631D01*
X23248919Y-23635871D01*
X23256927Y-23622000D01*
X23987073Y-23622000D01*
X23995081Y-23635871D01*
X26155404Y-25796194D01*
X26169275Y-25804202D01*
X26179292Y-25798419D01*
X26283790Y-25676930D01*
X26288699Y-25670555D01*
X26490151Y-25377440D01*
X26494343Y-25370572D01*
X26662960Y-25057418D01*
X26666387Y-25050135D01*
X26800197Y-24720603D01*
X26802823Y-24712975D01*
X26900255Y-24370934D01*
X26902040Y-24363081D01*
X26961966Y-24012501D01*
X26962891Y-24004498D01*
X26984720Y-23647611D01*
X26984857Y-23643341D01*
X26984925Y-23624135D01*
X26984817Y-23619870D01*
X26984515Y-23614288D01*
X43119292Y-23614288D01*
X43137286Y-23969501D01*
X43138126Y-23977492D01*
X43194380Y-24328695D01*
X43196081Y-24336560D01*
X43289932Y-24679623D01*
X43292470Y-24687252D01*
X43422823Y-25018173D01*
X43426174Y-25025492D01*
X43591504Y-25340400D01*
X43595621Y-25347306D01*
X43793996Y-25642519D01*
X43798838Y-25648945D01*
X43921976Y-25795175D01*
X43935111Y-25804338D01*
X43945159Y-25799631D01*
X46108919Y-23635871D01*
X46116927Y-23622000D01*
X46108919Y-23608129D01*
X43948586Y-21447796D01*
X43934715Y-21439788D01*
X43924837Y-21445491D01*
X43813056Y-21576371D01*
X43808171Y-21582760D01*
X43607740Y-21876579D01*
X43603565Y-21883474D01*
X43436052Y-22197199D01*
X43432644Y-22204509D01*
X43299983Y-22534510D01*
X43297394Y-22542116D01*
X43201149Y-22884516D01*
X43199393Y-22892373D01*
X43140691Y-23243165D01*
X43139794Y-23251163D01*
X43119320Y-23606238D01*
X43119292Y-23614288D01*
X26984515Y-23614288D01*
X26965480Y-23262834D01*
X26964609Y-23254820D01*
X26907135Y-22903847D01*
X26905404Y-22895971D01*
X26810358Y-22553245D01*
X26807792Y-22545620D01*
X26676284Y-22215155D01*
X26672909Y-22207850D01*
X26506484Y-21893530D01*
X26502330Y-21886617D01*
X26302936Y-21592112D01*
X26298069Y-21585699D01*
X26182012Y-21448849D01*
X26168842Y-21439730D01*
X26158674Y-21444536D01*
X23995081Y-23608129D01*
X23987073Y-23622000D01*
X23256927Y-23622000D01*
X23248919Y-23608129D01*
X21088586Y-21447796D01*
X21074715Y-21439788D01*
X21064837Y-21445491D01*
X20953056Y-21576371D01*
X20948171Y-21582760D01*
X20872589Y-21693558D01*
X20814115Y-21743853D01*
X20738328Y-21758173D01*
X20665534Y-21732681D01*
X20615239Y-21674207D01*
X20600500Y-21609592D01*
X20600500Y-20749500D01*
X20620462Y-20675000D01*
X20675000Y-20620462D01*
X20749500Y-20600500D01*
X21606192Y-20600500D01*
X21680692Y-20620462D01*
G37*
%TD.AperFunction*%
%TA.AperFunction,Conductor*%
G36*
X36009488Y-57329462D02*
G01*
X36064026Y-57384000D01*
X36083465Y-57446032D01*
X36095175Y-57585483D01*
X36097185Y-57592492D01*
X36097185Y-57592493D01*
X36135150Y-57724892D01*
X36149258Y-57774091D01*
X36238944Y-57948601D01*
X36360818Y-58102369D01*
X36510238Y-58229535D01*
X36516601Y-58233091D01*
X36675149Y-58321701D01*
X36675155Y-58321704D01*
X36681513Y-58325257D01*
X36868118Y-58385889D01*
X36941397Y-58394627D01*
X37055715Y-58408259D01*
X37055718Y-58408259D01*
X37062946Y-58409121D01*
X37174443Y-58400542D01*
X37251314Y-58394627D01*
X37251316Y-58394627D01*
X37258576Y-58394068D01*
X37285430Y-58386570D01*
X37362554Y-58385762D01*
X37429749Y-58423624D01*
X37469011Y-58490011D01*
X37474500Y-58530081D01*
X37474500Y-60707401D01*
X37454538Y-60781901D01*
X37400000Y-60836439D01*
X37339005Y-60855788D01*
X37309469Y-60858476D01*
X37276618Y-60861466D01*
X37088393Y-60916864D01*
X36914512Y-61007767D01*
X36761600Y-61130711D01*
X36635480Y-61281016D01*
X36540956Y-61452954D01*
X36481628Y-61639978D01*
X36480815Y-61647222D01*
X36480815Y-61647224D01*
X36460569Y-61827722D01*
X36459757Y-61834963D01*
X36476175Y-62030483D01*
X36478185Y-62037492D01*
X36478185Y-62037493D01*
X36504972Y-62130909D01*
X36530258Y-62219091D01*
X36619944Y-62393601D01*
X36624466Y-62399306D01*
X36735771Y-62539739D01*
X36741818Y-62547369D01*
X36891238Y-62674535D01*
X36924934Y-62693367D01*
X37056149Y-62766701D01*
X37056155Y-62766704D01*
X37062513Y-62770257D01*
X37249118Y-62830889D01*
X37311633Y-62838343D01*
X37343143Y-62842101D01*
X37414755Y-62870744D01*
X37462451Y-62931356D01*
X37474500Y-62990053D01*
X37474500Y-64533121D01*
X37454538Y-64607621D01*
X37400000Y-64662159D01*
X37325500Y-64682121D01*
X37251000Y-64662159D01*
X37230524Y-64647928D01*
X37143796Y-64576181D01*
X37138180Y-64571535D01*
X36965585Y-64478213D01*
X36835202Y-64437853D01*
X36785111Y-64422347D01*
X36785109Y-64422347D01*
X36778152Y-64420193D01*
X36770910Y-64419432D01*
X36770906Y-64419431D01*
X36711983Y-64413238D01*
X36650775Y-64406804D01*
X36578771Y-64379164D01*
X36560992Y-64363980D01*
X34170141Y-61973129D01*
X34131577Y-61906334D01*
X34126500Y-61867770D01*
X34126500Y-59330030D01*
X34146462Y-59255530D01*
X34162707Y-59232671D01*
X34246328Y-59135794D01*
X34256601Y-59123893D01*
X34353517Y-58953291D01*
X34415450Y-58767114D01*
X34440041Y-58572453D01*
X34440433Y-58544382D01*
X34421286Y-58349110D01*
X34364576Y-58161276D01*
X34282935Y-58007732D01*
X34275885Y-57994472D01*
X34275883Y-57994469D01*
X34272462Y-57988035D01*
X34272876Y-57987815D01*
X34249729Y-57919029D01*
X34257052Y-57862645D01*
X34283558Y-57782964D01*
X34283559Y-57782961D01*
X34285858Y-57776049D01*
X34305069Y-57623978D01*
X34334211Y-57552568D01*
X34347535Y-57537294D01*
X34531688Y-57353141D01*
X34598483Y-57314577D01*
X34637047Y-57309500D01*
X35934988Y-57309500D01*
X36009488Y-57329462D01*
G37*
%TD.AperFunction*%
%TD*%
M02*
