%TF.GenerationSoftware,KiCad,Pcbnew,(6.0.8)*%
%TF.CreationDate,2023-05-05T23:38:08+01:00*%
%TF.ProjectId,circuit board design v1.0,63697263-7569-4742-9062-6f6172642064,rev?*%
%TF.SameCoordinates,Original*%
%TF.FileFunction,Copper,L3,Inr*%
%TF.FilePolarity,Positive*%
%FSLAX46Y46*%
G04 Gerber Fmt 4.6, Leading zero omitted, Abs format (unit mm)*
G04 Created by KiCad (PCBNEW (6.0.8)) date 2023-05-05 23:38:08*
%MOMM*%
%LPD*%
G01*
G04 APERTURE LIST*
G04 Aperture macros list*
%AMRoundRect*
0 Rectangle with rounded corners*
0 $1 Rounding radius*
0 $2 $3 $4 $5 $6 $7 $8 $9 X,Y pos of 4 corners*
0 Add a 4 corners polygon primitive as box body*
4,1,4,$2,$3,$4,$5,$6,$7,$8,$9,$2,$3,0*
0 Add four circle primitives for the rounded corners*
1,1,$1+$1,$2,$3*
1,1,$1+$1,$4,$5*
1,1,$1+$1,$6,$7*
1,1,$1+$1,$8,$9*
0 Add four rect primitives between the rounded corners*
20,1,$1+$1,$2,$3,$4,$5,0*
20,1,$1+$1,$4,$5,$6,$7,0*
20,1,$1+$1,$6,$7,$8,$9,0*
20,1,$1+$1,$8,$9,$2,$3,0*%
G04 Aperture macros list end*
%TA.AperFunction,ComponentPad*%
%ADD10R,1.700000X1.700000*%
%TD*%
%TA.AperFunction,ComponentPad*%
%ADD11O,1.700000X1.700000*%
%TD*%
%TA.AperFunction,ComponentPad*%
%ADD12C,1.450000*%
%TD*%
%TA.AperFunction,ComponentPad*%
%ADD13O,0.800000X1.600000*%
%TD*%
%TA.AperFunction,ComponentPad*%
%ADD14C,3.600000*%
%TD*%
%TA.AperFunction,ComponentPad*%
%ADD15RoundRect,0.250000X0.625000X-0.350000X0.625000X0.350000X-0.625000X0.350000X-0.625000X-0.350000X0*%
%TD*%
%TA.AperFunction,ComponentPad*%
%ADD16O,1.750000X1.200000*%
%TD*%
%TA.AperFunction,ViaPad*%
%ADD17C,0.800000*%
%TD*%
G04 APERTURE END LIST*
D10*
%TO.N,/MCU/SYS_JTCK_SWCLK*%
%TO.C,J6*%
X37460000Y-45212000D03*
D11*
%TO.N,/MCU/SYS_JTMS_SWDIO*%
X40000000Y-45212000D03*
%TD*%
D10*
%TO.N,+3.3V*%
%TO.C,J1*%
X35057000Y-80264000D03*
D11*
%TO.N,GND*%
X32517000Y-80264000D03*
%TD*%
D12*
%TO.N,GND*%
%TO.C,J3*%
X33620000Y-88378000D03*
X38620000Y-88378000D03*
D13*
X32620000Y-91078000D03*
X39620000Y-91078000D03*
%TD*%
D14*
%TO.N,GND*%
%TO.C,H4*%
X46482000Y-90500000D03*
%TD*%
D15*
%TO.N,GND*%
%TO.C,J2*%
X38825000Y-83566000D03*
D16*
%TO.N,Net-(J2-Pad2)*%
X38825000Y-81566000D03*
%TD*%
D14*
%TO.N,GND*%
%TO.C,H2*%
X46482000Y-23622000D03*
%TD*%
%TO.N,GND*%
%TO.C,H3*%
X23622000Y-23622000D03*
%TD*%
%TO.N,GND*%
%TO.C,H1*%
X23749000Y-90500000D03*
%TD*%
D17*
%TO.N,GND*%
X33147000Y-66294000D03*
%TO.N,+3.3V*%
X37846000Y-72136000D03*
X28067000Y-75057000D03*
%TO.N,/MCU/usb_d-*%
X36830000Y-52722000D03*
%TO.N,/MCU/usb_d+*%
X36830000Y-51672000D03*
%TO.N,/MCU/usb_d-*%
X32494730Y-84464768D03*
%TO.N,/MCU/usb_d+*%
X31752266Y-85207232D03*
%TO.N,/MCU/QUADSPI_CLK*%
X41656000Y-55118000D03*
X35687000Y-56769000D03*
%TO.N,/MCU/SPI1_SCK*%
X41656000Y-73533000D03*
%TO.N,/MCU/SPI1_MISO*%
X41656000Y-76200000D03*
%TO.N,/MCU/SPI1_MOSI*%
X33655000Y-57912000D03*
%TO.N,/MCU/Radio_Enable*%
X34849797Y-61216108D03*
%TO.N,/MCU/SYS_JTCK_SWCLK*%
X38862000Y-48387000D03*
%TO.N,/MCU/QUADSPI_NCS*%
X33782000Y-46863000D03*
X37845620Y-47587500D03*
%TO.N,/MCU/SCL*%
X44320500Y-58420000D03*
X47498000Y-54864000D03*
X30226000Y-51054000D03*
X22058500Y-68580000D03*
%TO.N,GND*%
X21844000Y-50292000D03*
X21844000Y-32893000D03*
X24892000Y-34036000D03*
X36698356Y-58678644D03*
X27940000Y-91821000D03*
X22860000Y-72517000D03*
X28575000Y-84582000D03*
X21717000Y-60833000D03*
X40450500Y-50604500D03*
X28321000Y-67122497D03*
X43561000Y-46138500D03*
X35000000Y-22000000D03*
X42000000Y-22000000D03*
X48100000Y-67000000D03*
X48006000Y-37211000D03*
X21971000Y-42926000D03*
X41529000Y-61595000D03*
X22860000Y-35052000D03*
X31500000Y-25000000D03*
X46482000Y-59944000D03*
X45466000Y-37211000D03*
X21336000Y-74168000D03*
X38354000Y-63627000D03*
X32678500Y-63881000D03*
X21717000Y-85852000D03*
X48100000Y-63300000D03*
X29083000Y-63500000D03*
X42799000Y-58166000D03*
X22860000Y-40386000D03*
X37211000Y-84709000D03*
X35000000Y-25000000D03*
X24257000Y-30480000D03*
X27940000Y-78613000D03*
X21463000Y-63246000D03*
X48641000Y-57277000D03*
X37846000Y-86741000D03*
X48000000Y-34290000D03*
X30099000Y-58420000D03*
X26162000Y-54102000D03*
X29337000Y-55372000D03*
X28194000Y-45085000D03*
X21336000Y-62357000D03*
X48000000Y-32004000D03*
X42000000Y-25000000D03*
X45212000Y-41656000D03*
X29718000Y-50038000D03*
X35179000Y-63246000D03*
X31500000Y-22000000D03*
X27940000Y-79756000D03*
X45466000Y-32004000D03*
X45457401Y-54872599D03*
X35052000Y-68199000D03*
X28000000Y-25000000D03*
X48000000Y-28956000D03*
X24257000Y-28067000D03*
X48768000Y-54864000D03*
X24003000Y-57531000D03*
X28321000Y-72009000D03*
X27999502Y-81534000D03*
X48100000Y-74400000D03*
X35179000Y-64770000D03*
X48100000Y-70700000D03*
X28000000Y-22000000D03*
X22860000Y-70993000D03*
X24257000Y-42926000D03*
X21844000Y-28067000D03*
X38500000Y-25000000D03*
X48006000Y-41656000D03*
X30861000Y-91821000D03*
X45339000Y-28956000D03*
X41910000Y-48222500D03*
X38500000Y-22000000D03*
X27999502Y-76200000D03*
X21844000Y-30480000D03*
%TO.N,+3.3V*%
X29972000Y-74168000D03*
X46609000Y-61214000D03*
X33655000Y-44577000D03*
X40386000Y-48222500D03*
X24384000Y-35052000D03*
X40640000Y-72136000D03*
X48895000Y-50673000D03*
X45339000Y-34036000D03*
X46482000Y-58928000D03*
X27940000Y-77343000D03*
X29083000Y-61976000D03*
X43053000Y-54387500D03*
X29464000Y-44577000D03*
X24384000Y-40386000D03*
X37719000Y-60452000D03*
X28321000Y-72958503D03*
X27432000Y-49022000D03*
X22860000Y-78232000D03*
X22987000Y-76200000D03*
X28321000Y-68072000D03*
X21336000Y-78232000D03*
X20955000Y-81280000D03*
X37846000Y-69342000D03*
%TO.N,+3.3VA*%
X40513000Y-55245000D03*
X24003000Y-59690000D03*
X21336000Y-65151000D03*
X32893395Y-56388000D03*
%TO.N,/MCU/SYS_JTMS_SWDIO*%
X41275000Y-51308000D03*
%TO.N,/MCU/SDA*%
X44462723Y-57374313D03*
X31906687Y-50292000D03*
X46485949Y-54876548D03*
X22225000Y-69977000D03*
%TO.N,Net-(J2-Pad2)*%
X38735000Y-66294000D03*
%TO.N,/MCU/PWR_BVOLTS*%
X34458944Y-62188056D03*
X35179000Y-66294000D03*
%TO.N,/MCU/Radio_DIO1*%
X25966500Y-57318537D03*
%TO.N,/MCU/Radio_DIO0*%
X26543000Y-58547000D03*
%TO.N,/MCU/Radio_TX*%
X30861000Y-57658000D03*
%TO.N,/MCU/Radio_RX*%
X27686000Y-58928000D03*
%TO.N,/MCU/Radio_Reset*%
X40513000Y-58166000D03*
%TD*%
%TA.AperFunction,Conductor*%
%TO.N,GND*%
G36*
X49325491Y-20620462D02*
G01*
X49380029Y-20675000D01*
X49399991Y-20749400D01*
X49415001Y-43650213D01*
X49418891Y-49585591D01*
X49398978Y-49660104D01*
X49344476Y-49714678D01*
X49269989Y-49734689D01*
X49225830Y-49728025D01*
X49104118Y-49690349D01*
X49104115Y-49690348D01*
X49097152Y-49688193D01*
X49089910Y-49687432D01*
X49089906Y-49687431D01*
X48909260Y-49668444D01*
X48909259Y-49668444D01*
X48902019Y-49667683D01*
X48706618Y-49685466D01*
X48518393Y-49740864D01*
X48344512Y-49831767D01*
X48338838Y-49836329D01*
X48203043Y-49945511D01*
X48191600Y-49954711D01*
X48065480Y-50105016D01*
X47970956Y-50276954D01*
X47911628Y-50463978D01*
X47910815Y-50471222D01*
X47910815Y-50471224D01*
X47909782Y-50480434D01*
X47889757Y-50658963D01*
X47906175Y-50854483D01*
X47960258Y-51043091D01*
X48049944Y-51217601D01*
X48171818Y-51371369D01*
X48321238Y-51498535D01*
X48327601Y-51502091D01*
X48486149Y-51590701D01*
X48486155Y-51590704D01*
X48492513Y-51594257D01*
X48679118Y-51654889D01*
X48787803Y-51667849D01*
X48866715Y-51677259D01*
X48866718Y-51677259D01*
X48873946Y-51678121D01*
X48985443Y-51669542D01*
X49062314Y-51663627D01*
X49062316Y-51663627D01*
X49069576Y-51663068D01*
X49231247Y-51617928D01*
X49308370Y-51617120D01*
X49375565Y-51654982D01*
X49414827Y-51721369D01*
X49420316Y-51761341D01*
X49428484Y-64222240D01*
X49437118Y-77395068D01*
X49437176Y-77483822D01*
X49417263Y-77558335D01*
X49362761Y-77612909D01*
X49346870Y-77620873D01*
X47138580Y-78567283D01*
X47136987Y-78567954D01*
X47068159Y-78596464D01*
X47060413Y-78602408D01*
X47060409Y-78602410D01*
X47040768Y-78617481D01*
X47026136Y-78627387D01*
X46996453Y-78645011D01*
X46978754Y-78663147D01*
X46962823Y-78677291D01*
X46942718Y-78692718D01*
X46936775Y-78700463D01*
X46936771Y-78700467D01*
X46921701Y-78720107D01*
X46910127Y-78733467D01*
X46886020Y-78758170D01*
X46873611Y-78780282D01*
X46861894Y-78798050D01*
X46846464Y-78818159D01*
X46842727Y-78827180D01*
X46842725Y-78827184D01*
X46833252Y-78850053D01*
X46825534Y-78865948D01*
X46808638Y-78896055D01*
X46802375Y-78920622D01*
X46795655Y-78940822D01*
X46785956Y-78964238D01*
X46784681Y-78973920D01*
X46784681Y-78973921D01*
X46781451Y-78998455D01*
X46778109Y-79015810D01*
X46776008Y-79024053D01*
X46769580Y-79049270D01*
X46769699Y-79059036D01*
X46769699Y-79059037D01*
X46770489Y-79123811D01*
X46770500Y-79125628D01*
X46770500Y-85648366D01*
X46770088Y-85656434D01*
X46768477Y-85663219D01*
X46768757Y-85672977D01*
X46768757Y-85672981D01*
X46770439Y-85731507D01*
X46770500Y-85735786D01*
X46770500Y-85764361D01*
X46771136Y-85769196D01*
X46771455Y-85774059D01*
X46771330Y-85774067D01*
X46771847Y-85780531D01*
X46773018Y-85821269D01*
X46775815Y-85830623D01*
X46775816Y-85830631D01*
X46778491Y-85839577D01*
X46783460Y-85862808D01*
X46784680Y-85872073D01*
X46784681Y-85872077D01*
X46785956Y-85881762D01*
X46789693Y-85890785D01*
X46789695Y-85890791D01*
X46801544Y-85919399D01*
X46806641Y-85933733D01*
X46818309Y-85972758D01*
X46823430Y-85981067D01*
X46823431Y-85981069D01*
X46828338Y-85989030D01*
X46839151Y-86010187D01*
X46842726Y-86018817D01*
X46846464Y-86027841D01*
X46871270Y-86060169D01*
X46879886Y-86072672D01*
X46901266Y-86107362D01*
X46908363Y-86114062D01*
X46908364Y-86114064D01*
X46915164Y-86120484D01*
X46931078Y-86138113D01*
X46942718Y-86153282D01*
X46975038Y-86178083D01*
X46986615Y-86187945D01*
X46996524Y-86197300D01*
X47016235Y-86215910D01*
X47024824Y-86220545D01*
X47024828Y-86220548D01*
X47033054Y-86224987D01*
X47052999Y-86237904D01*
X47060407Y-86243588D01*
X47060409Y-86243589D01*
X47068159Y-86249536D01*
X47105778Y-86265118D01*
X47111660Y-86267913D01*
X47111712Y-86267799D01*
X47116149Y-86269831D01*
X47120442Y-86272148D01*
X47147215Y-86282347D01*
X47151109Y-86283895D01*
X47214238Y-86310044D01*
X47221150Y-86310954D01*
X47228827Y-86313438D01*
X48098473Y-86644731D01*
X49341543Y-87118281D01*
X49404056Y-87163457D01*
X49435606Y-87233837D01*
X49437500Y-87257520D01*
X49437500Y-93230500D01*
X49417538Y-93305000D01*
X49363000Y-93359538D01*
X49288500Y-93379500D01*
X41268750Y-93379500D01*
X41194250Y-93359538D01*
X41149552Y-93319903D01*
X41039983Y-93173811D01*
X41038587Y-93171696D01*
X41037536Y-93169159D01*
X40991918Y-93109708D01*
X40990929Y-93108404D01*
X40972710Y-93084112D01*
X40972700Y-93084101D01*
X40969783Y-93080211D01*
X40967918Y-93078304D01*
X40966139Y-93076112D01*
X40947228Y-93051467D01*
X40941282Y-93043718D01*
X40933532Y-93037771D01*
X40920818Y-93028015D01*
X40905013Y-93014000D01*
X40893810Y-93002548D01*
X40886978Y-92995564D01*
X40872640Y-92987074D01*
X40857662Y-92978205D01*
X40842873Y-92968205D01*
X40823593Y-92953411D01*
X40823587Y-92953408D01*
X40815841Y-92947464D01*
X40806820Y-92943728D01*
X40806814Y-92943724D01*
X40792005Y-92937590D01*
X40773109Y-92928142D01*
X40759328Y-92919982D01*
X40759327Y-92919982D01*
X40750924Y-92915006D01*
X40718123Y-92905829D01*
X40701248Y-92899997D01*
X40678789Y-92890694D01*
X40678781Y-92890692D01*
X40669762Y-92886956D01*
X40660080Y-92885681D01*
X40660079Y-92885681D01*
X40653386Y-92884800D01*
X40644194Y-92883590D01*
X40623499Y-92879355D01*
X40608061Y-92875036D01*
X40608060Y-92875036D01*
X40598656Y-92872405D01*
X40557822Y-92871956D01*
X40555008Y-92871848D01*
X40552361Y-92871500D01*
X40517148Y-92871500D01*
X40515510Y-92871491D01*
X40440551Y-92870667D01*
X40437896Y-92871347D01*
X40435351Y-92871500D01*
X31827649Y-92871500D01*
X31825104Y-92871347D01*
X31822449Y-92870667D01*
X31747490Y-92871491D01*
X31745852Y-92871500D01*
X31710639Y-92871500D01*
X31707992Y-92871848D01*
X31705178Y-92871956D01*
X31664344Y-92872405D01*
X31654940Y-92875036D01*
X31654939Y-92875036D01*
X31639501Y-92879355D01*
X31618806Y-92883590D01*
X31609614Y-92884800D01*
X31602921Y-92885681D01*
X31602920Y-92885681D01*
X31593238Y-92886956D01*
X31584219Y-92890692D01*
X31584211Y-92890694D01*
X31561752Y-92899997D01*
X31544877Y-92905829D01*
X31512076Y-92915006D01*
X31503673Y-92919982D01*
X31503672Y-92919982D01*
X31489891Y-92928142D01*
X31470995Y-92937590D01*
X31456186Y-92943724D01*
X31456180Y-92943728D01*
X31447159Y-92947464D01*
X31439413Y-92953408D01*
X31439407Y-92953411D01*
X31420127Y-92968205D01*
X31405338Y-92978205D01*
X31390360Y-92987074D01*
X31376022Y-92995564D01*
X31369190Y-93002548D01*
X31357987Y-93014000D01*
X31342182Y-93028015D01*
X31329468Y-93037771D01*
X31321718Y-93043718D01*
X31315772Y-93051467D01*
X31296861Y-93076112D01*
X31295082Y-93078304D01*
X31293217Y-93080211D01*
X31290300Y-93084101D01*
X31290290Y-93084112D01*
X31272071Y-93108404D01*
X31271082Y-93109708D01*
X31225464Y-93169159D01*
X31224413Y-93171696D01*
X31223017Y-93173811D01*
X31113449Y-93319902D01*
X31052780Y-93367523D01*
X30994250Y-93379500D01*
X20749500Y-93379500D01*
X20675000Y-93359538D01*
X20620462Y-93305000D01*
X20600500Y-93230500D01*
X20600500Y-92303337D01*
X22310736Y-92303337D01*
X22316748Y-92313751D01*
X22337298Y-92331773D01*
X22345019Y-92337697D01*
X22588473Y-92500368D01*
X22596895Y-92505230D01*
X22859503Y-92634734D01*
X22868480Y-92638453D01*
X23145755Y-92732575D01*
X23155143Y-92735091D01*
X23442317Y-92792213D01*
X23451963Y-92793483D01*
X23744133Y-92812633D01*
X23753867Y-92812633D01*
X24046037Y-92793483D01*
X24055683Y-92792213D01*
X24342857Y-92735091D01*
X24352245Y-92732575D01*
X24629520Y-92638453D01*
X24638497Y-92634734D01*
X24901105Y-92505230D01*
X24909527Y-92500368D01*
X25152981Y-92337697D01*
X25160702Y-92331773D01*
X25178379Y-92316270D01*
X25187277Y-92302954D01*
X25181959Y-92292169D01*
X23762871Y-90873081D01*
X23749000Y-90865073D01*
X23735129Y-90873081D01*
X22318744Y-92289466D01*
X22310736Y-92303337D01*
X20600500Y-92303337D01*
X20600500Y-90504867D01*
X21436367Y-90504867D01*
X21455517Y-90797037D01*
X21456787Y-90806683D01*
X21513909Y-91093857D01*
X21516425Y-91103245D01*
X21610547Y-91380520D01*
X21614266Y-91389497D01*
X21743770Y-91652105D01*
X21748632Y-91660527D01*
X21911303Y-91903981D01*
X21917227Y-91911702D01*
X21932730Y-91929379D01*
X21946046Y-91938277D01*
X21956831Y-91932959D01*
X23375919Y-90513871D01*
X23383927Y-90500000D01*
X24114073Y-90500000D01*
X24122081Y-90513871D01*
X25538466Y-91930256D01*
X25552337Y-91938264D01*
X25562751Y-91932252D01*
X25580773Y-91911702D01*
X25586697Y-91903981D01*
X25749368Y-91660527D01*
X25754230Y-91652105D01*
X25818544Y-91521690D01*
X31712000Y-91521690D01*
X31712408Y-91529471D01*
X31726133Y-91660062D01*
X31729362Y-91675249D01*
X31783518Y-91841924D01*
X31789835Y-91856112D01*
X31877464Y-92007891D01*
X31886588Y-92020448D01*
X32003858Y-92150691D01*
X32015396Y-92161081D01*
X32157183Y-92264094D01*
X32170633Y-92271859D01*
X32330730Y-92343139D01*
X32345507Y-92347941D01*
X32346813Y-92348219D01*
X32362807Y-92347380D01*
X32366000Y-92341115D01*
X32366000Y-92332681D01*
X32874000Y-92332681D01*
X32878145Y-92348152D01*
X32884939Y-92349972D01*
X32894493Y-92347941D01*
X32909270Y-92343139D01*
X33069367Y-92271859D01*
X33082817Y-92264094D01*
X33224604Y-92161081D01*
X33236142Y-92150691D01*
X33353412Y-92020448D01*
X33362536Y-92007891D01*
X33450165Y-91856112D01*
X33456482Y-91841924D01*
X33510638Y-91675249D01*
X33513867Y-91660062D01*
X33527592Y-91529471D01*
X33528000Y-91521690D01*
X38712000Y-91521690D01*
X38712408Y-91529471D01*
X38726133Y-91660062D01*
X38729362Y-91675249D01*
X38783518Y-91841924D01*
X38789835Y-91856112D01*
X38877464Y-92007891D01*
X38886588Y-92020448D01*
X39003858Y-92150691D01*
X39015396Y-92161081D01*
X39157183Y-92264094D01*
X39170633Y-92271859D01*
X39330730Y-92343139D01*
X39345507Y-92347941D01*
X39346813Y-92348219D01*
X39362807Y-92347380D01*
X39366000Y-92341115D01*
X39366000Y-92332681D01*
X39874000Y-92332681D01*
X39878145Y-92348152D01*
X39884939Y-92349972D01*
X39894493Y-92347941D01*
X39909270Y-92343139D01*
X39998666Y-92303337D01*
X45043736Y-92303337D01*
X45049748Y-92313751D01*
X45070298Y-92331773D01*
X45078019Y-92337697D01*
X45321473Y-92500368D01*
X45329895Y-92505230D01*
X45592503Y-92634734D01*
X45601480Y-92638453D01*
X45878755Y-92732575D01*
X45888143Y-92735091D01*
X46175317Y-92792213D01*
X46184963Y-92793483D01*
X46477133Y-92812633D01*
X46486867Y-92812633D01*
X46779037Y-92793483D01*
X46788683Y-92792213D01*
X47075857Y-92735091D01*
X47085245Y-92732575D01*
X47362520Y-92638453D01*
X47371497Y-92634734D01*
X47634105Y-92505230D01*
X47642527Y-92500368D01*
X47885981Y-92337697D01*
X47893702Y-92331773D01*
X47911379Y-92316270D01*
X47920277Y-92302954D01*
X47914959Y-92292169D01*
X46495871Y-90873081D01*
X46482000Y-90865073D01*
X46468129Y-90873081D01*
X45051744Y-92289466D01*
X45043736Y-92303337D01*
X39998666Y-92303337D01*
X40069367Y-92271859D01*
X40082817Y-92264094D01*
X40224604Y-92161081D01*
X40236142Y-92150691D01*
X40353412Y-92020448D01*
X40362536Y-92007891D01*
X40450165Y-91856112D01*
X40456482Y-91841924D01*
X40510638Y-91675249D01*
X40513867Y-91660062D01*
X40527592Y-91529471D01*
X40528000Y-91521690D01*
X40528000Y-91351616D01*
X40523855Y-91336145D01*
X40508384Y-91332000D01*
X39893616Y-91332000D01*
X39878145Y-91336145D01*
X39874000Y-91351616D01*
X39874000Y-92332681D01*
X39366000Y-92332681D01*
X39366000Y-91351616D01*
X39361855Y-91336145D01*
X39346384Y-91332000D01*
X38731616Y-91332000D01*
X38716145Y-91336145D01*
X38712000Y-91351616D01*
X38712000Y-91521690D01*
X33528000Y-91521690D01*
X33528000Y-91351616D01*
X33523855Y-91336145D01*
X33508384Y-91332000D01*
X32893616Y-91332000D01*
X32878145Y-91336145D01*
X32874000Y-91351616D01*
X32874000Y-92332681D01*
X32366000Y-92332681D01*
X32366000Y-91351616D01*
X32361855Y-91336145D01*
X32346384Y-91332000D01*
X31731616Y-91332000D01*
X31716145Y-91336145D01*
X31712000Y-91351616D01*
X31712000Y-91521690D01*
X25818544Y-91521690D01*
X25883734Y-91389497D01*
X25887453Y-91380520D01*
X25981575Y-91103245D01*
X25984091Y-91093857D01*
X26041213Y-90806683D01*
X26041516Y-90804384D01*
X31712000Y-90804384D01*
X31716145Y-90819855D01*
X31731616Y-90824000D01*
X32346384Y-90824000D01*
X32361855Y-90819855D01*
X32366000Y-90804384D01*
X32874000Y-90804384D01*
X32878145Y-90819855D01*
X32893616Y-90824000D01*
X33508384Y-90824000D01*
X33523855Y-90819855D01*
X33528000Y-90804384D01*
X38712000Y-90804384D01*
X38716145Y-90819855D01*
X38731616Y-90824000D01*
X39346384Y-90824000D01*
X39361855Y-90819855D01*
X39366000Y-90804384D01*
X39874000Y-90804384D01*
X39878145Y-90819855D01*
X39893616Y-90824000D01*
X40508384Y-90824000D01*
X40523855Y-90819855D01*
X40528000Y-90804384D01*
X40528000Y-90634310D01*
X40527592Y-90626529D01*
X40514805Y-90504867D01*
X44169367Y-90504867D01*
X44188517Y-90797037D01*
X44189787Y-90806683D01*
X44246909Y-91093857D01*
X44249425Y-91103245D01*
X44343547Y-91380520D01*
X44347266Y-91389497D01*
X44476770Y-91652105D01*
X44481632Y-91660527D01*
X44644303Y-91903981D01*
X44650227Y-91911702D01*
X44665730Y-91929379D01*
X44679046Y-91938277D01*
X44689831Y-91932959D01*
X46108919Y-90513871D01*
X46116927Y-90500000D01*
X46847073Y-90500000D01*
X46855081Y-90513871D01*
X48271466Y-91930256D01*
X48285337Y-91938264D01*
X48295751Y-91932252D01*
X48313773Y-91911702D01*
X48319697Y-91903981D01*
X48482368Y-91660527D01*
X48487230Y-91652105D01*
X48616734Y-91389497D01*
X48620453Y-91380520D01*
X48714575Y-91103245D01*
X48717091Y-91093857D01*
X48774213Y-90806683D01*
X48775483Y-90797037D01*
X48794633Y-90504867D01*
X48794633Y-90495133D01*
X48775483Y-90202963D01*
X48774213Y-90193317D01*
X48717091Y-89906143D01*
X48714575Y-89896755D01*
X48620453Y-89619480D01*
X48616734Y-89610503D01*
X48487230Y-89347895D01*
X48482368Y-89339473D01*
X48319697Y-89096019D01*
X48313773Y-89088298D01*
X48298270Y-89070621D01*
X48284954Y-89061723D01*
X48274169Y-89067041D01*
X46855081Y-90486129D01*
X46847073Y-90500000D01*
X46116927Y-90500000D01*
X46108919Y-90486129D01*
X44692534Y-89069744D01*
X44678663Y-89061736D01*
X44668249Y-89067748D01*
X44650227Y-89088298D01*
X44644303Y-89096019D01*
X44481632Y-89339473D01*
X44476770Y-89347895D01*
X44347266Y-89610503D01*
X44343547Y-89619480D01*
X44249425Y-89896755D01*
X44246909Y-89906143D01*
X44189787Y-90193317D01*
X44188517Y-90202963D01*
X44169367Y-90495133D01*
X44169367Y-90504867D01*
X40514805Y-90504867D01*
X40513867Y-90495938D01*
X40510638Y-90480751D01*
X40456482Y-90314076D01*
X40450165Y-90299888D01*
X40362536Y-90148109D01*
X40353412Y-90135552D01*
X40236142Y-90005309D01*
X40224604Y-89994919D01*
X40082817Y-89891906D01*
X40069367Y-89884141D01*
X39909270Y-89812861D01*
X39894493Y-89808059D01*
X39893187Y-89807781D01*
X39877193Y-89808620D01*
X39874000Y-89814885D01*
X39874000Y-90804384D01*
X39366000Y-90804384D01*
X39366000Y-89823319D01*
X39361855Y-89807848D01*
X39355061Y-89806028D01*
X39345507Y-89808059D01*
X39330730Y-89812861D01*
X39170633Y-89884141D01*
X39157183Y-89891906D01*
X39015396Y-89994919D01*
X39003858Y-90005309D01*
X38886588Y-90135552D01*
X38877464Y-90148109D01*
X38789835Y-90299888D01*
X38783518Y-90314076D01*
X38729362Y-90480751D01*
X38726133Y-90495938D01*
X38712408Y-90626529D01*
X38712000Y-90634310D01*
X38712000Y-90804384D01*
X33528000Y-90804384D01*
X33528000Y-90634310D01*
X33527592Y-90626529D01*
X33513867Y-90495938D01*
X33510638Y-90480751D01*
X33456482Y-90314076D01*
X33450165Y-90299888D01*
X33362536Y-90148109D01*
X33353412Y-90135552D01*
X33236142Y-90005309D01*
X33224604Y-89994919D01*
X33082817Y-89891906D01*
X33069367Y-89884141D01*
X32909270Y-89812861D01*
X32894493Y-89808059D01*
X32893187Y-89807781D01*
X32877193Y-89808620D01*
X32874000Y-89814885D01*
X32874000Y-90804384D01*
X32366000Y-90804384D01*
X32366000Y-89823319D01*
X32361855Y-89807848D01*
X32355061Y-89806028D01*
X32345507Y-89808059D01*
X32330730Y-89812861D01*
X32170633Y-89884141D01*
X32157183Y-89891906D01*
X32015396Y-89994919D01*
X32003858Y-90005309D01*
X31886588Y-90135552D01*
X31877464Y-90148109D01*
X31789835Y-90299888D01*
X31783518Y-90314076D01*
X31729362Y-90480751D01*
X31726133Y-90495938D01*
X31712408Y-90626529D01*
X31712000Y-90634310D01*
X31712000Y-90804384D01*
X26041516Y-90804384D01*
X26042483Y-90797037D01*
X26061633Y-90504867D01*
X26061633Y-90495133D01*
X26042483Y-90202963D01*
X26041213Y-90193317D01*
X25984091Y-89906143D01*
X25981575Y-89896755D01*
X25887453Y-89619480D01*
X25883734Y-89610503D01*
X25785472Y-89411248D01*
X32951825Y-89411248D01*
X32955803Y-89418139D01*
X32995815Y-89446156D01*
X33007043Y-89452638D01*
X33190785Y-89538319D01*
X33202959Y-89542750D01*
X33398795Y-89595224D01*
X33411550Y-89597473D01*
X33613519Y-89615143D01*
X33626481Y-89615143D01*
X33828450Y-89597473D01*
X33841205Y-89595224D01*
X34037041Y-89542750D01*
X34049215Y-89538319D01*
X34232957Y-89452638D01*
X34244185Y-89446156D01*
X34277969Y-89422500D01*
X34287410Y-89411248D01*
X37951825Y-89411248D01*
X37955803Y-89418139D01*
X37995815Y-89446156D01*
X38007043Y-89452638D01*
X38190785Y-89538319D01*
X38202959Y-89542750D01*
X38398795Y-89595224D01*
X38411550Y-89597473D01*
X38613519Y-89615143D01*
X38626481Y-89615143D01*
X38828450Y-89597473D01*
X38841205Y-89595224D01*
X39037041Y-89542750D01*
X39049215Y-89538319D01*
X39232957Y-89452638D01*
X39244185Y-89446156D01*
X39277969Y-89422500D01*
X39288264Y-89410230D01*
X39285543Y-89402753D01*
X38633871Y-88751081D01*
X38620000Y-88743073D01*
X38606129Y-88751081D01*
X37959833Y-89397377D01*
X37951825Y-89411248D01*
X34287410Y-89411248D01*
X34288264Y-89410230D01*
X34285543Y-89402753D01*
X33633871Y-88751081D01*
X33620000Y-88743073D01*
X33606129Y-88751081D01*
X32959833Y-89397377D01*
X32951825Y-89411248D01*
X25785472Y-89411248D01*
X25754230Y-89347895D01*
X25749368Y-89339473D01*
X25586697Y-89096019D01*
X25580773Y-89088298D01*
X25565270Y-89070621D01*
X25551954Y-89061723D01*
X25541169Y-89067041D01*
X24122081Y-90486129D01*
X24114073Y-90500000D01*
X23383927Y-90500000D01*
X23375919Y-90486129D01*
X21959534Y-89069744D01*
X21945663Y-89061736D01*
X21935249Y-89067748D01*
X21917227Y-89088298D01*
X21911303Y-89096019D01*
X21748632Y-89339473D01*
X21743770Y-89347895D01*
X21614266Y-89610503D01*
X21610547Y-89619480D01*
X21516425Y-89896755D01*
X21513909Y-89906143D01*
X21456787Y-90193317D01*
X21455517Y-90202963D01*
X21436367Y-90495133D01*
X21436367Y-90504867D01*
X20600500Y-90504867D01*
X20600500Y-88697046D01*
X22310723Y-88697046D01*
X22316041Y-88707831D01*
X23735129Y-90126919D01*
X23749000Y-90134927D01*
X23762871Y-90126919D01*
X25179256Y-88710534D01*
X25187264Y-88696663D01*
X25181252Y-88686249D01*
X25160702Y-88668227D01*
X25152981Y-88662303D01*
X24909527Y-88499632D01*
X24901105Y-88494770D01*
X24677461Y-88384481D01*
X32382857Y-88384481D01*
X32400527Y-88586450D01*
X32402776Y-88599205D01*
X32455250Y-88795041D01*
X32459681Y-88807215D01*
X32545362Y-88990957D01*
X32551844Y-89002185D01*
X32575500Y-89035969D01*
X32587770Y-89046264D01*
X32595247Y-89043543D01*
X33246919Y-88391871D01*
X33254927Y-88378000D01*
X33985073Y-88378000D01*
X33993081Y-88391871D01*
X34639377Y-89038167D01*
X34653248Y-89046175D01*
X34660139Y-89042197D01*
X34688156Y-89002185D01*
X34694638Y-88990957D01*
X34780319Y-88807215D01*
X34784750Y-88795041D01*
X34837224Y-88599205D01*
X34839473Y-88586450D01*
X34857143Y-88384481D01*
X37382857Y-88384481D01*
X37400527Y-88586450D01*
X37402776Y-88599205D01*
X37455250Y-88795041D01*
X37459681Y-88807215D01*
X37545362Y-88990957D01*
X37551844Y-89002185D01*
X37575500Y-89035969D01*
X37587770Y-89046264D01*
X37595247Y-89043543D01*
X38246919Y-88391871D01*
X38254927Y-88378000D01*
X38985073Y-88378000D01*
X38993081Y-88391871D01*
X39639377Y-89038167D01*
X39653248Y-89046175D01*
X39660139Y-89042197D01*
X39688156Y-89002185D01*
X39694638Y-88990957D01*
X39780319Y-88807215D01*
X39784750Y-88795041D01*
X39811008Y-88697046D01*
X45043723Y-88697046D01*
X45049041Y-88707831D01*
X46468129Y-90126919D01*
X46482000Y-90134927D01*
X46495871Y-90126919D01*
X47912256Y-88710534D01*
X47920264Y-88696663D01*
X47914252Y-88686249D01*
X47893702Y-88668227D01*
X47885981Y-88662303D01*
X47642527Y-88499632D01*
X47634105Y-88494770D01*
X47371497Y-88365266D01*
X47362520Y-88361547D01*
X47085245Y-88267425D01*
X47075857Y-88264909D01*
X46788683Y-88207787D01*
X46779037Y-88206517D01*
X46486867Y-88187367D01*
X46477133Y-88187367D01*
X46184963Y-88206517D01*
X46175317Y-88207787D01*
X45888143Y-88264909D01*
X45878755Y-88267425D01*
X45601480Y-88361547D01*
X45592503Y-88365266D01*
X45329895Y-88494770D01*
X45321473Y-88499632D01*
X45078019Y-88662303D01*
X45070298Y-88668227D01*
X45052621Y-88683730D01*
X45043723Y-88697046D01*
X39811008Y-88697046D01*
X39837224Y-88599205D01*
X39839473Y-88586450D01*
X39857143Y-88384481D01*
X39857143Y-88371519D01*
X39839473Y-88169550D01*
X39837224Y-88156795D01*
X39784750Y-87960959D01*
X39780319Y-87948785D01*
X39694638Y-87765043D01*
X39688156Y-87753815D01*
X39664500Y-87720031D01*
X39652230Y-87709736D01*
X39644753Y-87712457D01*
X38993081Y-88364129D01*
X38985073Y-88378000D01*
X38254927Y-88378000D01*
X38246919Y-88364129D01*
X37600623Y-87717833D01*
X37586752Y-87709825D01*
X37579861Y-87713803D01*
X37551844Y-87753815D01*
X37545362Y-87765043D01*
X37459681Y-87948785D01*
X37455250Y-87960959D01*
X37402776Y-88156795D01*
X37400527Y-88169550D01*
X37382857Y-88371519D01*
X37382857Y-88384481D01*
X34857143Y-88384481D01*
X34857143Y-88371519D01*
X34839473Y-88169550D01*
X34837224Y-88156795D01*
X34784750Y-87960959D01*
X34780319Y-87948785D01*
X34694638Y-87765043D01*
X34688156Y-87753815D01*
X34664500Y-87720031D01*
X34652230Y-87709736D01*
X34644753Y-87712457D01*
X33993081Y-88364129D01*
X33985073Y-88378000D01*
X33254927Y-88378000D01*
X33246919Y-88364129D01*
X32600623Y-87717833D01*
X32586752Y-87709825D01*
X32579861Y-87713803D01*
X32551844Y-87753815D01*
X32545362Y-87765043D01*
X32459681Y-87948785D01*
X32455250Y-87960959D01*
X32402776Y-88156795D01*
X32400527Y-88169550D01*
X32382857Y-88371519D01*
X32382857Y-88384481D01*
X24677461Y-88384481D01*
X24638497Y-88365266D01*
X24629520Y-88361547D01*
X24352245Y-88267425D01*
X24342857Y-88264909D01*
X24055683Y-88207787D01*
X24046037Y-88206517D01*
X23753867Y-88187367D01*
X23744133Y-88187367D01*
X23451963Y-88206517D01*
X23442317Y-88207787D01*
X23155143Y-88264909D01*
X23145755Y-88267425D01*
X22868480Y-88361547D01*
X22859503Y-88365266D01*
X22596895Y-88494770D01*
X22588473Y-88499632D01*
X22345019Y-88662303D01*
X22337298Y-88668227D01*
X22319621Y-88683730D01*
X22310723Y-88697046D01*
X20600500Y-88697046D01*
X20600500Y-87345770D01*
X32951736Y-87345770D01*
X32954457Y-87353247D01*
X33606129Y-88004919D01*
X33620000Y-88012927D01*
X33633871Y-88004919D01*
X34280167Y-87358623D01*
X34287587Y-87345770D01*
X37951736Y-87345770D01*
X37954457Y-87353247D01*
X38606129Y-88004919D01*
X38620000Y-88012927D01*
X38633871Y-88004919D01*
X39280167Y-87358623D01*
X39288175Y-87344752D01*
X39284197Y-87337861D01*
X39244185Y-87309844D01*
X39232957Y-87303362D01*
X39049215Y-87217681D01*
X39037041Y-87213250D01*
X38841205Y-87160776D01*
X38828450Y-87158527D01*
X38626481Y-87140857D01*
X38613519Y-87140857D01*
X38411550Y-87158527D01*
X38398795Y-87160776D01*
X38202959Y-87213250D01*
X38190785Y-87217681D01*
X38007043Y-87303362D01*
X37995815Y-87309844D01*
X37962031Y-87333500D01*
X37951736Y-87345770D01*
X34287587Y-87345770D01*
X34288175Y-87344752D01*
X34284197Y-87337861D01*
X34244185Y-87309844D01*
X34232957Y-87303362D01*
X34049215Y-87217681D01*
X34037041Y-87213250D01*
X33841205Y-87160776D01*
X33828450Y-87158527D01*
X33626481Y-87140857D01*
X33613519Y-87140857D01*
X33411550Y-87158527D01*
X33398795Y-87160776D01*
X33202959Y-87213250D01*
X33190785Y-87217681D01*
X33007043Y-87303362D01*
X32995815Y-87309844D01*
X32962031Y-87333500D01*
X32951736Y-87345770D01*
X20600500Y-87345770D01*
X20600500Y-85193195D01*
X30747023Y-85193195D01*
X30763441Y-85388715D01*
X30817524Y-85577323D01*
X30907210Y-85751833D01*
X31029084Y-85905601D01*
X31178504Y-86032767D01*
X31184867Y-86036323D01*
X31343415Y-86124933D01*
X31343421Y-86124936D01*
X31349779Y-86128489D01*
X31536384Y-86189121D01*
X31645287Y-86202107D01*
X31723981Y-86211491D01*
X31723984Y-86211491D01*
X31731212Y-86212353D01*
X31842709Y-86203774D01*
X31919580Y-86197859D01*
X31919582Y-86197859D01*
X31926842Y-86197300D01*
X32063209Y-86159225D01*
X32108799Y-86146496D01*
X32108800Y-86146496D01*
X32115822Y-86144535D01*
X32122328Y-86141248D01*
X32122332Y-86141247D01*
X32284450Y-86059355D01*
X32284451Y-86059355D01*
X32290955Y-86056069D01*
X32397589Y-85972758D01*
X32439826Y-85939759D01*
X32439827Y-85939758D01*
X32445569Y-85935272D01*
X32573775Y-85786743D01*
X32670691Y-85616141D01*
X32704979Y-85513068D01*
X32747436Y-85448678D01*
X32806290Y-85416589D01*
X32812081Y-85414972D01*
X32858286Y-85402071D01*
X32864792Y-85398784D01*
X32864796Y-85398783D01*
X33026914Y-85316891D01*
X33026915Y-85316891D01*
X33033419Y-85313605D01*
X33188033Y-85192808D01*
X33316239Y-85044279D01*
X33413155Y-84873677D01*
X33475088Y-84687500D01*
X33476794Y-84674000D01*
X33496317Y-84519452D01*
X33499679Y-84492839D01*
X33500071Y-84464768D01*
X33480924Y-84269496D01*
X33473799Y-84245895D01*
X33426321Y-84088641D01*
X33424214Y-84081662D01*
X33364951Y-83970204D01*
X33360856Y-83962503D01*
X37442001Y-83962503D01*
X37442400Y-83970204D01*
X37452127Y-84063953D01*
X37455547Y-84079793D01*
X37506168Y-84231524D01*
X37513461Y-84247093D01*
X37597359Y-84382669D01*
X37608048Y-84396156D01*
X37720883Y-84508795D01*
X37734377Y-84519452D01*
X37870105Y-84603115D01*
X37885693Y-84610384D01*
X38037518Y-84660743D01*
X38053333Y-84664133D01*
X38145849Y-84673612D01*
X38153444Y-84674000D01*
X38551384Y-84674000D01*
X38566855Y-84669855D01*
X38571000Y-84654384D01*
X38571000Y-84654383D01*
X39079000Y-84654383D01*
X39083145Y-84669854D01*
X39098616Y-84673999D01*
X39496503Y-84673999D01*
X39504204Y-84673600D01*
X39597953Y-84663873D01*
X39613793Y-84660453D01*
X39765524Y-84609832D01*
X39781093Y-84602539D01*
X39916669Y-84518641D01*
X39930156Y-84507952D01*
X40042795Y-84395117D01*
X40053452Y-84381623D01*
X40137115Y-84245895D01*
X40144384Y-84230307D01*
X40194743Y-84078482D01*
X40198133Y-84062667D01*
X40207612Y-83970151D01*
X40208000Y-83962556D01*
X40208000Y-83839616D01*
X40203855Y-83824145D01*
X40188384Y-83820000D01*
X39098616Y-83820000D01*
X39083145Y-83824145D01*
X39079000Y-83839616D01*
X39079000Y-84654383D01*
X38571000Y-84654383D01*
X38571000Y-83839616D01*
X38566855Y-83824145D01*
X38551384Y-83820000D01*
X37461617Y-83820000D01*
X37446146Y-83824145D01*
X37442001Y-83839616D01*
X37442001Y-83962503D01*
X33360856Y-83962503D01*
X33335522Y-83914856D01*
X33335520Y-83914853D01*
X33332100Y-83908421D01*
X33327497Y-83902778D01*
X33327495Y-83902774D01*
X33212694Y-83762014D01*
X33208091Y-83756370D01*
X33056910Y-83631303D01*
X32884315Y-83537981D01*
X32753932Y-83497621D01*
X32703841Y-83482115D01*
X32703839Y-83482115D01*
X32696882Y-83479961D01*
X32689640Y-83479200D01*
X32689636Y-83479199D01*
X32508990Y-83460212D01*
X32508989Y-83460212D01*
X32501749Y-83459451D01*
X32306348Y-83477234D01*
X32118123Y-83532632D01*
X31944242Y-83623535D01*
X31791330Y-83746479D01*
X31665210Y-83896784D01*
X31570686Y-84068722D01*
X31568483Y-84075667D01*
X31542517Y-84157521D01*
X31500962Y-84222497D01*
X31442562Y-84255404D01*
X31382653Y-84273037D01*
X31382648Y-84273039D01*
X31375659Y-84275096D01*
X31201778Y-84365999D01*
X31196104Y-84370561D01*
X31084097Y-84460617D01*
X31048866Y-84488943D01*
X30922746Y-84639248D01*
X30828222Y-84811186D01*
X30768894Y-84998210D01*
X30768081Y-85005454D01*
X30768081Y-85005456D01*
X30763108Y-85049790D01*
X30747023Y-85193195D01*
X20600500Y-85193195D01*
X20600500Y-82413183D01*
X20620462Y-82338683D01*
X20675000Y-82284145D01*
X20749500Y-82264183D01*
X20767142Y-82265231D01*
X20926715Y-82284259D01*
X20926718Y-82284259D01*
X20933946Y-82285121D01*
X21045443Y-82276542D01*
X21122314Y-82270627D01*
X21122316Y-82270627D01*
X21129576Y-82270068D01*
X21318556Y-82217303D01*
X21325062Y-82214016D01*
X21325066Y-82214015D01*
X21487184Y-82132123D01*
X21487185Y-82132123D01*
X21493689Y-82128837D01*
X21648303Y-82008040D01*
X21776509Y-81859511D01*
X21866943Y-81700319D01*
X21869827Y-81695243D01*
X21869828Y-81695241D01*
X21873425Y-81688909D01*
X21935358Y-81502732D01*
X21939316Y-81471406D01*
X21959427Y-81312200D01*
X21959949Y-81308071D01*
X21960341Y-81280000D01*
X21941194Y-81084728D01*
X21884484Y-80896894D01*
X21853080Y-80837832D01*
X21795792Y-80730088D01*
X21795790Y-80730085D01*
X21792370Y-80723653D01*
X21787767Y-80718010D01*
X21787765Y-80718006D01*
X21672964Y-80577246D01*
X21668361Y-80571602D01*
X21616447Y-80528655D01*
X31184511Y-80528655D01*
X31215355Y-80665518D01*
X31219003Y-80677157D01*
X31298414Y-80872725D01*
X31303910Y-80883606D01*
X31414190Y-81063566D01*
X31421403Y-81073422D01*
X31559591Y-81232950D01*
X31568311Y-81241489D01*
X31730716Y-81376320D01*
X31740686Y-81383302D01*
X31922945Y-81489805D01*
X31933920Y-81495064D01*
X32131127Y-81570370D01*
X32142817Y-81573766D01*
X32243778Y-81594306D01*
X32259765Y-81593328D01*
X32263000Y-81586840D01*
X32263000Y-81581016D01*
X32771000Y-81581016D01*
X32775145Y-81596487D01*
X32784271Y-81598932D01*
X32794244Y-81597654D01*
X32806167Y-81595120D01*
X33008348Y-81534463D01*
X33019691Y-81530017D01*
X33209245Y-81437156D01*
X33219715Y-81430915D01*
X33391552Y-81308345D01*
X33400876Y-81300465D01*
X33408417Y-81292951D01*
X33475280Y-81254505D01*
X33552408Y-81254642D01*
X33619134Y-81293324D01*
X33651247Y-81341476D01*
X33678726Y-81407818D01*
X33678728Y-81407821D01*
X33682464Y-81416841D01*
X33778718Y-81542282D01*
X33904159Y-81638536D01*
X33913182Y-81642274D01*
X33913183Y-81642274D01*
X34041211Y-81695305D01*
X34050238Y-81699044D01*
X34059919Y-81700319D01*
X34059921Y-81700319D01*
X34162797Y-81713863D01*
X34162804Y-81713863D01*
X34167639Y-81714500D01*
X35056908Y-81714500D01*
X35946360Y-81714499D01*
X36063762Y-81699044D01*
X36072789Y-81695305D01*
X36156589Y-81660594D01*
X37348074Y-81660594D01*
X37385438Y-81878043D01*
X37387799Y-81884442D01*
X37387800Y-81884447D01*
X37394172Y-81901719D01*
X37461804Y-82085043D01*
X37574614Y-82274659D01*
X37696096Y-82413183D01*
X37713711Y-82433269D01*
X37747824Y-82502443D01*
X37742780Y-82579406D01*
X37707137Y-82636779D01*
X37607202Y-82736888D01*
X37596548Y-82750377D01*
X37512885Y-82886105D01*
X37505616Y-82901693D01*
X37455257Y-83053518D01*
X37451867Y-83069333D01*
X37442388Y-83161849D01*
X37442000Y-83169445D01*
X37442000Y-83292384D01*
X37446145Y-83307855D01*
X37461616Y-83312000D01*
X40188383Y-83312000D01*
X40203854Y-83307855D01*
X40207999Y-83292384D01*
X40207999Y-83169497D01*
X40207600Y-83161796D01*
X40197873Y-83068047D01*
X40194453Y-83052207D01*
X40143832Y-82900476D01*
X40136539Y-82884907D01*
X40052641Y-82749331D01*
X40041952Y-82735844D01*
X39941436Y-82635503D01*
X39902814Y-82568742D01*
X39902747Y-82491614D01*
X39937289Y-82428912D01*
X40051860Y-82304970D01*
X40051862Y-82304968D01*
X40056501Y-82299949D01*
X40066210Y-82284562D01*
X40170591Y-82119127D01*
X40174236Y-82113350D01*
X40255994Y-81908421D01*
X40267905Y-81848541D01*
X40297705Y-81698727D01*
X40297705Y-81698724D01*
X40299038Y-81692024D01*
X40300631Y-81570370D01*
X40301837Y-81478240D01*
X40301837Y-81478235D01*
X40301926Y-81471406D01*
X40294969Y-81430915D01*
X40265718Y-81260685D01*
X40264562Y-81253957D01*
X40262201Y-81247558D01*
X40262200Y-81247553D01*
X40220487Y-81134487D01*
X40188196Y-81046957D01*
X40075386Y-80857341D01*
X39929910Y-80691457D01*
X39924547Y-80687229D01*
X39762005Y-80559092D01*
X39762002Y-80559090D01*
X39756640Y-80554863D01*
X39649506Y-80498496D01*
X39567425Y-80455311D01*
X39567421Y-80455309D01*
X39561380Y-80452131D01*
X39463136Y-80421625D01*
X39357187Y-80388727D01*
X39357182Y-80388726D01*
X39350667Y-80386703D01*
X39343890Y-80385901D01*
X39343886Y-80385900D01*
X39175877Y-80366015D01*
X39175873Y-80366015D01*
X39171524Y-80365500D01*
X38494030Y-80365500D01*
X38330289Y-80380546D01*
X38117936Y-80440435D01*
X38111807Y-80443457D01*
X38111803Y-80443459D01*
X37952244Y-80522145D01*
X37920053Y-80538020D01*
X37914582Y-80542105D01*
X37914581Y-80542106D01*
X37891834Y-80559092D01*
X37743267Y-80670033D01*
X37738629Y-80675050D01*
X37738626Y-80675053D01*
X37598140Y-80827030D01*
X37593499Y-80832051D01*
X37589854Y-80837829D01*
X37589851Y-80837832D01*
X37479409Y-81012873D01*
X37475764Y-81018650D01*
X37394006Y-81223579D01*
X37387827Y-81254642D01*
X37357359Y-81407818D01*
X37350962Y-81439976D01*
X37350050Y-81509651D01*
X37348314Y-81642274D01*
X37348074Y-81660594D01*
X36156589Y-81660594D01*
X36200817Y-81642274D01*
X36200818Y-81642274D01*
X36209841Y-81638536D01*
X36335282Y-81542282D01*
X36431536Y-81416841D01*
X36482699Y-81293324D01*
X36488307Y-81279784D01*
X36492044Y-81270762D01*
X36494184Y-81254505D01*
X36506863Y-81158203D01*
X36506863Y-81158196D01*
X36507500Y-81153361D01*
X36507499Y-79374640D01*
X36492044Y-79257238D01*
X36431536Y-79111159D01*
X36335282Y-78985718D01*
X36209841Y-78889464D01*
X36153074Y-78865950D01*
X36072784Y-78832693D01*
X36063762Y-78828956D01*
X36054081Y-78827681D01*
X36054079Y-78827681D01*
X35951203Y-78814137D01*
X35951196Y-78814137D01*
X35946361Y-78813500D01*
X35057092Y-78813500D01*
X34167640Y-78813501D01*
X34050238Y-78828956D01*
X34041212Y-78832695D01*
X34041211Y-78832695D01*
X33960927Y-78865950D01*
X33904159Y-78889464D01*
X33778718Y-78985718D01*
X33682464Y-79111159D01*
X33678726Y-79120183D01*
X33678725Y-79120185D01*
X33650882Y-79187405D01*
X33603930Y-79248595D01*
X33532673Y-79278111D01*
X33456205Y-79268044D01*
X33420877Y-79247318D01*
X33275880Y-79132807D01*
X33265725Y-79126060D01*
X33080939Y-79024053D01*
X33069813Y-79019053D01*
X32870859Y-78948599D01*
X32859057Y-78945480D01*
X32790310Y-78933235D01*
X32774355Y-78934603D01*
X32771000Y-78941764D01*
X32771000Y-81581016D01*
X32263000Y-81581016D01*
X32263000Y-80537616D01*
X32258855Y-80522145D01*
X32243384Y-80518000D01*
X31201726Y-80518000D01*
X31186255Y-80522145D01*
X31184511Y-80528655D01*
X21616447Y-80528655D01*
X21517180Y-80446535D01*
X21344585Y-80353213D01*
X21214202Y-80312853D01*
X21164111Y-80297347D01*
X21164109Y-80297347D01*
X21157152Y-80295193D01*
X21149910Y-80294432D01*
X21149906Y-80294431D01*
X20969260Y-80275444D01*
X20969259Y-80275444D01*
X20962019Y-80274683D01*
X20766618Y-80292466D01*
X20766423Y-80290324D01*
X20700484Y-80285475D01*
X20636697Y-80242115D01*
X20603136Y-80172672D01*
X20600500Y-80144768D01*
X20600500Y-79997629D01*
X31181542Y-79997629D01*
X31182902Y-80006319D01*
X31192435Y-80010000D01*
X32243384Y-80010000D01*
X32258855Y-80005855D01*
X32263000Y-79990384D01*
X32263000Y-78948603D01*
X32258855Y-78933132D01*
X32250515Y-78930898D01*
X32207256Y-78937517D01*
X32195394Y-78940343D01*
X31994759Y-79005920D01*
X31983532Y-79010639D01*
X31796300Y-79108107D01*
X31785981Y-79114605D01*
X31617185Y-79241341D01*
X31608073Y-79249431D01*
X31462248Y-79402029D01*
X31454573Y-79411505D01*
X31335621Y-79585883D01*
X31329607Y-79596470D01*
X31240734Y-79787931D01*
X31236524Y-79799372D01*
X31181542Y-79997629D01*
X20600500Y-79997629D01*
X20600500Y-79221107D01*
X20620462Y-79146607D01*
X20675000Y-79092069D01*
X20749500Y-79072107D01*
X20822191Y-79091042D01*
X20927141Y-79149697D01*
X20927151Y-79149701D01*
X20933513Y-79153257D01*
X21120118Y-79213889D01*
X21193397Y-79222627D01*
X21307715Y-79236259D01*
X21307718Y-79236259D01*
X21314946Y-79237121D01*
X21426443Y-79228542D01*
X21503314Y-79222627D01*
X21503316Y-79222627D01*
X21510576Y-79222068D01*
X21699556Y-79169303D01*
X21706062Y-79166016D01*
X21706066Y-79166015D01*
X21868184Y-79084123D01*
X21868185Y-79084123D01*
X21874689Y-79080837D01*
X21947370Y-79024053D01*
X22007776Y-78976859D01*
X22078773Y-78946723D01*
X22155326Y-78956123D01*
X22196079Y-78980804D01*
X22286238Y-79057535D01*
X22292601Y-79061091D01*
X22451149Y-79149701D01*
X22451155Y-79149704D01*
X22457513Y-79153257D01*
X22644118Y-79213889D01*
X22717397Y-79222627D01*
X22831715Y-79236259D01*
X22831718Y-79236259D01*
X22838946Y-79237121D01*
X22950443Y-79228542D01*
X23027314Y-79222627D01*
X23027316Y-79222627D01*
X23034576Y-79222068D01*
X23223556Y-79169303D01*
X23230062Y-79166016D01*
X23230066Y-79166015D01*
X23392184Y-79084123D01*
X23392185Y-79084123D01*
X23398689Y-79080837D01*
X23510518Y-78993467D01*
X23547560Y-78964527D01*
X23547561Y-78964526D01*
X23553303Y-78960040D01*
X23681509Y-78811511D01*
X23748993Y-78692718D01*
X23774827Y-78647243D01*
X23774828Y-78647241D01*
X23778425Y-78640909D01*
X23786219Y-78617481D01*
X23838056Y-78461651D01*
X23840358Y-78454732D01*
X23864949Y-78260071D01*
X23865341Y-78232000D01*
X23846194Y-78036728D01*
X23789484Y-77848894D01*
X23737916Y-77751909D01*
X23700792Y-77682088D01*
X23700790Y-77682085D01*
X23697370Y-77675653D01*
X23692767Y-77670010D01*
X23692765Y-77670006D01*
X23577964Y-77529246D01*
X23573361Y-77523602D01*
X23422180Y-77398535D01*
X23401572Y-77387392D01*
X23388513Y-77380331D01*
X23334191Y-77328963D01*
X26934757Y-77328963D01*
X26951175Y-77524483D01*
X27005258Y-77713091D01*
X27094944Y-77887601D01*
X27216818Y-78041369D01*
X27366238Y-78168535D01*
X27372601Y-78172091D01*
X27531149Y-78260701D01*
X27531155Y-78260704D01*
X27537513Y-78264257D01*
X27724118Y-78324889D01*
X27797397Y-78333627D01*
X27911715Y-78347259D01*
X27911718Y-78347259D01*
X27918946Y-78348121D01*
X28030443Y-78339542D01*
X28107314Y-78333627D01*
X28107316Y-78333627D01*
X28114576Y-78333068D01*
X28303556Y-78280303D01*
X28310062Y-78277016D01*
X28310066Y-78277015D01*
X28472184Y-78195123D01*
X28472185Y-78195123D01*
X28478689Y-78191837D01*
X28633303Y-78071040D01*
X28761509Y-77922511D01*
X28858425Y-77751909D01*
X28920358Y-77565732D01*
X28921293Y-77558335D01*
X28930774Y-77483280D01*
X28944949Y-77371071D01*
X28945341Y-77343000D01*
X28926194Y-77147728D01*
X28869484Y-76959894D01*
X28852547Y-76928040D01*
X28780792Y-76793088D01*
X28780790Y-76793085D01*
X28777370Y-76786653D01*
X28772767Y-76781010D01*
X28772765Y-76781006D01*
X28657964Y-76640246D01*
X28653361Y-76634602D01*
X28502180Y-76509535D01*
X28329585Y-76416213D01*
X28193908Y-76374214D01*
X28149111Y-76360347D01*
X28149109Y-76360347D01*
X28142152Y-76358193D01*
X28134910Y-76357432D01*
X28134906Y-76357431D01*
X28116207Y-76355466D01*
X28103435Y-76354124D01*
X28031431Y-76326484D01*
X28000539Y-76288337D01*
X27947152Y-76330348D01*
X27901960Y-76341784D01*
X27751618Y-76355466D01*
X27563393Y-76410864D01*
X27389512Y-76501767D01*
X27383838Y-76506329D01*
X27313248Y-76563085D01*
X27236600Y-76624711D01*
X27110480Y-76775016D01*
X27015956Y-76946954D01*
X26956628Y-77133978D01*
X26955815Y-77141222D01*
X26955815Y-77141224D01*
X26937642Y-77303240D01*
X26934757Y-77328963D01*
X23334191Y-77328963D01*
X23332473Y-77327338D01*
X23310438Y-77253424D01*
X23328312Y-77178396D01*
X23381305Y-77122356D01*
X23392199Y-77116268D01*
X23519184Y-77052123D01*
X23519185Y-77052123D01*
X23525689Y-77048837D01*
X23680303Y-76928040D01*
X23808509Y-76779511D01*
X23890829Y-76634602D01*
X23901827Y-76615243D01*
X23901828Y-76615241D01*
X23905425Y-76608909D01*
X23967358Y-76422732D01*
X23968858Y-76410864D01*
X23991427Y-76232200D01*
X23991949Y-76228071D01*
X23992341Y-76200000D01*
X23990965Y-76185963D01*
X40650757Y-76185963D01*
X40667175Y-76381483D01*
X40669185Y-76388492D01*
X40669185Y-76388493D01*
X40702974Y-76506329D01*
X40721258Y-76570091D01*
X40810944Y-76744601D01*
X40932818Y-76898369D01*
X41082238Y-77025535D01*
X41088601Y-77029091D01*
X41247149Y-77117701D01*
X41247155Y-77117704D01*
X41253513Y-77121257D01*
X41440118Y-77181889D01*
X41513397Y-77190627D01*
X41627715Y-77204259D01*
X41627718Y-77204259D01*
X41634946Y-77205121D01*
X41746443Y-77196542D01*
X41823314Y-77190627D01*
X41823316Y-77190627D01*
X41830576Y-77190068D01*
X41956267Y-77154974D01*
X42012533Y-77139264D01*
X42012534Y-77139264D01*
X42019556Y-77137303D01*
X42026062Y-77134016D01*
X42026066Y-77134015D01*
X42188184Y-77052123D01*
X42188185Y-77052123D01*
X42194689Y-77048837D01*
X42349303Y-76928040D01*
X42477509Y-76779511D01*
X42559829Y-76634602D01*
X42570827Y-76615243D01*
X42570828Y-76615241D01*
X42574425Y-76608909D01*
X42636358Y-76422732D01*
X42637858Y-76410864D01*
X42660427Y-76232200D01*
X42660949Y-76228071D01*
X42661341Y-76200000D01*
X42642194Y-76004728D01*
X42585484Y-75816894D01*
X42568547Y-75785040D01*
X42496792Y-75650088D01*
X42496790Y-75650085D01*
X42493370Y-75643653D01*
X42488767Y-75638010D01*
X42488765Y-75638006D01*
X42373964Y-75497246D01*
X42369361Y-75491602D01*
X42218180Y-75366535D01*
X42045585Y-75273213D01*
X41909908Y-75231214D01*
X41865111Y-75217347D01*
X41865109Y-75217347D01*
X41858152Y-75215193D01*
X41850910Y-75214432D01*
X41850906Y-75214431D01*
X41670260Y-75195444D01*
X41670259Y-75195444D01*
X41663019Y-75194683D01*
X41467618Y-75212466D01*
X41279393Y-75267864D01*
X41105512Y-75358767D01*
X41099838Y-75363329D01*
X41029248Y-75420085D01*
X40952600Y-75481711D01*
X40826480Y-75632016D01*
X40731956Y-75803954D01*
X40672628Y-75990978D01*
X40671815Y-75998222D01*
X40671815Y-75998224D01*
X40666274Y-76047627D01*
X40650757Y-76185963D01*
X23990965Y-76185963D01*
X23973194Y-76004728D01*
X23916484Y-75816894D01*
X23899547Y-75785040D01*
X23827792Y-75650088D01*
X23827790Y-75650085D01*
X23824370Y-75643653D01*
X23819767Y-75638010D01*
X23819765Y-75638006D01*
X23704964Y-75497246D01*
X23700361Y-75491602D01*
X23549180Y-75366535D01*
X23376585Y-75273213D01*
X23240908Y-75231214D01*
X23196111Y-75217347D01*
X23196109Y-75217347D01*
X23189152Y-75215193D01*
X23181910Y-75214432D01*
X23181906Y-75214431D01*
X23001260Y-75195444D01*
X23001259Y-75195444D01*
X22994019Y-75194683D01*
X22798618Y-75212466D01*
X22610393Y-75267864D01*
X22436512Y-75358767D01*
X22430838Y-75363329D01*
X22360248Y-75420085D01*
X22283600Y-75481711D01*
X22157480Y-75632016D01*
X22062956Y-75803954D01*
X22003628Y-75990978D01*
X22002815Y-75998222D01*
X22002815Y-75998224D01*
X21997274Y-76047627D01*
X21981757Y-76185963D01*
X21998175Y-76381483D01*
X22000185Y-76388492D01*
X22000185Y-76388493D01*
X22033974Y-76506329D01*
X22052258Y-76570091D01*
X22141944Y-76744601D01*
X22263818Y-76898369D01*
X22413238Y-77025535D01*
X22419600Y-77029091D01*
X22419605Y-77029094D01*
X22460210Y-77051787D01*
X22515505Y-77105558D01*
X22536505Y-77179772D01*
X22517586Y-77254543D01*
X22463815Y-77309838D01*
X22456560Y-77313892D01*
X22309512Y-77390767D01*
X22303838Y-77395329D01*
X22190859Y-77486166D01*
X22120290Y-77517290D01*
X22043613Y-77508960D01*
X22002519Y-77484851D01*
X21903796Y-77403181D01*
X21898180Y-77398535D01*
X21725585Y-77305213D01*
X21561896Y-77254543D01*
X21545111Y-77249347D01*
X21545109Y-77249347D01*
X21538152Y-77247193D01*
X21530910Y-77246432D01*
X21530906Y-77246431D01*
X21350260Y-77227444D01*
X21350259Y-77227444D01*
X21343019Y-77226683D01*
X21147618Y-77244466D01*
X20959393Y-77299864D01*
X20903732Y-77328963D01*
X20818531Y-77373505D01*
X20743261Y-77390330D01*
X20669662Y-77367266D01*
X20617456Y-77310492D01*
X20600500Y-77241461D01*
X20600500Y-75042963D01*
X27061757Y-75042963D01*
X27078175Y-75238483D01*
X27080185Y-75245492D01*
X27080185Y-75245493D01*
X27113974Y-75363329D01*
X27132258Y-75427091D01*
X27221944Y-75601601D01*
X27343818Y-75755369D01*
X27493238Y-75882535D01*
X27499601Y-75886091D01*
X27658149Y-75974701D01*
X27658155Y-75974704D01*
X27664513Y-75978257D01*
X27851118Y-76038889D01*
X27903280Y-76045109D01*
X27906098Y-76045445D01*
X27977710Y-76074088D01*
X28007067Y-76111395D01*
X28058405Y-76069822D01*
X28107578Y-76057379D01*
X28234314Y-76047627D01*
X28234316Y-76047627D01*
X28241576Y-76047068D01*
X28367267Y-76011974D01*
X28423533Y-75996264D01*
X28423534Y-75996264D01*
X28430556Y-75994303D01*
X28437062Y-75991016D01*
X28437066Y-75991015D01*
X28599184Y-75909123D01*
X28599185Y-75909123D01*
X28605689Y-75905837D01*
X28760303Y-75785040D01*
X28888509Y-75636511D01*
X28970829Y-75491602D01*
X28981827Y-75472243D01*
X28981828Y-75472241D01*
X28985425Y-75465909D01*
X29047358Y-75279732D01*
X29048858Y-75267864D01*
X29069393Y-75105303D01*
X29071949Y-75085071D01*
X29072341Y-75057000D01*
X29071867Y-75052164D01*
X29071898Y-75051979D01*
X29071760Y-75048694D01*
X29072446Y-75048665D01*
X29084469Y-74976072D01*
X29133428Y-74916476D01*
X29205626Y-74889343D01*
X29281718Y-74901945D01*
X29316727Y-74924164D01*
X29398238Y-74993535D01*
X29404601Y-74997091D01*
X29563149Y-75085701D01*
X29563155Y-75085704D01*
X29569513Y-75089257D01*
X29756118Y-75149889D01*
X29829397Y-75158627D01*
X29943715Y-75172259D01*
X29943718Y-75172259D01*
X29950946Y-75173121D01*
X30062443Y-75164542D01*
X30139314Y-75158627D01*
X30139316Y-75158627D01*
X30146576Y-75158068D01*
X30335556Y-75105303D01*
X30342062Y-75102016D01*
X30342066Y-75102015D01*
X30504184Y-75020123D01*
X30504185Y-75020123D01*
X30510689Y-75016837D01*
X30665303Y-74896040D01*
X30793509Y-74747511D01*
X30890425Y-74576909D01*
X30952358Y-74390732D01*
X30956426Y-74358535D01*
X30968175Y-74265527D01*
X30976949Y-74196071D01*
X30977095Y-74185599D01*
X30977283Y-74172176D01*
X30977283Y-74172170D01*
X30977341Y-74168000D01*
X30958194Y-73972728D01*
X30901484Y-73784894D01*
X30885978Y-73755732D01*
X30812792Y-73618088D01*
X30812790Y-73618085D01*
X30809370Y-73611653D01*
X30804767Y-73606010D01*
X30804765Y-73606006D01*
X30689964Y-73465246D01*
X30685361Y-73459602D01*
X30534180Y-73334535D01*
X30527197Y-73330759D01*
X30491724Y-73311579D01*
X30361585Y-73241213D01*
X30231202Y-73200853D01*
X30181111Y-73185347D01*
X30181109Y-73185347D01*
X30174152Y-73183193D01*
X30166910Y-73182432D01*
X30166906Y-73182431D01*
X29986260Y-73163444D01*
X29986259Y-73163444D01*
X29979019Y-73162683D01*
X29783618Y-73180466D01*
X29595393Y-73235864D01*
X29578530Y-73244680D01*
X29525753Y-73272271D01*
X29450483Y-73289096D01*
X29376884Y-73266032D01*
X29324678Y-73209258D01*
X29307853Y-73133988D01*
X29308896Y-73121566D01*
X29325949Y-72986574D01*
X29326095Y-72976102D01*
X29326283Y-72962679D01*
X29326283Y-72962673D01*
X29326341Y-72958503D01*
X29307194Y-72763231D01*
X29250484Y-72575397D01*
X29237165Y-72550347D01*
X29161792Y-72408591D01*
X29161790Y-72408588D01*
X29158370Y-72402156D01*
X29153767Y-72396513D01*
X29153765Y-72396509D01*
X29038964Y-72255749D01*
X29034361Y-72250105D01*
X28883180Y-72125038D01*
X28877493Y-72121963D01*
X36840757Y-72121963D01*
X36857175Y-72317483D01*
X36859185Y-72324492D01*
X36859185Y-72324493D01*
X36879949Y-72396904D01*
X36911258Y-72506091D01*
X37000944Y-72680601D01*
X37122818Y-72834369D01*
X37272238Y-72961535D01*
X37299289Y-72976653D01*
X37437149Y-73053701D01*
X37437155Y-73053704D01*
X37443513Y-73057257D01*
X37630118Y-73117889D01*
X37703397Y-73126627D01*
X37817715Y-73140259D01*
X37817718Y-73140259D01*
X37824946Y-73141121D01*
X37940559Y-73132225D01*
X38013314Y-73126627D01*
X38013316Y-73126627D01*
X38020576Y-73126068D01*
X38209556Y-73073303D01*
X38216062Y-73070016D01*
X38216066Y-73070015D01*
X38378184Y-72988123D01*
X38378185Y-72988123D01*
X38384689Y-72984837D01*
X38539303Y-72864040D01*
X38667509Y-72715511D01*
X38729599Y-72606213D01*
X38760827Y-72551243D01*
X38760828Y-72551241D01*
X38764425Y-72544909D01*
X38826358Y-72358732D01*
X38850949Y-72164071D01*
X38851341Y-72136000D01*
X38849965Y-72121963D01*
X39634757Y-72121963D01*
X39651175Y-72317483D01*
X39653185Y-72324492D01*
X39653185Y-72324493D01*
X39673949Y-72396904D01*
X39705258Y-72506091D01*
X39794944Y-72680601D01*
X39916818Y-72834369D01*
X40066238Y-72961535D01*
X40093289Y-72976653D01*
X40231149Y-73053701D01*
X40231155Y-73053704D01*
X40237513Y-73057257D01*
X40424118Y-73117889D01*
X40497397Y-73126627D01*
X40547889Y-73132648D01*
X40619502Y-73161291D01*
X40667198Y-73221903D01*
X40678199Y-73298242D01*
X40675991Y-73311579D01*
X40674833Y-73317028D01*
X40672628Y-73323978D01*
X40671815Y-73331222D01*
X40671815Y-73331224D01*
X40670273Y-73344974D01*
X40650757Y-73518963D01*
X40667175Y-73714483D01*
X40669185Y-73721492D01*
X40669185Y-73721493D01*
X40709404Y-73861753D01*
X40721258Y-73903091D01*
X40810944Y-74077601D01*
X40932818Y-74231369D01*
X41082238Y-74358535D01*
X41088601Y-74362091D01*
X41247149Y-74450701D01*
X41247155Y-74450704D01*
X41253513Y-74454257D01*
X41440118Y-74514889D01*
X41513397Y-74523627D01*
X41627715Y-74537259D01*
X41627718Y-74537259D01*
X41634946Y-74538121D01*
X41746443Y-74529542D01*
X41823314Y-74523627D01*
X41823316Y-74523627D01*
X41830576Y-74523068D01*
X41910856Y-74500653D01*
X42012533Y-74472264D01*
X42012534Y-74472264D01*
X42019556Y-74470303D01*
X42026062Y-74467016D01*
X42026066Y-74467015D01*
X42188184Y-74385123D01*
X42188185Y-74385123D01*
X42194689Y-74381837D01*
X42349303Y-74261040D01*
X42477509Y-74112511D01*
X42562089Y-73963624D01*
X42570827Y-73948243D01*
X42570828Y-73948241D01*
X42574425Y-73941909D01*
X42636358Y-73755732D01*
X42645099Y-73686543D01*
X42660427Y-73565200D01*
X42660949Y-73561071D01*
X42661341Y-73533000D01*
X42642194Y-73337728D01*
X42585484Y-73149894D01*
X42573113Y-73126627D01*
X42496792Y-72983088D01*
X42496790Y-72983085D01*
X42493370Y-72976653D01*
X42488767Y-72971010D01*
X42488765Y-72971006D01*
X42373964Y-72830246D01*
X42369361Y-72824602D01*
X42218180Y-72699535D01*
X42045585Y-72606213D01*
X41904232Y-72562457D01*
X41865111Y-72550347D01*
X41865109Y-72550347D01*
X41858152Y-72548193D01*
X41850910Y-72547432D01*
X41850906Y-72547431D01*
X41750054Y-72536831D01*
X41678049Y-72509190D01*
X41629510Y-72449250D01*
X41617445Y-72373072D01*
X41619285Y-72361956D01*
X41620358Y-72358732D01*
X41644949Y-72164071D01*
X41645341Y-72136000D01*
X41626194Y-71940728D01*
X41569484Y-71752894D01*
X41477370Y-71579653D01*
X41472767Y-71574010D01*
X41472765Y-71574006D01*
X41357964Y-71433246D01*
X41353361Y-71427602D01*
X41202180Y-71302535D01*
X41029585Y-71209213D01*
X40899202Y-71168853D01*
X40849111Y-71153347D01*
X40849109Y-71153347D01*
X40842152Y-71151193D01*
X40834910Y-71150432D01*
X40834906Y-71150431D01*
X40654260Y-71131444D01*
X40654259Y-71131444D01*
X40647019Y-71130683D01*
X40451618Y-71148466D01*
X40263393Y-71203864D01*
X40089512Y-71294767D01*
X39936600Y-71417711D01*
X39810480Y-71568016D01*
X39715956Y-71739954D01*
X39656628Y-71926978D01*
X39655815Y-71934222D01*
X39655815Y-71934224D01*
X39645101Y-72029743D01*
X39634757Y-72121963D01*
X38849965Y-72121963D01*
X38832194Y-71940728D01*
X38775484Y-71752894D01*
X38683370Y-71579653D01*
X38678767Y-71574010D01*
X38678765Y-71574006D01*
X38563964Y-71433246D01*
X38559361Y-71427602D01*
X38408180Y-71302535D01*
X38235585Y-71209213D01*
X38105202Y-71168853D01*
X38055111Y-71153347D01*
X38055109Y-71153347D01*
X38048152Y-71151193D01*
X38040910Y-71150432D01*
X38040906Y-71150431D01*
X37860260Y-71131444D01*
X37860259Y-71131444D01*
X37853019Y-71130683D01*
X37657618Y-71148466D01*
X37469393Y-71203864D01*
X37295512Y-71294767D01*
X37142600Y-71417711D01*
X37016480Y-71568016D01*
X36921956Y-71739954D01*
X36862628Y-71926978D01*
X36861815Y-71934222D01*
X36861815Y-71934224D01*
X36851101Y-72029743D01*
X36840757Y-72121963D01*
X28877493Y-72121963D01*
X28710585Y-72031716D01*
X28580202Y-71991356D01*
X28530111Y-71975850D01*
X28530109Y-71975850D01*
X28523152Y-71973696D01*
X28515910Y-71972935D01*
X28515906Y-71972934D01*
X28335260Y-71953947D01*
X28335259Y-71953947D01*
X28328019Y-71953186D01*
X28132618Y-71970969D01*
X27944393Y-72026367D01*
X27770512Y-72117270D01*
X27764838Y-72121832D01*
X27747217Y-72136000D01*
X27617600Y-72240214D01*
X27491480Y-72390519D01*
X27396956Y-72562457D01*
X27337628Y-72749481D01*
X27336815Y-72756725D01*
X27336815Y-72756727D01*
X27325397Y-72858523D01*
X27315757Y-72944466D01*
X27332175Y-73139986D01*
X27334185Y-73146995D01*
X27334185Y-73146996D01*
X27359078Y-73233808D01*
X27386258Y-73328594D01*
X27475944Y-73503104D01*
X27597818Y-73656872D01*
X27747238Y-73784038D01*
X27753601Y-73787594D01*
X27753608Y-73787599D01*
X27817684Y-73823410D01*
X27872978Y-73877181D01*
X27893978Y-73951395D01*
X27875058Y-74026166D01*
X27821287Y-74081460D01*
X27787065Y-74096412D01*
X27690393Y-74124864D01*
X27516512Y-74215767D01*
X27510838Y-74220329D01*
X27460204Y-74261040D01*
X27363600Y-74338711D01*
X27237480Y-74489016D01*
X27142956Y-74660954D01*
X27083628Y-74847978D01*
X27082815Y-74855222D01*
X27082815Y-74855224D01*
X27075945Y-74916476D01*
X27061757Y-75042963D01*
X20600500Y-75042963D01*
X20600500Y-68565963D01*
X21053257Y-68565963D01*
X21069675Y-68761483D01*
X21123758Y-68950091D01*
X21213444Y-69124601D01*
X21236725Y-69153974D01*
X21330601Y-69272417D01*
X21335318Y-69278369D01*
X21340871Y-69283095D01*
X21343469Y-69285785D01*
X21380864Y-69353241D01*
X21379521Y-69430357D01*
X21366863Y-69461069D01*
X21300956Y-69580954D01*
X21241628Y-69767978D01*
X21240815Y-69775222D01*
X21240815Y-69775224D01*
X21223788Y-69927022D01*
X21219757Y-69962963D01*
X21236175Y-70158483D01*
X21238185Y-70165492D01*
X21238185Y-70165493D01*
X21283605Y-70323889D01*
X21290258Y-70347091D01*
X21379944Y-70521601D01*
X21501818Y-70675369D01*
X21651238Y-70802535D01*
X21657601Y-70806091D01*
X21816149Y-70894701D01*
X21816155Y-70894704D01*
X21822513Y-70898257D01*
X22009118Y-70958889D01*
X22082397Y-70967627D01*
X22196715Y-70981259D01*
X22196718Y-70981259D01*
X22203946Y-70982121D01*
X22315443Y-70973542D01*
X22392314Y-70967627D01*
X22392316Y-70967627D01*
X22399576Y-70967068D01*
X22588556Y-70914303D01*
X22595062Y-70911016D01*
X22595066Y-70911015D01*
X22757184Y-70829123D01*
X22757185Y-70829123D01*
X22763689Y-70825837D01*
X22918303Y-70705040D01*
X23046509Y-70556511D01*
X23143425Y-70385909D01*
X23205358Y-70199732D01*
X23209426Y-70167535D01*
X23221175Y-70074527D01*
X23229949Y-70005071D01*
X23230341Y-69977000D01*
X23211194Y-69781728D01*
X23154484Y-69593894D01*
X23147604Y-69580954D01*
X23065792Y-69427088D01*
X23065790Y-69427085D01*
X23062370Y-69420653D01*
X23057767Y-69415010D01*
X23057765Y-69415006D01*
X22986775Y-69327963D01*
X36840757Y-69327963D01*
X36857175Y-69523483D01*
X36911258Y-69712091D01*
X37000944Y-69886601D01*
X37122818Y-70040369D01*
X37272238Y-70167535D01*
X37278601Y-70171091D01*
X37437149Y-70259701D01*
X37437155Y-70259704D01*
X37443513Y-70263257D01*
X37630118Y-70323889D01*
X37703397Y-70332627D01*
X37817715Y-70346259D01*
X37817718Y-70346259D01*
X37824946Y-70347121D01*
X37936443Y-70338542D01*
X38013314Y-70332627D01*
X38013316Y-70332627D01*
X38020576Y-70332068D01*
X38209556Y-70279303D01*
X38216062Y-70276016D01*
X38216066Y-70276015D01*
X38378184Y-70194123D01*
X38378185Y-70194123D01*
X38384689Y-70190837D01*
X38539303Y-70070040D01*
X38667509Y-69921511D01*
X38750876Y-69774759D01*
X38760827Y-69757243D01*
X38760828Y-69757241D01*
X38764425Y-69750909D01*
X38826358Y-69564732D01*
X38850949Y-69370071D01*
X38851341Y-69342000D01*
X38832194Y-69146728D01*
X38775484Y-68958894D01*
X38772061Y-68952456D01*
X38686792Y-68792088D01*
X38686790Y-68792085D01*
X38683370Y-68785653D01*
X38678767Y-68780010D01*
X38678765Y-68780006D01*
X38563964Y-68639246D01*
X38559361Y-68633602D01*
X38408180Y-68508535D01*
X38235585Y-68415213D01*
X38092684Y-68370978D01*
X38055111Y-68359347D01*
X38055109Y-68359347D01*
X38048152Y-68357193D01*
X38040910Y-68356432D01*
X38040906Y-68356431D01*
X37860260Y-68337444D01*
X37860259Y-68337444D01*
X37853019Y-68336683D01*
X37657618Y-68354466D01*
X37469393Y-68409864D01*
X37295512Y-68500767D01*
X37289838Y-68505329D01*
X37159498Y-68610125D01*
X37142600Y-68623711D01*
X37016480Y-68774016D01*
X36921956Y-68945954D01*
X36862628Y-69132978D01*
X36861815Y-69140222D01*
X36861815Y-69140224D01*
X36860273Y-69153974D01*
X36840757Y-69327963D01*
X22986775Y-69327963D01*
X22942964Y-69274245D01*
X22942960Y-69274241D01*
X22938361Y-69268602D01*
X22938772Y-69268267D01*
X22902819Y-69205487D01*
X22903089Y-69128360D01*
X22917321Y-69093832D01*
X22973325Y-68995248D01*
X22973329Y-68995239D01*
X22976925Y-68988909D01*
X23038858Y-68802732D01*
X23042947Y-68770369D01*
X23058761Y-68645182D01*
X23063449Y-68608071D01*
X23063841Y-68580000D01*
X23044694Y-68384728D01*
X23036179Y-68356523D01*
X23015339Y-68287499D01*
X22987984Y-68196894D01*
X22938698Y-68104200D01*
X22914113Y-68057963D01*
X27315757Y-68057963D01*
X27332175Y-68253483D01*
X27334185Y-68260492D01*
X27334185Y-68260493D01*
X27361914Y-68357193D01*
X27386258Y-68442091D01*
X27475944Y-68616601D01*
X27597818Y-68770369D01*
X27747238Y-68897535D01*
X27753601Y-68901091D01*
X27912149Y-68989701D01*
X27912155Y-68989704D01*
X27918513Y-68993257D01*
X28105118Y-69053889D01*
X28178397Y-69062627D01*
X28292715Y-69076259D01*
X28292718Y-69076259D01*
X28299946Y-69077121D01*
X28411443Y-69068542D01*
X28488314Y-69062627D01*
X28488316Y-69062627D01*
X28495576Y-69062068D01*
X28684556Y-69009303D01*
X28691062Y-69006016D01*
X28691066Y-69006015D01*
X28853184Y-68924123D01*
X28853185Y-68924123D01*
X28859689Y-68920837D01*
X28936996Y-68860438D01*
X29008560Y-68804527D01*
X29008561Y-68804526D01*
X29014303Y-68800040D01*
X29142509Y-68651511D01*
X29223731Y-68508535D01*
X29235827Y-68487243D01*
X29235828Y-68487241D01*
X29239425Y-68480909D01*
X29301358Y-68294732D01*
X29325949Y-68100071D01*
X29326341Y-68072000D01*
X29307194Y-67876728D01*
X29250484Y-67688894D01*
X29240209Y-67669570D01*
X29161792Y-67522088D01*
X29161790Y-67522085D01*
X29158370Y-67515653D01*
X29153767Y-67510010D01*
X29153765Y-67510006D01*
X29038964Y-67369246D01*
X29034361Y-67363602D01*
X28883180Y-67238535D01*
X28710585Y-67145213D01*
X28580202Y-67104853D01*
X28530111Y-67089347D01*
X28530109Y-67089347D01*
X28523152Y-67087193D01*
X28515910Y-67086432D01*
X28515906Y-67086431D01*
X28335260Y-67067444D01*
X28335259Y-67067444D01*
X28328019Y-67066683D01*
X28132618Y-67084466D01*
X27944393Y-67139864D01*
X27770512Y-67230767D01*
X27764838Y-67235329D01*
X27686569Y-67298259D01*
X27617600Y-67353711D01*
X27491480Y-67504016D01*
X27396956Y-67675954D01*
X27337628Y-67862978D01*
X27336815Y-67870222D01*
X27336815Y-67870224D01*
X27316569Y-68050722D01*
X27315757Y-68057963D01*
X22914113Y-68057963D01*
X22899292Y-68030088D01*
X22899290Y-68030085D01*
X22895870Y-68023653D01*
X22891267Y-68018010D01*
X22891265Y-68018006D01*
X22776464Y-67877246D01*
X22771861Y-67871602D01*
X22620680Y-67746535D01*
X22448085Y-67653213D01*
X22317702Y-67612853D01*
X22267611Y-67597347D01*
X22267609Y-67597347D01*
X22260652Y-67595193D01*
X22253410Y-67594432D01*
X22253406Y-67594431D01*
X22072760Y-67575444D01*
X22072759Y-67575444D01*
X22065519Y-67574683D01*
X21870118Y-67592466D01*
X21681893Y-67647864D01*
X21508012Y-67738767D01*
X21355100Y-67861711D01*
X21228980Y-68012016D01*
X21134456Y-68183954D01*
X21075128Y-68370978D01*
X21074315Y-68378222D01*
X21074315Y-68378224D01*
X21059177Y-68513181D01*
X21053257Y-68565963D01*
X20600500Y-68565963D01*
X20600500Y-66279963D01*
X34173757Y-66279963D01*
X34190175Y-66475483D01*
X34244258Y-66664091D01*
X34333944Y-66838601D01*
X34455818Y-66992369D01*
X34605238Y-67119535D01*
X34611601Y-67123091D01*
X34770149Y-67211701D01*
X34770155Y-67211704D01*
X34776513Y-67215257D01*
X34963118Y-67275889D01*
X35036397Y-67284627D01*
X35150715Y-67298259D01*
X35150718Y-67298259D01*
X35157946Y-67299121D01*
X35269443Y-67290542D01*
X35346314Y-67284627D01*
X35346316Y-67284627D01*
X35353576Y-67284068D01*
X35425771Y-67263911D01*
X35535533Y-67233264D01*
X35535534Y-67233264D01*
X35542556Y-67231303D01*
X35549062Y-67228016D01*
X35549066Y-67228015D01*
X35711184Y-67146123D01*
X35711185Y-67146123D01*
X35717689Y-67142837D01*
X35814188Y-67067444D01*
X35866560Y-67026527D01*
X35866561Y-67026526D01*
X35872303Y-67022040D01*
X36000509Y-66873511D01*
X36097425Y-66702909D01*
X36159358Y-66516732D01*
X36183949Y-66322071D01*
X36184341Y-66294000D01*
X36182965Y-66279963D01*
X37729757Y-66279963D01*
X37746175Y-66475483D01*
X37800258Y-66664091D01*
X37889944Y-66838601D01*
X38011818Y-66992369D01*
X38161238Y-67119535D01*
X38167601Y-67123091D01*
X38326149Y-67211701D01*
X38326155Y-67211704D01*
X38332513Y-67215257D01*
X38519118Y-67275889D01*
X38592397Y-67284627D01*
X38706715Y-67298259D01*
X38706718Y-67298259D01*
X38713946Y-67299121D01*
X38825443Y-67290542D01*
X38902314Y-67284627D01*
X38902316Y-67284627D01*
X38909576Y-67284068D01*
X38981771Y-67263911D01*
X39091533Y-67233264D01*
X39091534Y-67233264D01*
X39098556Y-67231303D01*
X39105062Y-67228016D01*
X39105066Y-67228015D01*
X39267184Y-67146123D01*
X39267185Y-67146123D01*
X39273689Y-67142837D01*
X39370188Y-67067444D01*
X39422560Y-67026527D01*
X39422561Y-67026526D01*
X39428303Y-67022040D01*
X39556509Y-66873511D01*
X39653425Y-66702909D01*
X39715358Y-66516732D01*
X39739949Y-66322071D01*
X39740341Y-66294000D01*
X39721194Y-66098728D01*
X39664484Y-65910894D01*
X39647547Y-65879040D01*
X39575792Y-65744088D01*
X39575790Y-65744085D01*
X39572370Y-65737653D01*
X39567767Y-65732010D01*
X39567765Y-65732006D01*
X39452964Y-65591246D01*
X39448361Y-65585602D01*
X39297180Y-65460535D01*
X39124585Y-65367213D01*
X38994202Y-65326853D01*
X38944111Y-65311347D01*
X38944109Y-65311347D01*
X38937152Y-65309193D01*
X38929910Y-65308432D01*
X38929906Y-65308431D01*
X38749260Y-65289444D01*
X38749259Y-65289444D01*
X38742019Y-65288683D01*
X38546618Y-65306466D01*
X38358393Y-65361864D01*
X38184512Y-65452767D01*
X38031600Y-65575711D01*
X37905480Y-65726016D01*
X37810956Y-65897954D01*
X37751628Y-66084978D01*
X37750815Y-66092222D01*
X37750815Y-66092224D01*
X37745274Y-66141627D01*
X37729757Y-66279963D01*
X36182965Y-66279963D01*
X36165194Y-66098728D01*
X36108484Y-65910894D01*
X36091547Y-65879040D01*
X36019792Y-65744088D01*
X36019790Y-65744085D01*
X36016370Y-65737653D01*
X36011767Y-65732010D01*
X36011765Y-65732006D01*
X35896964Y-65591246D01*
X35892361Y-65585602D01*
X35741180Y-65460535D01*
X35568585Y-65367213D01*
X35438202Y-65326853D01*
X35388111Y-65311347D01*
X35388109Y-65311347D01*
X35381152Y-65309193D01*
X35373910Y-65308432D01*
X35373906Y-65308431D01*
X35193260Y-65289444D01*
X35193259Y-65289444D01*
X35186019Y-65288683D01*
X34990618Y-65306466D01*
X34802393Y-65361864D01*
X34628512Y-65452767D01*
X34475600Y-65575711D01*
X34349480Y-65726016D01*
X34254956Y-65897954D01*
X34195628Y-66084978D01*
X34194815Y-66092222D01*
X34194815Y-66092224D01*
X34189274Y-66141627D01*
X34173757Y-66279963D01*
X20600500Y-66279963D01*
X20600500Y-66140107D01*
X20620462Y-66065607D01*
X20675000Y-66011069D01*
X20749500Y-65991107D01*
X20822191Y-66010042D01*
X20927141Y-66068697D01*
X20927151Y-66068701D01*
X20933513Y-66072257D01*
X21120118Y-66132889D01*
X21193397Y-66141627D01*
X21307715Y-66155259D01*
X21307718Y-66155259D01*
X21314946Y-66156121D01*
X21426443Y-66147542D01*
X21503314Y-66141627D01*
X21503316Y-66141627D01*
X21510576Y-66141068D01*
X21636267Y-66105974D01*
X21692533Y-66090264D01*
X21692534Y-66090264D01*
X21699556Y-66088303D01*
X21706062Y-66085016D01*
X21706066Y-66085015D01*
X21868184Y-66003123D01*
X21868185Y-66003123D01*
X21874689Y-65999837D01*
X22029303Y-65879040D01*
X22157509Y-65730511D01*
X22239829Y-65585602D01*
X22250827Y-65566243D01*
X22250828Y-65566241D01*
X22254425Y-65559909D01*
X22316358Y-65373732D01*
X22317858Y-65361864D01*
X22340427Y-65183200D01*
X22340949Y-65179071D01*
X22341341Y-65151000D01*
X22322194Y-64955728D01*
X22265484Y-64767894D01*
X22173370Y-64594653D01*
X22168767Y-64589010D01*
X22168765Y-64589006D01*
X22053964Y-64448246D01*
X22049361Y-64442602D01*
X21898180Y-64317535D01*
X21725585Y-64224213D01*
X21595202Y-64183853D01*
X21545111Y-64168347D01*
X21545109Y-64168347D01*
X21538152Y-64166193D01*
X21530910Y-64165432D01*
X21530906Y-64165431D01*
X21350260Y-64146444D01*
X21350259Y-64146444D01*
X21343019Y-64145683D01*
X21147618Y-64163466D01*
X20959393Y-64218864D01*
X20942530Y-64227680D01*
X20818531Y-64292505D01*
X20743261Y-64309330D01*
X20669662Y-64286266D01*
X20617456Y-64229492D01*
X20600500Y-64160461D01*
X20600500Y-61961963D01*
X28077757Y-61961963D01*
X28094175Y-62157483D01*
X28096185Y-62164492D01*
X28096185Y-62164493D01*
X28112175Y-62220256D01*
X28148258Y-62346091D01*
X28237944Y-62520601D01*
X28359818Y-62674369D01*
X28509238Y-62801535D01*
X28515601Y-62805091D01*
X28674149Y-62893701D01*
X28674155Y-62893704D01*
X28680513Y-62897257D01*
X28867118Y-62957889D01*
X28940397Y-62966627D01*
X29054715Y-62980259D01*
X29054718Y-62980259D01*
X29061946Y-62981121D01*
X29173443Y-62972542D01*
X29250314Y-62966627D01*
X29250316Y-62966627D01*
X29257576Y-62966068D01*
X29329771Y-62945911D01*
X29439533Y-62915264D01*
X29439534Y-62915264D01*
X29446556Y-62913303D01*
X29453062Y-62910016D01*
X29453066Y-62910015D01*
X29615184Y-62828123D01*
X29615185Y-62828123D01*
X29621689Y-62824837D01*
X29776303Y-62704040D01*
X29904509Y-62555511D01*
X30001425Y-62384909D01*
X30063358Y-62198732D01*
X30066480Y-62174019D01*
X33453701Y-62174019D01*
X33470119Y-62369539D01*
X33472129Y-62376548D01*
X33472129Y-62376549D01*
X33479873Y-62403555D01*
X33524202Y-62558147D01*
X33613888Y-62732657D01*
X33735762Y-62886425D01*
X33885182Y-63013591D01*
X33891545Y-63017147D01*
X34050093Y-63105757D01*
X34050099Y-63105760D01*
X34056457Y-63109313D01*
X34243062Y-63169945D01*
X34316341Y-63178683D01*
X34430659Y-63192315D01*
X34430662Y-63192315D01*
X34437890Y-63193177D01*
X34549387Y-63184598D01*
X34626258Y-63178683D01*
X34626260Y-63178683D01*
X34633520Y-63178124D01*
X34822500Y-63125359D01*
X34829006Y-63122072D01*
X34829010Y-63122071D01*
X34991128Y-63040179D01*
X34991129Y-63040179D01*
X34997633Y-63036893D01*
X35090793Y-62964109D01*
X35146504Y-62920583D01*
X35146505Y-62920582D01*
X35152247Y-62916096D01*
X35280453Y-62767567D01*
X35377369Y-62596965D01*
X35439302Y-62410788D01*
X35463893Y-62216127D01*
X35464285Y-62188056D01*
X35460681Y-62151303D01*
X35455673Y-62100222D01*
X35468270Y-62024129D01*
X35512228Y-61968269D01*
X35537355Y-61948637D01*
X35537358Y-61948634D01*
X35543100Y-61944148D01*
X35671306Y-61795619D01*
X35768222Y-61625017D01*
X35830155Y-61438840D01*
X35833243Y-61414401D01*
X35847173Y-61304123D01*
X35854746Y-61244179D01*
X35855138Y-61216108D01*
X35854474Y-61209331D01*
X35848692Y-61150369D01*
X35835991Y-61020836D01*
X35779281Y-60833002D01*
X35771280Y-60817954D01*
X35690589Y-60666196D01*
X35690587Y-60666193D01*
X35687167Y-60659761D01*
X35682564Y-60654118D01*
X35682562Y-60654114D01*
X35567761Y-60513354D01*
X35563158Y-60507710D01*
X35478848Y-60437963D01*
X36713757Y-60437963D01*
X36730175Y-60633483D01*
X36732185Y-60640492D01*
X36732185Y-60640493D01*
X36781241Y-60811570D01*
X36784258Y-60822091D01*
X36873944Y-60996601D01*
X36995818Y-61150369D01*
X37145238Y-61277535D01*
X37151601Y-61281091D01*
X37310149Y-61369701D01*
X37310155Y-61369704D01*
X37316513Y-61373257D01*
X37503118Y-61433889D01*
X37602662Y-61445759D01*
X37690715Y-61456259D01*
X37690718Y-61456259D01*
X37697946Y-61457121D01*
X37809443Y-61448542D01*
X37886314Y-61442627D01*
X37886316Y-61442627D01*
X37893576Y-61442068D01*
X37973856Y-61419653D01*
X38075533Y-61391264D01*
X38075534Y-61391264D01*
X38082556Y-61389303D01*
X38089062Y-61386016D01*
X38089066Y-61386015D01*
X38251184Y-61304123D01*
X38251185Y-61304123D01*
X38257689Y-61300837D01*
X38377509Y-61207224D01*
X38386803Y-61199963D01*
X45603757Y-61199963D01*
X45620175Y-61395483D01*
X45622185Y-61402492D01*
X45622185Y-61402493D01*
X45640165Y-61465196D01*
X45674258Y-61584091D01*
X45763944Y-61758601D01*
X45885818Y-61912369D01*
X46035238Y-62039535D01*
X46041601Y-62043091D01*
X46200149Y-62131701D01*
X46200155Y-62131704D01*
X46206513Y-62135257D01*
X46393118Y-62195889D01*
X46502021Y-62208875D01*
X46580715Y-62218259D01*
X46580718Y-62218259D01*
X46587946Y-62219121D01*
X46699443Y-62210542D01*
X46776314Y-62204627D01*
X46776316Y-62204627D01*
X46783576Y-62204068D01*
X46917132Y-62166778D01*
X46965533Y-62153264D01*
X46965534Y-62153264D01*
X46972556Y-62151303D01*
X46979062Y-62148016D01*
X46979066Y-62148015D01*
X47141184Y-62066123D01*
X47141185Y-62066123D01*
X47147689Y-62062837D01*
X47302303Y-61942040D01*
X47430509Y-61793511D01*
X47527425Y-61622909D01*
X47589358Y-61436732D01*
X47595793Y-61385797D01*
X47607092Y-61296350D01*
X47613949Y-61242071D01*
X47614095Y-61231599D01*
X47614283Y-61218176D01*
X47614283Y-61218170D01*
X47614341Y-61214000D01*
X47595194Y-61018728D01*
X47586679Y-60990523D01*
X47545458Y-60853992D01*
X47538484Y-60830894D01*
X47535061Y-60824456D01*
X47449792Y-60664088D01*
X47449790Y-60664085D01*
X47446370Y-60657653D01*
X47441767Y-60652010D01*
X47441765Y-60652006D01*
X47326964Y-60511246D01*
X47322361Y-60505602D01*
X47171180Y-60380535D01*
X46998585Y-60287213D01*
X46855684Y-60242978D01*
X46818111Y-60231347D01*
X46818109Y-60231347D01*
X46811152Y-60229193D01*
X46697772Y-60217276D01*
X46660613Y-60213370D01*
X46588608Y-60185729D01*
X46546112Y-60133250D01*
X46532708Y-60166762D01*
X46472096Y-60214458D01*
X46434923Y-60223865D01*
X46435033Y-60224440D01*
X46427874Y-60225806D01*
X46420618Y-60226466D01*
X46232393Y-60281864D01*
X46058512Y-60372767D01*
X46052838Y-60377329D01*
X45965129Y-60447849D01*
X45905600Y-60495711D01*
X45779480Y-60646016D01*
X45684956Y-60817954D01*
X45625628Y-61004978D01*
X45624815Y-61012222D01*
X45624815Y-61012224D01*
X45605992Y-61180040D01*
X45603757Y-61199963D01*
X38386803Y-61199963D01*
X38406560Y-61184527D01*
X38406561Y-61184526D01*
X38412303Y-61180040D01*
X38540509Y-61031511D01*
X38637425Y-60860909D01*
X38699358Y-60674732D01*
X38700437Y-60666196D01*
X38717092Y-60534350D01*
X38723949Y-60480071D01*
X38724341Y-60452000D01*
X38705194Y-60256728D01*
X38696679Y-60228523D01*
X38650591Y-60075873D01*
X38648484Y-60068894D01*
X38645061Y-60062456D01*
X38559792Y-59902088D01*
X38559790Y-59902085D01*
X38556370Y-59895653D01*
X38551767Y-59890010D01*
X38551765Y-59890006D01*
X38436964Y-59749246D01*
X38432361Y-59743602D01*
X38281180Y-59618535D01*
X38108585Y-59525213D01*
X37965684Y-59480978D01*
X37928111Y-59469347D01*
X37928109Y-59469347D01*
X37921152Y-59467193D01*
X37913910Y-59466432D01*
X37913906Y-59466431D01*
X37733260Y-59447444D01*
X37733259Y-59447444D01*
X37726019Y-59446683D01*
X37530618Y-59464466D01*
X37342393Y-59519864D01*
X37168512Y-59610767D01*
X37162838Y-59615329D01*
X37075129Y-59685849D01*
X37015600Y-59733711D01*
X36889480Y-59884016D01*
X36794956Y-60055954D01*
X36735628Y-60242978D01*
X36734815Y-60250222D01*
X36734815Y-60250224D01*
X36715992Y-60418040D01*
X36713757Y-60437963D01*
X35478848Y-60437963D01*
X35411977Y-60382643D01*
X35239382Y-60289321D01*
X35108999Y-60248961D01*
X35058908Y-60233455D01*
X35058906Y-60233455D01*
X35051949Y-60231301D01*
X35044707Y-60230540D01*
X35044703Y-60230539D01*
X34864057Y-60211552D01*
X34864056Y-60211552D01*
X34856816Y-60210791D01*
X34661415Y-60228574D01*
X34473190Y-60283972D01*
X34299309Y-60374875D01*
X34293635Y-60379437D01*
X34163336Y-60484200D01*
X34146397Y-60497819D01*
X34020277Y-60648124D01*
X33925753Y-60820062D01*
X33866425Y-61007086D01*
X33865612Y-61014330D01*
X33865612Y-61014332D01*
X33845366Y-61194830D01*
X33844554Y-61202071D01*
X33853353Y-61306850D01*
X33839696Y-61382757D01*
X33798239Y-61435439D01*
X33761229Y-61465196D01*
X33755544Y-61469767D01*
X33629424Y-61620072D01*
X33534900Y-61792010D01*
X33475572Y-61979034D01*
X33474759Y-61986278D01*
X33474759Y-61986280D01*
X33454513Y-62166778D01*
X33453701Y-62174019D01*
X30066480Y-62174019D01*
X30087949Y-62004071D01*
X30088095Y-61993599D01*
X30088283Y-61980176D01*
X30088283Y-61980170D01*
X30088341Y-61976000D01*
X30069194Y-61780728D01*
X30012484Y-61592894D01*
X30009061Y-61586456D01*
X29923792Y-61426088D01*
X29923790Y-61426085D01*
X29920370Y-61419653D01*
X29915767Y-61414010D01*
X29915765Y-61414006D01*
X29800964Y-61273246D01*
X29796361Y-61267602D01*
X29645180Y-61142535D01*
X29472585Y-61049213D01*
X29329684Y-61004978D01*
X29292111Y-60993347D01*
X29292109Y-60993347D01*
X29285152Y-60991193D01*
X29277910Y-60990432D01*
X29277906Y-60990431D01*
X29097260Y-60971444D01*
X29097259Y-60971444D01*
X29090019Y-60970683D01*
X28894618Y-60988466D01*
X28706393Y-61043864D01*
X28532512Y-61134767D01*
X28526838Y-61139329D01*
X28439129Y-61209849D01*
X28379600Y-61257711D01*
X28253480Y-61408016D01*
X28158956Y-61579954D01*
X28099628Y-61766978D01*
X28098815Y-61774222D01*
X28098815Y-61774224D01*
X28080374Y-61938633D01*
X28077757Y-61961963D01*
X20600500Y-61961963D01*
X20600500Y-59675963D01*
X22997757Y-59675963D01*
X23014175Y-59871483D01*
X23016185Y-59878492D01*
X23016185Y-59878493D01*
X23039040Y-59958198D01*
X23068258Y-60060091D01*
X23157944Y-60234601D01*
X23279818Y-60388369D01*
X23429238Y-60515535D01*
X23435601Y-60519091D01*
X23594149Y-60607701D01*
X23594155Y-60607704D01*
X23600513Y-60611257D01*
X23787118Y-60671889D01*
X23896021Y-60684875D01*
X23974715Y-60694259D01*
X23974718Y-60694259D01*
X23981946Y-60695121D01*
X24093443Y-60686542D01*
X24170314Y-60680627D01*
X24170316Y-60680627D01*
X24177576Y-60680068D01*
X24270531Y-60654114D01*
X24359533Y-60629264D01*
X24359534Y-60629264D01*
X24366556Y-60627303D01*
X24373062Y-60624016D01*
X24373066Y-60624015D01*
X24535184Y-60542123D01*
X24535185Y-60542123D01*
X24541689Y-60538837D01*
X24696303Y-60418040D01*
X24824509Y-60269511D01*
X24884367Y-60164142D01*
X24917827Y-60105243D01*
X24917828Y-60105241D01*
X24921425Y-60098909D01*
X24983358Y-59912732D01*
X25007949Y-59718071D01*
X25008341Y-59690000D01*
X24989194Y-59494728D01*
X24980679Y-59466523D01*
X24934591Y-59313873D01*
X24932484Y-59306894D01*
X24929061Y-59300456D01*
X24843792Y-59140088D01*
X24843790Y-59140085D01*
X24840370Y-59133653D01*
X24835767Y-59128010D01*
X24835765Y-59128006D01*
X24720964Y-58987246D01*
X24716361Y-58981602D01*
X24565180Y-58856535D01*
X24392585Y-58763213D01*
X24249684Y-58718978D01*
X24212111Y-58707347D01*
X24212109Y-58707347D01*
X24205152Y-58705193D01*
X24197910Y-58704432D01*
X24197906Y-58704431D01*
X24017260Y-58685444D01*
X24017259Y-58685444D01*
X24010019Y-58684683D01*
X23814618Y-58702466D01*
X23626393Y-58757864D01*
X23452512Y-58848767D01*
X23446838Y-58853329D01*
X23316498Y-58958125D01*
X23299600Y-58971711D01*
X23173480Y-59122016D01*
X23078956Y-59293954D01*
X23019628Y-59480978D01*
X23018815Y-59488222D01*
X23018815Y-59488224D01*
X22999992Y-59656040D01*
X22997757Y-59675963D01*
X20600500Y-59675963D01*
X20600500Y-57304500D01*
X24961257Y-57304500D01*
X24977675Y-57500020D01*
X24979685Y-57507029D01*
X24979685Y-57507030D01*
X25029749Y-57681622D01*
X25031758Y-57688628D01*
X25121444Y-57863138D01*
X25243318Y-58016906D01*
X25392738Y-58144072D01*
X25474751Y-58189907D01*
X25483835Y-58194984D01*
X25539129Y-58248755D01*
X25560129Y-58322969D01*
X25559215Y-58341659D01*
X25540649Y-58507184D01*
X25537757Y-58532963D01*
X25554175Y-58728483D01*
X25556185Y-58735492D01*
X25556185Y-58735493D01*
X25601017Y-58891840D01*
X25608258Y-58917091D01*
X25697944Y-59091601D01*
X25819818Y-59245369D01*
X25969238Y-59372535D01*
X25975601Y-59376091D01*
X26134149Y-59464701D01*
X26134155Y-59464704D01*
X26140513Y-59468257D01*
X26327118Y-59528889D01*
X26400397Y-59537627D01*
X26514715Y-59551259D01*
X26514718Y-59551259D01*
X26521946Y-59552121D01*
X26717576Y-59537068D01*
X26765078Y-59523805D01*
X26842201Y-59522997D01*
X26909396Y-59560859D01*
X26921918Y-59574766D01*
X26962818Y-59626369D01*
X27112238Y-59753535D01*
X27118601Y-59757091D01*
X27277149Y-59845701D01*
X27277155Y-59845704D01*
X27283513Y-59849257D01*
X27470118Y-59909889D01*
X27579021Y-59922875D01*
X27657715Y-59932259D01*
X27657718Y-59932259D01*
X27664946Y-59933121D01*
X27776443Y-59924542D01*
X27853314Y-59918627D01*
X27853316Y-59918627D01*
X27860576Y-59918068D01*
X27940856Y-59895653D01*
X28042533Y-59867264D01*
X28042534Y-59867264D01*
X28049556Y-59865303D01*
X28056062Y-59862016D01*
X28056066Y-59862015D01*
X28218184Y-59780123D01*
X28218185Y-59780123D01*
X28224689Y-59776837D01*
X28379303Y-59656040D01*
X28507509Y-59507511D01*
X28582166Y-59376091D01*
X28600827Y-59343243D01*
X28600828Y-59343241D01*
X28604425Y-59336909D01*
X28666358Y-59150732D01*
X28670447Y-59118369D01*
X28685461Y-58999511D01*
X28690949Y-58956071D01*
X28691341Y-58928000D01*
X28672194Y-58732728D01*
X28663679Y-58704523D01*
X28635252Y-58610369D01*
X28615484Y-58544894D01*
X28612061Y-58538456D01*
X28526792Y-58378088D01*
X28526790Y-58378085D01*
X28523370Y-58371653D01*
X28518767Y-58366010D01*
X28518765Y-58366006D01*
X28403964Y-58225246D01*
X28399361Y-58219602D01*
X28248180Y-58094535D01*
X28075585Y-58001213D01*
X27932684Y-57956978D01*
X27895111Y-57945347D01*
X27895109Y-57945347D01*
X27888152Y-57943193D01*
X27880910Y-57942432D01*
X27880906Y-57942431D01*
X27700260Y-57923444D01*
X27700259Y-57923444D01*
X27693019Y-57922683D01*
X27497618Y-57940466D01*
X27490630Y-57942523D01*
X27490623Y-57942524D01*
X27465024Y-57950058D01*
X27387919Y-57951942D01*
X27320203Y-57915021D01*
X27307491Y-57901293D01*
X27260965Y-57844247D01*
X27256361Y-57838602D01*
X27105180Y-57713535D01*
X27098197Y-57709759D01*
X27062023Y-57690200D01*
X27026354Y-57670914D01*
X26997854Y-57643963D01*
X29855757Y-57643963D01*
X29872175Y-57839483D01*
X29874185Y-57846492D01*
X29874185Y-57846493D01*
X29901722Y-57942524D01*
X29926258Y-58028091D01*
X30015944Y-58202601D01*
X30084083Y-58288572D01*
X30123242Y-58337978D01*
X30137818Y-58356369D01*
X30287238Y-58483535D01*
X30311370Y-58497022D01*
X30452149Y-58575701D01*
X30452155Y-58575704D01*
X30458513Y-58579257D01*
X30645118Y-58639889D01*
X30718397Y-58648627D01*
X30832715Y-58662259D01*
X30832718Y-58662259D01*
X30839946Y-58663121D01*
X30951443Y-58654542D01*
X31028314Y-58648627D01*
X31028316Y-58648627D01*
X31035576Y-58648068D01*
X31170597Y-58610369D01*
X31217533Y-58597264D01*
X31217534Y-58597264D01*
X31224556Y-58595303D01*
X31231062Y-58592016D01*
X31231066Y-58592015D01*
X31393184Y-58510123D01*
X31393185Y-58510123D01*
X31399689Y-58506837D01*
X31538071Y-58398722D01*
X31548560Y-58390527D01*
X31548561Y-58390526D01*
X31554303Y-58386040D01*
X31682509Y-58237511D01*
X31764329Y-58093483D01*
X31775827Y-58073243D01*
X31775828Y-58073241D01*
X31779425Y-58066909D01*
X31841358Y-57880732D01*
X31846390Y-57840903D01*
X31853718Y-57782894D01*
X31865949Y-57686071D01*
X31866341Y-57658000D01*
X31847194Y-57462728D01*
X31790484Y-57274894D01*
X31780209Y-57255570D01*
X31701792Y-57108088D01*
X31701790Y-57108085D01*
X31698370Y-57101653D01*
X31693767Y-57096010D01*
X31693765Y-57096006D01*
X31578964Y-56955246D01*
X31574361Y-56949602D01*
X31423180Y-56824535D01*
X31250585Y-56731213D01*
X31120202Y-56690853D01*
X31070111Y-56675347D01*
X31070109Y-56675347D01*
X31063152Y-56673193D01*
X31055910Y-56672432D01*
X31055906Y-56672431D01*
X30875260Y-56653444D01*
X30875259Y-56653444D01*
X30868019Y-56652683D01*
X30672618Y-56670466D01*
X30484393Y-56725864D01*
X30310512Y-56816767D01*
X30304838Y-56821329D01*
X30170931Y-56928993D01*
X30157600Y-56939711D01*
X30031480Y-57090016D01*
X29936956Y-57261954D01*
X29877628Y-57448978D01*
X29876815Y-57456222D01*
X29876815Y-57456224D01*
X29858798Y-57616848D01*
X29855757Y-57643963D01*
X26997854Y-57643963D01*
X26970315Y-57617920D01*
X26948280Y-57544006D01*
X26949397Y-57521172D01*
X26957427Y-57457602D01*
X26971449Y-57346608D01*
X26971841Y-57318537D01*
X26952694Y-57123265D01*
X26942981Y-57091092D01*
X26898091Y-56942410D01*
X26895984Y-56935431D01*
X26839490Y-56829181D01*
X26807292Y-56768625D01*
X26807290Y-56768622D01*
X26803870Y-56762190D01*
X26799267Y-56756547D01*
X26799265Y-56756543D01*
X26684464Y-56615783D01*
X26679861Y-56610139D01*
X26528680Y-56485072D01*
X26356085Y-56391750D01*
X26298624Y-56373963D01*
X31888152Y-56373963D01*
X31904570Y-56569483D01*
X31906580Y-56576492D01*
X31906580Y-56576493D01*
X31934309Y-56673193D01*
X31958653Y-56758091D01*
X32048339Y-56932601D01*
X32170213Y-57086369D01*
X32319633Y-57213535D01*
X32325996Y-57217091D01*
X32484544Y-57305701D01*
X32484550Y-57305704D01*
X32490908Y-57309257D01*
X32497844Y-57311511D01*
X32497847Y-57311512D01*
X32562550Y-57332535D01*
X32627247Y-57353556D01*
X32691931Y-57395562D01*
X32726947Y-57464284D01*
X32723228Y-57540315D01*
X32671628Y-57702978D01*
X32670815Y-57710222D01*
X32670815Y-57710224D01*
X32650569Y-57890722D01*
X32649757Y-57897963D01*
X32666175Y-58093483D01*
X32668185Y-58100492D01*
X32668185Y-58100493D01*
X32693824Y-58189907D01*
X32720258Y-58282091D01*
X32809944Y-58456601D01*
X32931818Y-58610369D01*
X33081238Y-58737535D01*
X33105370Y-58751022D01*
X33246149Y-58829701D01*
X33246155Y-58829704D01*
X33252513Y-58833257D01*
X33439118Y-58893889D01*
X33512397Y-58902627D01*
X33626715Y-58916259D01*
X33626718Y-58916259D01*
X33633946Y-58917121D01*
X33745443Y-58908542D01*
X33822314Y-58902627D01*
X33822316Y-58902627D01*
X33829576Y-58902068D01*
X33964597Y-58864369D01*
X34011533Y-58851264D01*
X34011534Y-58851264D01*
X34018556Y-58849303D01*
X34025062Y-58846016D01*
X34025066Y-58846015D01*
X34187184Y-58764123D01*
X34187185Y-58764123D01*
X34193689Y-58760837D01*
X34290188Y-58685444D01*
X34342560Y-58644527D01*
X34342561Y-58644526D01*
X34348303Y-58640040D01*
X34476509Y-58491511D01*
X34562458Y-58340214D01*
X34569827Y-58327243D01*
X34569828Y-58327241D01*
X34573425Y-58320909D01*
X34629626Y-58151963D01*
X39507757Y-58151963D01*
X39524175Y-58347483D01*
X39578258Y-58536091D01*
X39667944Y-58710601D01*
X39789818Y-58864369D01*
X39939238Y-58991535D01*
X39963370Y-59005022D01*
X40104149Y-59083701D01*
X40104155Y-59083704D01*
X40110513Y-59087257D01*
X40297118Y-59147889D01*
X40406021Y-59160875D01*
X40484715Y-59170259D01*
X40484718Y-59170259D01*
X40491946Y-59171121D01*
X40603443Y-59162542D01*
X40680314Y-59156627D01*
X40680316Y-59156627D01*
X40687576Y-59156068D01*
X40767856Y-59133653D01*
X40869533Y-59105264D01*
X40869534Y-59105264D01*
X40876556Y-59103303D01*
X40883062Y-59100016D01*
X40883066Y-59100015D01*
X41045184Y-59018123D01*
X41045185Y-59018123D01*
X41051689Y-59014837D01*
X41168504Y-58923572D01*
X41200560Y-58898527D01*
X41200561Y-58898526D01*
X41206303Y-58894040D01*
X41334509Y-58745511D01*
X41420458Y-58594214D01*
X41427827Y-58581243D01*
X41427828Y-58581241D01*
X41431425Y-58574909D01*
X41487626Y-58405963D01*
X43315257Y-58405963D01*
X43331675Y-58601483D01*
X43333685Y-58608492D01*
X43333685Y-58608493D01*
X43361414Y-58705193D01*
X43385758Y-58790091D01*
X43475444Y-58964601D01*
X43597318Y-59118369D01*
X43746738Y-59245535D01*
X43753101Y-59249091D01*
X43911649Y-59337701D01*
X43911655Y-59337704D01*
X43918013Y-59341257D01*
X44104618Y-59401889D01*
X44177897Y-59410627D01*
X44292215Y-59424259D01*
X44292218Y-59424259D01*
X44299446Y-59425121D01*
X44410943Y-59416542D01*
X44487814Y-59410627D01*
X44487816Y-59410627D01*
X44495076Y-59410068D01*
X44629502Y-59372535D01*
X44677033Y-59359264D01*
X44677034Y-59359264D01*
X44684056Y-59357303D01*
X44690562Y-59354016D01*
X44690566Y-59354015D01*
X44852684Y-59272123D01*
X44852685Y-59272123D01*
X44859189Y-59268837D01*
X44936496Y-59208438D01*
X45008060Y-59152527D01*
X45008061Y-59152526D01*
X45013803Y-59148040D01*
X45142009Y-58999511D01*
X45145606Y-58993180D01*
X45145609Y-58993175D01*
X45202153Y-58893641D01*
X45256308Y-58838724D01*
X45330667Y-58818243D01*
X45405305Y-58837685D01*
X45460222Y-58891840D01*
X45480184Y-58954771D01*
X45480640Y-58960200D01*
X45492564Y-59102213D01*
X45492565Y-59102218D01*
X45493175Y-59109483D01*
X45495185Y-59116492D01*
X45495185Y-59116493D01*
X45530503Y-59239660D01*
X45547258Y-59298091D01*
X45636944Y-59472601D01*
X45758818Y-59626369D01*
X45908238Y-59753535D01*
X45914601Y-59757091D01*
X46073149Y-59845701D01*
X46073155Y-59845704D01*
X46079513Y-59849257D01*
X46266118Y-59909889D01*
X46431041Y-59929555D01*
X46502654Y-59958198D01*
X46543278Y-60009823D01*
X46555646Y-59977605D01*
X46615586Y-59929067D01*
X46649876Y-59918584D01*
X46656576Y-59918068D01*
X46663597Y-59916108D01*
X46663601Y-59916107D01*
X46838533Y-59867264D01*
X46838534Y-59867264D01*
X46845556Y-59865303D01*
X46852062Y-59862016D01*
X46852066Y-59862015D01*
X47014184Y-59780123D01*
X47014185Y-59780123D01*
X47020689Y-59776837D01*
X47175303Y-59656040D01*
X47303509Y-59507511D01*
X47378166Y-59376091D01*
X47396827Y-59343243D01*
X47396828Y-59343241D01*
X47400425Y-59336909D01*
X47462358Y-59150732D01*
X47466447Y-59118369D01*
X47481461Y-58999511D01*
X47486949Y-58956071D01*
X47487341Y-58928000D01*
X47468194Y-58732728D01*
X47459679Y-58704523D01*
X47431252Y-58610369D01*
X47411484Y-58544894D01*
X47408061Y-58538456D01*
X47322792Y-58378088D01*
X47322790Y-58378085D01*
X47319370Y-58371653D01*
X47314767Y-58366010D01*
X47314765Y-58366006D01*
X47199964Y-58225246D01*
X47195361Y-58219602D01*
X47044180Y-58094535D01*
X46871585Y-58001213D01*
X46728684Y-57956978D01*
X46691111Y-57945347D01*
X46691109Y-57945347D01*
X46684152Y-57943193D01*
X46676910Y-57942432D01*
X46676906Y-57942431D01*
X46496260Y-57923444D01*
X46496259Y-57923444D01*
X46489019Y-57922683D01*
X46293618Y-57940466D01*
X46105393Y-57995864D01*
X45931512Y-58086767D01*
X45925838Y-58091329D01*
X45795498Y-58196125D01*
X45778600Y-58209711D01*
X45652480Y-58360016D01*
X45602176Y-58451518D01*
X45548795Y-58507184D01*
X45474729Y-58528702D01*
X45399827Y-58510305D01*
X45344159Y-58456922D01*
X45323319Y-58394276D01*
X45312954Y-58288572D01*
X45306694Y-58224728D01*
X45303847Y-58215296D01*
X45263429Y-58081426D01*
X45261007Y-58004336D01*
X45283140Y-57955089D01*
X45284232Y-57953824D01*
X45346481Y-57844247D01*
X45377550Y-57789556D01*
X45377551Y-57789554D01*
X45381148Y-57783222D01*
X45443081Y-57597045D01*
X45467672Y-57402384D01*
X45468064Y-57374313D01*
X45448917Y-57179041D01*
X45436856Y-57139091D01*
X45394314Y-56998186D01*
X45392207Y-56991207D01*
X45388640Y-56984499D01*
X45303515Y-56824401D01*
X45303513Y-56824398D01*
X45300093Y-56817966D01*
X45295490Y-56812323D01*
X45295488Y-56812319D01*
X45199102Y-56694139D01*
X45176084Y-56665915D01*
X45024903Y-56540848D01*
X44852308Y-56447526D01*
X44721925Y-56407166D01*
X44671834Y-56391660D01*
X44671832Y-56391660D01*
X44664875Y-56389506D01*
X44657633Y-56388745D01*
X44657629Y-56388744D01*
X44476983Y-56369757D01*
X44476982Y-56369757D01*
X44469742Y-56368996D01*
X44274341Y-56386779D01*
X44086116Y-56442177D01*
X43912235Y-56533080D01*
X43906561Y-56537642D01*
X43807050Y-56617651D01*
X43759323Y-56656024D01*
X43633203Y-56806329D01*
X43538679Y-56978267D01*
X43479351Y-57165291D01*
X43478538Y-57172535D01*
X43478538Y-57172537D01*
X43458632Y-57350006D01*
X43457480Y-57360276D01*
X43473898Y-57555796D01*
X43519737Y-57715654D01*
X43521083Y-57792769D01*
X43499451Y-57840903D01*
X43495664Y-57846434D01*
X43490980Y-57852016D01*
X43396456Y-58023954D01*
X43337128Y-58210978D01*
X43336315Y-58218222D01*
X43336315Y-58218224D01*
X43316069Y-58398722D01*
X43315257Y-58405963D01*
X41487626Y-58405963D01*
X41493358Y-58388732D01*
X41497447Y-58356369D01*
X41513261Y-58231182D01*
X41517949Y-58194071D01*
X41518341Y-58166000D01*
X41499194Y-57970728D01*
X41490679Y-57942523D01*
X41463353Y-57852016D01*
X41442484Y-57782894D01*
X41430113Y-57759627D01*
X41353792Y-57616088D01*
X41353790Y-57616085D01*
X41350370Y-57609653D01*
X41345767Y-57604010D01*
X41345765Y-57604006D01*
X41230964Y-57463246D01*
X41226361Y-57457602D01*
X41075180Y-57332535D01*
X40902585Y-57239213D01*
X40772202Y-57198853D01*
X40722111Y-57183347D01*
X40722109Y-57183347D01*
X40715152Y-57181193D01*
X40707910Y-57180432D01*
X40707906Y-57180431D01*
X40527260Y-57161444D01*
X40527259Y-57161444D01*
X40520019Y-57160683D01*
X40324618Y-57178466D01*
X40136393Y-57233864D01*
X39962512Y-57324767D01*
X39956838Y-57329329D01*
X39865976Y-57402384D01*
X39809600Y-57447711D01*
X39683480Y-57598016D01*
X39588956Y-57769954D01*
X39529628Y-57956978D01*
X39528815Y-57964222D01*
X39528815Y-57964224D01*
X39508642Y-58144072D01*
X39507757Y-58151963D01*
X34629626Y-58151963D01*
X34635358Y-58134732D01*
X34659949Y-57940071D01*
X34660341Y-57912000D01*
X34641194Y-57716728D01*
X34584484Y-57528894D01*
X34569933Y-57501527D01*
X34495792Y-57362088D01*
X34495790Y-57362085D01*
X34492370Y-57355653D01*
X34487767Y-57350010D01*
X34487765Y-57350006D01*
X34372964Y-57209246D01*
X34368361Y-57203602D01*
X34217180Y-57078535D01*
X34044585Y-56985213D01*
X34037623Y-56983058D01*
X34037616Y-56983055D01*
X33922107Y-56947299D01*
X33856842Y-56906200D01*
X33820871Y-56837974D01*
X33824786Y-56757931D01*
X33825773Y-56754963D01*
X34681757Y-56754963D01*
X34698175Y-56950483D01*
X34700185Y-56957492D01*
X34700185Y-56957493D01*
X34734894Y-57078535D01*
X34752258Y-57139091D01*
X34841944Y-57313601D01*
X34873199Y-57353035D01*
X34949242Y-57448978D01*
X34963818Y-57467369D01*
X35113238Y-57594535D01*
X35130891Y-57604401D01*
X35278149Y-57686701D01*
X35278155Y-57686704D01*
X35284513Y-57690257D01*
X35471118Y-57750889D01*
X35544397Y-57759627D01*
X35658715Y-57773259D01*
X35658718Y-57773259D01*
X35665946Y-57774121D01*
X35777443Y-57765542D01*
X35854314Y-57759627D01*
X35854316Y-57759627D01*
X35861576Y-57759068D01*
X35987267Y-57723974D01*
X36043533Y-57708264D01*
X36043534Y-57708264D01*
X36050556Y-57706303D01*
X36057062Y-57703016D01*
X36057066Y-57703015D01*
X36219184Y-57621123D01*
X36219185Y-57621123D01*
X36225689Y-57617837D01*
X36380303Y-57497040D01*
X36508509Y-57348511D01*
X36571720Y-57237240D01*
X36601827Y-57184243D01*
X36601828Y-57184241D01*
X36605425Y-57177909D01*
X36667358Y-56991732D01*
X36669866Y-56971883D01*
X36686782Y-56837974D01*
X36691949Y-56797071D01*
X36692341Y-56769000D01*
X36673194Y-56573728D01*
X36616484Y-56385894D01*
X36578247Y-56313981D01*
X36527792Y-56219088D01*
X36527790Y-56219085D01*
X36524370Y-56212653D01*
X36519767Y-56207010D01*
X36519765Y-56207006D01*
X36404964Y-56066246D01*
X36400361Y-56060602D01*
X36249180Y-55935535D01*
X36076585Y-55842213D01*
X35933804Y-55798015D01*
X35896111Y-55786347D01*
X35896109Y-55786347D01*
X35889152Y-55784193D01*
X35881910Y-55783432D01*
X35881906Y-55783431D01*
X35701260Y-55764444D01*
X35701259Y-55764444D01*
X35694019Y-55763683D01*
X35498618Y-55781466D01*
X35310393Y-55836864D01*
X35136512Y-55927767D01*
X35130838Y-55932329D01*
X35048038Y-55998902D01*
X34983600Y-56050711D01*
X34857480Y-56201016D01*
X34762956Y-56372954D01*
X34703628Y-56559978D01*
X34702815Y-56567222D01*
X34702815Y-56567224D01*
X34684642Y-56729240D01*
X34681757Y-56754963D01*
X33825773Y-56754963D01*
X33873753Y-56610732D01*
X33875078Y-56600248D01*
X33890065Y-56481605D01*
X33898344Y-56416071D01*
X33898736Y-56388000D01*
X33879589Y-56192728D01*
X33822879Y-56004894D01*
X33790166Y-55943369D01*
X33734187Y-55838088D01*
X33734185Y-55838085D01*
X33730765Y-55831653D01*
X33726162Y-55826010D01*
X33726160Y-55826006D01*
X33621362Y-55697511D01*
X33606756Y-55679602D01*
X33455575Y-55554535D01*
X33282980Y-55461213D01*
X33132633Y-55414673D01*
X33102506Y-55405347D01*
X33102504Y-55405347D01*
X33095547Y-55403193D01*
X33088305Y-55402432D01*
X33088301Y-55402431D01*
X32907655Y-55383444D01*
X32907654Y-55383444D01*
X32900414Y-55382683D01*
X32705013Y-55400466D01*
X32516788Y-55455864D01*
X32342907Y-55546767D01*
X32337233Y-55551329D01*
X32266643Y-55608085D01*
X32189995Y-55669711D01*
X32063875Y-55820016D01*
X31969351Y-55991954D01*
X31910023Y-56178978D01*
X31909210Y-56186222D01*
X31909210Y-56186224D01*
X31903669Y-56235627D01*
X31888152Y-56373963D01*
X26298624Y-56373963D01*
X26225702Y-56351390D01*
X26175611Y-56335884D01*
X26175609Y-56335884D01*
X26168652Y-56333730D01*
X26161410Y-56332969D01*
X26161406Y-56332968D01*
X25980760Y-56313981D01*
X25980759Y-56313981D01*
X25973519Y-56313220D01*
X25778118Y-56331003D01*
X25589893Y-56386401D01*
X25416012Y-56477304D01*
X25263100Y-56600248D01*
X25136980Y-56750553D01*
X25042456Y-56922491D01*
X24983128Y-57109515D01*
X24982315Y-57116759D01*
X24982315Y-57116761D01*
X24969180Y-57233864D01*
X24961257Y-57304500D01*
X20600500Y-57304500D01*
X20600500Y-55230963D01*
X39507757Y-55230963D01*
X39524175Y-55426483D01*
X39526185Y-55433492D01*
X39526185Y-55433493D01*
X39559974Y-55551329D01*
X39578258Y-55615091D01*
X39667944Y-55789601D01*
X39789818Y-55943369D01*
X39939238Y-56070535D01*
X39945601Y-56074091D01*
X40104149Y-56162701D01*
X40104155Y-56162704D01*
X40110513Y-56166257D01*
X40297118Y-56226889D01*
X40370397Y-56235627D01*
X40484715Y-56249259D01*
X40484718Y-56249259D01*
X40491946Y-56250121D01*
X40603443Y-56241542D01*
X40680314Y-56235627D01*
X40680316Y-56235627D01*
X40687576Y-56235068D01*
X40767856Y-56212653D01*
X40869533Y-56184264D01*
X40869534Y-56184264D01*
X40876556Y-56182303D01*
X40883062Y-56179016D01*
X40883066Y-56179015D01*
X41045184Y-56097123D01*
X41045185Y-56097123D01*
X41051689Y-56093837D01*
X41094228Y-56060602D01*
X41099522Y-56056466D01*
X41170519Y-56026330D01*
X41249822Y-56037194D01*
X41253513Y-56039257D01*
X41440118Y-56099889D01*
X41513397Y-56108627D01*
X41627715Y-56122259D01*
X41627718Y-56122259D01*
X41634946Y-56123121D01*
X41746443Y-56114542D01*
X41823314Y-56108627D01*
X41823316Y-56108627D01*
X41830576Y-56108068D01*
X41980363Y-56066246D01*
X42012533Y-56057264D01*
X42012534Y-56057264D01*
X42019556Y-56055303D01*
X42026062Y-56052016D01*
X42026066Y-56052015D01*
X42188184Y-55970123D01*
X42188185Y-55970123D01*
X42194689Y-55966837D01*
X42304803Y-55880807D01*
X42343560Y-55850527D01*
X42343561Y-55850526D01*
X42349303Y-55846040D01*
X42477509Y-55697511D01*
X42544469Y-55579640D01*
X42570827Y-55533243D01*
X42570828Y-55533241D01*
X42574425Y-55526909D01*
X42600634Y-55448122D01*
X42643090Y-55383734D01*
X42712054Y-55349199D01*
X42788057Y-55353448D01*
X42837118Y-55369389D01*
X42910397Y-55378127D01*
X43024715Y-55391759D01*
X43024718Y-55391759D01*
X43031946Y-55392621D01*
X43152524Y-55383343D01*
X43220314Y-55378127D01*
X43220316Y-55378127D01*
X43227576Y-55377568D01*
X43416556Y-55324803D01*
X43423062Y-55321516D01*
X43423066Y-55321515D01*
X43585184Y-55239623D01*
X43585185Y-55239623D01*
X43591689Y-55236337D01*
X43746303Y-55115540D01*
X43874509Y-54967011D01*
X43933874Y-54862511D01*
X45480706Y-54862511D01*
X45497124Y-55058031D01*
X45551207Y-55246639D01*
X45640893Y-55421149D01*
X45672647Y-55461213D01*
X45746613Y-55554535D01*
X45762767Y-55574917D01*
X45912187Y-55702083D01*
X45918550Y-55705639D01*
X46077098Y-55794249D01*
X46077104Y-55794252D01*
X46083462Y-55797805D01*
X46270067Y-55858437D01*
X46378970Y-55871423D01*
X46457664Y-55880807D01*
X46457667Y-55880807D01*
X46464895Y-55881669D01*
X46576392Y-55873090D01*
X46653263Y-55867175D01*
X46653265Y-55867175D01*
X46660525Y-55866616D01*
X46774447Y-55834808D01*
X46842482Y-55815812D01*
X46842483Y-55815812D01*
X46849505Y-55813851D01*
X46934882Y-55770724D01*
X47010380Y-55754952D01*
X47074751Y-55773654D01*
X47082164Y-55777796D01*
X47095513Y-55785257D01*
X47282118Y-55845889D01*
X47387348Y-55858437D01*
X47469715Y-55868259D01*
X47469718Y-55868259D01*
X47476946Y-55869121D01*
X47604581Y-55859300D01*
X47665314Y-55854627D01*
X47665316Y-55854627D01*
X47672576Y-55854068D01*
X47752856Y-55831653D01*
X47854533Y-55803264D01*
X47854534Y-55803264D01*
X47861556Y-55801303D01*
X47868062Y-55798016D01*
X47868066Y-55798015D01*
X48030184Y-55716123D01*
X48030185Y-55716123D01*
X48036689Y-55712837D01*
X48191303Y-55592040D01*
X48319509Y-55443511D01*
X48396060Y-55308757D01*
X48412827Y-55279243D01*
X48412828Y-55279241D01*
X48416425Y-55272909D01*
X48478358Y-55086732D01*
X48502949Y-54892071D01*
X48503095Y-54881599D01*
X48503283Y-54868176D01*
X48503283Y-54868170D01*
X48503341Y-54864000D01*
X48484194Y-54668728D01*
X48427484Y-54480894D01*
X48390537Y-54411407D01*
X48338792Y-54314088D01*
X48338790Y-54314085D01*
X48335370Y-54307653D01*
X48330767Y-54302010D01*
X48330765Y-54302006D01*
X48215964Y-54161246D01*
X48211361Y-54155602D01*
X48060180Y-54030535D01*
X47887585Y-53937213D01*
X47729747Y-53888354D01*
X47707111Y-53881347D01*
X47707109Y-53881347D01*
X47700152Y-53879193D01*
X47692910Y-53878432D01*
X47692906Y-53878431D01*
X47512260Y-53859444D01*
X47512259Y-53859444D01*
X47505019Y-53858683D01*
X47309618Y-53876466D01*
X47121393Y-53931864D01*
X47056764Y-53965651D01*
X47049775Y-53969305D01*
X46974505Y-53986130D01*
X46909878Y-53968330D01*
X46881947Y-53953228D01*
X46881943Y-53953226D01*
X46875534Y-53949761D01*
X46745151Y-53909401D01*
X46695060Y-53893895D01*
X46695058Y-53893895D01*
X46688101Y-53891741D01*
X46680859Y-53890980D01*
X46680855Y-53890979D01*
X46500209Y-53871992D01*
X46500208Y-53871992D01*
X46492968Y-53871231D01*
X46297567Y-53889014D01*
X46109342Y-53944412D01*
X45935461Y-54035315D01*
X45929787Y-54039877D01*
X45814673Y-54132431D01*
X45782549Y-54158259D01*
X45656429Y-54308564D01*
X45561905Y-54480502D01*
X45502577Y-54667526D01*
X45501764Y-54674770D01*
X45501764Y-54674772D01*
X45481518Y-54855270D01*
X45480706Y-54862511D01*
X43933874Y-54862511D01*
X43971425Y-54796409D01*
X44033358Y-54610232D01*
X44057949Y-54415571D01*
X44058341Y-54387500D01*
X44039194Y-54192228D01*
X43982484Y-54004394D01*
X43963827Y-53969305D01*
X43893792Y-53837588D01*
X43893790Y-53837585D01*
X43890370Y-53831153D01*
X43885767Y-53825510D01*
X43885765Y-53825506D01*
X43770964Y-53684746D01*
X43766361Y-53679102D01*
X43615180Y-53554035D01*
X43442585Y-53460713D01*
X43293811Y-53414660D01*
X43262111Y-53404847D01*
X43262109Y-53404847D01*
X43255152Y-53402693D01*
X43247910Y-53401932D01*
X43247906Y-53401931D01*
X43067260Y-53382944D01*
X43067259Y-53382944D01*
X43060019Y-53382183D01*
X42864618Y-53399966D01*
X42676393Y-53455364D01*
X42502512Y-53546267D01*
X42496838Y-53550829D01*
X42366013Y-53656015D01*
X42349600Y-53669211D01*
X42223480Y-53819516D01*
X42128956Y-53991454D01*
X42108538Y-54055818D01*
X42066986Y-54120791D01*
X41998511Y-54156285D01*
X41922455Y-54153098D01*
X41865111Y-54135347D01*
X41865109Y-54135347D01*
X41858152Y-54133193D01*
X41850910Y-54132432D01*
X41850906Y-54132431D01*
X41670260Y-54113444D01*
X41670259Y-54113444D01*
X41663019Y-54112683D01*
X41467618Y-54130466D01*
X41279393Y-54185864D01*
X41105512Y-54276767D01*
X41099842Y-54281326D01*
X41099837Y-54281329D01*
X41070247Y-54305121D01*
X40999678Y-54336246D01*
X40923001Y-54327917D01*
X40914624Y-54324046D01*
X40909001Y-54321682D01*
X40902585Y-54318213D01*
X40768694Y-54276767D01*
X40722111Y-54262347D01*
X40722109Y-54262347D01*
X40715152Y-54260193D01*
X40707910Y-54259432D01*
X40707906Y-54259431D01*
X40527260Y-54240444D01*
X40527259Y-54240444D01*
X40520019Y-54239683D01*
X40324618Y-54257466D01*
X40136393Y-54312864D01*
X39962512Y-54403767D01*
X39956838Y-54408329D01*
X39867073Y-54480502D01*
X39809600Y-54526711D01*
X39683480Y-54677016D01*
X39588956Y-54848954D01*
X39529628Y-55035978D01*
X39528815Y-55043222D01*
X39528815Y-55043224D01*
X39520200Y-55120027D01*
X39507757Y-55230963D01*
X20600500Y-55230963D01*
X20600500Y-52707963D01*
X35824757Y-52707963D01*
X35841175Y-52903483D01*
X35895258Y-53092091D01*
X35984944Y-53266601D01*
X35989466Y-53272306D01*
X36094516Y-53404847D01*
X36106818Y-53420369D01*
X36256238Y-53547535D01*
X36289904Y-53566350D01*
X36421149Y-53639701D01*
X36421155Y-53639704D01*
X36427513Y-53643257D01*
X36614118Y-53703889D01*
X36687397Y-53712627D01*
X36801715Y-53726259D01*
X36801718Y-53726259D01*
X36808946Y-53727121D01*
X36920443Y-53718542D01*
X36997314Y-53712627D01*
X36997316Y-53712627D01*
X37004576Y-53712068D01*
X37193556Y-53659303D01*
X37200062Y-53656016D01*
X37200066Y-53656015D01*
X37362184Y-53574123D01*
X37362185Y-53574123D01*
X37368689Y-53570837D01*
X37509642Y-53460713D01*
X37517560Y-53454527D01*
X37517561Y-53454526D01*
X37523303Y-53450040D01*
X37651509Y-53301511D01*
X37748425Y-53130909D01*
X37810358Y-52944732D01*
X37834949Y-52750071D01*
X37835341Y-52722000D01*
X37816194Y-52526728D01*
X37759484Y-52338894D01*
X37756066Y-52332465D01*
X37756064Y-52332461D01*
X37721739Y-52267905D01*
X37704389Y-52192754D01*
X37723743Y-52124357D01*
X37744826Y-52087244D01*
X37748425Y-52080909D01*
X37810358Y-51894732D01*
X37816499Y-51846125D01*
X37827209Y-51761341D01*
X37834949Y-51700071D01*
X37835095Y-51689599D01*
X37835283Y-51676176D01*
X37835283Y-51676170D01*
X37835341Y-51672000D01*
X37816194Y-51476728D01*
X37809934Y-51455992D01*
X37761591Y-51295873D01*
X37761014Y-51293963D01*
X40269757Y-51293963D01*
X40286175Y-51489483D01*
X40288185Y-51496492D01*
X40288185Y-51496493D01*
X40333852Y-51655752D01*
X40340258Y-51678091D01*
X40429944Y-51852601D01*
X40551818Y-52006369D01*
X40701238Y-52133535D01*
X40707601Y-52137091D01*
X40866149Y-52225701D01*
X40866155Y-52225704D01*
X40872513Y-52229257D01*
X41059118Y-52289889D01*
X41132397Y-52298627D01*
X41246715Y-52312259D01*
X41246718Y-52312259D01*
X41253946Y-52313121D01*
X41365443Y-52304542D01*
X41442314Y-52298627D01*
X41442316Y-52298627D01*
X41449576Y-52298068D01*
X41638556Y-52245303D01*
X41645062Y-52242016D01*
X41645066Y-52242015D01*
X41807184Y-52160123D01*
X41807185Y-52160123D01*
X41813689Y-52156837D01*
X41890996Y-52096439D01*
X41962560Y-52040527D01*
X41962561Y-52040526D01*
X41968303Y-52036040D01*
X42096509Y-51887511D01*
X42193425Y-51716909D01*
X42255358Y-51530732D01*
X42259426Y-51498535D01*
X42279427Y-51340200D01*
X42279949Y-51336071D01*
X42280341Y-51308000D01*
X42261194Y-51112728D01*
X42204484Y-50924894D01*
X42161992Y-50844978D01*
X42115792Y-50758088D01*
X42115790Y-50758085D01*
X42112370Y-50751653D01*
X42107767Y-50746010D01*
X42107765Y-50746006D01*
X41992964Y-50605246D01*
X41988361Y-50599602D01*
X41837180Y-50474535D01*
X41664585Y-50381213D01*
X41502838Y-50331144D01*
X41484111Y-50325347D01*
X41484109Y-50325347D01*
X41477152Y-50323193D01*
X41469910Y-50322432D01*
X41469906Y-50322431D01*
X41289260Y-50303444D01*
X41289259Y-50303444D01*
X41282019Y-50302683D01*
X41086618Y-50320466D01*
X40898393Y-50375864D01*
X40724512Y-50466767D01*
X40571600Y-50589711D01*
X40445480Y-50740016D01*
X40350956Y-50911954D01*
X40291628Y-51098978D01*
X40290815Y-51106222D01*
X40290815Y-51106224D01*
X40270914Y-51283648D01*
X40269757Y-51293963D01*
X37761014Y-51293963D01*
X37759484Y-51288894D01*
X37754813Y-51280109D01*
X37670792Y-51122088D01*
X37670790Y-51122085D01*
X37667370Y-51115653D01*
X37662767Y-51110010D01*
X37662765Y-51110006D01*
X37547964Y-50969246D01*
X37543361Y-50963602D01*
X37392180Y-50838535D01*
X37219585Y-50745213D01*
X37089202Y-50704853D01*
X37039111Y-50689347D01*
X37039109Y-50689347D01*
X37032152Y-50687193D01*
X37024910Y-50686432D01*
X37024906Y-50686431D01*
X36844260Y-50667444D01*
X36844259Y-50667444D01*
X36837019Y-50666683D01*
X36641618Y-50684466D01*
X36453393Y-50739864D01*
X36279512Y-50830767D01*
X36273838Y-50835329D01*
X36170449Y-50918456D01*
X36126600Y-50953711D01*
X36000480Y-51104016D01*
X35905956Y-51275954D01*
X35846628Y-51462978D01*
X35845815Y-51470222D01*
X35845815Y-51470224D01*
X35825569Y-51650722D01*
X35824757Y-51657963D01*
X35841175Y-51853483D01*
X35843185Y-51860492D01*
X35843185Y-51860493D01*
X35854987Y-51901651D01*
X35895258Y-52042091D01*
X35898589Y-52048572D01*
X35939613Y-52128396D01*
X35955912Y-52203782D01*
X35937660Y-52268285D01*
X35905956Y-52325954D01*
X35846628Y-52512978D01*
X35845815Y-52520222D01*
X35845815Y-52520224D01*
X35844273Y-52533974D01*
X35824757Y-52707963D01*
X20600500Y-52707963D01*
X20600500Y-51039963D01*
X29220757Y-51039963D01*
X29237175Y-51235483D01*
X29239185Y-51242492D01*
X29239185Y-51242493D01*
X29264824Y-51331907D01*
X29291258Y-51424091D01*
X29380944Y-51598601D01*
X29502818Y-51752369D01*
X29652238Y-51879535D01*
X29676370Y-51893022D01*
X29817149Y-51971701D01*
X29817155Y-51971704D01*
X29823513Y-51975257D01*
X30010118Y-52035889D01*
X30083397Y-52044627D01*
X30197715Y-52058259D01*
X30197718Y-52058259D01*
X30204946Y-52059121D01*
X30316443Y-52050542D01*
X30393314Y-52044627D01*
X30393316Y-52044627D01*
X30400576Y-52044068D01*
X30589556Y-51991303D01*
X30596062Y-51988016D01*
X30596066Y-51988015D01*
X30758184Y-51906123D01*
X30758185Y-51906123D01*
X30764689Y-51902837D01*
X30919303Y-51782040D01*
X31047509Y-51633511D01*
X31122166Y-51502091D01*
X31140827Y-51469243D01*
X31140828Y-51469241D01*
X31144425Y-51462909D01*
X31159669Y-51417085D01*
X31204058Y-51283648D01*
X31204059Y-51283642D01*
X31206358Y-51276732D01*
X31207271Y-51269502D01*
X31207938Y-51266567D01*
X31243909Y-51198341D01*
X31309174Y-51157241D01*
X31386245Y-51154280D01*
X31425926Y-51169512D01*
X31497828Y-51209697D01*
X31497838Y-51209701D01*
X31504200Y-51213257D01*
X31690805Y-51273889D01*
X31798425Y-51286722D01*
X31878402Y-51296259D01*
X31878405Y-51296259D01*
X31885633Y-51297121D01*
X31997130Y-51288542D01*
X32074001Y-51282627D01*
X32074003Y-51282627D01*
X32081263Y-51282068D01*
X32153458Y-51261911D01*
X32263220Y-51231264D01*
X32263221Y-51231264D01*
X32270243Y-51229303D01*
X32276749Y-51226016D01*
X32276753Y-51226015D01*
X32438871Y-51144123D01*
X32438872Y-51144123D01*
X32445376Y-51140837D01*
X32599990Y-51020040D01*
X32728196Y-50871511D01*
X32825112Y-50700909D01*
X32887045Y-50514732D01*
X32911636Y-50320071D01*
X32912028Y-50292000D01*
X32892881Y-50096728D01*
X32884366Y-50068523D01*
X32838278Y-49915873D01*
X32836171Y-49908894D01*
X32801033Y-49842809D01*
X32747479Y-49742088D01*
X32747477Y-49742085D01*
X32744057Y-49735653D01*
X32739454Y-49730010D01*
X32739452Y-49730006D01*
X32624651Y-49589246D01*
X32620048Y-49583602D01*
X32468867Y-49458535D01*
X32296272Y-49365213D01*
X32119558Y-49310511D01*
X32115798Y-49309347D01*
X32115796Y-49309347D01*
X32108839Y-49307193D01*
X32101597Y-49306432D01*
X32101593Y-49306431D01*
X31920947Y-49287444D01*
X31920946Y-49287444D01*
X31913706Y-49286683D01*
X31718305Y-49304466D01*
X31530080Y-49359864D01*
X31356199Y-49450767D01*
X31350525Y-49455329D01*
X31220185Y-49560125D01*
X31203287Y-49573711D01*
X31077167Y-49724016D01*
X30982643Y-49895954D01*
X30923315Y-50082978D01*
X30922522Y-50082726D01*
X30890205Y-50146147D01*
X30825519Y-50188153D01*
X30748496Y-50192187D01*
X30708611Y-50177512D01*
X30696314Y-50170863D01*
X30615585Y-50127213D01*
X30450242Y-50076031D01*
X30435111Y-50071347D01*
X30435109Y-50071347D01*
X30428152Y-50069193D01*
X30420910Y-50068432D01*
X30420906Y-50068431D01*
X30240260Y-50049444D01*
X30240259Y-50049444D01*
X30233019Y-50048683D01*
X30037618Y-50066466D01*
X29849393Y-50121864D01*
X29675512Y-50212767D01*
X29669838Y-50217329D01*
X29539003Y-50322523D01*
X29522600Y-50335711D01*
X29396480Y-50486016D01*
X29301956Y-50657954D01*
X29242628Y-50844978D01*
X29241815Y-50852222D01*
X29241815Y-50852224D01*
X29222992Y-51020040D01*
X29220757Y-51039963D01*
X20600500Y-51039963D01*
X20600500Y-49007963D01*
X26426757Y-49007963D01*
X26443175Y-49203483D01*
X26445185Y-49210492D01*
X26445185Y-49210493D01*
X26490545Y-49368680D01*
X26497258Y-49392091D01*
X26586944Y-49566601D01*
X26708818Y-49720369D01*
X26858238Y-49847535D01*
X26864601Y-49851091D01*
X27023149Y-49939701D01*
X27023155Y-49939704D01*
X27029513Y-49943257D01*
X27216118Y-50003889D01*
X27289397Y-50012627D01*
X27403715Y-50026259D01*
X27403718Y-50026259D01*
X27410946Y-50027121D01*
X27522443Y-50018542D01*
X27599314Y-50012627D01*
X27599316Y-50012627D01*
X27606576Y-50012068D01*
X27795556Y-49959303D01*
X27802062Y-49956016D01*
X27802066Y-49956015D01*
X27964184Y-49874123D01*
X27964185Y-49874123D01*
X27970689Y-49870837D01*
X28125303Y-49750040D01*
X28253509Y-49601511D01*
X28334731Y-49458535D01*
X28346827Y-49437243D01*
X28346828Y-49437241D01*
X28350425Y-49430909D01*
X28412358Y-49244732D01*
X28414629Y-49226759D01*
X28428175Y-49119527D01*
X28436949Y-49050071D01*
X28437341Y-49022000D01*
X28418194Y-48826728D01*
X28361484Y-48638894D01*
X28334657Y-48588440D01*
X28272792Y-48472088D01*
X28272790Y-48472085D01*
X28269370Y-48465653D01*
X28264767Y-48460010D01*
X28264765Y-48460006D01*
X28149964Y-48319246D01*
X28145361Y-48313602D01*
X27994180Y-48188535D01*
X27821585Y-48095213D01*
X27691202Y-48054853D01*
X27641111Y-48039347D01*
X27641109Y-48039347D01*
X27634152Y-48037193D01*
X27626910Y-48036432D01*
X27626906Y-48036431D01*
X27446260Y-48017444D01*
X27446259Y-48017444D01*
X27439019Y-48016683D01*
X27243618Y-48034466D01*
X27055393Y-48089864D01*
X26881512Y-48180767D01*
X26875838Y-48185329D01*
X26757892Y-48280160D01*
X26728600Y-48303711D01*
X26602480Y-48454016D01*
X26507956Y-48625954D01*
X26448628Y-48812978D01*
X26447815Y-48820222D01*
X26447815Y-48820224D01*
X26427569Y-49000722D01*
X26426757Y-49007963D01*
X20600500Y-49007963D01*
X20600500Y-46848963D01*
X32776757Y-46848963D01*
X32793175Y-47044483D01*
X32795185Y-47051492D01*
X32795185Y-47051493D01*
X32842696Y-47217183D01*
X32847258Y-47233091D01*
X32936944Y-47407601D01*
X33058818Y-47561369D01*
X33208238Y-47688535D01*
X33214601Y-47692091D01*
X33373149Y-47780701D01*
X33373155Y-47780704D01*
X33379513Y-47784257D01*
X33566118Y-47844889D01*
X33639397Y-47853627D01*
X33753715Y-47867259D01*
X33753718Y-47867259D01*
X33760946Y-47868121D01*
X33872443Y-47859542D01*
X33949314Y-47853627D01*
X33949316Y-47853627D01*
X33956576Y-47853068D01*
X34145556Y-47800303D01*
X34152062Y-47797016D01*
X34152066Y-47797015D01*
X34314184Y-47715123D01*
X34314185Y-47715123D01*
X34320689Y-47711837D01*
X34475303Y-47591040D01*
X34603509Y-47442511D01*
X34684933Y-47299180D01*
X34696827Y-47278243D01*
X34696828Y-47278241D01*
X34700425Y-47271909D01*
X34762358Y-47085732D01*
X34786949Y-46891071D01*
X34787181Y-46874461D01*
X34787283Y-46867176D01*
X34787283Y-46867170D01*
X34787341Y-46863000D01*
X34768194Y-46667728D01*
X34711484Y-46479894D01*
X34700184Y-46458641D01*
X34622792Y-46313088D01*
X34622790Y-46313085D01*
X34619370Y-46306653D01*
X34614767Y-46301010D01*
X34614765Y-46301006D01*
X34499964Y-46160246D01*
X34495361Y-46154602D01*
X34344180Y-46029535D01*
X34171585Y-45936213D01*
X34041202Y-45895853D01*
X33991111Y-45880347D01*
X33991109Y-45880347D01*
X33984152Y-45878193D01*
X33870772Y-45866276D01*
X33833613Y-45862370D01*
X33761608Y-45834729D01*
X33719112Y-45782250D01*
X33705708Y-45815762D01*
X33645096Y-45863458D01*
X33607923Y-45872865D01*
X33608033Y-45873440D01*
X33600874Y-45874806D01*
X33593618Y-45875466D01*
X33405393Y-45930864D01*
X33231512Y-46021767D01*
X33078600Y-46144711D01*
X32952480Y-46295016D01*
X32857956Y-46466954D01*
X32798628Y-46653978D01*
X32797815Y-46661222D01*
X32797815Y-46661224D01*
X32788276Y-46746267D01*
X32776757Y-46848963D01*
X20600500Y-46848963D01*
X20600500Y-44562963D01*
X28458757Y-44562963D01*
X28475175Y-44758483D01*
X28529258Y-44947091D01*
X28618944Y-45121601D01*
X28740818Y-45275369D01*
X28890238Y-45402535D01*
X28896601Y-45406091D01*
X29055149Y-45494701D01*
X29055155Y-45494704D01*
X29061513Y-45498257D01*
X29248118Y-45558889D01*
X29321397Y-45567627D01*
X29435715Y-45581259D01*
X29435718Y-45581259D01*
X29442946Y-45582121D01*
X29554443Y-45573542D01*
X29631314Y-45567627D01*
X29631316Y-45567627D01*
X29638576Y-45567068D01*
X29827556Y-45514303D01*
X29834062Y-45511016D01*
X29834066Y-45511015D01*
X29996184Y-45429123D01*
X29996185Y-45429123D01*
X30002689Y-45425837D01*
X30157303Y-45305040D01*
X30285509Y-45156511D01*
X30382425Y-44985909D01*
X30444358Y-44799732D01*
X30468949Y-44605071D01*
X30469341Y-44577000D01*
X30467965Y-44562963D01*
X32649757Y-44562963D01*
X32666175Y-44758483D01*
X32720258Y-44947091D01*
X32809944Y-45121601D01*
X32931818Y-45275369D01*
X33081238Y-45402535D01*
X33087601Y-45406091D01*
X33246149Y-45494701D01*
X33246155Y-45494704D01*
X33252513Y-45498257D01*
X33439118Y-45558889D01*
X33604041Y-45578555D01*
X33675654Y-45607198D01*
X33716278Y-45658823D01*
X33728646Y-45626605D01*
X33788586Y-45578067D01*
X33822876Y-45567584D01*
X33829576Y-45567068D01*
X33836597Y-45565108D01*
X33836601Y-45565107D01*
X34011533Y-45516264D01*
X34011534Y-45516264D01*
X34018556Y-45514303D01*
X34025062Y-45511016D01*
X34025066Y-45511015D01*
X34187184Y-45429123D01*
X34187185Y-45429123D01*
X34193689Y-45425837D01*
X34348303Y-45305040D01*
X34476509Y-45156511D01*
X34573425Y-44985909D01*
X34635358Y-44799732D01*
X34659949Y-44605071D01*
X34660341Y-44577000D01*
X34641194Y-44381728D01*
X34623354Y-44322639D01*
X36009500Y-44322639D01*
X36009501Y-46101360D01*
X36024956Y-46218762D01*
X36085464Y-46364841D01*
X36181718Y-46490282D01*
X36307159Y-46586536D01*
X36316182Y-46590274D01*
X36316183Y-46590274D01*
X36425767Y-46635665D01*
X36453238Y-46647044D01*
X36462919Y-46648319D01*
X36462921Y-46648319D01*
X36565797Y-46661863D01*
X36565804Y-46661863D01*
X36570639Y-46662500D01*
X36996140Y-46662500D01*
X37070640Y-46682462D01*
X37125178Y-46737000D01*
X37145140Y-46811500D01*
X37125178Y-46886000D01*
X37110282Y-46907273D01*
X37016100Y-47019516D01*
X36921576Y-47191454D01*
X36862248Y-47378478D01*
X36861435Y-47385722D01*
X36861435Y-47385724D01*
X36841304Y-47565200D01*
X36840377Y-47573463D01*
X36856795Y-47768983D01*
X36858805Y-47775992D01*
X36858805Y-47775993D01*
X36884975Y-47867259D01*
X36910878Y-47957591D01*
X37000564Y-48132101D01*
X37122438Y-48285869D01*
X37271858Y-48413035D01*
X37278221Y-48416591D01*
X37436769Y-48505201D01*
X37436775Y-48505204D01*
X37443133Y-48508757D01*
X37629738Y-48569389D01*
X37701670Y-48577966D01*
X37783765Y-48587756D01*
X37855377Y-48616399D01*
X37903073Y-48677011D01*
X37909349Y-48694636D01*
X37927258Y-48757091D01*
X38016944Y-48931601D01*
X38138818Y-49085369D01*
X38288238Y-49212535D01*
X38294601Y-49216091D01*
X38453149Y-49304701D01*
X38453155Y-49304704D01*
X38459513Y-49308257D01*
X38646118Y-49368889D01*
X38719397Y-49377627D01*
X38833715Y-49391259D01*
X38833718Y-49391259D01*
X38840946Y-49392121D01*
X38952443Y-49383542D01*
X39029314Y-49377627D01*
X39029316Y-49377627D01*
X39036576Y-49377068D01*
X39225556Y-49324303D01*
X39232062Y-49321016D01*
X39232066Y-49321015D01*
X39394184Y-49239123D01*
X39394185Y-49239123D01*
X39400689Y-49235837D01*
X39555303Y-49115040D01*
X39560066Y-49109522D01*
X39600777Y-49062358D01*
X39664568Y-49019006D01*
X39741489Y-49013357D01*
X39799366Y-49041083D01*
X39800707Y-49039154D01*
X39806684Y-49043309D01*
X39812238Y-49048035D01*
X39818601Y-49051591D01*
X39977149Y-49140201D01*
X39977155Y-49140204D01*
X39983513Y-49143757D01*
X40170118Y-49204389D01*
X40279021Y-49217375D01*
X40357715Y-49226759D01*
X40357718Y-49226759D01*
X40364946Y-49227621D01*
X40476443Y-49219042D01*
X40553314Y-49213127D01*
X40553316Y-49213127D01*
X40560576Y-49212568D01*
X40749556Y-49159803D01*
X40756062Y-49156516D01*
X40756066Y-49156515D01*
X40918184Y-49074623D01*
X40918185Y-49074623D01*
X40924689Y-49071337D01*
X41079303Y-48950540D01*
X41207509Y-48802011D01*
X41304425Y-48631409D01*
X41366358Y-48445232D01*
X41370426Y-48413035D01*
X41390427Y-48254700D01*
X41390949Y-48250571D01*
X41391341Y-48222500D01*
X41372194Y-48027228D01*
X41315484Y-47839394D01*
X41286167Y-47784257D01*
X41226792Y-47672588D01*
X41226790Y-47672585D01*
X41223370Y-47666153D01*
X41218767Y-47660510D01*
X41218765Y-47660506D01*
X41103964Y-47519746D01*
X41099361Y-47514102D01*
X40948180Y-47389035D01*
X40775585Y-47295713D01*
X40645202Y-47255353D01*
X40595111Y-47239847D01*
X40595109Y-47239847D01*
X40588152Y-47237693D01*
X40580910Y-47236932D01*
X40580906Y-47236931D01*
X40400260Y-47217944D01*
X40400259Y-47217944D01*
X40393019Y-47217183D01*
X40197618Y-47234966D01*
X40009393Y-47290364D01*
X39835512Y-47381267D01*
X39829838Y-47385829D01*
X39733011Y-47463680D01*
X39682600Y-47504211D01*
X39677914Y-47509796D01*
X39647396Y-47546166D01*
X39584217Y-47590405D01*
X39507382Y-47597128D01*
X39438282Y-47565200D01*
X39429801Y-47558184D01*
X39429794Y-47558179D01*
X39424180Y-47553535D01*
X39251585Y-47460213D01*
X39121202Y-47419853D01*
X39071111Y-47404347D01*
X39071109Y-47404347D01*
X39064152Y-47402193D01*
X39056910Y-47401432D01*
X39056906Y-47401431D01*
X38938966Y-47389035D01*
X38925760Y-47387647D01*
X38853755Y-47360006D01*
X38805217Y-47300066D01*
X38798694Y-47282529D01*
X38777210Y-47211370D01*
X38775104Y-47204394D01*
X38715689Y-47092651D01*
X38686412Y-47037588D01*
X38686410Y-47037585D01*
X38682990Y-47031153D01*
X38678387Y-47025510D01*
X38678385Y-47025506D01*
X38568743Y-46891071D01*
X38558981Y-46879102D01*
X38531986Y-46856770D01*
X38487307Y-46793901D01*
X38480048Y-46717115D01*
X38512155Y-46646987D01*
X38569943Y-46604305D01*
X38603815Y-46590275D01*
X38603817Y-46590274D01*
X38612841Y-46586536D01*
X38738282Y-46490282D01*
X38834536Y-46364841D01*
X38837602Y-46357439D01*
X38891514Y-46303526D01*
X38966014Y-46283563D01*
X39040514Y-46303525D01*
X39061191Y-46317922D01*
X39165176Y-46404252D01*
X39371112Y-46524591D01*
X39593937Y-46609680D01*
X39827666Y-46657233D01*
X39833775Y-46657457D01*
X40059908Y-46665749D01*
X40059912Y-46665749D01*
X40066025Y-46665973D01*
X40103096Y-46661224D01*
X40296538Y-46636443D01*
X40296541Y-46636442D01*
X40302609Y-46635665D01*
X40531068Y-46567125D01*
X40745264Y-46462191D01*
X40939445Y-46323683D01*
X41108397Y-46155320D01*
X41111962Y-46150358D01*
X41111966Y-46150354D01*
X41244014Y-45966589D01*
X41244016Y-45966585D01*
X41247582Y-45961623D01*
X41310297Y-45834729D01*
X41350552Y-45753281D01*
X41350553Y-45753277D01*
X41353263Y-45747795D01*
X41422600Y-45519577D01*
X41423728Y-45511015D01*
X41438631Y-45397809D01*
X41453733Y-45283099D01*
X41455471Y-45212000D01*
X41435927Y-44974284D01*
X41377821Y-44742952D01*
X41375387Y-44737355D01*
X41375385Y-44737348D01*
X41285151Y-44529826D01*
X41282712Y-44524216D01*
X41153155Y-44323951D01*
X40992629Y-44147536D01*
X40805445Y-43999707D01*
X40800092Y-43996752D01*
X40800089Y-43996750D01*
X40699943Y-43941467D01*
X40596631Y-43884436D01*
X40371794Y-43804817D01*
X40365779Y-43803746D01*
X40365777Y-43803745D01*
X40279506Y-43788378D01*
X40136972Y-43762988D01*
X40130859Y-43762913D01*
X40130856Y-43762913D01*
X40031031Y-43761694D01*
X39898471Y-43760074D01*
X39879428Y-43762988D01*
X39668735Y-43795229D01*
X39668733Y-43795230D01*
X39662698Y-43796153D01*
X39435982Y-43870255D01*
X39224414Y-43980390D01*
X39219529Y-43984057D01*
X39219527Y-43984059D01*
X39054126Y-44108247D01*
X38982564Y-44137015D01*
X38906205Y-44126148D01*
X38845510Y-44078557D01*
X38837630Y-44066627D01*
X38834536Y-44059159D01*
X38804990Y-44020653D01*
X38744228Y-43941467D01*
X38738282Y-43933718D01*
X38612841Y-43837464D01*
X38466762Y-43776956D01*
X38457081Y-43775681D01*
X38457079Y-43775681D01*
X38354203Y-43762137D01*
X38354196Y-43762137D01*
X38349361Y-43761500D01*
X37460092Y-43761500D01*
X36570640Y-43761501D01*
X36453238Y-43776956D01*
X36444212Y-43780695D01*
X36444211Y-43780695D01*
X36381051Y-43806857D01*
X36307159Y-43837464D01*
X36181718Y-43933718D01*
X36085464Y-44059159D01*
X36024956Y-44205238D01*
X36009500Y-44322639D01*
X34623354Y-44322639D01*
X34584484Y-44193894D01*
X34523158Y-44078557D01*
X34495792Y-44027088D01*
X34495790Y-44027085D01*
X34492370Y-44020653D01*
X34487767Y-44015010D01*
X34487765Y-44015006D01*
X34372964Y-43874246D01*
X34368361Y-43868602D01*
X34217180Y-43743535D01*
X34044585Y-43650213D01*
X33914202Y-43609853D01*
X33864111Y-43594347D01*
X33864109Y-43594347D01*
X33857152Y-43592193D01*
X33849910Y-43591432D01*
X33849906Y-43591431D01*
X33669260Y-43572444D01*
X33669259Y-43572444D01*
X33662019Y-43571683D01*
X33466618Y-43589466D01*
X33278393Y-43644864D01*
X33104512Y-43735767D01*
X33098838Y-43740329D01*
X32970631Y-43843410D01*
X32951600Y-43858711D01*
X32825480Y-44009016D01*
X32730956Y-44180954D01*
X32671628Y-44367978D01*
X32670815Y-44375222D01*
X32670815Y-44375224D01*
X32654103Y-44524216D01*
X32649757Y-44562963D01*
X30467965Y-44562963D01*
X30450194Y-44381728D01*
X30393484Y-44193894D01*
X30332158Y-44078557D01*
X30304792Y-44027088D01*
X30304790Y-44027085D01*
X30301370Y-44020653D01*
X30296767Y-44015010D01*
X30296765Y-44015006D01*
X30181964Y-43874246D01*
X30177361Y-43868602D01*
X30026180Y-43743535D01*
X29853585Y-43650213D01*
X29723202Y-43609853D01*
X29673111Y-43594347D01*
X29673109Y-43594347D01*
X29666152Y-43592193D01*
X29658910Y-43591432D01*
X29658906Y-43591431D01*
X29478260Y-43572444D01*
X29478259Y-43572444D01*
X29471019Y-43571683D01*
X29275618Y-43589466D01*
X29087393Y-43644864D01*
X28913512Y-43735767D01*
X28907838Y-43740329D01*
X28779631Y-43843410D01*
X28760600Y-43858711D01*
X28634480Y-44009016D01*
X28539956Y-44180954D01*
X28480628Y-44367978D01*
X28479815Y-44375222D01*
X28479815Y-44375224D01*
X28463103Y-44524216D01*
X28458757Y-44562963D01*
X20600500Y-44562963D01*
X20600500Y-40371963D01*
X23378757Y-40371963D01*
X23395175Y-40567483D01*
X23449258Y-40756091D01*
X23538944Y-40930601D01*
X23660818Y-41084369D01*
X23810238Y-41211535D01*
X23816601Y-41215091D01*
X23975149Y-41303701D01*
X23975155Y-41303704D01*
X23981513Y-41307257D01*
X24168118Y-41367889D01*
X24241397Y-41376627D01*
X24355715Y-41390259D01*
X24355718Y-41390259D01*
X24362946Y-41391121D01*
X24474443Y-41382542D01*
X24551314Y-41376627D01*
X24551316Y-41376627D01*
X24558576Y-41376068D01*
X24747556Y-41323303D01*
X24754062Y-41320016D01*
X24754066Y-41320015D01*
X24916184Y-41238123D01*
X24916185Y-41238123D01*
X24922689Y-41234837D01*
X25077303Y-41114040D01*
X25205509Y-40965511D01*
X25302425Y-40794909D01*
X25364358Y-40608732D01*
X25388949Y-40414071D01*
X25389341Y-40386000D01*
X25370194Y-40190728D01*
X25313484Y-40002894D01*
X25221370Y-39829653D01*
X25216767Y-39824010D01*
X25216765Y-39824006D01*
X25101964Y-39683246D01*
X25097361Y-39677602D01*
X24946180Y-39552535D01*
X24773585Y-39459213D01*
X24643202Y-39418853D01*
X24593111Y-39403347D01*
X24593109Y-39403347D01*
X24586152Y-39401193D01*
X24578910Y-39400432D01*
X24578906Y-39400431D01*
X24398260Y-39381444D01*
X24398259Y-39381444D01*
X24391019Y-39380683D01*
X24195618Y-39398466D01*
X24007393Y-39453864D01*
X23833512Y-39544767D01*
X23680600Y-39667711D01*
X23554480Y-39818016D01*
X23459956Y-39989954D01*
X23400628Y-40176978D01*
X23399815Y-40184222D01*
X23399815Y-40184224D01*
X23398273Y-40197974D01*
X23378757Y-40371963D01*
X20600500Y-40371963D01*
X20600500Y-35037963D01*
X23378757Y-35037963D01*
X23395175Y-35233483D01*
X23449258Y-35422091D01*
X23538944Y-35596601D01*
X23660818Y-35750369D01*
X23810238Y-35877535D01*
X23816601Y-35881091D01*
X23975149Y-35969701D01*
X23975155Y-35969704D01*
X23981513Y-35973257D01*
X24168118Y-36033889D01*
X24241397Y-36042627D01*
X24355715Y-36056259D01*
X24355718Y-36056259D01*
X24362946Y-36057121D01*
X24474443Y-36048542D01*
X24551314Y-36042627D01*
X24551316Y-36042627D01*
X24558576Y-36042068D01*
X24747556Y-35989303D01*
X24754062Y-35986016D01*
X24754066Y-35986015D01*
X24916184Y-35904123D01*
X24916185Y-35904123D01*
X24922689Y-35900837D01*
X25077303Y-35780040D01*
X25205509Y-35631511D01*
X25302425Y-35460909D01*
X25364358Y-35274732D01*
X25388949Y-35080071D01*
X25389341Y-35052000D01*
X25370194Y-34856728D01*
X25313484Y-34668894D01*
X25266538Y-34580601D01*
X25224792Y-34502088D01*
X25224790Y-34502085D01*
X25221370Y-34495653D01*
X25216767Y-34490010D01*
X25216765Y-34490006D01*
X25101964Y-34349246D01*
X25097361Y-34343602D01*
X24946180Y-34218535D01*
X24773585Y-34125213D01*
X24643202Y-34084853D01*
X24593111Y-34069347D01*
X24593109Y-34069347D01*
X24586152Y-34067193D01*
X24578910Y-34066432D01*
X24578906Y-34066431D01*
X24398260Y-34047444D01*
X24398259Y-34047444D01*
X24391019Y-34046683D01*
X24195618Y-34064466D01*
X24007393Y-34119864D01*
X23833512Y-34210767D01*
X23680600Y-34333711D01*
X23554480Y-34484016D01*
X23459956Y-34655954D01*
X23400628Y-34842978D01*
X23399815Y-34850222D01*
X23399815Y-34850224D01*
X23379569Y-35030722D01*
X23378757Y-35037963D01*
X20600500Y-35037963D01*
X20600500Y-34021963D01*
X44333757Y-34021963D01*
X44350175Y-34217483D01*
X44404258Y-34406091D01*
X44493944Y-34580601D01*
X44615818Y-34734369D01*
X44765238Y-34861535D01*
X44771601Y-34865091D01*
X44930149Y-34953701D01*
X44930155Y-34953704D01*
X44936513Y-34957257D01*
X45123118Y-35017889D01*
X45196397Y-35026627D01*
X45310715Y-35040259D01*
X45310718Y-35040259D01*
X45317946Y-35041121D01*
X45429443Y-35032542D01*
X45506314Y-35026627D01*
X45506316Y-35026627D01*
X45513576Y-35026068D01*
X45702556Y-34973303D01*
X45709062Y-34970016D01*
X45709066Y-34970015D01*
X45871184Y-34888123D01*
X45871185Y-34888123D01*
X45877689Y-34884837D01*
X46032303Y-34764040D01*
X46160509Y-34615511D01*
X46257425Y-34444909D01*
X46319358Y-34258732D01*
X46343949Y-34064071D01*
X46344341Y-34036000D01*
X46325194Y-33840728D01*
X46268484Y-33652894D01*
X46176370Y-33479653D01*
X46171767Y-33474010D01*
X46171765Y-33474006D01*
X46056964Y-33333246D01*
X46052361Y-33327602D01*
X45901180Y-33202535D01*
X45728585Y-33109213D01*
X45598202Y-33068853D01*
X45548111Y-33053347D01*
X45548109Y-33053347D01*
X45541152Y-33051193D01*
X45533910Y-33050432D01*
X45533906Y-33050431D01*
X45353260Y-33031444D01*
X45353259Y-33031444D01*
X45346019Y-33030683D01*
X45150618Y-33048466D01*
X44962393Y-33103864D01*
X44788512Y-33194767D01*
X44635600Y-33317711D01*
X44509480Y-33468016D01*
X44414956Y-33639954D01*
X44355628Y-33826978D01*
X44354815Y-33834222D01*
X44354815Y-33834224D01*
X44353273Y-33847974D01*
X44333757Y-34021963D01*
X20600500Y-34021963D01*
X20600500Y-25425337D01*
X22183736Y-25425337D01*
X22189748Y-25435751D01*
X22210298Y-25453773D01*
X22218019Y-25459697D01*
X22461473Y-25622368D01*
X22469895Y-25627230D01*
X22732503Y-25756734D01*
X22741480Y-25760453D01*
X23018755Y-25854575D01*
X23028143Y-25857091D01*
X23315317Y-25914213D01*
X23324963Y-25915483D01*
X23617133Y-25934633D01*
X23626867Y-25934633D01*
X23919037Y-25915483D01*
X23928683Y-25914213D01*
X24215857Y-25857091D01*
X24225245Y-25854575D01*
X24502520Y-25760453D01*
X24511497Y-25756734D01*
X24774105Y-25627230D01*
X24782527Y-25622368D01*
X25025981Y-25459697D01*
X25033702Y-25453773D01*
X25051379Y-25438270D01*
X25060021Y-25425337D01*
X45043736Y-25425337D01*
X45049748Y-25435751D01*
X45070298Y-25453773D01*
X45078019Y-25459697D01*
X45321473Y-25622368D01*
X45329895Y-25627230D01*
X45592503Y-25756734D01*
X45601480Y-25760453D01*
X45878755Y-25854575D01*
X45888143Y-25857091D01*
X46175317Y-25914213D01*
X46184963Y-25915483D01*
X46477133Y-25934633D01*
X46486867Y-25934633D01*
X46779037Y-25915483D01*
X46788683Y-25914213D01*
X47075857Y-25857091D01*
X47085245Y-25854575D01*
X47362520Y-25760453D01*
X47371497Y-25756734D01*
X47634105Y-25627230D01*
X47642527Y-25622368D01*
X47885981Y-25459697D01*
X47893702Y-25453773D01*
X47911379Y-25438270D01*
X47920277Y-25424954D01*
X47914959Y-25414169D01*
X46495871Y-23995081D01*
X46482000Y-23987073D01*
X46468129Y-23995081D01*
X45051744Y-25411466D01*
X45043736Y-25425337D01*
X25060021Y-25425337D01*
X25060277Y-25424954D01*
X25054959Y-25414169D01*
X23635871Y-23995081D01*
X23622000Y-23987073D01*
X23608129Y-23995081D01*
X22191744Y-25411466D01*
X22183736Y-25425337D01*
X20600500Y-25425337D01*
X20600500Y-23626867D01*
X21309367Y-23626867D01*
X21328517Y-23919037D01*
X21329787Y-23928683D01*
X21386909Y-24215857D01*
X21389425Y-24225245D01*
X21483547Y-24502520D01*
X21487266Y-24511497D01*
X21616770Y-24774105D01*
X21621632Y-24782527D01*
X21784303Y-25025981D01*
X21790227Y-25033702D01*
X21805730Y-25051379D01*
X21819046Y-25060277D01*
X21829831Y-25054959D01*
X23248919Y-23635871D01*
X23256927Y-23622000D01*
X23987073Y-23622000D01*
X23995081Y-23635871D01*
X25411466Y-25052256D01*
X25425337Y-25060264D01*
X25435751Y-25054252D01*
X25453773Y-25033702D01*
X25459697Y-25025981D01*
X25622368Y-24782527D01*
X25627230Y-24774105D01*
X25756734Y-24511497D01*
X25760453Y-24502520D01*
X25854575Y-24225245D01*
X25857091Y-24215857D01*
X25914213Y-23928683D01*
X25915483Y-23919037D01*
X25934633Y-23626867D01*
X44169367Y-23626867D01*
X44188517Y-23919037D01*
X44189787Y-23928683D01*
X44246909Y-24215857D01*
X44249425Y-24225245D01*
X44343547Y-24502520D01*
X44347266Y-24511497D01*
X44476770Y-24774105D01*
X44481632Y-24782527D01*
X44644303Y-25025981D01*
X44650227Y-25033702D01*
X44665730Y-25051379D01*
X44679046Y-25060277D01*
X44689831Y-25054959D01*
X46108919Y-23635871D01*
X46116927Y-23622000D01*
X46847073Y-23622000D01*
X46855081Y-23635871D01*
X48271466Y-25052256D01*
X48285337Y-25060264D01*
X48295751Y-25054252D01*
X48313773Y-25033702D01*
X48319697Y-25025981D01*
X48482368Y-24782527D01*
X48487230Y-24774105D01*
X48616734Y-24511497D01*
X48620453Y-24502520D01*
X48714575Y-24225245D01*
X48717091Y-24215857D01*
X48774213Y-23928683D01*
X48775483Y-23919037D01*
X48794633Y-23626867D01*
X48794633Y-23617133D01*
X48775483Y-23324963D01*
X48774213Y-23315317D01*
X48717091Y-23028143D01*
X48714575Y-23018755D01*
X48620453Y-22741480D01*
X48616734Y-22732503D01*
X48487230Y-22469895D01*
X48482368Y-22461473D01*
X48319697Y-22218019D01*
X48313773Y-22210298D01*
X48298270Y-22192621D01*
X48284954Y-22183723D01*
X48274169Y-22189041D01*
X46855081Y-23608129D01*
X46847073Y-23622000D01*
X46116927Y-23622000D01*
X46108919Y-23608129D01*
X44692534Y-22191744D01*
X44678663Y-22183736D01*
X44668249Y-22189748D01*
X44650227Y-22210298D01*
X44644303Y-22218019D01*
X44481632Y-22461473D01*
X44476770Y-22469895D01*
X44347266Y-22732503D01*
X44343547Y-22741480D01*
X44249425Y-23018755D01*
X44246909Y-23028143D01*
X44189787Y-23315317D01*
X44188517Y-23324963D01*
X44169367Y-23617133D01*
X44169367Y-23626867D01*
X25934633Y-23626867D01*
X25934633Y-23617133D01*
X25915483Y-23324963D01*
X25914213Y-23315317D01*
X25857091Y-23028143D01*
X25854575Y-23018755D01*
X25760453Y-22741480D01*
X25756734Y-22732503D01*
X25627230Y-22469895D01*
X25622368Y-22461473D01*
X25459697Y-22218019D01*
X25453773Y-22210298D01*
X25438270Y-22192621D01*
X25424954Y-22183723D01*
X25414169Y-22189041D01*
X23995081Y-23608129D01*
X23987073Y-23622000D01*
X23256927Y-23622000D01*
X23248919Y-23608129D01*
X21832534Y-22191744D01*
X21818663Y-22183736D01*
X21808249Y-22189748D01*
X21790227Y-22210298D01*
X21784303Y-22218019D01*
X21621632Y-22461473D01*
X21616770Y-22469895D01*
X21487266Y-22732503D01*
X21483547Y-22741480D01*
X21389425Y-23018755D01*
X21386909Y-23028143D01*
X21329787Y-23315317D01*
X21328517Y-23324963D01*
X21309367Y-23617133D01*
X21309367Y-23626867D01*
X20600500Y-23626867D01*
X20600500Y-21819046D01*
X22183723Y-21819046D01*
X22189041Y-21829831D01*
X23608129Y-23248919D01*
X23622000Y-23256927D01*
X23635871Y-23248919D01*
X25052256Y-21832534D01*
X25060043Y-21819046D01*
X45043723Y-21819046D01*
X45049041Y-21829831D01*
X46468129Y-23248919D01*
X46482000Y-23256927D01*
X46495871Y-23248919D01*
X47912256Y-21832534D01*
X47920264Y-21818663D01*
X47914252Y-21808249D01*
X47893702Y-21790227D01*
X47885981Y-21784303D01*
X47642527Y-21621632D01*
X47634105Y-21616770D01*
X47371497Y-21487266D01*
X47362520Y-21483547D01*
X47085245Y-21389425D01*
X47075857Y-21386909D01*
X46788683Y-21329787D01*
X46779037Y-21328517D01*
X46486867Y-21309367D01*
X46477133Y-21309367D01*
X46184963Y-21328517D01*
X46175317Y-21329787D01*
X45888143Y-21386909D01*
X45878755Y-21389425D01*
X45601480Y-21483547D01*
X45592503Y-21487266D01*
X45329895Y-21616770D01*
X45321473Y-21621632D01*
X45078019Y-21784303D01*
X45070298Y-21790227D01*
X45052621Y-21805730D01*
X45043723Y-21819046D01*
X25060043Y-21819046D01*
X25060264Y-21818663D01*
X25054252Y-21808249D01*
X25033702Y-21790227D01*
X25025981Y-21784303D01*
X24782527Y-21621632D01*
X24774105Y-21616770D01*
X24511497Y-21487266D01*
X24502520Y-21483547D01*
X24225245Y-21389425D01*
X24215857Y-21386909D01*
X23928683Y-21329787D01*
X23919037Y-21328517D01*
X23626867Y-21309367D01*
X23617133Y-21309367D01*
X23324963Y-21328517D01*
X23315317Y-21329787D01*
X23028143Y-21386909D01*
X23018755Y-21389425D01*
X22741480Y-21483547D01*
X22732503Y-21487266D01*
X22469895Y-21616770D01*
X22461473Y-21621632D01*
X22218019Y-21784303D01*
X22210298Y-21790227D01*
X22192621Y-21805730D01*
X22183723Y-21819046D01*
X20600500Y-21819046D01*
X20600500Y-20749500D01*
X20620462Y-20675000D01*
X20675000Y-20620462D01*
X20749500Y-20600500D01*
X49250991Y-20600500D01*
X49325491Y-20620462D01*
G37*
%TD.AperFunction*%
%TD*%
M02*
