M48
; DRILL file {KiCad (6.0.8)} date Sat Apr 29 02:17:44 2023
; FORMAT={-:-/ absolute / inch / decimal}
; #@! TF.CreationDate,2023-04-29T02:17:44+01:00
; #@! TF.GenerationSoftware,Kicad,Pcbnew,(6.0.8)
; #@! TF.FileFunction,Plated,1,4,PTH
FMAT,2
INCH
; #@! TA.AperFunction,Plated,PTH,ViaDrill
T1C0.0157
; #@! TA.AperFunction,Plated,PTH,ComponentDrill
T2C0.0236
; #@! TA.AperFunction,Plated,PTH,ComponentDrill
T3C0.0295
; #@! TA.AperFunction,Plated,PTH,ComponentDrill
T4C0.0335
; #@! TA.AperFunction,Plated,PTH,ComponentDrill
T5C0.0394
; #@! TA.AperFunction,Plated,PTH,ComponentDrill
T6C0.1260
%
G90
G05
T1
X0.825Y-3.2
X0.835Y-2.395
X0.835Y-2.49
X0.84Y-2.92
X0.84Y-3.08
X0.845Y-2.86
X0.855Y-3.38
X0.86Y-1.105
X0.86Y-1.2
X0.86Y-1.295
X0.86Y-1.98
X0.865Y-1.69
X0.865Y-1.825
X0.875Y-2.59
X0.9Y-1.38
X0.9Y-1.59
X0.905Y-3.0
X0.905Y-3.08
X0.945Y-2.265
X0.945Y-2.435
X0.955Y-1.105
X0.955Y-1.2
X0.955Y-1.69
X0.96Y-1.38
X0.96Y-1.59
X0.98Y-1.34
X1.005Y-2.835
X1.005Y-2.88
X1.01Y-3.145
X1.025Y-1.825
X1.03Y-2.13
X1.035Y-2.59
X1.035Y-2.78
X1.045Y-3.0
X1.05Y-2.72
X1.055Y-2.65
X1.08Y-1.93
X1.1024Y-0.8661
X1.1024Y-0.9843
X1.11Y-1.775
X1.125Y-3.33
X1.155Y-2.18
X1.155Y-2.655
X1.16Y-1.755
X1.16Y-2.44
X1.16Y-2.5
X1.17Y-1.97
X1.185Y-2.3
X1.2084Y-2.0266
X1.23Y-2.865
X1.23Y-3.025
X1.2402Y-0.8661
X1.2402Y-0.9843
X1.2562Y-1.98
X1.2796Y-3.3741
X1.2835Y-3.335
X1.295Y-2.22
X1.3112Y-2.2659
X1.315Y-2.97
X1.3163Y-2.3049
X1.325Y-1.755
X1.33Y-1.845
X1.35Y-2.575
X1.36Y-3.075
X1.365Y-2.855
X1.378Y-0.8661
X1.378Y-0.9843
X1.395Y-2.575
X1.41Y-2.97
X1.44Y-2.575
X1.4401Y-2.4151
X1.45Y-3.09
X1.46Y-2.26
X1.465Y-3.335
X1.4676Y-2.0686
X1.475Y-2.435
X1.4845Y-2.1316
X1.4856Y-2.0182
X1.49Y-3.415
X1.505Y-1.905
X1.5157Y-0.8661
X1.5157Y-0.9843
X1.592Y-2.2746
X1.595Y-2.3215
X1.61Y-2.02
X1.62Y-1.985
X1.6535Y-0.8661
X1.6535Y-0.9843
X1.6648Y-2.3002
X1.67Y-1.805
X1.6732Y-2.7165
X1.6732Y-2.8346
X1.6732Y-2.9528
X1.6732Y-3.0709
X1.6732Y-3.189
X1.6732Y-3.3071
X1.6732Y-3.4252
X1.7717Y-2.7165
X1.7717Y-2.8346
X1.7717Y-2.9528
X1.7717Y-3.0709
X1.7717Y-3.189
X1.7717Y-3.3071
X1.7717Y-3.4252
X1.78Y-1.64
X1.78Y-2.275
X1.785Y-1.14
X1.785Y-1.34
X1.79Y-1.26
X1.79Y-1.465
X1.8Y-2.22
X1.81Y-2.43
X1.84Y-2.275
X1.855Y-2.43
X1.86Y-1.845
X1.865Y-2.22
X1.885Y-2.54
X1.8898Y-1.14
X1.8898Y-1.26
X1.8898Y-1.35
X1.89Y-1.465
X1.89Y-1.64
T3
X1.5285Y-2.7819
X1.5285Y-2.8606
X1.5285Y-2.9394
X1.5285Y-3.0181
X1.5285Y-3.2113
X1.5285Y-3.29
T4
X1.3236Y-3.4794
X1.5205Y-3.4794
T5
X1.5502Y-2.4144
X1.5502Y-2.5144
X1.5502Y-2.6144
X1.6502Y-2.4144
X1.6502Y-2.5144
X1.6502Y-2.6144
T6
X0.93Y-0.93
X0.935Y-3.563
X1.83Y-0.93
X1.83Y-3.563
T2
G00X1.2843Y-3.572
M15
G01X1.2843Y-3.5995
M16
G05
G00X1.5598Y-3.572
M15
G01X1.5598Y-3.5995
M16
G05
T0
M30
