%TF.GenerationSoftware,KiCad,Pcbnew,(6.0.8)*%
%TF.CreationDate,2023-04-29T02:17:50+01:00*%
%TF.ProjectId,circuit board design v1.0,63697263-7569-4742-9062-6f6172642064,rev?*%
%TF.SameCoordinates,Original*%
%TF.FileFunction,Copper,L3,Inr*%
%TF.FilePolarity,Positive*%
%FSLAX46Y46*%
G04 Gerber Fmt 4.6, Leading zero omitted, Abs format (unit mm)*
G04 Created by KiCad (PCBNEW (6.0.8)) date 2023-04-29 02:17:50*
%MOMM*%
%LPD*%
G01*
G04 APERTURE LIST*
G04 Aperture macros list*
%AMRoundRect*
0 Rectangle with rounded corners*
0 $1 Rounding radius*
0 $2 $3 $4 $5 $6 $7 $8 $9 X,Y pos of 4 corners*
0 Add a 4 corners polygon primitive as box body*
4,1,4,$2,$3,$4,$5,$6,$7,$8,$9,$2,$3,0*
0 Add four circle primitives for the rounded corners*
1,1,$1+$1,$2,$3*
1,1,$1+$1,$4,$5*
1,1,$1+$1,$6,$7*
1,1,$1+$1,$8,$9*
0 Add four rect primitives between the rounded corners*
20,1,$1+$1,$2,$3,$4,$5,0*
20,1,$1+$1,$4,$5,$6,$7,0*
20,1,$1+$1,$6,$7,$8,$9,0*
20,1,$1+$1,$8,$9,$2,$3,0*%
G04 Aperture macros list end*
%TA.AperFunction,ComponentPad*%
%ADD10C,1.450000*%
%TD*%
%TA.AperFunction,ComponentPad*%
%ADD11O,0.800000X1.600000*%
%TD*%
%TA.AperFunction,ComponentPad*%
%ADD12C,3.600000*%
%TD*%
%TA.AperFunction,ComponentPad*%
%ADD13RoundRect,0.250000X0.625000X-0.350000X0.625000X0.350000X-0.625000X0.350000X-0.625000X-0.350000X0*%
%TD*%
%TA.AperFunction,ComponentPad*%
%ADD14O,1.750000X1.200000*%
%TD*%
%TA.AperFunction,ComponentPad*%
%ADD15R,1.700000X1.700000*%
%TD*%
%TA.AperFunction,ComponentPad*%
%ADD16O,1.700000X1.700000*%
%TD*%
%TA.AperFunction,ViaPad*%
%ADD17C,0.800000*%
%TD*%
G04 APERTURE END LIST*
D10*
%TO.N,GND*%
%TO.C,J3*%
X33620000Y-88378000D03*
X38620000Y-88378000D03*
D11*
X32620000Y-91078000D03*
X39620000Y-91078000D03*
%TD*%
D12*
%TO.N,GND*%
%TO.C,H4*%
X46482000Y-90500000D03*
%TD*%
D13*
%TO.N,GND*%
%TO.C,J2*%
X38825000Y-83566000D03*
D14*
%TO.N,Net-(J2-Pad2)*%
X38825000Y-81566000D03*
%TD*%
D12*
%TO.N,GND*%
%TO.C,H2*%
X46482000Y-23622000D03*
%TD*%
D13*
%TO.N,/MCU/SPI1_SCK*%
%TO.C,J4*%
X38825000Y-76660000D03*
D14*
%TO.N,/MCU/SPI1_MISO*%
X38825000Y-74660000D03*
%TO.N,/MCU/SPI1_MOSI*%
X38825000Y-72660000D03*
%TO.N,/MCU/Radio_Enable*%
X38825000Y-70660000D03*
%TD*%
D15*
%TO.N,+3.3V*%
%TO.C,J1*%
X41915000Y-66406000D03*
D16*
%TO.N,/MCU/SYS_JTCK_SWCLK*%
X39375000Y-66406000D03*
%TO.N,GND*%
X41915000Y-63866000D03*
%TO.N,/MCU/SYS_JTRST*%
X39375000Y-63866000D03*
%TO.N,/MCU/SYS_JTMS_SWDIO*%
X41915000Y-61326000D03*
%TO.N,/MCU/SYS_JTDO_SWO*%
X39375000Y-61326000D03*
%TD*%
D12*
%TO.N,GND*%
%TO.C,H3*%
X23622000Y-23622000D03*
%TD*%
%TO.N,GND*%
%TO.C,H1*%
X23749000Y-90500000D03*
%TD*%
D17*
%TO.N,GND*%
X34544000Y-78105000D03*
X36830000Y-78486000D03*
X31242000Y-76835000D03*
X45000000Y-87000000D03*
X42500000Y-87000000D03*
X45000000Y-84000000D03*
X42500000Y-84000000D03*
X45000000Y-81000000D03*
X42500000Y-81000000D03*
X45000000Y-78000000D03*
X42500000Y-78000000D03*
X45000000Y-75000000D03*
X42500000Y-75000000D03*
X45000000Y-72000000D03*
X42500000Y-72000000D03*
X45000000Y-69000000D03*
X42500000Y-69000000D03*
X48006000Y-41656000D03*
X48006000Y-37211000D03*
X45466000Y-37211000D03*
X48000000Y-34290000D03*
X48000000Y-32004000D03*
X45466000Y-32004000D03*
X48000000Y-28956000D03*
X24257000Y-42926000D03*
X21971000Y-42926000D03*
X21844000Y-32893000D03*
X24257000Y-30480000D03*
X21844000Y-28067000D03*
X21844000Y-30480000D03*
X24257000Y-28067000D03*
X42000000Y-25000000D03*
X38500000Y-25000000D03*
X35000000Y-25000000D03*
X31500000Y-25000000D03*
X28000000Y-25000000D03*
X42000000Y-22000000D03*
X38500000Y-22000000D03*
X35000000Y-22000000D03*
X31500000Y-22000000D03*
X28000000Y-22000000D03*
%TO.N,+3.3V*%
X22987000Y-76200000D03*
%TO.N,GND*%
X29337000Y-67437000D03*
%TO.N,+3.3V*%
X34671000Y-72517000D03*
X35814000Y-75438000D03*
%TO.N,GND*%
X26035000Y-46355000D03*
%TO.N,+3.3V*%
X21971000Y-46355000D03*
%TO.N,/MCU/QUADSPI_CLK*%
X42286003Y-58424997D03*
X33305500Y-57553317D03*
%TO.N,/MCU/SYS_JTCK_SWCLK*%
X37084000Y-57404000D03*
%TO.N,/MCU/QUADSPI_NCS*%
X33782000Y-46863000D03*
X47244000Y-46863000D03*
%TO.N,/MCU/usb_dm*%
X37707254Y-54141922D03*
X32601780Y-84708013D03*
%TO.N,/MCU/usb_dp*%
X32501461Y-85702469D03*
X37276418Y-52542131D03*
%TO.N,/MCU/SCL*%
X47117000Y-61722000D03*
X30693273Y-51476434D03*
X26670000Y-69088000D03*
%TO.N,GND*%
X21844000Y-50292000D03*
X24892000Y-34036000D03*
X36577642Y-61342642D03*
X21463000Y-72644000D03*
X28575000Y-84582000D03*
X21209000Y-60833000D03*
X40894000Y-51308000D03*
X42418000Y-45847000D03*
X26797000Y-67310000D03*
X22860000Y-35052000D03*
X21336000Y-74168000D03*
X35433000Y-65405000D03*
X21717000Y-85852000D03*
X29464000Y-63500000D03*
X34290000Y-65405000D03*
X22860000Y-40386000D03*
X37211000Y-84709000D03*
X37846000Y-86741000D03*
X30099000Y-58420000D03*
X26162000Y-54102000D03*
X29337000Y-55372000D03*
X28194000Y-45085000D03*
X21209000Y-63246000D03*
X45212000Y-41656000D03*
X29718000Y-50038000D03*
X26289000Y-65786000D03*
X45212000Y-57785000D03*
X47879000Y-64516000D03*
X24003000Y-57531000D03*
X25527000Y-72009000D03*
X25654000Y-79883000D03*
X45339000Y-28956000D03*
X41148000Y-50419000D03*
X45720000Y-56388000D03*
X26543000Y-76200000D03*
%TO.N,+3.3V*%
X47371000Y-56388000D03*
X33655000Y-44577000D03*
X31242000Y-72771000D03*
X38227000Y-48387000D03*
X24384000Y-35052000D03*
X45339000Y-34036000D03*
X29464000Y-61976000D03*
X29464000Y-44577000D03*
X24384000Y-40386000D03*
X37465000Y-61849000D03*
X25527000Y-73152000D03*
X33401000Y-75438000D03*
X27432000Y-49022000D03*
X22987000Y-78232000D03*
X21336000Y-78232000D03*
X20955000Y-81280000D03*
X46736000Y-57785000D03*
%TO.N,+3.3VA*%
X40438021Y-57774852D03*
X24003000Y-61849000D03*
X22225000Y-65786000D03*
X32893395Y-56388000D03*
%TO.N,/MCU/SYS_JTMS_SWDIO*%
X37734426Y-51262167D03*
X40513000Y-58965500D03*
%TO.N,/MCU/SDA*%
X26289000Y-70612000D03*
X31906687Y-50292000D03*
X45974000Y-61722000D03*
%TO.N,/MCU/PWR_BVOLTS*%
X33435092Y-58544382D03*
X36576000Y-65405000D03*
%TD*%
%TA.AperFunction,Conductor*%
%TO.N,GND*%
G36*
X49325597Y-20620462D02*
G01*
X49380135Y-20675000D01*
X49400097Y-20749380D01*
X49418298Y-43592193D01*
X49437029Y-67100029D01*
X49417126Y-67174545D01*
X49362632Y-67229126D01*
X49322787Y-67245037D01*
X48586015Y-67421784D01*
X47289443Y-67732823D01*
X47273980Y-67735678D01*
X47261524Y-67737304D01*
X47244569Y-67739516D01*
X47244567Y-67739517D01*
X47234886Y-67740780D01*
X47225864Y-67744505D01*
X47225857Y-67744507D01*
X47170546Y-67767345D01*
X47167056Y-67768735D01*
X47111196Y-67790167D01*
X47111194Y-67790168D01*
X47102077Y-67793666D01*
X47095852Y-67798187D01*
X47088739Y-67801124D01*
X47050441Y-67830443D01*
X47033486Y-67843423D01*
X47030471Y-67845671D01*
X46982051Y-67880837D01*
X46982048Y-67880840D01*
X46974143Y-67886581D01*
X46969300Y-67892560D01*
X46963190Y-67897237D01*
X46920741Y-67952429D01*
X46918437Y-67955347D01*
X46874617Y-68009441D01*
X46871485Y-68016472D01*
X46866795Y-68022570D01*
X46863048Y-68031586D01*
X46863048Y-68031587D01*
X46840093Y-68086829D01*
X46838606Y-68090283D01*
X46814253Y-68144954D01*
X46814252Y-68144959D01*
X46810280Y-68153875D01*
X46809074Y-68161478D01*
X46806123Y-68168581D01*
X46804838Y-68178261D01*
X46804837Y-68178263D01*
X46796963Y-68237559D01*
X46796425Y-68241253D01*
X46785518Y-68310039D01*
X46789634Y-68349264D01*
X46790446Y-68364966D01*
X46778429Y-79052809D01*
X46770695Y-85932120D01*
X46770580Y-86034013D01*
X46768576Y-86054831D01*
X46768258Y-86060121D01*
X46766406Y-86069710D01*
X46767098Y-86079448D01*
X46767098Y-86079449D01*
X46770095Y-86121614D01*
X46770470Y-86132344D01*
X46770456Y-86144686D01*
X46772698Y-86161865D01*
X46773573Y-86170562D01*
X46777615Y-86227427D01*
X46780804Y-86236653D01*
X46782428Y-86244592D01*
X46784516Y-86252420D01*
X46785780Y-86262104D01*
X46796263Y-86287491D01*
X46807534Y-86314788D01*
X46810640Y-86322986D01*
X46829261Y-86376869D01*
X46834732Y-86384960D01*
X46838357Y-86392210D01*
X46842400Y-86399231D01*
X46846124Y-86408251D01*
X46852057Y-86416001D01*
X46852058Y-86416003D01*
X46880775Y-86453515D01*
X46885894Y-86460626D01*
X46900057Y-86481571D01*
X46917827Y-86507852D01*
X46925201Y-86514248D01*
X46930569Y-86520301D01*
X46936300Y-86526045D01*
X46942237Y-86533800D01*
X46985036Y-86566718D01*
X46987417Y-86568549D01*
X46994203Y-86574093D01*
X47037275Y-86611449D01*
X47046059Y-86615721D01*
X47052826Y-86620189D01*
X47059831Y-86624244D01*
X47067569Y-86630195D01*
X47076585Y-86633941D01*
X47076586Y-86633942D01*
X47120211Y-86652069D01*
X47128187Y-86655661D01*
X47143764Y-86663237D01*
X47155473Y-86667140D01*
X47165525Y-86670899D01*
X47204559Y-86687119D01*
X47204562Y-86687120D01*
X47213580Y-86690867D01*
X47223265Y-86692153D01*
X47228407Y-86693537D01*
X47248756Y-86698234D01*
X49335619Y-87393855D01*
X49399982Y-87436351D01*
X49434475Y-87505336D01*
X49437500Y-87535208D01*
X49437500Y-93230500D01*
X49417538Y-93305000D01*
X49363000Y-93359538D01*
X49288500Y-93379500D01*
X41268750Y-93379500D01*
X41194250Y-93359538D01*
X41149552Y-93319903D01*
X41039983Y-93173811D01*
X41038587Y-93171696D01*
X41037536Y-93169159D01*
X40991918Y-93109708D01*
X40990929Y-93108404D01*
X40972710Y-93084112D01*
X40972700Y-93084101D01*
X40969783Y-93080211D01*
X40967918Y-93078304D01*
X40966139Y-93076112D01*
X40947228Y-93051467D01*
X40941282Y-93043718D01*
X40933532Y-93037771D01*
X40920818Y-93028015D01*
X40905013Y-93014000D01*
X40893810Y-93002548D01*
X40886978Y-92995564D01*
X40872640Y-92987074D01*
X40857662Y-92978205D01*
X40842873Y-92968205D01*
X40823593Y-92953411D01*
X40823587Y-92953408D01*
X40815841Y-92947464D01*
X40806820Y-92943728D01*
X40806814Y-92943724D01*
X40792005Y-92937590D01*
X40773109Y-92928142D01*
X40759328Y-92919982D01*
X40759327Y-92919982D01*
X40750924Y-92915006D01*
X40718123Y-92905829D01*
X40701248Y-92899997D01*
X40678789Y-92890694D01*
X40678781Y-92890692D01*
X40669762Y-92886956D01*
X40660080Y-92885681D01*
X40660079Y-92885681D01*
X40653386Y-92884800D01*
X40644194Y-92883590D01*
X40623499Y-92879355D01*
X40608061Y-92875036D01*
X40608060Y-92875036D01*
X40598656Y-92872405D01*
X40557822Y-92871956D01*
X40555008Y-92871848D01*
X40552361Y-92871500D01*
X40517148Y-92871500D01*
X40515510Y-92871491D01*
X40440551Y-92870667D01*
X40437896Y-92871347D01*
X40435351Y-92871500D01*
X31827649Y-92871500D01*
X31825104Y-92871347D01*
X31822449Y-92870667D01*
X31747490Y-92871491D01*
X31745852Y-92871500D01*
X31710639Y-92871500D01*
X31707992Y-92871848D01*
X31705178Y-92871956D01*
X31664344Y-92872405D01*
X31654940Y-92875036D01*
X31654939Y-92875036D01*
X31639501Y-92879355D01*
X31618806Y-92883590D01*
X31609614Y-92884800D01*
X31602921Y-92885681D01*
X31602920Y-92885681D01*
X31593238Y-92886956D01*
X31584219Y-92890692D01*
X31584211Y-92890694D01*
X31561752Y-92899997D01*
X31544877Y-92905829D01*
X31512076Y-92915006D01*
X31503673Y-92919982D01*
X31503672Y-92919982D01*
X31489891Y-92928142D01*
X31470995Y-92937590D01*
X31456186Y-92943724D01*
X31456180Y-92943728D01*
X31447159Y-92947464D01*
X31439413Y-92953408D01*
X31439407Y-92953411D01*
X31420127Y-92968205D01*
X31405338Y-92978205D01*
X31390360Y-92987074D01*
X31376022Y-92995564D01*
X31369190Y-93002548D01*
X31357987Y-93014000D01*
X31342182Y-93028015D01*
X31329468Y-93037771D01*
X31321718Y-93043718D01*
X31315772Y-93051467D01*
X31296861Y-93076112D01*
X31295082Y-93078304D01*
X31293217Y-93080211D01*
X31290300Y-93084101D01*
X31290290Y-93084112D01*
X31272071Y-93108404D01*
X31271082Y-93109708D01*
X31225464Y-93169159D01*
X31224413Y-93171696D01*
X31223017Y-93173811D01*
X31113449Y-93319902D01*
X31052780Y-93367523D01*
X30994250Y-93379500D01*
X20749500Y-93379500D01*
X20675000Y-93359538D01*
X20620462Y-93305000D01*
X20600500Y-93230500D01*
X20600500Y-92303337D01*
X22310736Y-92303337D01*
X22316748Y-92313751D01*
X22337298Y-92331773D01*
X22345019Y-92337697D01*
X22588473Y-92500368D01*
X22596895Y-92505230D01*
X22859503Y-92634734D01*
X22868480Y-92638453D01*
X23145755Y-92732575D01*
X23155143Y-92735091D01*
X23442317Y-92792213D01*
X23451963Y-92793483D01*
X23744133Y-92812633D01*
X23753867Y-92812633D01*
X24046037Y-92793483D01*
X24055683Y-92792213D01*
X24342857Y-92735091D01*
X24352245Y-92732575D01*
X24629520Y-92638453D01*
X24638497Y-92634734D01*
X24901105Y-92505230D01*
X24909527Y-92500368D01*
X25152981Y-92337697D01*
X25160702Y-92331773D01*
X25178379Y-92316270D01*
X25187277Y-92302954D01*
X25181959Y-92292169D01*
X23762871Y-90873081D01*
X23749000Y-90865073D01*
X23735129Y-90873081D01*
X22318744Y-92289466D01*
X22310736Y-92303337D01*
X20600500Y-92303337D01*
X20600500Y-90504867D01*
X21436367Y-90504867D01*
X21455517Y-90797037D01*
X21456787Y-90806683D01*
X21513909Y-91093857D01*
X21516425Y-91103245D01*
X21610547Y-91380520D01*
X21614266Y-91389497D01*
X21743770Y-91652105D01*
X21748632Y-91660527D01*
X21911303Y-91903981D01*
X21917227Y-91911702D01*
X21932730Y-91929379D01*
X21946046Y-91938277D01*
X21956831Y-91932959D01*
X23375919Y-90513871D01*
X23383927Y-90500000D01*
X24114073Y-90500000D01*
X24122081Y-90513871D01*
X25538466Y-91930256D01*
X25552337Y-91938264D01*
X25562751Y-91932252D01*
X25580773Y-91911702D01*
X25586697Y-91903981D01*
X25749368Y-91660527D01*
X25754230Y-91652105D01*
X25818544Y-91521690D01*
X31712000Y-91521690D01*
X31712408Y-91529471D01*
X31726133Y-91660062D01*
X31729362Y-91675249D01*
X31783518Y-91841924D01*
X31789835Y-91856112D01*
X31877464Y-92007891D01*
X31886588Y-92020448D01*
X32003858Y-92150691D01*
X32015396Y-92161081D01*
X32157183Y-92264094D01*
X32170633Y-92271859D01*
X32330730Y-92343139D01*
X32345507Y-92347941D01*
X32346813Y-92348219D01*
X32362807Y-92347380D01*
X32366000Y-92341115D01*
X32366000Y-92332681D01*
X32874000Y-92332681D01*
X32878145Y-92348152D01*
X32884939Y-92349972D01*
X32894493Y-92347941D01*
X32909270Y-92343139D01*
X33069367Y-92271859D01*
X33082817Y-92264094D01*
X33224604Y-92161081D01*
X33236142Y-92150691D01*
X33353412Y-92020448D01*
X33362536Y-92007891D01*
X33450165Y-91856112D01*
X33456482Y-91841924D01*
X33510638Y-91675249D01*
X33513867Y-91660062D01*
X33527592Y-91529471D01*
X33528000Y-91521690D01*
X38712000Y-91521690D01*
X38712408Y-91529471D01*
X38726133Y-91660062D01*
X38729362Y-91675249D01*
X38783518Y-91841924D01*
X38789835Y-91856112D01*
X38877464Y-92007891D01*
X38886588Y-92020448D01*
X39003858Y-92150691D01*
X39015396Y-92161081D01*
X39157183Y-92264094D01*
X39170633Y-92271859D01*
X39330730Y-92343139D01*
X39345507Y-92347941D01*
X39346813Y-92348219D01*
X39362807Y-92347380D01*
X39366000Y-92341115D01*
X39366000Y-92332681D01*
X39874000Y-92332681D01*
X39878145Y-92348152D01*
X39884939Y-92349972D01*
X39894493Y-92347941D01*
X39909270Y-92343139D01*
X39998666Y-92303337D01*
X45043736Y-92303337D01*
X45049748Y-92313751D01*
X45070298Y-92331773D01*
X45078019Y-92337697D01*
X45321473Y-92500368D01*
X45329895Y-92505230D01*
X45592503Y-92634734D01*
X45601480Y-92638453D01*
X45878755Y-92732575D01*
X45888143Y-92735091D01*
X46175317Y-92792213D01*
X46184963Y-92793483D01*
X46477133Y-92812633D01*
X46486867Y-92812633D01*
X46779037Y-92793483D01*
X46788683Y-92792213D01*
X47075857Y-92735091D01*
X47085245Y-92732575D01*
X47362520Y-92638453D01*
X47371497Y-92634734D01*
X47634105Y-92505230D01*
X47642527Y-92500368D01*
X47885981Y-92337697D01*
X47893702Y-92331773D01*
X47911379Y-92316270D01*
X47920277Y-92302954D01*
X47914959Y-92292169D01*
X46495871Y-90873081D01*
X46482000Y-90865073D01*
X46468129Y-90873081D01*
X45051744Y-92289466D01*
X45043736Y-92303337D01*
X39998666Y-92303337D01*
X40069367Y-92271859D01*
X40082817Y-92264094D01*
X40224604Y-92161081D01*
X40236142Y-92150691D01*
X40353412Y-92020448D01*
X40362536Y-92007891D01*
X40450165Y-91856112D01*
X40456482Y-91841924D01*
X40510638Y-91675249D01*
X40513867Y-91660062D01*
X40527592Y-91529471D01*
X40528000Y-91521690D01*
X40528000Y-91351616D01*
X40523855Y-91336145D01*
X40508384Y-91332000D01*
X39893616Y-91332000D01*
X39878145Y-91336145D01*
X39874000Y-91351616D01*
X39874000Y-92332681D01*
X39366000Y-92332681D01*
X39366000Y-91351616D01*
X39361855Y-91336145D01*
X39346384Y-91332000D01*
X38731616Y-91332000D01*
X38716145Y-91336145D01*
X38712000Y-91351616D01*
X38712000Y-91521690D01*
X33528000Y-91521690D01*
X33528000Y-91351616D01*
X33523855Y-91336145D01*
X33508384Y-91332000D01*
X32893616Y-91332000D01*
X32878145Y-91336145D01*
X32874000Y-91351616D01*
X32874000Y-92332681D01*
X32366000Y-92332681D01*
X32366000Y-91351616D01*
X32361855Y-91336145D01*
X32346384Y-91332000D01*
X31731616Y-91332000D01*
X31716145Y-91336145D01*
X31712000Y-91351616D01*
X31712000Y-91521690D01*
X25818544Y-91521690D01*
X25883734Y-91389497D01*
X25887453Y-91380520D01*
X25981575Y-91103245D01*
X25984091Y-91093857D01*
X26041213Y-90806683D01*
X26041516Y-90804384D01*
X31712000Y-90804384D01*
X31716145Y-90819855D01*
X31731616Y-90824000D01*
X32346384Y-90824000D01*
X32361855Y-90819855D01*
X32366000Y-90804384D01*
X32874000Y-90804384D01*
X32878145Y-90819855D01*
X32893616Y-90824000D01*
X33508384Y-90824000D01*
X33523855Y-90819855D01*
X33528000Y-90804384D01*
X38712000Y-90804384D01*
X38716145Y-90819855D01*
X38731616Y-90824000D01*
X39346384Y-90824000D01*
X39361855Y-90819855D01*
X39366000Y-90804384D01*
X39874000Y-90804384D01*
X39878145Y-90819855D01*
X39893616Y-90824000D01*
X40508384Y-90824000D01*
X40523855Y-90819855D01*
X40528000Y-90804384D01*
X40528000Y-90634310D01*
X40527592Y-90626529D01*
X40514805Y-90504867D01*
X44169367Y-90504867D01*
X44188517Y-90797037D01*
X44189787Y-90806683D01*
X44246909Y-91093857D01*
X44249425Y-91103245D01*
X44343547Y-91380520D01*
X44347266Y-91389497D01*
X44476770Y-91652105D01*
X44481632Y-91660527D01*
X44644303Y-91903981D01*
X44650227Y-91911702D01*
X44665730Y-91929379D01*
X44679046Y-91938277D01*
X44689831Y-91932959D01*
X46108919Y-90513871D01*
X46116927Y-90500000D01*
X46847073Y-90500000D01*
X46855081Y-90513871D01*
X48271466Y-91930256D01*
X48285337Y-91938264D01*
X48295751Y-91932252D01*
X48313773Y-91911702D01*
X48319697Y-91903981D01*
X48482368Y-91660527D01*
X48487230Y-91652105D01*
X48616734Y-91389497D01*
X48620453Y-91380520D01*
X48714575Y-91103245D01*
X48717091Y-91093857D01*
X48774213Y-90806683D01*
X48775483Y-90797037D01*
X48794633Y-90504867D01*
X48794633Y-90495133D01*
X48775483Y-90202963D01*
X48774213Y-90193317D01*
X48717091Y-89906143D01*
X48714575Y-89896755D01*
X48620453Y-89619480D01*
X48616734Y-89610503D01*
X48487230Y-89347895D01*
X48482368Y-89339473D01*
X48319697Y-89096019D01*
X48313773Y-89088298D01*
X48298270Y-89070621D01*
X48284954Y-89061723D01*
X48274169Y-89067041D01*
X46855081Y-90486129D01*
X46847073Y-90500000D01*
X46116927Y-90500000D01*
X46108919Y-90486129D01*
X44692534Y-89069744D01*
X44678663Y-89061736D01*
X44668249Y-89067748D01*
X44650227Y-89088298D01*
X44644303Y-89096019D01*
X44481632Y-89339473D01*
X44476770Y-89347895D01*
X44347266Y-89610503D01*
X44343547Y-89619480D01*
X44249425Y-89896755D01*
X44246909Y-89906143D01*
X44189787Y-90193317D01*
X44188517Y-90202963D01*
X44169367Y-90495133D01*
X44169367Y-90504867D01*
X40514805Y-90504867D01*
X40513867Y-90495938D01*
X40510638Y-90480751D01*
X40456482Y-90314076D01*
X40450165Y-90299888D01*
X40362536Y-90148109D01*
X40353412Y-90135552D01*
X40236142Y-90005309D01*
X40224604Y-89994919D01*
X40082817Y-89891906D01*
X40069367Y-89884141D01*
X39909270Y-89812861D01*
X39894493Y-89808059D01*
X39893187Y-89807781D01*
X39877193Y-89808620D01*
X39874000Y-89814885D01*
X39874000Y-90804384D01*
X39366000Y-90804384D01*
X39366000Y-89823319D01*
X39361855Y-89807848D01*
X39355061Y-89806028D01*
X39345507Y-89808059D01*
X39330730Y-89812861D01*
X39170633Y-89884141D01*
X39157183Y-89891906D01*
X39015396Y-89994919D01*
X39003858Y-90005309D01*
X38886588Y-90135552D01*
X38877464Y-90148109D01*
X38789835Y-90299888D01*
X38783518Y-90314076D01*
X38729362Y-90480751D01*
X38726133Y-90495938D01*
X38712408Y-90626529D01*
X38712000Y-90634310D01*
X38712000Y-90804384D01*
X33528000Y-90804384D01*
X33528000Y-90634310D01*
X33527592Y-90626529D01*
X33513867Y-90495938D01*
X33510638Y-90480751D01*
X33456482Y-90314076D01*
X33450165Y-90299888D01*
X33362536Y-90148109D01*
X33353412Y-90135552D01*
X33236142Y-90005309D01*
X33224604Y-89994919D01*
X33082817Y-89891906D01*
X33069367Y-89884141D01*
X32909270Y-89812861D01*
X32894493Y-89808059D01*
X32893187Y-89807781D01*
X32877193Y-89808620D01*
X32874000Y-89814885D01*
X32874000Y-90804384D01*
X32366000Y-90804384D01*
X32366000Y-89823319D01*
X32361855Y-89807848D01*
X32355061Y-89806028D01*
X32345507Y-89808059D01*
X32330730Y-89812861D01*
X32170633Y-89884141D01*
X32157183Y-89891906D01*
X32015396Y-89994919D01*
X32003858Y-90005309D01*
X31886588Y-90135552D01*
X31877464Y-90148109D01*
X31789835Y-90299888D01*
X31783518Y-90314076D01*
X31729362Y-90480751D01*
X31726133Y-90495938D01*
X31712408Y-90626529D01*
X31712000Y-90634310D01*
X31712000Y-90804384D01*
X26041516Y-90804384D01*
X26042483Y-90797037D01*
X26061633Y-90504867D01*
X26061633Y-90495133D01*
X26042483Y-90202963D01*
X26041213Y-90193317D01*
X25984091Y-89906143D01*
X25981575Y-89896755D01*
X25887453Y-89619480D01*
X25883734Y-89610503D01*
X25785472Y-89411248D01*
X32951825Y-89411248D01*
X32955803Y-89418139D01*
X32995815Y-89446156D01*
X33007043Y-89452638D01*
X33190785Y-89538319D01*
X33202959Y-89542750D01*
X33398795Y-89595224D01*
X33411550Y-89597473D01*
X33613519Y-89615143D01*
X33626481Y-89615143D01*
X33828450Y-89597473D01*
X33841205Y-89595224D01*
X34037041Y-89542750D01*
X34049215Y-89538319D01*
X34232957Y-89452638D01*
X34244185Y-89446156D01*
X34277969Y-89422500D01*
X34287410Y-89411248D01*
X37951825Y-89411248D01*
X37955803Y-89418139D01*
X37995815Y-89446156D01*
X38007043Y-89452638D01*
X38190785Y-89538319D01*
X38202959Y-89542750D01*
X38398795Y-89595224D01*
X38411550Y-89597473D01*
X38613519Y-89615143D01*
X38626481Y-89615143D01*
X38828450Y-89597473D01*
X38841205Y-89595224D01*
X39037041Y-89542750D01*
X39049215Y-89538319D01*
X39232957Y-89452638D01*
X39244185Y-89446156D01*
X39277969Y-89422500D01*
X39288264Y-89410230D01*
X39285543Y-89402753D01*
X38633871Y-88751081D01*
X38620000Y-88743073D01*
X38606129Y-88751081D01*
X37959833Y-89397377D01*
X37951825Y-89411248D01*
X34287410Y-89411248D01*
X34288264Y-89410230D01*
X34285543Y-89402753D01*
X33633871Y-88751081D01*
X33620000Y-88743073D01*
X33606129Y-88751081D01*
X32959833Y-89397377D01*
X32951825Y-89411248D01*
X25785472Y-89411248D01*
X25754230Y-89347895D01*
X25749368Y-89339473D01*
X25586697Y-89096019D01*
X25580773Y-89088298D01*
X25565270Y-89070621D01*
X25551954Y-89061723D01*
X25541169Y-89067041D01*
X24122081Y-90486129D01*
X24114073Y-90500000D01*
X23383927Y-90500000D01*
X23375919Y-90486129D01*
X21959534Y-89069744D01*
X21945663Y-89061736D01*
X21935249Y-89067748D01*
X21917227Y-89088298D01*
X21911303Y-89096019D01*
X21748632Y-89339473D01*
X21743770Y-89347895D01*
X21614266Y-89610503D01*
X21610547Y-89619480D01*
X21516425Y-89896755D01*
X21513909Y-89906143D01*
X21456787Y-90193317D01*
X21455517Y-90202963D01*
X21436367Y-90495133D01*
X21436367Y-90504867D01*
X20600500Y-90504867D01*
X20600500Y-88697046D01*
X22310723Y-88697046D01*
X22316041Y-88707831D01*
X23735129Y-90126919D01*
X23749000Y-90134927D01*
X23762871Y-90126919D01*
X25179256Y-88710534D01*
X25187264Y-88696663D01*
X25181252Y-88686249D01*
X25160702Y-88668227D01*
X25152981Y-88662303D01*
X24909527Y-88499632D01*
X24901105Y-88494770D01*
X24677461Y-88384481D01*
X32382857Y-88384481D01*
X32400527Y-88586450D01*
X32402776Y-88599205D01*
X32455250Y-88795041D01*
X32459681Y-88807215D01*
X32545362Y-88990957D01*
X32551844Y-89002185D01*
X32575500Y-89035969D01*
X32587770Y-89046264D01*
X32595247Y-89043543D01*
X33246919Y-88391871D01*
X33254927Y-88378000D01*
X33985073Y-88378000D01*
X33993081Y-88391871D01*
X34639377Y-89038167D01*
X34653248Y-89046175D01*
X34660139Y-89042197D01*
X34688156Y-89002185D01*
X34694638Y-88990957D01*
X34780319Y-88807215D01*
X34784750Y-88795041D01*
X34837224Y-88599205D01*
X34839473Y-88586450D01*
X34857143Y-88384481D01*
X37382857Y-88384481D01*
X37400527Y-88586450D01*
X37402776Y-88599205D01*
X37455250Y-88795041D01*
X37459681Y-88807215D01*
X37545362Y-88990957D01*
X37551844Y-89002185D01*
X37575500Y-89035969D01*
X37587770Y-89046264D01*
X37595247Y-89043543D01*
X38246919Y-88391871D01*
X38254927Y-88378000D01*
X38985073Y-88378000D01*
X38993081Y-88391871D01*
X39639377Y-89038167D01*
X39653248Y-89046175D01*
X39660139Y-89042197D01*
X39688156Y-89002185D01*
X39694638Y-88990957D01*
X39780319Y-88807215D01*
X39784750Y-88795041D01*
X39811008Y-88697046D01*
X45043723Y-88697046D01*
X45049041Y-88707831D01*
X46468129Y-90126919D01*
X46482000Y-90134927D01*
X46495871Y-90126919D01*
X47912256Y-88710534D01*
X47920264Y-88696663D01*
X47914252Y-88686249D01*
X47893702Y-88668227D01*
X47885981Y-88662303D01*
X47642527Y-88499632D01*
X47634105Y-88494770D01*
X47371497Y-88365266D01*
X47362520Y-88361547D01*
X47085245Y-88267425D01*
X47075857Y-88264909D01*
X46788683Y-88207787D01*
X46779037Y-88206517D01*
X46486867Y-88187367D01*
X46477133Y-88187367D01*
X46184963Y-88206517D01*
X46175317Y-88207787D01*
X45888143Y-88264909D01*
X45878755Y-88267425D01*
X45601480Y-88361547D01*
X45592503Y-88365266D01*
X45329895Y-88494770D01*
X45321473Y-88499632D01*
X45078019Y-88662303D01*
X45070298Y-88668227D01*
X45052621Y-88683730D01*
X45043723Y-88697046D01*
X39811008Y-88697046D01*
X39837224Y-88599205D01*
X39839473Y-88586450D01*
X39857143Y-88384481D01*
X39857143Y-88371519D01*
X39839473Y-88169550D01*
X39837224Y-88156795D01*
X39784750Y-87960959D01*
X39780319Y-87948785D01*
X39694638Y-87765043D01*
X39688156Y-87753815D01*
X39664500Y-87720031D01*
X39652230Y-87709736D01*
X39644753Y-87712457D01*
X38993081Y-88364129D01*
X38985073Y-88378000D01*
X38254927Y-88378000D01*
X38246919Y-88364129D01*
X37600623Y-87717833D01*
X37586752Y-87709825D01*
X37579861Y-87713803D01*
X37551844Y-87753815D01*
X37545362Y-87765043D01*
X37459681Y-87948785D01*
X37455250Y-87960959D01*
X37402776Y-88156795D01*
X37400527Y-88169550D01*
X37382857Y-88371519D01*
X37382857Y-88384481D01*
X34857143Y-88384481D01*
X34857143Y-88371519D01*
X34839473Y-88169550D01*
X34837224Y-88156795D01*
X34784750Y-87960959D01*
X34780319Y-87948785D01*
X34694638Y-87765043D01*
X34688156Y-87753815D01*
X34664500Y-87720031D01*
X34652230Y-87709736D01*
X34644753Y-87712457D01*
X33993081Y-88364129D01*
X33985073Y-88378000D01*
X33254927Y-88378000D01*
X33246919Y-88364129D01*
X32600623Y-87717833D01*
X32586752Y-87709825D01*
X32579861Y-87713803D01*
X32551844Y-87753815D01*
X32545362Y-87765043D01*
X32459681Y-87948785D01*
X32455250Y-87960959D01*
X32402776Y-88156795D01*
X32400527Y-88169550D01*
X32382857Y-88371519D01*
X32382857Y-88384481D01*
X24677461Y-88384481D01*
X24638497Y-88365266D01*
X24629520Y-88361547D01*
X24352245Y-88267425D01*
X24342857Y-88264909D01*
X24055683Y-88207787D01*
X24046037Y-88206517D01*
X23753867Y-88187367D01*
X23744133Y-88187367D01*
X23451963Y-88206517D01*
X23442317Y-88207787D01*
X23155143Y-88264909D01*
X23145755Y-88267425D01*
X22868480Y-88361547D01*
X22859503Y-88365266D01*
X22596895Y-88494770D01*
X22588473Y-88499632D01*
X22345019Y-88662303D01*
X22337298Y-88668227D01*
X22319621Y-88683730D01*
X22310723Y-88697046D01*
X20600500Y-88697046D01*
X20600500Y-87345770D01*
X32951736Y-87345770D01*
X32954457Y-87353247D01*
X33606129Y-88004919D01*
X33620000Y-88012927D01*
X33633871Y-88004919D01*
X34280167Y-87358623D01*
X34287587Y-87345770D01*
X37951736Y-87345770D01*
X37954457Y-87353247D01*
X38606129Y-88004919D01*
X38620000Y-88012927D01*
X38633871Y-88004919D01*
X39280167Y-87358623D01*
X39288175Y-87344752D01*
X39284197Y-87337861D01*
X39244185Y-87309844D01*
X39232957Y-87303362D01*
X39049215Y-87217681D01*
X39037041Y-87213250D01*
X38841205Y-87160776D01*
X38828450Y-87158527D01*
X38626481Y-87140857D01*
X38613519Y-87140857D01*
X38411550Y-87158527D01*
X38398795Y-87160776D01*
X38202959Y-87213250D01*
X38190785Y-87217681D01*
X38007043Y-87303362D01*
X37995815Y-87309844D01*
X37962031Y-87333500D01*
X37951736Y-87345770D01*
X34287587Y-87345770D01*
X34288175Y-87344752D01*
X34284197Y-87337861D01*
X34244185Y-87309844D01*
X34232957Y-87303362D01*
X34049215Y-87217681D01*
X34037041Y-87213250D01*
X33841205Y-87160776D01*
X33828450Y-87158527D01*
X33626481Y-87140857D01*
X33613519Y-87140857D01*
X33411550Y-87158527D01*
X33398795Y-87160776D01*
X33202959Y-87213250D01*
X33190785Y-87217681D01*
X33007043Y-87303362D01*
X32995815Y-87309844D01*
X32962031Y-87333500D01*
X32951736Y-87345770D01*
X20600500Y-87345770D01*
X20600500Y-85688432D01*
X31496218Y-85688432D01*
X31512636Y-85883952D01*
X31566719Y-86072560D01*
X31656405Y-86247070D01*
X31660927Y-86252775D01*
X31771441Y-86392210D01*
X31778279Y-86400838D01*
X31927699Y-86528004D01*
X31934062Y-86531560D01*
X32092610Y-86620170D01*
X32092616Y-86620173D01*
X32098974Y-86623726D01*
X32285579Y-86684358D01*
X32394482Y-86697344D01*
X32473176Y-86706728D01*
X32473179Y-86706728D01*
X32480407Y-86707590D01*
X32591904Y-86699011D01*
X32668775Y-86693096D01*
X32668777Y-86693096D01*
X32676037Y-86692537D01*
X32766997Y-86667140D01*
X32857994Y-86641733D01*
X32857995Y-86641733D01*
X32865017Y-86639772D01*
X32871523Y-86636485D01*
X32871527Y-86636484D01*
X33033645Y-86554592D01*
X33033646Y-86554592D01*
X33040150Y-86551306D01*
X33160867Y-86456992D01*
X33189021Y-86434996D01*
X33189022Y-86434995D01*
X33194764Y-86430509D01*
X33322970Y-86281980D01*
X33403738Y-86139804D01*
X33416288Y-86117712D01*
X33416289Y-86117710D01*
X33419886Y-86111378D01*
X33481819Y-85925201D01*
X33506410Y-85730540D01*
X33506802Y-85702469D01*
X33487655Y-85507197D01*
X33440469Y-85350908D01*
X33438047Y-85273820D01*
X33453556Y-85234246D01*
X33516603Y-85123264D01*
X33516606Y-85123258D01*
X33520205Y-85116922D01*
X33582138Y-84930745D01*
X33606729Y-84736084D01*
X33607121Y-84708013D01*
X33587974Y-84512741D01*
X33531264Y-84324907D01*
X33489253Y-84245895D01*
X33442572Y-84158101D01*
X33442570Y-84158098D01*
X33439150Y-84151666D01*
X33434547Y-84146023D01*
X33434545Y-84146019D01*
X33319744Y-84005259D01*
X33315141Y-83999615D01*
X33270280Y-83962503D01*
X37442001Y-83962503D01*
X37442400Y-83970204D01*
X37452127Y-84063953D01*
X37455547Y-84079793D01*
X37506168Y-84231524D01*
X37513461Y-84247093D01*
X37597359Y-84382669D01*
X37608048Y-84396156D01*
X37720883Y-84508795D01*
X37734377Y-84519452D01*
X37870105Y-84603115D01*
X37885693Y-84610384D01*
X38037518Y-84660743D01*
X38053333Y-84664133D01*
X38145849Y-84673612D01*
X38153444Y-84674000D01*
X38551384Y-84674000D01*
X38566855Y-84669855D01*
X38571000Y-84654384D01*
X38571000Y-84654383D01*
X39079000Y-84654383D01*
X39083145Y-84669854D01*
X39098616Y-84673999D01*
X39496503Y-84673999D01*
X39504204Y-84673600D01*
X39597953Y-84663873D01*
X39613793Y-84660453D01*
X39765524Y-84609832D01*
X39781093Y-84602539D01*
X39916669Y-84518641D01*
X39930156Y-84507952D01*
X40042795Y-84395117D01*
X40053452Y-84381623D01*
X40137115Y-84245895D01*
X40144384Y-84230307D01*
X40194743Y-84078482D01*
X40198133Y-84062667D01*
X40207612Y-83970151D01*
X40208000Y-83962556D01*
X40208000Y-83839616D01*
X40203855Y-83824145D01*
X40188384Y-83820000D01*
X39098616Y-83820000D01*
X39083145Y-83824145D01*
X39079000Y-83839616D01*
X39079000Y-84654383D01*
X38571000Y-84654383D01*
X38571000Y-83839616D01*
X38566855Y-83824145D01*
X38551384Y-83820000D01*
X37461617Y-83820000D01*
X37446146Y-83824145D01*
X37442001Y-83839616D01*
X37442001Y-83962503D01*
X33270280Y-83962503D01*
X33163960Y-83874548D01*
X32991365Y-83781226D01*
X32860982Y-83740866D01*
X32810891Y-83725360D01*
X32810889Y-83725360D01*
X32803932Y-83723206D01*
X32796690Y-83722445D01*
X32796686Y-83722444D01*
X32616040Y-83703457D01*
X32616039Y-83703457D01*
X32608799Y-83702696D01*
X32413398Y-83720479D01*
X32225173Y-83775877D01*
X32051292Y-83866780D01*
X31898380Y-83989724D01*
X31772260Y-84140029D01*
X31677736Y-84311967D01*
X31618408Y-84498991D01*
X31617595Y-84506235D01*
X31617595Y-84506237D01*
X31597349Y-84686735D01*
X31596537Y-84693976D01*
X31612955Y-84889496D01*
X31614965Y-84896505D01*
X31614965Y-84896506D01*
X31662416Y-85061985D01*
X31663762Y-85139101D01*
X31649760Y-85174832D01*
X31577417Y-85306423D01*
X31518089Y-85493447D01*
X31517276Y-85500691D01*
X31517276Y-85500693D01*
X31515734Y-85514443D01*
X31496218Y-85688432D01*
X20600500Y-85688432D01*
X20600500Y-82413183D01*
X20620462Y-82338683D01*
X20675000Y-82284145D01*
X20749500Y-82264183D01*
X20767142Y-82265231D01*
X20926715Y-82284259D01*
X20926718Y-82284259D01*
X20933946Y-82285121D01*
X21045443Y-82276542D01*
X21122314Y-82270627D01*
X21122316Y-82270627D01*
X21129576Y-82270068D01*
X21318556Y-82217303D01*
X21325062Y-82214016D01*
X21325066Y-82214015D01*
X21487184Y-82132123D01*
X21487185Y-82132123D01*
X21493689Y-82128837D01*
X21648303Y-82008040D01*
X21776509Y-81859511D01*
X21873425Y-81688909D01*
X21882844Y-81660594D01*
X37348074Y-81660594D01*
X37385438Y-81878043D01*
X37387799Y-81884442D01*
X37387800Y-81884447D01*
X37394172Y-81901719D01*
X37461804Y-82085043D01*
X37574614Y-82274659D01*
X37696096Y-82413183D01*
X37713711Y-82433269D01*
X37747824Y-82502443D01*
X37742780Y-82579406D01*
X37707137Y-82636779D01*
X37607202Y-82736888D01*
X37596548Y-82750377D01*
X37512885Y-82886105D01*
X37505616Y-82901693D01*
X37455257Y-83053518D01*
X37451867Y-83069333D01*
X37442388Y-83161849D01*
X37442000Y-83169445D01*
X37442000Y-83292384D01*
X37446145Y-83307855D01*
X37461616Y-83312000D01*
X40188383Y-83312000D01*
X40203854Y-83307855D01*
X40207999Y-83292384D01*
X40207999Y-83169497D01*
X40207600Y-83161796D01*
X40197873Y-83068047D01*
X40194453Y-83052207D01*
X40143832Y-82900476D01*
X40136539Y-82884907D01*
X40052641Y-82749331D01*
X40041952Y-82735844D01*
X39941436Y-82635503D01*
X39902814Y-82568742D01*
X39902747Y-82491614D01*
X39937289Y-82428912D01*
X40051860Y-82304970D01*
X40051862Y-82304968D01*
X40056501Y-82299949D01*
X40066210Y-82284562D01*
X40170591Y-82119127D01*
X40174236Y-82113350D01*
X40255994Y-81908421D01*
X40299038Y-81692024D01*
X40300501Y-81580264D01*
X40301837Y-81478240D01*
X40301837Y-81478235D01*
X40301926Y-81471406D01*
X40264562Y-81253957D01*
X40262201Y-81247558D01*
X40262200Y-81247553D01*
X40220487Y-81134487D01*
X40188196Y-81046957D01*
X40075386Y-80857341D01*
X39929910Y-80691457D01*
X39924547Y-80687229D01*
X39762005Y-80559092D01*
X39762002Y-80559090D01*
X39756640Y-80554863D01*
X39649506Y-80498496D01*
X39567425Y-80455311D01*
X39567421Y-80455309D01*
X39561380Y-80452131D01*
X39463136Y-80421625D01*
X39357187Y-80388727D01*
X39357182Y-80388726D01*
X39350667Y-80386703D01*
X39343890Y-80385901D01*
X39343886Y-80385900D01*
X39175877Y-80366015D01*
X39175873Y-80366015D01*
X39171524Y-80365500D01*
X38494030Y-80365500D01*
X38330289Y-80380546D01*
X38117936Y-80440435D01*
X38111807Y-80443457D01*
X38111803Y-80443459D01*
X38087770Y-80455311D01*
X37920053Y-80538020D01*
X37914582Y-80542105D01*
X37914581Y-80542106D01*
X37891834Y-80559092D01*
X37743267Y-80670033D01*
X37738629Y-80675050D01*
X37738626Y-80675053D01*
X37598140Y-80827030D01*
X37593499Y-80832051D01*
X37589854Y-80837829D01*
X37589851Y-80837832D01*
X37479409Y-81012873D01*
X37475764Y-81018650D01*
X37394006Y-81223579D01*
X37386625Y-81260685D01*
X37377200Y-81308071D01*
X37350962Y-81439976D01*
X37348074Y-81660594D01*
X21882844Y-81660594D01*
X21935358Y-81502732D01*
X21939316Y-81471406D01*
X21959427Y-81312200D01*
X21959949Y-81308071D01*
X21960341Y-81280000D01*
X21941194Y-81084728D01*
X21884484Y-80896894D01*
X21853080Y-80837832D01*
X21795792Y-80730088D01*
X21795790Y-80730085D01*
X21792370Y-80723653D01*
X21787767Y-80718010D01*
X21787765Y-80718006D01*
X21672964Y-80577246D01*
X21668361Y-80571602D01*
X21517180Y-80446535D01*
X21344585Y-80353213D01*
X21214202Y-80312853D01*
X21164111Y-80297347D01*
X21164109Y-80297347D01*
X21157152Y-80295193D01*
X21149910Y-80294432D01*
X21149906Y-80294431D01*
X20969260Y-80275444D01*
X20969259Y-80275444D01*
X20962019Y-80274683D01*
X20766618Y-80292466D01*
X20766423Y-80290324D01*
X20700484Y-80285475D01*
X20636697Y-80242115D01*
X20603136Y-80172672D01*
X20600500Y-80144768D01*
X20600500Y-79221107D01*
X20620462Y-79146607D01*
X20675000Y-79092069D01*
X20749500Y-79072107D01*
X20822191Y-79091042D01*
X20927141Y-79149697D01*
X20927151Y-79149701D01*
X20933513Y-79153257D01*
X21120118Y-79213889D01*
X21193397Y-79222627D01*
X21307715Y-79236259D01*
X21307718Y-79236259D01*
X21314946Y-79237121D01*
X21426443Y-79228542D01*
X21503314Y-79222627D01*
X21503316Y-79222627D01*
X21510576Y-79222068D01*
X21699556Y-79169303D01*
X21706062Y-79166016D01*
X21706066Y-79166015D01*
X21868184Y-79084123D01*
X21868185Y-79084123D01*
X21874689Y-79080837D01*
X22029303Y-78960040D01*
X22034067Y-78954521D01*
X22047357Y-78939125D01*
X22111148Y-78895773D01*
X22188069Y-78890125D01*
X22257509Y-78923695D01*
X22261578Y-78927542D01*
X22263818Y-78930369D01*
X22413238Y-79057535D01*
X22419601Y-79061091D01*
X22578149Y-79149701D01*
X22578155Y-79149704D01*
X22584513Y-79153257D01*
X22771118Y-79213889D01*
X22844397Y-79222627D01*
X22958715Y-79236259D01*
X22958718Y-79236259D01*
X22965946Y-79237121D01*
X23077443Y-79228542D01*
X23154314Y-79222627D01*
X23154316Y-79222627D01*
X23161576Y-79222068D01*
X23350556Y-79169303D01*
X23357062Y-79166016D01*
X23357066Y-79166015D01*
X23519184Y-79084123D01*
X23519185Y-79084123D01*
X23525689Y-79080837D01*
X23680303Y-78960040D01*
X23808509Y-78811511D01*
X23905425Y-78640909D01*
X23967358Y-78454732D01*
X23991949Y-78260071D01*
X23992341Y-78232000D01*
X23973194Y-78036728D01*
X23916484Y-77848894D01*
X23913061Y-77842456D01*
X23827792Y-77682088D01*
X23827790Y-77682085D01*
X23824370Y-77675653D01*
X23819767Y-77670010D01*
X23819765Y-77670006D01*
X23704964Y-77529246D01*
X23700361Y-77523602D01*
X23549180Y-77398535D01*
X23454170Y-77347163D01*
X23398132Y-77294170D01*
X23376097Y-77220257D01*
X23393971Y-77145228D01*
X23446965Y-77089189D01*
X23457858Y-77083101D01*
X23519184Y-77052123D01*
X23519185Y-77052123D01*
X23525689Y-77048837D01*
X23680303Y-76928040D01*
X23808509Y-76779511D01*
X23905425Y-76608909D01*
X23967358Y-76422732D01*
X23991949Y-76228071D01*
X23992341Y-76200000D01*
X23973194Y-76004728D01*
X23916484Y-75816894D01*
X23913061Y-75810456D01*
X23827792Y-75650088D01*
X23827790Y-75650085D01*
X23824370Y-75643653D01*
X23819767Y-75638010D01*
X23819765Y-75638006D01*
X23704964Y-75497246D01*
X23700361Y-75491602D01*
X23618599Y-75423963D01*
X32395757Y-75423963D01*
X32412175Y-75619483D01*
X32466258Y-75808091D01*
X32555944Y-75982601D01*
X32677818Y-76136369D01*
X32827238Y-76263535D01*
X32833601Y-76267091D01*
X32992149Y-76355701D01*
X32992155Y-76355704D01*
X32998513Y-76359257D01*
X33185118Y-76419889D01*
X33294021Y-76432875D01*
X33372715Y-76442259D01*
X33372718Y-76442259D01*
X33379946Y-76443121D01*
X33491443Y-76434542D01*
X33568314Y-76428627D01*
X33568316Y-76428627D01*
X33575576Y-76428068D01*
X33647771Y-76407911D01*
X33757533Y-76377264D01*
X33757534Y-76377264D01*
X33764556Y-76375303D01*
X33771062Y-76372016D01*
X33771066Y-76372015D01*
X33933184Y-76290123D01*
X33933185Y-76290123D01*
X33939689Y-76286837D01*
X34094303Y-76166040D01*
X34222509Y-76017511D01*
X34319425Y-75846909D01*
X34381358Y-75660732D01*
X34405949Y-75466071D01*
X34406341Y-75438000D01*
X34404965Y-75423963D01*
X34808757Y-75423963D01*
X34825175Y-75619483D01*
X34879258Y-75808091D01*
X34968944Y-75982601D01*
X35090818Y-76136369D01*
X35240238Y-76263535D01*
X35246601Y-76267091D01*
X35405149Y-76355701D01*
X35405155Y-76355704D01*
X35411513Y-76359257D01*
X35598118Y-76419889D01*
X35707021Y-76432875D01*
X35785715Y-76442259D01*
X35785718Y-76442259D01*
X35792946Y-76443121D01*
X35904443Y-76434542D01*
X35981314Y-76428627D01*
X35981316Y-76428627D01*
X35988576Y-76428068D01*
X36060771Y-76407911D01*
X36170533Y-76377264D01*
X36170534Y-76377264D01*
X36177556Y-76375303D01*
X36184062Y-76372016D01*
X36184066Y-76372015D01*
X36346184Y-76290123D01*
X36346185Y-76290123D01*
X36352689Y-76286837D01*
X36507303Y-76166040D01*
X36635509Y-76017511D01*
X36732425Y-75846909D01*
X36794358Y-75660732D01*
X36818949Y-75466071D01*
X36819341Y-75438000D01*
X36800194Y-75242728D01*
X36791679Y-75214523D01*
X36745591Y-75061873D01*
X36743484Y-75054894D01*
X36712020Y-74995719D01*
X36654792Y-74888088D01*
X36654790Y-74888085D01*
X36651370Y-74881653D01*
X36646767Y-74876010D01*
X36646765Y-74876006D01*
X36547744Y-74754594D01*
X37348074Y-74754594D01*
X37385438Y-74972043D01*
X37387799Y-74978442D01*
X37387800Y-74978447D01*
X37416003Y-75054894D01*
X37461804Y-75179043D01*
X37574614Y-75368659D01*
X37579122Y-75373799D01*
X37653552Y-75458671D01*
X37687665Y-75527845D01*
X37682620Y-75604808D01*
X37634892Y-75673034D01*
X37595060Y-75705060D01*
X37590001Y-75711352D01*
X37505143Y-75816894D01*
X37479269Y-75849074D01*
X37397105Y-76014592D01*
X37352400Y-76193893D01*
X37349500Y-76236434D01*
X37349500Y-77083566D01*
X37352400Y-77126107D01*
X37397105Y-77305408D01*
X37479269Y-77470926D01*
X37484325Y-77477214D01*
X37484326Y-77477216D01*
X37544428Y-77551967D01*
X37595060Y-77614940D01*
X37601352Y-77619999D01*
X37678575Y-77682088D01*
X37739074Y-77730731D01*
X37746298Y-77734317D01*
X37746301Y-77734319D01*
X37822405Y-77772097D01*
X37904592Y-77812895D01*
X38083893Y-77857600D01*
X38090448Y-77858047D01*
X38090449Y-77858047D01*
X38123896Y-77860327D01*
X38126434Y-77860500D01*
X39523566Y-77860500D01*
X39526104Y-77860327D01*
X39559551Y-77858047D01*
X39559552Y-77858047D01*
X39566107Y-77857600D01*
X39745408Y-77812895D01*
X39827595Y-77772097D01*
X39903699Y-77734319D01*
X39903702Y-77734317D01*
X39910926Y-77730731D01*
X39971426Y-77682088D01*
X40048648Y-77619999D01*
X40054940Y-77614940D01*
X40105572Y-77551967D01*
X40165674Y-77477216D01*
X40165675Y-77477214D01*
X40170731Y-77470926D01*
X40252895Y-77305408D01*
X40297600Y-77126107D01*
X40300500Y-77083566D01*
X40300500Y-76236434D01*
X40297600Y-76193893D01*
X40252895Y-76014592D01*
X40170731Y-75849074D01*
X40144858Y-75816894D01*
X40059999Y-75711352D01*
X40054940Y-75705060D01*
X40015277Y-75673170D01*
X39969725Y-75610931D01*
X39961395Y-75534254D01*
X39992520Y-75463685D01*
X39999227Y-75455908D01*
X40051860Y-75398970D01*
X40051862Y-75398968D01*
X40056501Y-75393949D01*
X40075986Y-75363068D01*
X40170591Y-75213127D01*
X40174236Y-75207350D01*
X40255994Y-75002421D01*
X40281061Y-74876401D01*
X40297705Y-74792727D01*
X40297705Y-74792724D01*
X40299038Y-74786024D01*
X40301459Y-74601068D01*
X40301837Y-74572240D01*
X40301837Y-74572235D01*
X40301926Y-74565406D01*
X40264562Y-74347957D01*
X40262201Y-74341558D01*
X40262200Y-74341553D01*
X40190560Y-74147366D01*
X40188196Y-74140957D01*
X40075386Y-73951341D01*
X39929910Y-73785457D01*
X39919994Y-73777640D01*
X39873846Y-73715841D01*
X39864780Y-73639248D01*
X39895225Y-73568383D01*
X39906798Y-73556027D01*
X39906733Y-73555967D01*
X40051860Y-73398970D01*
X40051862Y-73398968D01*
X40056501Y-73393949D01*
X40064261Y-73381651D01*
X40170591Y-73213127D01*
X40174236Y-73207350D01*
X40255994Y-73002421D01*
X40280328Y-72880085D01*
X40297705Y-72792727D01*
X40297705Y-72792724D01*
X40299038Y-72786024D01*
X40301604Y-72590006D01*
X40301837Y-72572240D01*
X40301837Y-72572235D01*
X40301926Y-72565406D01*
X40293609Y-72517000D01*
X40278512Y-72429144D01*
X40264562Y-72347957D01*
X40262201Y-72341558D01*
X40262200Y-72341553D01*
X40218552Y-72223240D01*
X40188196Y-72140957D01*
X40075386Y-71951341D01*
X39929910Y-71785457D01*
X39919994Y-71777640D01*
X39873846Y-71715841D01*
X39864780Y-71639248D01*
X39895225Y-71568383D01*
X39906798Y-71556027D01*
X39906733Y-71555967D01*
X40051860Y-71398970D01*
X40051862Y-71398968D01*
X40056501Y-71393949D01*
X40174236Y-71207350D01*
X40255994Y-71002421D01*
X40287973Y-70841651D01*
X40297705Y-70792727D01*
X40297705Y-70792724D01*
X40299038Y-70786024D01*
X40301003Y-70635907D01*
X40301837Y-70572240D01*
X40301837Y-70572235D01*
X40301926Y-70565406D01*
X40264562Y-70347957D01*
X40262201Y-70341558D01*
X40262200Y-70341553D01*
X40215864Y-70215954D01*
X40188196Y-70140957D01*
X40075386Y-69951341D01*
X39929910Y-69785457D01*
X39911276Y-69770767D01*
X39762005Y-69653092D01*
X39762002Y-69653090D01*
X39756640Y-69648863D01*
X39649506Y-69592496D01*
X39567425Y-69549311D01*
X39567421Y-69549309D01*
X39561380Y-69546131D01*
X39423258Y-69503243D01*
X39357187Y-69482727D01*
X39357182Y-69482726D01*
X39350667Y-69480703D01*
X39343890Y-69479901D01*
X39343886Y-69479900D01*
X39175877Y-69460015D01*
X39175873Y-69460015D01*
X39171524Y-69459500D01*
X38494030Y-69459500D01*
X38330289Y-69474546D01*
X38117936Y-69534435D01*
X38111807Y-69537457D01*
X38111803Y-69537459D01*
X37926181Y-69628998D01*
X37920053Y-69632020D01*
X37914582Y-69636105D01*
X37914581Y-69636106D01*
X37872525Y-69667511D01*
X37743267Y-69764033D01*
X37738629Y-69769050D01*
X37738626Y-69769053D01*
X37618231Y-69899296D01*
X37593499Y-69926051D01*
X37589854Y-69931829D01*
X37589851Y-69931832D01*
X37586020Y-69937904D01*
X37475764Y-70112650D01*
X37394006Y-70317579D01*
X37386625Y-70354685D01*
X37378402Y-70396028D01*
X37350962Y-70533976D01*
X37348074Y-70754594D01*
X37385438Y-70972043D01*
X37387799Y-70978442D01*
X37387800Y-70978447D01*
X37405802Y-71027243D01*
X37461804Y-71179043D01*
X37574614Y-71368659D01*
X37720090Y-71534543D01*
X37725452Y-71538770D01*
X37730006Y-71542360D01*
X37776154Y-71604159D01*
X37785220Y-71680752D01*
X37754775Y-71751617D01*
X37743202Y-71763973D01*
X37743267Y-71764033D01*
X37696851Y-71814246D01*
X37593499Y-71926051D01*
X37589854Y-71931829D01*
X37589851Y-71931832D01*
X37510270Y-72057961D01*
X37475764Y-72112650D01*
X37394006Y-72317579D01*
X37386625Y-72354685D01*
X37354339Y-72517000D01*
X37350962Y-72533976D01*
X37349499Y-72645736D01*
X37348269Y-72739732D01*
X37348074Y-72754594D01*
X37349231Y-72761327D01*
X37349231Y-72761328D01*
X37351730Y-72775873D01*
X37385438Y-72972043D01*
X37387799Y-72978442D01*
X37387800Y-72978447D01*
X37420582Y-73067306D01*
X37461804Y-73179043D01*
X37574614Y-73368659D01*
X37720090Y-73534543D01*
X37725452Y-73538770D01*
X37730006Y-73542360D01*
X37776154Y-73604159D01*
X37785220Y-73680752D01*
X37754775Y-73751617D01*
X37743202Y-73763973D01*
X37743267Y-73764033D01*
X37593499Y-73926051D01*
X37589854Y-73931829D01*
X37589851Y-73931832D01*
X37479409Y-74106873D01*
X37475764Y-74112650D01*
X37394006Y-74317579D01*
X37350962Y-74533976D01*
X37349978Y-74609181D01*
X37348458Y-74725296D01*
X37348074Y-74754594D01*
X36547744Y-74754594D01*
X36531964Y-74735246D01*
X36527361Y-74729602D01*
X36376180Y-74604535D01*
X36203585Y-74511213D01*
X36073202Y-74470853D01*
X36023111Y-74455347D01*
X36023109Y-74455347D01*
X36016152Y-74453193D01*
X36008910Y-74452432D01*
X36008906Y-74452431D01*
X35828260Y-74433444D01*
X35828259Y-74433444D01*
X35821019Y-74432683D01*
X35625618Y-74450466D01*
X35437393Y-74505864D01*
X35263512Y-74596767D01*
X35110600Y-74719711D01*
X34984480Y-74870016D01*
X34889956Y-75041954D01*
X34830628Y-75228978D01*
X34829815Y-75236222D01*
X34829815Y-75236224D01*
X34811560Y-75398970D01*
X34808757Y-75423963D01*
X34404965Y-75423963D01*
X34387194Y-75242728D01*
X34378679Y-75214523D01*
X34332591Y-75061873D01*
X34330484Y-75054894D01*
X34299020Y-74995719D01*
X34241792Y-74888088D01*
X34241790Y-74888085D01*
X34238370Y-74881653D01*
X34233767Y-74876010D01*
X34233765Y-74876006D01*
X34118964Y-74735246D01*
X34114361Y-74729602D01*
X33963180Y-74604535D01*
X33790585Y-74511213D01*
X33660202Y-74470853D01*
X33610111Y-74455347D01*
X33610109Y-74455347D01*
X33603152Y-74453193D01*
X33595910Y-74452432D01*
X33595906Y-74452431D01*
X33415260Y-74433444D01*
X33415259Y-74433444D01*
X33408019Y-74432683D01*
X33212618Y-74450466D01*
X33024393Y-74505864D01*
X32850512Y-74596767D01*
X32697600Y-74719711D01*
X32571480Y-74870016D01*
X32476956Y-75041954D01*
X32417628Y-75228978D01*
X32416815Y-75236222D01*
X32416815Y-75236224D01*
X32398560Y-75398970D01*
X32395757Y-75423963D01*
X23618599Y-75423963D01*
X23549180Y-75366535D01*
X23376585Y-75273213D01*
X23233684Y-75228978D01*
X23196111Y-75217347D01*
X23196109Y-75217347D01*
X23189152Y-75215193D01*
X23181910Y-75214432D01*
X23181906Y-75214431D01*
X23001260Y-75195444D01*
X23001259Y-75195444D01*
X22994019Y-75194683D01*
X22798618Y-75212466D01*
X22610393Y-75267864D01*
X22436512Y-75358767D01*
X22430838Y-75363329D01*
X22315693Y-75455908D01*
X22283600Y-75481711D01*
X22157480Y-75632016D01*
X22062956Y-75803954D01*
X22003628Y-75990978D01*
X22002815Y-75998222D01*
X22002815Y-75998224D01*
X21983992Y-76166040D01*
X21981757Y-76185963D01*
X21998175Y-76381483D01*
X22000185Y-76388492D01*
X22000185Y-76388493D01*
X22050249Y-76563085D01*
X22052258Y-76570091D01*
X22141944Y-76744601D01*
X22263818Y-76898369D01*
X22413238Y-77025535D01*
X22419601Y-77029091D01*
X22419608Y-77029096D01*
X22521592Y-77086093D01*
X22576886Y-77139864D01*
X22597886Y-77214078D01*
X22578966Y-77288849D01*
X22525195Y-77344143D01*
X22517972Y-77348181D01*
X22436512Y-77390767D01*
X22430838Y-77395329D01*
X22345803Y-77463699D01*
X22283600Y-77513711D01*
X22276255Y-77522464D01*
X22274231Y-77523882D01*
X22273711Y-77524391D01*
X22273627Y-77524305D01*
X22213080Y-77566705D01*
X22136246Y-77573432D01*
X22066342Y-77540840D01*
X22056384Y-77531683D01*
X22053964Y-77529246D01*
X22049361Y-77523602D01*
X21898180Y-77398535D01*
X21725585Y-77305213D01*
X21595202Y-77264853D01*
X21545111Y-77249347D01*
X21545109Y-77249347D01*
X21538152Y-77247193D01*
X21530910Y-77246432D01*
X21530906Y-77246431D01*
X21350260Y-77227444D01*
X21350259Y-77227444D01*
X21343019Y-77226683D01*
X21147618Y-77244466D01*
X20959393Y-77299864D01*
X20868917Y-77347164D01*
X20818531Y-77373505D01*
X20743261Y-77390330D01*
X20669662Y-77367266D01*
X20617456Y-77310492D01*
X20600500Y-77241461D01*
X20600500Y-73137963D01*
X24521757Y-73137963D01*
X24538175Y-73333483D01*
X24540185Y-73340492D01*
X24540185Y-73340493D01*
X24585605Y-73498889D01*
X24592258Y-73522091D01*
X24681944Y-73696601D01*
X24803818Y-73850369D01*
X24953238Y-73977535D01*
X24959601Y-73981091D01*
X25118149Y-74069701D01*
X25118155Y-74069704D01*
X25124513Y-74073257D01*
X25311118Y-74133889D01*
X25384397Y-74142627D01*
X25498715Y-74156259D01*
X25498718Y-74156259D01*
X25505946Y-74157121D01*
X25632723Y-74147366D01*
X25694314Y-74142627D01*
X25694316Y-74142627D01*
X25701576Y-74142068D01*
X25773771Y-74121911D01*
X25883533Y-74091264D01*
X25883534Y-74091264D01*
X25890556Y-74089303D01*
X25897062Y-74086016D01*
X25897066Y-74086015D01*
X26059184Y-74004123D01*
X26059185Y-74004123D01*
X26065689Y-74000837D01*
X26220303Y-73880040D01*
X26348509Y-73731511D01*
X26414498Y-73615350D01*
X26441827Y-73567243D01*
X26441828Y-73567241D01*
X26445425Y-73560909D01*
X26507358Y-73374732D01*
X26508868Y-73362784D01*
X26523175Y-73249527D01*
X26531949Y-73180071D01*
X26532341Y-73152000D01*
X26513194Y-72956728D01*
X26456484Y-72768894D01*
X26450140Y-72756963D01*
X30236757Y-72756963D01*
X30253175Y-72952483D01*
X30255185Y-72959492D01*
X30255185Y-72959493D01*
X30258784Y-72972043D01*
X30307258Y-73141091D01*
X30396944Y-73315601D01*
X30518818Y-73469369D01*
X30668238Y-73596535D01*
X30674601Y-73600091D01*
X30833149Y-73688701D01*
X30833155Y-73688704D01*
X30839513Y-73692257D01*
X31026118Y-73752889D01*
X31099397Y-73761627D01*
X31213715Y-73775259D01*
X31213718Y-73775259D01*
X31220946Y-73776121D01*
X31332443Y-73767542D01*
X31409314Y-73761627D01*
X31409316Y-73761627D01*
X31416576Y-73761068D01*
X31545103Y-73725182D01*
X31598533Y-73710264D01*
X31598534Y-73710264D01*
X31605556Y-73708303D01*
X31612062Y-73705016D01*
X31612066Y-73705015D01*
X31774184Y-73623123D01*
X31774185Y-73623123D01*
X31780689Y-73619837D01*
X31897504Y-73528572D01*
X31929560Y-73503527D01*
X31929561Y-73503526D01*
X31935303Y-73499040D01*
X32063509Y-73350511D01*
X32140281Y-73215369D01*
X32156827Y-73186243D01*
X32156828Y-73186241D01*
X32160425Y-73179909D01*
X32222358Y-72993732D01*
X32246949Y-72799071D01*
X32247341Y-72771000D01*
X32228194Y-72575728D01*
X32206225Y-72502963D01*
X33665757Y-72502963D01*
X33682175Y-72698483D01*
X33684185Y-72705492D01*
X33684185Y-72705493D01*
X33704366Y-72775873D01*
X33736258Y-72887091D01*
X33825944Y-73061601D01*
X33947818Y-73215369D01*
X34097238Y-73342535D01*
X34121370Y-73356022D01*
X34262149Y-73434701D01*
X34262155Y-73434704D01*
X34268513Y-73438257D01*
X34455118Y-73498889D01*
X34528397Y-73507627D01*
X34642715Y-73521259D01*
X34642718Y-73521259D01*
X34649946Y-73522121D01*
X34761443Y-73513542D01*
X34838314Y-73507627D01*
X34838316Y-73507627D01*
X34845576Y-73507068D01*
X35034556Y-73454303D01*
X35041062Y-73451016D01*
X35041066Y-73451015D01*
X35203184Y-73369123D01*
X35203185Y-73369123D01*
X35209689Y-73365837D01*
X35364303Y-73245040D01*
X35492509Y-73096511D01*
X35578458Y-72945214D01*
X35585827Y-72932243D01*
X35585828Y-72932241D01*
X35589425Y-72925909D01*
X35651358Y-72739732D01*
X35675949Y-72545071D01*
X35676341Y-72517000D01*
X35657194Y-72321728D01*
X35600484Y-72133894D01*
X35590209Y-72114570D01*
X35511792Y-71967088D01*
X35511790Y-71967085D01*
X35508370Y-71960653D01*
X35503767Y-71955010D01*
X35503765Y-71955006D01*
X35388964Y-71814246D01*
X35384361Y-71808602D01*
X35233180Y-71683535D01*
X35060585Y-71590213D01*
X34917804Y-71546015D01*
X34880111Y-71534347D01*
X34880109Y-71534347D01*
X34873152Y-71532193D01*
X34865910Y-71531432D01*
X34865906Y-71531431D01*
X34685260Y-71512444D01*
X34685259Y-71512444D01*
X34678019Y-71511683D01*
X34482618Y-71529466D01*
X34294393Y-71584864D01*
X34120512Y-71675767D01*
X34114838Y-71680329D01*
X33984003Y-71785523D01*
X33967600Y-71798711D01*
X33841480Y-71949016D01*
X33746956Y-72120954D01*
X33687628Y-72307978D01*
X33686815Y-72315222D01*
X33686815Y-72315224D01*
X33680115Y-72374954D01*
X33665757Y-72502963D01*
X32206225Y-72502963D01*
X32171484Y-72387894D01*
X32161209Y-72368570D01*
X32082792Y-72221088D01*
X32082790Y-72221085D01*
X32079370Y-72214653D01*
X32074767Y-72209010D01*
X32074765Y-72209006D01*
X31959964Y-72068246D01*
X31955361Y-72062602D01*
X31804180Y-71937535D01*
X31631585Y-71844213D01*
X31458363Y-71790592D01*
X31451111Y-71788347D01*
X31451109Y-71788347D01*
X31444152Y-71786193D01*
X31436910Y-71785432D01*
X31436906Y-71785431D01*
X31256260Y-71766444D01*
X31256259Y-71766444D01*
X31249019Y-71765683D01*
X31053618Y-71783466D01*
X30865393Y-71838864D01*
X30691512Y-71929767D01*
X30538600Y-72052711D01*
X30412480Y-72203016D01*
X30317956Y-72374954D01*
X30258628Y-72561978D01*
X30257815Y-72569222D01*
X30257815Y-72569224D01*
X30237789Y-72747760D01*
X30236757Y-72756963D01*
X26450140Y-72756963D01*
X26440978Y-72739732D01*
X26367792Y-72602088D01*
X26367790Y-72602085D01*
X26364370Y-72595653D01*
X26359767Y-72590010D01*
X26359765Y-72590006D01*
X26244964Y-72449246D01*
X26240361Y-72443602D01*
X26089180Y-72318535D01*
X26082197Y-72314759D01*
X26069655Y-72307978D01*
X25916585Y-72225213D01*
X25786202Y-72184853D01*
X25736111Y-72169347D01*
X25736109Y-72169347D01*
X25729152Y-72167193D01*
X25721910Y-72166432D01*
X25721906Y-72166431D01*
X25541260Y-72147444D01*
X25541259Y-72147444D01*
X25534019Y-72146683D01*
X25338618Y-72164466D01*
X25150393Y-72219864D01*
X24976512Y-72310767D01*
X24970838Y-72315329D01*
X24888038Y-72381902D01*
X24823600Y-72433711D01*
X24697480Y-72584016D01*
X24602956Y-72755954D01*
X24543628Y-72942978D01*
X24542815Y-72950222D01*
X24542815Y-72950224D01*
X24525788Y-73102022D01*
X24521757Y-73137963D01*
X20600500Y-73137963D01*
X20600500Y-70597963D01*
X25283757Y-70597963D01*
X25300175Y-70793483D01*
X25302185Y-70800492D01*
X25302185Y-70800493D01*
X25351377Y-70972043D01*
X25354258Y-70982091D01*
X25443944Y-71156601D01*
X25565818Y-71310369D01*
X25715238Y-71437535D01*
X25721601Y-71441091D01*
X25880149Y-71529701D01*
X25880155Y-71529704D01*
X25886513Y-71533257D01*
X26073118Y-71593889D01*
X26182021Y-71606875D01*
X26260715Y-71616259D01*
X26260718Y-71616259D01*
X26267946Y-71617121D01*
X26379443Y-71608542D01*
X26456314Y-71602627D01*
X26456316Y-71602627D01*
X26463576Y-71602068D01*
X26652556Y-71549303D01*
X26659062Y-71546016D01*
X26659066Y-71546015D01*
X26821184Y-71464123D01*
X26821185Y-71464123D01*
X26827689Y-71460837D01*
X26982303Y-71340040D01*
X27110509Y-71191511D01*
X27207425Y-71020909D01*
X27269358Y-70834732D01*
X27274665Y-70792727D01*
X27293427Y-70644200D01*
X27293949Y-70640071D01*
X27294341Y-70612000D01*
X27275194Y-70416728D01*
X27218484Y-70228894D01*
X27164343Y-70127070D01*
X27146993Y-70051919D01*
X27169543Y-69978161D01*
X27209523Y-69937904D01*
X27208689Y-69936837D01*
X27357560Y-69820527D01*
X27357561Y-69820526D01*
X27363303Y-69816040D01*
X27491509Y-69667511D01*
X27567107Y-69534435D01*
X27584827Y-69503243D01*
X27584828Y-69503241D01*
X27588425Y-69496909D01*
X27650358Y-69310732D01*
X27674949Y-69116071D01*
X27675341Y-69088000D01*
X27656194Y-68892728D01*
X27599484Y-68704894D01*
X27507370Y-68531653D01*
X27502767Y-68526010D01*
X27502765Y-68526006D01*
X27387964Y-68385246D01*
X27383361Y-68379602D01*
X27232180Y-68254535D01*
X27059585Y-68161213D01*
X26923023Y-68118940D01*
X26879111Y-68105347D01*
X26879109Y-68105347D01*
X26872152Y-68103193D01*
X26864910Y-68102432D01*
X26864906Y-68102431D01*
X26684260Y-68083444D01*
X26684259Y-68083444D01*
X26677019Y-68082683D01*
X26481618Y-68100466D01*
X26293393Y-68155864D01*
X26119512Y-68246767D01*
X26113838Y-68251329D01*
X25972502Y-68364966D01*
X25966600Y-68369711D01*
X25840480Y-68520016D01*
X25745956Y-68691954D01*
X25686628Y-68878978D01*
X25685815Y-68886222D01*
X25685815Y-68886224D01*
X25684273Y-68899974D01*
X25664757Y-69073963D01*
X25681175Y-69269483D01*
X25735258Y-69458091D01*
X25738590Y-69464574D01*
X25738591Y-69464577D01*
X25795331Y-69574982D01*
X25811630Y-69650368D01*
X25788052Y-69723804D01*
X25744549Y-69767611D01*
X25738512Y-69770767D01*
X25585600Y-69893711D01*
X25459480Y-70044016D01*
X25364956Y-70215954D01*
X25305628Y-70402978D01*
X25304815Y-70410222D01*
X25304815Y-70410224D01*
X25288164Y-70558672D01*
X25283757Y-70597963D01*
X20600500Y-70597963D01*
X20600500Y-65771963D01*
X21219757Y-65771963D01*
X21236175Y-65967483D01*
X21290258Y-66156091D01*
X21379944Y-66330601D01*
X21501818Y-66484369D01*
X21651238Y-66611535D01*
X21657601Y-66615091D01*
X21816149Y-66703701D01*
X21816155Y-66703704D01*
X21822513Y-66707257D01*
X22009118Y-66767889D01*
X22082397Y-66776627D01*
X22196715Y-66790259D01*
X22196718Y-66790259D01*
X22203946Y-66791121D01*
X22315443Y-66782542D01*
X22392314Y-66776627D01*
X22392316Y-66776627D01*
X22399576Y-66776068D01*
X22588556Y-66723303D01*
X22595062Y-66720016D01*
X22595066Y-66720015D01*
X22757184Y-66638123D01*
X22757185Y-66638123D01*
X22763689Y-66634837D01*
X22918303Y-66514040D01*
X23046509Y-66365511D01*
X23121166Y-66234091D01*
X23139827Y-66201243D01*
X23139828Y-66201241D01*
X23143425Y-66194909D01*
X23205358Y-66008732D01*
X23229949Y-65814071D01*
X23230341Y-65786000D01*
X23211194Y-65590728D01*
X23154484Y-65402894D01*
X23148140Y-65390963D01*
X35570757Y-65390963D01*
X35587175Y-65586483D01*
X35641258Y-65775091D01*
X35730944Y-65949601D01*
X35852818Y-66103369D01*
X36002238Y-66230535D01*
X36008601Y-66234091D01*
X36167149Y-66322701D01*
X36167155Y-66322704D01*
X36173513Y-66326257D01*
X36360118Y-66386889D01*
X36433397Y-66395627D01*
X36547715Y-66409259D01*
X36547718Y-66409259D01*
X36554946Y-66410121D01*
X36666443Y-66401542D01*
X36743314Y-66395627D01*
X36743316Y-66395627D01*
X36750576Y-66395068D01*
X36939556Y-66342303D01*
X36946062Y-66339016D01*
X36946066Y-66339015D01*
X37108184Y-66257123D01*
X37108185Y-66257123D01*
X37114689Y-66253837D01*
X37269303Y-66133040D01*
X37397509Y-65984511D01*
X37494425Y-65813909D01*
X37556358Y-65627732D01*
X37580949Y-65433071D01*
X37581341Y-65405000D01*
X37562194Y-65209728D01*
X37505484Y-65021894D01*
X37478400Y-64970956D01*
X37416792Y-64855088D01*
X37416790Y-64855085D01*
X37413370Y-64848653D01*
X37408767Y-64843010D01*
X37408765Y-64843006D01*
X37293964Y-64702246D01*
X37289361Y-64696602D01*
X37138180Y-64571535D01*
X36965585Y-64478213D01*
X36835202Y-64437853D01*
X36785111Y-64422347D01*
X36785109Y-64422347D01*
X36778152Y-64420193D01*
X36770910Y-64419432D01*
X36770906Y-64419431D01*
X36590260Y-64400444D01*
X36590259Y-64400444D01*
X36583019Y-64399683D01*
X36387618Y-64417466D01*
X36199393Y-64472864D01*
X36025512Y-64563767D01*
X36019838Y-64568329D01*
X35892401Y-64670791D01*
X35872600Y-64686711D01*
X35746480Y-64837016D01*
X35651956Y-65008954D01*
X35592628Y-65195978D01*
X35591815Y-65203222D01*
X35591815Y-65203224D01*
X35579421Y-65313718D01*
X35570757Y-65390963D01*
X23148140Y-65390963D01*
X23144209Y-65383570D01*
X23065792Y-65236088D01*
X23065790Y-65236085D01*
X23062370Y-65229653D01*
X23057767Y-65224010D01*
X23057765Y-65224006D01*
X22942964Y-65083246D01*
X22938361Y-65077602D01*
X22787180Y-64952535D01*
X22614585Y-64859213D01*
X22467346Y-64813635D01*
X22434111Y-64803347D01*
X22434109Y-64803347D01*
X22427152Y-64801193D01*
X22419910Y-64800432D01*
X22419906Y-64800431D01*
X22239260Y-64781444D01*
X22239259Y-64781444D01*
X22232019Y-64780683D01*
X22036618Y-64798466D01*
X21848393Y-64853864D01*
X21674512Y-64944767D01*
X21668838Y-64949329D01*
X21533365Y-65058252D01*
X21521600Y-65067711D01*
X21395480Y-65218016D01*
X21300956Y-65389954D01*
X21241628Y-65576978D01*
X21240815Y-65584222D01*
X21240815Y-65584224D01*
X21239273Y-65597974D01*
X21219757Y-65771963D01*
X20600500Y-65771963D01*
X20600500Y-61834963D01*
X22997757Y-61834963D01*
X23014175Y-62030483D01*
X23016185Y-62037492D01*
X23016185Y-62037493D01*
X23042972Y-62130909D01*
X23068258Y-62219091D01*
X23157944Y-62393601D01*
X23206233Y-62454527D01*
X23253645Y-62514346D01*
X23279818Y-62547369D01*
X23429238Y-62674535D01*
X23460300Y-62691895D01*
X23594149Y-62766701D01*
X23594155Y-62766704D01*
X23600513Y-62770257D01*
X23787118Y-62830889D01*
X23860397Y-62839627D01*
X23974715Y-62853259D01*
X23974718Y-62853259D01*
X23981946Y-62854121D01*
X24093443Y-62845542D01*
X24170314Y-62839627D01*
X24170316Y-62839627D01*
X24177576Y-62839068D01*
X24249771Y-62818911D01*
X24359533Y-62788264D01*
X24359534Y-62788264D01*
X24366556Y-62786303D01*
X24373062Y-62783016D01*
X24373066Y-62783015D01*
X24535184Y-62701123D01*
X24535185Y-62701123D01*
X24541689Y-62697837D01*
X24696303Y-62577040D01*
X24824509Y-62428511D01*
X24893525Y-62307022D01*
X24917827Y-62264243D01*
X24917828Y-62264241D01*
X24921425Y-62257909D01*
X24983358Y-62071732D01*
X24988631Y-62029996D01*
X24995976Y-61971849D01*
X24997225Y-61961963D01*
X28458757Y-61961963D01*
X28475175Y-62157483D01*
X28477185Y-62164492D01*
X28477185Y-62164493D01*
X28503972Y-62257909D01*
X28529258Y-62346091D01*
X28618944Y-62520601D01*
X28740818Y-62674369D01*
X28890238Y-62801535D01*
X28896601Y-62805091D01*
X29055149Y-62893701D01*
X29055155Y-62893704D01*
X29061513Y-62897257D01*
X29248118Y-62957889D01*
X29321397Y-62966627D01*
X29435715Y-62980259D01*
X29435718Y-62980259D01*
X29442946Y-62981121D01*
X29554443Y-62972542D01*
X29631314Y-62966627D01*
X29631316Y-62966627D01*
X29638576Y-62966068D01*
X29827556Y-62913303D01*
X29834062Y-62910016D01*
X29834066Y-62910015D01*
X29996184Y-62828123D01*
X29996185Y-62828123D01*
X30002689Y-62824837D01*
X30124269Y-62729849D01*
X30151560Y-62708527D01*
X30151561Y-62708526D01*
X30157303Y-62704040D01*
X30285509Y-62555511D01*
X30354897Y-62433367D01*
X30378827Y-62391243D01*
X30378828Y-62391241D01*
X30382425Y-62384909D01*
X30444358Y-62198732D01*
X30446662Y-62180499D01*
X30459283Y-62080589D01*
X30468949Y-62004071D01*
X30469341Y-61976000D01*
X30455512Y-61834963D01*
X36459757Y-61834963D01*
X36476175Y-62030483D01*
X36478185Y-62037492D01*
X36478185Y-62037493D01*
X36504972Y-62130909D01*
X36530258Y-62219091D01*
X36619944Y-62393601D01*
X36668233Y-62454527D01*
X36715645Y-62514346D01*
X36741818Y-62547369D01*
X36891238Y-62674535D01*
X36922300Y-62691895D01*
X37056149Y-62766701D01*
X37056155Y-62766704D01*
X37062513Y-62770257D01*
X37249118Y-62830889D01*
X37322397Y-62839627D01*
X37436715Y-62853259D01*
X37436718Y-62853259D01*
X37443946Y-62854121D01*
X37555443Y-62845542D01*
X37632314Y-62839627D01*
X37632316Y-62839627D01*
X37639576Y-62839068D01*
X37711771Y-62818911D01*
X37821533Y-62788264D01*
X37821534Y-62788264D01*
X37828556Y-62786303D01*
X37835062Y-62783016D01*
X37835066Y-62783015D01*
X37997184Y-62701123D01*
X37997185Y-62701123D01*
X38003689Y-62697837D01*
X38158303Y-62577040D01*
X38251772Y-62468754D01*
X38315562Y-62425402D01*
X38392483Y-62419753D01*
X38459740Y-62451473D01*
X38496604Y-62482078D01*
X38541173Y-62545025D01*
X38548298Y-62621824D01*
X38516069Y-62691895D01*
X38490891Y-62715872D01*
X38408675Y-62777602D01*
X38404453Y-62782020D01*
X38404452Y-62782021D01*
X38324551Y-62865632D01*
X38243887Y-62950042D01*
X38109475Y-63147082D01*
X38009051Y-63363428D01*
X38007418Y-63369317D01*
X38007416Y-63369322D01*
X37993014Y-63421254D01*
X37945309Y-63593272D01*
X37919963Y-63830440D01*
X37933694Y-64068562D01*
X37935036Y-64074519D01*
X37935037Y-64074523D01*
X37951571Y-64147890D01*
X37986131Y-64301245D01*
X38075867Y-64522239D01*
X38079061Y-64527451D01*
X38180079Y-64692296D01*
X38200493Y-64725609D01*
X38204496Y-64730230D01*
X38204498Y-64730233D01*
X38316224Y-64859213D01*
X38356660Y-64905894D01*
X38399418Y-64941392D01*
X38496605Y-65022079D01*
X38541174Y-65085026D01*
X38548298Y-65161824D01*
X38516068Y-65231896D01*
X38490891Y-65255872D01*
X38408675Y-65317602D01*
X38404453Y-65322020D01*
X38404452Y-65322021D01*
X38302309Y-65428907D01*
X38243887Y-65490042D01*
X38109475Y-65687082D01*
X38009051Y-65903428D01*
X38007418Y-65909317D01*
X38007416Y-65909322D01*
X37955185Y-66097660D01*
X37945309Y-66133272D01*
X37919963Y-66370440D01*
X37933694Y-66608562D01*
X37986131Y-66841245D01*
X38075867Y-67062239D01*
X38079061Y-67067451D01*
X38144689Y-67174545D01*
X38200493Y-67265609D01*
X38204496Y-67270230D01*
X38204498Y-67270233D01*
X38327960Y-67412762D01*
X38356660Y-67445894D01*
X38540176Y-67598252D01*
X38746112Y-67718591D01*
X38968937Y-67803680D01*
X39202666Y-67851233D01*
X39208775Y-67851457D01*
X39434908Y-67859749D01*
X39434912Y-67859749D01*
X39441025Y-67859973D01*
X39507501Y-67851457D01*
X39671538Y-67830443D01*
X39671541Y-67830442D01*
X39677609Y-67829665D01*
X39906068Y-67761125D01*
X40120264Y-67656191D01*
X40269395Y-67549817D01*
X40309467Y-67521234D01*
X40309469Y-67521233D01*
X40314445Y-67517683D01*
X40316089Y-67516045D01*
X40384788Y-67483715D01*
X40461646Y-67490168D01*
X40524980Y-67534184D01*
X40537815Y-67552445D01*
X40540464Y-67558841D01*
X40636718Y-67684282D01*
X40762159Y-67780536D01*
X40771182Y-67784274D01*
X40771183Y-67784274D01*
X40880767Y-67829665D01*
X40908238Y-67841044D01*
X40917919Y-67842319D01*
X40917921Y-67842319D01*
X41020797Y-67855863D01*
X41020804Y-67855863D01*
X41025639Y-67856500D01*
X41914908Y-67856500D01*
X42804360Y-67856499D01*
X42921762Y-67841044D01*
X42947355Y-67830443D01*
X43058817Y-67784274D01*
X43058818Y-67784274D01*
X43067841Y-67780536D01*
X43193282Y-67684282D01*
X43289536Y-67558841D01*
X43350044Y-67412762D01*
X43351319Y-67403079D01*
X43364863Y-67300203D01*
X43364863Y-67300196D01*
X43365500Y-67295361D01*
X43365499Y-65516640D01*
X43350044Y-65399238D01*
X43346305Y-65390211D01*
X43293274Y-65262183D01*
X43293274Y-65262182D01*
X43289536Y-65253159D01*
X43193282Y-65127718D01*
X43067841Y-65031464D01*
X42992815Y-65000387D01*
X42931626Y-64953434D01*
X42902111Y-64882176D01*
X42912178Y-64805708D01*
X42944661Y-64757187D01*
X42948381Y-64753480D01*
X42956281Y-64744198D01*
X43079451Y-64572789D01*
X43085734Y-64562332D01*
X43179254Y-64373109D01*
X43183742Y-64361775D01*
X43245100Y-64159822D01*
X43247680Y-64147890D01*
X43248791Y-64139447D01*
X43246700Y-64123569D01*
X43238083Y-64120000D01*
X41810000Y-64120000D01*
X41735500Y-64100038D01*
X41680962Y-64045500D01*
X41661000Y-63971000D01*
X41661000Y-63761000D01*
X41680962Y-63686500D01*
X41735500Y-63631962D01*
X41810000Y-63612000D01*
X43231843Y-63612000D01*
X43247314Y-63607855D01*
X43248916Y-63601875D01*
X43206445Y-63432793D01*
X43202516Y-63421254D01*
X43118350Y-63227685D01*
X43112590Y-63216942D01*
X42997937Y-63039716D01*
X42990504Y-63030063D01*
X42848440Y-62873937D01*
X42839534Y-62865632D01*
X42717627Y-62769356D01*
X42671533Y-62707517D01*
X42662535Y-62630915D01*
X42693042Y-62560077D01*
X42723450Y-62531121D01*
X42849460Y-62441240D01*
X42849469Y-62441232D01*
X42854445Y-62437683D01*
X42946357Y-62346091D01*
X43019067Y-62273635D01*
X43019068Y-62273634D01*
X43023397Y-62269320D01*
X43026962Y-62264358D01*
X43026966Y-62264354D01*
X43159014Y-62080589D01*
X43159016Y-62080585D01*
X43162582Y-62075623D01*
X43244195Y-61910493D01*
X43265552Y-61867281D01*
X43265553Y-61867277D01*
X43268263Y-61861795D01*
X43315000Y-61707963D01*
X44968757Y-61707963D01*
X44985175Y-61903483D01*
X44987185Y-61910492D01*
X44987185Y-61910493D01*
X45012824Y-61999907D01*
X45039258Y-62092091D01*
X45128944Y-62266601D01*
X45250818Y-62420369D01*
X45400238Y-62547535D01*
X45422679Y-62560077D01*
X45565149Y-62639701D01*
X45565155Y-62639704D01*
X45571513Y-62643257D01*
X45758118Y-62703889D01*
X45831397Y-62712627D01*
X45945715Y-62726259D01*
X45945718Y-62726259D01*
X45952946Y-62727121D01*
X46064443Y-62718542D01*
X46141314Y-62712627D01*
X46141316Y-62712627D01*
X46148576Y-62712068D01*
X46283597Y-62674369D01*
X46330533Y-62661264D01*
X46330534Y-62661264D01*
X46337556Y-62659303D01*
X46344062Y-62656016D01*
X46344066Y-62656015D01*
X46474121Y-62590319D01*
X46479920Y-62587390D01*
X46555417Y-62571617D01*
X46619791Y-62590319D01*
X46708149Y-62639701D01*
X46708155Y-62639704D01*
X46714513Y-62643257D01*
X46901118Y-62703889D01*
X46974397Y-62712627D01*
X47088715Y-62726259D01*
X47088718Y-62726259D01*
X47095946Y-62727121D01*
X47207443Y-62718542D01*
X47284314Y-62712627D01*
X47284316Y-62712627D01*
X47291576Y-62712068D01*
X47426597Y-62674369D01*
X47473533Y-62661264D01*
X47473534Y-62661264D01*
X47480556Y-62659303D01*
X47487062Y-62656016D01*
X47487066Y-62656015D01*
X47649184Y-62574123D01*
X47649185Y-62574123D01*
X47655689Y-62570837D01*
X47810303Y-62450040D01*
X47938509Y-62301511D01*
X48020329Y-62157483D01*
X48031827Y-62137243D01*
X48031828Y-62137241D01*
X48035425Y-62130909D01*
X48097358Y-61944732D01*
X48121949Y-61750071D01*
X48122341Y-61722000D01*
X48103194Y-61526728D01*
X48046484Y-61338894D01*
X48039604Y-61325954D01*
X47957792Y-61172088D01*
X47957790Y-61172085D01*
X47954370Y-61165653D01*
X47949767Y-61160010D01*
X47949765Y-61160006D01*
X47834964Y-61019246D01*
X47830361Y-61013602D01*
X47679180Y-60888535D01*
X47506585Y-60795213D01*
X47376202Y-60754853D01*
X47326111Y-60739347D01*
X47326109Y-60739347D01*
X47319152Y-60737193D01*
X47311910Y-60736432D01*
X47311906Y-60736431D01*
X47131260Y-60717444D01*
X47131259Y-60717444D01*
X47124019Y-60716683D01*
X46928618Y-60734466D01*
X46740393Y-60789864D01*
X46622785Y-60851348D01*
X46613996Y-60855943D01*
X46538726Y-60872768D01*
X46474097Y-60854966D01*
X46370004Y-60798683D01*
X46369998Y-60798680D01*
X46363585Y-60795213D01*
X46233202Y-60754853D01*
X46183111Y-60739347D01*
X46183109Y-60739347D01*
X46176152Y-60737193D01*
X46168910Y-60736432D01*
X46168906Y-60736431D01*
X45988260Y-60717444D01*
X45988259Y-60717444D01*
X45981019Y-60716683D01*
X45785618Y-60734466D01*
X45597393Y-60789864D01*
X45423512Y-60880767D01*
X45417838Y-60885329D01*
X45287003Y-60990523D01*
X45270600Y-61003711D01*
X45144480Y-61154016D01*
X45049956Y-61325954D01*
X44990628Y-61512978D01*
X44989815Y-61520222D01*
X44989815Y-61520224D01*
X44969569Y-61700722D01*
X44968757Y-61707963D01*
X43315000Y-61707963D01*
X43337600Y-61633577D01*
X43342038Y-61599873D01*
X43360465Y-61459902D01*
X43368733Y-61397099D01*
X43370471Y-61326000D01*
X43350927Y-61088284D01*
X43332169Y-61013602D01*
X43294310Y-60862880D01*
X43292821Y-60856952D01*
X43290387Y-60851355D01*
X43290385Y-60851348D01*
X43200151Y-60643826D01*
X43197712Y-60638216D01*
X43068155Y-60437951D01*
X42907629Y-60261536D01*
X42720445Y-60113707D01*
X42715092Y-60110752D01*
X42715089Y-60110750D01*
X42589930Y-60041659D01*
X42511631Y-59998436D01*
X42286794Y-59918817D01*
X42280779Y-59917746D01*
X42280777Y-59917745D01*
X42178435Y-59899515D01*
X42051972Y-59876988D01*
X42045859Y-59876913D01*
X42045856Y-59876913D01*
X41946031Y-59875694D01*
X41813471Y-59874074D01*
X41794428Y-59876988D01*
X41583735Y-59909229D01*
X41583733Y-59909230D01*
X41577698Y-59910153D01*
X41350982Y-59984255D01*
X41240709Y-60041660D01*
X41165411Y-60058352D01*
X41154119Y-60054792D01*
X41146510Y-60077935D01*
X41111295Y-60115502D01*
X40965818Y-60224730D01*
X40948675Y-60237602D01*
X40783887Y-60410042D01*
X40780445Y-60415088D01*
X40780439Y-60415096D01*
X40769154Y-60431639D01*
X40710681Y-60481935D01*
X40634895Y-60496257D01*
X40562101Y-60470766D01*
X40529436Y-60439931D01*
X40528155Y-60437951D01*
X40522412Y-60431639D01*
X40371741Y-60266055D01*
X40367629Y-60261536D01*
X40362838Y-60257752D01*
X40362828Y-60257743D01*
X40326258Y-60228862D01*
X40280164Y-60167023D01*
X40271166Y-60090422D01*
X40301674Y-60019584D01*
X40363513Y-59973490D01*
X40436247Y-59963979D01*
X40471947Y-59968236D01*
X40484716Y-59969759D01*
X40484717Y-59969759D01*
X40491946Y-59970621D01*
X40603443Y-59962042D01*
X40680314Y-59956127D01*
X40680316Y-59956127D01*
X40687576Y-59955568D01*
X40876556Y-59902803D01*
X40883062Y-59899516D01*
X40883066Y-59899515D01*
X40927661Y-59876988D01*
X40954652Y-59863354D01*
X41030149Y-59847581D01*
X41039549Y-59850672D01*
X41046245Y-59829436D01*
X41080177Y-59792080D01*
X41200560Y-59698027D01*
X41200561Y-59698026D01*
X41206303Y-59693540D01*
X41334509Y-59545011D01*
X41400267Y-59429256D01*
X41427827Y-59380743D01*
X41427828Y-59380741D01*
X41431425Y-59374409D01*
X41455775Y-59301210D01*
X41498230Y-59236823D01*
X41567195Y-59202287D01*
X41644187Y-59206861D01*
X41693725Y-59234773D01*
X41712241Y-59250532D01*
X41718604Y-59254088D01*
X41877152Y-59342698D01*
X41877158Y-59342701D01*
X41883516Y-59346254D01*
X42070121Y-59406886D01*
X42143400Y-59415624D01*
X42257718Y-59429256D01*
X42257721Y-59429256D01*
X42264949Y-59430118D01*
X42376446Y-59421539D01*
X42453317Y-59415624D01*
X42453319Y-59415624D01*
X42460579Y-59415065D01*
X42606190Y-59374409D01*
X42642536Y-59364261D01*
X42642537Y-59364261D01*
X42649559Y-59362300D01*
X42656065Y-59359013D01*
X42656069Y-59359012D01*
X42818187Y-59277120D01*
X42818188Y-59277120D01*
X42824692Y-59273834D01*
X42979306Y-59153037D01*
X43107512Y-59004508D01*
X43204428Y-58833906D01*
X43266361Y-58647729D01*
X43270611Y-58614091D01*
X43278889Y-58548558D01*
X43290952Y-58453068D01*
X43291344Y-58424997D01*
X43272197Y-58229725D01*
X43215487Y-58041891D01*
X43201003Y-58014651D01*
X43126795Y-57875085D01*
X43126793Y-57875082D01*
X43123373Y-57868650D01*
X43118770Y-57863007D01*
X43118768Y-57863003D01*
X43043702Y-57770963D01*
X45730757Y-57770963D01*
X45747175Y-57966483D01*
X45801258Y-58155091D01*
X45890944Y-58329601D01*
X45942483Y-58394627D01*
X45992075Y-58457197D01*
X46012818Y-58483369D01*
X46162238Y-58610535D01*
X46168601Y-58614091D01*
X46327149Y-58702701D01*
X46327155Y-58702704D01*
X46333513Y-58706257D01*
X46520118Y-58766889D01*
X46593397Y-58775627D01*
X46707715Y-58789259D01*
X46707718Y-58789259D01*
X46714946Y-58790121D01*
X46826443Y-58781542D01*
X46903314Y-58775627D01*
X46903316Y-58775627D01*
X46910576Y-58775068D01*
X47099556Y-58722303D01*
X47106062Y-58719016D01*
X47106066Y-58719015D01*
X47268184Y-58637123D01*
X47268185Y-58637123D01*
X47274689Y-58633837D01*
X47397860Y-58537606D01*
X47423560Y-58517527D01*
X47423561Y-58517526D01*
X47429303Y-58513040D01*
X47557509Y-58364511D01*
X47634079Y-58229725D01*
X47650827Y-58200243D01*
X47650828Y-58200241D01*
X47654425Y-58193909D01*
X47716358Y-58007732D01*
X47740949Y-57813071D01*
X47741341Y-57785000D01*
X47722194Y-57589728D01*
X47690696Y-57485401D01*
X47688274Y-57408311D01*
X47724721Y-57340338D01*
X47766156Y-57309341D01*
X47903184Y-57240123D01*
X47903185Y-57240123D01*
X47909689Y-57236837D01*
X48064303Y-57116040D01*
X48192509Y-56967511D01*
X48289425Y-56796909D01*
X48351358Y-56610732D01*
X48352273Y-56603495D01*
X48368901Y-56471864D01*
X48375949Y-56416071D01*
X48376341Y-56388000D01*
X48357194Y-56192728D01*
X48300484Y-56004894D01*
X48208370Y-55831653D01*
X48203767Y-55826010D01*
X48203765Y-55826006D01*
X48088964Y-55685246D01*
X48084361Y-55679602D01*
X47933180Y-55554535D01*
X47760585Y-55461213D01*
X47630202Y-55420853D01*
X47580111Y-55405347D01*
X47580109Y-55405347D01*
X47573152Y-55403193D01*
X47565910Y-55402432D01*
X47565906Y-55402431D01*
X47385260Y-55383444D01*
X47385259Y-55383444D01*
X47378019Y-55382683D01*
X47182618Y-55400466D01*
X46994393Y-55455864D01*
X46820512Y-55546767D01*
X46667600Y-55669711D01*
X46541480Y-55820016D01*
X46446956Y-55991954D01*
X46387628Y-56178978D01*
X46386815Y-56186222D01*
X46386815Y-56186224D01*
X46385273Y-56199974D01*
X46365757Y-56373963D01*
X46382175Y-56569483D01*
X46416375Y-56688752D01*
X46417721Y-56765866D01*
X46380329Y-56833323D01*
X46342179Y-56861863D01*
X46185512Y-56943767D01*
X46179838Y-56948329D01*
X46045222Y-57056563D01*
X46032600Y-57066711D01*
X45906480Y-57217016D01*
X45811956Y-57388954D01*
X45752628Y-57575978D01*
X45751815Y-57583222D01*
X45751815Y-57583224D01*
X45734813Y-57734800D01*
X45730757Y-57770963D01*
X43043702Y-57770963D01*
X43003967Y-57722243D01*
X42999364Y-57716599D01*
X42848183Y-57591532D01*
X42675588Y-57498210D01*
X42545205Y-57457850D01*
X42495114Y-57442344D01*
X42495112Y-57442344D01*
X42488155Y-57440190D01*
X42480913Y-57439429D01*
X42480909Y-57439428D01*
X42300263Y-57420441D01*
X42300262Y-57420441D01*
X42293022Y-57419680D01*
X42097621Y-57437463D01*
X41909396Y-57492861D01*
X41735515Y-57583764D01*
X41729840Y-57588326D01*
X41729835Y-57588330D01*
X41658195Y-57645930D01*
X41587626Y-57677055D01*
X41510949Y-57668725D01*
X41448710Y-57623173D01*
X41422190Y-57572874D01*
X41420064Y-57565830D01*
X41381308Y-57437463D01*
X41369612Y-57398724D01*
X41369611Y-57398722D01*
X41367505Y-57391746D01*
X41346127Y-57351539D01*
X41278813Y-57224940D01*
X41278811Y-57224937D01*
X41275391Y-57218505D01*
X41270788Y-57212862D01*
X41270786Y-57212858D01*
X41162968Y-57080660D01*
X41151382Y-57066454D01*
X41000201Y-56941387D01*
X40827606Y-56848065D01*
X40662347Y-56796909D01*
X40647132Y-56792199D01*
X40647130Y-56792199D01*
X40640173Y-56790045D01*
X40632931Y-56789284D01*
X40632927Y-56789283D01*
X40452281Y-56770296D01*
X40452280Y-56770296D01*
X40445040Y-56769535D01*
X40249639Y-56787318D01*
X40061414Y-56842716D01*
X39887533Y-56933619D01*
X39881859Y-56938181D01*
X39795079Y-57007954D01*
X39734621Y-57056563D01*
X39608501Y-57206868D01*
X39513977Y-57378806D01*
X39454649Y-57565830D01*
X39453836Y-57573074D01*
X39453836Y-57573076D01*
X39436511Y-57727531D01*
X39432778Y-57760815D01*
X39449196Y-57956335D01*
X39503279Y-58144943D01*
X39511673Y-58161276D01*
X39579819Y-58293873D01*
X39592965Y-58319453D01*
X39597491Y-58325163D01*
X39610259Y-58341273D01*
X39640890Y-58412058D01*
X39632024Y-58488675D01*
X39624057Y-58505605D01*
X39592468Y-58563063D01*
X39592463Y-58563075D01*
X39588956Y-58569454D01*
X39529628Y-58756478D01*
X39528815Y-58763722D01*
X39528815Y-58763724D01*
X39512692Y-58907467D01*
X39507757Y-58951463D01*
X39524175Y-59146983D01*
X39526185Y-59153992D01*
X39526185Y-59153993D01*
X39568400Y-59301213D01*
X39578258Y-59335591D01*
X39667944Y-59510101D01*
X39672462Y-59515801D01*
X39672465Y-59515806D01*
X39787894Y-59661441D01*
X39818525Y-59732226D01*
X39809660Y-59808843D01*
X39763674Y-59870763D01*
X39692889Y-59901394D01*
X39644993Y-59900683D01*
X39608511Y-59894185D01*
X39511972Y-59876988D01*
X39505859Y-59876913D01*
X39505856Y-59876913D01*
X39406031Y-59875694D01*
X39273471Y-59874074D01*
X39254428Y-59876988D01*
X39043735Y-59909229D01*
X39043733Y-59909230D01*
X39037698Y-59910153D01*
X38810982Y-59984255D01*
X38599414Y-60094390D01*
X38594529Y-60098057D01*
X38594527Y-60098059D01*
X38502677Y-60167023D01*
X38408675Y-60237602D01*
X38243887Y-60410042D01*
X38109475Y-60607082D01*
X38009051Y-60823428D01*
X38008911Y-60823934D01*
X37965470Y-60885513D01*
X37895454Y-60917864D01*
X37826035Y-60913375D01*
X37674111Y-60866347D01*
X37674109Y-60866347D01*
X37667152Y-60864193D01*
X37659910Y-60863432D01*
X37659906Y-60863431D01*
X37479260Y-60844444D01*
X37479259Y-60844444D01*
X37472019Y-60843683D01*
X37276618Y-60861466D01*
X37088393Y-60916864D01*
X36914512Y-61007767D01*
X36761600Y-61130711D01*
X36635480Y-61281016D01*
X36540956Y-61452954D01*
X36481628Y-61639978D01*
X36480815Y-61647222D01*
X36480815Y-61647224D01*
X36460569Y-61827722D01*
X36459757Y-61834963D01*
X30455512Y-61834963D01*
X30450194Y-61780728D01*
X30393484Y-61592894D01*
X30354845Y-61520224D01*
X30304792Y-61426088D01*
X30304790Y-61426085D01*
X30301370Y-61419653D01*
X30296767Y-61414010D01*
X30296765Y-61414006D01*
X30188301Y-61281016D01*
X30177361Y-61267602D01*
X30026180Y-61142535D01*
X29853585Y-61049213D01*
X29691838Y-60999144D01*
X29673111Y-60993347D01*
X29673109Y-60993347D01*
X29666152Y-60991193D01*
X29658910Y-60990432D01*
X29658906Y-60990431D01*
X29478260Y-60971444D01*
X29478259Y-60971444D01*
X29471019Y-60970683D01*
X29275618Y-60988466D01*
X29087393Y-61043864D01*
X28913512Y-61134767D01*
X28760600Y-61257711D01*
X28634480Y-61408016D01*
X28539956Y-61579954D01*
X28480628Y-61766978D01*
X28479815Y-61774222D01*
X28479815Y-61774224D01*
X28459569Y-61954722D01*
X28458757Y-61961963D01*
X24997225Y-61961963D01*
X25007949Y-61877071D01*
X25008341Y-61849000D01*
X24989194Y-61653728D01*
X24932484Y-61465894D01*
X24861534Y-61332456D01*
X24843792Y-61299088D01*
X24843790Y-61299085D01*
X24840370Y-61292653D01*
X24835767Y-61287010D01*
X24835765Y-61287006D01*
X24727301Y-61154016D01*
X24716361Y-61140602D01*
X24565180Y-61015535D01*
X24392585Y-60922213D01*
X24247791Y-60877392D01*
X24212111Y-60866347D01*
X24212109Y-60866347D01*
X24205152Y-60864193D01*
X24197910Y-60863432D01*
X24197906Y-60863431D01*
X24017260Y-60844444D01*
X24017259Y-60844444D01*
X24010019Y-60843683D01*
X23814618Y-60861466D01*
X23626393Y-60916864D01*
X23452512Y-61007767D01*
X23299600Y-61130711D01*
X23173480Y-61281016D01*
X23078956Y-61452954D01*
X23019628Y-61639978D01*
X23018815Y-61647222D01*
X23018815Y-61647224D01*
X22998569Y-61827722D01*
X22997757Y-61834963D01*
X20600500Y-61834963D01*
X20600500Y-56373963D01*
X31888152Y-56373963D01*
X31904570Y-56569483D01*
X31958653Y-56758091D01*
X32048339Y-56932601D01*
X32052861Y-56938306D01*
X32142970Y-57051996D01*
X32170213Y-57086369D01*
X32210349Y-57120527D01*
X32278871Y-57178844D01*
X32322668Y-57242331D01*
X32328853Y-57319210D01*
X32324336Y-57337328D01*
X32324332Y-57337348D01*
X32322128Y-57344295D01*
X32321316Y-57351534D01*
X32321315Y-57351539D01*
X32304475Y-57501677D01*
X32300257Y-57539280D01*
X32316675Y-57734800D01*
X32370758Y-57923408D01*
X32387680Y-57956335D01*
X32457111Y-58091434D01*
X32457114Y-58091439D01*
X32460444Y-58097918D01*
X32464972Y-58103631D01*
X32467371Y-58107353D01*
X32490949Y-58180789D01*
X32484152Y-58233122D01*
X32451720Y-58335360D01*
X32450908Y-58342599D01*
X32450907Y-58342604D01*
X32435118Y-58483369D01*
X32429849Y-58530345D01*
X32446267Y-58725865D01*
X32448277Y-58732874D01*
X32448277Y-58732875D01*
X32479064Y-58840240D01*
X32500350Y-58914473D01*
X32590036Y-59088983D01*
X32668699Y-59188232D01*
X32707212Y-59236823D01*
X32711910Y-59242751D01*
X32861330Y-59369917D01*
X32867693Y-59373473D01*
X33026241Y-59462083D01*
X33026247Y-59462086D01*
X33032605Y-59465639D01*
X33219210Y-59526271D01*
X33292489Y-59535009D01*
X33406807Y-59548641D01*
X33406810Y-59548641D01*
X33414038Y-59549503D01*
X33525535Y-59540924D01*
X33602406Y-59535009D01*
X33602408Y-59535009D01*
X33609668Y-59534450D01*
X33798648Y-59481685D01*
X33805154Y-59478398D01*
X33805158Y-59478397D01*
X33967276Y-59396505D01*
X33967277Y-59396505D01*
X33973781Y-59393219D01*
X34128395Y-59272422D01*
X34256601Y-59123893D01*
X34353517Y-58953291D01*
X34415450Y-58767114D01*
X34440041Y-58572453D01*
X34440433Y-58544382D01*
X34421286Y-58349110D01*
X34364576Y-58161276D01*
X34355892Y-58144943D01*
X34275885Y-57994472D01*
X34275883Y-57994469D01*
X34272462Y-57988035D01*
X34272876Y-57987815D01*
X34249729Y-57919029D01*
X34257052Y-57862645D01*
X34283558Y-57782964D01*
X34283559Y-57782961D01*
X34285858Y-57776049D01*
X34286866Y-57768076D01*
X34299416Y-57668725D01*
X34310449Y-57581388D01*
X34310666Y-57565830D01*
X34310783Y-57557493D01*
X34310783Y-57557487D01*
X34310841Y-57553317D01*
X34294824Y-57389963D01*
X36078757Y-57389963D01*
X36095175Y-57585483D01*
X36097185Y-57592492D01*
X36097185Y-57592493D01*
X36107003Y-57626732D01*
X36149258Y-57774091D01*
X36238944Y-57948601D01*
X36360818Y-58102369D01*
X36510238Y-58229535D01*
X36516601Y-58233091D01*
X36675149Y-58321701D01*
X36675155Y-58321704D01*
X36681513Y-58325257D01*
X36868118Y-58385889D01*
X36941397Y-58394627D01*
X37055715Y-58408259D01*
X37055718Y-58408259D01*
X37062946Y-58409121D01*
X37174443Y-58400542D01*
X37251314Y-58394627D01*
X37251316Y-58394627D01*
X37258576Y-58394068D01*
X37447556Y-58341303D01*
X37454062Y-58338016D01*
X37454066Y-58338015D01*
X37616184Y-58256123D01*
X37616185Y-58256123D01*
X37622689Y-58252837D01*
X37748123Y-58154838D01*
X37771560Y-58136527D01*
X37771561Y-58136526D01*
X37777303Y-58132040D01*
X37905509Y-57983511D01*
X37970760Y-57868650D01*
X37998827Y-57819243D01*
X37998828Y-57819241D01*
X38002425Y-57812909D01*
X38064358Y-57626732D01*
X38070213Y-57580389D01*
X38080866Y-57496055D01*
X38088949Y-57432071D01*
X38089341Y-57404000D01*
X38070194Y-57208728D01*
X38013484Y-57020894D01*
X38003209Y-57001570D01*
X37924792Y-56854088D01*
X37924790Y-56854085D01*
X37921370Y-56847653D01*
X37916767Y-56842010D01*
X37916765Y-56842006D01*
X37801964Y-56701246D01*
X37797361Y-56695602D01*
X37646180Y-56570535D01*
X37473585Y-56477213D01*
X37343202Y-56436853D01*
X37293111Y-56421347D01*
X37293109Y-56421347D01*
X37286152Y-56419193D01*
X37278910Y-56418432D01*
X37278906Y-56418431D01*
X37098260Y-56399444D01*
X37098259Y-56399444D01*
X37091019Y-56398683D01*
X36895618Y-56416466D01*
X36707393Y-56471864D01*
X36533512Y-56562767D01*
X36527838Y-56567329D01*
X36456008Y-56625082D01*
X36380600Y-56685711D01*
X36254480Y-56836016D01*
X36159956Y-57007954D01*
X36100628Y-57194978D01*
X36099815Y-57202222D01*
X36099815Y-57202224D01*
X36080008Y-57378806D01*
X36078757Y-57389963D01*
X34294824Y-57389963D01*
X34291694Y-57358045D01*
X34234984Y-57170211D01*
X34206181Y-57116040D01*
X34146292Y-57003405D01*
X34146290Y-57003402D01*
X34142870Y-56996970D01*
X34138267Y-56991327D01*
X34138265Y-56991323D01*
X34023464Y-56850563D01*
X34018861Y-56844919D01*
X34013251Y-56840278D01*
X34013245Y-56840272D01*
X33921939Y-56764737D01*
X33877260Y-56701868D01*
X33870002Y-56625082D01*
X33871504Y-56617494D01*
X33873753Y-56610732D01*
X33898344Y-56416071D01*
X33898736Y-56388000D01*
X33879589Y-56192728D01*
X33822879Y-56004894D01*
X33730765Y-55831653D01*
X33726162Y-55826010D01*
X33726160Y-55826006D01*
X33611359Y-55685246D01*
X33606756Y-55679602D01*
X33455575Y-55554535D01*
X33282980Y-55461213D01*
X33152597Y-55420853D01*
X33102506Y-55405347D01*
X33102504Y-55405347D01*
X33095547Y-55403193D01*
X33088305Y-55402432D01*
X33088301Y-55402431D01*
X32907655Y-55383444D01*
X32907654Y-55383444D01*
X32900414Y-55382683D01*
X32705013Y-55400466D01*
X32516788Y-55455864D01*
X32342907Y-55546767D01*
X32189995Y-55669711D01*
X32063875Y-55820016D01*
X31969351Y-55991954D01*
X31910023Y-56178978D01*
X31909210Y-56186222D01*
X31909210Y-56186224D01*
X31907668Y-56199974D01*
X31888152Y-56373963D01*
X20600500Y-56373963D01*
X20600500Y-52528094D01*
X36271175Y-52528094D01*
X36287593Y-52723614D01*
X36341676Y-52912222D01*
X36431362Y-53086732D01*
X36553236Y-53240500D01*
X36702656Y-53367666D01*
X36709019Y-53371222D01*
X36794170Y-53418811D01*
X36849464Y-53472582D01*
X36870464Y-53546796D01*
X36852049Y-53620658D01*
X36783210Y-53745876D01*
X36723882Y-53932900D01*
X36723069Y-53940144D01*
X36723069Y-53940146D01*
X36721527Y-53953896D01*
X36702011Y-54127885D01*
X36718429Y-54323405D01*
X36772512Y-54512013D01*
X36862198Y-54686523D01*
X36984072Y-54840291D01*
X37133492Y-54967457D01*
X37139855Y-54971013D01*
X37298403Y-55059623D01*
X37298409Y-55059626D01*
X37304767Y-55063179D01*
X37491372Y-55123811D01*
X37564651Y-55132549D01*
X37678969Y-55146181D01*
X37678972Y-55146181D01*
X37686200Y-55147043D01*
X37797697Y-55138464D01*
X37874568Y-55132549D01*
X37874570Y-55132549D01*
X37881830Y-55131990D01*
X38070810Y-55079225D01*
X38077316Y-55075938D01*
X38077320Y-55075937D01*
X38239438Y-54994045D01*
X38239439Y-54994045D01*
X38245943Y-54990759D01*
X38400557Y-54869962D01*
X38528763Y-54721433D01*
X38625679Y-54550831D01*
X38687612Y-54364654D01*
X38712203Y-54169993D01*
X38712595Y-54141922D01*
X38693448Y-53946650D01*
X38636738Y-53758816D01*
X38544624Y-53585575D01*
X38540021Y-53579932D01*
X38540019Y-53579928D01*
X38425218Y-53439168D01*
X38420615Y-53433524D01*
X38269434Y-53308457D01*
X38254799Y-53300544D01*
X38190882Y-53265983D01*
X38134843Y-53212989D01*
X38112809Y-53139075D01*
X38132196Y-53061318D01*
X38191245Y-52957374D01*
X38191246Y-52957372D01*
X38194843Y-52951040D01*
X38256776Y-52764863D01*
X38281367Y-52570202D01*
X38281759Y-52542131D01*
X38262612Y-52346859D01*
X38258461Y-52333109D01*
X38236487Y-52260327D01*
X38234065Y-52183237D01*
X38270512Y-52115264D01*
X38287394Y-52099848D01*
X38427729Y-51990207D01*
X38555935Y-51841678D01*
X38641003Y-51691933D01*
X38649253Y-51677410D01*
X38649254Y-51677408D01*
X38652851Y-51671076D01*
X38714784Y-51484899D01*
X38715854Y-51476434D01*
X38725200Y-51402447D01*
X38739375Y-51290238D01*
X38739603Y-51273889D01*
X38739709Y-51266343D01*
X38739709Y-51266337D01*
X38739767Y-51262167D01*
X38720620Y-51066895D01*
X38663910Y-50879061D01*
X38657030Y-50866121D01*
X38575218Y-50712255D01*
X38575216Y-50712252D01*
X38571796Y-50705820D01*
X38567193Y-50700177D01*
X38567191Y-50700173D01*
X38452390Y-50559413D01*
X38447787Y-50553769D01*
X38296606Y-50428702D01*
X38124011Y-50335380D01*
X37961983Y-50285224D01*
X37943537Y-50279514D01*
X37943535Y-50279514D01*
X37936578Y-50277360D01*
X37929336Y-50276599D01*
X37929332Y-50276598D01*
X37748686Y-50257611D01*
X37748685Y-50257611D01*
X37741445Y-50256850D01*
X37546044Y-50274633D01*
X37357819Y-50330031D01*
X37183938Y-50420934D01*
X37031026Y-50543878D01*
X36904906Y-50694183D01*
X36810382Y-50866121D01*
X36751054Y-51053145D01*
X36750241Y-51060389D01*
X36750241Y-51060391D01*
X36731295Y-51229303D01*
X36729183Y-51248130D01*
X36745601Y-51443650D01*
X36747611Y-51450659D01*
X36747611Y-51450660D01*
X36774573Y-51544687D01*
X36775919Y-51621803D01*
X36738527Y-51689261D01*
X36724709Y-51701878D01*
X36578704Y-51819269D01*
X36578696Y-51819277D01*
X36573018Y-51823842D01*
X36446898Y-51974147D01*
X36352374Y-52146085D01*
X36293046Y-52333109D01*
X36292233Y-52340353D01*
X36292233Y-52340355D01*
X36278021Y-52467061D01*
X36271175Y-52528094D01*
X20600500Y-52528094D01*
X20600500Y-51462397D01*
X29688030Y-51462397D01*
X29704448Y-51657917D01*
X29706458Y-51664926D01*
X29706458Y-51664927D01*
X29713436Y-51689261D01*
X29758531Y-51846525D01*
X29848217Y-52021035D01*
X29970091Y-52174803D01*
X30119511Y-52301969D01*
X30125874Y-52305525D01*
X30284422Y-52394135D01*
X30284428Y-52394138D01*
X30290786Y-52397691D01*
X30477391Y-52458323D01*
X30550670Y-52467061D01*
X30664988Y-52480693D01*
X30664991Y-52480693D01*
X30672219Y-52481555D01*
X30783716Y-52472976D01*
X30860587Y-52467061D01*
X30860589Y-52467061D01*
X30867849Y-52466502D01*
X31056829Y-52413737D01*
X31063335Y-52410450D01*
X31063339Y-52410449D01*
X31225457Y-52328557D01*
X31225458Y-52328557D01*
X31231962Y-52325271D01*
X31386576Y-52204474D01*
X31514782Y-52055945D01*
X31611698Y-51885343D01*
X31673631Y-51699166D01*
X31674883Y-51689261D01*
X31697700Y-51508634D01*
X31698222Y-51504505D01*
X31698614Y-51476434D01*
X31698207Y-51472287D01*
X31698207Y-51472278D01*
X31696696Y-51456868D01*
X31709294Y-51380776D01*
X31758250Y-51321177D01*
X31830447Y-51294041D01*
X31862625Y-51294378D01*
X31878398Y-51296259D01*
X31878405Y-51296259D01*
X31885633Y-51297121D01*
X31997130Y-51288542D01*
X32074001Y-51282627D01*
X32074003Y-51282627D01*
X32081263Y-51282068D01*
X32176808Y-51255391D01*
X32263220Y-51231264D01*
X32263221Y-51231264D01*
X32270243Y-51229303D01*
X32276749Y-51226016D01*
X32276753Y-51226015D01*
X32438871Y-51144123D01*
X32438872Y-51144123D01*
X32445376Y-51140837D01*
X32599990Y-51020040D01*
X32728196Y-50871511D01*
X32788054Y-50766142D01*
X32821514Y-50707243D01*
X32821515Y-50707241D01*
X32825112Y-50700909D01*
X32887045Y-50514732D01*
X32890049Y-50490957D01*
X32899321Y-50417559D01*
X32911636Y-50320071D01*
X32912028Y-50292000D01*
X32892881Y-50096728D01*
X32836171Y-49908894D01*
X32801033Y-49842809D01*
X32747479Y-49742088D01*
X32747477Y-49742085D01*
X32744057Y-49735653D01*
X32739454Y-49730010D01*
X32739452Y-49730006D01*
X32624651Y-49589246D01*
X32620048Y-49583602D01*
X32468867Y-49458535D01*
X32296272Y-49365213D01*
X32119558Y-49310511D01*
X32115798Y-49309347D01*
X32115796Y-49309347D01*
X32108839Y-49307193D01*
X32101597Y-49306432D01*
X32101593Y-49306431D01*
X31920947Y-49287444D01*
X31920946Y-49287444D01*
X31913706Y-49286683D01*
X31718305Y-49304466D01*
X31530080Y-49359864D01*
X31356199Y-49450767D01*
X31350525Y-49455329D01*
X31220185Y-49560125D01*
X31203287Y-49573711D01*
X31077167Y-49724016D01*
X30982643Y-49895954D01*
X30923315Y-50082978D01*
X30922502Y-50090222D01*
X30922502Y-50090224D01*
X30920960Y-50103974D01*
X30901444Y-50277963D01*
X30904528Y-50314689D01*
X30890870Y-50390598D01*
X30841087Y-50449508D01*
X30768519Y-50475634D01*
X30740480Y-50475341D01*
X30700292Y-50471117D01*
X30504891Y-50488900D01*
X30316666Y-50544298D01*
X30142785Y-50635201D01*
X30137111Y-50639763D01*
X30053183Y-50707243D01*
X29989873Y-50758145D01*
X29863753Y-50908450D01*
X29769229Y-51080388D01*
X29709901Y-51267412D01*
X29709088Y-51274656D01*
X29709088Y-51274658D01*
X29688842Y-51455156D01*
X29688030Y-51462397D01*
X20600500Y-51462397D01*
X20600500Y-49007963D01*
X26426757Y-49007963D01*
X26443175Y-49203483D01*
X26445185Y-49210492D01*
X26445185Y-49210493D01*
X26490545Y-49368680D01*
X26497258Y-49392091D01*
X26586944Y-49566601D01*
X26708818Y-49720369D01*
X26858238Y-49847535D01*
X26864601Y-49851091D01*
X27023149Y-49939701D01*
X27023155Y-49939704D01*
X27029513Y-49943257D01*
X27216118Y-50003889D01*
X27289397Y-50012627D01*
X27403715Y-50026259D01*
X27403718Y-50026259D01*
X27410946Y-50027121D01*
X27522443Y-50018542D01*
X27599314Y-50012627D01*
X27599316Y-50012627D01*
X27606576Y-50012068D01*
X27795556Y-49959303D01*
X27802062Y-49956016D01*
X27802066Y-49956015D01*
X27964184Y-49874123D01*
X27964185Y-49874123D01*
X27970689Y-49870837D01*
X28125303Y-49750040D01*
X28253509Y-49601511D01*
X28334731Y-49458535D01*
X28346827Y-49437243D01*
X28346828Y-49437241D01*
X28350425Y-49430909D01*
X28412358Y-49244732D01*
X28416426Y-49212535D01*
X28428175Y-49119527D01*
X28436949Y-49050071D01*
X28437341Y-49022000D01*
X28418194Y-48826728D01*
X28361484Y-48638894D01*
X28345978Y-48609732D01*
X28272792Y-48472088D01*
X28272790Y-48472085D01*
X28269370Y-48465653D01*
X28264767Y-48460010D01*
X28264765Y-48460006D01*
X28193774Y-48372963D01*
X37221757Y-48372963D01*
X37238175Y-48568483D01*
X37292258Y-48757091D01*
X37381944Y-48931601D01*
X37503818Y-49085369D01*
X37653238Y-49212535D01*
X37659601Y-49216091D01*
X37818149Y-49304701D01*
X37818155Y-49304704D01*
X37824513Y-49308257D01*
X38011118Y-49368889D01*
X38084397Y-49377627D01*
X38198715Y-49391259D01*
X38198718Y-49391259D01*
X38205946Y-49392121D01*
X38317443Y-49383542D01*
X38394314Y-49377627D01*
X38394316Y-49377627D01*
X38401576Y-49377068D01*
X38590556Y-49324303D01*
X38597062Y-49321016D01*
X38597066Y-49321015D01*
X38759184Y-49239123D01*
X38759185Y-49239123D01*
X38765689Y-49235837D01*
X38920303Y-49115040D01*
X39048509Y-48966511D01*
X39131876Y-48819759D01*
X39141827Y-48802243D01*
X39141828Y-48802241D01*
X39145425Y-48795909D01*
X39207358Y-48609732D01*
X39231949Y-48415071D01*
X39232341Y-48387000D01*
X39213194Y-48191728D01*
X39156484Y-48003894D01*
X39146209Y-47984570D01*
X39067792Y-47837088D01*
X39067790Y-47837085D01*
X39064370Y-47830653D01*
X39059767Y-47825010D01*
X39059765Y-47825006D01*
X38944964Y-47684246D01*
X38940361Y-47678602D01*
X38789180Y-47553535D01*
X38616585Y-47460213D01*
X38486202Y-47419853D01*
X38436111Y-47404347D01*
X38436109Y-47404347D01*
X38429152Y-47402193D01*
X38421910Y-47401432D01*
X38421906Y-47401431D01*
X38241260Y-47382444D01*
X38241259Y-47382444D01*
X38234019Y-47381683D01*
X38038618Y-47399466D01*
X37850393Y-47454864D01*
X37676512Y-47545767D01*
X37670838Y-47550329D01*
X37620204Y-47591040D01*
X37523600Y-47668711D01*
X37397480Y-47819016D01*
X37302956Y-47990954D01*
X37243628Y-48177978D01*
X37242815Y-48185222D01*
X37242815Y-48185224D01*
X37241273Y-48198974D01*
X37221757Y-48372963D01*
X28193774Y-48372963D01*
X28149964Y-48319246D01*
X28145361Y-48313602D01*
X27994180Y-48188535D01*
X27987197Y-48184759D01*
X27974655Y-48177978D01*
X27821585Y-48095213D01*
X27691202Y-48054853D01*
X27641111Y-48039347D01*
X27641109Y-48039347D01*
X27634152Y-48037193D01*
X27626910Y-48036432D01*
X27626906Y-48036431D01*
X27446260Y-48017444D01*
X27446259Y-48017444D01*
X27439019Y-48016683D01*
X27243618Y-48034466D01*
X27055393Y-48089864D01*
X26881512Y-48180767D01*
X26728600Y-48303711D01*
X26602480Y-48454016D01*
X26507956Y-48625954D01*
X26448628Y-48812978D01*
X26447815Y-48820222D01*
X26447815Y-48820224D01*
X26430788Y-48972022D01*
X26426757Y-49007963D01*
X20600500Y-49007963D01*
X20600500Y-46340963D01*
X20965757Y-46340963D01*
X20982175Y-46536483D01*
X21036258Y-46725091D01*
X21125944Y-46899601D01*
X21247818Y-47053369D01*
X21397238Y-47180535D01*
X21403601Y-47184091D01*
X21562149Y-47272701D01*
X21562155Y-47272704D01*
X21568513Y-47276257D01*
X21755118Y-47336889D01*
X21828397Y-47345627D01*
X21942715Y-47359259D01*
X21942718Y-47359259D01*
X21949946Y-47360121D01*
X22061443Y-47351542D01*
X22138314Y-47345627D01*
X22138316Y-47345627D01*
X22145576Y-47345068D01*
X22334556Y-47292303D01*
X22341062Y-47289016D01*
X22341066Y-47289015D01*
X22503184Y-47207123D01*
X22503185Y-47207123D01*
X22509689Y-47203837D01*
X22586996Y-47143439D01*
X22658560Y-47087527D01*
X22658561Y-47087526D01*
X22664303Y-47083040D01*
X22792509Y-46934511D01*
X22841107Y-46848963D01*
X32776757Y-46848963D01*
X32793175Y-47044483D01*
X32847258Y-47233091D01*
X32936944Y-47407601D01*
X33058818Y-47561369D01*
X33208238Y-47688535D01*
X33214601Y-47692091D01*
X33373149Y-47780701D01*
X33373155Y-47780704D01*
X33379513Y-47784257D01*
X33566118Y-47844889D01*
X33639397Y-47853627D01*
X33753715Y-47867259D01*
X33753718Y-47867259D01*
X33760946Y-47868121D01*
X33872443Y-47859542D01*
X33949314Y-47853627D01*
X33949316Y-47853627D01*
X33956576Y-47853068D01*
X34036856Y-47830653D01*
X34138533Y-47802264D01*
X34138534Y-47802264D01*
X34145556Y-47800303D01*
X34152062Y-47797016D01*
X34152066Y-47797015D01*
X34314184Y-47715123D01*
X34314185Y-47715123D01*
X34320689Y-47711837D01*
X34475303Y-47591040D01*
X34603509Y-47442511D01*
X34688840Y-47292303D01*
X34696827Y-47278243D01*
X34696828Y-47278241D01*
X34700425Y-47271909D01*
X34762358Y-47085732D01*
X34766447Y-47053369D01*
X34782261Y-46928182D01*
X34786949Y-46891071D01*
X34787341Y-46863000D01*
X34785965Y-46848963D01*
X46238757Y-46848963D01*
X46255175Y-47044483D01*
X46309258Y-47233091D01*
X46398944Y-47407601D01*
X46520818Y-47561369D01*
X46670238Y-47688535D01*
X46676601Y-47692091D01*
X46835149Y-47780701D01*
X46835155Y-47780704D01*
X46841513Y-47784257D01*
X47028118Y-47844889D01*
X47101397Y-47853627D01*
X47215715Y-47867259D01*
X47215718Y-47867259D01*
X47222946Y-47868121D01*
X47334443Y-47859542D01*
X47411314Y-47853627D01*
X47411316Y-47853627D01*
X47418576Y-47853068D01*
X47498856Y-47830653D01*
X47600533Y-47802264D01*
X47600534Y-47802264D01*
X47607556Y-47800303D01*
X47614062Y-47797016D01*
X47614066Y-47797015D01*
X47776184Y-47715123D01*
X47776185Y-47715123D01*
X47782689Y-47711837D01*
X47937303Y-47591040D01*
X48065509Y-47442511D01*
X48150840Y-47292303D01*
X48158827Y-47278243D01*
X48158828Y-47278241D01*
X48162425Y-47271909D01*
X48224358Y-47085732D01*
X48228447Y-47053369D01*
X48244261Y-46928182D01*
X48248949Y-46891071D01*
X48249341Y-46863000D01*
X48230194Y-46667728D01*
X48173484Y-46479894D01*
X48124198Y-46387200D01*
X48084792Y-46313088D01*
X48084790Y-46313085D01*
X48081370Y-46306653D01*
X48076767Y-46301010D01*
X48076765Y-46301006D01*
X47961964Y-46160246D01*
X47957361Y-46154602D01*
X47806180Y-46029535D01*
X47633585Y-45936213D01*
X47503202Y-45895853D01*
X47453111Y-45880347D01*
X47453109Y-45880347D01*
X47446152Y-45878193D01*
X47438910Y-45877432D01*
X47438906Y-45877431D01*
X47258260Y-45858444D01*
X47258259Y-45858444D01*
X47251019Y-45857683D01*
X47055618Y-45875466D01*
X46867393Y-45930864D01*
X46693512Y-46021767D01*
X46540600Y-46144711D01*
X46414480Y-46295016D01*
X46319956Y-46466954D01*
X46260628Y-46653978D01*
X46259815Y-46661222D01*
X46259815Y-46661224D01*
X46258273Y-46674974D01*
X46238757Y-46848963D01*
X34785965Y-46848963D01*
X34768194Y-46667728D01*
X34711484Y-46479894D01*
X34662198Y-46387200D01*
X34622792Y-46313088D01*
X34622790Y-46313085D01*
X34619370Y-46306653D01*
X34614767Y-46301010D01*
X34614765Y-46301006D01*
X34499964Y-46160246D01*
X34495361Y-46154602D01*
X34344180Y-46029535D01*
X34171585Y-45936213D01*
X34041202Y-45895853D01*
X33991111Y-45880347D01*
X33991109Y-45880347D01*
X33984152Y-45878193D01*
X33870772Y-45866276D01*
X33833613Y-45862370D01*
X33761608Y-45834729D01*
X33719112Y-45782250D01*
X33705708Y-45815762D01*
X33645096Y-45863458D01*
X33607923Y-45872865D01*
X33608033Y-45873440D01*
X33600874Y-45874806D01*
X33593618Y-45875466D01*
X33405393Y-45930864D01*
X33231512Y-46021767D01*
X33078600Y-46144711D01*
X32952480Y-46295016D01*
X32857956Y-46466954D01*
X32798628Y-46653978D01*
X32797815Y-46661222D01*
X32797815Y-46661224D01*
X32796273Y-46674974D01*
X32776757Y-46848963D01*
X22841107Y-46848963D01*
X22889425Y-46763909D01*
X22951358Y-46577732D01*
X22975949Y-46383071D01*
X22976341Y-46355000D01*
X22957194Y-46159728D01*
X22900484Y-45971894D01*
X22890209Y-45952570D01*
X22811792Y-45805088D01*
X22811790Y-45805085D01*
X22808370Y-45798653D01*
X22803767Y-45793010D01*
X22803765Y-45793006D01*
X22688964Y-45652246D01*
X22684361Y-45646602D01*
X22533180Y-45521535D01*
X22360585Y-45428213D01*
X22230202Y-45387853D01*
X22180111Y-45372347D01*
X22180109Y-45372347D01*
X22173152Y-45370193D01*
X22165910Y-45369432D01*
X22165906Y-45369431D01*
X21985260Y-45350444D01*
X21985259Y-45350444D01*
X21978019Y-45349683D01*
X21782618Y-45367466D01*
X21594393Y-45422864D01*
X21420512Y-45513767D01*
X21414838Y-45518329D01*
X21336569Y-45581259D01*
X21267600Y-45636711D01*
X21141480Y-45787016D01*
X21046956Y-45958954D01*
X20987628Y-46145978D01*
X20986815Y-46153222D01*
X20986815Y-46153224D01*
X20966569Y-46333722D01*
X20965757Y-46340963D01*
X20600500Y-46340963D01*
X20600500Y-44562963D01*
X28458757Y-44562963D01*
X28475175Y-44758483D01*
X28529258Y-44947091D01*
X28618944Y-45121601D01*
X28740818Y-45275369D01*
X28890238Y-45402535D01*
X28896601Y-45406091D01*
X29055149Y-45494701D01*
X29055155Y-45494704D01*
X29061513Y-45498257D01*
X29248118Y-45558889D01*
X29321397Y-45567627D01*
X29435715Y-45581259D01*
X29435718Y-45581259D01*
X29442946Y-45582121D01*
X29554443Y-45573542D01*
X29631314Y-45567627D01*
X29631316Y-45567627D01*
X29638576Y-45567068D01*
X29710771Y-45546911D01*
X29820533Y-45516264D01*
X29820534Y-45516264D01*
X29827556Y-45514303D01*
X29834062Y-45511016D01*
X29834066Y-45511015D01*
X29996184Y-45429123D01*
X29996185Y-45429123D01*
X30002689Y-45425837D01*
X30099188Y-45350444D01*
X30151560Y-45309527D01*
X30151561Y-45309526D01*
X30157303Y-45305040D01*
X30285509Y-45156511D01*
X30382425Y-44985909D01*
X30444358Y-44799732D01*
X30468949Y-44605071D01*
X30469341Y-44577000D01*
X30467965Y-44562963D01*
X32649757Y-44562963D01*
X32666175Y-44758483D01*
X32720258Y-44947091D01*
X32809944Y-45121601D01*
X32931818Y-45275369D01*
X33081238Y-45402535D01*
X33087601Y-45406091D01*
X33246149Y-45494701D01*
X33246155Y-45494704D01*
X33252513Y-45498257D01*
X33439118Y-45558889D01*
X33604041Y-45578555D01*
X33675654Y-45607198D01*
X33716278Y-45658823D01*
X33728646Y-45626605D01*
X33788586Y-45578067D01*
X33822876Y-45567584D01*
X33829576Y-45567068D01*
X33836597Y-45565108D01*
X33836601Y-45565107D01*
X34011533Y-45516264D01*
X34011534Y-45516264D01*
X34018556Y-45514303D01*
X34025062Y-45511016D01*
X34025066Y-45511015D01*
X34187184Y-45429123D01*
X34187185Y-45429123D01*
X34193689Y-45425837D01*
X34290188Y-45350444D01*
X34342560Y-45309527D01*
X34342561Y-45309526D01*
X34348303Y-45305040D01*
X34476509Y-45156511D01*
X34573425Y-44985909D01*
X34635358Y-44799732D01*
X34659949Y-44605071D01*
X34660341Y-44577000D01*
X34641194Y-44381728D01*
X34584484Y-44193894D01*
X34492370Y-44020653D01*
X34487767Y-44015010D01*
X34487765Y-44015006D01*
X34372964Y-43874246D01*
X34368361Y-43868602D01*
X34217180Y-43743535D01*
X34044585Y-43650213D01*
X33914202Y-43609853D01*
X33864111Y-43594347D01*
X33864109Y-43594347D01*
X33857152Y-43592193D01*
X33849910Y-43591432D01*
X33849906Y-43591431D01*
X33669260Y-43572444D01*
X33669259Y-43572444D01*
X33662019Y-43571683D01*
X33466618Y-43589466D01*
X33278393Y-43644864D01*
X33104512Y-43735767D01*
X32951600Y-43858711D01*
X32825480Y-44009016D01*
X32730956Y-44180954D01*
X32671628Y-44367978D01*
X32670815Y-44375222D01*
X32670815Y-44375224D01*
X32669273Y-44388974D01*
X32649757Y-44562963D01*
X30467965Y-44562963D01*
X30450194Y-44381728D01*
X30393484Y-44193894D01*
X30301370Y-44020653D01*
X30296767Y-44015010D01*
X30296765Y-44015006D01*
X30181964Y-43874246D01*
X30177361Y-43868602D01*
X30026180Y-43743535D01*
X29853585Y-43650213D01*
X29723202Y-43609853D01*
X29673111Y-43594347D01*
X29673109Y-43594347D01*
X29666152Y-43592193D01*
X29658910Y-43591432D01*
X29658906Y-43591431D01*
X29478260Y-43572444D01*
X29478259Y-43572444D01*
X29471019Y-43571683D01*
X29275618Y-43589466D01*
X29087393Y-43644864D01*
X28913512Y-43735767D01*
X28760600Y-43858711D01*
X28634480Y-44009016D01*
X28539956Y-44180954D01*
X28480628Y-44367978D01*
X28479815Y-44375222D01*
X28479815Y-44375224D01*
X28478273Y-44388974D01*
X28458757Y-44562963D01*
X20600500Y-44562963D01*
X20600500Y-40371963D01*
X23378757Y-40371963D01*
X23395175Y-40567483D01*
X23449258Y-40756091D01*
X23538944Y-40930601D01*
X23660818Y-41084369D01*
X23810238Y-41211535D01*
X23816601Y-41215091D01*
X23975149Y-41303701D01*
X23975155Y-41303704D01*
X23981513Y-41307257D01*
X24168118Y-41367889D01*
X24241397Y-41376627D01*
X24355715Y-41390259D01*
X24355718Y-41390259D01*
X24362946Y-41391121D01*
X24474443Y-41382542D01*
X24551314Y-41376627D01*
X24551316Y-41376627D01*
X24558576Y-41376068D01*
X24747556Y-41323303D01*
X24754062Y-41320016D01*
X24754066Y-41320015D01*
X24916184Y-41238123D01*
X24916185Y-41238123D01*
X24922689Y-41234837D01*
X25077303Y-41114040D01*
X25205509Y-40965511D01*
X25302425Y-40794909D01*
X25364358Y-40608732D01*
X25388949Y-40414071D01*
X25389341Y-40386000D01*
X25370194Y-40190728D01*
X25313484Y-40002894D01*
X25221370Y-39829653D01*
X25216767Y-39824010D01*
X25216765Y-39824006D01*
X25101964Y-39683246D01*
X25097361Y-39677602D01*
X24946180Y-39552535D01*
X24773585Y-39459213D01*
X24643202Y-39418853D01*
X24593111Y-39403347D01*
X24593109Y-39403347D01*
X24586152Y-39401193D01*
X24578910Y-39400432D01*
X24578906Y-39400431D01*
X24398260Y-39381444D01*
X24398259Y-39381444D01*
X24391019Y-39380683D01*
X24195618Y-39398466D01*
X24007393Y-39453864D01*
X23833512Y-39544767D01*
X23680600Y-39667711D01*
X23554480Y-39818016D01*
X23459956Y-39989954D01*
X23400628Y-40176978D01*
X23399815Y-40184222D01*
X23399815Y-40184224D01*
X23398273Y-40197974D01*
X23378757Y-40371963D01*
X20600500Y-40371963D01*
X20600500Y-35037963D01*
X23378757Y-35037963D01*
X23395175Y-35233483D01*
X23449258Y-35422091D01*
X23538944Y-35596601D01*
X23660818Y-35750369D01*
X23810238Y-35877535D01*
X23816601Y-35881091D01*
X23975149Y-35969701D01*
X23975155Y-35969704D01*
X23981513Y-35973257D01*
X24168118Y-36033889D01*
X24241397Y-36042627D01*
X24355715Y-36056259D01*
X24355718Y-36056259D01*
X24362946Y-36057121D01*
X24474443Y-36048542D01*
X24551314Y-36042627D01*
X24551316Y-36042627D01*
X24558576Y-36042068D01*
X24747556Y-35989303D01*
X24754062Y-35986016D01*
X24754066Y-35986015D01*
X24916184Y-35904123D01*
X24916185Y-35904123D01*
X24922689Y-35900837D01*
X25077303Y-35780040D01*
X25205509Y-35631511D01*
X25302425Y-35460909D01*
X25364358Y-35274732D01*
X25388949Y-35080071D01*
X25389341Y-35052000D01*
X25370194Y-34856728D01*
X25313484Y-34668894D01*
X25266538Y-34580601D01*
X25224792Y-34502088D01*
X25224790Y-34502085D01*
X25221370Y-34495653D01*
X25216767Y-34490010D01*
X25216765Y-34490006D01*
X25101964Y-34349246D01*
X25097361Y-34343602D01*
X24946180Y-34218535D01*
X24773585Y-34125213D01*
X24643202Y-34084853D01*
X24593111Y-34069347D01*
X24593109Y-34069347D01*
X24586152Y-34067193D01*
X24578910Y-34066432D01*
X24578906Y-34066431D01*
X24398260Y-34047444D01*
X24398259Y-34047444D01*
X24391019Y-34046683D01*
X24195618Y-34064466D01*
X24007393Y-34119864D01*
X23833512Y-34210767D01*
X23680600Y-34333711D01*
X23554480Y-34484016D01*
X23459956Y-34655954D01*
X23400628Y-34842978D01*
X23399815Y-34850222D01*
X23399815Y-34850224D01*
X23379569Y-35030722D01*
X23378757Y-35037963D01*
X20600500Y-35037963D01*
X20600500Y-34021963D01*
X44333757Y-34021963D01*
X44350175Y-34217483D01*
X44404258Y-34406091D01*
X44493944Y-34580601D01*
X44615818Y-34734369D01*
X44765238Y-34861535D01*
X44771601Y-34865091D01*
X44930149Y-34953701D01*
X44930155Y-34953704D01*
X44936513Y-34957257D01*
X45123118Y-35017889D01*
X45196397Y-35026627D01*
X45310715Y-35040259D01*
X45310718Y-35040259D01*
X45317946Y-35041121D01*
X45429443Y-35032542D01*
X45506314Y-35026627D01*
X45506316Y-35026627D01*
X45513576Y-35026068D01*
X45702556Y-34973303D01*
X45709062Y-34970016D01*
X45709066Y-34970015D01*
X45871184Y-34888123D01*
X45871185Y-34888123D01*
X45877689Y-34884837D01*
X46032303Y-34764040D01*
X46160509Y-34615511D01*
X46257425Y-34444909D01*
X46319358Y-34258732D01*
X46343949Y-34064071D01*
X46344341Y-34036000D01*
X46325194Y-33840728D01*
X46268484Y-33652894D01*
X46176370Y-33479653D01*
X46171767Y-33474010D01*
X46171765Y-33474006D01*
X46056964Y-33333246D01*
X46052361Y-33327602D01*
X45901180Y-33202535D01*
X45728585Y-33109213D01*
X45598202Y-33068853D01*
X45548111Y-33053347D01*
X45548109Y-33053347D01*
X45541152Y-33051193D01*
X45533910Y-33050432D01*
X45533906Y-33050431D01*
X45353260Y-33031444D01*
X45353259Y-33031444D01*
X45346019Y-33030683D01*
X45150618Y-33048466D01*
X44962393Y-33103864D01*
X44788512Y-33194767D01*
X44635600Y-33317711D01*
X44509480Y-33468016D01*
X44414956Y-33639954D01*
X44355628Y-33826978D01*
X44354815Y-33834222D01*
X44354815Y-33834224D01*
X44353273Y-33847974D01*
X44333757Y-34021963D01*
X20600500Y-34021963D01*
X20600500Y-25425337D01*
X22183736Y-25425337D01*
X22189748Y-25435751D01*
X22210298Y-25453773D01*
X22218019Y-25459697D01*
X22461473Y-25622368D01*
X22469895Y-25627230D01*
X22732503Y-25756734D01*
X22741480Y-25760453D01*
X23018755Y-25854575D01*
X23028143Y-25857091D01*
X23315317Y-25914213D01*
X23324963Y-25915483D01*
X23617133Y-25934633D01*
X23626867Y-25934633D01*
X23919037Y-25915483D01*
X23928683Y-25914213D01*
X24215857Y-25857091D01*
X24225245Y-25854575D01*
X24502520Y-25760453D01*
X24511497Y-25756734D01*
X24774105Y-25627230D01*
X24782527Y-25622368D01*
X25025981Y-25459697D01*
X25033702Y-25453773D01*
X25051379Y-25438270D01*
X25060021Y-25425337D01*
X45043736Y-25425337D01*
X45049748Y-25435751D01*
X45070298Y-25453773D01*
X45078019Y-25459697D01*
X45321473Y-25622368D01*
X45329895Y-25627230D01*
X45592503Y-25756734D01*
X45601480Y-25760453D01*
X45878755Y-25854575D01*
X45888143Y-25857091D01*
X46175317Y-25914213D01*
X46184963Y-25915483D01*
X46477133Y-25934633D01*
X46486867Y-25934633D01*
X46779037Y-25915483D01*
X46788683Y-25914213D01*
X47075857Y-25857091D01*
X47085245Y-25854575D01*
X47362520Y-25760453D01*
X47371497Y-25756734D01*
X47634105Y-25627230D01*
X47642527Y-25622368D01*
X47885981Y-25459697D01*
X47893702Y-25453773D01*
X47911379Y-25438270D01*
X47920277Y-25424954D01*
X47914959Y-25414169D01*
X46495871Y-23995081D01*
X46482000Y-23987073D01*
X46468129Y-23995081D01*
X45051744Y-25411466D01*
X45043736Y-25425337D01*
X25060021Y-25425337D01*
X25060277Y-25424954D01*
X25054959Y-25414169D01*
X23635871Y-23995081D01*
X23622000Y-23987073D01*
X23608129Y-23995081D01*
X22191744Y-25411466D01*
X22183736Y-25425337D01*
X20600500Y-25425337D01*
X20600500Y-23626867D01*
X21309367Y-23626867D01*
X21328517Y-23919037D01*
X21329787Y-23928683D01*
X21386909Y-24215857D01*
X21389425Y-24225245D01*
X21483547Y-24502520D01*
X21487266Y-24511497D01*
X21616770Y-24774105D01*
X21621632Y-24782527D01*
X21784303Y-25025981D01*
X21790227Y-25033702D01*
X21805730Y-25051379D01*
X21819046Y-25060277D01*
X21829831Y-25054959D01*
X23248919Y-23635871D01*
X23256927Y-23622000D01*
X23987073Y-23622000D01*
X23995081Y-23635871D01*
X25411466Y-25052256D01*
X25425337Y-25060264D01*
X25435751Y-25054252D01*
X25453773Y-25033702D01*
X25459697Y-25025981D01*
X25622368Y-24782527D01*
X25627230Y-24774105D01*
X25756734Y-24511497D01*
X25760453Y-24502520D01*
X25854575Y-24225245D01*
X25857091Y-24215857D01*
X25914213Y-23928683D01*
X25915483Y-23919037D01*
X25934633Y-23626867D01*
X44169367Y-23626867D01*
X44188517Y-23919037D01*
X44189787Y-23928683D01*
X44246909Y-24215857D01*
X44249425Y-24225245D01*
X44343547Y-24502520D01*
X44347266Y-24511497D01*
X44476770Y-24774105D01*
X44481632Y-24782527D01*
X44644303Y-25025981D01*
X44650227Y-25033702D01*
X44665730Y-25051379D01*
X44679046Y-25060277D01*
X44689831Y-25054959D01*
X46108919Y-23635871D01*
X46116927Y-23622000D01*
X46847073Y-23622000D01*
X46855081Y-23635871D01*
X48271466Y-25052256D01*
X48285337Y-25060264D01*
X48295751Y-25054252D01*
X48313773Y-25033702D01*
X48319697Y-25025981D01*
X48482368Y-24782527D01*
X48487230Y-24774105D01*
X48616734Y-24511497D01*
X48620453Y-24502520D01*
X48714575Y-24225245D01*
X48717091Y-24215857D01*
X48774213Y-23928683D01*
X48775483Y-23919037D01*
X48794633Y-23626867D01*
X48794633Y-23617133D01*
X48775483Y-23324963D01*
X48774213Y-23315317D01*
X48717091Y-23028143D01*
X48714575Y-23018755D01*
X48620453Y-22741480D01*
X48616734Y-22732503D01*
X48487230Y-22469895D01*
X48482368Y-22461473D01*
X48319697Y-22218019D01*
X48313773Y-22210298D01*
X48298270Y-22192621D01*
X48284954Y-22183723D01*
X48274169Y-22189041D01*
X46855081Y-23608129D01*
X46847073Y-23622000D01*
X46116927Y-23622000D01*
X46108919Y-23608129D01*
X44692534Y-22191744D01*
X44678663Y-22183736D01*
X44668249Y-22189748D01*
X44650227Y-22210298D01*
X44644303Y-22218019D01*
X44481632Y-22461473D01*
X44476770Y-22469895D01*
X44347266Y-22732503D01*
X44343547Y-22741480D01*
X44249425Y-23018755D01*
X44246909Y-23028143D01*
X44189787Y-23315317D01*
X44188517Y-23324963D01*
X44169367Y-23617133D01*
X44169367Y-23626867D01*
X25934633Y-23626867D01*
X25934633Y-23617133D01*
X25915483Y-23324963D01*
X25914213Y-23315317D01*
X25857091Y-23028143D01*
X25854575Y-23018755D01*
X25760453Y-22741480D01*
X25756734Y-22732503D01*
X25627230Y-22469895D01*
X25622368Y-22461473D01*
X25459697Y-22218019D01*
X25453773Y-22210298D01*
X25438270Y-22192621D01*
X25424954Y-22183723D01*
X25414169Y-22189041D01*
X23995081Y-23608129D01*
X23987073Y-23622000D01*
X23256927Y-23622000D01*
X23248919Y-23608129D01*
X21832534Y-22191744D01*
X21818663Y-22183736D01*
X21808249Y-22189748D01*
X21790227Y-22210298D01*
X21784303Y-22218019D01*
X21621632Y-22461473D01*
X21616770Y-22469895D01*
X21487266Y-22732503D01*
X21483547Y-22741480D01*
X21389425Y-23018755D01*
X21386909Y-23028143D01*
X21329787Y-23315317D01*
X21328517Y-23324963D01*
X21309367Y-23617133D01*
X21309367Y-23626867D01*
X20600500Y-23626867D01*
X20600500Y-21819046D01*
X22183723Y-21819046D01*
X22189041Y-21829831D01*
X23608129Y-23248919D01*
X23622000Y-23256927D01*
X23635871Y-23248919D01*
X25052256Y-21832534D01*
X25060043Y-21819046D01*
X45043723Y-21819046D01*
X45049041Y-21829831D01*
X46468129Y-23248919D01*
X46482000Y-23256927D01*
X46495871Y-23248919D01*
X47912256Y-21832534D01*
X47920264Y-21818663D01*
X47914252Y-21808249D01*
X47893702Y-21790227D01*
X47885981Y-21784303D01*
X47642527Y-21621632D01*
X47634105Y-21616770D01*
X47371497Y-21487266D01*
X47362520Y-21483547D01*
X47085245Y-21389425D01*
X47075857Y-21386909D01*
X46788683Y-21329787D01*
X46779037Y-21328517D01*
X46486867Y-21309367D01*
X46477133Y-21309367D01*
X46184963Y-21328517D01*
X46175317Y-21329787D01*
X45888143Y-21386909D01*
X45878755Y-21389425D01*
X45601480Y-21483547D01*
X45592503Y-21487266D01*
X45329895Y-21616770D01*
X45321473Y-21621632D01*
X45078019Y-21784303D01*
X45070298Y-21790227D01*
X45052621Y-21805730D01*
X45043723Y-21819046D01*
X25060043Y-21819046D01*
X25060264Y-21818663D01*
X25054252Y-21808249D01*
X25033702Y-21790227D01*
X25025981Y-21784303D01*
X24782527Y-21621632D01*
X24774105Y-21616770D01*
X24511497Y-21487266D01*
X24502520Y-21483547D01*
X24225245Y-21389425D01*
X24215857Y-21386909D01*
X23928683Y-21329787D01*
X23919037Y-21328517D01*
X23626867Y-21309367D01*
X23617133Y-21309367D01*
X23324963Y-21328517D01*
X23315317Y-21329787D01*
X23028143Y-21386909D01*
X23018755Y-21389425D01*
X22741480Y-21483547D01*
X22732503Y-21487266D01*
X22469895Y-21616770D01*
X22461473Y-21621632D01*
X22218019Y-21784303D01*
X22210298Y-21790227D01*
X22192621Y-21805730D01*
X22183723Y-21819046D01*
X20600500Y-21819046D01*
X20600500Y-20749500D01*
X20620462Y-20675000D01*
X20675000Y-20620462D01*
X20749500Y-20600500D01*
X49251097Y-20600500D01*
X49325597Y-20620462D01*
G37*
%TD.AperFunction*%
%TD*%
M02*
