%TF.GenerationSoftware,KiCad,Pcbnew,(6.0.8)*%
%TF.CreationDate,2023-06-03T22:28:48+01:00*%
%TF.ProjectId,circuit board design v2.1,63697263-7569-4742-9062-6f6172642064,rev?*%
%TF.SameCoordinates,Original*%
%TF.FileFunction,Copper,L3,Inr*%
%TF.FilePolarity,Positive*%
%FSLAX46Y46*%
G04 Gerber Fmt 4.6, Leading zero omitted, Abs format (unit mm)*
G04 Created by KiCad (PCBNEW (6.0.8)) date 2023-06-03 22:28:48*
%MOMM*%
%LPD*%
G01*
G04 APERTURE LIST*
G04 Aperture macros list*
%AMRoundRect*
0 Rectangle with rounded corners*
0 $1 Rounding radius*
0 $2 $3 $4 $5 $6 $7 $8 $9 X,Y pos of 4 corners*
0 Add a 4 corners polygon primitive as box body*
4,1,4,$2,$3,$4,$5,$6,$7,$8,$9,$2,$3,0*
0 Add four circle primitives for the rounded corners*
1,1,$1+$1,$2,$3*
1,1,$1+$1,$4,$5*
1,1,$1+$1,$6,$7*
1,1,$1+$1,$8,$9*
0 Add four rect primitives between the rounded corners*
20,1,$1+$1,$2,$3,$4,$5,0*
20,1,$1+$1,$4,$5,$6,$7,0*
20,1,$1+$1,$6,$7,$8,$9,0*
20,1,$1+$1,$8,$9,$2,$3,0*%
G04 Aperture macros list end*
%TA.AperFunction,ComponentPad*%
%ADD10C,1.450000*%
%TD*%
%TA.AperFunction,ComponentPad*%
%ADD11O,0.800000X1.600000*%
%TD*%
%TA.AperFunction,ComponentPad*%
%ADD12C,3.600000*%
%TD*%
%TA.AperFunction,ComponentPad*%
%ADD13R,1.700000X1.700000*%
%TD*%
%TA.AperFunction,ComponentPad*%
%ADD14O,1.700000X1.700000*%
%TD*%
%TA.AperFunction,ComponentPad*%
%ADD15RoundRect,0.250000X0.625000X-0.350000X0.625000X0.350000X-0.625000X0.350000X-0.625000X-0.350000X0*%
%TD*%
%TA.AperFunction,ComponentPad*%
%ADD16O,1.750000X1.200000*%
%TD*%
%TA.AperFunction,ViaPad*%
%ADD17C,0.800000*%
%TD*%
G04 APERTURE END LIST*
D10*
%TO.N,GND*%
%TO.C,J3*%
X33747000Y-88251000D03*
X38747000Y-88251000D03*
D11*
X32747000Y-90951000D03*
X39747000Y-90951000D03*
%TD*%
D12*
%TO.N,GND*%
%TO.C,H4*%
X46482000Y-90500000D03*
%TD*%
D13*
%TO.N,+3.3V*%
%TO.C,J1*%
X24892000Y-44699000D03*
D14*
%TO.N,GND*%
X24892000Y-47239000D03*
%TD*%
D15*
%TO.N,GND*%
%TO.C,J2*%
X40984000Y-83550000D03*
D16*
%TO.N,/Power/Battery+*%
X40984000Y-81550000D03*
%TD*%
D12*
%TO.N,GND*%
%TO.C,H2*%
X46482000Y-21336000D03*
%TD*%
D13*
%TO.N,/MCU/SYS_JTCK_SWCLK*%
%TO.C,J6*%
X37968000Y-44704000D03*
D14*
%TO.N,/MCU/SYS_JTMS_SWDIO*%
X40508000Y-44704000D03*
%TD*%
D12*
%TO.N,GND*%
%TO.C,H3*%
X25527000Y-21336000D03*
%TD*%
%TO.N,GND*%
%TO.C,H1*%
X25654000Y-90500000D03*
%TD*%
D17*
%TO.N,/GPS/GPS_UART_TX_Module*%
X26289000Y-30226000D03*
%TO.N,/GPS/GPS_UART_RX_Module*%
X26289000Y-27686000D03*
X36195000Y-42291000D03*
%TO.N,/GPS/GPS_UART_TX_Module*%
X35179000Y-42545000D03*
%TO.N,/GPS/GPS_Reset*%
X37211000Y-42545000D03*
X46236000Y-32758000D03*
%TO.N,+3.3V*%
X48133000Y-40640000D03*
X44831000Y-42799000D03*
%TO.N,/MCU/Radio_DIO2*%
X31242000Y-54102000D03*
%TO.N,/MCU/Radio_DIO4*%
X39364753Y-55537530D03*
%TO.N,/MCU/Radio_DIO5*%
X39656500Y-56441100D03*
%TO.N,/MCU/Radio_DIO3*%
X39619959Y-54622969D03*
%TO.N,/MCU/Radio_Enable*%
X37039311Y-64025423D03*
%TO.N,/MCU/I2C1_SDA*%
X48921140Y-61203806D03*
X33782000Y-50038000D03*
X28908006Y-71734469D03*
X47621270Y-53427500D03*
%TO.N,GND*%
X41021000Y-66802000D03*
X47800000Y-34800000D03*
X41500000Y-20000000D03*
X42846944Y-62086056D03*
X23114000Y-51816000D03*
X47965502Y-61007500D03*
X23876000Y-70739000D03*
X23749000Y-65278000D03*
X38735000Y-86741000D03*
X37900000Y-20000000D03*
X32004000Y-50038000D03*
X42799000Y-56642000D03*
X24400000Y-30700000D03*
X41500000Y-23400000D03*
X38312005Y-58606306D03*
X42063380Y-63981120D03*
X42866498Y-55372000D03*
X23622000Y-73406000D03*
X42237579Y-50011144D03*
X23495000Y-75438000D03*
X42796677Y-59999064D03*
X47800000Y-37500000D03*
X22860000Y-82169000D03*
X30226000Y-83820000D03*
X27432000Y-47879000D03*
X24400000Y-26100000D03*
X40666629Y-62584370D03*
X48260000Y-66040000D03*
X29015502Y-65913000D03*
X24400000Y-28400000D03*
X44577000Y-74676000D03*
X34300000Y-20000000D03*
X30700000Y-20000000D03*
X23876000Y-71842500D03*
X48895000Y-76454000D03*
X34300000Y-23400000D03*
X37900000Y-23400000D03*
X48855500Y-56769000D03*
X23368000Y-39370000D03*
X48768000Y-54610000D03*
X31369000Y-55549060D03*
X32512000Y-66929000D03*
X31767812Y-58594670D03*
X32512000Y-68326000D03*
X26035000Y-32766000D03*
X23368000Y-33782000D03*
X30700000Y-23400000D03*
X29150138Y-72790972D03*
X48895000Y-63119000D03*
X42799000Y-47625000D03*
X27773500Y-53562944D03*
X30226000Y-76200000D03*
X31242000Y-67056000D03*
X28067000Y-43180000D03*
X23876000Y-57531000D03*
X31242000Y-68199000D03*
X34729500Y-64008000D03*
%TO.N,+3.3V*%
X28956000Y-67945000D03*
X49149000Y-74168000D03*
X39751000Y-60833000D03*
X44704000Y-78359000D03*
X48641000Y-59173500D03*
X23368000Y-35306000D03*
X39116000Y-70993000D03*
X39878000Y-71755000D03*
X23622000Y-77089000D03*
X29015502Y-61205962D03*
X23860498Y-67381000D03*
X44450000Y-53838498D03*
X48895000Y-50673000D03*
X47965502Y-62357000D03*
X41021000Y-68834000D03*
X29015502Y-73787000D03*
X39370000Y-69596000D03*
X31369000Y-73787000D03*
X40640000Y-72517000D03*
X47752000Y-29464000D03*
X47965502Y-67945000D03*
X34729500Y-62611000D03*
X41910000Y-72136000D03*
X23368000Y-37846000D03*
X34798000Y-43561000D03*
X33274000Y-43561000D03*
X30099000Y-49022000D03*
X42799000Y-49149000D03*
%TO.N,+3.3VA*%
X39656500Y-57912000D03*
X41910000Y-58928000D03*
%TO.N,/MCU/I2C1_SCL*%
X29591000Y-70104000D03*
X42866413Y-61022688D03*
X33521151Y-50950970D03*
X48514000Y-55626000D03*
%TO.N,/MCU/Radio_DIO1*%
X31382154Y-57148560D03*
%TO.N,/MCU/Radio_DIO0*%
X30988000Y-58039000D03*
%TO.N,/MCU/Radio_TX*%
X32139681Y-57721017D03*
%TO.N,/MCU/Radio_RX*%
X30226000Y-58928000D03*
%TO.N,/MCU/Radio_Reset*%
X41110500Y-60452000D03*
%TO.N,/MCU/Radio_SPI1_SCK*%
X36277596Y-58596949D03*
%TO.N,/MCU/Radio_SPI1_MISO*%
X35323843Y-58599597D03*
%TO.N,/MCU/Radio_SPI1_MOSI*%
X34729500Y-61595000D03*
%TO.N,/MCU/Flash_QUADSPI_CLK*%
X42545000Y-51816000D03*
X37338000Y-58547000D03*
%TO.N,/MCU/USB_D-*%
X33186500Y-84673043D03*
X35941000Y-52451000D03*
%TO.N,/MCU/USB_D+*%
X36957000Y-52423000D03*
X33186500Y-85622546D03*
%TO.N,/MCU/Flash_QUADSPI_BK1_IO1*%
X38100000Y-50038000D03*
X46101000Y-46609000D03*
%TO.N,/MCU/Flash_QUADSPI_BK1_NCS*%
X34798000Y-50038000D03*
X47371000Y-45847000D03*
%TO.N,/MCU/Acc_Int1*%
X22606000Y-69596000D03*
X31242000Y-51308000D03*
%TO.N,/MCU/Gyro_Int3*%
X22987000Y-72517000D03*
X31242000Y-52257503D03*
%TO.N,/MCU/Mag_Data_Ready*%
X38354000Y-53722000D03*
X48006000Y-65024000D03*
%TD*%
%TA.AperFunction,Conductor*%
%TO.N,GND*%
G36*
X49325474Y-18527462D02*
G01*
X49380012Y-18582000D01*
X49399974Y-18656406D01*
X49407914Y-31207889D01*
X49413290Y-39705808D01*
X49413739Y-40416235D01*
X49393824Y-40490747D01*
X49339321Y-40545320D01*
X49264833Y-40565329D01*
X49190321Y-40545414D01*
X49135748Y-40490911D01*
X49119483Y-40447679D01*
X49119194Y-40444728D01*
X49062484Y-40256894D01*
X48970370Y-40083653D01*
X48965767Y-40078010D01*
X48965765Y-40078006D01*
X48850964Y-39937246D01*
X48846361Y-39931602D01*
X48695180Y-39806535D01*
X48522585Y-39713213D01*
X48392202Y-39672853D01*
X48342111Y-39657347D01*
X48342109Y-39657347D01*
X48335152Y-39655193D01*
X48327910Y-39654432D01*
X48327906Y-39654431D01*
X48147260Y-39635444D01*
X48147259Y-39635444D01*
X48140019Y-39634683D01*
X47944618Y-39652466D01*
X47756393Y-39707864D01*
X47582512Y-39798767D01*
X47429600Y-39921711D01*
X47303480Y-40072016D01*
X47208956Y-40243954D01*
X47149628Y-40430978D01*
X47148815Y-40438222D01*
X47148815Y-40438224D01*
X47136792Y-40545414D01*
X47127757Y-40625963D01*
X47144175Y-40821483D01*
X47198258Y-41010091D01*
X47287944Y-41184601D01*
X47409818Y-41338369D01*
X47559238Y-41465535D01*
X47565601Y-41469091D01*
X47724149Y-41557701D01*
X47724155Y-41557704D01*
X47730513Y-41561257D01*
X47917118Y-41621889D01*
X47990397Y-41630627D01*
X48104715Y-41644259D01*
X48104718Y-41644259D01*
X48111946Y-41645121D01*
X48223443Y-41636542D01*
X48300314Y-41630627D01*
X48300316Y-41630627D01*
X48307576Y-41630068D01*
X48453051Y-41589450D01*
X48489533Y-41579264D01*
X48489534Y-41579264D01*
X48496556Y-41577303D01*
X48503062Y-41574016D01*
X48503066Y-41574015D01*
X48665184Y-41492123D01*
X48665185Y-41492123D01*
X48671689Y-41488837D01*
X48826303Y-41368040D01*
X48954509Y-41219511D01*
X49051425Y-41048909D01*
X49113358Y-40862732D01*
X49117189Y-40832406D01*
X49146331Y-40760995D01*
X49207274Y-40713723D01*
X49283689Y-40703256D01*
X49355100Y-40732398D01*
X49402372Y-40793341D01*
X49414014Y-40850987D01*
X49415105Y-42575431D01*
X49419539Y-49585795D01*
X49399624Y-49660307D01*
X49345121Y-49714880D01*
X49270633Y-49734889D01*
X49226479Y-49728226D01*
X49104111Y-49690347D01*
X49104109Y-49690347D01*
X49097152Y-49688193D01*
X49089910Y-49687432D01*
X49089906Y-49687431D01*
X48909260Y-49668444D01*
X48909259Y-49668444D01*
X48902019Y-49667683D01*
X48706618Y-49685466D01*
X48518393Y-49740864D01*
X48344512Y-49831767D01*
X48338838Y-49836329D01*
X48203043Y-49945511D01*
X48191600Y-49954711D01*
X48065480Y-50105016D01*
X47970956Y-50276954D01*
X47911628Y-50463978D01*
X47910815Y-50471222D01*
X47910815Y-50471224D01*
X47893788Y-50623022D01*
X47889757Y-50658963D01*
X47906175Y-50854483D01*
X47908185Y-50861492D01*
X47908185Y-50861493D01*
X47953605Y-51019889D01*
X47960258Y-51043091D01*
X48049944Y-51217601D01*
X48171818Y-51371369D01*
X48321238Y-51498535D01*
X48327601Y-51502091D01*
X48486149Y-51590701D01*
X48486155Y-51590704D01*
X48492513Y-51594257D01*
X48679118Y-51654889D01*
X48752397Y-51663627D01*
X48866715Y-51677259D01*
X48866718Y-51677259D01*
X48873946Y-51678121D01*
X48985443Y-51669542D01*
X49062314Y-51663627D01*
X49062316Y-51663627D01*
X49069576Y-51663068D01*
X49195267Y-51627974D01*
X49231845Y-51617761D01*
X49308969Y-51616953D01*
X49376164Y-51654815D01*
X49415426Y-51721202D01*
X49420915Y-51761178D01*
X49422814Y-54762560D01*
X49402899Y-54837072D01*
X49348396Y-54891645D01*
X49273908Y-54911654D01*
X49199396Y-54891739D01*
X49178841Y-54877463D01*
X49076180Y-54792535D01*
X48903585Y-54699213D01*
X48761301Y-54655169D01*
X48723111Y-54643347D01*
X48723109Y-54643347D01*
X48716152Y-54641193D01*
X48708910Y-54640432D01*
X48708906Y-54640431D01*
X48528260Y-54621444D01*
X48528259Y-54621444D01*
X48521019Y-54620683D01*
X48325618Y-54638466D01*
X48137393Y-54693864D01*
X47963512Y-54784767D01*
X47957838Y-54789329D01*
X47848224Y-54877461D01*
X47810600Y-54907711D01*
X47684480Y-55058016D01*
X47589956Y-55229954D01*
X47530628Y-55416978D01*
X47529815Y-55424222D01*
X47529815Y-55424224D01*
X47514424Y-55561437D01*
X47508757Y-55611963D01*
X47525175Y-55807483D01*
X47579258Y-55996091D01*
X47668944Y-56170601D01*
X47673466Y-56176306D01*
X47783468Y-56315095D01*
X47790818Y-56324369D01*
X47940238Y-56451535D01*
X47946601Y-56455091D01*
X48105149Y-56543701D01*
X48105155Y-56543704D01*
X48111513Y-56547257D01*
X48298118Y-56607889D01*
X48371397Y-56616627D01*
X48485715Y-56630259D01*
X48485718Y-56630259D01*
X48492946Y-56631121D01*
X48604443Y-56622542D01*
X48681314Y-56616627D01*
X48681316Y-56616627D01*
X48688576Y-56616068D01*
X48877556Y-56563303D01*
X48884062Y-56560016D01*
X48884066Y-56560015D01*
X49046184Y-56478123D01*
X49046185Y-56478123D01*
X49052689Y-56474837D01*
X49183177Y-56372889D01*
X49254170Y-56342755D01*
X49330723Y-56352155D01*
X49392321Y-56398571D01*
X49422457Y-56469568D01*
X49423907Y-56490211D01*
X49424239Y-57014282D01*
X49424926Y-58100493D01*
X49424995Y-58210186D01*
X49405080Y-58284698D01*
X49350577Y-58339271D01*
X49276089Y-58359280D01*
X49203294Y-58339824D01*
X49203180Y-58340035D01*
X49202297Y-58339557D01*
X49202295Y-58339556D01*
X49199234Y-58337902D01*
X49199227Y-58337897D01*
X49108001Y-58288572D01*
X49030585Y-58246713D01*
X48870527Y-58197167D01*
X48850111Y-58190847D01*
X48850109Y-58190847D01*
X48843152Y-58188693D01*
X48835910Y-58187932D01*
X48835906Y-58187931D01*
X48655260Y-58168944D01*
X48655259Y-58168944D01*
X48648019Y-58168183D01*
X48452618Y-58185966D01*
X48264393Y-58241364D01*
X48090512Y-58332267D01*
X48084838Y-58336829D01*
X48041526Y-58371653D01*
X47937600Y-58455211D01*
X47811480Y-58605516D01*
X47716956Y-58777454D01*
X47657628Y-58964478D01*
X47656815Y-58971722D01*
X47656815Y-58971724D01*
X47637469Y-59144198D01*
X47635757Y-59159463D01*
X47652175Y-59354983D01*
X47654185Y-59361992D01*
X47654185Y-59361993D01*
X47703580Y-59534252D01*
X47706258Y-59543591D01*
X47795944Y-59718101D01*
X47826847Y-59757091D01*
X47901683Y-59851511D01*
X47917818Y-59871869D01*
X48067238Y-59999035D01*
X48073601Y-60002591D01*
X48232149Y-60091201D01*
X48232155Y-60091204D01*
X48238513Y-60094757D01*
X48245450Y-60097011D01*
X48307766Y-60117259D01*
X48372451Y-60159266D01*
X48407466Y-60227988D01*
X48403429Y-60305010D01*
X48361422Y-60369695D01*
X48355086Y-60375087D01*
X48223426Y-60480944D01*
X48223418Y-60480952D01*
X48217740Y-60485517D01*
X48091620Y-60635822D01*
X47997096Y-60807760D01*
X47937768Y-60994784D01*
X47936955Y-61002028D01*
X47936955Y-61002030D01*
X47931956Y-61046595D01*
X47915897Y-61189769D01*
X47917439Y-61208129D01*
X47903779Y-61284036D01*
X47853995Y-61342945D01*
X47791221Y-61365795D01*
X47791535Y-61367440D01*
X47784375Y-61368806D01*
X47777120Y-61369466D01*
X47770133Y-61371522D01*
X47770130Y-61371523D01*
X47716033Y-61387445D01*
X47588895Y-61424864D01*
X47415014Y-61515767D01*
X47409340Y-61520329D01*
X47300660Y-61607710D01*
X47262102Y-61638711D01*
X47135982Y-61789016D01*
X47041458Y-61960954D01*
X46982130Y-62147978D01*
X46981317Y-62155222D01*
X46981317Y-62155224D01*
X46973838Y-62221902D01*
X46960259Y-62342963D01*
X46976677Y-62538483D01*
X46978687Y-62545492D01*
X46978687Y-62545493D01*
X47004326Y-62634907D01*
X47030760Y-62727091D01*
X47120446Y-62901601D01*
X47188585Y-62987572D01*
X47227943Y-63037229D01*
X47242320Y-63055369D01*
X47391740Y-63182535D01*
X47408601Y-63191958D01*
X47556651Y-63274701D01*
X47556657Y-63274704D01*
X47563015Y-63278257D01*
X47749620Y-63338889D01*
X47822899Y-63347627D01*
X47937217Y-63361259D01*
X47937220Y-63361259D01*
X47944448Y-63362121D01*
X48055945Y-63353542D01*
X48132816Y-63347627D01*
X48132818Y-63347627D01*
X48140078Y-63347068D01*
X48258183Y-63314092D01*
X48322035Y-63296264D01*
X48322036Y-63296264D01*
X48329058Y-63294303D01*
X48335564Y-63291016D01*
X48335568Y-63291015D01*
X48497686Y-63209123D01*
X48497687Y-63209123D01*
X48504191Y-63205837D01*
X48658805Y-63085040D01*
X48787011Y-62936511D01*
X48883927Y-62765909D01*
X48945860Y-62579732D01*
X48970451Y-62385071D01*
X48970843Y-62357000D01*
X48970436Y-62352851D01*
X48970262Y-62348694D01*
X48971672Y-62348635D01*
X48983237Y-62278799D01*
X49032196Y-62219202D01*
X49091720Y-62194181D01*
X49095716Y-62193874D01*
X49102731Y-62191915D01*
X49102733Y-62191915D01*
X49139756Y-62181578D01*
X49238512Y-62154004D01*
X49315634Y-62153196D01*
X49382829Y-62191058D01*
X49422091Y-62257445D01*
X49427580Y-62297421D01*
X49434367Y-73026363D01*
X49414452Y-73100875D01*
X49359949Y-73155448D01*
X49285461Y-73175457D01*
X49269792Y-73174641D01*
X49163260Y-73163444D01*
X49163259Y-73163444D01*
X49156019Y-73162683D01*
X48960618Y-73180466D01*
X48772393Y-73235864D01*
X48598512Y-73326767D01*
X48592838Y-73331329D01*
X48457043Y-73440511D01*
X48445600Y-73449711D01*
X48319480Y-73600016D01*
X48224956Y-73771954D01*
X48165628Y-73958978D01*
X48164815Y-73966222D01*
X48164815Y-73966224D01*
X48160746Y-74002499D01*
X48143757Y-74153963D01*
X48160175Y-74349483D01*
X48214258Y-74538091D01*
X48303944Y-74712601D01*
X48425818Y-74866369D01*
X48575238Y-74993535D01*
X48581601Y-74997091D01*
X48740149Y-75085701D01*
X48740155Y-75085704D01*
X48746513Y-75089257D01*
X48933118Y-75149889D01*
X49032805Y-75161776D01*
X49120715Y-75172259D01*
X49120718Y-75172259D01*
X49127946Y-75173121D01*
X49275382Y-75161776D01*
X49351192Y-75175964D01*
X49409754Y-75226157D01*
X49435373Y-75298905D01*
X49435812Y-75310243D01*
X49437201Y-77504243D01*
X49437223Y-77539718D01*
X49417308Y-77614230D01*
X49361272Y-77669677D01*
X48646472Y-78071752D01*
X47750736Y-78575603D01*
X47734711Y-78583394D01*
X47712184Y-78592725D01*
X47712180Y-78592727D01*
X47703159Y-78596464D01*
X47695412Y-78602408D01*
X47695411Y-78602409D01*
X47643756Y-78642046D01*
X47642556Y-78642957D01*
X47582546Y-78687944D01*
X47580433Y-78690635D01*
X47577718Y-78692718D01*
X47572399Y-78699650D01*
X47572397Y-78699652D01*
X47532127Y-78752134D01*
X47531109Y-78753446D01*
X47484892Y-78812298D01*
X47483547Y-78815444D01*
X47481464Y-78818159D01*
X47478125Y-78826221D01*
X47452827Y-78887296D01*
X47452179Y-78888837D01*
X47433653Y-78932182D01*
X47422750Y-78957690D01*
X47422265Y-78961077D01*
X47420956Y-78964238D01*
X47419818Y-78972885D01*
X47419817Y-78972887D01*
X47411186Y-79038449D01*
X47410973Y-79040002D01*
X47400356Y-79114211D01*
X47401522Y-79123906D01*
X47401522Y-79123910D01*
X47404434Y-79148118D01*
X47405500Y-79165910D01*
X47405500Y-85698398D01*
X47405125Y-85708961D01*
X47401406Y-85761290D01*
X47403258Y-85770875D01*
X47403258Y-85770878D01*
X47412142Y-85816865D01*
X47413572Y-85825677D01*
X47416153Y-85845278D01*
X47420956Y-85881762D01*
X47424694Y-85890787D01*
X47426881Y-85898948D01*
X47429546Y-85906942D01*
X47431399Y-85916534D01*
X47456163Y-85967454D01*
X47459801Y-85975541D01*
X47481464Y-86027841D01*
X47487412Y-86035592D01*
X47491636Y-86042909D01*
X47496280Y-86049943D01*
X47500551Y-86058725D01*
X47506946Y-86066099D01*
X47506951Y-86066106D01*
X47537630Y-86101479D01*
X47543276Y-86108397D01*
X47577718Y-86153282D01*
X47585469Y-86159229D01*
X47591431Y-86165191D01*
X47597746Y-86170791D01*
X47604148Y-86178173D01*
X47630111Y-86195728D01*
X47651023Y-86209868D01*
X47658265Y-86215088D01*
X47703159Y-86249536D01*
X47712183Y-86253274D01*
X47712185Y-86253275D01*
X47751622Y-86269610D01*
X47761227Y-86273993D01*
X48577080Y-86681919D01*
X49355135Y-87070947D01*
X49412842Y-87122120D01*
X49437232Y-87195290D01*
X49437500Y-87204217D01*
X49437500Y-93230500D01*
X49417538Y-93305000D01*
X49363000Y-93359538D01*
X49288500Y-93379500D01*
X41357216Y-93379500D01*
X41282716Y-93359538D01*
X41228178Y-93305000D01*
X41223946Y-93297134D01*
X41189001Y-93227243D01*
X41184613Y-93217629D01*
X41168274Y-93178183D01*
X41168274Y-93178182D01*
X41164536Y-93169159D01*
X41130088Y-93124265D01*
X41124868Y-93117023D01*
X41098645Y-93078241D01*
X41093173Y-93070148D01*
X41085791Y-93063746D01*
X41080191Y-93057431D01*
X41074229Y-93051469D01*
X41068282Y-93043718D01*
X41023397Y-93009276D01*
X41016479Y-93003630D01*
X40981106Y-92972951D01*
X40981099Y-92972946D01*
X40973725Y-92966551D01*
X40964943Y-92962280D01*
X40957909Y-92957636D01*
X40950592Y-92953412D01*
X40942841Y-92947464D01*
X40890541Y-92925801D01*
X40882454Y-92922163D01*
X40831534Y-92897399D01*
X40821942Y-92895546D01*
X40813948Y-92892881D01*
X40805787Y-92890694D01*
X40796762Y-92886956D01*
X40787079Y-92885681D01*
X40787078Y-92885681D01*
X40740677Y-92879572D01*
X40731865Y-92878142D01*
X40685878Y-92869258D01*
X40685875Y-92869258D01*
X40676290Y-92867406D01*
X40666553Y-92868098D01*
X40666552Y-92868098D01*
X40623961Y-92871125D01*
X40613398Y-92871500D01*
X31903602Y-92871500D01*
X31893039Y-92871125D01*
X31850448Y-92868098D01*
X31850447Y-92868098D01*
X31840710Y-92867406D01*
X31831126Y-92869258D01*
X31831121Y-92869258D01*
X31785145Y-92878141D01*
X31776332Y-92879571D01*
X31759092Y-92881841D01*
X31729920Y-92885681D01*
X31729918Y-92885682D01*
X31720238Y-92886956D01*
X31711221Y-92890691D01*
X31703070Y-92892875D01*
X31695053Y-92895548D01*
X31685466Y-92897400D01*
X31634575Y-92922150D01*
X31626436Y-92925810D01*
X31574159Y-92947464D01*
X31566408Y-92953411D01*
X31559096Y-92957633D01*
X31552058Y-92962280D01*
X31543275Y-92966551D01*
X31535898Y-92972949D01*
X31535895Y-92972951D01*
X31500521Y-93003630D01*
X31493603Y-93009276D01*
X31448718Y-93043718D01*
X31442771Y-93051469D01*
X31436809Y-93057431D01*
X31431209Y-93063746D01*
X31423827Y-93070148D01*
X31418355Y-93078241D01*
X31392132Y-93117023D01*
X31386912Y-93124265D01*
X31352464Y-93169159D01*
X31348726Y-93178182D01*
X31348726Y-93178183D01*
X31332387Y-93217629D01*
X31327999Y-93227243D01*
X31293054Y-93297134D01*
X31241882Y-93354842D01*
X31168712Y-93379232D01*
X31159784Y-93379500D01*
X22846250Y-93379500D01*
X22771750Y-93359538D01*
X22717212Y-93305000D01*
X22697250Y-93230749D01*
X22695702Y-92303337D01*
X24215736Y-92303337D01*
X24221748Y-92313751D01*
X24242298Y-92331773D01*
X24250019Y-92337697D01*
X24493473Y-92500368D01*
X24501895Y-92505230D01*
X24764503Y-92634734D01*
X24773480Y-92638453D01*
X25050755Y-92732575D01*
X25060143Y-92735091D01*
X25347317Y-92792213D01*
X25356963Y-92793483D01*
X25649133Y-92812633D01*
X25658867Y-92812633D01*
X25951037Y-92793483D01*
X25960683Y-92792213D01*
X26247857Y-92735091D01*
X26257245Y-92732575D01*
X26534520Y-92638453D01*
X26543497Y-92634734D01*
X26806105Y-92505230D01*
X26814527Y-92500368D01*
X27057981Y-92337697D01*
X27065702Y-92331773D01*
X27083379Y-92316270D01*
X27092021Y-92303337D01*
X45043736Y-92303337D01*
X45049748Y-92313751D01*
X45070298Y-92331773D01*
X45078019Y-92337697D01*
X45321473Y-92500368D01*
X45329895Y-92505230D01*
X45592503Y-92634734D01*
X45601480Y-92638453D01*
X45878755Y-92732575D01*
X45888143Y-92735091D01*
X46175317Y-92792213D01*
X46184963Y-92793483D01*
X46477133Y-92812633D01*
X46486867Y-92812633D01*
X46779037Y-92793483D01*
X46788683Y-92792213D01*
X47075857Y-92735091D01*
X47085245Y-92732575D01*
X47362520Y-92638453D01*
X47371497Y-92634734D01*
X47634105Y-92505230D01*
X47642527Y-92500368D01*
X47885981Y-92337697D01*
X47893702Y-92331773D01*
X47911379Y-92316270D01*
X47920277Y-92302954D01*
X47914959Y-92292169D01*
X46495871Y-90873081D01*
X46482000Y-90865073D01*
X46468129Y-90873081D01*
X45051744Y-92289466D01*
X45043736Y-92303337D01*
X27092021Y-92303337D01*
X27092277Y-92302954D01*
X27086959Y-92292169D01*
X25667871Y-90873081D01*
X25654000Y-90865073D01*
X25640129Y-90873081D01*
X24223744Y-92289466D01*
X24215736Y-92303337D01*
X22695702Y-92303337D01*
X22692699Y-90504867D01*
X23341367Y-90504867D01*
X23360517Y-90797037D01*
X23361787Y-90806683D01*
X23418909Y-91093857D01*
X23421425Y-91103245D01*
X23515547Y-91380520D01*
X23519266Y-91389497D01*
X23648770Y-91652105D01*
X23653632Y-91660527D01*
X23816303Y-91903981D01*
X23822227Y-91911702D01*
X23837730Y-91929379D01*
X23851046Y-91938277D01*
X23861831Y-91932959D01*
X25280919Y-90513871D01*
X25288927Y-90500000D01*
X26019073Y-90500000D01*
X26027081Y-90513871D01*
X27443466Y-91930256D01*
X27457337Y-91938264D01*
X27467751Y-91932252D01*
X27485773Y-91911702D01*
X27491697Y-91903981D01*
X27654368Y-91660527D01*
X27659230Y-91652105D01*
X27786173Y-91394690D01*
X31839000Y-91394690D01*
X31839408Y-91402471D01*
X31853133Y-91533062D01*
X31856362Y-91548249D01*
X31910518Y-91714924D01*
X31916835Y-91729112D01*
X32004464Y-91880891D01*
X32013588Y-91893448D01*
X32130858Y-92023691D01*
X32142396Y-92034081D01*
X32284183Y-92137094D01*
X32297633Y-92144859D01*
X32457730Y-92216139D01*
X32472507Y-92220941D01*
X32473813Y-92221219D01*
X32489807Y-92220380D01*
X32493000Y-92214115D01*
X32493000Y-92205681D01*
X33001000Y-92205681D01*
X33005145Y-92221152D01*
X33011939Y-92222972D01*
X33021493Y-92220941D01*
X33036270Y-92216139D01*
X33196367Y-92144859D01*
X33209817Y-92137094D01*
X33351604Y-92034081D01*
X33363142Y-92023691D01*
X33480412Y-91893448D01*
X33489536Y-91880891D01*
X33577165Y-91729112D01*
X33583482Y-91714924D01*
X33637638Y-91548249D01*
X33640867Y-91533062D01*
X33654592Y-91402471D01*
X33655000Y-91394690D01*
X38839000Y-91394690D01*
X38839408Y-91402471D01*
X38853133Y-91533062D01*
X38856362Y-91548249D01*
X38910518Y-91714924D01*
X38916835Y-91729112D01*
X39004464Y-91880891D01*
X39013588Y-91893448D01*
X39130858Y-92023691D01*
X39142396Y-92034081D01*
X39284183Y-92137094D01*
X39297633Y-92144859D01*
X39457730Y-92216139D01*
X39472507Y-92220941D01*
X39473813Y-92221219D01*
X39489807Y-92220380D01*
X39493000Y-92214115D01*
X39493000Y-92205681D01*
X40001000Y-92205681D01*
X40005145Y-92221152D01*
X40011939Y-92222972D01*
X40021493Y-92220941D01*
X40036270Y-92216139D01*
X40196367Y-92144859D01*
X40209817Y-92137094D01*
X40351604Y-92034081D01*
X40363142Y-92023691D01*
X40480412Y-91893448D01*
X40489536Y-91880891D01*
X40577165Y-91729112D01*
X40583482Y-91714924D01*
X40637638Y-91548249D01*
X40640867Y-91533062D01*
X40654592Y-91402471D01*
X40655000Y-91394690D01*
X40655000Y-91224616D01*
X40650855Y-91209145D01*
X40635384Y-91205000D01*
X40020616Y-91205000D01*
X40005145Y-91209145D01*
X40001000Y-91224616D01*
X40001000Y-92205681D01*
X39493000Y-92205681D01*
X39493000Y-91224616D01*
X39488855Y-91209145D01*
X39473384Y-91205000D01*
X38858616Y-91205000D01*
X38843145Y-91209145D01*
X38839000Y-91224616D01*
X38839000Y-91394690D01*
X33655000Y-91394690D01*
X33655000Y-91224616D01*
X33650855Y-91209145D01*
X33635384Y-91205000D01*
X33020616Y-91205000D01*
X33005145Y-91209145D01*
X33001000Y-91224616D01*
X33001000Y-92205681D01*
X32493000Y-92205681D01*
X32493000Y-91224616D01*
X32488855Y-91209145D01*
X32473384Y-91205000D01*
X31858616Y-91205000D01*
X31843145Y-91209145D01*
X31839000Y-91224616D01*
X31839000Y-91394690D01*
X27786173Y-91394690D01*
X27788734Y-91389497D01*
X27792453Y-91380520D01*
X27886575Y-91103245D01*
X27889091Y-91093857D01*
X27946213Y-90806683D01*
X27947483Y-90797037D01*
X27955326Y-90677384D01*
X31839000Y-90677384D01*
X31843145Y-90692855D01*
X31858616Y-90697000D01*
X32473384Y-90697000D01*
X32488855Y-90692855D01*
X32493000Y-90677384D01*
X33001000Y-90677384D01*
X33005145Y-90692855D01*
X33020616Y-90697000D01*
X33635384Y-90697000D01*
X33650855Y-90692855D01*
X33655000Y-90677384D01*
X38839000Y-90677384D01*
X38843145Y-90692855D01*
X38858616Y-90697000D01*
X39473384Y-90697000D01*
X39488855Y-90692855D01*
X39493000Y-90677384D01*
X40001000Y-90677384D01*
X40005145Y-90692855D01*
X40020616Y-90697000D01*
X40635384Y-90697000D01*
X40650855Y-90692855D01*
X40655000Y-90677384D01*
X40655000Y-90507310D01*
X40654872Y-90504867D01*
X44169367Y-90504867D01*
X44188517Y-90797037D01*
X44189787Y-90806683D01*
X44246909Y-91093857D01*
X44249425Y-91103245D01*
X44343547Y-91380520D01*
X44347266Y-91389497D01*
X44476770Y-91652105D01*
X44481632Y-91660527D01*
X44644303Y-91903981D01*
X44650227Y-91911702D01*
X44665730Y-91929379D01*
X44679046Y-91938277D01*
X44689831Y-91932959D01*
X46108919Y-90513871D01*
X46116927Y-90500000D01*
X46847073Y-90500000D01*
X46855081Y-90513871D01*
X48271466Y-91930256D01*
X48285337Y-91938264D01*
X48295751Y-91932252D01*
X48313773Y-91911702D01*
X48319697Y-91903981D01*
X48482368Y-91660527D01*
X48487230Y-91652105D01*
X48616734Y-91389497D01*
X48620453Y-91380520D01*
X48714575Y-91103245D01*
X48717091Y-91093857D01*
X48774213Y-90806683D01*
X48775483Y-90797037D01*
X48794633Y-90504867D01*
X48794633Y-90495133D01*
X48775483Y-90202963D01*
X48774213Y-90193317D01*
X48717091Y-89906143D01*
X48714575Y-89896755D01*
X48620453Y-89619480D01*
X48616734Y-89610503D01*
X48487230Y-89347895D01*
X48482368Y-89339473D01*
X48319697Y-89096019D01*
X48313773Y-89088298D01*
X48298270Y-89070621D01*
X48284954Y-89061723D01*
X48274169Y-89067041D01*
X46855081Y-90486129D01*
X46847073Y-90500000D01*
X46116927Y-90500000D01*
X46108919Y-90486129D01*
X44692534Y-89069744D01*
X44678663Y-89061736D01*
X44668249Y-89067748D01*
X44650227Y-89088298D01*
X44644303Y-89096019D01*
X44481632Y-89339473D01*
X44476770Y-89347895D01*
X44347266Y-89610503D01*
X44343547Y-89619480D01*
X44249425Y-89896755D01*
X44246909Y-89906143D01*
X44189787Y-90193317D01*
X44188517Y-90202963D01*
X44169367Y-90495133D01*
X44169367Y-90504867D01*
X40654872Y-90504867D01*
X40654592Y-90499529D01*
X40640867Y-90368938D01*
X40637638Y-90353751D01*
X40583482Y-90187076D01*
X40577165Y-90172888D01*
X40489536Y-90021109D01*
X40480412Y-90008552D01*
X40363142Y-89878309D01*
X40351604Y-89867919D01*
X40209817Y-89764906D01*
X40196367Y-89757141D01*
X40036270Y-89685861D01*
X40021493Y-89681059D01*
X40020187Y-89680781D01*
X40004193Y-89681620D01*
X40001000Y-89687885D01*
X40001000Y-90677384D01*
X39493000Y-90677384D01*
X39493000Y-89696319D01*
X39488855Y-89680848D01*
X39482061Y-89679028D01*
X39472507Y-89681059D01*
X39457730Y-89685861D01*
X39297633Y-89757141D01*
X39284183Y-89764906D01*
X39142396Y-89867919D01*
X39130858Y-89878309D01*
X39013588Y-90008552D01*
X39004464Y-90021109D01*
X38916835Y-90172888D01*
X38910518Y-90187076D01*
X38856362Y-90353751D01*
X38853133Y-90368938D01*
X38839408Y-90499529D01*
X38839000Y-90507310D01*
X38839000Y-90677384D01*
X33655000Y-90677384D01*
X33655000Y-90507310D01*
X33654592Y-90499529D01*
X33640867Y-90368938D01*
X33637638Y-90353751D01*
X33583482Y-90187076D01*
X33577165Y-90172888D01*
X33489536Y-90021109D01*
X33480412Y-90008552D01*
X33363142Y-89878309D01*
X33351604Y-89867919D01*
X33209817Y-89764906D01*
X33196367Y-89757141D01*
X33036270Y-89685861D01*
X33021493Y-89681059D01*
X33020187Y-89680781D01*
X33004193Y-89681620D01*
X33001000Y-89687885D01*
X33001000Y-90677384D01*
X32493000Y-90677384D01*
X32493000Y-89696319D01*
X32488855Y-89680848D01*
X32482061Y-89679028D01*
X32472507Y-89681059D01*
X32457730Y-89685861D01*
X32297633Y-89757141D01*
X32284183Y-89764906D01*
X32142396Y-89867919D01*
X32130858Y-89878309D01*
X32013588Y-90008552D01*
X32004464Y-90021109D01*
X31916835Y-90172888D01*
X31910518Y-90187076D01*
X31856362Y-90353751D01*
X31853133Y-90368938D01*
X31839408Y-90499529D01*
X31839000Y-90507310D01*
X31839000Y-90677384D01*
X27955326Y-90677384D01*
X27966633Y-90504867D01*
X27966633Y-90495133D01*
X27947483Y-90202963D01*
X27946213Y-90193317D01*
X27889091Y-89906143D01*
X27886575Y-89896755D01*
X27792453Y-89619480D01*
X27788734Y-89610503D01*
X27659230Y-89347895D01*
X27654368Y-89339473D01*
X27617468Y-89284248D01*
X33078825Y-89284248D01*
X33082803Y-89291139D01*
X33122815Y-89319156D01*
X33134043Y-89325638D01*
X33317785Y-89411319D01*
X33329959Y-89415750D01*
X33525795Y-89468224D01*
X33538550Y-89470473D01*
X33740519Y-89488143D01*
X33753481Y-89488143D01*
X33955450Y-89470473D01*
X33968205Y-89468224D01*
X34164041Y-89415750D01*
X34176215Y-89411319D01*
X34359957Y-89325638D01*
X34371185Y-89319156D01*
X34404969Y-89295500D01*
X34414410Y-89284248D01*
X38078825Y-89284248D01*
X38082803Y-89291139D01*
X38122815Y-89319156D01*
X38134043Y-89325638D01*
X38317785Y-89411319D01*
X38329959Y-89415750D01*
X38525795Y-89468224D01*
X38538550Y-89470473D01*
X38740519Y-89488143D01*
X38753481Y-89488143D01*
X38955450Y-89470473D01*
X38968205Y-89468224D01*
X39164041Y-89415750D01*
X39176215Y-89411319D01*
X39359957Y-89325638D01*
X39371185Y-89319156D01*
X39404969Y-89295500D01*
X39415264Y-89283230D01*
X39412543Y-89275753D01*
X38760871Y-88624081D01*
X38747000Y-88616073D01*
X38733129Y-88624081D01*
X38086833Y-89270377D01*
X38078825Y-89284248D01*
X34414410Y-89284248D01*
X34415264Y-89283230D01*
X34412543Y-89275753D01*
X33760871Y-88624081D01*
X33747000Y-88616073D01*
X33733129Y-88624081D01*
X33086833Y-89270377D01*
X33078825Y-89284248D01*
X27617468Y-89284248D01*
X27491697Y-89096019D01*
X27485773Y-89088298D01*
X27470270Y-89070621D01*
X27456954Y-89061723D01*
X27446169Y-89067041D01*
X26027081Y-90486129D01*
X26019073Y-90500000D01*
X25288927Y-90500000D01*
X25280919Y-90486129D01*
X23864534Y-89069744D01*
X23850663Y-89061736D01*
X23840249Y-89067748D01*
X23822227Y-89088298D01*
X23816303Y-89096019D01*
X23653632Y-89339473D01*
X23648770Y-89347895D01*
X23519266Y-89610503D01*
X23515547Y-89619480D01*
X23421425Y-89896755D01*
X23418909Y-89906143D01*
X23361787Y-90193317D01*
X23360517Y-90202963D01*
X23341367Y-90495133D01*
X23341367Y-90504867D01*
X22692699Y-90504867D01*
X22689681Y-88697046D01*
X24215723Y-88697046D01*
X24221041Y-88707831D01*
X25640129Y-90126919D01*
X25654000Y-90134927D01*
X25667871Y-90126919D01*
X27084256Y-88710534D01*
X27092264Y-88696663D01*
X27086252Y-88686249D01*
X27065702Y-88668227D01*
X27057981Y-88662303D01*
X26814527Y-88499632D01*
X26806105Y-88494770D01*
X26543497Y-88365266D01*
X26534520Y-88361547D01*
X26257245Y-88267425D01*
X26247857Y-88264909D01*
X26210514Y-88257481D01*
X32509857Y-88257481D01*
X32527527Y-88459450D01*
X32529776Y-88472205D01*
X32582250Y-88668041D01*
X32586681Y-88680215D01*
X32672362Y-88863957D01*
X32678844Y-88875185D01*
X32702500Y-88908969D01*
X32714770Y-88919264D01*
X32722247Y-88916543D01*
X33373919Y-88264871D01*
X33381927Y-88251000D01*
X34112073Y-88251000D01*
X34120081Y-88264871D01*
X34766377Y-88911167D01*
X34780248Y-88919175D01*
X34787139Y-88915197D01*
X34815156Y-88875185D01*
X34821638Y-88863957D01*
X34907319Y-88680215D01*
X34911750Y-88668041D01*
X34964224Y-88472205D01*
X34966473Y-88459450D01*
X34984143Y-88257481D01*
X37509857Y-88257481D01*
X37527527Y-88459450D01*
X37529776Y-88472205D01*
X37582250Y-88668041D01*
X37586681Y-88680215D01*
X37672362Y-88863957D01*
X37678844Y-88875185D01*
X37702500Y-88908969D01*
X37714770Y-88919264D01*
X37722247Y-88916543D01*
X38373919Y-88264871D01*
X38381927Y-88251000D01*
X39112073Y-88251000D01*
X39120081Y-88264871D01*
X39766377Y-88911167D01*
X39780248Y-88919175D01*
X39787139Y-88915197D01*
X39815156Y-88875185D01*
X39821638Y-88863957D01*
X39899471Y-88697046D01*
X45043723Y-88697046D01*
X45049041Y-88707831D01*
X46468129Y-90126919D01*
X46482000Y-90134927D01*
X46495871Y-90126919D01*
X47912256Y-88710534D01*
X47920264Y-88696663D01*
X47914252Y-88686249D01*
X47893702Y-88668227D01*
X47885981Y-88662303D01*
X47642527Y-88499632D01*
X47634105Y-88494770D01*
X47371497Y-88365266D01*
X47362520Y-88361547D01*
X47085245Y-88267425D01*
X47075857Y-88264909D01*
X46788683Y-88207787D01*
X46779037Y-88206517D01*
X46486867Y-88187367D01*
X46477133Y-88187367D01*
X46184963Y-88206517D01*
X46175317Y-88207787D01*
X45888143Y-88264909D01*
X45878755Y-88267425D01*
X45601480Y-88361547D01*
X45592503Y-88365266D01*
X45329895Y-88494770D01*
X45321473Y-88499632D01*
X45078019Y-88662303D01*
X45070298Y-88668227D01*
X45052621Y-88683730D01*
X45043723Y-88697046D01*
X39899471Y-88697046D01*
X39907319Y-88680215D01*
X39911750Y-88668041D01*
X39964224Y-88472205D01*
X39966473Y-88459450D01*
X39984143Y-88257481D01*
X39984143Y-88244519D01*
X39966473Y-88042550D01*
X39964224Y-88029795D01*
X39911750Y-87833959D01*
X39907319Y-87821785D01*
X39821638Y-87638043D01*
X39815156Y-87626815D01*
X39791500Y-87593031D01*
X39779230Y-87582736D01*
X39771753Y-87585457D01*
X39120081Y-88237129D01*
X39112073Y-88251000D01*
X38381927Y-88251000D01*
X38373919Y-88237129D01*
X37727623Y-87590833D01*
X37713752Y-87582825D01*
X37706861Y-87586803D01*
X37678844Y-87626815D01*
X37672362Y-87638043D01*
X37586681Y-87821785D01*
X37582250Y-87833959D01*
X37529776Y-88029795D01*
X37527527Y-88042550D01*
X37509857Y-88244519D01*
X37509857Y-88257481D01*
X34984143Y-88257481D01*
X34984143Y-88244519D01*
X34966473Y-88042550D01*
X34964224Y-88029795D01*
X34911750Y-87833959D01*
X34907319Y-87821785D01*
X34821638Y-87638043D01*
X34815156Y-87626815D01*
X34791500Y-87593031D01*
X34779230Y-87582736D01*
X34771753Y-87585457D01*
X34120081Y-88237129D01*
X34112073Y-88251000D01*
X33381927Y-88251000D01*
X33373919Y-88237129D01*
X32727623Y-87590833D01*
X32713752Y-87582825D01*
X32706861Y-87586803D01*
X32678844Y-87626815D01*
X32672362Y-87638043D01*
X32586681Y-87821785D01*
X32582250Y-87833959D01*
X32529776Y-88029795D01*
X32527527Y-88042550D01*
X32509857Y-88244519D01*
X32509857Y-88257481D01*
X26210514Y-88257481D01*
X25960683Y-88207787D01*
X25951037Y-88206517D01*
X25658867Y-88187367D01*
X25649133Y-88187367D01*
X25356963Y-88206517D01*
X25347317Y-88207787D01*
X25060143Y-88264909D01*
X25050755Y-88267425D01*
X24773480Y-88361547D01*
X24764503Y-88365266D01*
X24501895Y-88494770D01*
X24493473Y-88499632D01*
X24250019Y-88662303D01*
X24242298Y-88668227D01*
X24224621Y-88683730D01*
X24215723Y-88697046D01*
X22689681Y-88697046D01*
X22687213Y-87218770D01*
X33078736Y-87218770D01*
X33081457Y-87226247D01*
X33733129Y-87877919D01*
X33747000Y-87885927D01*
X33760871Y-87877919D01*
X34407167Y-87231623D01*
X34414587Y-87218770D01*
X38078736Y-87218770D01*
X38081457Y-87226247D01*
X38733129Y-87877919D01*
X38747000Y-87885927D01*
X38760871Y-87877919D01*
X39407167Y-87231623D01*
X39415175Y-87217752D01*
X39411197Y-87210861D01*
X39371185Y-87182844D01*
X39359957Y-87176362D01*
X39176215Y-87090681D01*
X39164041Y-87086250D01*
X38968205Y-87033776D01*
X38955450Y-87031527D01*
X38753481Y-87013857D01*
X38740519Y-87013857D01*
X38538550Y-87031527D01*
X38525795Y-87033776D01*
X38329959Y-87086250D01*
X38317785Y-87090681D01*
X38134043Y-87176362D01*
X38122815Y-87182844D01*
X38089031Y-87206500D01*
X38078736Y-87218770D01*
X34414587Y-87218770D01*
X34415175Y-87217752D01*
X34411197Y-87210861D01*
X34371185Y-87182844D01*
X34359957Y-87176362D01*
X34176215Y-87090681D01*
X34164041Y-87086250D01*
X33968205Y-87033776D01*
X33955450Y-87031527D01*
X33753481Y-87013857D01*
X33740519Y-87013857D01*
X33538550Y-87031527D01*
X33525795Y-87033776D01*
X33329959Y-87086250D01*
X33317785Y-87090681D01*
X33134043Y-87176362D01*
X33122815Y-87182844D01*
X33089031Y-87206500D01*
X33078736Y-87218770D01*
X22687213Y-87218770D01*
X22684525Y-85608509D01*
X32181257Y-85608509D01*
X32197675Y-85804029D01*
X32199685Y-85811038D01*
X32199685Y-85811039D01*
X32245681Y-85971445D01*
X32251758Y-85992637D01*
X32341444Y-86167147D01*
X32463318Y-86320915D01*
X32612738Y-86448081D01*
X32619101Y-86451637D01*
X32777649Y-86540247D01*
X32777655Y-86540250D01*
X32784013Y-86543803D01*
X32970618Y-86604435D01*
X33043897Y-86613173D01*
X33158215Y-86626805D01*
X33158218Y-86626805D01*
X33165446Y-86627667D01*
X33276943Y-86619088D01*
X33353814Y-86613173D01*
X33353816Y-86613173D01*
X33361076Y-86612614D01*
X33550056Y-86559849D01*
X33556562Y-86556562D01*
X33556566Y-86556561D01*
X33718684Y-86474669D01*
X33718685Y-86474669D01*
X33725189Y-86471383D01*
X33879803Y-86350586D01*
X34008009Y-86202057D01*
X34085240Y-86066106D01*
X34101327Y-86037789D01*
X34101328Y-86037787D01*
X34104925Y-86031455D01*
X34166858Y-85845278D01*
X34170448Y-85816865D01*
X34178698Y-85751552D01*
X34191449Y-85650617D01*
X34191841Y-85622546D01*
X34172694Y-85427274D01*
X34115984Y-85239440D01*
X34105496Y-85219715D01*
X34088146Y-85144564D01*
X34100937Y-85089159D01*
X34101322Y-85088295D01*
X34104925Y-85081952D01*
X34166858Y-84895775D01*
X34191449Y-84701114D01*
X34191841Y-84673043D01*
X34172694Y-84477771D01*
X34115984Y-84289937D01*
X34023870Y-84116696D01*
X34019267Y-84111053D01*
X34019265Y-84111049D01*
X33904464Y-83970289D01*
X33899861Y-83964645D01*
X33877931Y-83946503D01*
X39601001Y-83946503D01*
X39601400Y-83954204D01*
X39611127Y-84047953D01*
X39614547Y-84063793D01*
X39665168Y-84215524D01*
X39672461Y-84231093D01*
X39756359Y-84366669D01*
X39767048Y-84380156D01*
X39879883Y-84492795D01*
X39893377Y-84503452D01*
X40029105Y-84587115D01*
X40044693Y-84594384D01*
X40196518Y-84644743D01*
X40212333Y-84648133D01*
X40304849Y-84657612D01*
X40312444Y-84658000D01*
X40710384Y-84658000D01*
X40725855Y-84653855D01*
X40730000Y-84638384D01*
X40730000Y-84638383D01*
X41238000Y-84638383D01*
X41242145Y-84653854D01*
X41257616Y-84657999D01*
X41655503Y-84657999D01*
X41663204Y-84657600D01*
X41756953Y-84647873D01*
X41772793Y-84644453D01*
X41924524Y-84593832D01*
X41940093Y-84586539D01*
X42075669Y-84502641D01*
X42089156Y-84491952D01*
X42201795Y-84379117D01*
X42212452Y-84365623D01*
X42296115Y-84229895D01*
X42303384Y-84214307D01*
X42353743Y-84062482D01*
X42357133Y-84046667D01*
X42366612Y-83954151D01*
X42367000Y-83946556D01*
X42367000Y-83823616D01*
X42362855Y-83808145D01*
X42347384Y-83804000D01*
X41257616Y-83804000D01*
X41242145Y-83808145D01*
X41238000Y-83823616D01*
X41238000Y-84638383D01*
X40730000Y-84638383D01*
X40730000Y-83823616D01*
X40725855Y-83808145D01*
X40710384Y-83804000D01*
X39620617Y-83804000D01*
X39605146Y-83808145D01*
X39601001Y-83823616D01*
X39601001Y-83946503D01*
X33877931Y-83946503D01*
X33748680Y-83839578D01*
X33576085Y-83746256D01*
X33445702Y-83705896D01*
X33395611Y-83690390D01*
X33395609Y-83690390D01*
X33388652Y-83688236D01*
X33381410Y-83687475D01*
X33381406Y-83687474D01*
X33200760Y-83668487D01*
X33200759Y-83668487D01*
X33193519Y-83667726D01*
X32998118Y-83685509D01*
X32809893Y-83740907D01*
X32636012Y-83831810D01*
X32483100Y-83954754D01*
X32356980Y-84105059D01*
X32262456Y-84276997D01*
X32203128Y-84464021D01*
X32202315Y-84471265D01*
X32202315Y-84471267D01*
X32182069Y-84651765D01*
X32181257Y-84659006D01*
X32197675Y-84854526D01*
X32251758Y-85043134D01*
X32269419Y-85077499D01*
X32285718Y-85152884D01*
X32268617Y-85213320D01*
X32268838Y-85213415D01*
X32268110Y-85215113D01*
X32267468Y-85217383D01*
X32262456Y-85226500D01*
X32203128Y-85413524D01*
X32202315Y-85420768D01*
X32202315Y-85420770D01*
X32200773Y-85434520D01*
X32181257Y-85608509D01*
X22684525Y-85608509D01*
X22677907Y-81644594D01*
X39507074Y-81644594D01*
X39544438Y-81862043D01*
X39546799Y-81868442D01*
X39546800Y-81868447D01*
X39553172Y-81885719D01*
X39620804Y-82069043D01*
X39733614Y-82258659D01*
X39738122Y-82263799D01*
X39872711Y-82417269D01*
X39906824Y-82486443D01*
X39901780Y-82563406D01*
X39866137Y-82620779D01*
X39766202Y-82720888D01*
X39755548Y-82734377D01*
X39671885Y-82870105D01*
X39664616Y-82885693D01*
X39614257Y-83037518D01*
X39610867Y-83053333D01*
X39601388Y-83145849D01*
X39601000Y-83153445D01*
X39601000Y-83276384D01*
X39605145Y-83291855D01*
X39620616Y-83296000D01*
X42347383Y-83296000D01*
X42362854Y-83291855D01*
X42366999Y-83276384D01*
X42366999Y-83153497D01*
X42366600Y-83145796D01*
X42356873Y-83052047D01*
X42353453Y-83036207D01*
X42302832Y-82884476D01*
X42295539Y-82868907D01*
X42211641Y-82733331D01*
X42200952Y-82719844D01*
X42100436Y-82619503D01*
X42061814Y-82552742D01*
X42061747Y-82475614D01*
X42096289Y-82412912D01*
X42210860Y-82288970D01*
X42210862Y-82288968D01*
X42215501Y-82283949D01*
X42333236Y-82097350D01*
X42414994Y-81892421D01*
X42458038Y-81676024D01*
X42460926Y-81455406D01*
X42423562Y-81237957D01*
X42421201Y-81231558D01*
X42421200Y-81231553D01*
X42349560Y-81037366D01*
X42347196Y-81030957D01*
X42234386Y-80841341D01*
X42088910Y-80675457D01*
X42083547Y-80671229D01*
X41921005Y-80543092D01*
X41921002Y-80543090D01*
X41915640Y-80538863D01*
X41808506Y-80482496D01*
X41726425Y-80439311D01*
X41726421Y-80439309D01*
X41720380Y-80436131D01*
X41622136Y-80405625D01*
X41516187Y-80372727D01*
X41516182Y-80372726D01*
X41509667Y-80370703D01*
X41502890Y-80369901D01*
X41502886Y-80369900D01*
X41334877Y-80350015D01*
X41334873Y-80350015D01*
X41330524Y-80349500D01*
X40653030Y-80349500D01*
X40489289Y-80364546D01*
X40276936Y-80424435D01*
X40270807Y-80427457D01*
X40270803Y-80427459D01*
X40246770Y-80439311D01*
X40079053Y-80522020D01*
X40073582Y-80526105D01*
X40073581Y-80526106D01*
X40050834Y-80543092D01*
X39902267Y-80654033D01*
X39897629Y-80659050D01*
X39897626Y-80659053D01*
X39877712Y-80680596D01*
X39752499Y-80816051D01*
X39634764Y-81002650D01*
X39553006Y-81207579D01*
X39509962Y-81423976D01*
X39507074Y-81644594D01*
X22677907Y-81644594D01*
X22672399Y-78344963D01*
X43698757Y-78344963D01*
X43715175Y-78540483D01*
X43717185Y-78547492D01*
X43717185Y-78547493D01*
X43744588Y-78643057D01*
X43769258Y-78729091D01*
X43858944Y-78903601D01*
X43901814Y-78957690D01*
X43966483Y-79039282D01*
X43980818Y-79057369D01*
X44130238Y-79184535D01*
X44136601Y-79188091D01*
X44295149Y-79276701D01*
X44295155Y-79276704D01*
X44301513Y-79280257D01*
X44488118Y-79340889D01*
X44561397Y-79349627D01*
X44675715Y-79363259D01*
X44675718Y-79363259D01*
X44682946Y-79364121D01*
X44794443Y-79355542D01*
X44871314Y-79349627D01*
X44871316Y-79349627D01*
X44878576Y-79349068D01*
X45067556Y-79296303D01*
X45074062Y-79293016D01*
X45074066Y-79293015D01*
X45236184Y-79211123D01*
X45236185Y-79211123D01*
X45242689Y-79207837D01*
X45397303Y-79087040D01*
X45525509Y-78938511D01*
X45622425Y-78767909D01*
X45684358Y-78581732D01*
X45708949Y-78387071D01*
X45709341Y-78359000D01*
X45690194Y-78163728D01*
X45633484Y-77975894D01*
X45562421Y-77842244D01*
X45544792Y-77809088D01*
X45544790Y-77809085D01*
X45541370Y-77802653D01*
X45536767Y-77797010D01*
X45536765Y-77797006D01*
X45421964Y-77656246D01*
X45417361Y-77650602D01*
X45266180Y-77525535D01*
X45093585Y-77432213D01*
X44963202Y-77391853D01*
X44913111Y-77376347D01*
X44913109Y-77376347D01*
X44906152Y-77374193D01*
X44898910Y-77373432D01*
X44898906Y-77373431D01*
X44718260Y-77354444D01*
X44718259Y-77354444D01*
X44711019Y-77353683D01*
X44515618Y-77371466D01*
X44327393Y-77426864D01*
X44153512Y-77517767D01*
X44147838Y-77522329D01*
X44017748Y-77626924D01*
X44000600Y-77640711D01*
X43874480Y-77791016D01*
X43779956Y-77962954D01*
X43720628Y-78149978D01*
X43719815Y-78157222D01*
X43719815Y-78157224D01*
X43705665Y-78283377D01*
X43698757Y-78344963D01*
X22672399Y-78344963D01*
X22671684Y-77916777D01*
X22691522Y-77842244D01*
X22745969Y-77787615D01*
X22820435Y-77767528D01*
X22894968Y-77787366D01*
X22917253Y-77803058D01*
X23048238Y-77914535D01*
X23054601Y-77918091D01*
X23213149Y-78006701D01*
X23213155Y-78006704D01*
X23219513Y-78010257D01*
X23406118Y-78070889D01*
X23479397Y-78079627D01*
X23593715Y-78093259D01*
X23593718Y-78093259D01*
X23600946Y-78094121D01*
X23712443Y-78085542D01*
X23789314Y-78079627D01*
X23789316Y-78079627D01*
X23796576Y-78079068D01*
X23985556Y-78026303D01*
X23992062Y-78023016D01*
X23992066Y-78023015D01*
X24154184Y-77941123D01*
X24154185Y-77941123D01*
X24160689Y-77937837D01*
X24315303Y-77817040D01*
X24443509Y-77668511D01*
X24524731Y-77525535D01*
X24536827Y-77504243D01*
X24536828Y-77504241D01*
X24540425Y-77497909D01*
X24602358Y-77311732D01*
X24626949Y-77117071D01*
X24627341Y-77089000D01*
X24608194Y-76893728D01*
X24551484Y-76705894D01*
X24459370Y-76532653D01*
X24454767Y-76527010D01*
X24454765Y-76527006D01*
X24339964Y-76386246D01*
X24335361Y-76380602D01*
X24184180Y-76255535D01*
X24011585Y-76162213D01*
X23881202Y-76121853D01*
X23831111Y-76106347D01*
X23831109Y-76106347D01*
X23824152Y-76104193D01*
X23816910Y-76103432D01*
X23816906Y-76103431D01*
X23636260Y-76084444D01*
X23636259Y-76084444D01*
X23629019Y-76083683D01*
X23433618Y-76101466D01*
X23245393Y-76156864D01*
X23071512Y-76247767D01*
X22918600Y-76370711D01*
X22918329Y-76370374D01*
X22854972Y-76406072D01*
X22777848Y-76405262D01*
X22711462Y-76365999D01*
X22673601Y-76298803D01*
X22668921Y-76262001D01*
X22668911Y-76255535D01*
X22664568Y-73654255D01*
X22684406Y-73579723D01*
X22738853Y-73525094D01*
X22813319Y-73505007D01*
X22831210Y-73506055D01*
X22958715Y-73521259D01*
X22958718Y-73521259D01*
X22965946Y-73522121D01*
X23077443Y-73513542D01*
X23154314Y-73507627D01*
X23154316Y-73507627D01*
X23161576Y-73507068D01*
X23350556Y-73454303D01*
X23357062Y-73451016D01*
X23357066Y-73451015D01*
X23519184Y-73369123D01*
X23519185Y-73369123D01*
X23525689Y-73365837D01*
X23680303Y-73245040D01*
X23808509Y-73096511D01*
X23889731Y-72953535D01*
X23901827Y-72932243D01*
X23901828Y-72932241D01*
X23905425Y-72925909D01*
X23967358Y-72739732D01*
X23991949Y-72545071D01*
X23992341Y-72517000D01*
X23973194Y-72321728D01*
X23916484Y-72133894D01*
X23913061Y-72127456D01*
X23827792Y-71967088D01*
X23827790Y-71967085D01*
X23824370Y-71960653D01*
X23819767Y-71955010D01*
X23819765Y-71955006D01*
X23704964Y-71814246D01*
X23700361Y-71808602D01*
X23593781Y-71720432D01*
X27902763Y-71720432D01*
X27919181Y-71915952D01*
X27921191Y-71922961D01*
X27921191Y-71922962D01*
X27971255Y-72097554D01*
X27973264Y-72104560D01*
X28062950Y-72279070D01*
X28184824Y-72432838D01*
X28334244Y-72560004D01*
X28502703Y-72654152D01*
X28502704Y-72654153D01*
X28505519Y-72655726D01*
X28505259Y-72656192D01*
X28561787Y-72701314D01*
X28589932Y-72773123D01*
X28578401Y-72849385D01*
X28530285Y-72909664D01*
X28510893Y-72921782D01*
X28465014Y-72945767D01*
X28459340Y-72950329D01*
X28329000Y-73055125D01*
X28312102Y-73068711D01*
X28185982Y-73219016D01*
X28091458Y-73390954D01*
X28032130Y-73577978D01*
X28031317Y-73585222D01*
X28031317Y-73585224D01*
X28030284Y-73594434D01*
X28010259Y-73772963D01*
X28026677Y-73968483D01*
X28080760Y-74157091D01*
X28170446Y-74331601D01*
X28292320Y-74485369D01*
X28441740Y-74612535D01*
X28448103Y-74616091D01*
X28606651Y-74704701D01*
X28606657Y-74704704D01*
X28613015Y-74708257D01*
X28799620Y-74768889D01*
X28872899Y-74777627D01*
X28987217Y-74791259D01*
X28987220Y-74791259D01*
X28994448Y-74792121D01*
X29105945Y-74783542D01*
X29182816Y-74777627D01*
X29182818Y-74777627D01*
X29190078Y-74777068D01*
X29379058Y-74724303D01*
X29385564Y-74721016D01*
X29385568Y-74721015D01*
X29547686Y-74639123D01*
X29547687Y-74639123D01*
X29554191Y-74635837D01*
X29708805Y-74515040D01*
X29837011Y-74366511D01*
X29933927Y-74195909D01*
X29995860Y-74009732D01*
X30020451Y-73815071D01*
X30020843Y-73787000D01*
X30019467Y-73772963D01*
X30363757Y-73772963D01*
X30380175Y-73968483D01*
X30434258Y-74157091D01*
X30523944Y-74331601D01*
X30645818Y-74485369D01*
X30795238Y-74612535D01*
X30801601Y-74616091D01*
X30960149Y-74704701D01*
X30960155Y-74704704D01*
X30966513Y-74708257D01*
X31153118Y-74768889D01*
X31226397Y-74777627D01*
X31340715Y-74791259D01*
X31340718Y-74791259D01*
X31347946Y-74792121D01*
X31459443Y-74783542D01*
X31536314Y-74777627D01*
X31536316Y-74777627D01*
X31543576Y-74777068D01*
X31732556Y-74724303D01*
X31739062Y-74721016D01*
X31739066Y-74721015D01*
X31901184Y-74639123D01*
X31901185Y-74639123D01*
X31907689Y-74635837D01*
X32062303Y-74515040D01*
X32190509Y-74366511D01*
X32287425Y-74195909D01*
X32349358Y-74009732D01*
X32373949Y-73815071D01*
X32374341Y-73787000D01*
X32355194Y-73591728D01*
X32298484Y-73403894D01*
X32263346Y-73337809D01*
X32209792Y-73237088D01*
X32209790Y-73237085D01*
X32206370Y-73230653D01*
X32201767Y-73225010D01*
X32201765Y-73225006D01*
X32086964Y-73084246D01*
X32082361Y-73078602D01*
X31931180Y-72953535D01*
X31758585Y-72860213D01*
X31597930Y-72810482D01*
X31578111Y-72804347D01*
X31578109Y-72804347D01*
X31571152Y-72802193D01*
X31563910Y-72801432D01*
X31563906Y-72801431D01*
X31383260Y-72782444D01*
X31383259Y-72782444D01*
X31376019Y-72781683D01*
X31180618Y-72799466D01*
X30992393Y-72854864D01*
X30818512Y-72945767D01*
X30812838Y-72950329D01*
X30682498Y-73055125D01*
X30665600Y-73068711D01*
X30539480Y-73219016D01*
X30444956Y-73390954D01*
X30385628Y-73577978D01*
X30384815Y-73585222D01*
X30384815Y-73585224D01*
X30383782Y-73594434D01*
X30363757Y-73772963D01*
X30019467Y-73772963D01*
X30001696Y-73591728D01*
X29944986Y-73403894D01*
X29909848Y-73337809D01*
X29856294Y-73237088D01*
X29856292Y-73237085D01*
X29852872Y-73230653D01*
X29848269Y-73225010D01*
X29848267Y-73225006D01*
X29733466Y-73084246D01*
X29728863Y-73078602D01*
X29577682Y-72953535D01*
X29513796Y-72918992D01*
X29411122Y-72863476D01*
X29355083Y-72810482D01*
X29333048Y-72736568D01*
X29350922Y-72661540D01*
X29403916Y-72605501D01*
X29414809Y-72599413D01*
X29423864Y-72594839D01*
X29446695Y-72583306D01*
X29601309Y-72462509D01*
X29729515Y-72313980D01*
X29826431Y-72143378D01*
X29888364Y-71957201D01*
X29891326Y-71933759D01*
X29912433Y-71766669D01*
X29912955Y-71762540D01*
X29913347Y-71734469D01*
X29894200Y-71539197D01*
X29837490Y-71351363D01*
X29796073Y-71273468D01*
X29778724Y-71198318D01*
X29801274Y-71124560D01*
X29857682Y-71071959D01*
X29887564Y-71060008D01*
X29947530Y-71043265D01*
X29947533Y-71043264D01*
X29954556Y-71041303D01*
X29961062Y-71038016D01*
X29961066Y-71038015D01*
X30077969Y-70978963D01*
X38110757Y-70978963D01*
X38127175Y-71174483D01*
X38129185Y-71181492D01*
X38129185Y-71181493D01*
X38162974Y-71299329D01*
X38181258Y-71363091D01*
X38270944Y-71537601D01*
X38392818Y-71691369D01*
X38542238Y-71818535D01*
X38548601Y-71822091D01*
X38707149Y-71910701D01*
X38707155Y-71910704D01*
X38713513Y-71914257D01*
X38720450Y-71916511D01*
X38824848Y-71950432D01*
X38889533Y-71992439D01*
X38922032Y-72051069D01*
X38941249Y-72118087D01*
X38941251Y-72118092D01*
X38943258Y-72125091D01*
X39032944Y-72299601D01*
X39154818Y-72453369D01*
X39304238Y-72580535D01*
X39310601Y-72584091D01*
X39469149Y-72672701D01*
X39469155Y-72672704D01*
X39475513Y-72676257D01*
X39576846Y-72709182D01*
X39586848Y-72712432D01*
X39651533Y-72754439D01*
X39684032Y-72813069D01*
X39703249Y-72880087D01*
X39703251Y-72880092D01*
X39705258Y-72887091D01*
X39794944Y-73061601D01*
X39846483Y-73126627D01*
X39911761Y-73208988D01*
X39916818Y-73215369D01*
X40066238Y-73342535D01*
X40072601Y-73346091D01*
X40231149Y-73434701D01*
X40231155Y-73434704D01*
X40237513Y-73438257D01*
X40424118Y-73498889D01*
X40497397Y-73507627D01*
X40611715Y-73521259D01*
X40611718Y-73521259D01*
X40618946Y-73522121D01*
X40730443Y-73513542D01*
X40807314Y-73507627D01*
X40807316Y-73507627D01*
X40814576Y-73507068D01*
X41003556Y-73454303D01*
X41010062Y-73451016D01*
X41010066Y-73451015D01*
X41172184Y-73369123D01*
X41172185Y-73369123D01*
X41178689Y-73365837D01*
X41333303Y-73245040D01*
X41433361Y-73129121D01*
X41497152Y-73085768D01*
X41574073Y-73080119D01*
X41592198Y-73084773D01*
X41694118Y-73117889D01*
X41767397Y-73126627D01*
X41881715Y-73140259D01*
X41881718Y-73140259D01*
X41888946Y-73141121D01*
X42000443Y-73132542D01*
X42077314Y-73126627D01*
X42077316Y-73126627D01*
X42084576Y-73126068D01*
X42234363Y-73084246D01*
X42266533Y-73075264D01*
X42266534Y-73075264D01*
X42273556Y-73073303D01*
X42280062Y-73070016D01*
X42280066Y-73070015D01*
X42442184Y-72988123D01*
X42442185Y-72988123D01*
X42448689Y-72984837D01*
X42603303Y-72864040D01*
X42731509Y-72715511D01*
X42806612Y-72583306D01*
X42824827Y-72551243D01*
X42824828Y-72551241D01*
X42828425Y-72544909D01*
X42890358Y-72358732D01*
X42896012Y-72313980D01*
X42914427Y-72168200D01*
X42914949Y-72164071D01*
X42915341Y-72136000D01*
X42896194Y-71940728D01*
X42839484Y-71752894D01*
X42827480Y-71730318D01*
X42750792Y-71586088D01*
X42750790Y-71586085D01*
X42747370Y-71579653D01*
X42742767Y-71574010D01*
X42742765Y-71574006D01*
X42627964Y-71433246D01*
X42623361Y-71427602D01*
X42472180Y-71302535D01*
X42299585Y-71209213D01*
X42143520Y-71160903D01*
X42119111Y-71153347D01*
X42119109Y-71153347D01*
X42112152Y-71151193D01*
X42104910Y-71150432D01*
X42104906Y-71150431D01*
X41924260Y-71131444D01*
X41924259Y-71131444D01*
X41917019Y-71130683D01*
X41721618Y-71148466D01*
X41533393Y-71203864D01*
X41359512Y-71294767D01*
X41353838Y-71299329D01*
X41238157Y-71392339D01*
X41206600Y-71417711D01*
X41201914Y-71423296D01*
X41118834Y-71522307D01*
X41055654Y-71566546D01*
X40978820Y-71573268D01*
X40960631Y-71568868D01*
X40932976Y-71560307D01*
X40867711Y-71519207D01*
X40834397Y-71461036D01*
X40809591Y-71378872D01*
X40809590Y-71378870D01*
X40807484Y-71371894D01*
X40804061Y-71365456D01*
X40718792Y-71205088D01*
X40718790Y-71205085D01*
X40715370Y-71198653D01*
X40710767Y-71193010D01*
X40710765Y-71193006D01*
X40595964Y-71052246D01*
X40591361Y-71046602D01*
X40440180Y-70921535D01*
X40267585Y-70828213D01*
X40260623Y-70826058D01*
X40260616Y-70826055D01*
X40170977Y-70798307D01*
X40105712Y-70757208D01*
X40072397Y-70699036D01*
X40047591Y-70616872D01*
X40047590Y-70616870D01*
X40045484Y-70609894D01*
X40038604Y-70596954D01*
X40002027Y-70528163D01*
X39984677Y-70453012D01*
X40007227Y-70379254D01*
X40041852Y-70340799D01*
X40063303Y-70324040D01*
X40191509Y-70175511D01*
X40288425Y-70004909D01*
X40350358Y-69818732D01*
X40350901Y-69818913D01*
X40384560Y-69755067D01*
X40449824Y-69713964D01*
X40526895Y-69711000D01*
X40566581Y-69726234D01*
X40612142Y-69751697D01*
X40612147Y-69751699D01*
X40618513Y-69755257D01*
X40805118Y-69815889D01*
X40887043Y-69825658D01*
X40992715Y-69838259D01*
X40992718Y-69838259D01*
X40999946Y-69839121D01*
X41111443Y-69830542D01*
X41188314Y-69824627D01*
X41188316Y-69824627D01*
X41195576Y-69824068D01*
X41267771Y-69803911D01*
X41377533Y-69773264D01*
X41377534Y-69773264D01*
X41384556Y-69771303D01*
X41391062Y-69768016D01*
X41391066Y-69768015D01*
X41553184Y-69686123D01*
X41553185Y-69686123D01*
X41559689Y-69682837D01*
X41714303Y-69562040D01*
X41842509Y-69413511D01*
X41923731Y-69270535D01*
X41935827Y-69249243D01*
X41935828Y-69249241D01*
X41939425Y-69242909D01*
X42001358Y-69056732D01*
X42025949Y-68862071D01*
X42026341Y-68834000D01*
X42007194Y-68638728D01*
X41998679Y-68610523D01*
X41952591Y-68457873D01*
X41950484Y-68450894D01*
X41916044Y-68386121D01*
X41861792Y-68284088D01*
X41861790Y-68284085D01*
X41858370Y-68277653D01*
X41853767Y-68272010D01*
X41853765Y-68272006D01*
X41738964Y-68131246D01*
X41734361Y-68125602D01*
X41583180Y-68000535D01*
X41454510Y-67930963D01*
X46960259Y-67930963D01*
X46976677Y-68126483D01*
X47030760Y-68315091D01*
X47120446Y-68489601D01*
X47124968Y-68495306D01*
X47227744Y-68624978D01*
X47242320Y-68643369D01*
X47391740Y-68770535D01*
X47398103Y-68774091D01*
X47556651Y-68862701D01*
X47556657Y-68862704D01*
X47563015Y-68866257D01*
X47749620Y-68926889D01*
X47822899Y-68935627D01*
X47937217Y-68949259D01*
X47937220Y-68949259D01*
X47944448Y-68950121D01*
X48055945Y-68941542D01*
X48132816Y-68935627D01*
X48132818Y-68935627D01*
X48140078Y-68935068D01*
X48289865Y-68893246D01*
X48322035Y-68884264D01*
X48322036Y-68884264D01*
X48329058Y-68882303D01*
X48335564Y-68879016D01*
X48335568Y-68879015D01*
X48497686Y-68797123D01*
X48497687Y-68797123D01*
X48504191Y-68793837D01*
X48658805Y-68673040D01*
X48787011Y-68524511D01*
X48865628Y-68386121D01*
X48880329Y-68360243D01*
X48880330Y-68360241D01*
X48883927Y-68353909D01*
X48945860Y-68167732D01*
X48951769Y-68120961D01*
X48957744Y-68073660D01*
X48970451Y-67973071D01*
X48970843Y-67945000D01*
X48951696Y-67749728D01*
X48894986Y-67561894D01*
X48815924Y-67413200D01*
X48806294Y-67395088D01*
X48806292Y-67395085D01*
X48802872Y-67388653D01*
X48798269Y-67383010D01*
X48798267Y-67383006D01*
X48683466Y-67242246D01*
X48678863Y-67236602D01*
X48527682Y-67111535D01*
X48355087Y-67018213D01*
X48224704Y-66977853D01*
X48174613Y-66962347D01*
X48174611Y-66962347D01*
X48167654Y-66960193D01*
X48160412Y-66959432D01*
X48160408Y-66959431D01*
X47979762Y-66940444D01*
X47979761Y-66940444D01*
X47972521Y-66939683D01*
X47777120Y-66957466D01*
X47588895Y-67012864D01*
X47415014Y-67103767D01*
X47409340Y-67108329D01*
X47304063Y-67192974D01*
X47262102Y-67226711D01*
X47135982Y-67377016D01*
X47041458Y-67548954D01*
X46982130Y-67735978D01*
X46981317Y-67743222D01*
X46981317Y-67743224D01*
X46963144Y-67905240D01*
X46960259Y-67930963D01*
X41454510Y-67930963D01*
X41410585Y-67907213D01*
X41280202Y-67866853D01*
X41230111Y-67851347D01*
X41230109Y-67851347D01*
X41223152Y-67849193D01*
X41215910Y-67848432D01*
X41215906Y-67848431D01*
X41035260Y-67829444D01*
X41035259Y-67829444D01*
X41028019Y-67828683D01*
X40832618Y-67846466D01*
X40644393Y-67901864D01*
X40470512Y-67992767D01*
X40317600Y-68115711D01*
X40191480Y-68266016D01*
X40096956Y-68437954D01*
X40041318Y-68613348D01*
X40039403Y-68619384D01*
X39997849Y-68684361D01*
X39929374Y-68719855D01*
X39852325Y-68716356D01*
X39826510Y-68705399D01*
X39805696Y-68694145D01*
X39759585Y-68669213D01*
X39579114Y-68613348D01*
X39579111Y-68613347D01*
X39579109Y-68613347D01*
X39572152Y-68611193D01*
X39564910Y-68610432D01*
X39564906Y-68610431D01*
X39384260Y-68591444D01*
X39384259Y-68591444D01*
X39377019Y-68590683D01*
X39181618Y-68608466D01*
X38993393Y-68663864D01*
X38819512Y-68754767D01*
X38813838Y-68759329D01*
X38678043Y-68868511D01*
X38666600Y-68877711D01*
X38540480Y-69028016D01*
X38445956Y-69199954D01*
X38386628Y-69386978D01*
X38385815Y-69394222D01*
X38385815Y-69394224D01*
X38366992Y-69562040D01*
X38364757Y-69581963D01*
X38381175Y-69777483D01*
X38383185Y-69784492D01*
X38383185Y-69784493D01*
X38412874Y-69888028D01*
X38435258Y-69966091D01*
X38438589Y-69972572D01*
X38485319Y-70063499D01*
X38501618Y-70138886D01*
X38478040Y-70212321D01*
X38446160Y-70247728D01*
X38412600Y-70274711D01*
X38286480Y-70425016D01*
X38191956Y-70596954D01*
X38132628Y-70783978D01*
X38131815Y-70791222D01*
X38131815Y-70791224D01*
X38116677Y-70926181D01*
X38110757Y-70978963D01*
X30077969Y-70978963D01*
X30123184Y-70956123D01*
X30123185Y-70956123D01*
X30129689Y-70952837D01*
X30284303Y-70832040D01*
X30412509Y-70683511D01*
X30497840Y-70533303D01*
X30505827Y-70519243D01*
X30505828Y-70519241D01*
X30509425Y-70512909D01*
X30571358Y-70326732D01*
X30578507Y-70270145D01*
X30595427Y-70136200D01*
X30595949Y-70132071D01*
X30596341Y-70104000D01*
X30577194Y-69908728D01*
X30520484Y-69720894D01*
X30471198Y-69628200D01*
X30431792Y-69554088D01*
X30431790Y-69554085D01*
X30428370Y-69547653D01*
X30423767Y-69542010D01*
X30423765Y-69542006D01*
X30308964Y-69401246D01*
X30304361Y-69395602D01*
X30153180Y-69270535D01*
X29980585Y-69177213D01*
X29850202Y-69136853D01*
X29800111Y-69121347D01*
X29800109Y-69121347D01*
X29793152Y-69119193D01*
X29785910Y-69118432D01*
X29785906Y-69118431D01*
X29605260Y-69099444D01*
X29605259Y-69099444D01*
X29598019Y-69098683D01*
X29556841Y-69102431D01*
X29513739Y-69106353D01*
X29437737Y-69093225D01*
X29378480Y-69043854D01*
X29351848Y-68971470D01*
X29364976Y-68895468D01*
X29414347Y-68836211D01*
X29433054Y-68824971D01*
X29488184Y-68797123D01*
X29488185Y-68797123D01*
X29494689Y-68793837D01*
X29649303Y-68673040D01*
X29777509Y-68524511D01*
X29856126Y-68386121D01*
X29870827Y-68360243D01*
X29870828Y-68360241D01*
X29874425Y-68353909D01*
X29936358Y-68167732D01*
X29942267Y-68120961D01*
X29948242Y-68073660D01*
X29960949Y-67973071D01*
X29961341Y-67945000D01*
X29942194Y-67749728D01*
X29885484Y-67561894D01*
X29806422Y-67413200D01*
X29796792Y-67395088D01*
X29796790Y-67395085D01*
X29793370Y-67388653D01*
X29788767Y-67383010D01*
X29788765Y-67383006D01*
X29673964Y-67242246D01*
X29669361Y-67236602D01*
X29518180Y-67111535D01*
X29345585Y-67018213D01*
X29215202Y-66977853D01*
X29165111Y-66962347D01*
X29165109Y-66962347D01*
X29158152Y-66960193D01*
X29150910Y-66959432D01*
X29150906Y-66959431D01*
X28970260Y-66940444D01*
X28970259Y-66940444D01*
X28963019Y-66939683D01*
X28767618Y-66957466D01*
X28579393Y-67012864D01*
X28405512Y-67103767D01*
X28399838Y-67108329D01*
X28294561Y-67192974D01*
X28252600Y-67226711D01*
X28126480Y-67377016D01*
X28031956Y-67548954D01*
X27972628Y-67735978D01*
X27971815Y-67743222D01*
X27971815Y-67743224D01*
X27953642Y-67905240D01*
X27950757Y-67930963D01*
X27967175Y-68126483D01*
X28021258Y-68315091D01*
X28110944Y-68489601D01*
X28115466Y-68495306D01*
X28218242Y-68624978D01*
X28232818Y-68643369D01*
X28382238Y-68770535D01*
X28388601Y-68774091D01*
X28547149Y-68862701D01*
X28547155Y-68862704D01*
X28553513Y-68866257D01*
X28740118Y-68926889D01*
X28813397Y-68935627D01*
X28927715Y-68949259D01*
X28927718Y-68949259D01*
X28934946Y-68950121D01*
X29036249Y-68942326D01*
X29112061Y-68956514D01*
X29170622Y-69006707D01*
X29196241Y-69079456D01*
X29182053Y-69155268D01*
X29131860Y-69213829D01*
X29116711Y-69222931D01*
X29040512Y-69262767D01*
X28887600Y-69385711D01*
X28761480Y-69536016D01*
X28666956Y-69707954D01*
X28607628Y-69894978D01*
X28606815Y-69902222D01*
X28606815Y-69902224D01*
X28605273Y-69915974D01*
X28585757Y-70089963D01*
X28602175Y-70285483D01*
X28656258Y-70474091D01*
X28659589Y-70480572D01*
X28704055Y-70567094D01*
X28720354Y-70642481D01*
X28696776Y-70715917D01*
X28639640Y-70767725D01*
X28613602Y-70778139D01*
X28531399Y-70802333D01*
X28357518Y-70893236D01*
X28351844Y-70897798D01*
X28316543Y-70926181D01*
X28204606Y-71016180D01*
X28078486Y-71166485D01*
X27983962Y-71338423D01*
X27924634Y-71525447D01*
X27923821Y-71532691D01*
X27923821Y-71532693D01*
X27906023Y-71691369D01*
X27902763Y-71720432D01*
X23593781Y-71720432D01*
X23549180Y-71683535D01*
X23376585Y-71590213D01*
X23246202Y-71549853D01*
X23196111Y-71534347D01*
X23196109Y-71534347D01*
X23189152Y-71532193D01*
X23181910Y-71531432D01*
X23181906Y-71531431D01*
X23001260Y-71512444D01*
X23001259Y-71512444D01*
X22994019Y-71511683D01*
X22967527Y-71514094D01*
X22823273Y-71527222D01*
X22747271Y-71514094D01*
X22688014Y-71464723D01*
X22661382Y-71392339D01*
X22660769Y-71379084D01*
X22660747Y-71365456D01*
X22659689Y-70731936D01*
X22679527Y-70657402D01*
X22733974Y-70602774D01*
X22779536Y-70586148D01*
X22780576Y-70586068D01*
X22787594Y-70584109D01*
X22787597Y-70584108D01*
X22962533Y-70535264D01*
X22962534Y-70535264D01*
X22969556Y-70533303D01*
X22976062Y-70530016D01*
X22976066Y-70530015D01*
X23138184Y-70448123D01*
X23138185Y-70448123D01*
X23144689Y-70444837D01*
X23277855Y-70340797D01*
X23293560Y-70328527D01*
X23293562Y-70328525D01*
X23299303Y-70324040D01*
X23427509Y-70175511D01*
X23524425Y-70004909D01*
X23586358Y-69818732D01*
X23610949Y-69624071D01*
X23611341Y-69596000D01*
X23592194Y-69400728D01*
X23535484Y-69212894D01*
X23525209Y-69193570D01*
X23446792Y-69046088D01*
X23446790Y-69046085D01*
X23443370Y-69039653D01*
X23438767Y-69034010D01*
X23438765Y-69034006D01*
X23323964Y-68893246D01*
X23319361Y-68887602D01*
X23168180Y-68762535D01*
X22995585Y-68669213D01*
X22808152Y-68611193D01*
X22800906Y-68610431D01*
X22800904Y-68610431D01*
X22789324Y-68609214D01*
X22717319Y-68581574D01*
X22668780Y-68521635D01*
X22655898Y-68461279D01*
X22654861Y-67840127D01*
X22674699Y-67765596D01*
X22729146Y-67710967D01*
X22803612Y-67690880D01*
X22878145Y-67710718D01*
X22936384Y-67771772D01*
X22992124Y-67880230D01*
X23015442Y-67925601D01*
X23137316Y-68079369D01*
X23286736Y-68206535D01*
X23293099Y-68210091D01*
X23451647Y-68298701D01*
X23451653Y-68298704D01*
X23458011Y-68302257D01*
X23644616Y-68362889D01*
X23717895Y-68371627D01*
X23832213Y-68385259D01*
X23832216Y-68385259D01*
X23839444Y-68386121D01*
X23950941Y-68377542D01*
X24027812Y-68371627D01*
X24027814Y-68371627D01*
X24035074Y-68371068D01*
X24224054Y-68318303D01*
X24230560Y-68315016D01*
X24230564Y-68315015D01*
X24392682Y-68233123D01*
X24392683Y-68233123D01*
X24399187Y-68229837D01*
X24522502Y-68133493D01*
X24548058Y-68113527D01*
X24548059Y-68113526D01*
X24553801Y-68109040D01*
X24682007Y-67960511D01*
X24778923Y-67789909D01*
X24840856Y-67603732D01*
X24848583Y-67542570D01*
X24864925Y-67413200D01*
X24865447Y-67409071D01*
X24865839Y-67381000D01*
X24846692Y-67185728D01*
X24789982Y-66997894D01*
X24779706Y-66978567D01*
X24701290Y-66831088D01*
X24701288Y-66831085D01*
X24697868Y-66824653D01*
X24693265Y-66819010D01*
X24693263Y-66819006D01*
X24578462Y-66678246D01*
X24573859Y-66672602D01*
X24422678Y-66547535D01*
X24250083Y-66454213D01*
X24119700Y-66413853D01*
X24069609Y-66398347D01*
X24069607Y-66398347D01*
X24062650Y-66396193D01*
X24055408Y-66395432D01*
X24055404Y-66395431D01*
X23874758Y-66376444D01*
X23874757Y-66376444D01*
X23867517Y-66375683D01*
X23672116Y-66393466D01*
X23483891Y-66448864D01*
X23310010Y-66539767D01*
X23157098Y-66662711D01*
X23030978Y-66813016D01*
X23021043Y-66831088D01*
X22950067Y-66960193D01*
X22936454Y-66984954D01*
X22935797Y-66984593D01*
X22891584Y-67040778D01*
X22819972Y-67069422D01*
X22743632Y-67058422D01*
X22683020Y-67010726D01*
X22654376Y-66939114D01*
X22653328Y-66921719D01*
X22652905Y-66668296D01*
X22648470Y-64011386D01*
X36034068Y-64011386D01*
X36050486Y-64206906D01*
X36104569Y-64395514D01*
X36194255Y-64570024D01*
X36316129Y-64723792D01*
X36465549Y-64850958D01*
X36471912Y-64854514D01*
X36630460Y-64943124D01*
X36630466Y-64943127D01*
X36636824Y-64946680D01*
X36823429Y-65007312D01*
X36928567Y-65019849D01*
X37011026Y-65029682D01*
X37011029Y-65029682D01*
X37018257Y-65030544D01*
X37129754Y-65021965D01*
X37206625Y-65016050D01*
X37206627Y-65016050D01*
X37213887Y-65015491D01*
X37233686Y-65009963D01*
X47000757Y-65009963D01*
X47017175Y-65205483D01*
X47071258Y-65394091D01*
X47160944Y-65568601D01*
X47282818Y-65722369D01*
X47432238Y-65849535D01*
X47438601Y-65853091D01*
X47597149Y-65941701D01*
X47597155Y-65941704D01*
X47603513Y-65945257D01*
X47790118Y-66005889D01*
X47863397Y-66014627D01*
X47977715Y-66028259D01*
X47977718Y-66028259D01*
X47984946Y-66029121D01*
X48096443Y-66020542D01*
X48173314Y-66014627D01*
X48173316Y-66014627D01*
X48180576Y-66014068D01*
X48369556Y-65961303D01*
X48376062Y-65958016D01*
X48376066Y-65958015D01*
X48538184Y-65876123D01*
X48538185Y-65876123D01*
X48544689Y-65872837D01*
X48699303Y-65752040D01*
X48827509Y-65603511D01*
X48924425Y-65432909D01*
X48986358Y-65246732D01*
X49010949Y-65052071D01*
X49011250Y-65030544D01*
X49011283Y-65028176D01*
X49011283Y-65028170D01*
X49011341Y-65024000D01*
X48992194Y-64828728D01*
X48935484Y-64640894D01*
X48897802Y-64570024D01*
X48846792Y-64474088D01*
X48846790Y-64474085D01*
X48843370Y-64467653D01*
X48838767Y-64462010D01*
X48838765Y-64462006D01*
X48723964Y-64321246D01*
X48719361Y-64315602D01*
X48568180Y-64190535D01*
X48395585Y-64097213D01*
X48254351Y-64053494D01*
X48215111Y-64041347D01*
X48215109Y-64041347D01*
X48208152Y-64039193D01*
X48200910Y-64038432D01*
X48200906Y-64038431D01*
X48020260Y-64019444D01*
X48020259Y-64019444D01*
X48013019Y-64018683D01*
X47817618Y-64036466D01*
X47629393Y-64091864D01*
X47455512Y-64182767D01*
X47449838Y-64187329D01*
X47383182Y-64240922D01*
X47302600Y-64305711D01*
X47176480Y-64456016D01*
X47081956Y-64627954D01*
X47022628Y-64814978D01*
X47021815Y-64822222D01*
X47021815Y-64822224D01*
X47001569Y-65002722D01*
X47000757Y-65009963D01*
X37233686Y-65009963D01*
X37402867Y-64962726D01*
X37409373Y-64959439D01*
X37409377Y-64959438D01*
X37571495Y-64877546D01*
X37571496Y-64877546D01*
X37578000Y-64874260D01*
X37732614Y-64753463D01*
X37860820Y-64604934D01*
X37938807Y-64467653D01*
X37954138Y-64440666D01*
X37954139Y-64440664D01*
X37957736Y-64434332D01*
X38019669Y-64248155D01*
X38044260Y-64053494D01*
X38044652Y-64025423D01*
X38025505Y-63830151D01*
X37968795Y-63642317D01*
X37958520Y-63622993D01*
X37880103Y-63475511D01*
X37880101Y-63475508D01*
X37876681Y-63469076D01*
X37872078Y-63463433D01*
X37872076Y-63463429D01*
X37757275Y-63322669D01*
X37752672Y-63317025D01*
X37601491Y-63191958D01*
X37428896Y-63098636D01*
X37298513Y-63058276D01*
X37248422Y-63042770D01*
X37248420Y-63042770D01*
X37241463Y-63040616D01*
X37234221Y-63039855D01*
X37234217Y-63039854D01*
X37053571Y-63020867D01*
X37053570Y-63020867D01*
X37046330Y-63020106D01*
X36850929Y-63037889D01*
X36662704Y-63093287D01*
X36488823Y-63184190D01*
X36483149Y-63188752D01*
X36349431Y-63296264D01*
X36335911Y-63307134D01*
X36209791Y-63457439D01*
X36115267Y-63629377D01*
X36055939Y-63816401D01*
X36055126Y-63823645D01*
X36055126Y-63823647D01*
X36053584Y-63837397D01*
X36034068Y-64011386D01*
X22648470Y-64011386D01*
X22646109Y-62596963D01*
X33724257Y-62596963D01*
X33740675Y-62792483D01*
X33794758Y-62981091D01*
X33884444Y-63155601D01*
X34006318Y-63309369D01*
X34155738Y-63436535D01*
X34162101Y-63440091D01*
X34320649Y-63528701D01*
X34320655Y-63528704D01*
X34327013Y-63532257D01*
X34513618Y-63592889D01*
X34586897Y-63601627D01*
X34701215Y-63615259D01*
X34701218Y-63615259D01*
X34708446Y-63616121D01*
X34819943Y-63607542D01*
X34896814Y-63601627D01*
X34896816Y-63601627D01*
X34904076Y-63601068D01*
X35093056Y-63548303D01*
X35099562Y-63545016D01*
X35099566Y-63545015D01*
X35261684Y-63463123D01*
X35261685Y-63463123D01*
X35268189Y-63459837D01*
X35345496Y-63399439D01*
X35417060Y-63343527D01*
X35417061Y-63343526D01*
X35422803Y-63339040D01*
X35551009Y-63190511D01*
X35636162Y-63040616D01*
X35644327Y-63026243D01*
X35644328Y-63026241D01*
X35647925Y-63019909D01*
X35709858Y-62833732D01*
X35734449Y-62639071D01*
X35734841Y-62611000D01*
X35715694Y-62415728D01*
X35658984Y-62227894D01*
X35655566Y-62221465D01*
X35655564Y-62221461D01*
X35630577Y-62174467D01*
X35613227Y-62099316D01*
X35632581Y-62030920D01*
X35644324Y-62010249D01*
X35644326Y-62010243D01*
X35647925Y-62003909D01*
X35709858Y-61817732D01*
X35734449Y-61623071D01*
X35734664Y-61607710D01*
X35734783Y-61599176D01*
X35734783Y-61599170D01*
X35734841Y-61595000D01*
X35715694Y-61399728D01*
X35707179Y-61371523D01*
X35661091Y-61218873D01*
X35658984Y-61211894D01*
X35654878Y-61204171D01*
X35570292Y-61045088D01*
X35570290Y-61045085D01*
X35566870Y-61038653D01*
X35562267Y-61033010D01*
X35562265Y-61033006D01*
X35447464Y-60892246D01*
X35442861Y-60886602D01*
X35361099Y-60818963D01*
X38745757Y-60818963D01*
X38762175Y-61014483D01*
X38816258Y-61203091D01*
X38905944Y-61377601D01*
X39027818Y-61531369D01*
X39177238Y-61658535D01*
X39183601Y-61662091D01*
X39342149Y-61750701D01*
X39342155Y-61750704D01*
X39348513Y-61754257D01*
X39535118Y-61814889D01*
X39644021Y-61827875D01*
X39722715Y-61837259D01*
X39722718Y-61837259D01*
X39729946Y-61838121D01*
X39841443Y-61829542D01*
X39918314Y-61823627D01*
X39918316Y-61823627D01*
X39925576Y-61823068D01*
X39997771Y-61802911D01*
X40107533Y-61772264D01*
X40107534Y-61772264D01*
X40114556Y-61770303D01*
X40121062Y-61767016D01*
X40121066Y-61767015D01*
X40283184Y-61685123D01*
X40283185Y-61685123D01*
X40289689Y-61681837D01*
X40375402Y-61614871D01*
X40438560Y-61565527D01*
X40438561Y-61565526D01*
X40444303Y-61561040D01*
X40563965Y-61422409D01*
X40627755Y-61379057D01*
X40704676Y-61373408D01*
X40722802Y-61378062D01*
X40894618Y-61433889D01*
X40967897Y-61442627D01*
X41082215Y-61456259D01*
X41082218Y-61456259D01*
X41089446Y-61457121D01*
X41200943Y-61448542D01*
X41277814Y-61442627D01*
X41277816Y-61442627D01*
X41285076Y-61442068D01*
X41410767Y-61406974D01*
X41467033Y-61391264D01*
X41467034Y-61391264D01*
X41474056Y-61389303D01*
X41480562Y-61386016D01*
X41480566Y-61386015D01*
X41642684Y-61304123D01*
X41642685Y-61304123D01*
X41649189Y-61300837D01*
X41684358Y-61273360D01*
X41755354Y-61243224D01*
X41831907Y-61252624D01*
X41893505Y-61299041D01*
X41919319Y-61349703D01*
X41931671Y-61392779D01*
X42021357Y-61567289D01*
X42143231Y-61721057D01*
X42292651Y-61848223D01*
X42299014Y-61851779D01*
X42457562Y-61940389D01*
X42457568Y-61940392D01*
X42463926Y-61943945D01*
X42650531Y-62004577D01*
X42723810Y-62013315D01*
X42838128Y-62026947D01*
X42838131Y-62026947D01*
X42845359Y-62027809D01*
X42956856Y-62019230D01*
X43033727Y-62013315D01*
X43033729Y-62013315D01*
X43040989Y-62012756D01*
X43188502Y-61971569D01*
X43222946Y-61961952D01*
X43222947Y-61961952D01*
X43229969Y-61959991D01*
X43236475Y-61956704D01*
X43236479Y-61956703D01*
X43398597Y-61874811D01*
X43398598Y-61874811D01*
X43405102Y-61871525D01*
X43515244Y-61785473D01*
X43553973Y-61755215D01*
X43553974Y-61755214D01*
X43559716Y-61750728D01*
X43687922Y-61602199D01*
X43778890Y-61442068D01*
X43781240Y-61437931D01*
X43781241Y-61437929D01*
X43784838Y-61431597D01*
X43846771Y-61245420D01*
X43848210Y-61234033D01*
X43870840Y-61054888D01*
X43871362Y-61050759D01*
X43871531Y-61038653D01*
X43871696Y-61026864D01*
X43871696Y-61026858D01*
X43871754Y-61022688D01*
X43852607Y-60827416D01*
X43847324Y-60809916D01*
X43803945Y-60666240D01*
X43795897Y-60639582D01*
X43780271Y-60610193D01*
X43707205Y-60472776D01*
X43707203Y-60472773D01*
X43703783Y-60466341D01*
X43699180Y-60460698D01*
X43699178Y-60460694D01*
X43584377Y-60319934D01*
X43579774Y-60314290D01*
X43428593Y-60189223D01*
X43255998Y-60095901D01*
X43125615Y-60055541D01*
X43075524Y-60040035D01*
X43075522Y-60040035D01*
X43068565Y-60037881D01*
X43061323Y-60037120D01*
X43061319Y-60037119D01*
X42880673Y-60018132D01*
X42880672Y-60018132D01*
X42873432Y-60017371D01*
X42678031Y-60035154D01*
X42489806Y-60090552D01*
X42315925Y-60181455D01*
X42310250Y-60186017D01*
X42310245Y-60186021D01*
X42293387Y-60199575D01*
X42222818Y-60230700D01*
X42146141Y-60222370D01*
X42083902Y-60176818D01*
X42057382Y-60126519D01*
X42045431Y-60086935D01*
X42043009Y-60009845D01*
X42079456Y-59941872D01*
X42148002Y-59900359D01*
X42266533Y-59867264D01*
X42266534Y-59867264D01*
X42273556Y-59865303D01*
X42280062Y-59862016D01*
X42280066Y-59862015D01*
X42442184Y-59780123D01*
X42442185Y-59780123D01*
X42448689Y-59776837D01*
X42603303Y-59656040D01*
X42731509Y-59507511D01*
X42814175Y-59361993D01*
X42824827Y-59343243D01*
X42824828Y-59343241D01*
X42828425Y-59336909D01*
X42890358Y-59150732D01*
X42914949Y-58956071D01*
X42915341Y-58928000D01*
X42896194Y-58732728D01*
X42839484Y-58544894D01*
X42795571Y-58462306D01*
X42750792Y-58378088D01*
X42750790Y-58378085D01*
X42747370Y-58371653D01*
X42742767Y-58366010D01*
X42742765Y-58366006D01*
X42627964Y-58225246D01*
X42623361Y-58219602D01*
X42472180Y-58094535D01*
X42299585Y-58001213D01*
X42136300Y-57950668D01*
X42119111Y-57945347D01*
X42119109Y-57945347D01*
X42112152Y-57943193D01*
X42104910Y-57942432D01*
X42104906Y-57942431D01*
X41924260Y-57923444D01*
X41924259Y-57923444D01*
X41917019Y-57922683D01*
X41721618Y-57940466D01*
X41533393Y-57995864D01*
X41359512Y-58086767D01*
X41353838Y-58091329D01*
X41214262Y-58203551D01*
X41206600Y-58209711D01*
X41080480Y-58360016D01*
X40985956Y-58531954D01*
X40926628Y-58718978D01*
X40925815Y-58726222D01*
X40925815Y-58726224D01*
X40905569Y-58906722D01*
X40904757Y-58913963D01*
X40921175Y-59109483D01*
X40923185Y-59116492D01*
X40923185Y-59116493D01*
X40974332Y-59294863D01*
X40975678Y-59371979D01*
X40938286Y-59439437D01*
X40873174Y-59478871D01*
X40854718Y-59484303D01*
X40733893Y-59519864D01*
X40560012Y-59610767D01*
X40554338Y-59615329D01*
X40434570Y-59711625D01*
X40407100Y-59733711D01*
X40402417Y-59739292D01*
X40402413Y-59739296D01*
X40300736Y-59860471D01*
X40237556Y-59904710D01*
X40160722Y-59911432D01*
X40140786Y-59905563D01*
X40140585Y-59906213D01*
X39960111Y-59850347D01*
X39960109Y-59850347D01*
X39953152Y-59848193D01*
X39945910Y-59847432D01*
X39945906Y-59847431D01*
X39765260Y-59828444D01*
X39765259Y-59828444D01*
X39758019Y-59827683D01*
X39562618Y-59845466D01*
X39374393Y-59900864D01*
X39200512Y-59991767D01*
X39194838Y-59996329D01*
X39076841Y-60091201D01*
X39047600Y-60114711D01*
X38921480Y-60265016D01*
X38826956Y-60436954D01*
X38767628Y-60623978D01*
X38766815Y-60631222D01*
X38766815Y-60631224D01*
X38746772Y-60809916D01*
X38745757Y-60818963D01*
X35361099Y-60818963D01*
X35291680Y-60761535D01*
X35119085Y-60668213D01*
X34976184Y-60623978D01*
X34938611Y-60612347D01*
X34938609Y-60612347D01*
X34931652Y-60610193D01*
X34924410Y-60609432D01*
X34924406Y-60609431D01*
X34743760Y-60590444D01*
X34743759Y-60590444D01*
X34736519Y-60589683D01*
X34541118Y-60607466D01*
X34352893Y-60662864D01*
X34179012Y-60753767D01*
X34173338Y-60758329D01*
X34078399Y-60834662D01*
X34026100Y-60876711D01*
X33899980Y-61027016D01*
X33805456Y-61198954D01*
X33746128Y-61385978D01*
X33745315Y-61393222D01*
X33745315Y-61393224D01*
X33725151Y-61572994D01*
X33724257Y-61580963D01*
X33740675Y-61776483D01*
X33742685Y-61783492D01*
X33742685Y-61783493D01*
X33792353Y-61956703D01*
X33794758Y-61965091D01*
X33830083Y-62033826D01*
X33846381Y-62109210D01*
X33828129Y-62173712D01*
X33805456Y-62214954D01*
X33746128Y-62401978D01*
X33745315Y-62409222D01*
X33745315Y-62409224D01*
X33725069Y-62589722D01*
X33724257Y-62596963D01*
X22646109Y-62596963D01*
X22643763Y-61191925D01*
X28010259Y-61191925D01*
X28026677Y-61387445D01*
X28028687Y-61394454D01*
X28028687Y-61394455D01*
X28039348Y-61431635D01*
X28080760Y-61576053D01*
X28170446Y-61750563D01*
X28186092Y-61770303D01*
X28266319Y-61871525D01*
X28292320Y-61904331D01*
X28441740Y-62031497D01*
X28448103Y-62035053D01*
X28606651Y-62123663D01*
X28606657Y-62123666D01*
X28613015Y-62127219D01*
X28799620Y-62187851D01*
X28872899Y-62196589D01*
X28987217Y-62210221D01*
X28987220Y-62210221D01*
X28994448Y-62211083D01*
X29105945Y-62202504D01*
X29182816Y-62196589D01*
X29182818Y-62196589D01*
X29190078Y-62196030D01*
X29270011Y-62173712D01*
X29372035Y-62145226D01*
X29372036Y-62145226D01*
X29379058Y-62143265D01*
X29385564Y-62139978D01*
X29385568Y-62139977D01*
X29547686Y-62058085D01*
X29547687Y-62058085D01*
X29554191Y-62054799D01*
X29669013Y-61965091D01*
X29703062Y-61938489D01*
X29703063Y-61938488D01*
X29708805Y-61934002D01*
X29837011Y-61785473D01*
X29920384Y-61638711D01*
X29930329Y-61621205D01*
X29930330Y-61621203D01*
X29933927Y-61614871D01*
X29995860Y-61428694D01*
X29997905Y-61412511D01*
X30006692Y-61342945D01*
X30020451Y-61234033D01*
X30020843Y-61205962D01*
X30001696Y-61010690D01*
X29944986Y-60822856D01*
X29933565Y-60801376D01*
X29856294Y-60656050D01*
X29856292Y-60656047D01*
X29852872Y-60649615D01*
X29848269Y-60643972D01*
X29848267Y-60643968D01*
X29733466Y-60503208D01*
X29728863Y-60497564D01*
X29577682Y-60372497D01*
X29405087Y-60279175D01*
X29239728Y-60227988D01*
X29224613Y-60223309D01*
X29224611Y-60223309D01*
X29217654Y-60221155D01*
X29210412Y-60220394D01*
X29210408Y-60220393D01*
X29029762Y-60201406D01*
X29029761Y-60201406D01*
X29022521Y-60200645D01*
X28827120Y-60218428D01*
X28638895Y-60273826D01*
X28465014Y-60364729D01*
X28312102Y-60487673D01*
X28185982Y-60637978D01*
X28091458Y-60809916D01*
X28032130Y-60996940D01*
X28031317Y-61004184D01*
X28031317Y-61004186D01*
X28028040Y-61033401D01*
X28010259Y-61191925D01*
X22643763Y-61191925D01*
X22639960Y-58913963D01*
X29220757Y-58913963D01*
X29237175Y-59109483D01*
X29291258Y-59298091D01*
X29380944Y-59472601D01*
X29432483Y-59537627D01*
X29484975Y-59603856D01*
X29502818Y-59626369D01*
X29652238Y-59753535D01*
X29658601Y-59757091D01*
X29817149Y-59845701D01*
X29817155Y-59845704D01*
X29823513Y-59849257D01*
X30010118Y-59909889D01*
X30083397Y-59918627D01*
X30197715Y-59932259D01*
X30197718Y-59932259D01*
X30204946Y-59933121D01*
X30316443Y-59924542D01*
X30393314Y-59918627D01*
X30393316Y-59918627D01*
X30400576Y-59918068D01*
X30589556Y-59865303D01*
X30596062Y-59862016D01*
X30596066Y-59862015D01*
X30758184Y-59780123D01*
X30758185Y-59780123D01*
X30764689Y-59776837D01*
X30919303Y-59656040D01*
X31047509Y-59507511D01*
X31130175Y-59361993D01*
X31140827Y-59343243D01*
X31140828Y-59343241D01*
X31144425Y-59336909D01*
X31206358Y-59150732D01*
X31211483Y-59110163D01*
X31240625Y-59038753D01*
X31301568Y-58991480D01*
X31319236Y-58985328D01*
X31344528Y-58978266D01*
X31344534Y-58978264D01*
X31351556Y-58976303D01*
X31358062Y-58973016D01*
X31358066Y-58973015D01*
X31520184Y-58891123D01*
X31520185Y-58891123D01*
X31526689Y-58887837D01*
X31667974Y-58777454D01*
X31675560Y-58771527D01*
X31675561Y-58771526D01*
X31681303Y-58767040D01*
X31712965Y-58730359D01*
X31776756Y-58687006D01*
X31853677Y-58681357D01*
X31871803Y-58686011D01*
X31923799Y-58702906D01*
X32032702Y-58715892D01*
X32111396Y-58725276D01*
X32111399Y-58725276D01*
X32118627Y-58726138D01*
X32230124Y-58717559D01*
X32306995Y-58711644D01*
X32306997Y-58711644D01*
X32314257Y-58711085D01*
X32503237Y-58658320D01*
X32509743Y-58655033D01*
X32509747Y-58655032D01*
X32647278Y-58585560D01*
X34318600Y-58585560D01*
X34335018Y-58781080D01*
X34337028Y-58788089D01*
X34337028Y-58788090D01*
X34383166Y-58948992D01*
X34389101Y-58969688D01*
X34478787Y-59144198D01*
X34483309Y-59149903D01*
X34586047Y-59279527D01*
X34600661Y-59297966D01*
X34750081Y-59425132D01*
X34756444Y-59428688D01*
X34914992Y-59517298D01*
X34914998Y-59517301D01*
X34921356Y-59520854D01*
X35107961Y-59581486D01*
X35181240Y-59590224D01*
X35295558Y-59603856D01*
X35295561Y-59603856D01*
X35302789Y-59604718D01*
X35414286Y-59596139D01*
X35491157Y-59590224D01*
X35491159Y-59590224D01*
X35498419Y-59589665D01*
X35570614Y-59569508D01*
X35680376Y-59538861D01*
X35680377Y-59538861D01*
X35687399Y-59536900D01*
X35693905Y-59533613D01*
X35693909Y-59533612D01*
X35732848Y-59513942D01*
X35808346Y-59498169D01*
X35861275Y-59513545D01*
X35862067Y-59511732D01*
X35868745Y-59514650D01*
X35875109Y-59518206D01*
X36061714Y-59578838D01*
X36170617Y-59591824D01*
X36249311Y-59601208D01*
X36249314Y-59601208D01*
X36256542Y-59602070D01*
X36368039Y-59593491D01*
X36444910Y-59587576D01*
X36444912Y-59587576D01*
X36452172Y-59587017D01*
X36524367Y-59566860D01*
X36634129Y-59536213D01*
X36634130Y-59536213D01*
X36641152Y-59534252D01*
X36647658Y-59530965D01*
X36647662Y-59530964D01*
X36746543Y-59481015D01*
X36787078Y-59460540D01*
X36862574Y-59444767D01*
X36922325Y-59462127D01*
X36922475Y-59461784D01*
X36925118Y-59462939D01*
X36926949Y-59463471D01*
X36935513Y-59468257D01*
X37122118Y-59528889D01*
X37231021Y-59541875D01*
X37309715Y-59551259D01*
X37309718Y-59551259D01*
X37316946Y-59552121D01*
X37428443Y-59543542D01*
X37505314Y-59537627D01*
X37505316Y-59537627D01*
X37512576Y-59537068D01*
X37641103Y-59501182D01*
X37694533Y-59486264D01*
X37694534Y-59486264D01*
X37701556Y-59484303D01*
X37708062Y-59481016D01*
X37708066Y-59481015D01*
X37870184Y-59399123D01*
X37870185Y-59399123D01*
X37876689Y-59395837D01*
X38031303Y-59275040D01*
X38159509Y-59126511D01*
X38239713Y-58985328D01*
X38252827Y-58962243D01*
X38252828Y-58962241D01*
X38256425Y-58955909D01*
X38318358Y-58769732D01*
X38322426Y-58737535D01*
X38334175Y-58644527D01*
X38342949Y-58575071D01*
X38343341Y-58547000D01*
X38324194Y-58351728D01*
X38267484Y-58163894D01*
X38249423Y-58129926D01*
X38178792Y-57997088D01*
X38178790Y-57997085D01*
X38175370Y-57990653D01*
X38170767Y-57985010D01*
X38170765Y-57985006D01*
X38055964Y-57844246D01*
X38051361Y-57838602D01*
X37900180Y-57713535D01*
X37893197Y-57709759D01*
X37872775Y-57698717D01*
X37727585Y-57620213D01*
X37597202Y-57579853D01*
X37547111Y-57564347D01*
X37547109Y-57564347D01*
X37540152Y-57562193D01*
X37532910Y-57561432D01*
X37532906Y-57561431D01*
X37352260Y-57542444D01*
X37352259Y-57542444D01*
X37345019Y-57541683D01*
X37149618Y-57559466D01*
X36961393Y-57614864D01*
X36830022Y-57683543D01*
X36754753Y-57700368D01*
X36690125Y-57682567D01*
X36673597Y-57673631D01*
X36673596Y-57673631D01*
X36667181Y-57670162D01*
X36536798Y-57629802D01*
X36486707Y-57614296D01*
X36486705Y-57614296D01*
X36479748Y-57612142D01*
X36472506Y-57611381D01*
X36472502Y-57611380D01*
X36291856Y-57592393D01*
X36291855Y-57592393D01*
X36284615Y-57591632D01*
X36089214Y-57609415D01*
X36082225Y-57611472D01*
X35907977Y-57662756D01*
X35907974Y-57662757D01*
X35900989Y-57664813D01*
X35894537Y-57668186D01*
X35894527Y-57668190D01*
X35868318Y-57681892D01*
X35793048Y-57698717D01*
X35728416Y-57680914D01*
X35719841Y-57676277D01*
X35719837Y-57676275D01*
X35713428Y-57672810D01*
X35543514Y-57620213D01*
X35532954Y-57616944D01*
X35532952Y-57616944D01*
X35525995Y-57614790D01*
X35518753Y-57614029D01*
X35518749Y-57614028D01*
X35338103Y-57595041D01*
X35338102Y-57595041D01*
X35330862Y-57594280D01*
X35135461Y-57612063D01*
X34947236Y-57667461D01*
X34773355Y-57758364D01*
X34767681Y-57762926D01*
X34675273Y-57837224D01*
X34620443Y-57881308D01*
X34494323Y-58031613D01*
X34399799Y-58203551D01*
X34340471Y-58390575D01*
X34339658Y-58397819D01*
X34339658Y-58397821D01*
X34319412Y-58578319D01*
X34318600Y-58585560D01*
X32647278Y-58585560D01*
X32671865Y-58573140D01*
X32671866Y-58573140D01*
X32678370Y-58569854D01*
X32832984Y-58449057D01*
X32961190Y-58300528D01*
X33023498Y-58190847D01*
X33054508Y-58136260D01*
X33054509Y-58136258D01*
X33058106Y-58129926D01*
X33120039Y-57943749D01*
X33127222Y-57886893D01*
X33143458Y-57758364D01*
X33144630Y-57749088D01*
X33145022Y-57721017D01*
X33125875Y-57525745D01*
X33069165Y-57337911D01*
X33043186Y-57289051D01*
X32980473Y-57171105D01*
X32980471Y-57171102D01*
X32977051Y-57164670D01*
X32972448Y-57159027D01*
X32972446Y-57159023D01*
X32857645Y-57018263D01*
X32853042Y-57012619D01*
X32701861Y-56887552D01*
X32529266Y-56794230D01*
X32345743Y-56737420D01*
X32280479Y-56696321D01*
X32258245Y-56665036D01*
X32222945Y-56598647D01*
X32219524Y-56592213D01*
X32210034Y-56580576D01*
X32107691Y-56455091D01*
X32095515Y-56440162D01*
X31944334Y-56315095D01*
X31771739Y-56221773D01*
X31641356Y-56181413D01*
X31591265Y-56165907D01*
X31591263Y-56165907D01*
X31584306Y-56163753D01*
X31577064Y-56162992D01*
X31577060Y-56162991D01*
X31396414Y-56144004D01*
X31396413Y-56144004D01*
X31389173Y-56143243D01*
X31193772Y-56161026D01*
X31005547Y-56216424D01*
X30831666Y-56307327D01*
X30825992Y-56311889D01*
X30750121Y-56372891D01*
X30678754Y-56430271D01*
X30552634Y-56580576D01*
X30458110Y-56752514D01*
X30398782Y-56939538D01*
X30397969Y-56946782D01*
X30397969Y-56946784D01*
X30389688Y-57020611D01*
X30376911Y-57134523D01*
X30377520Y-57141776D01*
X30377520Y-57141779D01*
X30379089Y-57160465D01*
X30365429Y-57236374D01*
X30323976Y-57289051D01*
X30290281Y-57316143D01*
X30284600Y-57320711D01*
X30158480Y-57471016D01*
X30063956Y-57642954D01*
X30004628Y-57829978D01*
X30003815Y-57837222D01*
X30003815Y-57837224D01*
X30001720Y-57855902D01*
X29973577Y-57927713D01*
X29913300Y-57975831D01*
X29895718Y-57982230D01*
X29849393Y-57995864D01*
X29675512Y-58086767D01*
X29669838Y-58091329D01*
X29530262Y-58203551D01*
X29522600Y-58209711D01*
X29396480Y-58360016D01*
X29301956Y-58531954D01*
X29242628Y-58718978D01*
X29241815Y-58726222D01*
X29241815Y-58726224D01*
X29221569Y-58906722D01*
X29220757Y-58913963D01*
X22639960Y-58913963D01*
X22631903Y-54087963D01*
X30236757Y-54087963D01*
X30253175Y-54283483D01*
X30255185Y-54290492D01*
X30255185Y-54290493D01*
X30276493Y-54364803D01*
X30307258Y-54472091D01*
X30396944Y-54646601D01*
X30518818Y-54800369D01*
X30668238Y-54927535D01*
X30674601Y-54931091D01*
X30833149Y-55019701D01*
X30833155Y-55019704D01*
X30839513Y-55023257D01*
X31026118Y-55083889D01*
X31099397Y-55092627D01*
X31213715Y-55106259D01*
X31213718Y-55106259D01*
X31220946Y-55107121D01*
X31332443Y-55098542D01*
X31409314Y-55092627D01*
X31409316Y-55092627D01*
X31416576Y-55092068D01*
X31496856Y-55069653D01*
X31598533Y-55041264D01*
X31598534Y-55041264D01*
X31605556Y-55039303D01*
X31612062Y-55036016D01*
X31612066Y-55036015D01*
X31774184Y-54954123D01*
X31774185Y-54954123D01*
X31780689Y-54950837D01*
X31924516Y-54838468D01*
X31929560Y-54834527D01*
X31929561Y-54834526D01*
X31935303Y-54830040D01*
X32063509Y-54681511D01*
X32137598Y-54551091D01*
X32156827Y-54517243D01*
X32156828Y-54517241D01*
X32160425Y-54510909D01*
X32222358Y-54324732D01*
X32228057Y-54279623D01*
X32237915Y-54201583D01*
X32246949Y-54130071D01*
X32247341Y-54102000D01*
X32228194Y-53906728D01*
X32171484Y-53718894D01*
X32158262Y-53694027D01*
X32082792Y-53552088D01*
X32082790Y-53552085D01*
X32079370Y-53545653D01*
X32074767Y-53540010D01*
X32074765Y-53540006D01*
X31969639Y-53411109D01*
X31955361Y-53393602D01*
X31838590Y-53297001D01*
X31834729Y-53293807D01*
X31790050Y-53230938D01*
X31782792Y-53154152D01*
X31814898Y-53084024D01*
X31837972Y-53061586D01*
X31929560Y-52990030D01*
X31929561Y-52990029D01*
X31935303Y-52985543D01*
X32063509Y-52837014D01*
X32123367Y-52731645D01*
X32156827Y-52672746D01*
X32156828Y-52672744D01*
X32160425Y-52666412D01*
X32222358Y-52480235D01*
X32226829Y-52444847D01*
X32227825Y-52436963D01*
X34935757Y-52436963D01*
X34952175Y-52632483D01*
X34954185Y-52639492D01*
X34954185Y-52639493D01*
X35001388Y-52804109D01*
X35006258Y-52821091D01*
X35095944Y-52995601D01*
X35134617Y-53044394D01*
X35191087Y-53115642D01*
X35217818Y-53149369D01*
X35367238Y-53276535D01*
X35373601Y-53280091D01*
X35532149Y-53368701D01*
X35532155Y-53368704D01*
X35538513Y-53372257D01*
X35725118Y-53432889D01*
X35834021Y-53445875D01*
X35912715Y-53455259D01*
X35912718Y-53455259D01*
X35919946Y-53456121D01*
X36031443Y-53447542D01*
X36108314Y-53441627D01*
X36108316Y-53441627D01*
X36115576Y-53441068D01*
X36213857Y-53413627D01*
X36297533Y-53390264D01*
X36297534Y-53390264D01*
X36304556Y-53388303D01*
X36311062Y-53385017D01*
X36311066Y-53385015D01*
X36406528Y-53336793D01*
X36482026Y-53321020D01*
X36541279Y-53338234D01*
X36541475Y-53337784D01*
X36544937Y-53339297D01*
X36546396Y-53339720D01*
X36554513Y-53344257D01*
X36741118Y-53404889D01*
X36814397Y-53413627D01*
X36928715Y-53427259D01*
X36928718Y-53427259D01*
X36935946Y-53428121D01*
X37047443Y-53419542D01*
X37124314Y-53413627D01*
X37124316Y-53413627D01*
X37131576Y-53413068D01*
X37177162Y-53400340D01*
X37254285Y-53399532D01*
X37321480Y-53437394D01*
X37360742Y-53503781D01*
X37365302Y-53560460D01*
X37349690Y-53699649D01*
X37348757Y-53707963D01*
X37365175Y-53903483D01*
X37367185Y-53910492D01*
X37367185Y-53910493D01*
X37410409Y-54061230D01*
X37419258Y-54092091D01*
X37508944Y-54266601D01*
X37630818Y-54420369D01*
X37780238Y-54547535D01*
X37813934Y-54566367D01*
X37945149Y-54639701D01*
X37945155Y-54639704D01*
X37951513Y-54643257D01*
X38138118Y-54703889D01*
X38247021Y-54716875D01*
X38325715Y-54726259D01*
X38325718Y-54726259D01*
X38332946Y-54727121D01*
X38360675Y-54724987D01*
X38413243Y-54720943D01*
X38489055Y-54735131D01*
X38547615Y-54785325D01*
X38573234Y-54858074D01*
X38559046Y-54933886D01*
X38543688Y-54957714D01*
X38544034Y-54957951D01*
X38539917Y-54963964D01*
X38535233Y-54969546D01*
X38440709Y-55141484D01*
X38381381Y-55328508D01*
X38380568Y-55335752D01*
X38380568Y-55335754D01*
X38370645Y-55424224D01*
X38359510Y-55523493D01*
X38375928Y-55719013D01*
X38430011Y-55907621D01*
X38519697Y-56082131D01*
X38524221Y-56087839D01*
X38524223Y-56087842D01*
X38630694Y-56222176D01*
X38661326Y-56292961D01*
X38661995Y-56331333D01*
X38651257Y-56427063D01*
X38667675Y-56622583D01*
X38669685Y-56629592D01*
X38669685Y-56629593D01*
X38716894Y-56794230D01*
X38721758Y-56811191D01*
X38811444Y-56985701D01*
X38832779Y-57012619D01*
X38889554Y-57084252D01*
X38920185Y-57155037D01*
X38911320Y-57231654D01*
X38886925Y-57272576D01*
X38873101Y-57289051D01*
X38831664Y-57338433D01*
X38831661Y-57338437D01*
X38826980Y-57344016D01*
X38732456Y-57515954D01*
X38673128Y-57702978D01*
X38672315Y-57710222D01*
X38672315Y-57710224D01*
X38652069Y-57890722D01*
X38651257Y-57897963D01*
X38667675Y-58093483D01*
X38669685Y-58100492D01*
X38669685Y-58100493D01*
X38677429Y-58127499D01*
X38721758Y-58282091D01*
X38811444Y-58456601D01*
X38933318Y-58610369D01*
X39082738Y-58737535D01*
X39089101Y-58741091D01*
X39247649Y-58829701D01*
X39247655Y-58829704D01*
X39254013Y-58833257D01*
X39440618Y-58893889D01*
X39513897Y-58902627D01*
X39628215Y-58916259D01*
X39628218Y-58916259D01*
X39635446Y-58917121D01*
X39746943Y-58908542D01*
X39823814Y-58902627D01*
X39823816Y-58902627D01*
X39831076Y-58902068D01*
X40020056Y-58849303D01*
X40026562Y-58846016D01*
X40026566Y-58846015D01*
X40188684Y-58764123D01*
X40188685Y-58764123D01*
X40195189Y-58760837D01*
X40349803Y-58640040D01*
X40478009Y-58491511D01*
X40564180Y-58339824D01*
X40571327Y-58327243D01*
X40571328Y-58327241D01*
X40574925Y-58320909D01*
X40636858Y-58134732D01*
X40661449Y-57940071D01*
X40661841Y-57912000D01*
X40642694Y-57716728D01*
X40632177Y-57681892D01*
X40588091Y-57535873D01*
X40585984Y-57528894D01*
X40493870Y-57355653D01*
X40489267Y-57350010D01*
X40489265Y-57350006D01*
X40424684Y-57270822D01*
X40393068Y-57200472D01*
X40400862Y-57123739D01*
X40427359Y-57079291D01*
X40473247Y-57026129D01*
X40473251Y-57026123D01*
X40478009Y-57020611D01*
X40550958Y-56892198D01*
X40571327Y-56856343D01*
X40571328Y-56856341D01*
X40574925Y-56850009D01*
X40636858Y-56663832D01*
X40661449Y-56469171D01*
X40661695Y-56451535D01*
X40661783Y-56445276D01*
X40661783Y-56445270D01*
X40661841Y-56441100D01*
X40642694Y-56245828D01*
X40633817Y-56216424D01*
X40588091Y-56064973D01*
X40585984Y-56057994D01*
X40582561Y-56051556D01*
X40497292Y-55891188D01*
X40497290Y-55891185D01*
X40493870Y-55884753D01*
X40424922Y-55800214D01*
X40391807Y-55759610D01*
X40360191Y-55689259D01*
X40359449Y-55646764D01*
X40369180Y-55569730D01*
X40369702Y-55565601D01*
X40370094Y-55537530D01*
X40354105Y-55374467D01*
X40366702Y-55298376D01*
X40389601Y-55262569D01*
X40436711Y-55207991D01*
X40441468Y-55202480D01*
X40508347Y-55084752D01*
X40534786Y-55038212D01*
X40534787Y-55038210D01*
X40538384Y-55031878D01*
X40600317Y-54845701D01*
X40602296Y-54830040D01*
X40615297Y-54727121D01*
X40624908Y-54651040D01*
X40625300Y-54622969D01*
X40606153Y-54427697D01*
X40549443Y-54239863D01*
X40529089Y-54201583D01*
X40460751Y-54073057D01*
X40460749Y-54073054D01*
X40457329Y-54066622D01*
X40452726Y-54060979D01*
X40452724Y-54060975D01*
X40337923Y-53920215D01*
X40333320Y-53914571D01*
X40224395Y-53824461D01*
X43444757Y-53824461D01*
X43461175Y-54019981D01*
X43463185Y-54026990D01*
X43463185Y-54026991D01*
X43493927Y-54134200D01*
X43515258Y-54208589D01*
X43604944Y-54383099D01*
X43726818Y-54536867D01*
X43876238Y-54664033D01*
X43882601Y-54667589D01*
X44041149Y-54756199D01*
X44041155Y-54756202D01*
X44047513Y-54759755D01*
X44234118Y-54820387D01*
X44343021Y-54833373D01*
X44421715Y-54842757D01*
X44421718Y-54842757D01*
X44428946Y-54843619D01*
X44540443Y-54835040D01*
X44617314Y-54829125D01*
X44617316Y-54829125D01*
X44624576Y-54828566D01*
X44746012Y-54794660D01*
X44806533Y-54777762D01*
X44806534Y-54777762D01*
X44813556Y-54775801D01*
X44820062Y-54772514D01*
X44820066Y-54772513D01*
X44982184Y-54690621D01*
X44982185Y-54690621D01*
X44988689Y-54687335D01*
X45143303Y-54566538D01*
X45271509Y-54418009D01*
X45350124Y-54279623D01*
X45364827Y-54253741D01*
X45364828Y-54253739D01*
X45368425Y-54247407D01*
X45430358Y-54061230D01*
X45454949Y-53866569D01*
X45455341Y-53838498D01*
X45436194Y-53643226D01*
X45379484Y-53455392D01*
X45366874Y-53431676D01*
X45357190Y-53413463D01*
X46616027Y-53413463D01*
X46632445Y-53608983D01*
X46634455Y-53615992D01*
X46634455Y-53615993D01*
X46640812Y-53638162D01*
X46686528Y-53797591D01*
X46776214Y-53972101D01*
X46898088Y-54125869D01*
X47047508Y-54253035D01*
X47053871Y-54256591D01*
X47212419Y-54345201D01*
X47212425Y-54345204D01*
X47218783Y-54348757D01*
X47405388Y-54409389D01*
X47500479Y-54420728D01*
X47592985Y-54431759D01*
X47592988Y-54431759D01*
X47600216Y-54432621D01*
X47711713Y-54424042D01*
X47788584Y-54418127D01*
X47788586Y-54418127D01*
X47795846Y-54417568D01*
X47868041Y-54397411D01*
X47977803Y-54366764D01*
X47977804Y-54366764D01*
X47984826Y-54364803D01*
X47991332Y-54361516D01*
X47991336Y-54361515D01*
X48153454Y-54279623D01*
X48153455Y-54279623D01*
X48159959Y-54276337D01*
X48314573Y-54155540D01*
X48442779Y-54007011D01*
X48539695Y-53836409D01*
X48601628Y-53650232D01*
X48603394Y-53636257D01*
X48615503Y-53540401D01*
X48626219Y-53455571D01*
X48626473Y-53437394D01*
X48626553Y-53431676D01*
X48626553Y-53431670D01*
X48626611Y-53427500D01*
X48607464Y-53232228D01*
X48550754Y-53044394D01*
X48531914Y-53008961D01*
X48462062Y-52877588D01*
X48462060Y-52877585D01*
X48458640Y-52871153D01*
X48454037Y-52865510D01*
X48454035Y-52865506D01*
X48339234Y-52724746D01*
X48334631Y-52719102D01*
X48183450Y-52594035D01*
X48010855Y-52500713D01*
X47850487Y-52451071D01*
X47830381Y-52444847D01*
X47830379Y-52444847D01*
X47823422Y-52442693D01*
X47816180Y-52441932D01*
X47816176Y-52441931D01*
X47635530Y-52422944D01*
X47635529Y-52422944D01*
X47628289Y-52422183D01*
X47432888Y-52439966D01*
X47244663Y-52495364D01*
X47070782Y-52586267D01*
X47065108Y-52590829D01*
X47022342Y-52625214D01*
X46917870Y-52709211D01*
X46791750Y-52859516D01*
X46697226Y-53031454D01*
X46637898Y-53218478D01*
X46637085Y-53225722D01*
X46637085Y-53225724D01*
X46616989Y-53404889D01*
X46616027Y-53413463D01*
X45357190Y-53413463D01*
X45290792Y-53288586D01*
X45290790Y-53288583D01*
X45287370Y-53282151D01*
X45282767Y-53276508D01*
X45282765Y-53276504D01*
X45167964Y-53135744D01*
X45163361Y-53130100D01*
X45012180Y-53005033D01*
X44839585Y-52911711D01*
X44670970Y-52859516D01*
X44659111Y-52855845D01*
X44659109Y-52855845D01*
X44652152Y-52853691D01*
X44644910Y-52852930D01*
X44644906Y-52852929D01*
X44464260Y-52833942D01*
X44464259Y-52833942D01*
X44457019Y-52833181D01*
X44261618Y-52850964D01*
X44073393Y-52906362D01*
X43899512Y-52997265D01*
X43893838Y-53001827D01*
X43763850Y-53106340D01*
X43746600Y-53120209D01*
X43620480Y-53270514D01*
X43525956Y-53442452D01*
X43466628Y-53629476D01*
X43465815Y-53636720D01*
X43465815Y-53636722D01*
X43457824Y-53707963D01*
X43444757Y-53824461D01*
X40224395Y-53824461D01*
X40182139Y-53789504D01*
X40009544Y-53696182D01*
X39879161Y-53655822D01*
X39829070Y-53640316D01*
X39829068Y-53640316D01*
X39822111Y-53638162D01*
X39814869Y-53637401D01*
X39814865Y-53637400D01*
X39634219Y-53618413D01*
X39634218Y-53618413D01*
X39626978Y-53617652D01*
X39581398Y-53621800D01*
X39495602Y-53629608D01*
X39419599Y-53616480D01*
X39360343Y-53567109D01*
X39339457Y-53524287D01*
X39318708Y-53455562D01*
X39283484Y-53338894D01*
X39247126Y-53270514D01*
X39194792Y-53172088D01*
X39194790Y-53172085D01*
X39191370Y-53165653D01*
X39186767Y-53160010D01*
X39186765Y-53160006D01*
X39087587Y-53038402D01*
X39067361Y-53013602D01*
X38916180Y-52888535D01*
X38743585Y-52795213D01*
X38608195Y-52753303D01*
X38563111Y-52739347D01*
X38563109Y-52739347D01*
X38556152Y-52737193D01*
X38548910Y-52736432D01*
X38548906Y-52736431D01*
X38368260Y-52717444D01*
X38368259Y-52717444D01*
X38361019Y-52716683D01*
X38165618Y-52734466D01*
X38158630Y-52736523D01*
X38158623Y-52736524D01*
X38135333Y-52743379D01*
X38058228Y-52745265D01*
X37990511Y-52708345D01*
X37950326Y-52642512D01*
X37945438Y-52581770D01*
X37961949Y-52451071D01*
X37962341Y-52423000D01*
X37943194Y-52227728D01*
X37886484Y-52039894D01*
X37841467Y-51955229D01*
X37797792Y-51873088D01*
X37797790Y-51873085D01*
X37794370Y-51866653D01*
X37789767Y-51861010D01*
X37789765Y-51861006D01*
X37741611Y-51801963D01*
X41539757Y-51801963D01*
X41556175Y-51997483D01*
X41558185Y-52004492D01*
X41558185Y-52004493D01*
X41570824Y-52048570D01*
X41610258Y-52186091D01*
X41699944Y-52360601D01*
X41821818Y-52514369D01*
X41971238Y-52641535D01*
X41977601Y-52645091D01*
X42136149Y-52733701D01*
X42136155Y-52733704D01*
X42142513Y-52737257D01*
X42329118Y-52797889D01*
X42438021Y-52810875D01*
X42516715Y-52820259D01*
X42516718Y-52820259D01*
X42523946Y-52821121D01*
X42635443Y-52812542D01*
X42712314Y-52806627D01*
X42712316Y-52806627D01*
X42719576Y-52806068D01*
X42908556Y-52753303D01*
X42915062Y-52750016D01*
X42915066Y-52750015D01*
X43077184Y-52668123D01*
X43077185Y-52668123D01*
X43083689Y-52664837D01*
X43238303Y-52544040D01*
X43366509Y-52395511D01*
X43452883Y-52243466D01*
X43459827Y-52231243D01*
X43459828Y-52231241D01*
X43463425Y-52224909D01*
X43525358Y-52038732D01*
X43549949Y-51844071D01*
X43550341Y-51816000D01*
X43531194Y-51620728D01*
X43474484Y-51432894D01*
X43435661Y-51359879D01*
X43385792Y-51266088D01*
X43385790Y-51266085D01*
X43382370Y-51259653D01*
X43377767Y-51254010D01*
X43377765Y-51254006D01*
X43262964Y-51113246D01*
X43258361Y-51107602D01*
X43107180Y-50982535D01*
X42934585Y-50889213D01*
X42798908Y-50847214D01*
X42754111Y-50833347D01*
X42754109Y-50833347D01*
X42747152Y-50831193D01*
X42739910Y-50830432D01*
X42739906Y-50830431D01*
X42559260Y-50811444D01*
X42559259Y-50811444D01*
X42552019Y-50810683D01*
X42356618Y-50828466D01*
X42168393Y-50883864D01*
X41994512Y-50974767D01*
X41988838Y-50979329D01*
X41910569Y-51042259D01*
X41841600Y-51097711D01*
X41715480Y-51248016D01*
X41620956Y-51419954D01*
X41561628Y-51606978D01*
X41560815Y-51614222D01*
X41560815Y-51614224D01*
X41541893Y-51782919D01*
X41539757Y-51801963D01*
X37741611Y-51801963D01*
X37685130Y-51732711D01*
X37670361Y-51714602D01*
X37519180Y-51589535D01*
X37346585Y-51496213D01*
X37185807Y-51446444D01*
X37166111Y-51440347D01*
X37166109Y-51440347D01*
X37159152Y-51438193D01*
X37151910Y-51437432D01*
X37151906Y-51437431D01*
X36971260Y-51418444D01*
X36971259Y-51418444D01*
X36964019Y-51417683D01*
X36768618Y-51435466D01*
X36580393Y-51490864D01*
X36509969Y-51527681D01*
X36492237Y-51536951D01*
X36416967Y-51553776D01*
X36352339Y-51535975D01*
X36337000Y-51527681D01*
X36336995Y-51527679D01*
X36330585Y-51524213D01*
X36251331Y-51499680D01*
X36150111Y-51468347D01*
X36150109Y-51468347D01*
X36143152Y-51466193D01*
X36135910Y-51465432D01*
X36135906Y-51465431D01*
X35955260Y-51446444D01*
X35955259Y-51446444D01*
X35948019Y-51445683D01*
X35752618Y-51463466D01*
X35564393Y-51518864D01*
X35390512Y-51609767D01*
X35384838Y-51614329D01*
X35306569Y-51677259D01*
X35237600Y-51732711D01*
X35111480Y-51883016D01*
X35016956Y-52054954D01*
X34957628Y-52241978D01*
X34956815Y-52249222D01*
X34956815Y-52249224D01*
X34939788Y-52401022D01*
X34935757Y-52436963D01*
X32227825Y-52436963D01*
X32246427Y-52289703D01*
X32246949Y-52285574D01*
X32247341Y-52257503D01*
X32228194Y-52062231D01*
X32171484Y-51874397D01*
X32167367Y-51866653D01*
X32160996Y-51854672D01*
X32143646Y-51779521D01*
X32156437Y-51724116D01*
X32156822Y-51723252D01*
X32160425Y-51716909D01*
X32222358Y-51530732D01*
X32223858Y-51518864D01*
X32234718Y-51432894D01*
X32246949Y-51336071D01*
X32247159Y-51321061D01*
X32247283Y-51312176D01*
X32247283Y-51312170D01*
X32247341Y-51308000D01*
X32228194Y-51112728D01*
X32175119Y-50936933D01*
X32515908Y-50936933D01*
X32532326Y-51132453D01*
X32586409Y-51321061D01*
X32676095Y-51495571D01*
X32797969Y-51649339D01*
X32947389Y-51776505D01*
X32979985Y-51794722D01*
X33112300Y-51868671D01*
X33112306Y-51868674D01*
X33118664Y-51872227D01*
X33305269Y-51932859D01*
X33378548Y-51941597D01*
X33492866Y-51955229D01*
X33492869Y-51955229D01*
X33500097Y-51956091D01*
X33611594Y-51947512D01*
X33688465Y-51941597D01*
X33688467Y-51941597D01*
X33695727Y-51941038D01*
X33884707Y-51888273D01*
X33891213Y-51884986D01*
X33891217Y-51884985D01*
X34053335Y-51803093D01*
X34053336Y-51803093D01*
X34059840Y-51799807D01*
X34214454Y-51679010D01*
X34342660Y-51530481D01*
X34439576Y-51359879D01*
X34501509Y-51173702D01*
X34503303Y-51159501D01*
X34532444Y-51088090D01*
X34593387Y-51040817D01*
X34668770Y-51030222D01*
X34769715Y-51042259D01*
X34769718Y-51042259D01*
X34776946Y-51043121D01*
X34888443Y-51034542D01*
X34965314Y-51028627D01*
X34965316Y-51028627D01*
X34972576Y-51028068D01*
X35070255Y-51000795D01*
X35154533Y-50977264D01*
X35154534Y-50977264D01*
X35161556Y-50975303D01*
X35168062Y-50972016D01*
X35168066Y-50972015D01*
X35330184Y-50890123D01*
X35330185Y-50890123D01*
X35336689Y-50886837D01*
X35433188Y-50811444D01*
X35485560Y-50770527D01*
X35485561Y-50770526D01*
X35491303Y-50766040D01*
X35619509Y-50617511D01*
X35700731Y-50474535D01*
X35712827Y-50453243D01*
X35712828Y-50453241D01*
X35716425Y-50446909D01*
X35778358Y-50260732D01*
X35802949Y-50066071D01*
X35803341Y-50038000D01*
X35801965Y-50023963D01*
X37094757Y-50023963D01*
X37111175Y-50219483D01*
X37113185Y-50226492D01*
X37113185Y-50226493D01*
X37140914Y-50323193D01*
X37165258Y-50408091D01*
X37254944Y-50582601D01*
X37376818Y-50736369D01*
X37526238Y-50863535D01*
X37532601Y-50867091D01*
X37691149Y-50955701D01*
X37691155Y-50955704D01*
X37697513Y-50959257D01*
X37884118Y-51019889D01*
X37957397Y-51028627D01*
X38071715Y-51042259D01*
X38071718Y-51042259D01*
X38078946Y-51043121D01*
X38190443Y-51034542D01*
X38267314Y-51028627D01*
X38267316Y-51028627D01*
X38274576Y-51028068D01*
X38372255Y-51000795D01*
X38456533Y-50977264D01*
X38456534Y-50977264D01*
X38463556Y-50975303D01*
X38470062Y-50972016D01*
X38470066Y-50972015D01*
X38632184Y-50890123D01*
X38632185Y-50890123D01*
X38638689Y-50886837D01*
X38735188Y-50811444D01*
X38787560Y-50770527D01*
X38787561Y-50770526D01*
X38793303Y-50766040D01*
X38921509Y-50617511D01*
X39002731Y-50474535D01*
X39014827Y-50453243D01*
X39014828Y-50453241D01*
X39018425Y-50446909D01*
X39080358Y-50260732D01*
X39104949Y-50066071D01*
X39105341Y-50038000D01*
X39086194Y-49842728D01*
X39029484Y-49654894D01*
X38997735Y-49595182D01*
X38940792Y-49488088D01*
X38940790Y-49488085D01*
X38937370Y-49481653D01*
X38932767Y-49476010D01*
X38932765Y-49476006D01*
X38817964Y-49335246D01*
X38813361Y-49329602D01*
X38662180Y-49204535D01*
X38533510Y-49134963D01*
X41793757Y-49134963D01*
X41810175Y-49330483D01*
X41812185Y-49337492D01*
X41812185Y-49337493D01*
X41838972Y-49430909D01*
X41864258Y-49519091D01*
X41953944Y-49693601D01*
X41998677Y-49750040D01*
X42061242Y-49828978D01*
X42075818Y-49847369D01*
X42225238Y-49974535D01*
X42231601Y-49978091D01*
X42390149Y-50066701D01*
X42390155Y-50066704D01*
X42396513Y-50070257D01*
X42583118Y-50130889D01*
X42656397Y-50139627D01*
X42770715Y-50153259D01*
X42770718Y-50153259D01*
X42777946Y-50154121D01*
X42889443Y-50145542D01*
X42966314Y-50139627D01*
X42966316Y-50139627D01*
X42973576Y-50139068D01*
X43045771Y-50118911D01*
X43155533Y-50088264D01*
X43155534Y-50088264D01*
X43162556Y-50086303D01*
X43169062Y-50083016D01*
X43169066Y-50083015D01*
X43331184Y-50001123D01*
X43331185Y-50001123D01*
X43337689Y-49997837D01*
X43492303Y-49877040D01*
X43620509Y-49728511D01*
X43689525Y-49607022D01*
X43713827Y-49564243D01*
X43713828Y-49564241D01*
X43717425Y-49557909D01*
X43779358Y-49371732D01*
X43785267Y-49324961D01*
X43789774Y-49289280D01*
X43803949Y-49177071D01*
X43804341Y-49149000D01*
X43785194Y-48953728D01*
X43728484Y-48765894D01*
X43657534Y-48632456D01*
X43639792Y-48599088D01*
X43639790Y-48599085D01*
X43636370Y-48592653D01*
X43631767Y-48587010D01*
X43631765Y-48587006D01*
X43523301Y-48454016D01*
X43512361Y-48440602D01*
X43361180Y-48315535D01*
X43188585Y-48222213D01*
X43043791Y-48177392D01*
X43008111Y-48166347D01*
X43008109Y-48166347D01*
X43001152Y-48164193D01*
X42993910Y-48163432D01*
X42993906Y-48163431D01*
X42813260Y-48144444D01*
X42813259Y-48144444D01*
X42806019Y-48143683D01*
X42610618Y-48161466D01*
X42422393Y-48216864D01*
X42248512Y-48307767D01*
X42095600Y-48430711D01*
X41969480Y-48581016D01*
X41874956Y-48752954D01*
X41815628Y-48939978D01*
X41814815Y-48947222D01*
X41814815Y-48947224D01*
X41796642Y-49109240D01*
X41793757Y-49134963D01*
X38533510Y-49134963D01*
X38489585Y-49111213D01*
X38359202Y-49070853D01*
X38309111Y-49055347D01*
X38309109Y-49055347D01*
X38302152Y-49053193D01*
X38294910Y-49052432D01*
X38294906Y-49052431D01*
X38114260Y-49033444D01*
X38114259Y-49033444D01*
X38107019Y-49032683D01*
X37911618Y-49050466D01*
X37723393Y-49105864D01*
X37549512Y-49196767D01*
X37396600Y-49319711D01*
X37270480Y-49470016D01*
X37175956Y-49641954D01*
X37116628Y-49828978D01*
X37115815Y-49836222D01*
X37115815Y-49836224D01*
X37095569Y-50016722D01*
X37094757Y-50023963D01*
X35801965Y-50023963D01*
X35784194Y-49842728D01*
X35727484Y-49654894D01*
X35695735Y-49595182D01*
X35638792Y-49488088D01*
X35638790Y-49488085D01*
X35635370Y-49481653D01*
X35630767Y-49476010D01*
X35630765Y-49476006D01*
X35515964Y-49335246D01*
X35511361Y-49329602D01*
X35360180Y-49204535D01*
X35187585Y-49111213D01*
X35057202Y-49070853D01*
X35007111Y-49055347D01*
X35007109Y-49055347D01*
X35000152Y-49053193D01*
X34992910Y-49052432D01*
X34992906Y-49052431D01*
X34812260Y-49033444D01*
X34812259Y-49033444D01*
X34805019Y-49032683D01*
X34609618Y-49050466D01*
X34602629Y-49052523D01*
X34428381Y-49103807D01*
X34428378Y-49103808D01*
X34421393Y-49105864D01*
X34414935Y-49109240D01*
X34414933Y-49109241D01*
X34359564Y-49138187D01*
X34284294Y-49155012D01*
X34219666Y-49137211D01*
X34171585Y-49111213D01*
X34102229Y-49089744D01*
X33991111Y-49055347D01*
X33991109Y-49055347D01*
X33984152Y-49053193D01*
X33976910Y-49052432D01*
X33976906Y-49052431D01*
X33796260Y-49033444D01*
X33796259Y-49033444D01*
X33789019Y-49032683D01*
X33593618Y-49050466D01*
X33405393Y-49105864D01*
X33231512Y-49196767D01*
X33078600Y-49319711D01*
X32952480Y-49470016D01*
X32857956Y-49641954D01*
X32798628Y-49828978D01*
X32797815Y-49836222D01*
X32797815Y-49836224D01*
X32777569Y-50016722D01*
X32776757Y-50023963D01*
X32783094Y-50099434D01*
X32791279Y-50196907D01*
X32777621Y-50272817D01*
X32756943Y-50305150D01*
X32691631Y-50382986D01*
X32597107Y-50554924D01*
X32537779Y-50741948D01*
X32536966Y-50749192D01*
X32536966Y-50749194D01*
X32517930Y-50918902D01*
X32515908Y-50936933D01*
X32175119Y-50936933D01*
X32171484Y-50924894D01*
X32161209Y-50905570D01*
X32082792Y-50758088D01*
X32082790Y-50758085D01*
X32079370Y-50751653D01*
X32074767Y-50746010D01*
X32074765Y-50746006D01*
X31959964Y-50605246D01*
X31955361Y-50599602D01*
X31804180Y-50474535D01*
X31631585Y-50381213D01*
X31501202Y-50340853D01*
X31451111Y-50325347D01*
X31451109Y-50325347D01*
X31444152Y-50323193D01*
X31436910Y-50322432D01*
X31436906Y-50322431D01*
X31256260Y-50303444D01*
X31256259Y-50303444D01*
X31249019Y-50302683D01*
X31053618Y-50320466D01*
X30865393Y-50375864D01*
X30691512Y-50466767D01*
X30685838Y-50471329D01*
X30555498Y-50576125D01*
X30538600Y-50589711D01*
X30412480Y-50740016D01*
X30317956Y-50911954D01*
X30258628Y-51098978D01*
X30257815Y-51106222D01*
X30257815Y-51106224D01*
X30237569Y-51286722D01*
X30236757Y-51293963D01*
X30253175Y-51489483D01*
X30255185Y-51496492D01*
X30255185Y-51496493D01*
X30300368Y-51654062D01*
X30307258Y-51678091D01*
X30324919Y-51712456D01*
X30341218Y-51787841D01*
X30324117Y-51848277D01*
X30324338Y-51848372D01*
X30323610Y-51850070D01*
X30322968Y-51852340D01*
X30317956Y-51861457D01*
X30258628Y-52048481D01*
X30257815Y-52055725D01*
X30257815Y-52055727D01*
X30237703Y-52235028D01*
X30236757Y-52243466D01*
X30253175Y-52438986D01*
X30307258Y-52627594D01*
X30396944Y-52802104D01*
X30518818Y-52955872D01*
X30600126Y-53025070D01*
X30649767Y-53067318D01*
X30693563Y-53130805D01*
X30699749Y-53207684D01*
X30666666Y-53277357D01*
X30646560Y-53296909D01*
X30544285Y-53379140D01*
X30538600Y-53383711D01*
X30412480Y-53534016D01*
X30317956Y-53705954D01*
X30258628Y-53892978D01*
X30257815Y-53900222D01*
X30257815Y-53900224D01*
X30239151Y-54066622D01*
X30236757Y-54087963D01*
X22631903Y-54087963D01*
X22623422Y-49007963D01*
X29093757Y-49007963D01*
X29110175Y-49203483D01*
X29164258Y-49392091D01*
X29253944Y-49566601D01*
X29375818Y-49720369D01*
X29525238Y-49847535D01*
X29531601Y-49851091D01*
X29690149Y-49939701D01*
X29690155Y-49939704D01*
X29696513Y-49943257D01*
X29883118Y-50003889D01*
X29956397Y-50012627D01*
X30070715Y-50026259D01*
X30070718Y-50026259D01*
X30077946Y-50027121D01*
X30189443Y-50018542D01*
X30266314Y-50012627D01*
X30266316Y-50012627D01*
X30273576Y-50012068D01*
X30408002Y-49974535D01*
X30455533Y-49961264D01*
X30455534Y-49961264D01*
X30462556Y-49959303D01*
X30469062Y-49956016D01*
X30469066Y-49956015D01*
X30631184Y-49874123D01*
X30631185Y-49874123D01*
X30637689Y-49870837D01*
X30792303Y-49750040D01*
X30920509Y-49601511D01*
X31017425Y-49430909D01*
X31079358Y-49244732D01*
X31103949Y-49050071D01*
X31104341Y-49022000D01*
X31085194Y-48826728D01*
X31028484Y-48638894D01*
X30991916Y-48570120D01*
X30939792Y-48472088D01*
X30939790Y-48472085D01*
X30936370Y-48465653D01*
X30931767Y-48460010D01*
X30931765Y-48460006D01*
X30816964Y-48319246D01*
X30812361Y-48313602D01*
X30661180Y-48188535D01*
X30488585Y-48095213D01*
X30337427Y-48048422D01*
X30308111Y-48039347D01*
X30308109Y-48039347D01*
X30301152Y-48037193D01*
X30293910Y-48036432D01*
X30293906Y-48036431D01*
X30113260Y-48017444D01*
X30113259Y-48017444D01*
X30106019Y-48016683D01*
X29910618Y-48034466D01*
X29722393Y-48089864D01*
X29548512Y-48180767D01*
X29542838Y-48185329D01*
X29430729Y-48275467D01*
X29395600Y-48303711D01*
X29269480Y-48454016D01*
X29174956Y-48625954D01*
X29115628Y-48812978D01*
X29114815Y-48820222D01*
X29114815Y-48820224D01*
X29094569Y-49000722D01*
X29093757Y-49007963D01*
X22623422Y-49007963D01*
X22620911Y-47503655D01*
X23559511Y-47503655D01*
X23590355Y-47640518D01*
X23594003Y-47652157D01*
X23673414Y-47847725D01*
X23678910Y-47858606D01*
X23789190Y-48038566D01*
X23796403Y-48048422D01*
X23934591Y-48207950D01*
X23943311Y-48216489D01*
X24105716Y-48351320D01*
X24115686Y-48358302D01*
X24297945Y-48464805D01*
X24308920Y-48470064D01*
X24506127Y-48545370D01*
X24517817Y-48548766D01*
X24618778Y-48569306D01*
X24634765Y-48568328D01*
X24638000Y-48561840D01*
X24638000Y-48556016D01*
X25146000Y-48556016D01*
X25150145Y-48571487D01*
X25159271Y-48573932D01*
X25169244Y-48572654D01*
X25181167Y-48570120D01*
X25383348Y-48509463D01*
X25394691Y-48505017D01*
X25584245Y-48412156D01*
X25594715Y-48405915D01*
X25766552Y-48283345D01*
X25775874Y-48275467D01*
X25925381Y-48126480D01*
X25933281Y-48117198D01*
X26056451Y-47945789D01*
X26062734Y-47935332D01*
X26156254Y-47746109D01*
X26160742Y-47734775D01*
X26222100Y-47532822D01*
X26224680Y-47520890D01*
X26225791Y-47512447D01*
X26223700Y-47496569D01*
X26215083Y-47493000D01*
X25165616Y-47493000D01*
X25150145Y-47497145D01*
X25146000Y-47512616D01*
X25146000Y-48556016D01*
X24638000Y-48556016D01*
X24638000Y-47512616D01*
X24633855Y-47497145D01*
X24618384Y-47493000D01*
X23576726Y-47493000D01*
X23561255Y-47497145D01*
X23559511Y-47503655D01*
X22620911Y-47503655D01*
X22614744Y-43809639D01*
X23441500Y-43809639D01*
X23441501Y-45588360D01*
X23456956Y-45705762D01*
X23460695Y-45714788D01*
X23460695Y-45714789D01*
X23500101Y-45809922D01*
X23517464Y-45851841D01*
X23613718Y-45977282D01*
X23739159Y-46073536D01*
X23800293Y-46098859D01*
X23816167Y-46105434D01*
X23877356Y-46152387D01*
X23906871Y-46223645D01*
X23896804Y-46300113D01*
X23866868Y-46346033D01*
X23837248Y-46377029D01*
X23829573Y-46386505D01*
X23710621Y-46560883D01*
X23704607Y-46571470D01*
X23615734Y-46762931D01*
X23611524Y-46774372D01*
X23556542Y-46972629D01*
X23557902Y-46981319D01*
X23567435Y-46985000D01*
X26208843Y-46985000D01*
X26224314Y-46980855D01*
X26225916Y-46974875D01*
X26183445Y-46805793D01*
X26179516Y-46794254D01*
X26095350Y-46600685D01*
X26092282Y-46594963D01*
X45095757Y-46594963D01*
X45112175Y-46790483D01*
X45114185Y-46797492D01*
X45114185Y-46797493D01*
X45135394Y-46871456D01*
X45166258Y-46979091D01*
X45255944Y-47153601D01*
X45377818Y-47307369D01*
X45527238Y-47434535D01*
X45533601Y-47438091D01*
X45692149Y-47526701D01*
X45692155Y-47526704D01*
X45698513Y-47530257D01*
X45885118Y-47590889D01*
X45958397Y-47599627D01*
X46072715Y-47613259D01*
X46072718Y-47613259D01*
X46079946Y-47614121D01*
X46191443Y-47605542D01*
X46268314Y-47599627D01*
X46268316Y-47599627D01*
X46275576Y-47599068D01*
X46464556Y-47546303D01*
X46471062Y-47543016D01*
X46471066Y-47543015D01*
X46633184Y-47461123D01*
X46633185Y-47461123D01*
X46639689Y-47457837D01*
X46794303Y-47337040D01*
X46922509Y-47188511D01*
X47019425Y-47017909D01*
X47046724Y-46935846D01*
X47089181Y-46871456D01*
X47158146Y-46836921D01*
X47205746Y-46834926D01*
X47310333Y-46847397D01*
X47342716Y-46851259D01*
X47342717Y-46851259D01*
X47349946Y-46852121D01*
X47461443Y-46843542D01*
X47538314Y-46837627D01*
X47538316Y-46837627D01*
X47545576Y-46837068D01*
X47657589Y-46805793D01*
X47727533Y-46786264D01*
X47727534Y-46786264D01*
X47734556Y-46784303D01*
X47741062Y-46781016D01*
X47741066Y-46781015D01*
X47903184Y-46699123D01*
X47903185Y-46699123D01*
X47909689Y-46695837D01*
X48064303Y-46575040D01*
X48192509Y-46426511D01*
X48252367Y-46321142D01*
X48285827Y-46262243D01*
X48285828Y-46262241D01*
X48289425Y-46255909D01*
X48351358Y-46069732D01*
X48375949Y-45875071D01*
X48376204Y-45856841D01*
X48376283Y-45851176D01*
X48376283Y-45851170D01*
X48376341Y-45847000D01*
X48357194Y-45651728D01*
X48348679Y-45623523D01*
X48302591Y-45470873D01*
X48300484Y-45463894D01*
X48208370Y-45290653D01*
X48203767Y-45285010D01*
X48203765Y-45285006D01*
X48088964Y-45144246D01*
X48084361Y-45138602D01*
X47933180Y-45013535D01*
X47760585Y-44920213D01*
X47630202Y-44879853D01*
X47580111Y-44864347D01*
X47580109Y-44864347D01*
X47573152Y-44862193D01*
X47565910Y-44861432D01*
X47565906Y-44861431D01*
X47385260Y-44842444D01*
X47385259Y-44842444D01*
X47378019Y-44841683D01*
X47182618Y-44859466D01*
X46994393Y-44914864D01*
X46820512Y-45005767D01*
X46667600Y-45128711D01*
X46541480Y-45279016D01*
X46446956Y-45450954D01*
X46444753Y-45457899D01*
X46444752Y-45457901D01*
X46425879Y-45517397D01*
X46384325Y-45582374D01*
X46315849Y-45617868D01*
X46268281Y-45620528D01*
X46108019Y-45603683D01*
X45912618Y-45621466D01*
X45724393Y-45676864D01*
X45550512Y-45767767D01*
X45544838Y-45772329D01*
X45450950Y-45847817D01*
X45397600Y-45890711D01*
X45271480Y-46041016D01*
X45176956Y-46212954D01*
X45117628Y-46399978D01*
X45116815Y-46407222D01*
X45116815Y-46407224D01*
X45098392Y-46571470D01*
X45095757Y-46594963D01*
X26092282Y-46594963D01*
X26089590Y-46589942D01*
X25974937Y-46412716D01*
X25967504Y-46403063D01*
X25913588Y-46343810D01*
X25878213Y-46275273D01*
X25881846Y-46198230D01*
X25923514Y-46133326D01*
X25966773Y-46105873D01*
X26035817Y-46077274D01*
X26035818Y-46077274D01*
X26044841Y-46073536D01*
X26170282Y-45977282D01*
X26266536Y-45851841D01*
X26283900Y-45809922D01*
X26323307Y-45714784D01*
X26327044Y-45705762D01*
X26330404Y-45680240D01*
X26341863Y-45593203D01*
X26341863Y-45593196D01*
X26342500Y-45588361D01*
X26342499Y-43809640D01*
X26327044Y-43692238D01*
X26310014Y-43651123D01*
X26270274Y-43555183D01*
X26270274Y-43555182D01*
X26266869Y-43546963D01*
X32268757Y-43546963D01*
X32285175Y-43742483D01*
X32287185Y-43749492D01*
X32287185Y-43749493D01*
X32303043Y-43804796D01*
X32339258Y-43931091D01*
X32428944Y-44105601D01*
X32550818Y-44259369D01*
X32700238Y-44386535D01*
X32706601Y-44390091D01*
X32865149Y-44478701D01*
X32865155Y-44478704D01*
X32871513Y-44482257D01*
X33058118Y-44542889D01*
X33131397Y-44551627D01*
X33245715Y-44565259D01*
X33245718Y-44565259D01*
X33252946Y-44566121D01*
X33364443Y-44557542D01*
X33441314Y-44551627D01*
X33441316Y-44551627D01*
X33448576Y-44551068D01*
X33637556Y-44498303D01*
X33644062Y-44495016D01*
X33644066Y-44495015D01*
X33806184Y-44413123D01*
X33806185Y-44413123D01*
X33812689Y-44409837D01*
X33848563Y-44381809D01*
X33945776Y-44305859D01*
X34016773Y-44275723D01*
X34093326Y-44285123D01*
X34134079Y-44309804D01*
X34224238Y-44386535D01*
X34230601Y-44390091D01*
X34389149Y-44478701D01*
X34389155Y-44478704D01*
X34395513Y-44482257D01*
X34582118Y-44542889D01*
X34655397Y-44551627D01*
X34769715Y-44565259D01*
X34769718Y-44565259D01*
X34776946Y-44566121D01*
X34888443Y-44557542D01*
X34965314Y-44551627D01*
X34965316Y-44551627D01*
X34972576Y-44551068D01*
X35161556Y-44498303D01*
X35168062Y-44495016D01*
X35168066Y-44495015D01*
X35330184Y-44413123D01*
X35330185Y-44413123D01*
X35336689Y-44409837D01*
X35491303Y-44289040D01*
X35619509Y-44140511D01*
X35716425Y-43969909D01*
X35778358Y-43783732D01*
X35802949Y-43589071D01*
X35803341Y-43561000D01*
X35790535Y-43430400D01*
X35803132Y-43354309D01*
X35852087Y-43294709D01*
X35924283Y-43267572D01*
X35970817Y-43270336D01*
X35972190Y-43270638D01*
X35979118Y-43272889D01*
X35986355Y-43273752D01*
X36166715Y-43295259D01*
X36166718Y-43295259D01*
X36173946Y-43296121D01*
X36289507Y-43287229D01*
X36362314Y-43281627D01*
X36362316Y-43281627D01*
X36369576Y-43281068D01*
X36408013Y-43270336D01*
X36415656Y-43268202D01*
X36492780Y-43267394D01*
X36552295Y-43298242D01*
X36586734Y-43327553D01*
X36630531Y-43391038D01*
X36636718Y-43467917D01*
X36608375Y-43531726D01*
X36593464Y-43551159D01*
X36532956Y-43697238D01*
X36531681Y-43706919D01*
X36531681Y-43706921D01*
X36518796Y-43804797D01*
X36517500Y-43814639D01*
X36517501Y-45593360D01*
X36532956Y-45710762D01*
X36593464Y-45856841D01*
X36689718Y-45982282D01*
X36815159Y-46078536D01*
X36824182Y-46082274D01*
X36824183Y-46082274D01*
X36949167Y-46134044D01*
X36961238Y-46139044D01*
X36970919Y-46140319D01*
X36970921Y-46140319D01*
X37073797Y-46153863D01*
X37073804Y-46153863D01*
X37078639Y-46154500D01*
X37967908Y-46154500D01*
X38857360Y-46154499D01*
X38974762Y-46139044D01*
X38986833Y-46134044D01*
X39111817Y-46082274D01*
X39111818Y-46082274D01*
X39120841Y-46078536D01*
X39246282Y-45982282D01*
X39342536Y-45856841D01*
X39345602Y-45849439D01*
X39399514Y-45795526D01*
X39474014Y-45775563D01*
X39548514Y-45795525D01*
X39569191Y-45809922D01*
X39673176Y-45896252D01*
X39879112Y-46016591D01*
X40101937Y-46101680D01*
X40335666Y-46149233D01*
X40341775Y-46149457D01*
X40567908Y-46157749D01*
X40567912Y-46157749D01*
X40574025Y-46157973D01*
X40606123Y-46153861D01*
X40804538Y-46128443D01*
X40804541Y-46128442D01*
X40810609Y-46127665D01*
X41039068Y-46059125D01*
X41253264Y-45954191D01*
X41447445Y-45815683D01*
X41616397Y-45647320D01*
X41619962Y-45642358D01*
X41619966Y-45642354D01*
X41752014Y-45458589D01*
X41752016Y-45458585D01*
X41755582Y-45453623D01*
X41841879Y-45279016D01*
X41858552Y-45245281D01*
X41858553Y-45245277D01*
X41861263Y-45239795D01*
X41930600Y-45011577D01*
X41931810Y-45002392D01*
X41961215Y-44779030D01*
X41961733Y-44775099D01*
X41963471Y-44704000D01*
X41946721Y-44500264D01*
X41944428Y-44472376D01*
X41944428Y-44472374D01*
X41943927Y-44466284D01*
X41903632Y-44305859D01*
X41887310Y-44240880D01*
X41885821Y-44234952D01*
X41883387Y-44229355D01*
X41883385Y-44229348D01*
X41793151Y-44021826D01*
X41790712Y-44016216D01*
X41661155Y-43815951D01*
X41500629Y-43639536D01*
X41313445Y-43491707D01*
X41308092Y-43488752D01*
X41308089Y-43488750D01*
X41198885Y-43428467D01*
X41104631Y-43376436D01*
X40879794Y-43296817D01*
X40873779Y-43295746D01*
X40873777Y-43295745D01*
X40746313Y-43273040D01*
X40644972Y-43254988D01*
X40638859Y-43254913D01*
X40638856Y-43254913D01*
X40539031Y-43253694D01*
X40406471Y-43252074D01*
X40387428Y-43254988D01*
X40176735Y-43287229D01*
X40176733Y-43287230D01*
X40170698Y-43288153D01*
X39943982Y-43362255D01*
X39732414Y-43472390D01*
X39727529Y-43476057D01*
X39727527Y-43476059D01*
X39653382Y-43531729D01*
X39571512Y-43593200D01*
X39562126Y-43600247D01*
X39490564Y-43629015D01*
X39414205Y-43618148D01*
X39353510Y-43570557D01*
X39345630Y-43558627D01*
X39342536Y-43551159D01*
X39332754Y-43538410D01*
X39252228Y-43433467D01*
X39246282Y-43425718D01*
X39120841Y-43329464D01*
X39038995Y-43295562D01*
X38983784Y-43272693D01*
X38974762Y-43268956D01*
X38965081Y-43267681D01*
X38965079Y-43267681D01*
X38862203Y-43254137D01*
X38862196Y-43254137D01*
X38857361Y-43253500D01*
X38842076Y-43253500D01*
X38215240Y-43253501D01*
X38140741Y-43233539D01*
X38086203Y-43179001D01*
X38066241Y-43104501D01*
X38085686Y-43030903D01*
X38125827Y-42960243D01*
X38125828Y-42960241D01*
X38129425Y-42953909D01*
X38185626Y-42784963D01*
X43825757Y-42784963D01*
X43842175Y-42980483D01*
X43896258Y-43169091D01*
X43985944Y-43343601D01*
X44107818Y-43497369D01*
X44257238Y-43624535D01*
X44263601Y-43628091D01*
X44422149Y-43716701D01*
X44422155Y-43716704D01*
X44428513Y-43720257D01*
X44615118Y-43780889D01*
X44724021Y-43793875D01*
X44802715Y-43803259D01*
X44802718Y-43803259D01*
X44809946Y-43804121D01*
X44921443Y-43795542D01*
X44998314Y-43789627D01*
X44998316Y-43789627D01*
X45005576Y-43789068D01*
X45134791Y-43752990D01*
X45187533Y-43738264D01*
X45187534Y-43738264D01*
X45194556Y-43736303D01*
X45201062Y-43733016D01*
X45201066Y-43733015D01*
X45363184Y-43651123D01*
X45363185Y-43651123D01*
X45369689Y-43647837D01*
X45481882Y-43560183D01*
X45518560Y-43531527D01*
X45518561Y-43531526D01*
X45524303Y-43527040D01*
X45652509Y-43378511D01*
X45715470Y-43267681D01*
X45745827Y-43214243D01*
X45745828Y-43214241D01*
X45749425Y-43207909D01*
X45811358Y-43021732D01*
X45835949Y-42827071D01*
X45836341Y-42799000D01*
X45817194Y-42603728D01*
X45808679Y-42575523D01*
X45762591Y-42422873D01*
X45760484Y-42415894D01*
X45721845Y-42343224D01*
X45671792Y-42249088D01*
X45671790Y-42249085D01*
X45668370Y-42242653D01*
X45663767Y-42237010D01*
X45663765Y-42237006D01*
X45548964Y-42096246D01*
X45544361Y-42090602D01*
X45393180Y-41965535D01*
X45220585Y-41872213D01*
X45058838Y-41822144D01*
X45040111Y-41816347D01*
X45040109Y-41816347D01*
X45033152Y-41814193D01*
X45025910Y-41813432D01*
X45025906Y-41813431D01*
X44845260Y-41794444D01*
X44845259Y-41794444D01*
X44838019Y-41793683D01*
X44642618Y-41811466D01*
X44454393Y-41866864D01*
X44280512Y-41957767D01*
X44127600Y-42080711D01*
X44001480Y-42231016D01*
X43906956Y-42402954D01*
X43847628Y-42589978D01*
X43846815Y-42597222D01*
X43846815Y-42597224D01*
X43826569Y-42777722D01*
X43825757Y-42784963D01*
X38185626Y-42784963D01*
X38191358Y-42767732D01*
X38215949Y-42573071D01*
X38216341Y-42545000D01*
X38197194Y-42349728D01*
X38140484Y-42161894D01*
X38130209Y-42142570D01*
X38051792Y-41995088D01*
X38051790Y-41995085D01*
X38048370Y-41988653D01*
X38043767Y-41983010D01*
X38043765Y-41983006D01*
X37928964Y-41842246D01*
X37924361Y-41836602D01*
X37773180Y-41711535D01*
X37600585Y-41618213D01*
X37444317Y-41569840D01*
X37420111Y-41562347D01*
X37420109Y-41562347D01*
X37413152Y-41560193D01*
X37405910Y-41559432D01*
X37405906Y-41559431D01*
X37225260Y-41540444D01*
X37225259Y-41540444D01*
X37218019Y-41539683D01*
X37022618Y-41557466D01*
X37015629Y-41559523D01*
X36991933Y-41566497D01*
X36914827Y-41568381D01*
X36854889Y-41538367D01*
X36757180Y-41457535D01*
X36584585Y-41364213D01*
X36454202Y-41323853D01*
X36404111Y-41308347D01*
X36404109Y-41308347D01*
X36397152Y-41306193D01*
X36389910Y-41305432D01*
X36389906Y-41305431D01*
X36209260Y-41286444D01*
X36209259Y-41286444D01*
X36202019Y-41285683D01*
X36006618Y-41303466D01*
X35818393Y-41358864D01*
X35644512Y-41449767D01*
X35638838Y-41454329D01*
X35533881Y-41538716D01*
X35463311Y-41569840D01*
X35396460Y-41564931D01*
X35388119Y-41562349D01*
X35388113Y-41562348D01*
X35381152Y-41560193D01*
X35373910Y-41559432D01*
X35373906Y-41559431D01*
X35193260Y-41540444D01*
X35193259Y-41540444D01*
X35186019Y-41539683D01*
X34990618Y-41557466D01*
X34802393Y-41612864D01*
X34628512Y-41703767D01*
X34622838Y-41708329D01*
X34492003Y-41813523D01*
X34475600Y-41826711D01*
X34349480Y-41977016D01*
X34254956Y-42148954D01*
X34195628Y-42335978D01*
X34194815Y-42343222D01*
X34194815Y-42343224D01*
X34188115Y-42402954D01*
X34173757Y-42530963D01*
X34182262Y-42632240D01*
X34186644Y-42684429D01*
X34172986Y-42760338D01*
X34131524Y-42813023D01*
X34128848Y-42815175D01*
X34058278Y-42846293D01*
X33981602Y-42837957D01*
X33940519Y-42813851D01*
X33841803Y-42732185D01*
X33841792Y-42732177D01*
X33836180Y-42727535D01*
X33663585Y-42634213D01*
X33520684Y-42589978D01*
X33483111Y-42578347D01*
X33483109Y-42578347D01*
X33476152Y-42576193D01*
X33468910Y-42575432D01*
X33468906Y-42575431D01*
X33288260Y-42556444D01*
X33288259Y-42556444D01*
X33281019Y-42555683D01*
X33085618Y-42573466D01*
X32897393Y-42628864D01*
X32723512Y-42719767D01*
X32717838Y-42724329D01*
X32630129Y-42794849D01*
X32570600Y-42842711D01*
X32444480Y-42993016D01*
X32349956Y-43164954D01*
X32290628Y-43351978D01*
X32289815Y-43359222D01*
X32289815Y-43359224D01*
X32270992Y-43527040D01*
X32268757Y-43546963D01*
X26266869Y-43546963D01*
X26266536Y-43546159D01*
X26170282Y-43420718D01*
X26044841Y-43324464D01*
X25983021Y-43298857D01*
X25907784Y-43267693D01*
X25898762Y-43263956D01*
X25889081Y-43262681D01*
X25889079Y-43262681D01*
X25786203Y-43249137D01*
X25786196Y-43249137D01*
X25781361Y-43248500D01*
X24892092Y-43248500D01*
X24002640Y-43248501D01*
X23885238Y-43263956D01*
X23876212Y-43267695D01*
X23876211Y-43267695D01*
X23800980Y-43298857D01*
X23739159Y-43324464D01*
X23613718Y-43420718D01*
X23517464Y-43546159D01*
X23513726Y-43555182D01*
X23513726Y-43555183D01*
X23473986Y-43651123D01*
X23456956Y-43692238D01*
X23455681Y-43701919D01*
X23455681Y-43701921D01*
X23442138Y-43804796D01*
X23441500Y-43809639D01*
X22614744Y-43809639D01*
X22606415Y-38820776D01*
X22626253Y-38746245D01*
X22680700Y-38691616D01*
X22755166Y-38671529D01*
X22828106Y-38690464D01*
X22959141Y-38763697D01*
X22959151Y-38763701D01*
X22965513Y-38767257D01*
X23152118Y-38827889D01*
X23225397Y-38836627D01*
X23339715Y-38850259D01*
X23339718Y-38850259D01*
X23346946Y-38851121D01*
X23458443Y-38842542D01*
X23535314Y-38836627D01*
X23535316Y-38836627D01*
X23542576Y-38836068D01*
X23731556Y-38783303D01*
X23738062Y-38780016D01*
X23738066Y-38780015D01*
X23900184Y-38698123D01*
X23900185Y-38698123D01*
X23906689Y-38694837D01*
X24061303Y-38574040D01*
X24189509Y-38425511D01*
X24286425Y-38254909D01*
X24348358Y-38068732D01*
X24372949Y-37874071D01*
X24373341Y-37846000D01*
X24354194Y-37650728D01*
X24297484Y-37462894D01*
X24205370Y-37289653D01*
X24200767Y-37284010D01*
X24200765Y-37284006D01*
X24085964Y-37143246D01*
X24081361Y-37137602D01*
X23930180Y-37012535D01*
X23757585Y-36919213D01*
X23601992Y-36871049D01*
X23577111Y-36863347D01*
X23577109Y-36863347D01*
X23570152Y-36861193D01*
X23562910Y-36860432D01*
X23562906Y-36860431D01*
X23382260Y-36841444D01*
X23382259Y-36841444D01*
X23375019Y-36840683D01*
X23179618Y-36858466D01*
X22991393Y-36913864D01*
X22821190Y-37002844D01*
X22745921Y-37019669D01*
X22672322Y-36996605D01*
X22620116Y-36939831D01*
X22603160Y-36871049D01*
X22603143Y-36860523D01*
X22602788Y-36648228D01*
X22602171Y-36278406D01*
X22622009Y-36203872D01*
X22676456Y-36149244D01*
X22750922Y-36129157D01*
X22823862Y-36148092D01*
X22959141Y-36223697D01*
X22959151Y-36223701D01*
X22965513Y-36227257D01*
X23152118Y-36287889D01*
X23225397Y-36296627D01*
X23339715Y-36310259D01*
X23339718Y-36310259D01*
X23346946Y-36311121D01*
X23458443Y-36302542D01*
X23535314Y-36296627D01*
X23535316Y-36296627D01*
X23542576Y-36296068D01*
X23731556Y-36243303D01*
X23738062Y-36240016D01*
X23738066Y-36240015D01*
X23900184Y-36158123D01*
X23900185Y-36158123D01*
X23906689Y-36154837D01*
X24061303Y-36034040D01*
X24189509Y-35885511D01*
X24286425Y-35714909D01*
X24348358Y-35528732D01*
X24372949Y-35334071D01*
X24373341Y-35306000D01*
X24354194Y-35110728D01*
X24297484Y-34922894D01*
X24205370Y-34749653D01*
X24200767Y-34744010D01*
X24200765Y-34744006D01*
X24085964Y-34603246D01*
X24081361Y-34597602D01*
X23930180Y-34472535D01*
X23757585Y-34379213D01*
X23609383Y-34333337D01*
X23577111Y-34323347D01*
X23577109Y-34323347D01*
X23570152Y-34321193D01*
X23562910Y-34320432D01*
X23562906Y-34320431D01*
X23382260Y-34301444D01*
X23382259Y-34301444D01*
X23375019Y-34300683D01*
X23179618Y-34318466D01*
X22991393Y-34373864D01*
X22817512Y-34464767D01*
X22816141Y-34462145D01*
X22756337Y-34481850D01*
X22680828Y-34466126D01*
X22623298Y-34414755D01*
X22599162Y-34341501D01*
X22598924Y-34333337D01*
X22596270Y-32743963D01*
X45230757Y-32743963D01*
X45247175Y-32939483D01*
X45301258Y-33128091D01*
X45390944Y-33302601D01*
X45512818Y-33456369D01*
X45662238Y-33583535D01*
X45668601Y-33587091D01*
X45827149Y-33675701D01*
X45827155Y-33675704D01*
X45833513Y-33679257D01*
X46020118Y-33739889D01*
X46093397Y-33748627D01*
X46207715Y-33762259D01*
X46207718Y-33762259D01*
X46214946Y-33763121D01*
X46326443Y-33754542D01*
X46403314Y-33748627D01*
X46403316Y-33748627D01*
X46410576Y-33748068D01*
X46599556Y-33695303D01*
X46606062Y-33692016D01*
X46606066Y-33692015D01*
X46768184Y-33610123D01*
X46768185Y-33610123D01*
X46774689Y-33606837D01*
X46929303Y-33486040D01*
X47057509Y-33337511D01*
X47154425Y-33166909D01*
X47216358Y-32980732D01*
X47240949Y-32786071D01*
X47241341Y-32758000D01*
X47222194Y-32562728D01*
X47165484Y-32374894D01*
X47073370Y-32201653D01*
X47068767Y-32196010D01*
X47068765Y-32196006D01*
X46953964Y-32055246D01*
X46949361Y-32049602D01*
X46798180Y-31924535D01*
X46625585Y-31831213D01*
X46495202Y-31790853D01*
X46445111Y-31775347D01*
X46445109Y-31775347D01*
X46438152Y-31773193D01*
X46430910Y-31772432D01*
X46430906Y-31772431D01*
X46250260Y-31753444D01*
X46250259Y-31753444D01*
X46243019Y-31752683D01*
X46047618Y-31770466D01*
X45859393Y-31825864D01*
X45685512Y-31916767D01*
X45532600Y-32039711D01*
X45406480Y-32190016D01*
X45311956Y-32361954D01*
X45252628Y-32548978D01*
X45251815Y-32556222D01*
X45251815Y-32556224D01*
X45250273Y-32569974D01*
X45230757Y-32743963D01*
X22596270Y-32743963D01*
X22592043Y-30211963D01*
X25283757Y-30211963D01*
X25300175Y-30407483D01*
X25302185Y-30414492D01*
X25302185Y-30414493D01*
X25352249Y-30589085D01*
X25354258Y-30596091D01*
X25443944Y-30770601D01*
X25565818Y-30924369D01*
X25715238Y-31051535D01*
X25721601Y-31055091D01*
X25880149Y-31143701D01*
X25880155Y-31143704D01*
X25886513Y-31147257D01*
X26073118Y-31207889D01*
X26146397Y-31216627D01*
X26260715Y-31230259D01*
X26260718Y-31230259D01*
X26267946Y-31231121D01*
X26379443Y-31222542D01*
X26456314Y-31216627D01*
X26456316Y-31216627D01*
X26463576Y-31216068D01*
X26652556Y-31163303D01*
X26659062Y-31160016D01*
X26659066Y-31160015D01*
X26821184Y-31078123D01*
X26821185Y-31078123D01*
X26827689Y-31074837D01*
X26982303Y-30954040D01*
X27110509Y-30805511D01*
X27207425Y-30634909D01*
X27269358Y-30448732D01*
X27293949Y-30254071D01*
X27294341Y-30226000D01*
X27275194Y-30030728D01*
X27218484Y-29842894D01*
X27215061Y-29836456D01*
X27129792Y-29676088D01*
X27129790Y-29676085D01*
X27126370Y-29669653D01*
X27121767Y-29664010D01*
X27121765Y-29664006D01*
X27006964Y-29523246D01*
X27002361Y-29517602D01*
X26920599Y-29449963D01*
X46746757Y-29449963D01*
X46763175Y-29645483D01*
X46817258Y-29834091D01*
X46906944Y-30008601D01*
X47028818Y-30162369D01*
X47178238Y-30289535D01*
X47184601Y-30293091D01*
X47343149Y-30381701D01*
X47343155Y-30381704D01*
X47349513Y-30385257D01*
X47536118Y-30445889D01*
X47645021Y-30458875D01*
X47723715Y-30468259D01*
X47723718Y-30468259D01*
X47730946Y-30469121D01*
X47842443Y-30460542D01*
X47919314Y-30454627D01*
X47919316Y-30454627D01*
X47926576Y-30454068D01*
X47998771Y-30433911D01*
X48108533Y-30403264D01*
X48108534Y-30403264D01*
X48115556Y-30401303D01*
X48122062Y-30398016D01*
X48122066Y-30398015D01*
X48284184Y-30316123D01*
X48284185Y-30316123D01*
X48290689Y-30312837D01*
X48445303Y-30192040D01*
X48573509Y-30043511D01*
X48670425Y-29872909D01*
X48732358Y-29686732D01*
X48756949Y-29492071D01*
X48757341Y-29464000D01*
X48738194Y-29268728D01*
X48729679Y-29240523D01*
X48683591Y-29087873D01*
X48681484Y-29080894D01*
X48589370Y-28907653D01*
X48584767Y-28902010D01*
X48584765Y-28902006D01*
X48469964Y-28761246D01*
X48465361Y-28755602D01*
X48314180Y-28630535D01*
X48141585Y-28537213D01*
X48011202Y-28496853D01*
X47961111Y-28481347D01*
X47961109Y-28481347D01*
X47954152Y-28479193D01*
X47946910Y-28478432D01*
X47946906Y-28478431D01*
X47766260Y-28459444D01*
X47766259Y-28459444D01*
X47759019Y-28458683D01*
X47563618Y-28476466D01*
X47375393Y-28531864D01*
X47201512Y-28622767D01*
X47195838Y-28627329D01*
X47117569Y-28690259D01*
X47048600Y-28745711D01*
X46922480Y-28896016D01*
X46827956Y-29067954D01*
X46768628Y-29254978D01*
X46767815Y-29262222D01*
X46767815Y-29262224D01*
X46752677Y-29397181D01*
X46746757Y-29449963D01*
X26920599Y-29449963D01*
X26851180Y-29392535D01*
X26678585Y-29299213D01*
X26535684Y-29254978D01*
X26498111Y-29243347D01*
X26498109Y-29243347D01*
X26491152Y-29241193D01*
X26483910Y-29240432D01*
X26483906Y-29240431D01*
X26303260Y-29221444D01*
X26303259Y-29221444D01*
X26296019Y-29220683D01*
X26100618Y-29238466D01*
X25912393Y-29293864D01*
X25738512Y-29384767D01*
X25732838Y-29389329D01*
X25645129Y-29459849D01*
X25585600Y-29507711D01*
X25459480Y-29658016D01*
X25364956Y-29829954D01*
X25305628Y-30016978D01*
X25304815Y-30024222D01*
X25304815Y-30024224D01*
X25285992Y-30192040D01*
X25283757Y-30211963D01*
X22592043Y-30211963D01*
X22587803Y-27671963D01*
X25283757Y-27671963D01*
X25300175Y-27867483D01*
X25354258Y-28056091D01*
X25443944Y-28230601D01*
X25565818Y-28384369D01*
X25715238Y-28511535D01*
X25721601Y-28515091D01*
X25880149Y-28603701D01*
X25880155Y-28603704D01*
X25886513Y-28607257D01*
X26073118Y-28667889D01*
X26146397Y-28676627D01*
X26260715Y-28690259D01*
X26260718Y-28690259D01*
X26267946Y-28691121D01*
X26379443Y-28682542D01*
X26456314Y-28676627D01*
X26456316Y-28676627D01*
X26463576Y-28676068D01*
X26535771Y-28655911D01*
X26645533Y-28625264D01*
X26645534Y-28625264D01*
X26652556Y-28623303D01*
X26659062Y-28620016D01*
X26659066Y-28620015D01*
X26821184Y-28538123D01*
X26821185Y-28538123D01*
X26827689Y-28534837D01*
X26924188Y-28459444D01*
X26976560Y-28418527D01*
X26976561Y-28418526D01*
X26982303Y-28414040D01*
X27110509Y-28265511D01*
X27207425Y-28094909D01*
X27269358Y-27908732D01*
X27293949Y-27714071D01*
X27294341Y-27686000D01*
X27275194Y-27490728D01*
X27218484Y-27302894D01*
X27126370Y-27129653D01*
X27121767Y-27124010D01*
X27121765Y-27124006D01*
X27006964Y-26983246D01*
X27002361Y-26977602D01*
X26851180Y-26852535D01*
X26678585Y-26759213D01*
X26548202Y-26718853D01*
X26498111Y-26703347D01*
X26498109Y-26703347D01*
X26491152Y-26701193D01*
X26483910Y-26700432D01*
X26483906Y-26700431D01*
X26303260Y-26681444D01*
X26303259Y-26681444D01*
X26296019Y-26680683D01*
X26100618Y-26698466D01*
X25912393Y-26753864D01*
X25738512Y-26844767D01*
X25585600Y-26967711D01*
X25459480Y-27118016D01*
X25364956Y-27289954D01*
X25305628Y-27476978D01*
X25304815Y-27484222D01*
X25304815Y-27484224D01*
X25303273Y-27497974D01*
X25283757Y-27671963D01*
X22587803Y-27671963D01*
X22581052Y-23628213D01*
X22580236Y-23139337D01*
X24088736Y-23139337D01*
X24094748Y-23149751D01*
X24115298Y-23167773D01*
X24123019Y-23173697D01*
X24366473Y-23336368D01*
X24374895Y-23341230D01*
X24637503Y-23470734D01*
X24646480Y-23474453D01*
X24923755Y-23568575D01*
X24933143Y-23571091D01*
X25220317Y-23628213D01*
X25229963Y-23629483D01*
X25522133Y-23648633D01*
X25531867Y-23648633D01*
X25824037Y-23629483D01*
X25833683Y-23628213D01*
X26120857Y-23571091D01*
X26130245Y-23568575D01*
X26407520Y-23474453D01*
X26416497Y-23470734D01*
X26679105Y-23341230D01*
X26687527Y-23336368D01*
X26930981Y-23173697D01*
X26938702Y-23167773D01*
X26956379Y-23152270D01*
X26965021Y-23139337D01*
X45043736Y-23139337D01*
X45049748Y-23149751D01*
X45070298Y-23167773D01*
X45078019Y-23173697D01*
X45321473Y-23336368D01*
X45329895Y-23341230D01*
X45592503Y-23470734D01*
X45601480Y-23474453D01*
X45878755Y-23568575D01*
X45888143Y-23571091D01*
X46175317Y-23628213D01*
X46184963Y-23629483D01*
X46477133Y-23648633D01*
X46486867Y-23648633D01*
X46779037Y-23629483D01*
X46788683Y-23628213D01*
X47075857Y-23571091D01*
X47085245Y-23568575D01*
X47362520Y-23474453D01*
X47371497Y-23470734D01*
X47634105Y-23341230D01*
X47642527Y-23336368D01*
X47885981Y-23173697D01*
X47893702Y-23167773D01*
X47911379Y-23152270D01*
X47920277Y-23138954D01*
X47914959Y-23128169D01*
X46495871Y-21709081D01*
X46482000Y-21701073D01*
X46468129Y-21709081D01*
X45051744Y-23125466D01*
X45043736Y-23139337D01*
X26965021Y-23139337D01*
X26965277Y-23138954D01*
X26959959Y-23128169D01*
X25540871Y-21709081D01*
X25527000Y-21701073D01*
X25513129Y-21709081D01*
X24096744Y-23125466D01*
X24088736Y-23139337D01*
X22580236Y-23139337D01*
X22577233Y-21340867D01*
X23214367Y-21340867D01*
X23233517Y-21633037D01*
X23234787Y-21642683D01*
X23291909Y-21929857D01*
X23294425Y-21939245D01*
X23388547Y-22216520D01*
X23392266Y-22225497D01*
X23521770Y-22488105D01*
X23526632Y-22496527D01*
X23689303Y-22739981D01*
X23695227Y-22747702D01*
X23710730Y-22765379D01*
X23724046Y-22774277D01*
X23734831Y-22768959D01*
X25153919Y-21349871D01*
X25161927Y-21336000D01*
X25892073Y-21336000D01*
X25900081Y-21349871D01*
X27316466Y-22766256D01*
X27330337Y-22774264D01*
X27340751Y-22768252D01*
X27358773Y-22747702D01*
X27364697Y-22739981D01*
X27527368Y-22496527D01*
X27532230Y-22488105D01*
X27661734Y-22225497D01*
X27665453Y-22216520D01*
X27759575Y-21939245D01*
X27762091Y-21929857D01*
X27819213Y-21642683D01*
X27820483Y-21633037D01*
X27839633Y-21340867D01*
X44169367Y-21340867D01*
X44188517Y-21633037D01*
X44189787Y-21642683D01*
X44246909Y-21929857D01*
X44249425Y-21939245D01*
X44343547Y-22216520D01*
X44347266Y-22225497D01*
X44476770Y-22488105D01*
X44481632Y-22496527D01*
X44644303Y-22739981D01*
X44650227Y-22747702D01*
X44665730Y-22765379D01*
X44679046Y-22774277D01*
X44689831Y-22768959D01*
X46108919Y-21349871D01*
X46116927Y-21336000D01*
X46847073Y-21336000D01*
X46855081Y-21349871D01*
X48271466Y-22766256D01*
X48285337Y-22774264D01*
X48295751Y-22768252D01*
X48313773Y-22747702D01*
X48319697Y-22739981D01*
X48482368Y-22496527D01*
X48487230Y-22488105D01*
X48616734Y-22225497D01*
X48620453Y-22216520D01*
X48714575Y-21939245D01*
X48717091Y-21929857D01*
X48774213Y-21642683D01*
X48775483Y-21633037D01*
X48794633Y-21340867D01*
X48794633Y-21331133D01*
X48775483Y-21038963D01*
X48774213Y-21029317D01*
X48717091Y-20742143D01*
X48714575Y-20732755D01*
X48620453Y-20455480D01*
X48616734Y-20446503D01*
X48487230Y-20183895D01*
X48482368Y-20175473D01*
X48319697Y-19932019D01*
X48313773Y-19924298D01*
X48298270Y-19906621D01*
X48284954Y-19897723D01*
X48274169Y-19903041D01*
X46855081Y-21322129D01*
X46847073Y-21336000D01*
X46116927Y-21336000D01*
X46108919Y-21322129D01*
X44692534Y-19905744D01*
X44678663Y-19897736D01*
X44668249Y-19903748D01*
X44650227Y-19924298D01*
X44644303Y-19932019D01*
X44481632Y-20175473D01*
X44476770Y-20183895D01*
X44347266Y-20446503D01*
X44343547Y-20455480D01*
X44249425Y-20732755D01*
X44246909Y-20742143D01*
X44189787Y-21029317D01*
X44188517Y-21038963D01*
X44169367Y-21331133D01*
X44169367Y-21340867D01*
X27839633Y-21340867D01*
X27839633Y-21331133D01*
X27820483Y-21038963D01*
X27819213Y-21029317D01*
X27762091Y-20742143D01*
X27759575Y-20732755D01*
X27665453Y-20455480D01*
X27661734Y-20446503D01*
X27532230Y-20183895D01*
X27527368Y-20175473D01*
X27364697Y-19932019D01*
X27358773Y-19924298D01*
X27343270Y-19906621D01*
X27329954Y-19897723D01*
X27319169Y-19903041D01*
X25900081Y-21322129D01*
X25892073Y-21336000D01*
X25161927Y-21336000D01*
X25153919Y-21322129D01*
X23737534Y-19905744D01*
X23723663Y-19897736D01*
X23713249Y-19903748D01*
X23695227Y-19924298D01*
X23689303Y-19932019D01*
X23526632Y-20175473D01*
X23521770Y-20183895D01*
X23392266Y-20446503D01*
X23388547Y-20455480D01*
X23294425Y-20732755D01*
X23291909Y-20742143D01*
X23234787Y-21029317D01*
X23233517Y-21038963D01*
X23214367Y-21331133D01*
X23214367Y-21340867D01*
X22577233Y-21340867D01*
X22574215Y-19533046D01*
X24088723Y-19533046D01*
X24094041Y-19543831D01*
X25513129Y-20962919D01*
X25527000Y-20970927D01*
X25540871Y-20962919D01*
X26957256Y-19546534D01*
X26965043Y-19533046D01*
X45043723Y-19533046D01*
X45049041Y-19543831D01*
X46468129Y-20962919D01*
X46482000Y-20970927D01*
X46495871Y-20962919D01*
X47912256Y-19546534D01*
X47920264Y-19532663D01*
X47914252Y-19522249D01*
X47893702Y-19504227D01*
X47885981Y-19498303D01*
X47642527Y-19335632D01*
X47634105Y-19330770D01*
X47371497Y-19201266D01*
X47362520Y-19197547D01*
X47085245Y-19103425D01*
X47075857Y-19100909D01*
X46788683Y-19043787D01*
X46779037Y-19042517D01*
X46486867Y-19023367D01*
X46477133Y-19023367D01*
X46184963Y-19042517D01*
X46175317Y-19043787D01*
X45888143Y-19100909D01*
X45878755Y-19103425D01*
X45601480Y-19197547D01*
X45592503Y-19201266D01*
X45329895Y-19330770D01*
X45321473Y-19335632D01*
X45078019Y-19498303D01*
X45070298Y-19504227D01*
X45052621Y-19519730D01*
X45043723Y-19533046D01*
X26965043Y-19533046D01*
X26965264Y-19532663D01*
X26959252Y-19522249D01*
X26938702Y-19504227D01*
X26930981Y-19498303D01*
X26687527Y-19335632D01*
X26679105Y-19330770D01*
X26416497Y-19201266D01*
X26407520Y-19197547D01*
X26130245Y-19103425D01*
X26120857Y-19100909D01*
X25833683Y-19043787D01*
X25824037Y-19042517D01*
X25531867Y-19023367D01*
X25522133Y-19023367D01*
X25229963Y-19042517D01*
X25220317Y-19043787D01*
X24933143Y-19100909D01*
X24923755Y-19103425D01*
X24646480Y-19197547D01*
X24637503Y-19201266D01*
X24374895Y-19330770D01*
X24366473Y-19335632D01*
X24123019Y-19498303D01*
X24115298Y-19504227D01*
X24097621Y-19519730D01*
X24088723Y-19533046D01*
X22574215Y-19533046D01*
X22572752Y-18656748D01*
X22592590Y-18582216D01*
X22647037Y-18527587D01*
X22721752Y-18507500D01*
X49250974Y-18507500D01*
X49325474Y-18527462D01*
G37*
%TD.AperFunction*%
%TD*%
M02*
