%TF.GenerationSoftware,KiCad,Pcbnew,(6.0.8)*%
%TF.CreationDate,2023-06-03T22:28:48+01:00*%
%TF.ProjectId,circuit board design v2.1,63697263-7569-4742-9062-6f6172642064,rev?*%
%TF.SameCoordinates,Original*%
%TF.FileFunction,Copper,L4,Bot*%
%TF.FilePolarity,Positive*%
%FSLAX46Y46*%
G04 Gerber Fmt 4.6, Leading zero omitted, Abs format (unit mm)*
G04 Created by KiCad (PCBNEW (6.0.8)) date 2023-06-03 22:28:48*
%MOMM*%
%LPD*%
G01*
G04 APERTURE LIST*
G04 Aperture macros list*
%AMRoundRect*
0 Rectangle with rounded corners*
0 $1 Rounding radius*
0 $2 $3 $4 $5 $6 $7 $8 $9 X,Y pos of 4 corners*
0 Add a 4 corners polygon primitive as box body*
4,1,4,$2,$3,$4,$5,$6,$7,$8,$9,$2,$3,0*
0 Add four circle primitives for the rounded corners*
1,1,$1+$1,$2,$3*
1,1,$1+$1,$4,$5*
1,1,$1+$1,$6,$7*
1,1,$1+$1,$8,$9*
0 Add four rect primitives between the rounded corners*
20,1,$1+$1,$2,$3,$4,$5,0*
20,1,$1+$1,$4,$5,$6,$7,0*
20,1,$1+$1,$6,$7,$8,$9,0*
20,1,$1+$1,$8,$9,$2,$3,0*%
G04 Aperture macros list end*
%TA.AperFunction,ComponentPad*%
%ADD10C,1.450000*%
%TD*%
%TA.AperFunction,ComponentPad*%
%ADD11O,0.800000X1.600000*%
%TD*%
%TA.AperFunction,ComponentPad*%
%ADD12C,3.600000*%
%TD*%
%TA.AperFunction,ConnectorPad*%
%ADD13C,5.700000*%
%TD*%
%TA.AperFunction,ComponentPad*%
%ADD14R,1.700000X1.700000*%
%TD*%
%TA.AperFunction,ComponentPad*%
%ADD15O,1.700000X1.700000*%
%TD*%
%TA.AperFunction,ComponentPad*%
%ADD16RoundRect,0.250000X0.625000X-0.350000X0.625000X0.350000X-0.625000X0.350000X-0.625000X-0.350000X0*%
%TD*%
%TA.AperFunction,ComponentPad*%
%ADD17O,1.750000X1.200000*%
%TD*%
%TA.AperFunction,ConnectorPad*%
%ADD18R,4.000000X1.780000*%
%TD*%
%TA.AperFunction,SMDPad,CuDef*%
%ADD19R,4.000000X1.780000*%
%TD*%
%TA.AperFunction,SMDPad,CuDef*%
%ADD20RoundRect,0.237500X0.237500X-0.300000X0.237500X0.300000X-0.237500X0.300000X-0.237500X-0.300000X0*%
%TD*%
%TA.AperFunction,SMDPad,CuDef*%
%ADD21R,1.050000X2.200000*%
%TD*%
%TA.AperFunction,SMDPad,CuDef*%
%ADD22R,1.050000X1.050000*%
%TD*%
%TA.AperFunction,ViaPad*%
%ADD23C,0.800000*%
%TD*%
%TA.AperFunction,Conductor*%
%ADD24C,0.250000*%
%TD*%
%TA.AperFunction,Conductor*%
%ADD25C,0.500000*%
%TD*%
%TA.AperFunction,Conductor*%
%ADD26C,1.000000*%
%TD*%
%TA.AperFunction,Conductor*%
%ADD27C,0.350000*%
%TD*%
G04 APERTURE END LIST*
D10*
%TO.P,J3,P$1,Shield*%
%TO.N,GND*%
X33747000Y-88251000D03*
%TO.P,J3,P$2,Shield*%
X38747000Y-88251000D03*
D11*
%TO.P,J3,P$12,Shield*%
X32747000Y-90951000D03*
%TO.P,J3,P$13,Shield*%
X39747000Y-90951000D03*
%TD*%
D12*
%TO.P,H4,1,1*%
%TO.N,GND*%
X46482000Y-90500000D03*
D13*
X46482000Y-90500000D03*
%TD*%
D14*
%TO.P,J1,1,Pin_1*%
%TO.N,+3.3V*%
X24892000Y-44699000D03*
D15*
%TO.P,J1,2,Pin_2*%
%TO.N,GND*%
X24892000Y-47239000D03*
%TD*%
D16*
%TO.P,J2,1,Pin_1*%
%TO.N,GND*%
X40984000Y-83550000D03*
D17*
%TO.P,J2,2,Pin_2*%
%TO.N,/Power/Battery+*%
X40984000Y-81550000D03*
%TD*%
D13*
%TO.P,H2,1,1*%
%TO.N,GND*%
X46482000Y-21336000D03*
D12*
X46482000Y-21336000D03*
%TD*%
D14*
%TO.P,J6,1,Pin_1*%
%TO.N,/MCU/SYS_JTCK_SWCLK*%
X37968000Y-44704000D03*
D15*
%TO.P,J6,2,Pin_2*%
%TO.N,/MCU/SYS_JTMS_SWDIO*%
X40508000Y-44704000D03*
%TD*%
D12*
%TO.P,H3,1,1*%
%TO.N,GND*%
X25527000Y-21336000D03*
D13*
X25527000Y-21336000D03*
%TD*%
D12*
%TO.P,H1,1,1*%
%TO.N,GND*%
X25654000Y-90500000D03*
D13*
X25654000Y-90500000D03*
%TD*%
D18*
%TO.P,U10,1,Antenna*%
%TO.N,Net-(J4-Pad3)*%
X26466000Y-73058000D03*
D19*
%TO.P,U10,2,GND*%
%TO.N,GND*%
X26466000Y-70518000D03*
%TO.P,U10,3,VCC*%
%TO.N,+3.3V*%
X26466000Y-67978000D03*
%TO.P,U10,4,RX_SWITCH*%
%TO.N,/MCU/Radio_TX*%
X26466000Y-65438000D03*
%TO.P,U10,5,TX_SWITCH*%
%TO.N,/MCU/Radio_RX*%
X26466000Y-62898000D03*
%TO.P,U10,6,DIO0*%
%TO.N,/MCU/Radio_DIO0*%
X26466000Y-60358000D03*
%TO.P,U10,7,DIO1*%
%TO.N,/MCU/Radio_DIO1*%
X26466000Y-57818000D03*
%TO.P,U10,8,DIO2*%
%TO.N,/MCU/Radio_DIO2*%
X26466000Y-55278000D03*
%TO.P,U10,9,DIO3*%
%TO.N,/MCU/Radio_DIO3*%
X45416000Y-55278000D03*
%TO.P,U10,10,DIO4*%
%TO.N,/MCU/Radio_DIO4*%
X45416000Y-57818000D03*
%TO.P,U10,11,DIO5*%
%TO.N,/MCU/Radio_DIO5*%
X45416000Y-60358000D03*
%TO.P,U10,12,RESET*%
%TO.N,/MCU/Radio_Reset*%
X45416000Y-62898000D03*
%TO.P,U10,13,SCLK*%
%TO.N,/MCU/Radio_SPI1_SCK*%
X45416000Y-65438000D03*
%TO.P,U10,14,SDO*%
%TO.N,/MCU/Radio_SPI1_MISO*%
X45416000Y-67978000D03*
%TO.P,U10,15,SDI*%
%TO.N,/MCU/Radio_SPI1_MOSI*%
X45416000Y-70518000D03*
%TO.P,U10,16,~{SEL}*%
%TO.N,/MCU/Radio_Enable*%
X45416000Y-73058000D03*
%TD*%
D20*
%TO.P,C27,1*%
%TO.N,+3.3V*%
X23749000Y-68019000D03*
%TO.P,C27,2*%
%TO.N,GND*%
X23749000Y-66294000D03*
%TD*%
D21*
%TO.P,J4,1,1*%
%TO.N,GND*%
X28145000Y-82099500D03*
%TO.P,J4,2,2*%
X25195000Y-82099500D03*
D22*
%TO.P,J4,3,3*%
%TO.N,Net-(J4-Pad3)*%
X26670000Y-80574500D03*
%TD*%
D23*
%TO.N,/GPS/GPS_UART_TX_Module*%
X26289000Y-30226000D03*
%TO.N,/GPS/GPS_UART_RX_Module*%
X26289000Y-27686000D03*
X36195000Y-42291000D03*
%TO.N,/GPS/GPS_UART_TX_Module*%
X35179000Y-42545000D03*
%TO.N,/GPS/GPS_Reset*%
X37211000Y-42545000D03*
X46236000Y-32758000D03*
%TO.N,+3.3V*%
X48133000Y-40640000D03*
X44831000Y-42799000D03*
%TO.N,/MCU/Radio_DIO2*%
X31242000Y-54102000D03*
%TO.N,/MCU/Radio_DIO4*%
X39364753Y-55537530D03*
%TO.N,/MCU/Radio_DIO5*%
X39656500Y-56441100D03*
%TO.N,/MCU/Radio_DIO3*%
X39619959Y-54622969D03*
%TO.N,/MCU/Radio_Enable*%
X37039311Y-64025423D03*
%TO.N,/MCU/I2C1_SDA*%
X48921140Y-61203806D03*
X33782000Y-50038000D03*
X28908006Y-71734469D03*
X47621270Y-53427500D03*
%TO.N,GND*%
X41021000Y-66802000D03*
X47800000Y-34800000D03*
X41500000Y-20000000D03*
X42846944Y-62086056D03*
X23114000Y-51816000D03*
X47965502Y-61007500D03*
X23876000Y-70739000D03*
X23749000Y-65278000D03*
X38735000Y-86741000D03*
X37900000Y-20000000D03*
X32004000Y-50038000D03*
X42799000Y-56642000D03*
X24400000Y-30700000D03*
X41500000Y-23400000D03*
X38312005Y-58606306D03*
X42063380Y-63981120D03*
X42866498Y-55372000D03*
X23622000Y-73406000D03*
X42237579Y-50011144D03*
X23495000Y-75438000D03*
X42796677Y-59999064D03*
X47800000Y-37500000D03*
X22860000Y-82169000D03*
X30226000Y-83820000D03*
X27432000Y-47879000D03*
X24400000Y-26100000D03*
X40666629Y-62584370D03*
X48260000Y-66040000D03*
X29015502Y-65913000D03*
X24400000Y-28400000D03*
X44577000Y-74676000D03*
X34300000Y-20000000D03*
X30700000Y-20000000D03*
X23876000Y-71842500D03*
X48895000Y-76454000D03*
X34300000Y-23400000D03*
X37900000Y-23400000D03*
X48855500Y-56769000D03*
X23368000Y-39370000D03*
X48768000Y-54610000D03*
X31369000Y-55549060D03*
X32512000Y-66929000D03*
X31767812Y-58594670D03*
X32512000Y-68326000D03*
X26035000Y-32766000D03*
X23368000Y-33782000D03*
X30700000Y-23400000D03*
X29150138Y-72790972D03*
X48895000Y-63119000D03*
X42799000Y-47625000D03*
X27773500Y-53562944D03*
X30226000Y-76200000D03*
X31242000Y-67056000D03*
X28067000Y-43180000D03*
X23876000Y-57531000D03*
X31242000Y-68199000D03*
X34729500Y-64008000D03*
%TO.N,+3.3V*%
X28956000Y-67945000D03*
X49149000Y-74168000D03*
X39751000Y-60833000D03*
X44704000Y-78359000D03*
X48641000Y-59173500D03*
X23368000Y-35306000D03*
X39116000Y-70993000D03*
X39878000Y-71755000D03*
X23622000Y-77089000D03*
X29015502Y-61205962D03*
X23860498Y-67381000D03*
X44450000Y-53838498D03*
X48895000Y-50673000D03*
X47965502Y-62357000D03*
X41021000Y-68834000D03*
X29015502Y-73787000D03*
X39370000Y-69596000D03*
X31369000Y-73787000D03*
X40640000Y-72517000D03*
X47752000Y-29464000D03*
X47965502Y-67945000D03*
X34729500Y-62611000D03*
X41910000Y-72136000D03*
X23368000Y-37846000D03*
X34798000Y-43561000D03*
X33274000Y-43561000D03*
X30099000Y-49022000D03*
X42799000Y-49149000D03*
%TO.N,+3.3VA*%
X39656500Y-57912000D03*
X41910000Y-58928000D03*
%TO.N,/MCU/I2C1_SCL*%
X29591000Y-70104000D03*
X42866413Y-61022688D03*
X33521151Y-50950970D03*
X48514000Y-55626000D03*
%TO.N,/MCU/Radio_DIO1*%
X31382154Y-57148560D03*
%TO.N,/MCU/Radio_DIO0*%
X30988000Y-58039000D03*
%TO.N,/MCU/Radio_TX*%
X32139681Y-57721017D03*
%TO.N,/MCU/Radio_RX*%
X30226000Y-58928000D03*
%TO.N,/MCU/Radio_Reset*%
X41110500Y-60452000D03*
%TO.N,/MCU/Radio_SPI1_SCK*%
X36277596Y-58596949D03*
%TO.N,/MCU/Radio_SPI1_MISO*%
X35323843Y-58599597D03*
%TO.N,/MCU/Radio_SPI1_MOSI*%
X34729500Y-61595000D03*
%TO.N,/MCU/Flash_QUADSPI_CLK*%
X42545000Y-51816000D03*
X37338000Y-58547000D03*
%TO.N,/MCU/USB_D-*%
X33186500Y-84673043D03*
X35941000Y-52451000D03*
%TO.N,/MCU/USB_D+*%
X36957000Y-52423000D03*
X33186500Y-85622546D03*
%TO.N,/MCU/Flash_QUADSPI_BK1_IO1*%
X38100000Y-50038000D03*
X46101000Y-46609000D03*
%TO.N,/MCU/Flash_QUADSPI_BK1_NCS*%
X34798000Y-50038000D03*
X47371000Y-45847000D03*
%TO.N,/MCU/Acc_Int1*%
X22606000Y-69596000D03*
X31242000Y-51308000D03*
%TO.N,/MCU/Gyro_Int3*%
X22987000Y-72517000D03*
X31242000Y-52257503D03*
%TO.N,/MCU/Mag_Data_Ready*%
X38354000Y-53722000D03*
X48006000Y-65024000D03*
%TD*%
D24*
%TO.N,/GPS/GPS_Reset*%
X44744000Y-42124000D02*
X46236000Y-40632000D01*
X37632000Y-42124000D02*
X44744000Y-42124000D01*
X46236000Y-40632000D02*
X46236000Y-32758000D01*
X37211000Y-42545000D02*
X37632000Y-42124000D01*
%TO.N,/GPS/GPS_UART_RX_Module*%
X27432000Y-28763405D02*
X26354595Y-27686000D01*
X26354595Y-27686000D02*
X26289000Y-27686000D01*
X30186000Y-41870000D02*
X27432000Y-39116000D01*
X35458595Y-41870000D02*
X30186000Y-41870000D01*
X35854000Y-42265405D02*
X35458595Y-41870000D01*
X27432000Y-39116000D02*
X27432000Y-28763405D01*
X35854000Y-42291000D02*
X35854000Y-42265405D01*
X36195000Y-42291000D02*
X35854000Y-42291000D01*
%TO.N,/GPS/GPS_UART_TX_Module*%
X29972000Y-42545000D02*
X26797000Y-39370000D01*
X26797000Y-39370000D02*
X26797000Y-30734000D01*
X26797000Y-30734000D02*
X26289000Y-30226000D01*
X35179000Y-42545000D02*
X29972000Y-42545000D01*
%TO.N,/MCU/I2C1_SDA*%
X32842812Y-50674714D02*
X33479526Y-50038000D01*
X29690502Y-62616929D02*
X32842812Y-59464619D01*
X29690502Y-69049903D02*
X29690502Y-62616929D01*
X28908006Y-69832399D02*
X29690502Y-69049903D01*
X28908006Y-71734469D02*
X28908006Y-69832399D01*
X32842812Y-59464619D02*
X32842812Y-50674714D01*
X33479526Y-50038000D02*
X33782000Y-50038000D01*
%TO.N,/MCU/Radio_DIO2*%
X30066000Y-55278000D02*
X26466000Y-55278000D01*
X31242000Y-54102000D02*
X30066000Y-55278000D01*
%TO.N,/MCU/Radio_DIO4*%
X40739935Y-55537530D02*
X43020405Y-57818000D01*
X43020405Y-57818000D02*
X45416000Y-57818000D01*
X39364753Y-55537530D02*
X40739935Y-55537530D01*
%TO.N,/MCU/Radio_DIO5*%
X44110208Y-60358000D02*
X45416000Y-60358000D01*
X43141000Y-58504281D02*
X43141000Y-59388792D01*
X43141000Y-59388792D02*
X44110208Y-60358000D01*
X41077819Y-56441100D02*
X43141000Y-58504281D01*
X39656500Y-56441100D02*
X41077819Y-56441100D01*
%TO.N,/MCU/Radio_DIO3*%
X44760969Y-54622969D02*
X45416000Y-55278000D01*
X39619959Y-54622969D02*
X44760969Y-54622969D01*
%TO.N,+3.3VA*%
X41910000Y-58928000D02*
X41910000Y-59015500D01*
%TO.N,/MCU/Radio_Reset*%
X41021000Y-61214000D02*
X42705000Y-62898000D01*
X42705000Y-62898000D02*
X45416000Y-62898000D01*
X41021000Y-60541500D02*
X41021000Y-61214000D01*
X41110500Y-60452000D02*
X41021000Y-60541500D01*
%TO.N,/MCU/I2C1_SCL*%
X42885999Y-52491000D02*
X43595657Y-51781342D01*
X40539595Y-52491000D02*
X42885999Y-52491000D01*
X38690253Y-54340342D02*
X40539595Y-52491000D01*
X38690253Y-56503348D02*
X38690253Y-54340342D01*
X42672000Y-58735405D02*
X41126595Y-57190000D01*
X42672000Y-59169146D02*
X42672000Y-58735405D01*
X41126595Y-57190000D02*
X39376905Y-57190000D01*
X42121677Y-60277952D02*
X42121677Y-59719469D01*
X42866413Y-61022688D02*
X42121677Y-60277952D01*
X42121677Y-59719469D02*
X42672000Y-59169146D01*
X39376905Y-57190000D02*
X38690253Y-56503348D01*
D25*
%TO.N,+3.3VA*%
X39656500Y-57912000D02*
X40806500Y-57912000D01*
X40806500Y-57912000D02*
X41910000Y-59015500D01*
D24*
%TO.N,/MCU/Mag_Data_Ready*%
X40426000Y-61254001D02*
X43306999Y-64135000D01*
X48006000Y-64588000D02*
X48006000Y-65024000D01*
X40426000Y-59730000D02*
X40426000Y-61254001D01*
X47553000Y-64135000D02*
X48006000Y-64588000D01*
X37597637Y-56901637D02*
X40426000Y-59730000D01*
X37597637Y-54478363D02*
X37597637Y-56901637D01*
X43306999Y-64135000D02*
X47553000Y-64135000D01*
X38354000Y-53722000D02*
X37597637Y-54478363D01*
%TO.N,/MCU/Flash_QUADSPI_CLK*%
X38862000Y-51816000D02*
X42545000Y-51816000D01*
X37197637Y-53480363D02*
X38862000Y-51816000D01*
X37338000Y-58547000D02*
X37197637Y-58406637D01*
X37197637Y-58406637D02*
X37197637Y-53480363D01*
%TO.N,/MCU/USB_D+*%
X34076000Y-84988595D02*
X33442049Y-85622546D01*
X33442049Y-85622546D02*
X33186500Y-85622546D01*
X34076000Y-84429405D02*
X34076000Y-84988595D01*
X34055000Y-84408405D02*
X34076000Y-84429405D01*
X36449000Y-54708500D02*
X34055000Y-57102500D01*
X34055000Y-57102500D02*
X34055000Y-84408405D01*
X36449000Y-52931000D02*
X36449000Y-54708500D01*
X36957000Y-52423000D02*
X36449000Y-52931000D01*
%TO.N,/MCU/USB_D-*%
X33655000Y-56936814D02*
X33655000Y-84204543D01*
X35941000Y-54650814D02*
X33655000Y-56936814D01*
X35941000Y-52451000D02*
X35941000Y-54650814D01*
X33655000Y-84204543D02*
X33186500Y-84673043D01*
%TO.N,/MCU/Radio_Enable*%
X43141000Y-71683000D02*
X43141000Y-69708686D01*
X43141000Y-69708686D02*
X42741000Y-69308685D01*
X42741000Y-69308685D02*
X42741000Y-67309687D01*
X42741000Y-67309687D02*
X39456736Y-64025423D01*
X44516000Y-73058000D02*
X43141000Y-71683000D01*
X39456736Y-64025423D02*
X37039311Y-64025423D01*
X45416000Y-73058000D02*
X44516000Y-73058000D01*
%TO.N,/MCU/I2C1_SDA*%
X49530000Y-54417405D02*
X48540095Y-53427500D01*
X47621270Y-53427500D02*
X47621270Y-53395476D01*
X49159194Y-61203806D02*
X49530000Y-60833000D01*
X46082000Y-53702000D02*
X43093000Y-50713000D01*
X48540095Y-53427500D02*
X47621270Y-53427500D01*
X47314746Y-53702000D02*
X46082000Y-53702000D01*
X49530000Y-60833000D02*
X49530000Y-54417405D01*
X43093000Y-50713000D02*
X34457000Y-50713000D01*
X48921140Y-61203806D02*
X49159194Y-61203806D01*
X34457000Y-50713000D02*
X33782000Y-50038000D01*
X47621270Y-53395476D02*
X47314746Y-53702000D01*
D25*
%TO.N,GND*%
X23749000Y-65278000D02*
X23749000Y-66294000D01*
D26*
X24493348Y-70739000D02*
X24714348Y-70518000D01*
X23876000Y-70739000D02*
X24493348Y-70739000D01*
X24714348Y-70518000D02*
X26466000Y-70518000D01*
D25*
%TO.N,+3.3V*%
X23860498Y-67381000D02*
X23749000Y-67492498D01*
X23749000Y-67492498D02*
X23749000Y-68019000D01*
D26*
X23749000Y-68019000D02*
X26425000Y-68019000D01*
X26425000Y-68019000D02*
X26466000Y-67978000D01*
D24*
%TO.N,/MCU/I2C1_SCL*%
X45927314Y-54113000D02*
X47636000Y-54113000D01*
X48006000Y-55118000D02*
X48514000Y-55626000D01*
X29735685Y-70104000D02*
X30245000Y-69594685D01*
X29591000Y-70104000D02*
X29735685Y-70104000D01*
X42927314Y-51113000D02*
X45927314Y-54113000D01*
X47636000Y-54113000D02*
X48006000Y-54483000D01*
X33740375Y-50950970D02*
X33902405Y-51113000D01*
X30245000Y-62628117D02*
X33242812Y-59630304D01*
X33242812Y-59630304D02*
X33242812Y-51229309D01*
X33521151Y-50950970D02*
X33740375Y-50950970D01*
X33902405Y-51113000D02*
X42927314Y-51113000D01*
X30245000Y-69594685D02*
X30245000Y-62628117D01*
X33242812Y-51229309D02*
X33521151Y-50950970D01*
X48006000Y-54483000D02*
X48006000Y-55118000D01*
%TO.N,/MCU/Radio_DIO1*%
X31256594Y-57023000D02*
X27261000Y-57023000D01*
X31382154Y-57148560D02*
X31256594Y-57023000D01*
X27261000Y-57023000D02*
X26466000Y-57818000D01*
%TO.N,/MCU/Radio_DIO0*%
X29685000Y-58039000D02*
X27366000Y-60358000D01*
X30988000Y-58039000D02*
X29685000Y-58039000D01*
X27366000Y-60358000D02*
X26466000Y-60358000D01*
%TO.N,/MCU/Radio_TX*%
X32442812Y-58315075D02*
X32442812Y-59298933D01*
X28829000Y-63975000D02*
X27366000Y-65438000D01*
X32139681Y-57721017D02*
X32139681Y-58011944D01*
X27366000Y-65438000D02*
X26466000Y-65438000D01*
X28829000Y-62912745D02*
X28829000Y-63975000D01*
X32442812Y-59298933D02*
X28829000Y-62912745D01*
X32139681Y-58011944D02*
X32442812Y-58315075D01*
%TO.N,/MCU/Radio_RX*%
X28278059Y-62898000D02*
X26466000Y-62898000D01*
X30226000Y-60950059D02*
X28278059Y-62898000D01*
X30226000Y-58928000D02*
X30226000Y-60950059D01*
%TO.N,Net-(J4-Pad3)*%
X26670000Y-73262000D02*
X26466000Y-73058000D01*
D27*
X26670000Y-80574500D02*
X26670000Y-73262000D01*
D24*
%TO.N,/MCU/Radio_SPI1_SCK*%
X36277596Y-58596949D02*
X36489000Y-58808353D01*
X36489000Y-58808353D02*
X36489000Y-59360629D01*
X36489000Y-59360629D02*
X42566371Y-65438000D01*
X42566371Y-65438000D02*
X45416000Y-65438000D01*
%TO.N,/MCU/Radio_SPI1_MISO*%
X35323843Y-58761158D02*
X44540685Y-67978000D01*
X44540685Y-67978000D02*
X45416000Y-67978000D01*
X35323843Y-58599597D02*
X35323843Y-58761158D01*
%TO.N,/MCU/Radio_SPI1_MOSI*%
X43141000Y-67144001D02*
X43141000Y-69143000D01*
X38734999Y-62738000D02*
X43141000Y-67144001D01*
X44516000Y-70518000D02*
X45416000Y-70518000D01*
X35872500Y-62738000D02*
X38734999Y-62738000D01*
X43141000Y-69143000D02*
X44516000Y-70518000D01*
X34729500Y-61595000D02*
X35872500Y-62738000D01*
%TO.N,/MCU/Flash_QUADSPI_BK1_IO1*%
X46101000Y-46609000D02*
X41529000Y-46609000D01*
X41529000Y-46609000D02*
X38100000Y-50038000D01*
%TO.N,/MCU/Flash_QUADSPI_BK1_NCS*%
X41148000Y-45847000D02*
X47371000Y-45847000D01*
X34798000Y-50038000D02*
X36957000Y-50038000D01*
X36957000Y-50038000D02*
X41148000Y-45847000D01*
%TO.N,/MCU/Acc_Int1*%
X25273001Y-51308000D02*
X31242000Y-51308000D01*
X22574000Y-69564000D02*
X22574000Y-54007001D01*
X22606000Y-69596000D02*
X22574000Y-69564000D01*
X22574000Y-54007001D02*
X25273001Y-51308000D01*
%TO.N,/MCU/Gyro_Int3*%
X24822686Y-52324000D02*
X22974000Y-54172686D01*
X23281000Y-69316405D02*
X23281000Y-69875595D01*
X22987000Y-70169595D02*
X22987000Y-72517000D01*
X31242000Y-52257503D02*
X31175503Y-52324000D01*
X22974000Y-69009405D02*
X23281000Y-69316405D01*
X22974000Y-54172686D02*
X22974000Y-69009405D01*
X23281000Y-69875595D02*
X22987000Y-70169595D01*
X31175503Y-52324000D02*
X24822686Y-52324000D01*
%TD*%
%TA.AperFunction,Conductor*%
%TO.N,GND*%
G36*
X32885859Y-61223987D02*
G01*
X32924423Y-61290782D01*
X32929500Y-61329346D01*
X32929500Y-83594238D01*
X32909538Y-83668738D01*
X32855000Y-83723276D01*
X32822571Y-83737175D01*
X32816885Y-83738849D01*
X32816884Y-83738850D01*
X32809893Y-83740907D01*
X32636012Y-83831810D01*
X32483100Y-83954754D01*
X32356980Y-84105059D01*
X32262456Y-84276997D01*
X32203128Y-84464021D01*
X32202315Y-84471265D01*
X32202315Y-84471267D01*
X32182069Y-84651765D01*
X32181257Y-84659006D01*
X32197675Y-84854526D01*
X32251758Y-85043134D01*
X32269419Y-85077499D01*
X32285718Y-85152884D01*
X32268617Y-85213320D01*
X32268838Y-85213415D01*
X32268110Y-85215113D01*
X32267468Y-85217383D01*
X32262456Y-85226500D01*
X32203128Y-85413524D01*
X32202315Y-85420768D01*
X32202315Y-85420770D01*
X32196088Y-85476284D01*
X32181257Y-85608509D01*
X32197675Y-85804029D01*
X32199685Y-85811038D01*
X32199685Y-85811039D01*
X32245681Y-85971445D01*
X32251758Y-85992637D01*
X32341444Y-86167147D01*
X32463318Y-86320915D01*
X32612738Y-86448081D01*
X32619101Y-86451637D01*
X32777649Y-86540247D01*
X32777655Y-86540250D01*
X32784013Y-86543803D01*
X32970618Y-86604435D01*
X33043897Y-86613173D01*
X33158215Y-86626805D01*
X33158218Y-86626805D01*
X33165446Y-86627667D01*
X33276943Y-86619088D01*
X33353814Y-86613173D01*
X33353816Y-86613173D01*
X33361076Y-86612614D01*
X33550056Y-86559849D01*
X33556562Y-86556562D01*
X33556566Y-86556561D01*
X33718684Y-86474669D01*
X33718685Y-86474669D01*
X33725189Y-86471383D01*
X33879803Y-86350586D01*
X34008009Y-86202057D01*
X34085240Y-86066106D01*
X34101327Y-86037789D01*
X34101328Y-86037787D01*
X34104925Y-86031455D01*
X34116624Y-85996287D01*
X34152647Y-85937960D01*
X34542126Y-85548481D01*
X34559171Y-85533833D01*
X34567189Y-85527933D01*
X34567191Y-85527931D01*
X34574158Y-85522804D01*
X34606129Y-85485172D01*
X34614323Y-85476284D01*
X34618961Y-85471646D01*
X34635528Y-85450707D01*
X34638810Y-85446704D01*
X34678087Y-85400472D01*
X34683692Y-85393875D01*
X34687630Y-85386164D01*
X34689846Y-85382840D01*
X34689928Y-85382727D01*
X34690007Y-85382587D01*
X34692092Y-85379211D01*
X34697465Y-85372420D01*
X34706134Y-85353871D01*
X34726816Y-85309622D01*
X34729099Y-85304952D01*
X34756689Y-85250919D01*
X34756690Y-85250916D01*
X34760627Y-85243206D01*
X34762684Y-85234798D01*
X34764075Y-85231059D01*
X34764131Y-85230925D01*
X34764172Y-85230783D01*
X34765431Y-85226999D01*
X34769096Y-85219157D01*
X34783213Y-85151283D01*
X34784351Y-85146252D01*
X34800838Y-85078878D01*
X34801500Y-85068207D01*
X34801500Y-85067460D01*
X34801846Y-85061705D01*
X34803547Y-85053527D01*
X34801555Y-84979909D01*
X34801500Y-84975880D01*
X34801500Y-84495699D01*
X34803195Y-84473290D01*
X34804691Y-84463455D01*
X34805993Y-84454897D01*
X34801990Y-84405678D01*
X34801500Y-84393600D01*
X34801500Y-84387042D01*
X34801002Y-84382767D01*
X34801001Y-84382757D01*
X34798409Y-84360527D01*
X34797897Y-84355352D01*
X34792980Y-84294903D01*
X34792279Y-84286278D01*
X34789612Y-84278044D01*
X34788829Y-84274126D01*
X34788808Y-84273991D01*
X34788771Y-84273860D01*
X34787851Y-84269969D01*
X34786848Y-84261368D01*
X34784344Y-84254470D01*
X34780500Y-84221500D01*
X34780500Y-83946503D01*
X39601001Y-83946503D01*
X39601400Y-83954204D01*
X39611127Y-84047953D01*
X39614547Y-84063793D01*
X39665168Y-84215524D01*
X39672461Y-84231093D01*
X39756359Y-84366669D01*
X39767048Y-84380156D01*
X39879883Y-84492795D01*
X39893377Y-84503452D01*
X40029105Y-84587115D01*
X40044693Y-84594384D01*
X40196518Y-84644743D01*
X40212333Y-84648133D01*
X40304849Y-84657612D01*
X40312444Y-84658000D01*
X40710384Y-84658000D01*
X40725855Y-84653855D01*
X40730000Y-84638384D01*
X40730000Y-84638383D01*
X41238000Y-84638383D01*
X41242145Y-84653854D01*
X41257616Y-84657999D01*
X41655503Y-84657999D01*
X41663204Y-84657600D01*
X41756953Y-84647873D01*
X41772793Y-84644453D01*
X41924524Y-84593832D01*
X41940093Y-84586539D01*
X42075669Y-84502641D01*
X42089156Y-84491952D01*
X42201795Y-84379117D01*
X42212452Y-84365623D01*
X42296115Y-84229895D01*
X42303384Y-84214307D01*
X42353743Y-84062482D01*
X42357133Y-84046667D01*
X42366612Y-83954151D01*
X42367000Y-83946556D01*
X42367000Y-83823616D01*
X42362855Y-83808145D01*
X42347384Y-83804000D01*
X41257616Y-83804000D01*
X41242145Y-83808145D01*
X41238000Y-83823616D01*
X41238000Y-84638383D01*
X40730000Y-84638383D01*
X40730000Y-83823616D01*
X40725855Y-83808145D01*
X40710384Y-83804000D01*
X39620617Y-83804000D01*
X39605146Y-83808145D01*
X39601001Y-83823616D01*
X39601001Y-83946503D01*
X34780500Y-83946503D01*
X34780500Y-81644594D01*
X39507074Y-81644594D01*
X39508231Y-81651327D01*
X39508231Y-81651328D01*
X39516594Y-81699999D01*
X39544438Y-81862043D01*
X39546799Y-81868442D01*
X39546800Y-81868447D01*
X39553172Y-81885719D01*
X39620804Y-82069043D01*
X39733614Y-82258659D01*
X39738122Y-82263799D01*
X39872711Y-82417269D01*
X39906824Y-82486443D01*
X39901780Y-82563406D01*
X39866137Y-82620779D01*
X39766202Y-82720888D01*
X39755548Y-82734377D01*
X39671885Y-82870105D01*
X39664616Y-82885693D01*
X39614257Y-83037518D01*
X39610867Y-83053333D01*
X39601388Y-83145849D01*
X39601000Y-83153445D01*
X39601000Y-83276384D01*
X39605145Y-83291855D01*
X39620616Y-83296000D01*
X42347383Y-83296000D01*
X42362854Y-83291855D01*
X42366999Y-83276384D01*
X42366999Y-83153497D01*
X42366600Y-83145796D01*
X42356873Y-83052047D01*
X42353453Y-83036207D01*
X42302832Y-82884476D01*
X42295539Y-82868907D01*
X42211641Y-82733331D01*
X42200952Y-82719844D01*
X42100436Y-82619503D01*
X42061814Y-82552742D01*
X42061747Y-82475614D01*
X42096289Y-82412912D01*
X42210860Y-82288970D01*
X42210862Y-82288968D01*
X42215501Y-82283949D01*
X42333236Y-82097350D01*
X42414994Y-81892421D01*
X42444588Y-81743642D01*
X42456705Y-81682727D01*
X42456705Y-81682724D01*
X42458038Y-81676024D01*
X42460926Y-81455406D01*
X42423562Y-81237957D01*
X42421201Y-81231558D01*
X42421200Y-81231553D01*
X42349560Y-81037366D01*
X42347196Y-81030957D01*
X42234386Y-80841341D01*
X42088910Y-80675457D01*
X42083547Y-80671229D01*
X41921005Y-80543092D01*
X41921002Y-80543090D01*
X41915640Y-80538863D01*
X41769921Y-80462196D01*
X41726425Y-80439311D01*
X41726421Y-80439309D01*
X41720380Y-80436131D01*
X41589208Y-80395401D01*
X41516187Y-80372727D01*
X41516182Y-80372726D01*
X41509667Y-80370703D01*
X41502890Y-80369901D01*
X41502886Y-80369900D01*
X41334877Y-80350015D01*
X41334873Y-80350015D01*
X41330524Y-80349500D01*
X40653030Y-80349500D01*
X40489289Y-80364546D01*
X40276936Y-80424435D01*
X40270807Y-80427457D01*
X40270803Y-80427459D01*
X40246770Y-80439311D01*
X40079053Y-80522020D01*
X40073582Y-80526105D01*
X40073581Y-80526106D01*
X40050834Y-80543092D01*
X39902267Y-80654033D01*
X39897629Y-80659050D01*
X39897626Y-80659053D01*
X39877712Y-80680596D01*
X39752499Y-80816051D01*
X39748854Y-80821829D01*
X39748851Y-80821832D01*
X39664551Y-80955440D01*
X39634764Y-81002650D01*
X39553006Y-81207579D01*
X39509962Y-81423976D01*
X39507074Y-81644594D01*
X34780500Y-81644594D01*
X34780500Y-78344963D01*
X43698757Y-78344963D01*
X43715175Y-78540483D01*
X43717185Y-78547492D01*
X43717185Y-78547493D01*
X43744588Y-78643057D01*
X43769258Y-78729091D01*
X43858944Y-78903601D01*
X43901814Y-78957690D01*
X43966483Y-79039282D01*
X43980818Y-79057369D01*
X44130238Y-79184535D01*
X44136601Y-79188091D01*
X44295149Y-79276701D01*
X44295155Y-79276704D01*
X44301513Y-79280257D01*
X44488118Y-79340889D01*
X44561397Y-79349627D01*
X44675715Y-79363259D01*
X44675718Y-79363259D01*
X44682946Y-79364121D01*
X44794443Y-79355542D01*
X44871314Y-79349627D01*
X44871316Y-79349627D01*
X44878576Y-79349068D01*
X45067556Y-79296303D01*
X45074062Y-79293016D01*
X45074066Y-79293015D01*
X45236184Y-79211123D01*
X45236185Y-79211123D01*
X45242689Y-79207837D01*
X45397303Y-79087040D01*
X45525509Y-78938511D01*
X45622425Y-78767909D01*
X45684358Y-78581732D01*
X45708949Y-78387071D01*
X45709341Y-78359000D01*
X45690194Y-78163728D01*
X45633484Y-77975894D01*
X45562421Y-77842244D01*
X45544792Y-77809088D01*
X45544790Y-77809085D01*
X45541370Y-77802653D01*
X45536767Y-77797010D01*
X45536765Y-77797006D01*
X45421964Y-77656246D01*
X45417361Y-77650602D01*
X45266180Y-77525535D01*
X45093585Y-77432213D01*
X44963202Y-77391853D01*
X44913111Y-77376347D01*
X44913109Y-77376347D01*
X44906152Y-77374193D01*
X44898910Y-77373432D01*
X44898906Y-77373431D01*
X44718260Y-77354444D01*
X44718259Y-77354444D01*
X44711019Y-77353683D01*
X44515618Y-77371466D01*
X44327393Y-77426864D01*
X44153512Y-77517767D01*
X44147838Y-77522329D01*
X44017748Y-77626924D01*
X44000600Y-77640711D01*
X43874480Y-77791016D01*
X43779956Y-77962954D01*
X43720628Y-78149978D01*
X43719815Y-78157222D01*
X43719815Y-78157224D01*
X43705665Y-78283377D01*
X43698757Y-78344963D01*
X34780500Y-78344963D01*
X34780500Y-63747162D01*
X34800462Y-63672662D01*
X34855000Y-63618124D01*
X34901266Y-63601284D01*
X34904076Y-63601068D01*
X34991813Y-63576571D01*
X35086033Y-63550264D01*
X35086034Y-63550264D01*
X35093056Y-63548303D01*
X35099562Y-63545016D01*
X35099566Y-63545015D01*
X35261684Y-63463123D01*
X35261685Y-63463123D01*
X35268189Y-63459837D01*
X35290545Y-63442370D01*
X35359080Y-63388826D01*
X35430077Y-63358690D01*
X35506630Y-63368090D01*
X35513902Y-63371256D01*
X35551473Y-63388816D01*
X35556143Y-63391099D01*
X35610176Y-63418689D01*
X35610179Y-63418690D01*
X35617889Y-63422627D01*
X35626297Y-63424684D01*
X35630036Y-63426075D01*
X35630170Y-63426131D01*
X35630312Y-63426172D01*
X35634096Y-63427431D01*
X35641938Y-63431096D01*
X35709812Y-63445213D01*
X35714843Y-63446351D01*
X35751617Y-63455350D01*
X35775780Y-63461263D01*
X35775782Y-63461263D01*
X35782217Y-63462838D01*
X35788832Y-63463248D01*
X35788836Y-63463249D01*
X35789972Y-63463319D01*
X35792888Y-63463500D01*
X35793635Y-63463500D01*
X35799390Y-63463846D01*
X35807568Y-63465547D01*
X35816220Y-63465313D01*
X35816221Y-63465313D01*
X35881185Y-63463555D01*
X35885215Y-63463500D01*
X35964304Y-63463500D01*
X36038804Y-63483462D01*
X36093342Y-63538000D01*
X36113304Y-63612500D01*
X36106329Y-63657553D01*
X36055939Y-63816401D01*
X36034068Y-64011386D01*
X36050486Y-64206906D01*
X36104569Y-64395514D01*
X36194255Y-64570024D01*
X36316129Y-64723792D01*
X36465549Y-64850958D01*
X36471912Y-64854514D01*
X36630460Y-64943124D01*
X36630466Y-64943127D01*
X36636824Y-64946680D01*
X36823429Y-65007312D01*
X36896708Y-65016050D01*
X37011026Y-65029682D01*
X37011029Y-65029682D01*
X37018257Y-65030544D01*
X37129754Y-65021965D01*
X37206625Y-65016050D01*
X37206627Y-65016050D01*
X37213887Y-65015491D01*
X37402867Y-64962726D01*
X37409373Y-64959439D01*
X37409377Y-64959438D01*
X37571495Y-64877546D01*
X37571496Y-64877546D01*
X37578000Y-64874260D01*
X37695436Y-64782509D01*
X37766434Y-64752373D01*
X37787170Y-64750923D01*
X39094506Y-64750923D01*
X39169006Y-64770885D01*
X39199865Y-64794564D01*
X41971859Y-67566558D01*
X42010423Y-67633353D01*
X42015500Y-67671917D01*
X42015500Y-68051872D01*
X41995538Y-68126372D01*
X41941000Y-68180910D01*
X41866500Y-68200872D01*
X41792000Y-68180910D01*
X41751033Y-68146044D01*
X41738964Y-68131246D01*
X41734361Y-68125602D01*
X41583180Y-68000535D01*
X41410585Y-67907213D01*
X41280202Y-67866853D01*
X41230111Y-67851347D01*
X41230109Y-67851347D01*
X41223152Y-67849193D01*
X41215910Y-67848432D01*
X41215906Y-67848431D01*
X41035260Y-67829444D01*
X41035259Y-67829444D01*
X41028019Y-67828683D01*
X40832618Y-67846466D01*
X40644393Y-67901864D01*
X40470512Y-67992767D01*
X40317600Y-68115711D01*
X40191480Y-68266016D01*
X40096956Y-68437954D01*
X40042214Y-68610523D01*
X40039403Y-68619384D01*
X39997849Y-68684361D01*
X39929374Y-68719855D01*
X39852325Y-68716356D01*
X39826510Y-68705399D01*
X39805696Y-68694145D01*
X39759585Y-68669213D01*
X39598613Y-68619384D01*
X39579111Y-68613347D01*
X39579109Y-68613347D01*
X39572152Y-68611193D01*
X39564910Y-68610432D01*
X39564906Y-68610431D01*
X39384260Y-68591444D01*
X39384259Y-68591444D01*
X39377019Y-68590683D01*
X39181618Y-68608466D01*
X38993393Y-68663864D01*
X38819512Y-68754767D01*
X38813838Y-68759329D01*
X38770919Y-68793837D01*
X38666600Y-68877711D01*
X38540480Y-69028016D01*
X38445956Y-69199954D01*
X38386628Y-69386978D01*
X38385815Y-69394222D01*
X38385815Y-69394224D01*
X38368699Y-69546817D01*
X38364757Y-69581963D01*
X38381175Y-69777483D01*
X38383185Y-69784492D01*
X38383185Y-69784493D01*
X38399996Y-69843118D01*
X38435258Y-69966091D01*
X38481885Y-70056817D01*
X38485319Y-70063499D01*
X38501618Y-70138886D01*
X38478040Y-70212321D01*
X38446160Y-70247728D01*
X38412600Y-70274711D01*
X38286480Y-70425016D01*
X38191956Y-70596954D01*
X38132628Y-70783978D01*
X38131815Y-70791222D01*
X38131815Y-70791224D01*
X38116677Y-70926181D01*
X38110757Y-70978963D01*
X38127175Y-71174483D01*
X38181258Y-71363091D01*
X38270944Y-71537601D01*
X38392818Y-71691369D01*
X38542238Y-71818535D01*
X38548601Y-71822091D01*
X38707149Y-71910701D01*
X38707155Y-71910704D01*
X38713513Y-71914257D01*
X38720450Y-71916511D01*
X38824848Y-71950432D01*
X38889533Y-71992439D01*
X38922032Y-72051069D01*
X38941249Y-72118087D01*
X38941251Y-72118092D01*
X38943258Y-72125091D01*
X39032944Y-72299601D01*
X39154818Y-72453369D01*
X39304238Y-72580535D01*
X39310601Y-72584091D01*
X39469149Y-72672701D01*
X39469155Y-72672704D01*
X39475513Y-72676257D01*
X39482450Y-72678511D01*
X39586848Y-72712432D01*
X39651533Y-72754439D01*
X39684032Y-72813069D01*
X39703249Y-72880087D01*
X39703251Y-72880092D01*
X39705258Y-72887091D01*
X39794944Y-73061601D01*
X39846483Y-73126627D01*
X39911761Y-73208988D01*
X39916818Y-73215369D01*
X40066238Y-73342535D01*
X40072601Y-73346091D01*
X40231149Y-73434701D01*
X40231155Y-73434704D01*
X40237513Y-73438257D01*
X40424118Y-73498889D01*
X40497397Y-73507627D01*
X40611715Y-73521259D01*
X40611718Y-73521259D01*
X40618946Y-73522121D01*
X40730443Y-73513542D01*
X40807314Y-73507627D01*
X40807316Y-73507627D01*
X40814576Y-73507068D01*
X41003556Y-73454303D01*
X41010062Y-73451016D01*
X41010066Y-73451015D01*
X41172184Y-73369123D01*
X41172185Y-73369123D01*
X41178689Y-73365837D01*
X41333303Y-73245040D01*
X41433361Y-73129121D01*
X41497152Y-73085768D01*
X41574073Y-73080119D01*
X41592198Y-73084773D01*
X41694118Y-73117889D01*
X41767397Y-73126627D01*
X41881715Y-73140259D01*
X41881718Y-73140259D01*
X41888946Y-73141121D01*
X42000443Y-73132542D01*
X42077314Y-73126627D01*
X42077316Y-73126627D01*
X42084576Y-73126068D01*
X42234363Y-73084246D01*
X42266533Y-73075264D01*
X42266534Y-73075264D01*
X42273556Y-73073303D01*
X42280062Y-73070016D01*
X42280066Y-73070015D01*
X42442184Y-72988123D01*
X42442185Y-72988123D01*
X42448689Y-72984837D01*
X42574770Y-72886332D01*
X42645763Y-72856198D01*
X42722316Y-72865598D01*
X42783914Y-72912014D01*
X42814050Y-72983011D01*
X42815500Y-73003748D01*
X42815501Y-73496635D01*
X42815501Y-73987360D01*
X42830956Y-74104762D01*
X42891464Y-74250841D01*
X42987718Y-74376282D01*
X43113159Y-74472536D01*
X43122182Y-74476274D01*
X43122183Y-74476274D01*
X43226605Y-74519527D01*
X43259238Y-74533044D01*
X43268919Y-74534319D01*
X43268921Y-74534319D01*
X43371797Y-74547863D01*
X43371804Y-74547863D01*
X43376639Y-74548500D01*
X45415791Y-74548500D01*
X47455360Y-74548499D01*
X47572762Y-74533044D01*
X47605395Y-74519527D01*
X47709817Y-74476274D01*
X47709818Y-74476274D01*
X47718841Y-74472536D01*
X47844282Y-74376282D01*
X47899879Y-74303826D01*
X47961068Y-74256875D01*
X48037537Y-74246808D01*
X48108794Y-74276323D01*
X48155746Y-74337513D01*
X48161316Y-74353462D01*
X48214258Y-74538091D01*
X48303944Y-74712601D01*
X48425818Y-74866369D01*
X48575238Y-74993535D01*
X48581601Y-74997091D01*
X48740149Y-75085701D01*
X48740155Y-75085704D01*
X48746513Y-75089257D01*
X48933118Y-75149889D01*
X49032805Y-75161776D01*
X49120715Y-75172259D01*
X49120718Y-75172259D01*
X49127946Y-75173121D01*
X49275382Y-75161776D01*
X49351192Y-75175964D01*
X49409754Y-75226157D01*
X49435373Y-75298905D01*
X49435812Y-75310243D01*
X49437201Y-77504243D01*
X49437223Y-77539718D01*
X49417308Y-77614230D01*
X49361272Y-77669677D01*
X48646472Y-78071752D01*
X47750736Y-78575603D01*
X47734711Y-78583394D01*
X47712184Y-78592725D01*
X47712180Y-78592727D01*
X47703159Y-78596464D01*
X47695412Y-78602408D01*
X47695411Y-78602409D01*
X47643756Y-78642046D01*
X47642556Y-78642957D01*
X47582546Y-78687944D01*
X47580433Y-78690635D01*
X47577718Y-78692718D01*
X47572399Y-78699650D01*
X47572397Y-78699652D01*
X47532127Y-78752134D01*
X47531109Y-78753446D01*
X47484892Y-78812298D01*
X47483547Y-78815444D01*
X47481464Y-78818159D01*
X47478125Y-78826221D01*
X47452827Y-78887296D01*
X47452179Y-78888837D01*
X47433653Y-78932182D01*
X47422750Y-78957690D01*
X47422265Y-78961077D01*
X47420956Y-78964238D01*
X47419818Y-78972885D01*
X47419817Y-78972887D01*
X47411186Y-79038449D01*
X47410973Y-79040002D01*
X47400356Y-79114211D01*
X47401522Y-79123906D01*
X47401522Y-79123910D01*
X47404434Y-79148118D01*
X47405500Y-79165910D01*
X47405500Y-85698398D01*
X47405125Y-85708961D01*
X47401406Y-85761290D01*
X47403258Y-85770875D01*
X47403258Y-85770878D01*
X47412142Y-85816865D01*
X47413572Y-85825677D01*
X47420956Y-85881762D01*
X47424694Y-85890787D01*
X47426881Y-85898948D01*
X47429546Y-85906942D01*
X47431399Y-85916534D01*
X47456163Y-85967454D01*
X47459801Y-85975541D01*
X47481464Y-86027841D01*
X47487412Y-86035592D01*
X47491636Y-86042909D01*
X47496280Y-86049943D01*
X47500551Y-86058725D01*
X47506946Y-86066099D01*
X47506951Y-86066106D01*
X47537630Y-86101479D01*
X47543276Y-86108397D01*
X47577718Y-86153282D01*
X47585469Y-86159229D01*
X47591431Y-86165191D01*
X47597746Y-86170791D01*
X47604148Y-86178173D01*
X47630111Y-86195728D01*
X47651023Y-86209868D01*
X47658265Y-86215088D01*
X47703159Y-86249536D01*
X47712183Y-86253274D01*
X47712185Y-86253275D01*
X47751622Y-86269610D01*
X47761227Y-86273993D01*
X48577080Y-86681919D01*
X49355135Y-87070947D01*
X49412842Y-87122120D01*
X49437232Y-87195290D01*
X49437500Y-87204217D01*
X49437500Y-88389801D01*
X49417538Y-88464301D01*
X49363000Y-88518839D01*
X49288500Y-88538801D01*
X49214000Y-88518839D01*
X49165121Y-88473339D01*
X49162937Y-88470113D01*
X49158069Y-88463699D01*
X49042012Y-88326849D01*
X49028842Y-88317730D01*
X49018674Y-88322536D01*
X46855081Y-90486129D01*
X46847073Y-90500000D01*
X46855081Y-90513871D01*
X49015404Y-92674194D01*
X49029275Y-92682202D01*
X49039292Y-92676419D01*
X49143790Y-92554930D01*
X49148699Y-92548556D01*
X49165705Y-92523811D01*
X49224353Y-92473720D01*
X49300190Y-92459664D01*
X49372894Y-92485410D01*
X49422985Y-92544058D01*
X49437500Y-92608205D01*
X49437500Y-93230500D01*
X49417538Y-93305000D01*
X49363000Y-93359538D01*
X49288500Y-93379500D01*
X48686243Y-93379500D01*
X48611743Y-93359538D01*
X48557205Y-93305000D01*
X48537243Y-93230500D01*
X48557205Y-93156000D01*
X48596780Y-93111347D01*
X48640432Y-93078572D01*
X48646591Y-93073403D01*
X48657893Y-93062827D01*
X48665928Y-93049918D01*
X48657456Y-93034666D01*
X46495871Y-90873081D01*
X46482000Y-90865073D01*
X46468129Y-90873081D01*
X44304468Y-93036742D01*
X44296736Y-93050134D01*
X44302969Y-93060650D01*
X44370267Y-93112290D01*
X44417220Y-93173480D01*
X44427287Y-93249948D01*
X44397772Y-93321205D01*
X44336582Y-93368158D01*
X44279562Y-93379500D01*
X41357216Y-93379500D01*
X41282716Y-93359538D01*
X41228178Y-93305000D01*
X41223946Y-93297134D01*
X41189001Y-93227243D01*
X41184613Y-93217629D01*
X41168274Y-93178183D01*
X41168274Y-93178182D01*
X41164536Y-93169159D01*
X41130088Y-93124265D01*
X41124868Y-93117023D01*
X41098645Y-93078241D01*
X41093173Y-93070148D01*
X41085791Y-93063746D01*
X41080191Y-93057431D01*
X41074229Y-93051469D01*
X41068282Y-93043718D01*
X41023397Y-93009276D01*
X41016479Y-93003630D01*
X40981106Y-92972951D01*
X40981099Y-92972946D01*
X40973725Y-92966551D01*
X40964943Y-92962280D01*
X40957909Y-92957636D01*
X40950592Y-92953412D01*
X40942841Y-92947464D01*
X40890541Y-92925801D01*
X40882454Y-92922163D01*
X40831534Y-92897399D01*
X40821942Y-92895546D01*
X40813948Y-92892881D01*
X40805787Y-92890694D01*
X40796762Y-92886956D01*
X40787079Y-92885681D01*
X40787078Y-92885681D01*
X40740677Y-92879572D01*
X40731865Y-92878142D01*
X40685878Y-92869258D01*
X40685875Y-92869258D01*
X40676290Y-92867406D01*
X40666553Y-92868098D01*
X40666552Y-92868098D01*
X40623961Y-92871125D01*
X40613398Y-92871500D01*
X31903602Y-92871500D01*
X31893039Y-92871125D01*
X31850448Y-92868098D01*
X31850447Y-92868098D01*
X31840710Y-92867406D01*
X31831126Y-92869258D01*
X31831121Y-92869258D01*
X31785145Y-92878141D01*
X31776332Y-92879571D01*
X31759092Y-92881841D01*
X31729920Y-92885681D01*
X31729918Y-92885682D01*
X31720238Y-92886956D01*
X31711221Y-92890691D01*
X31703070Y-92892875D01*
X31695053Y-92895548D01*
X31685466Y-92897400D01*
X31634575Y-92922150D01*
X31626436Y-92925810D01*
X31574159Y-92947464D01*
X31566408Y-92953411D01*
X31559096Y-92957633D01*
X31552058Y-92962280D01*
X31543275Y-92966551D01*
X31535898Y-92972949D01*
X31535895Y-92972951D01*
X31500521Y-93003630D01*
X31493603Y-93009276D01*
X31448718Y-93043718D01*
X31442771Y-93051469D01*
X31436809Y-93057431D01*
X31431209Y-93063746D01*
X31423827Y-93070148D01*
X31418355Y-93078241D01*
X31392132Y-93117023D01*
X31386912Y-93124265D01*
X31352464Y-93169159D01*
X31348726Y-93178182D01*
X31348726Y-93178183D01*
X31332387Y-93217629D01*
X31327999Y-93227243D01*
X31293054Y-93297134D01*
X31241882Y-93354842D01*
X31168712Y-93379232D01*
X31159784Y-93379500D01*
X27858243Y-93379500D01*
X27783743Y-93359538D01*
X27729205Y-93305000D01*
X27709243Y-93230500D01*
X27729205Y-93156000D01*
X27768780Y-93111347D01*
X27812432Y-93078572D01*
X27818591Y-93073403D01*
X27829893Y-93062827D01*
X27837928Y-93049918D01*
X27829456Y-93034666D01*
X25667871Y-90873081D01*
X25654000Y-90865073D01*
X25640129Y-90873081D01*
X23476468Y-93036742D01*
X23468736Y-93050134D01*
X23474969Y-93060650D01*
X23542267Y-93112290D01*
X23589220Y-93173480D01*
X23599287Y-93249948D01*
X23569772Y-93321205D01*
X23508582Y-93368158D01*
X23451562Y-93379500D01*
X22846250Y-93379500D01*
X22771750Y-93359538D01*
X22717212Y-93305000D01*
X22697250Y-93230749D01*
X22696324Y-92676419D01*
X22696210Y-92608064D01*
X22716048Y-92533531D01*
X22770495Y-92478902D01*
X22844961Y-92458815D01*
X22919494Y-92478653D01*
X22964207Y-92518144D01*
X22970845Y-92526953D01*
X23093976Y-92673175D01*
X23107111Y-92682338D01*
X23117159Y-92677631D01*
X25280919Y-90513871D01*
X25288927Y-90500000D01*
X26019073Y-90500000D01*
X26027081Y-90513871D01*
X28187404Y-92674194D01*
X28201275Y-92682202D01*
X28211292Y-92676419D01*
X28315790Y-92554930D01*
X28320699Y-92548555D01*
X28522151Y-92255440D01*
X28526343Y-92248572D01*
X28694960Y-91935418D01*
X28698387Y-91928135D01*
X28832197Y-91598603D01*
X28834823Y-91590975D01*
X28890736Y-91394690D01*
X31839000Y-91394690D01*
X31839408Y-91402471D01*
X31853133Y-91533062D01*
X31856362Y-91548249D01*
X31910518Y-91714924D01*
X31916835Y-91729112D01*
X32004464Y-91880891D01*
X32013588Y-91893448D01*
X32130858Y-92023691D01*
X32142396Y-92034081D01*
X32284183Y-92137094D01*
X32297633Y-92144859D01*
X32457730Y-92216139D01*
X32472507Y-92220941D01*
X32473813Y-92221219D01*
X32489807Y-92220380D01*
X32493000Y-92214115D01*
X32493000Y-92205681D01*
X33001000Y-92205681D01*
X33005145Y-92221152D01*
X33011939Y-92222972D01*
X33021493Y-92220941D01*
X33036270Y-92216139D01*
X33196367Y-92144859D01*
X33209817Y-92137094D01*
X33351604Y-92034081D01*
X33363142Y-92023691D01*
X33480412Y-91893448D01*
X33489536Y-91880891D01*
X33577165Y-91729112D01*
X33583482Y-91714924D01*
X33637638Y-91548249D01*
X33640867Y-91533062D01*
X33654592Y-91402471D01*
X33655000Y-91394690D01*
X38839000Y-91394690D01*
X38839408Y-91402471D01*
X38853133Y-91533062D01*
X38856362Y-91548249D01*
X38910518Y-91714924D01*
X38916835Y-91729112D01*
X39004464Y-91880891D01*
X39013588Y-91893448D01*
X39130858Y-92023691D01*
X39142396Y-92034081D01*
X39284183Y-92137094D01*
X39297633Y-92144859D01*
X39457730Y-92216139D01*
X39472507Y-92220941D01*
X39473813Y-92221219D01*
X39489807Y-92220380D01*
X39493000Y-92214115D01*
X39493000Y-92205681D01*
X40001000Y-92205681D01*
X40005145Y-92221152D01*
X40011939Y-92222972D01*
X40021493Y-92220941D01*
X40036270Y-92216139D01*
X40196367Y-92144859D01*
X40209817Y-92137094D01*
X40351604Y-92034081D01*
X40363142Y-92023691D01*
X40480412Y-91893448D01*
X40489536Y-91880891D01*
X40577165Y-91729112D01*
X40583482Y-91714924D01*
X40637638Y-91548249D01*
X40640867Y-91533062D01*
X40654592Y-91402471D01*
X40655000Y-91394690D01*
X40655000Y-91224616D01*
X40650855Y-91209145D01*
X40635384Y-91205000D01*
X40020616Y-91205000D01*
X40005145Y-91209145D01*
X40001000Y-91224616D01*
X40001000Y-92205681D01*
X39493000Y-92205681D01*
X39493000Y-91224616D01*
X39488855Y-91209145D01*
X39473384Y-91205000D01*
X38858616Y-91205000D01*
X38843145Y-91209145D01*
X38839000Y-91224616D01*
X38839000Y-91394690D01*
X33655000Y-91394690D01*
X33655000Y-91224616D01*
X33650855Y-91209145D01*
X33635384Y-91205000D01*
X33020616Y-91205000D01*
X33005145Y-91209145D01*
X33001000Y-91224616D01*
X33001000Y-92205681D01*
X32493000Y-92205681D01*
X32493000Y-91224616D01*
X32488855Y-91209145D01*
X32473384Y-91205000D01*
X31858616Y-91205000D01*
X31843145Y-91209145D01*
X31839000Y-91224616D01*
X31839000Y-91394690D01*
X28890736Y-91394690D01*
X28932255Y-91248934D01*
X28934040Y-91241081D01*
X28993966Y-90890501D01*
X28994891Y-90882498D01*
X29007437Y-90677384D01*
X31839000Y-90677384D01*
X31843145Y-90692855D01*
X31858616Y-90697000D01*
X32473384Y-90697000D01*
X32488855Y-90692855D01*
X32493000Y-90677384D01*
X33001000Y-90677384D01*
X33005145Y-90692855D01*
X33020616Y-90697000D01*
X33635384Y-90697000D01*
X33650855Y-90692855D01*
X33655000Y-90677384D01*
X38839000Y-90677384D01*
X38843145Y-90692855D01*
X38858616Y-90697000D01*
X39473384Y-90697000D01*
X39488855Y-90692855D01*
X39493000Y-90677384D01*
X40001000Y-90677384D01*
X40005145Y-90692855D01*
X40020616Y-90697000D01*
X40635384Y-90697000D01*
X40650855Y-90692855D01*
X40655000Y-90677384D01*
X40655000Y-90507310D01*
X40654592Y-90499529D01*
X40653831Y-90492288D01*
X43119292Y-90492288D01*
X43137286Y-90847501D01*
X43138126Y-90855492D01*
X43194380Y-91206695D01*
X43196081Y-91214560D01*
X43289932Y-91557623D01*
X43292470Y-91565252D01*
X43422823Y-91896173D01*
X43426174Y-91903492D01*
X43591504Y-92218400D01*
X43595621Y-92225306D01*
X43793996Y-92520519D01*
X43798838Y-92526945D01*
X43921976Y-92673175D01*
X43935111Y-92682338D01*
X43945159Y-92677631D01*
X46108919Y-90513871D01*
X46116927Y-90500000D01*
X46108919Y-90486129D01*
X43948586Y-88325796D01*
X43934715Y-88317788D01*
X43924837Y-88323491D01*
X43813056Y-88454371D01*
X43808171Y-88460760D01*
X43607740Y-88754579D01*
X43603565Y-88761474D01*
X43436052Y-89075199D01*
X43432644Y-89082509D01*
X43299983Y-89412510D01*
X43297394Y-89420116D01*
X43201149Y-89762516D01*
X43199393Y-89770373D01*
X43140691Y-90121165D01*
X43139794Y-90129163D01*
X43119320Y-90484238D01*
X43119292Y-90492288D01*
X40653831Y-90492288D01*
X40640867Y-90368938D01*
X40637638Y-90353751D01*
X40583482Y-90187076D01*
X40577165Y-90172888D01*
X40489536Y-90021109D01*
X40480412Y-90008552D01*
X40363142Y-89878309D01*
X40351604Y-89867919D01*
X40209817Y-89764906D01*
X40196367Y-89757141D01*
X40036270Y-89685861D01*
X40021493Y-89681059D01*
X40020187Y-89680781D01*
X40004193Y-89681620D01*
X40001000Y-89687885D01*
X40001000Y-90677384D01*
X39493000Y-90677384D01*
X39493000Y-89696319D01*
X39488855Y-89680848D01*
X39482061Y-89679028D01*
X39472507Y-89681059D01*
X39457730Y-89685861D01*
X39297633Y-89757141D01*
X39284183Y-89764906D01*
X39142396Y-89867919D01*
X39130858Y-89878309D01*
X39013588Y-90008552D01*
X39004464Y-90021109D01*
X38916835Y-90172888D01*
X38910518Y-90187076D01*
X38856362Y-90353751D01*
X38853133Y-90368938D01*
X38839408Y-90499529D01*
X38839000Y-90507310D01*
X38839000Y-90677384D01*
X33655000Y-90677384D01*
X33655000Y-90507310D01*
X33654592Y-90499529D01*
X33640867Y-90368938D01*
X33637638Y-90353751D01*
X33583482Y-90187076D01*
X33577165Y-90172888D01*
X33489536Y-90021109D01*
X33480412Y-90008552D01*
X33363142Y-89878309D01*
X33351604Y-89867919D01*
X33209817Y-89764906D01*
X33196367Y-89757141D01*
X33036270Y-89685861D01*
X33021493Y-89681059D01*
X33020187Y-89680781D01*
X33004193Y-89681620D01*
X33001000Y-89687885D01*
X33001000Y-90677384D01*
X32493000Y-90677384D01*
X32493000Y-89696319D01*
X32488855Y-89680848D01*
X32482061Y-89679028D01*
X32472507Y-89681059D01*
X32457730Y-89685861D01*
X32297633Y-89757141D01*
X32284183Y-89764906D01*
X32142396Y-89867919D01*
X32130858Y-89878309D01*
X32013588Y-90008552D01*
X32004464Y-90021109D01*
X31916835Y-90172888D01*
X31910518Y-90187076D01*
X31856362Y-90353751D01*
X31853133Y-90368938D01*
X31839408Y-90499529D01*
X31839000Y-90507310D01*
X31839000Y-90677384D01*
X29007437Y-90677384D01*
X29016720Y-90525611D01*
X29016857Y-90521341D01*
X29016925Y-90502135D01*
X29016817Y-90497870D01*
X28997480Y-90140834D01*
X28996609Y-90132820D01*
X28939135Y-89781847D01*
X28937404Y-89773971D01*
X28842358Y-89431245D01*
X28839792Y-89423620D01*
X28784329Y-89284248D01*
X33078825Y-89284248D01*
X33082803Y-89291139D01*
X33122815Y-89319156D01*
X33134043Y-89325638D01*
X33317785Y-89411319D01*
X33329959Y-89415750D01*
X33525795Y-89468224D01*
X33538550Y-89470473D01*
X33740519Y-89488143D01*
X33753481Y-89488143D01*
X33955450Y-89470473D01*
X33968205Y-89468224D01*
X34164041Y-89415750D01*
X34176215Y-89411319D01*
X34359957Y-89325638D01*
X34371185Y-89319156D01*
X34404969Y-89295500D01*
X34414410Y-89284248D01*
X38078825Y-89284248D01*
X38082803Y-89291139D01*
X38122815Y-89319156D01*
X38134043Y-89325638D01*
X38317785Y-89411319D01*
X38329959Y-89415750D01*
X38525795Y-89468224D01*
X38538550Y-89470473D01*
X38740519Y-89488143D01*
X38753481Y-89488143D01*
X38955450Y-89470473D01*
X38968205Y-89468224D01*
X39164041Y-89415750D01*
X39176215Y-89411319D01*
X39359957Y-89325638D01*
X39371185Y-89319156D01*
X39404969Y-89295500D01*
X39415264Y-89283230D01*
X39412543Y-89275753D01*
X38760871Y-88624081D01*
X38747000Y-88616073D01*
X38733129Y-88624081D01*
X38086833Y-89270377D01*
X38078825Y-89284248D01*
X34414410Y-89284248D01*
X34415264Y-89283230D01*
X34412543Y-89275753D01*
X33760871Y-88624081D01*
X33747000Y-88616073D01*
X33733129Y-88624081D01*
X33086833Y-89270377D01*
X33078825Y-89284248D01*
X28784329Y-89284248D01*
X28708284Y-89093155D01*
X28704909Y-89085850D01*
X28538484Y-88771530D01*
X28534330Y-88764617D01*
X28334936Y-88470112D01*
X28330069Y-88463699D01*
X28214012Y-88326849D01*
X28200842Y-88317730D01*
X28190674Y-88322536D01*
X26027081Y-90486129D01*
X26019073Y-90500000D01*
X25288927Y-90500000D01*
X25280919Y-90486129D01*
X23120586Y-88325796D01*
X23106715Y-88317788D01*
X23096837Y-88323491D01*
X22985056Y-88454371D01*
X22980161Y-88460773D01*
X22961281Y-88488449D01*
X22902807Y-88538744D01*
X22827020Y-88553063D01*
X22754227Y-88527571D01*
X22703932Y-88469097D01*
X22689193Y-88404732D01*
X22688433Y-87949766D01*
X23469658Y-87949766D01*
X23478084Y-87964874D01*
X25640129Y-90126919D01*
X25654000Y-90134927D01*
X25667871Y-90126919D01*
X27537309Y-88257481D01*
X32509857Y-88257481D01*
X32527527Y-88459450D01*
X32529776Y-88472205D01*
X32582250Y-88668041D01*
X32586681Y-88680215D01*
X32672362Y-88863957D01*
X32678844Y-88875185D01*
X32702500Y-88908969D01*
X32714770Y-88919264D01*
X32722247Y-88916543D01*
X33373919Y-88264871D01*
X33381927Y-88251000D01*
X34112073Y-88251000D01*
X34120081Y-88264871D01*
X34766377Y-88911167D01*
X34780248Y-88919175D01*
X34787139Y-88915197D01*
X34815156Y-88875185D01*
X34821638Y-88863957D01*
X34907319Y-88680215D01*
X34911750Y-88668041D01*
X34964224Y-88472205D01*
X34966473Y-88459450D01*
X34984143Y-88257481D01*
X37509857Y-88257481D01*
X37527527Y-88459450D01*
X37529776Y-88472205D01*
X37582250Y-88668041D01*
X37586681Y-88680215D01*
X37672362Y-88863957D01*
X37678844Y-88875185D01*
X37702500Y-88908969D01*
X37714770Y-88919264D01*
X37722247Y-88916543D01*
X38373919Y-88264871D01*
X38381927Y-88251000D01*
X39112073Y-88251000D01*
X39120081Y-88264871D01*
X39766377Y-88911167D01*
X39780248Y-88919175D01*
X39787139Y-88915197D01*
X39815156Y-88875185D01*
X39821638Y-88863957D01*
X39907319Y-88680215D01*
X39911750Y-88668041D01*
X39964224Y-88472205D01*
X39966473Y-88459450D01*
X39984143Y-88257481D01*
X39984143Y-88244519D01*
X39966473Y-88042550D01*
X39964224Y-88029795D01*
X39942780Y-87949766D01*
X44297658Y-87949766D01*
X44306084Y-87964874D01*
X46468129Y-90126919D01*
X46482000Y-90134927D01*
X46495871Y-90126919D01*
X48659107Y-87963683D01*
X48666797Y-87950363D01*
X48658794Y-87936911D01*
X48658371Y-87936551D01*
X48375452Y-87721025D01*
X48368801Y-87716505D01*
X48064249Y-87532787D01*
X48057147Y-87529011D01*
X47734545Y-87379264D01*
X47727057Y-87376269D01*
X47390181Y-87262244D01*
X47382423Y-87260077D01*
X47035200Y-87183100D01*
X47027234Y-87181781D01*
X46673725Y-87142754D01*
X46665703Y-87142305D01*
X46310038Y-87141684D01*
X46301976Y-87142107D01*
X45948337Y-87179900D01*
X45940399Y-87181185D01*
X45592898Y-87256953D01*
X45585119Y-87259096D01*
X45247857Y-87371942D01*
X45240352Y-87374913D01*
X44917233Y-87523531D01*
X44910119Y-87527281D01*
X44604921Y-87709939D01*
X44598263Y-87714430D01*
X44314587Y-87928973D01*
X44308435Y-87934172D01*
X44305694Y-87936755D01*
X44297658Y-87949766D01*
X39942780Y-87949766D01*
X39911750Y-87833959D01*
X39907319Y-87821785D01*
X39821638Y-87638043D01*
X39815156Y-87626815D01*
X39791500Y-87593031D01*
X39779230Y-87582736D01*
X39771753Y-87585457D01*
X39120081Y-88237129D01*
X39112073Y-88251000D01*
X38381927Y-88251000D01*
X38373919Y-88237129D01*
X37727623Y-87590833D01*
X37713752Y-87582825D01*
X37706861Y-87586803D01*
X37678844Y-87626815D01*
X37672362Y-87638043D01*
X37586681Y-87821785D01*
X37582250Y-87833959D01*
X37529776Y-88029795D01*
X37527527Y-88042550D01*
X37509857Y-88244519D01*
X37509857Y-88257481D01*
X34984143Y-88257481D01*
X34984143Y-88244519D01*
X34966473Y-88042550D01*
X34964224Y-88029795D01*
X34911750Y-87833959D01*
X34907319Y-87821785D01*
X34821638Y-87638043D01*
X34815156Y-87626815D01*
X34791500Y-87593031D01*
X34779230Y-87582736D01*
X34771753Y-87585457D01*
X34120081Y-88237129D01*
X34112073Y-88251000D01*
X33381927Y-88251000D01*
X33373919Y-88237129D01*
X32727623Y-87590833D01*
X32713752Y-87582825D01*
X32706861Y-87586803D01*
X32678844Y-87626815D01*
X32672362Y-87638043D01*
X32586681Y-87821785D01*
X32582250Y-87833959D01*
X32529776Y-88029795D01*
X32527527Y-88042550D01*
X32509857Y-88244519D01*
X32509857Y-88257481D01*
X27537309Y-88257481D01*
X27831107Y-87963683D01*
X27838797Y-87950363D01*
X27830794Y-87936911D01*
X27830371Y-87936551D01*
X27547452Y-87721025D01*
X27540801Y-87716505D01*
X27236249Y-87532787D01*
X27229147Y-87529011D01*
X26906545Y-87379264D01*
X26899057Y-87376269D01*
X26562181Y-87262244D01*
X26554423Y-87260077D01*
X26368098Y-87218770D01*
X33078736Y-87218770D01*
X33081457Y-87226247D01*
X33733129Y-87877919D01*
X33747000Y-87885927D01*
X33760871Y-87877919D01*
X34407167Y-87231623D01*
X34414587Y-87218770D01*
X38078736Y-87218770D01*
X38081457Y-87226247D01*
X38733129Y-87877919D01*
X38747000Y-87885927D01*
X38760871Y-87877919D01*
X39407167Y-87231623D01*
X39415175Y-87217752D01*
X39411197Y-87210861D01*
X39371185Y-87182844D01*
X39359957Y-87176362D01*
X39176215Y-87090681D01*
X39164041Y-87086250D01*
X38968205Y-87033776D01*
X38955450Y-87031527D01*
X38753481Y-87013857D01*
X38740519Y-87013857D01*
X38538550Y-87031527D01*
X38525795Y-87033776D01*
X38329959Y-87086250D01*
X38317785Y-87090681D01*
X38134043Y-87176362D01*
X38122815Y-87182844D01*
X38089031Y-87206500D01*
X38078736Y-87218770D01*
X34414587Y-87218770D01*
X34415175Y-87217752D01*
X34411197Y-87210861D01*
X34371185Y-87182844D01*
X34359957Y-87176362D01*
X34176215Y-87090681D01*
X34164041Y-87086250D01*
X33968205Y-87033776D01*
X33955450Y-87031527D01*
X33753481Y-87013857D01*
X33740519Y-87013857D01*
X33538550Y-87031527D01*
X33525795Y-87033776D01*
X33329959Y-87086250D01*
X33317785Y-87090681D01*
X33134043Y-87176362D01*
X33122815Y-87182844D01*
X33089031Y-87206500D01*
X33078736Y-87218770D01*
X26368098Y-87218770D01*
X26207200Y-87183100D01*
X26199234Y-87181781D01*
X25845725Y-87142754D01*
X25837703Y-87142305D01*
X25482038Y-87141684D01*
X25473976Y-87142107D01*
X25120337Y-87179900D01*
X25112399Y-87181185D01*
X24764898Y-87256953D01*
X24757119Y-87259096D01*
X24419857Y-87371942D01*
X24412352Y-87374913D01*
X24089233Y-87523531D01*
X24082119Y-87527281D01*
X23776921Y-87709939D01*
X23770263Y-87714430D01*
X23486587Y-87928973D01*
X23480435Y-87934172D01*
X23477694Y-87936755D01*
X23469658Y-87949766D01*
X22688433Y-87949766D01*
X22680577Y-83243560D01*
X24162001Y-83243560D01*
X24162436Y-83251591D01*
X24167740Y-83300423D01*
X24172027Y-83318453D01*
X24216101Y-83436020D01*
X24226196Y-83454459D01*
X24300728Y-83553907D01*
X24315593Y-83568772D01*
X24415041Y-83643304D01*
X24433480Y-83653399D01*
X24551044Y-83697472D01*
X24569079Y-83701761D01*
X24617912Y-83707066D01*
X24625938Y-83707500D01*
X24921384Y-83707500D01*
X24936855Y-83703355D01*
X24941000Y-83687884D01*
X24941000Y-83687883D01*
X25449000Y-83687883D01*
X25453145Y-83703354D01*
X25468616Y-83707499D01*
X25764060Y-83707499D01*
X25772091Y-83707064D01*
X25820923Y-83701760D01*
X25838953Y-83697473D01*
X25956520Y-83653399D01*
X25974959Y-83643304D01*
X26074407Y-83568772D01*
X26089272Y-83553907D01*
X26163804Y-83454459D01*
X26173899Y-83436020D01*
X26217972Y-83318456D01*
X26222261Y-83300421D01*
X26227566Y-83251588D01*
X26228000Y-83243562D01*
X26228000Y-83243560D01*
X27112001Y-83243560D01*
X27112436Y-83251591D01*
X27117740Y-83300423D01*
X27122027Y-83318453D01*
X27166101Y-83436020D01*
X27176196Y-83454459D01*
X27250728Y-83553907D01*
X27265593Y-83568772D01*
X27365041Y-83643304D01*
X27383480Y-83653399D01*
X27501044Y-83697472D01*
X27519079Y-83701761D01*
X27567912Y-83707066D01*
X27575938Y-83707500D01*
X27871384Y-83707500D01*
X27886855Y-83703355D01*
X27891000Y-83687884D01*
X27891000Y-83687883D01*
X28399000Y-83687883D01*
X28403145Y-83703354D01*
X28418616Y-83707499D01*
X28714060Y-83707499D01*
X28722091Y-83707064D01*
X28770923Y-83701760D01*
X28788953Y-83697473D01*
X28906520Y-83653399D01*
X28924959Y-83643304D01*
X29024407Y-83568772D01*
X29039272Y-83553907D01*
X29113804Y-83454459D01*
X29123899Y-83436020D01*
X29167972Y-83318456D01*
X29172261Y-83300421D01*
X29177566Y-83251588D01*
X29178000Y-83243562D01*
X29178000Y-82373116D01*
X29173855Y-82357645D01*
X29158384Y-82353500D01*
X28418616Y-82353500D01*
X28403145Y-82357645D01*
X28399000Y-82373116D01*
X28399000Y-83687883D01*
X27891000Y-83687883D01*
X27891000Y-82373116D01*
X27886855Y-82357645D01*
X27871384Y-82353500D01*
X27131617Y-82353500D01*
X27116146Y-82357645D01*
X27112001Y-82373116D01*
X27112001Y-83243560D01*
X26228000Y-83243560D01*
X26228000Y-82373116D01*
X26223855Y-82357645D01*
X26208384Y-82353500D01*
X25468616Y-82353500D01*
X25453145Y-82357645D01*
X25449000Y-82373116D01*
X25449000Y-83687883D01*
X24941000Y-83687883D01*
X24941000Y-82373116D01*
X24936855Y-82357645D01*
X24921384Y-82353500D01*
X24181617Y-82353500D01*
X24166146Y-82357645D01*
X24162001Y-82373116D01*
X24162001Y-83243560D01*
X22680577Y-83243560D01*
X22678210Y-81825884D01*
X24162000Y-81825884D01*
X24166145Y-81841355D01*
X24181616Y-81845500D01*
X24921384Y-81845500D01*
X24936855Y-81841355D01*
X24941000Y-81825884D01*
X24941000Y-80511117D01*
X24936855Y-80495646D01*
X24921384Y-80491501D01*
X24625940Y-80491501D01*
X24617909Y-80491936D01*
X24569077Y-80497240D01*
X24551047Y-80501527D01*
X24433480Y-80545601D01*
X24415041Y-80555696D01*
X24315593Y-80630228D01*
X24300728Y-80645093D01*
X24226196Y-80744541D01*
X24216101Y-80762980D01*
X24172028Y-80880544D01*
X24167739Y-80898579D01*
X24162434Y-80947412D01*
X24162000Y-80955438D01*
X24162000Y-81825884D01*
X22678210Y-81825884D01*
X22671684Y-77916777D01*
X22691522Y-77842244D01*
X22745969Y-77787615D01*
X22820435Y-77767528D01*
X22894968Y-77787366D01*
X22917253Y-77803058D01*
X23048238Y-77914535D01*
X23054601Y-77918091D01*
X23213149Y-78006701D01*
X23213155Y-78006704D01*
X23219513Y-78010257D01*
X23406118Y-78070889D01*
X23479397Y-78079627D01*
X23593715Y-78093259D01*
X23593718Y-78093259D01*
X23600946Y-78094121D01*
X23712443Y-78085542D01*
X23789314Y-78079627D01*
X23789316Y-78079627D01*
X23796576Y-78079068D01*
X23985556Y-78026303D01*
X23992062Y-78023016D01*
X23992066Y-78023015D01*
X24154184Y-77941123D01*
X24154185Y-77941123D01*
X24160689Y-77937837D01*
X24315303Y-77817040D01*
X24443509Y-77668511D01*
X24524731Y-77525535D01*
X24536827Y-77504243D01*
X24536828Y-77504241D01*
X24540425Y-77497909D01*
X24602358Y-77311732D01*
X24626949Y-77117071D01*
X24627341Y-77089000D01*
X24608194Y-76893728D01*
X24551484Y-76705894D01*
X24459370Y-76532653D01*
X24454767Y-76527010D01*
X24454765Y-76527006D01*
X24339964Y-76386246D01*
X24335361Y-76380602D01*
X24184180Y-76255535D01*
X24011585Y-76162213D01*
X23881202Y-76121853D01*
X23831111Y-76106347D01*
X23831109Y-76106347D01*
X23824152Y-76104193D01*
X23816910Y-76103432D01*
X23816906Y-76103431D01*
X23636260Y-76084444D01*
X23636259Y-76084444D01*
X23629019Y-76083683D01*
X23433618Y-76101466D01*
X23245393Y-76156864D01*
X23071512Y-76247767D01*
X22918600Y-76370711D01*
X22918329Y-76370374D01*
X22854972Y-76406072D01*
X22777848Y-76405262D01*
X22711462Y-76365999D01*
X22673601Y-76298803D01*
X22668921Y-76262001D01*
X22668911Y-76255535D01*
X22664568Y-73654255D01*
X22684406Y-73579723D01*
X22738853Y-73525094D01*
X22813319Y-73505007D01*
X22831210Y-73506055D01*
X22958715Y-73521259D01*
X22958718Y-73521259D01*
X22965946Y-73522121D01*
X23077443Y-73513542D01*
X23154314Y-73507627D01*
X23154316Y-73507627D01*
X23161576Y-73507068D01*
X23350556Y-73454303D01*
X23357062Y-73451016D01*
X23357066Y-73451015D01*
X23519184Y-73369123D01*
X23519185Y-73369123D01*
X23525689Y-73365837D01*
X23624768Y-73288429D01*
X23695763Y-73258293D01*
X23772317Y-73267693D01*
X23833914Y-73314110D01*
X23864050Y-73385106D01*
X23865500Y-73405843D01*
X23865501Y-73698267D01*
X23865501Y-73987360D01*
X23880956Y-74104762D01*
X23941464Y-74250841D01*
X24037718Y-74376282D01*
X24163159Y-74472536D01*
X24172182Y-74476274D01*
X24172183Y-74476274D01*
X24276605Y-74519527D01*
X24309238Y-74533044D01*
X24318919Y-74534319D01*
X24318921Y-74534319D01*
X24421797Y-74547863D01*
X24421804Y-74547863D01*
X24426639Y-74548500D01*
X25745500Y-74548500D01*
X25820000Y-74568462D01*
X25874538Y-74623000D01*
X25894500Y-74697500D01*
X25894500Y-79411323D01*
X25874538Y-79485823D01*
X25836206Y-79529532D01*
X25716718Y-79621218D01*
X25620464Y-79746659D01*
X25559956Y-79892738D01*
X25558681Y-79902419D01*
X25558681Y-79902421D01*
X25545138Y-80005296D01*
X25544500Y-80010139D01*
X25544500Y-80356835D01*
X25524538Y-80431335D01*
X25470000Y-80485873D01*
X25456014Y-80491666D01*
X25453552Y-80494128D01*
X25449000Y-80511116D01*
X25449000Y-81825884D01*
X25453145Y-81841355D01*
X25468616Y-81845500D01*
X26208383Y-81845500D01*
X26223854Y-81841355D01*
X26232138Y-81810437D01*
X26270702Y-81743642D01*
X26337496Y-81705077D01*
X26376061Y-81700000D01*
X26670000Y-81700000D01*
X26963939Y-81699999D01*
X27038438Y-81719961D01*
X27092976Y-81774499D01*
X27107861Y-81810436D01*
X27116145Y-81841355D01*
X27131616Y-81845500D01*
X27871384Y-81845500D01*
X27886855Y-81841355D01*
X27891000Y-81825884D01*
X28399000Y-81825884D01*
X28403145Y-81841355D01*
X28418616Y-81845500D01*
X29158383Y-81845500D01*
X29173854Y-81841355D01*
X29177999Y-81825884D01*
X29177999Y-80955440D01*
X29177564Y-80947409D01*
X29172260Y-80898577D01*
X29167973Y-80880547D01*
X29123899Y-80762980D01*
X29113804Y-80744541D01*
X29039272Y-80645093D01*
X29024407Y-80630228D01*
X28924959Y-80555696D01*
X28906520Y-80545601D01*
X28788956Y-80501528D01*
X28770921Y-80497239D01*
X28722088Y-80491934D01*
X28714062Y-80491500D01*
X28418616Y-80491500D01*
X28403145Y-80495645D01*
X28399000Y-80511116D01*
X28399000Y-81825884D01*
X27891000Y-81825884D01*
X27891000Y-80511117D01*
X27886448Y-80494129D01*
X27875515Y-80483196D01*
X27839141Y-80462196D01*
X27800576Y-80395401D01*
X27795499Y-80356836D01*
X27795499Y-80010140D01*
X27780044Y-79892738D01*
X27719536Y-79746659D01*
X27623282Y-79621218D01*
X27503794Y-79529532D01*
X27456842Y-79468343D01*
X27445500Y-79411323D01*
X27445500Y-74697499D01*
X27465462Y-74622999D01*
X27520000Y-74568461D01*
X27594500Y-74548499D01*
X28311677Y-74548499D01*
X28386177Y-74568461D01*
X28408246Y-74584029D01*
X28441740Y-74612535D01*
X28448103Y-74616091D01*
X28606651Y-74704701D01*
X28606657Y-74704704D01*
X28613015Y-74708257D01*
X28799620Y-74768889D01*
X28872899Y-74777627D01*
X28987217Y-74791259D01*
X28987220Y-74791259D01*
X28994448Y-74792121D01*
X29105945Y-74783542D01*
X29182816Y-74777627D01*
X29182818Y-74777627D01*
X29190078Y-74777068D01*
X29379058Y-74724303D01*
X29385564Y-74721016D01*
X29385568Y-74721015D01*
X29547686Y-74639123D01*
X29547687Y-74639123D01*
X29554191Y-74635837D01*
X29708805Y-74515040D01*
X29837011Y-74366511D01*
X29905012Y-74246808D01*
X29930329Y-74202243D01*
X29930330Y-74202241D01*
X29933927Y-74195909D01*
X29995860Y-74009732D01*
X29998075Y-73992204D01*
X30019929Y-73819200D01*
X30020451Y-73815071D01*
X30020843Y-73787000D01*
X30019467Y-73772963D01*
X30363757Y-73772963D01*
X30380175Y-73968483D01*
X30434258Y-74157091D01*
X30523944Y-74331601D01*
X30645818Y-74485369D01*
X30795238Y-74612535D01*
X30801601Y-74616091D01*
X30960149Y-74704701D01*
X30960155Y-74704704D01*
X30966513Y-74708257D01*
X31153118Y-74768889D01*
X31226397Y-74777627D01*
X31340715Y-74791259D01*
X31340718Y-74791259D01*
X31347946Y-74792121D01*
X31459443Y-74783542D01*
X31536314Y-74777627D01*
X31536316Y-74777627D01*
X31543576Y-74777068D01*
X31732556Y-74724303D01*
X31739062Y-74721016D01*
X31739066Y-74721015D01*
X31901184Y-74639123D01*
X31901185Y-74639123D01*
X31907689Y-74635837D01*
X32062303Y-74515040D01*
X32190509Y-74366511D01*
X32258510Y-74246808D01*
X32283827Y-74202243D01*
X32283828Y-74202241D01*
X32287425Y-74195909D01*
X32349358Y-74009732D01*
X32351573Y-73992204D01*
X32373427Y-73819200D01*
X32373949Y-73815071D01*
X32374341Y-73787000D01*
X32355194Y-73591728D01*
X32298484Y-73403894D01*
X32263346Y-73337809D01*
X32209792Y-73237088D01*
X32209790Y-73237085D01*
X32206370Y-73230653D01*
X32201767Y-73225010D01*
X32201765Y-73225006D01*
X32086964Y-73084246D01*
X32082361Y-73078602D01*
X31931180Y-72953535D01*
X31758585Y-72860213D01*
X31597930Y-72810482D01*
X31578111Y-72804347D01*
X31578109Y-72804347D01*
X31571152Y-72802193D01*
X31563910Y-72801432D01*
X31563906Y-72801431D01*
X31383260Y-72782444D01*
X31383259Y-72782444D01*
X31376019Y-72781683D01*
X31180618Y-72799466D01*
X30992393Y-72854864D01*
X30818512Y-72945767D01*
X30812838Y-72950329D01*
X30682498Y-73055125D01*
X30665600Y-73068711D01*
X30539480Y-73219016D01*
X30444956Y-73390954D01*
X30385628Y-73577978D01*
X30384815Y-73585222D01*
X30384815Y-73585224D01*
X30377773Y-73648004D01*
X30363757Y-73772963D01*
X30019467Y-73772963D01*
X30001696Y-73591728D01*
X29944986Y-73403894D01*
X29909848Y-73337809D01*
X29856294Y-73237088D01*
X29856292Y-73237085D01*
X29852872Y-73230653D01*
X29848269Y-73225010D01*
X29848267Y-73225006D01*
X29733466Y-73084246D01*
X29728863Y-73078602D01*
X29577682Y-72953535D01*
X29441843Y-72880087D01*
X29411122Y-72863476D01*
X29355083Y-72810482D01*
X29333048Y-72736568D01*
X29350922Y-72661540D01*
X29403916Y-72605501D01*
X29414809Y-72599413D01*
X29423864Y-72594839D01*
X29446695Y-72583306D01*
X29601309Y-72462509D01*
X29729515Y-72313980D01*
X29826431Y-72143378D01*
X29888364Y-71957201D01*
X29912955Y-71762540D01*
X29913347Y-71734469D01*
X29894200Y-71539197D01*
X29837490Y-71351363D01*
X29796073Y-71273468D01*
X29778724Y-71198318D01*
X29801274Y-71124560D01*
X29857682Y-71071959D01*
X29887564Y-71060008D01*
X29947530Y-71043265D01*
X29947533Y-71043264D01*
X29954556Y-71041303D01*
X29961062Y-71038016D01*
X29961066Y-71038015D01*
X30123184Y-70956123D01*
X30123185Y-70956123D01*
X30129689Y-70952837D01*
X30284303Y-70832040D01*
X30412509Y-70683511D01*
X30472367Y-70578142D01*
X30505827Y-70519243D01*
X30505828Y-70519241D01*
X30509425Y-70512909D01*
X30571358Y-70326732D01*
X30571481Y-70325757D01*
X30610347Y-70255350D01*
X30711126Y-70154571D01*
X30728171Y-70139923D01*
X30736189Y-70134023D01*
X30736191Y-70134021D01*
X30743158Y-70128894D01*
X30775129Y-70091262D01*
X30783323Y-70082374D01*
X30787961Y-70077736D01*
X30804528Y-70056797D01*
X30807810Y-70052794D01*
X30825177Y-70032352D01*
X30852692Y-69999965D01*
X30856630Y-69992254D01*
X30858846Y-69988930D01*
X30858928Y-69988817D01*
X30859007Y-69988677D01*
X30861092Y-69985301D01*
X30866465Y-69978510D01*
X30877356Y-69955207D01*
X30895816Y-69915712D01*
X30898099Y-69911042D01*
X30925689Y-69857009D01*
X30925690Y-69857006D01*
X30929627Y-69849296D01*
X30931684Y-69840888D01*
X30933075Y-69837149D01*
X30933131Y-69837015D01*
X30933172Y-69836873D01*
X30934431Y-69833089D01*
X30938096Y-69825247D01*
X30952213Y-69757373D01*
X30953351Y-69752342D01*
X30966616Y-69698136D01*
X30968263Y-69691405D01*
X30968263Y-69691403D01*
X30969838Y-69684968D01*
X30970500Y-69674297D01*
X30970500Y-69673550D01*
X30970846Y-69667795D01*
X30972547Y-69659617D01*
X30970555Y-69585999D01*
X30970500Y-69581970D01*
X30970500Y-62990347D01*
X30990462Y-62915847D01*
X31014141Y-62884988D01*
X31830123Y-62069006D01*
X32675141Y-61223987D01*
X32741936Y-61185423D01*
X32819064Y-61185423D01*
X32885859Y-61223987D01*
G37*
%TD.AperFunction*%
%TA.AperFunction,Conductor*%
G36*
X49382829Y-62191058D02*
G01*
X49422091Y-62257445D01*
X49427580Y-62297421D01*
X49434367Y-73026363D01*
X49414452Y-73100875D01*
X49359949Y-73155448D01*
X49285461Y-73175457D01*
X49269792Y-73174641D01*
X49163260Y-73163444D01*
X49163259Y-73163444D01*
X49156019Y-73162683D01*
X48960618Y-73180466D01*
X48772393Y-73235864D01*
X48598512Y-73326767D01*
X48592838Y-73331329D01*
X48457043Y-73440511D01*
X48445600Y-73449711D01*
X48319480Y-73600016D01*
X48315970Y-73606401D01*
X48296070Y-73642599D01*
X48242686Y-73698267D01*
X48168621Y-73719785D01*
X48093719Y-73701388D01*
X48038051Y-73648004D01*
X48016500Y-73570818D01*
X48016499Y-72133522D01*
X48016499Y-72128640D01*
X48001044Y-72011238D01*
X47993257Y-71992439D01*
X47944272Y-71874178D01*
X47944271Y-71874177D01*
X47940536Y-71865159D01*
X47937011Y-71860565D01*
X47917567Y-71787999D01*
X47937011Y-71715435D01*
X47940536Y-71710841D01*
X47950967Y-71685660D01*
X47997307Y-71573784D01*
X48001044Y-71564762D01*
X48005327Y-71532228D01*
X48015863Y-71452203D01*
X48015863Y-71452196D01*
X48016500Y-71447361D01*
X48016499Y-69588640D01*
X48001044Y-69471238D01*
X47997305Y-69462211D01*
X47944272Y-69334178D01*
X47944271Y-69334177D01*
X47940536Y-69325159D01*
X47937011Y-69320565D01*
X47917567Y-69247999D01*
X47937011Y-69175435D01*
X47940536Y-69170841D01*
X47999832Y-69027688D01*
X48046785Y-68966498D01*
X48118042Y-68936983D01*
X48126056Y-68936147D01*
X48132816Y-68935627D01*
X48132818Y-68935627D01*
X48140078Y-68935068D01*
X48329058Y-68882303D01*
X48335564Y-68879016D01*
X48335568Y-68879015D01*
X48497686Y-68797123D01*
X48497687Y-68797123D01*
X48504191Y-68793837D01*
X48658805Y-68673040D01*
X48787011Y-68524511D01*
X48883927Y-68353909D01*
X48945860Y-68167732D01*
X48951769Y-68120961D01*
X48960496Y-68051872D01*
X48970451Y-67973071D01*
X48970843Y-67945000D01*
X48951696Y-67749728D01*
X48894986Y-67561894D01*
X48802872Y-67388653D01*
X48798269Y-67383010D01*
X48798267Y-67383006D01*
X48683466Y-67242246D01*
X48678863Y-67236602D01*
X48527682Y-67111535D01*
X48355087Y-67018213D01*
X48224704Y-66977853D01*
X48174613Y-66962347D01*
X48174611Y-66962347D01*
X48167654Y-66960193D01*
X48160412Y-66959432D01*
X48160408Y-66959431D01*
X48094159Y-66952468D01*
X48022153Y-66924827D01*
X47972076Y-66861303D01*
X47944273Y-66794181D01*
X47940536Y-66785159D01*
X47937011Y-66780565D01*
X47917567Y-66707999D01*
X47937011Y-66635435D01*
X47940536Y-66630841D01*
X48001044Y-66484762D01*
X48002319Y-66475079D01*
X48015863Y-66372203D01*
X48015863Y-66372196D01*
X48016500Y-66367361D01*
X48016500Y-66164669D01*
X48036462Y-66090169D01*
X48091000Y-66035631D01*
X48154067Y-66016108D01*
X48173314Y-66014627D01*
X48173316Y-66014627D01*
X48180576Y-66014068D01*
X48369556Y-65961303D01*
X48376062Y-65958016D01*
X48376066Y-65958015D01*
X48538184Y-65876123D01*
X48538185Y-65876123D01*
X48544689Y-65872837D01*
X48699303Y-65752040D01*
X48827509Y-65603511D01*
X48924425Y-65432909D01*
X48986358Y-65246732D01*
X49010949Y-65052071D01*
X49011250Y-65030544D01*
X49011283Y-65028176D01*
X49011283Y-65028170D01*
X49011341Y-65024000D01*
X48992194Y-64828728D01*
X48935484Y-64640894D01*
X48897802Y-64570024D01*
X48846792Y-64474088D01*
X48846790Y-64474085D01*
X48843370Y-64467653D01*
X48838767Y-64462010D01*
X48838765Y-64462006D01*
X48723964Y-64321246D01*
X48719361Y-64315602D01*
X48713751Y-64310961D01*
X48713746Y-64310956D01*
X48683357Y-64285816D01*
X48653727Y-64252706D01*
X48621117Y-64202968D01*
X48618341Y-64198568D01*
X48585822Y-64144977D01*
X48585820Y-64144974D01*
X48582378Y-64139302D01*
X48575300Y-64131288D01*
X48574777Y-64130765D01*
X48570948Y-64126447D01*
X48566367Y-64119460D01*
X48512910Y-64068820D01*
X48510021Y-64066009D01*
X48112886Y-63668874D01*
X48098238Y-63651829D01*
X48092338Y-63643811D01*
X48092336Y-63643809D01*
X48087209Y-63636842D01*
X48069027Y-63621395D01*
X48025177Y-63557949D01*
X48016500Y-63507844D01*
X48016500Y-63493162D01*
X48036462Y-63418662D01*
X48091000Y-63364124D01*
X48137267Y-63347284D01*
X48140078Y-63347068D01*
X48147093Y-63345109D01*
X48147095Y-63345109D01*
X48322035Y-63296264D01*
X48322036Y-63296264D01*
X48329058Y-63294303D01*
X48335564Y-63291016D01*
X48335568Y-63291015D01*
X48497686Y-63209123D01*
X48497687Y-63209123D01*
X48504191Y-63205837D01*
X48658805Y-63085040D01*
X48787011Y-62936511D01*
X48883927Y-62765909D01*
X48945860Y-62579732D01*
X48970451Y-62385071D01*
X48970843Y-62357000D01*
X48970436Y-62352851D01*
X48970262Y-62348694D01*
X48971672Y-62348635D01*
X48983237Y-62278799D01*
X49032196Y-62219202D01*
X49091720Y-62194181D01*
X49095716Y-62193874D01*
X49102731Y-62191915D01*
X49102733Y-62191915D01*
X49139756Y-62181578D01*
X49238512Y-62154004D01*
X49315634Y-62153196D01*
X49382829Y-62191058D01*
G37*
%TD.AperFunction*%
%TA.AperFunction,Conductor*%
G36*
X38460913Y-58813230D02*
G01*
X38519242Y-58849254D01*
X39359977Y-59689989D01*
X39398541Y-59756784D01*
X39398541Y-59833912D01*
X39359977Y-59900707D01*
X39323651Y-59927392D01*
X39200512Y-59991767D01*
X39194838Y-59996329D01*
X39101833Y-60071107D01*
X39047600Y-60114711D01*
X38921480Y-60265016D01*
X38917970Y-60271401D01*
X38917967Y-60271405D01*
X38838976Y-60415088D01*
X38785593Y-60470756D01*
X38711527Y-60492273D01*
X38636625Y-60473875D01*
X38603048Y-60448665D01*
X37805333Y-59650950D01*
X37766769Y-59584155D01*
X37766769Y-59507027D01*
X37805333Y-59440232D01*
X37843511Y-59412596D01*
X37876689Y-59395837D01*
X38031303Y-59275040D01*
X38159509Y-59126511D01*
X38256425Y-58955909D01*
X38272502Y-58907580D01*
X38314957Y-58843192D01*
X38383921Y-58808657D01*
X38460913Y-58813230D01*
G37*
%TD.AperFunction*%
%TA.AperFunction,Conductor*%
G36*
X48184046Y-56570825D02*
G01*
X48298118Y-56607889D01*
X48407021Y-56620875D01*
X48485715Y-56630259D01*
X48485718Y-56630259D01*
X48492946Y-56631121D01*
X48570429Y-56625159D01*
X48644069Y-56619493D01*
X48719881Y-56633681D01*
X48778442Y-56683874D01*
X48804061Y-56756623D01*
X48804500Y-56768054D01*
X48804500Y-58019942D01*
X48784538Y-58094442D01*
X48730000Y-58148980D01*
X48654673Y-58168882D01*
X48648019Y-58168183D01*
X48452618Y-58185966D01*
X48264393Y-58241364D01*
X48234531Y-58256975D01*
X48159263Y-58273801D01*
X48085664Y-58250738D01*
X48033457Y-58193965D01*
X48016500Y-58124932D01*
X48016499Y-56893522D01*
X48016499Y-56888640D01*
X48001044Y-56771238D01*
X47997304Y-56762210D01*
X47994778Y-56752780D01*
X47998019Y-56751912D01*
X47990282Y-56693056D01*
X48019811Y-56621805D01*
X48081010Y-56574863D01*
X48157480Y-56564810D01*
X48184046Y-56570825D01*
G37*
%TD.AperFunction*%
%TA.AperFunction,Conductor*%
G36*
X42741001Y-55368431D02*
G01*
X42795539Y-55422969D01*
X42815501Y-55497469D01*
X42815501Y-56207360D01*
X42816139Y-56212204D01*
X42816457Y-56217059D01*
X42814767Y-56217170D01*
X42805711Y-56285942D01*
X42758757Y-56347131D01*
X42687499Y-56376645D01*
X42611031Y-56366576D01*
X42562695Y-56334278D01*
X41831245Y-55602828D01*
X41792681Y-55536033D01*
X41792681Y-55458905D01*
X41831245Y-55392110D01*
X41898040Y-55353546D01*
X41936604Y-55348469D01*
X42666501Y-55348469D01*
X42741001Y-55368431D01*
G37*
%TD.AperFunction*%
%TA.AperFunction,Conductor*%
G36*
X32024129Y-54855184D02*
G01*
X32085726Y-54901601D01*
X32115862Y-54972598D01*
X32117312Y-54993334D01*
X32117312Y-56158674D01*
X32097350Y-56233174D01*
X32042812Y-56287712D01*
X31968312Y-56307674D01*
X31897444Y-56289741D01*
X31778158Y-56225243D01*
X31778152Y-56225240D01*
X31771739Y-56221773D01*
X31641356Y-56181413D01*
X31591265Y-56165907D01*
X31591263Y-56165907D01*
X31584306Y-56163753D01*
X31577064Y-56162992D01*
X31577060Y-56162991D01*
X31396414Y-56144004D01*
X31396413Y-56144004D01*
X31389173Y-56143243D01*
X31193772Y-56161026D01*
X31005547Y-56216424D01*
X30888647Y-56277538D01*
X30882897Y-56280544D01*
X30813866Y-56297500D01*
X30151323Y-56297500D01*
X30076823Y-56277538D01*
X30022285Y-56223000D01*
X30002323Y-56148500D01*
X30022285Y-56074000D01*
X30076823Y-56019462D01*
X30134111Y-56000498D01*
X30134902Y-56000406D01*
X30140018Y-55999900D01*
X30200501Y-55994981D01*
X30200505Y-55994980D01*
X30209127Y-55994279D01*
X30217361Y-55991612D01*
X30221278Y-55990829D01*
X30221421Y-55990806D01*
X30221544Y-55990772D01*
X30225442Y-55989850D01*
X30234037Y-55988848D01*
X30299217Y-55965189D01*
X30304080Y-55963519D01*
X30370067Y-55942142D01*
X30377466Y-55937652D01*
X30381106Y-55935986D01*
X30381224Y-55935938D01*
X30381350Y-55935868D01*
X30384920Y-55934080D01*
X30393061Y-55931125D01*
X30451059Y-55893099D01*
X30455432Y-55890341D01*
X30509023Y-55857822D01*
X30509026Y-55857820D01*
X30514698Y-55854378D01*
X30522712Y-55847300D01*
X30523235Y-55846777D01*
X30527553Y-55842948D01*
X30534540Y-55838367D01*
X30585180Y-55784910D01*
X30587991Y-55782021D01*
X31227414Y-55142598D01*
X31294209Y-55104034D01*
X31321342Y-55099396D01*
X31409314Y-55092627D01*
X31409316Y-55092627D01*
X31416576Y-55092068D01*
X31605556Y-55039303D01*
X31612062Y-55036016D01*
X31612066Y-55036015D01*
X31774184Y-54954123D01*
X31774185Y-54954123D01*
X31780689Y-54950837D01*
X31876579Y-54875920D01*
X31947576Y-54845784D01*
X32024129Y-54855184D01*
G37*
%TD.AperFunction*%
%TA.AperFunction,Conductor*%
G36*
X30605666Y-53069462D02*
G01*
X30660204Y-53124000D01*
X30680166Y-53198500D01*
X30660204Y-53273000D01*
X30624531Y-53314621D01*
X30538600Y-53383711D01*
X30412480Y-53534016D01*
X30317956Y-53705954D01*
X30315752Y-53712902D01*
X30263536Y-53877507D01*
X30258628Y-53892978D01*
X30257816Y-53900219D01*
X30257815Y-53900223D01*
X30243424Y-54028526D01*
X30215282Y-54100336D01*
X30200712Y-54117276D01*
X29809129Y-54508859D01*
X29742334Y-54547423D01*
X29703770Y-54552500D01*
X29215499Y-54552500D01*
X29140999Y-54532538D01*
X29086461Y-54478000D01*
X29066499Y-54403500D01*
X29066499Y-54348640D01*
X29051044Y-54231238D01*
X28990536Y-54085159D01*
X28894282Y-53959718D01*
X28768841Y-53863464D01*
X28622762Y-53802956D01*
X28613081Y-53801681D01*
X28613079Y-53801681D01*
X28510203Y-53788137D01*
X28510196Y-53788137D01*
X28505361Y-53787500D01*
X28443755Y-53787500D01*
X24744915Y-53787501D01*
X24670415Y-53767539D01*
X24615877Y-53713001D01*
X24595915Y-53638501D01*
X24615877Y-53564001D01*
X24639556Y-53533142D01*
X25079557Y-53093141D01*
X25146352Y-53054577D01*
X25184916Y-53049500D01*
X30531166Y-53049500D01*
X30605666Y-53069462D01*
G37*
%TD.AperFunction*%
%TA.AperFunction,Conductor*%
G36*
X49355099Y-40732395D02*
G01*
X49402371Y-40793338D01*
X49414014Y-40850985D01*
X49414507Y-41630068D01*
X49419539Y-49585795D01*
X49399624Y-49660307D01*
X49345121Y-49714880D01*
X49270633Y-49734889D01*
X49226479Y-49728226D01*
X49104111Y-49690347D01*
X49104109Y-49690347D01*
X49097152Y-49688193D01*
X49089910Y-49687432D01*
X49089906Y-49687431D01*
X48909260Y-49668444D01*
X48909259Y-49668444D01*
X48902019Y-49667683D01*
X48706618Y-49685466D01*
X48518393Y-49740864D01*
X48344512Y-49831767D01*
X48338838Y-49836329D01*
X48203043Y-49945511D01*
X48191600Y-49954711D01*
X48065480Y-50105016D01*
X47970956Y-50276954D01*
X47911628Y-50463978D01*
X47910815Y-50471222D01*
X47910815Y-50471224D01*
X47890706Y-50650504D01*
X47889757Y-50658963D01*
X47906175Y-50854483D01*
X47960258Y-51043091D01*
X48049944Y-51217601D01*
X48171818Y-51371369D01*
X48321238Y-51498535D01*
X48327601Y-51502091D01*
X48486149Y-51590701D01*
X48486155Y-51590704D01*
X48492513Y-51594257D01*
X48679118Y-51654889D01*
X48752397Y-51663627D01*
X48866715Y-51677259D01*
X48866718Y-51677259D01*
X48873946Y-51678121D01*
X48985443Y-51669542D01*
X49062314Y-51663627D01*
X49062316Y-51663627D01*
X49069576Y-51663068D01*
X49231845Y-51617761D01*
X49308969Y-51616953D01*
X49376164Y-51654815D01*
X49415426Y-51721202D01*
X49420915Y-51761178D01*
X49421650Y-52923231D01*
X49401735Y-52997743D01*
X49347232Y-53052316D01*
X49272744Y-53072325D01*
X49198232Y-53052410D01*
X49167291Y-53028684D01*
X49099981Y-52961374D01*
X49085333Y-52944329D01*
X49079433Y-52936311D01*
X49079431Y-52936309D01*
X49074304Y-52929342D01*
X49036672Y-52897371D01*
X49027784Y-52889177D01*
X49023146Y-52884539D01*
X49002202Y-52867969D01*
X48998241Y-52864721D01*
X48945375Y-52819808D01*
X48937665Y-52815871D01*
X48934348Y-52813659D01*
X48934229Y-52813573D01*
X48934102Y-52813501D01*
X48930709Y-52811405D01*
X48923920Y-52806034D01*
X48861071Y-52776661D01*
X48856446Y-52774399D01*
X48802421Y-52746812D01*
X48802418Y-52746811D01*
X48794706Y-52742873D01*
X48786295Y-52740815D01*
X48782553Y-52739423D01*
X48782421Y-52739368D01*
X48782290Y-52739330D01*
X48778498Y-52738068D01*
X48770657Y-52734404D01*
X48762189Y-52732643D01*
X48762184Y-52732641D01*
X48702782Y-52720286D01*
X48697738Y-52719145D01*
X48630378Y-52702662D01*
X48623760Y-52702251D01*
X48623757Y-52702251D01*
X48622788Y-52702191D01*
X48619707Y-52702000D01*
X48618960Y-52702000D01*
X48613205Y-52701654D01*
X48605026Y-52699953D01*
X48596373Y-52700187D01*
X48596372Y-52700187D01*
X48531409Y-52701945D01*
X48527379Y-52702000D01*
X48367602Y-52702000D01*
X48293102Y-52682038D01*
X48272626Y-52667807D01*
X48189066Y-52598681D01*
X48183450Y-52594035D01*
X48010855Y-52500713D01*
X47880472Y-52460353D01*
X47830381Y-52444847D01*
X47830379Y-52444847D01*
X47823422Y-52442693D01*
X47816180Y-52441932D01*
X47816176Y-52441931D01*
X47635530Y-52422944D01*
X47635529Y-52422944D01*
X47628289Y-52422183D01*
X47432888Y-52439966D01*
X47244663Y-52495364D01*
X47070782Y-52586267D01*
X47065108Y-52590829D01*
X46926527Y-52702251D01*
X46917870Y-52709211D01*
X46886319Y-52746812D01*
X46797055Y-52853194D01*
X46791750Y-52859516D01*
X46788237Y-52865906D01*
X46769888Y-52899282D01*
X46716504Y-52954950D01*
X46639319Y-52976500D01*
X46444230Y-52976500D01*
X46369730Y-52956538D01*
X46338871Y-52932859D01*
X43652886Y-50246874D01*
X43638238Y-50229829D01*
X43632338Y-50221811D01*
X43632336Y-50221809D01*
X43627209Y-50214842D01*
X43594467Y-50187025D01*
X43589577Y-50182871D01*
X43580689Y-50174677D01*
X43576051Y-50170039D01*
X43555107Y-50153469D01*
X43551146Y-50150221D01*
X43498280Y-50105308D01*
X43498279Y-50105308D01*
X43499625Y-50103724D01*
X43456541Y-50054685D01*
X43441426Y-49979052D01*
X43466153Y-49905995D01*
X43487027Y-49881162D01*
X43492303Y-49877040D01*
X43497061Y-49871528D01*
X43497066Y-49871523D01*
X43615752Y-49734022D01*
X43620509Y-49728511D01*
X43690830Y-49604725D01*
X43713827Y-49564243D01*
X43713828Y-49564241D01*
X43717425Y-49557909D01*
X43779358Y-49371732D01*
X43803949Y-49177071D01*
X43804341Y-49149000D01*
X43785194Y-48953728D01*
X43728484Y-48765894D01*
X43657534Y-48632456D01*
X43639792Y-48599088D01*
X43639790Y-48599085D01*
X43636370Y-48592653D01*
X43631767Y-48587010D01*
X43631765Y-48587006D01*
X43523301Y-48454016D01*
X43512361Y-48440602D01*
X43361180Y-48315535D01*
X43188585Y-48222213D01*
X43043791Y-48177392D01*
X43008111Y-48166347D01*
X43008109Y-48166347D01*
X43001152Y-48164193D01*
X42993910Y-48163432D01*
X42993906Y-48163431D01*
X42813260Y-48144444D01*
X42813259Y-48144444D01*
X42806019Y-48143683D01*
X42610618Y-48161466D01*
X42422393Y-48216864D01*
X42248512Y-48307767D01*
X42095600Y-48430711D01*
X41969480Y-48581016D01*
X41874956Y-48752954D01*
X41815628Y-48939978D01*
X41814815Y-48947222D01*
X41814815Y-48947224D01*
X41796642Y-49109240D01*
X41793757Y-49134963D01*
X41810175Y-49330483D01*
X41812185Y-49337492D01*
X41812185Y-49337493D01*
X41838972Y-49430909D01*
X41864258Y-49519091D01*
X41953944Y-49693601D01*
X41958466Y-49699307D01*
X41958469Y-49699311D01*
X41995434Y-49745950D01*
X42026065Y-49816735D01*
X42017199Y-49893351D01*
X41971213Y-49955271D01*
X41900428Y-49985902D01*
X41878663Y-49987500D01*
X39536230Y-49987500D01*
X39461730Y-49967538D01*
X39407192Y-49913000D01*
X39387230Y-49838500D01*
X39407192Y-49764000D01*
X39430871Y-49733141D01*
X41785871Y-47378141D01*
X41852666Y-47339577D01*
X41891230Y-47334500D01*
X45354876Y-47334500D01*
X45429376Y-47354462D01*
X45451445Y-47370031D01*
X45527238Y-47434535D01*
X45533601Y-47438091D01*
X45692149Y-47526701D01*
X45692155Y-47526704D01*
X45698513Y-47530257D01*
X45885118Y-47590889D01*
X45958397Y-47599627D01*
X46072715Y-47613259D01*
X46072718Y-47613259D01*
X46079946Y-47614121D01*
X46191443Y-47605542D01*
X46268314Y-47599627D01*
X46268316Y-47599627D01*
X46275576Y-47599068D01*
X46464556Y-47546303D01*
X46471062Y-47543016D01*
X46471066Y-47543015D01*
X46633184Y-47461123D01*
X46633185Y-47461123D01*
X46639689Y-47457837D01*
X46794303Y-47337040D01*
X46922509Y-47188511D01*
X47019425Y-47017909D01*
X47046724Y-46935846D01*
X47089181Y-46871456D01*
X47158146Y-46836921D01*
X47205746Y-46834926D01*
X47310333Y-46847397D01*
X47342716Y-46851259D01*
X47342717Y-46851259D01*
X47349946Y-46852121D01*
X47461443Y-46843542D01*
X47538314Y-46837627D01*
X47538316Y-46837627D01*
X47545576Y-46837068D01*
X47734556Y-46784303D01*
X47741062Y-46781016D01*
X47741066Y-46781015D01*
X47903184Y-46699123D01*
X47903185Y-46699123D01*
X47909689Y-46695837D01*
X48064303Y-46575040D01*
X48192509Y-46426511D01*
X48252367Y-46321142D01*
X48285827Y-46262243D01*
X48285828Y-46262241D01*
X48289425Y-46255909D01*
X48351358Y-46069732D01*
X48360041Y-46001002D01*
X48373273Y-45896252D01*
X48375949Y-45875071D01*
X48376204Y-45856841D01*
X48376283Y-45851176D01*
X48376283Y-45851170D01*
X48376341Y-45847000D01*
X48357194Y-45651728D01*
X48300484Y-45463894D01*
X48208370Y-45290653D01*
X48203767Y-45285010D01*
X48203765Y-45285006D01*
X48088964Y-45144246D01*
X48084361Y-45138602D01*
X47933180Y-45013535D01*
X47760585Y-44920213D01*
X47630202Y-44879853D01*
X47580111Y-44864347D01*
X47580109Y-44864347D01*
X47573152Y-44862193D01*
X47565910Y-44861432D01*
X47565906Y-44861431D01*
X47385260Y-44842444D01*
X47385259Y-44842444D01*
X47378019Y-44841683D01*
X47182618Y-44859466D01*
X46994393Y-44914864D01*
X46820512Y-45005767D01*
X46717460Y-45088623D01*
X46646893Y-45119746D01*
X46624098Y-45121500D01*
X42086030Y-45121500D01*
X42011530Y-45101538D01*
X41956992Y-45047000D01*
X41937030Y-44972500D01*
X41938305Y-44953052D01*
X41942912Y-44918058D01*
X41961733Y-44775099D01*
X41963471Y-44704000D01*
X41946721Y-44500264D01*
X41944428Y-44472376D01*
X41944428Y-44472374D01*
X41943927Y-44466284D01*
X41903632Y-44305859D01*
X41887310Y-44240880D01*
X41885821Y-44234952D01*
X41883387Y-44229355D01*
X41883385Y-44229348D01*
X41793151Y-44021826D01*
X41790712Y-44016216D01*
X41661155Y-43815951D01*
X41500629Y-43639536D01*
X41313445Y-43491707D01*
X41308092Y-43488752D01*
X41308089Y-43488750D01*
X41198885Y-43428467D01*
X41104631Y-43376436D01*
X40879794Y-43296817D01*
X40873779Y-43295746D01*
X40873777Y-43295745D01*
X40746313Y-43273040D01*
X40644972Y-43254988D01*
X40638859Y-43254913D01*
X40638856Y-43254913D01*
X40539031Y-43253694D01*
X40406471Y-43252074D01*
X40387428Y-43254988D01*
X40176735Y-43287229D01*
X40176733Y-43287230D01*
X40170698Y-43288153D01*
X39943982Y-43362255D01*
X39732414Y-43472390D01*
X39727529Y-43476057D01*
X39727527Y-43476059D01*
X39653382Y-43531729D01*
X39571512Y-43593200D01*
X39562126Y-43600247D01*
X39490564Y-43629015D01*
X39414205Y-43618148D01*
X39353510Y-43570557D01*
X39345630Y-43558627D01*
X39342536Y-43551159D01*
X39332754Y-43538410D01*
X39252228Y-43433467D01*
X39246282Y-43425718D01*
X39120841Y-43329464D01*
X39038995Y-43295562D01*
X38983784Y-43272693D01*
X38974762Y-43268956D01*
X38965081Y-43267681D01*
X38965079Y-43267681D01*
X38862203Y-43254137D01*
X38862196Y-43254137D01*
X38857361Y-43253500D01*
X38842076Y-43253500D01*
X38215240Y-43253501D01*
X38140741Y-43233539D01*
X38086203Y-43179001D01*
X38066241Y-43104501D01*
X38085686Y-43030903D01*
X38125828Y-42960241D01*
X38125828Y-42960240D01*
X38129425Y-42953909D01*
X38131724Y-42946997D01*
X38134689Y-42940338D01*
X38136918Y-42941331D01*
X38172708Y-42887066D01*
X38241677Y-42852540D01*
X38271620Y-42849500D01*
X43694716Y-42849500D01*
X43769216Y-42869462D01*
X43823754Y-42924000D01*
X43841268Y-42971603D01*
X43841565Y-42973223D01*
X43842175Y-42980483D01*
X43844183Y-42987485D01*
X43844183Y-42987486D01*
X43870438Y-43079048D01*
X43896258Y-43169091D01*
X43985944Y-43343601D01*
X44107818Y-43497369D01*
X44257238Y-43624535D01*
X44263601Y-43628091D01*
X44422149Y-43716701D01*
X44422155Y-43716704D01*
X44428513Y-43720257D01*
X44615118Y-43780889D01*
X44724021Y-43793875D01*
X44802715Y-43803259D01*
X44802718Y-43803259D01*
X44809946Y-43804121D01*
X44921443Y-43795542D01*
X44998314Y-43789627D01*
X44998316Y-43789627D01*
X45005576Y-43789068D01*
X45134791Y-43752990D01*
X45187533Y-43738264D01*
X45187534Y-43738264D01*
X45194556Y-43736303D01*
X45201062Y-43733016D01*
X45201066Y-43733015D01*
X45363184Y-43651123D01*
X45363185Y-43651123D01*
X45369689Y-43647837D01*
X45481882Y-43560183D01*
X45518560Y-43531527D01*
X45518561Y-43531526D01*
X45524303Y-43527040D01*
X45652509Y-43378511D01*
X45715470Y-43267681D01*
X45745827Y-43214243D01*
X45745828Y-43214241D01*
X45749425Y-43207909D01*
X45811358Y-43021732D01*
X45835949Y-42827071D01*
X45836341Y-42799000D01*
X45817194Y-42603728D01*
X45760484Y-42415894D01*
X45714225Y-42328894D01*
X45696876Y-42253745D01*
X45719426Y-42179987D01*
X45740426Y-42153586D01*
X46702126Y-41191886D01*
X46719171Y-41177238D01*
X46727189Y-41171338D01*
X46727191Y-41171336D01*
X46734158Y-41166209D01*
X46752516Y-41144601D01*
X46766129Y-41128577D01*
X46774323Y-41119689D01*
X46778961Y-41115051D01*
X46795531Y-41094107D01*
X46798779Y-41090146D01*
X46843692Y-41037280D01*
X46847629Y-41029570D01*
X46849841Y-41026253D01*
X46849927Y-41026134D01*
X46849999Y-41026007D01*
X46852095Y-41022614D01*
X46857466Y-41015825D01*
X46886840Y-40952975D01*
X46889077Y-40948398D01*
X46903946Y-40919279D01*
X46955607Y-40862009D01*
X47028981Y-40838241D01*
X47104410Y-40854345D01*
X47161680Y-40906006D01*
X47179873Y-40945974D01*
X47198258Y-41010091D01*
X47287944Y-41184601D01*
X47409818Y-41338369D01*
X47559238Y-41465535D01*
X47565601Y-41469091D01*
X47724149Y-41557701D01*
X47724155Y-41557704D01*
X47730513Y-41561257D01*
X47917118Y-41621889D01*
X47990397Y-41630627D01*
X48104715Y-41644259D01*
X48104718Y-41644259D01*
X48111946Y-41645121D01*
X48223443Y-41636542D01*
X48300314Y-41630627D01*
X48300316Y-41630627D01*
X48307576Y-41630068D01*
X48453051Y-41589450D01*
X48489533Y-41579264D01*
X48489534Y-41579264D01*
X48496556Y-41577303D01*
X48503062Y-41574016D01*
X48503066Y-41574015D01*
X48665184Y-41492123D01*
X48665185Y-41492123D01*
X48671689Y-41488837D01*
X48782708Y-41402100D01*
X48820560Y-41372527D01*
X48820561Y-41372526D01*
X48826303Y-41368040D01*
X48954509Y-41219511D01*
X49051425Y-41048909D01*
X49113358Y-40862732D01*
X49117189Y-40832405D01*
X49146330Y-40760994D01*
X49207273Y-40713722D01*
X49283688Y-40703254D01*
X49355099Y-40732395D01*
G37*
%TD.AperFunction*%
%TA.AperFunction,Conductor*%
G36*
X23331603Y-18527462D02*
G01*
X23386141Y-18582000D01*
X23406103Y-18656500D01*
X23386141Y-18731000D01*
X23356017Y-18767031D01*
X23356370Y-18767406D01*
X23350694Y-18772755D01*
X23342658Y-18785766D01*
X23351084Y-18800874D01*
X25513129Y-20962919D01*
X25527000Y-20970927D01*
X25540871Y-20962919D01*
X27704107Y-18799683D01*
X27711797Y-18786363D01*
X27703793Y-18772909D01*
X27700336Y-18769967D01*
X27656541Y-18706480D01*
X27650356Y-18629600D01*
X27683441Y-18559928D01*
X27746928Y-18516133D01*
X27796908Y-18507500D01*
X44212103Y-18507500D01*
X44286603Y-18527462D01*
X44341141Y-18582000D01*
X44361103Y-18656500D01*
X44341141Y-18731000D01*
X44311017Y-18767031D01*
X44311370Y-18767406D01*
X44305694Y-18772755D01*
X44297658Y-18785766D01*
X44306084Y-18800874D01*
X46468129Y-20962919D01*
X46482000Y-20970927D01*
X46495871Y-20962919D01*
X48659107Y-18799683D01*
X48666797Y-18786363D01*
X48658793Y-18772909D01*
X48655336Y-18769967D01*
X48611541Y-18706480D01*
X48605356Y-18629600D01*
X48638441Y-18559928D01*
X48701928Y-18516133D01*
X48751908Y-18507500D01*
X49250974Y-18507500D01*
X49325474Y-18527462D01*
X49380012Y-18582000D01*
X49399974Y-18656406D01*
X49400182Y-18985581D01*
X49400293Y-19159491D01*
X49400305Y-19179178D01*
X49380390Y-19253690D01*
X49325887Y-19308263D01*
X49251399Y-19328272D01*
X49176887Y-19308357D01*
X49137667Y-19275643D01*
X49042012Y-19162849D01*
X49028842Y-19153730D01*
X49018674Y-19158536D01*
X46855081Y-21322129D01*
X46847073Y-21336000D01*
X46855081Y-21349871D01*
X49015404Y-23510194D01*
X49029275Y-23518202D01*
X49039292Y-23512419D01*
X49141071Y-23394091D01*
X49204787Y-23350628D01*
X49281698Y-23344845D01*
X49351196Y-23378292D01*
X49394659Y-23442008D01*
X49403033Y-23491157D01*
X49413430Y-39927296D01*
X49413739Y-40416236D01*
X49393824Y-40490748D01*
X49339321Y-40545321D01*
X49264833Y-40565330D01*
X49190321Y-40545415D01*
X49135748Y-40490912D01*
X49119484Y-40447683D01*
X49119194Y-40444728D01*
X49062484Y-40256894D01*
X49024544Y-40185539D01*
X48973792Y-40090088D01*
X48973790Y-40090085D01*
X48970370Y-40083653D01*
X48965767Y-40078010D01*
X48965765Y-40078006D01*
X48850964Y-39937246D01*
X48846361Y-39931602D01*
X48695180Y-39806535D01*
X48522585Y-39713213D01*
X48369528Y-39665834D01*
X48342111Y-39657347D01*
X48342109Y-39657347D01*
X48335152Y-39655193D01*
X48327910Y-39654432D01*
X48327906Y-39654431D01*
X48147260Y-39635444D01*
X48147259Y-39635444D01*
X48140019Y-39634683D01*
X47944618Y-39652466D01*
X47756393Y-39707864D01*
X47582512Y-39798767D01*
X47576838Y-39803329D01*
X47470061Y-39889180D01*
X47429600Y-39921711D01*
X47303480Y-40072016D01*
X47293545Y-40090088D01*
X47241070Y-40185539D01*
X47187686Y-40241207D01*
X47113620Y-40262725D01*
X47038719Y-40244328D01*
X46983051Y-40190944D01*
X46961500Y-40113758D01*
X46961500Y-33504150D01*
X46981462Y-33429650D01*
X46997702Y-33406798D01*
X47057509Y-33337511D01*
X47154425Y-33166909D01*
X47216358Y-32980732D01*
X47240949Y-32786071D01*
X47241341Y-32758000D01*
X47222194Y-32562728D01*
X47165484Y-32374894D01*
X47073370Y-32201653D01*
X47068767Y-32196010D01*
X47068765Y-32196006D01*
X46953964Y-32055246D01*
X46949361Y-32049602D01*
X46798180Y-31924535D01*
X46625585Y-31831213D01*
X46495202Y-31790853D01*
X46445111Y-31775347D01*
X46445109Y-31775347D01*
X46438152Y-31773193D01*
X46430910Y-31772432D01*
X46430906Y-31772431D01*
X46250260Y-31753444D01*
X46250259Y-31753444D01*
X46243019Y-31752683D01*
X46047618Y-31770466D01*
X45859393Y-31825864D01*
X45685512Y-31916767D01*
X45532600Y-32039711D01*
X45406480Y-32190016D01*
X45311956Y-32361954D01*
X45252628Y-32548978D01*
X45251815Y-32556222D01*
X45251815Y-32556224D01*
X45250273Y-32569974D01*
X45230757Y-32743963D01*
X45247175Y-32939483D01*
X45301258Y-33128091D01*
X45390944Y-33302601D01*
X45418613Y-33337511D01*
X45478271Y-33412781D01*
X45508902Y-33483566D01*
X45510500Y-33505332D01*
X45510500Y-40269770D01*
X45490538Y-40344270D01*
X45466859Y-40375129D01*
X44487129Y-41354859D01*
X44420334Y-41393423D01*
X44381770Y-41398500D01*
X37698300Y-41398500D01*
X37675890Y-41396805D01*
X37657492Y-41394006D01*
X37648872Y-41394707D01*
X37648868Y-41394707D01*
X37608265Y-41398010D01*
X37596186Y-41398500D01*
X37589637Y-41398500D01*
X37585331Y-41399002D01*
X37585332Y-41399002D01*
X37563158Y-41401587D01*
X37557982Y-41402100D01*
X37497499Y-41407019D01*
X37497495Y-41407020D01*
X37488873Y-41407721D01*
X37480639Y-41410388D01*
X37476722Y-41411171D01*
X37476579Y-41411194D01*
X37476456Y-41411228D01*
X37472558Y-41412150D01*
X37463963Y-41413152D01*
X37398783Y-41436811D01*
X37393920Y-41438481D01*
X37327933Y-41459858D01*
X37320534Y-41464348D01*
X37316894Y-41466014D01*
X37316776Y-41466062D01*
X37316650Y-41466132D01*
X37313080Y-41467920D01*
X37304939Y-41470875D01*
X37297698Y-41475623D01*
X37297695Y-41475624D01*
X37246989Y-41508869D01*
X37242590Y-41511645D01*
X37222035Y-41524118D01*
X37158242Y-41545123D01*
X37029875Y-41556805D01*
X37029870Y-41556806D01*
X37022618Y-41557466D01*
X37015632Y-41559522D01*
X37015627Y-41559523D01*
X36991933Y-41566497D01*
X36914827Y-41568381D01*
X36854889Y-41538367D01*
X36757180Y-41457535D01*
X36584585Y-41364213D01*
X36405810Y-41308873D01*
X36404111Y-41308347D01*
X36404109Y-41308347D01*
X36397152Y-41306193D01*
X36389910Y-41305432D01*
X36389906Y-41305431D01*
X36209260Y-41286444D01*
X36209259Y-41286444D01*
X36202019Y-41285683D01*
X36006618Y-41303466D01*
X36000149Y-41305370D01*
X35923431Y-41299736D01*
X35875963Y-41272578D01*
X35863875Y-41262308D01*
X35856165Y-41258371D01*
X35852848Y-41256159D01*
X35852729Y-41256073D01*
X35852602Y-41256001D01*
X35849209Y-41253905D01*
X35842420Y-41248534D01*
X35779571Y-41219161D01*
X35774946Y-41216899D01*
X35720921Y-41189312D01*
X35720918Y-41189311D01*
X35713206Y-41185373D01*
X35704795Y-41183315D01*
X35701053Y-41181923D01*
X35700921Y-41181868D01*
X35700790Y-41181830D01*
X35696998Y-41180568D01*
X35689157Y-41176904D01*
X35680689Y-41175143D01*
X35680684Y-41175141D01*
X35621282Y-41162786D01*
X35616238Y-41161645D01*
X35548878Y-41145162D01*
X35542260Y-41144751D01*
X35542257Y-41144751D01*
X35541288Y-41144691D01*
X35538207Y-41144500D01*
X35537460Y-41144500D01*
X35531705Y-41144154D01*
X35523526Y-41142453D01*
X35514873Y-41142687D01*
X35514872Y-41142687D01*
X35449909Y-41144445D01*
X35445879Y-41144500D01*
X30548230Y-41144500D01*
X30473730Y-41124538D01*
X30442871Y-41100859D01*
X28201141Y-38859129D01*
X28162577Y-38792334D01*
X28157500Y-38753770D01*
X28157500Y-29449963D01*
X46746757Y-29449963D01*
X46763175Y-29645483D01*
X46817258Y-29834091D01*
X46906944Y-30008601D01*
X47028818Y-30162369D01*
X47178238Y-30289535D01*
X47184601Y-30293091D01*
X47343149Y-30381701D01*
X47343155Y-30381704D01*
X47349513Y-30385257D01*
X47536118Y-30445889D01*
X47609397Y-30454627D01*
X47723715Y-30468259D01*
X47723718Y-30468259D01*
X47730946Y-30469121D01*
X47842443Y-30460542D01*
X47919314Y-30454627D01*
X47919316Y-30454627D01*
X47926576Y-30454068D01*
X47998771Y-30433911D01*
X48108533Y-30403264D01*
X48108534Y-30403264D01*
X48115556Y-30401303D01*
X48122062Y-30398016D01*
X48122066Y-30398015D01*
X48284184Y-30316123D01*
X48284185Y-30316123D01*
X48290689Y-30312837D01*
X48445303Y-30192040D01*
X48573509Y-30043511D01*
X48670425Y-29872909D01*
X48732358Y-29686732D01*
X48756949Y-29492071D01*
X48757341Y-29464000D01*
X48738194Y-29268728D01*
X48730624Y-29243653D01*
X48683591Y-29087873D01*
X48681484Y-29080894D01*
X48669913Y-29059132D01*
X48592792Y-28914088D01*
X48592790Y-28914085D01*
X48589370Y-28907653D01*
X48584767Y-28902010D01*
X48584765Y-28902006D01*
X48469964Y-28761246D01*
X48465361Y-28755602D01*
X48314180Y-28630535D01*
X48141585Y-28537213D01*
X48011202Y-28496853D01*
X47961111Y-28481347D01*
X47961109Y-28481347D01*
X47954152Y-28479193D01*
X47946910Y-28478432D01*
X47946906Y-28478431D01*
X47766260Y-28459444D01*
X47766259Y-28459444D01*
X47759019Y-28458683D01*
X47563618Y-28476466D01*
X47375393Y-28531864D01*
X47201512Y-28622767D01*
X47195838Y-28627329D01*
X47071141Y-28727588D01*
X47048600Y-28745711D01*
X46922480Y-28896016D01*
X46827956Y-29067954D01*
X46768628Y-29254978D01*
X46767815Y-29262222D01*
X46767815Y-29262224D01*
X46763666Y-29299213D01*
X46746757Y-29449963D01*
X28157500Y-29449963D01*
X28157500Y-28829705D01*
X28159195Y-28807295D01*
X28160692Y-28797454D01*
X28161994Y-28788897D01*
X28157990Y-28739666D01*
X28157500Y-28727588D01*
X28157500Y-28721042D01*
X28154410Y-28694540D01*
X28153901Y-28689400D01*
X28152152Y-28667889D01*
X28148280Y-28620278D01*
X28145613Y-28612046D01*
X28144829Y-28608121D01*
X28144808Y-28607986D01*
X28144768Y-28607844D01*
X28143850Y-28603960D01*
X28142848Y-28595368D01*
X28119184Y-28530176D01*
X28117511Y-28525300D01*
X28098810Y-28467572D01*
X28098808Y-28467568D01*
X28096142Y-28459338D01*
X28091653Y-28451939D01*
X28089986Y-28448299D01*
X28089938Y-28448181D01*
X28089868Y-28448055D01*
X28088080Y-28444485D01*
X28085125Y-28436344D01*
X28047099Y-28378346D01*
X28044341Y-28373973D01*
X28011822Y-28320382D01*
X28011820Y-28320379D01*
X28008378Y-28314707D01*
X28001300Y-28306693D01*
X28000777Y-28306170D01*
X27996948Y-28301852D01*
X27992367Y-28294865D01*
X27938910Y-28244225D01*
X27936021Y-28241414D01*
X27322687Y-27628080D01*
X27284123Y-27561285D01*
X27279757Y-27537262D01*
X27275904Y-27497973D01*
X27275194Y-27490728D01*
X27218484Y-27302894D01*
X27126370Y-27129653D01*
X27121767Y-27124010D01*
X27121765Y-27124006D01*
X27006964Y-26983246D01*
X27002361Y-26977602D01*
X26851180Y-26852535D01*
X26678585Y-26759213D01*
X26548202Y-26718853D01*
X26498111Y-26703347D01*
X26498109Y-26703347D01*
X26491152Y-26701193D01*
X26483910Y-26700432D01*
X26483906Y-26700431D01*
X26303260Y-26681444D01*
X26303259Y-26681444D01*
X26296019Y-26680683D01*
X26100618Y-26698466D01*
X25912393Y-26753864D01*
X25738512Y-26844767D01*
X25585600Y-26967711D01*
X25459480Y-27118016D01*
X25364956Y-27289954D01*
X25305628Y-27476978D01*
X25304815Y-27484222D01*
X25304815Y-27484224D01*
X25288679Y-27628080D01*
X25283757Y-27671963D01*
X25300175Y-27867483D01*
X25354258Y-28056091D01*
X25443944Y-28230601D01*
X25565818Y-28384369D01*
X25715238Y-28511535D01*
X25721601Y-28515091D01*
X25880149Y-28603701D01*
X25880155Y-28603704D01*
X25886513Y-28607257D01*
X26073118Y-28667889D01*
X26164552Y-28678792D01*
X26260714Y-28690259D01*
X26260718Y-28690259D01*
X26267946Y-28691121D01*
X26274687Y-28690602D01*
X26348562Y-28712063D01*
X26376738Y-28734155D01*
X26634920Y-28992337D01*
X26673484Y-29059132D01*
X26673484Y-29136260D01*
X26634920Y-29203055D01*
X26568125Y-29241619D01*
X26499601Y-29243653D01*
X26498111Y-29243347D01*
X26491152Y-29241193D01*
X26483910Y-29240432D01*
X26483906Y-29240431D01*
X26303260Y-29221444D01*
X26303259Y-29221444D01*
X26296019Y-29220683D01*
X26100618Y-29238466D01*
X25912393Y-29293864D01*
X25738512Y-29384767D01*
X25732838Y-29389329D01*
X25645129Y-29459849D01*
X25585600Y-29507711D01*
X25459480Y-29658016D01*
X25364956Y-29829954D01*
X25305628Y-30016978D01*
X25304815Y-30024222D01*
X25304815Y-30024224D01*
X25285992Y-30192040D01*
X25283757Y-30211963D01*
X25300175Y-30407483D01*
X25302185Y-30414492D01*
X25302185Y-30414493D01*
X25352249Y-30589085D01*
X25354258Y-30596091D01*
X25443944Y-30770601D01*
X25565818Y-30924369D01*
X25715238Y-31051535D01*
X25721601Y-31055091D01*
X25880149Y-31143701D01*
X25880155Y-31143704D01*
X25886513Y-31147257D01*
X25893450Y-31149511D01*
X25968544Y-31173911D01*
X26033229Y-31215918D01*
X26068244Y-31284640D01*
X26071500Y-31315618D01*
X26071500Y-39303700D01*
X26069805Y-39326109D01*
X26067006Y-39344508D01*
X26067707Y-39353128D01*
X26067707Y-39353132D01*
X26071010Y-39393735D01*
X26071500Y-39405814D01*
X26071500Y-39412363D01*
X26072002Y-39416668D01*
X26074587Y-39438842D01*
X26075100Y-39444018D01*
X26080721Y-39513127D01*
X26083388Y-39521361D01*
X26084171Y-39525278D01*
X26084194Y-39525421D01*
X26084228Y-39525544D01*
X26085150Y-39529442D01*
X26086152Y-39538037D01*
X26109811Y-39603217D01*
X26111481Y-39608080D01*
X26132858Y-39674067D01*
X26137348Y-39681466D01*
X26139014Y-39685106D01*
X26139062Y-39685224D01*
X26139132Y-39685350D01*
X26140920Y-39688920D01*
X26143875Y-39697061D01*
X26181901Y-39755059D01*
X26184659Y-39759432D01*
X26216061Y-39811181D01*
X26220622Y-39818698D01*
X26227700Y-39826712D01*
X26228223Y-39827235D01*
X26232052Y-39831553D01*
X26236633Y-39838540D01*
X26242920Y-39844495D01*
X26242921Y-39844497D01*
X26290090Y-39889180D01*
X26292979Y-39891991D01*
X29412114Y-43011126D01*
X29426761Y-43028170D01*
X29437791Y-43043158D01*
X29444386Y-43048761D01*
X29444387Y-43048762D01*
X29475423Y-43075129D01*
X29484311Y-43083323D01*
X29488949Y-43087961D01*
X29509893Y-43104531D01*
X29513854Y-43107779D01*
X29566720Y-43152692D01*
X29574430Y-43156629D01*
X29577747Y-43158841D01*
X29577866Y-43158927D01*
X29577993Y-43158999D01*
X29581386Y-43161095D01*
X29588175Y-43166466D01*
X29651024Y-43195839D01*
X29655649Y-43198101D01*
X29709674Y-43225688D01*
X29709677Y-43225689D01*
X29717389Y-43229627D01*
X29725800Y-43231685D01*
X29729542Y-43233077D01*
X29729671Y-43233131D01*
X29729803Y-43233169D01*
X29733593Y-43234430D01*
X29741438Y-43238096D01*
X29809312Y-43252213D01*
X29814343Y-43253351D01*
X29857680Y-43263956D01*
X29875280Y-43268263D01*
X29875282Y-43268263D01*
X29881717Y-43269838D01*
X29888332Y-43270248D01*
X29888336Y-43270249D01*
X29889472Y-43270319D01*
X29892388Y-43270500D01*
X29893135Y-43270500D01*
X29898890Y-43270846D01*
X29907068Y-43272547D01*
X29915720Y-43272313D01*
X29915721Y-43272313D01*
X29980685Y-43270555D01*
X29984715Y-43270500D01*
X32133120Y-43270500D01*
X32207620Y-43290462D01*
X32262158Y-43345000D01*
X32282120Y-43419500D01*
X32281191Y-43436109D01*
X32270992Y-43527040D01*
X32268757Y-43546963D01*
X32285175Y-43742483D01*
X32287185Y-43749492D01*
X32287185Y-43749493D01*
X32303043Y-43804796D01*
X32339258Y-43931091D01*
X32428944Y-44105601D01*
X32550818Y-44259369D01*
X32700238Y-44386535D01*
X32706601Y-44390091D01*
X32865149Y-44478701D01*
X32865155Y-44478704D01*
X32871513Y-44482257D01*
X33058118Y-44542889D01*
X33131397Y-44551627D01*
X33245715Y-44565259D01*
X33245718Y-44565259D01*
X33252946Y-44566121D01*
X33364443Y-44557542D01*
X33441314Y-44551627D01*
X33441316Y-44551627D01*
X33448576Y-44551068D01*
X33637556Y-44498303D01*
X33644062Y-44495016D01*
X33644066Y-44495015D01*
X33806184Y-44413123D01*
X33806185Y-44413123D01*
X33812689Y-44409837D01*
X33848563Y-44381809D01*
X33945776Y-44305859D01*
X34016773Y-44275723D01*
X34093326Y-44285123D01*
X34134079Y-44309804D01*
X34224238Y-44386535D01*
X34230601Y-44390091D01*
X34389149Y-44478701D01*
X34389155Y-44478704D01*
X34395513Y-44482257D01*
X34582118Y-44542889D01*
X34655397Y-44551627D01*
X34769715Y-44565259D01*
X34769718Y-44565259D01*
X34776946Y-44566121D01*
X34888443Y-44557542D01*
X34965314Y-44551627D01*
X34965316Y-44551627D01*
X34972576Y-44551068D01*
X35161556Y-44498303D01*
X35168062Y-44495016D01*
X35168066Y-44495015D01*
X35330184Y-44413123D01*
X35330185Y-44413123D01*
X35336689Y-44409837D01*
X35491303Y-44289040D01*
X35619509Y-44140511D01*
X35716425Y-43969909D01*
X35778358Y-43783732D01*
X35802949Y-43589071D01*
X35803341Y-43561000D01*
X35790535Y-43430400D01*
X35803132Y-43354309D01*
X35852087Y-43294709D01*
X35924283Y-43267572D01*
X35970817Y-43270336D01*
X35972190Y-43270638D01*
X35979118Y-43272889D01*
X35986355Y-43273752D01*
X36166715Y-43295259D01*
X36166718Y-43295259D01*
X36173946Y-43296121D01*
X36289507Y-43287229D01*
X36362314Y-43281627D01*
X36362316Y-43281627D01*
X36369576Y-43281068D01*
X36400932Y-43272313D01*
X36415656Y-43268202D01*
X36492780Y-43267394D01*
X36552295Y-43298242D01*
X36586734Y-43327553D01*
X36630531Y-43391038D01*
X36636718Y-43467917D01*
X36608375Y-43531726D01*
X36593464Y-43551159D01*
X36532956Y-43697238D01*
X36531681Y-43706919D01*
X36531681Y-43706921D01*
X36518796Y-43804797D01*
X36517500Y-43814639D01*
X36517501Y-45593360D01*
X36532956Y-45710762D01*
X36593464Y-45856841D01*
X36689718Y-45982282D01*
X36815159Y-46078536D01*
X36824182Y-46082274D01*
X36824183Y-46082274D01*
X36949167Y-46134044D01*
X36961238Y-46139044D01*
X36970919Y-46140319D01*
X36970921Y-46140319D01*
X37073797Y-46153863D01*
X37073804Y-46153863D01*
X37078639Y-46154500D01*
X37967908Y-46154500D01*
X38857360Y-46154499D01*
X38974762Y-46139044D01*
X38986833Y-46134044D01*
X39111817Y-46082274D01*
X39111818Y-46082274D01*
X39120841Y-46078536D01*
X39246282Y-45982282D01*
X39342536Y-45856841D01*
X39345602Y-45849439D01*
X39399514Y-45795526D01*
X39474014Y-45775563D01*
X39548514Y-45795525D01*
X39569191Y-45809922D01*
X39673176Y-45896252D01*
X39678457Y-45899338D01*
X39758618Y-45946180D01*
X39812870Y-46001002D01*
X39832442Y-46075606D01*
X39812090Y-46150000D01*
X39788803Y-46180185D01*
X36700129Y-49268859D01*
X36633334Y-49307423D01*
X36594770Y-49312500D01*
X35544332Y-49312500D01*
X35469832Y-49292538D01*
X35449356Y-49278307D01*
X35365796Y-49209181D01*
X35360180Y-49204535D01*
X35187585Y-49111213D01*
X35057202Y-49070853D01*
X35007111Y-49055347D01*
X35007109Y-49055347D01*
X35000152Y-49053193D01*
X34992910Y-49052432D01*
X34992906Y-49052431D01*
X34812260Y-49033444D01*
X34812259Y-49033444D01*
X34805019Y-49032683D01*
X34609618Y-49050466D01*
X34602629Y-49052523D01*
X34428381Y-49103807D01*
X34428378Y-49103808D01*
X34421393Y-49105864D01*
X34414935Y-49109240D01*
X34414933Y-49109241D01*
X34359564Y-49138187D01*
X34284294Y-49155012D01*
X34219666Y-49137211D01*
X34171585Y-49111213D01*
X34102229Y-49089744D01*
X33991111Y-49055347D01*
X33991109Y-49055347D01*
X33984152Y-49053193D01*
X33976910Y-49052432D01*
X33976906Y-49052431D01*
X33796260Y-49033444D01*
X33796259Y-49033444D01*
X33789019Y-49032683D01*
X33593618Y-49050466D01*
X33405393Y-49105864D01*
X33231512Y-49196767D01*
X33225838Y-49201329D01*
X33087569Y-49312500D01*
X33078600Y-49319711D01*
X32952480Y-49470016D01*
X32948970Y-49476401D01*
X32878423Y-49604725D01*
X32853212Y-49638303D01*
X32614474Y-49877040D01*
X32376686Y-50114828D01*
X32359642Y-50129475D01*
X32351624Y-50135375D01*
X32351621Y-50135378D01*
X32344654Y-50140505D01*
X32339051Y-50147100D01*
X32339050Y-50147101D01*
X32312683Y-50178137D01*
X32304489Y-50187025D01*
X32299851Y-50191663D01*
X32283281Y-50212607D01*
X32280033Y-50216568D01*
X32235120Y-50269434D01*
X32231183Y-50277144D01*
X32228971Y-50280461D01*
X32228885Y-50280580D01*
X32228813Y-50280707D01*
X32226717Y-50284100D01*
X32221346Y-50290889D01*
X32191973Y-50353738D01*
X32189711Y-50358363D01*
X32179051Y-50379240D01*
X32158185Y-50420103D01*
X32156127Y-50428514D01*
X32154735Y-50432256D01*
X32154680Y-50432388D01*
X32154642Y-50432519D01*
X32153381Y-50436310D01*
X32149716Y-50444152D01*
X32147954Y-50452624D01*
X32143945Y-50471897D01*
X32109229Y-50540770D01*
X32044728Y-50583059D01*
X31967724Y-50587432D01*
X31903091Y-50556361D01*
X31809796Y-50479181D01*
X31804180Y-50474535D01*
X31631585Y-50381213D01*
X31501202Y-50340853D01*
X31451111Y-50325347D01*
X31451109Y-50325347D01*
X31444152Y-50323193D01*
X31436910Y-50322432D01*
X31436906Y-50322431D01*
X31256260Y-50303444D01*
X31256259Y-50303444D01*
X31249019Y-50302683D01*
X31053618Y-50320466D01*
X30865393Y-50375864D01*
X30691512Y-50466767D01*
X30588460Y-50549623D01*
X30517893Y-50580746D01*
X30495098Y-50582500D01*
X25339301Y-50582500D01*
X25316891Y-50580805D01*
X25298493Y-50578006D01*
X25289873Y-50578707D01*
X25289869Y-50578707D01*
X25249266Y-50582010D01*
X25237187Y-50582500D01*
X25230638Y-50582500D01*
X25226332Y-50583002D01*
X25226333Y-50583002D01*
X25204159Y-50585587D01*
X25198983Y-50586100D01*
X25138500Y-50591019D01*
X25138496Y-50591020D01*
X25129874Y-50591721D01*
X25121640Y-50594388D01*
X25117723Y-50595171D01*
X25117580Y-50595194D01*
X25117457Y-50595228D01*
X25113559Y-50596150D01*
X25104964Y-50597152D01*
X25039784Y-50620811D01*
X25034921Y-50622481D01*
X24968934Y-50643858D01*
X24961535Y-50648348D01*
X24957895Y-50650014D01*
X24957777Y-50650062D01*
X24957651Y-50650132D01*
X24954081Y-50651920D01*
X24945940Y-50654875D01*
X24887942Y-50692901D01*
X24883569Y-50695659D01*
X24829978Y-50728178D01*
X24829975Y-50728180D01*
X24824303Y-50731622D01*
X24816289Y-50738700D01*
X24815766Y-50739223D01*
X24811448Y-50743052D01*
X24804461Y-50747633D01*
X24798506Y-50753920D01*
X24798504Y-50753921D01*
X24753821Y-50801090D01*
X24751010Y-50803979D01*
X22883721Y-52671268D01*
X22816926Y-52709832D01*
X22739798Y-52709832D01*
X22673003Y-52671268D01*
X22634439Y-52604473D01*
X22629362Y-52566158D01*
X22624868Y-49874123D01*
X22623422Y-49007963D01*
X29093757Y-49007963D01*
X29110175Y-49203483D01*
X29164258Y-49392091D01*
X29253944Y-49566601D01*
X29375818Y-49720369D01*
X29525238Y-49847535D01*
X29531601Y-49851091D01*
X29690149Y-49939701D01*
X29690155Y-49939704D01*
X29696513Y-49943257D01*
X29883118Y-50003889D01*
X29956397Y-50012627D01*
X30070715Y-50026259D01*
X30070718Y-50026259D01*
X30077946Y-50027121D01*
X30189443Y-50018542D01*
X30266314Y-50012627D01*
X30266316Y-50012627D01*
X30273576Y-50012068D01*
X30462556Y-49959303D01*
X30469062Y-49956016D01*
X30469066Y-49956015D01*
X30631184Y-49874123D01*
X30631185Y-49874123D01*
X30637689Y-49870837D01*
X30792303Y-49750040D01*
X30920509Y-49601511D01*
X31017425Y-49430909D01*
X31079358Y-49244732D01*
X31103949Y-49050071D01*
X31104341Y-49022000D01*
X31085194Y-48826728D01*
X31028484Y-48638894D01*
X30991916Y-48570120D01*
X30939792Y-48472088D01*
X30939790Y-48472085D01*
X30936370Y-48465653D01*
X30931767Y-48460010D01*
X30931765Y-48460006D01*
X30816964Y-48319246D01*
X30812361Y-48313602D01*
X30661180Y-48188535D01*
X30488585Y-48095213D01*
X30337427Y-48048422D01*
X30308111Y-48039347D01*
X30308109Y-48039347D01*
X30301152Y-48037193D01*
X30293910Y-48036432D01*
X30293906Y-48036431D01*
X30113260Y-48017444D01*
X30113259Y-48017444D01*
X30106019Y-48016683D01*
X29910618Y-48034466D01*
X29722393Y-48089864D01*
X29548512Y-48180767D01*
X29542838Y-48185329D01*
X29430729Y-48275467D01*
X29395600Y-48303711D01*
X29269480Y-48454016D01*
X29174956Y-48625954D01*
X29115628Y-48812978D01*
X29114815Y-48820222D01*
X29114815Y-48820224D01*
X29094569Y-49000722D01*
X29093757Y-49007963D01*
X22623422Y-49007963D01*
X22620911Y-47503655D01*
X23559511Y-47503655D01*
X23590355Y-47640518D01*
X23594003Y-47652157D01*
X23673414Y-47847725D01*
X23678910Y-47858606D01*
X23789190Y-48038566D01*
X23796403Y-48048422D01*
X23934591Y-48207950D01*
X23943311Y-48216489D01*
X24105716Y-48351320D01*
X24115686Y-48358302D01*
X24297945Y-48464805D01*
X24308920Y-48470064D01*
X24506127Y-48545370D01*
X24517817Y-48548766D01*
X24618778Y-48569306D01*
X24634765Y-48568328D01*
X24638000Y-48561840D01*
X24638000Y-48556016D01*
X25146000Y-48556016D01*
X25150145Y-48571487D01*
X25159271Y-48573932D01*
X25169244Y-48572654D01*
X25181167Y-48570120D01*
X25383348Y-48509463D01*
X25394691Y-48505017D01*
X25584245Y-48412156D01*
X25594715Y-48405915D01*
X25766552Y-48283345D01*
X25775874Y-48275467D01*
X25925381Y-48126480D01*
X25933281Y-48117198D01*
X26056451Y-47945789D01*
X26062734Y-47935332D01*
X26156254Y-47746109D01*
X26160742Y-47734775D01*
X26222100Y-47532822D01*
X26224680Y-47520890D01*
X26225791Y-47512447D01*
X26223700Y-47496569D01*
X26215083Y-47493000D01*
X25165616Y-47493000D01*
X25150145Y-47497145D01*
X25146000Y-47512616D01*
X25146000Y-48556016D01*
X24638000Y-48556016D01*
X24638000Y-47512616D01*
X24633855Y-47497145D01*
X24618384Y-47493000D01*
X23576726Y-47493000D01*
X23561255Y-47497145D01*
X23559511Y-47503655D01*
X22620911Y-47503655D01*
X22614744Y-43809639D01*
X23441500Y-43809639D01*
X23441501Y-45588360D01*
X23456956Y-45705762D01*
X23460695Y-45714788D01*
X23460695Y-45714789D01*
X23500101Y-45809922D01*
X23517464Y-45851841D01*
X23613718Y-45977282D01*
X23739159Y-46073536D01*
X23800293Y-46098859D01*
X23816167Y-46105434D01*
X23877356Y-46152387D01*
X23906871Y-46223645D01*
X23896804Y-46300113D01*
X23866868Y-46346033D01*
X23837248Y-46377029D01*
X23829573Y-46386505D01*
X23710621Y-46560883D01*
X23704607Y-46571470D01*
X23615734Y-46762931D01*
X23611524Y-46774372D01*
X23556542Y-46972629D01*
X23557902Y-46981319D01*
X23567435Y-46985000D01*
X26208843Y-46985000D01*
X26224314Y-46980855D01*
X26225916Y-46974875D01*
X26183445Y-46805793D01*
X26179516Y-46794254D01*
X26095350Y-46600685D01*
X26089590Y-46589942D01*
X25974937Y-46412716D01*
X25967504Y-46403063D01*
X25913588Y-46343810D01*
X25878213Y-46275273D01*
X25881846Y-46198230D01*
X25923514Y-46133326D01*
X25966773Y-46105873D01*
X26035817Y-46077274D01*
X26035818Y-46077274D01*
X26044841Y-46073536D01*
X26170282Y-45977282D01*
X26266536Y-45851841D01*
X26283900Y-45809922D01*
X26323307Y-45714784D01*
X26327044Y-45705762D01*
X26335075Y-45644759D01*
X26341863Y-45593203D01*
X26341863Y-45593196D01*
X26342500Y-45588361D01*
X26342499Y-43809640D01*
X26327044Y-43692238D01*
X26310014Y-43651123D01*
X26270274Y-43555183D01*
X26270274Y-43555182D01*
X26266536Y-43546159D01*
X26170282Y-43420718D01*
X26044841Y-43324464D01*
X25983021Y-43298857D01*
X25907784Y-43267693D01*
X25898762Y-43263956D01*
X25889081Y-43262681D01*
X25889079Y-43262681D01*
X25786203Y-43249137D01*
X25786196Y-43249137D01*
X25781361Y-43248500D01*
X24892092Y-43248500D01*
X24002640Y-43248501D01*
X23885238Y-43263956D01*
X23876212Y-43267695D01*
X23876211Y-43267695D01*
X23800980Y-43298857D01*
X23739159Y-43324464D01*
X23613718Y-43420718D01*
X23517464Y-43546159D01*
X23513726Y-43555182D01*
X23513726Y-43555183D01*
X23473986Y-43651123D01*
X23456956Y-43692238D01*
X23455681Y-43701919D01*
X23455681Y-43701921D01*
X23442138Y-43804796D01*
X23441500Y-43809639D01*
X22614744Y-43809639D01*
X22606415Y-38820776D01*
X22626253Y-38746245D01*
X22680700Y-38691616D01*
X22755166Y-38671529D01*
X22828106Y-38690464D01*
X22959141Y-38763697D01*
X22959151Y-38763701D01*
X22965513Y-38767257D01*
X23152118Y-38827889D01*
X23225397Y-38836627D01*
X23339715Y-38850259D01*
X23339718Y-38850259D01*
X23346946Y-38851121D01*
X23458443Y-38842542D01*
X23535314Y-38836627D01*
X23535316Y-38836627D01*
X23542576Y-38836068D01*
X23731556Y-38783303D01*
X23738062Y-38780016D01*
X23738066Y-38780015D01*
X23900184Y-38698123D01*
X23900185Y-38698123D01*
X23906689Y-38694837D01*
X24061303Y-38574040D01*
X24189509Y-38425511D01*
X24286425Y-38254909D01*
X24348358Y-38068732D01*
X24372949Y-37874071D01*
X24373341Y-37846000D01*
X24354194Y-37650728D01*
X24297484Y-37462894D01*
X24205370Y-37289653D01*
X24200767Y-37284010D01*
X24200765Y-37284006D01*
X24085964Y-37143246D01*
X24081361Y-37137602D01*
X23930180Y-37012535D01*
X23757585Y-36919213D01*
X23601992Y-36871049D01*
X23577111Y-36863347D01*
X23577109Y-36863347D01*
X23570152Y-36861193D01*
X23562910Y-36860432D01*
X23562906Y-36860431D01*
X23382260Y-36841444D01*
X23382259Y-36841444D01*
X23375019Y-36840683D01*
X23179618Y-36858466D01*
X22991393Y-36913864D01*
X22821190Y-37002844D01*
X22745921Y-37019669D01*
X22672322Y-36996605D01*
X22620116Y-36939831D01*
X22603160Y-36871049D01*
X22603143Y-36860523D01*
X22602788Y-36648228D01*
X22602171Y-36278406D01*
X22622009Y-36203872D01*
X22676456Y-36149244D01*
X22750922Y-36129157D01*
X22823862Y-36148092D01*
X22959141Y-36223697D01*
X22959151Y-36223701D01*
X22965513Y-36227257D01*
X23152118Y-36287889D01*
X23225397Y-36296627D01*
X23339715Y-36310259D01*
X23339718Y-36310259D01*
X23346946Y-36311121D01*
X23458443Y-36302542D01*
X23535314Y-36296627D01*
X23535316Y-36296627D01*
X23542576Y-36296068D01*
X23731556Y-36243303D01*
X23738062Y-36240016D01*
X23738066Y-36240015D01*
X23900184Y-36158123D01*
X23900185Y-36158123D01*
X23906689Y-36154837D01*
X24061303Y-36034040D01*
X24189509Y-35885511D01*
X24286425Y-35714909D01*
X24348358Y-35528732D01*
X24372949Y-35334071D01*
X24373341Y-35306000D01*
X24354194Y-35110728D01*
X24297484Y-34922894D01*
X24205370Y-34749653D01*
X24200767Y-34744010D01*
X24200765Y-34744006D01*
X24085964Y-34603246D01*
X24081361Y-34597602D01*
X23930180Y-34472535D01*
X23757585Y-34379213D01*
X23609383Y-34333337D01*
X23577111Y-34323347D01*
X23577109Y-34323347D01*
X23570152Y-34321193D01*
X23562910Y-34320432D01*
X23562906Y-34320431D01*
X23382260Y-34301444D01*
X23382259Y-34301444D01*
X23375019Y-34300683D01*
X23179618Y-34318466D01*
X22991393Y-34373864D01*
X22817512Y-34464767D01*
X22816141Y-34462145D01*
X22756337Y-34481850D01*
X22680828Y-34466126D01*
X22623298Y-34414755D01*
X22599162Y-34341501D01*
X22598924Y-34333337D01*
X22581483Y-23886134D01*
X23341736Y-23886134D01*
X23347969Y-23896651D01*
X23623855Y-24108346D01*
X23630501Y-24112897D01*
X23934388Y-24297662D01*
X23941500Y-24301477D01*
X24263580Y-24452349D01*
X24271029Y-24455359D01*
X24607527Y-24570568D01*
X24615273Y-24572760D01*
X24962244Y-24650954D01*
X24970170Y-24652294D01*
X25323541Y-24692555D01*
X25331597Y-24693034D01*
X25687252Y-24694896D01*
X25695281Y-24694503D01*
X26049064Y-24657944D01*
X26057024Y-24656683D01*
X26404786Y-24582129D01*
X26412553Y-24580019D01*
X26750225Y-24468344D01*
X26757727Y-24465404D01*
X27081360Y-24317916D01*
X27088501Y-24314183D01*
X27394324Y-24132598D01*
X27401001Y-24128129D01*
X27685432Y-23914572D01*
X27691591Y-23909403D01*
X27702893Y-23898827D01*
X27710794Y-23886134D01*
X44296736Y-23886134D01*
X44302969Y-23896651D01*
X44578855Y-24108346D01*
X44585501Y-24112897D01*
X44889388Y-24297662D01*
X44896500Y-24301477D01*
X45218580Y-24452349D01*
X45226029Y-24455359D01*
X45562527Y-24570568D01*
X45570273Y-24572760D01*
X45917244Y-24650954D01*
X45925170Y-24652294D01*
X46278541Y-24692555D01*
X46286597Y-24693034D01*
X46642252Y-24694896D01*
X46650281Y-24694503D01*
X47004064Y-24657944D01*
X47012024Y-24656683D01*
X47359786Y-24582129D01*
X47367553Y-24580019D01*
X47705225Y-24468344D01*
X47712727Y-24465404D01*
X48036360Y-24317916D01*
X48043501Y-24314183D01*
X48349324Y-24132598D01*
X48356001Y-24128129D01*
X48640432Y-23914572D01*
X48646591Y-23909403D01*
X48657893Y-23898827D01*
X48665928Y-23885918D01*
X48657456Y-23870666D01*
X46495871Y-21709081D01*
X46482000Y-21701073D01*
X46468129Y-21709081D01*
X44304468Y-23872742D01*
X44296736Y-23886134D01*
X27710794Y-23886134D01*
X27710928Y-23885918D01*
X27702456Y-23870666D01*
X25540871Y-21709081D01*
X25527000Y-21701073D01*
X25513129Y-21709081D01*
X23349468Y-23872742D01*
X23341736Y-23886134D01*
X22581483Y-23886134D01*
X22580770Y-23459055D01*
X22600608Y-23384522D01*
X22655055Y-23329893D01*
X22729521Y-23309806D01*
X22804054Y-23329644D01*
X22843743Y-23362831D01*
X22966976Y-23509175D01*
X22980111Y-23518338D01*
X22990159Y-23513631D01*
X25153919Y-21349871D01*
X25161927Y-21336000D01*
X25892073Y-21336000D01*
X25900081Y-21349871D01*
X28060404Y-23510194D01*
X28074275Y-23518202D01*
X28084292Y-23512419D01*
X28188790Y-23390930D01*
X28193699Y-23384555D01*
X28395151Y-23091440D01*
X28399343Y-23084572D01*
X28567960Y-22771418D01*
X28571387Y-22764135D01*
X28705197Y-22434603D01*
X28707823Y-22426975D01*
X28805255Y-22084934D01*
X28807040Y-22077081D01*
X28866966Y-21726501D01*
X28867891Y-21718498D01*
X28889720Y-21361611D01*
X28889857Y-21357341D01*
X28889925Y-21338135D01*
X28889817Y-21333870D01*
X28889515Y-21328288D01*
X43119292Y-21328288D01*
X43137286Y-21683501D01*
X43138126Y-21691492D01*
X43194380Y-22042695D01*
X43196081Y-22050560D01*
X43289932Y-22393623D01*
X43292470Y-22401252D01*
X43422823Y-22732173D01*
X43426174Y-22739492D01*
X43591504Y-23054400D01*
X43595621Y-23061306D01*
X43793996Y-23356519D01*
X43798838Y-23362945D01*
X43921976Y-23509175D01*
X43935111Y-23518338D01*
X43945159Y-23513631D01*
X46108919Y-21349871D01*
X46116927Y-21336000D01*
X46108919Y-21322129D01*
X43948586Y-19161796D01*
X43934715Y-19153788D01*
X43924837Y-19159491D01*
X43813056Y-19290371D01*
X43808171Y-19296760D01*
X43607740Y-19590579D01*
X43603565Y-19597474D01*
X43436052Y-19911199D01*
X43432644Y-19918509D01*
X43299983Y-20248510D01*
X43297394Y-20256116D01*
X43201149Y-20598516D01*
X43199393Y-20606373D01*
X43140691Y-20957165D01*
X43139794Y-20965163D01*
X43119320Y-21320238D01*
X43119292Y-21328288D01*
X28889515Y-21328288D01*
X28870480Y-20976834D01*
X28869609Y-20968820D01*
X28812135Y-20617847D01*
X28810404Y-20609971D01*
X28715358Y-20267245D01*
X28712792Y-20259620D01*
X28581284Y-19929155D01*
X28577909Y-19921850D01*
X28411484Y-19607530D01*
X28407330Y-19600617D01*
X28207936Y-19306112D01*
X28203069Y-19299699D01*
X28087012Y-19162849D01*
X28073842Y-19153730D01*
X28063674Y-19158536D01*
X25900081Y-21322129D01*
X25892073Y-21336000D01*
X25161927Y-21336000D01*
X25153919Y-21322129D01*
X22993586Y-19161796D01*
X22979715Y-19153788D01*
X22969837Y-19159491D01*
X22858056Y-19290371D01*
X22853167Y-19296764D01*
X22845787Y-19307583D01*
X22787313Y-19357877D01*
X22711525Y-19372196D01*
X22638732Y-19346704D01*
X22588438Y-19288230D01*
X22573699Y-19223865D01*
X22572991Y-18799683D01*
X22572752Y-18656748D01*
X22592590Y-18582216D01*
X22647037Y-18527587D01*
X22721752Y-18507500D01*
X23257103Y-18507500D01*
X23331603Y-18527462D01*
G37*
%TD.AperFunction*%
%TD*%
M02*
