%TF.GenerationSoftware,KiCad,Pcbnew,(6.0.8)*%
%TF.CreationDate,2023-06-03T22:28:48+01:00*%
%TF.ProjectId,circuit board design v2.1,63697263-7569-4742-9062-6f6172642064,rev?*%
%TF.SameCoordinates,Original*%
%TF.FileFunction,Legend,Top*%
%TF.FilePolarity,Positive*%
%FSLAX46Y46*%
G04 Gerber Fmt 4.6, Leading zero omitted, Abs format (unit mm)*
G04 Created by KiCad (PCBNEW (6.0.8)) date 2023-06-03 22:28:48*
%MOMM*%
%LPD*%
G01*
G04 APERTURE LIST*
%ADD10C,0.150000*%
%ADD11C,0.100000*%
%ADD12C,0.120000*%
%ADD13C,0.200000*%
%ADD14C,0.127000*%
%ADD15C,0.152400*%
%ADD16C,0.300000*%
%ADD17C,0.250000*%
G04 APERTURE END LIST*
D10*
%TO.C,U9*%
X47577425Y-61758877D02*
X47577425Y-62568401D01*
X47625044Y-62663639D01*
X47672663Y-62711258D01*
X47767901Y-62758877D01*
X47958377Y-62758877D01*
X48053615Y-62711258D01*
X48101234Y-62663639D01*
X48148853Y-62568401D01*
X48148853Y-61758877D01*
X48672663Y-62758877D02*
X48863139Y-62758877D01*
X48958377Y-62711258D01*
X49005996Y-62663639D01*
X49101234Y-62520782D01*
X49148853Y-62330306D01*
X49148853Y-61949354D01*
X49101234Y-61854116D01*
X49053615Y-61806497D01*
X48958377Y-61758877D01*
X48767901Y-61758877D01*
X48672663Y-61806497D01*
X48625044Y-61854116D01*
X48577425Y-61949354D01*
X48577425Y-62187449D01*
X48625044Y-62282687D01*
X48672663Y-62330306D01*
X48767901Y-62377925D01*
X48958377Y-62377925D01*
X49053615Y-62330306D01*
X49101234Y-62282687D01*
X49148853Y-62187449D01*
%TO.C,J3*%
X30833666Y-87967487D02*
X30833666Y-88681773D01*
X30786047Y-88824630D01*
X30690809Y-88919868D01*
X30547952Y-88967487D01*
X30452714Y-88967487D01*
X31214619Y-87967487D02*
X31833666Y-87967487D01*
X31500333Y-88348440D01*
X31643190Y-88348440D01*
X31738428Y-88396059D01*
X31786047Y-88443678D01*
X31833666Y-88538916D01*
X31833666Y-88777011D01*
X31786047Y-88872249D01*
X31738428Y-88919868D01*
X31643190Y-88967487D01*
X31357476Y-88967487D01*
X31262238Y-88919868D01*
X31214619Y-88872249D01*
%TO.C,U3*%
X37084095Y-67651380D02*
X37084095Y-68460904D01*
X37131714Y-68556142D01*
X37179333Y-68603761D01*
X37274571Y-68651380D01*
X37465047Y-68651380D01*
X37560285Y-68603761D01*
X37607904Y-68556142D01*
X37655523Y-68460904D01*
X37655523Y-67651380D01*
X38036476Y-67651380D02*
X38655523Y-67651380D01*
X38322190Y-68032333D01*
X38465047Y-68032333D01*
X38560285Y-68079952D01*
X38607904Y-68127571D01*
X38655523Y-68222809D01*
X38655523Y-68460904D01*
X38607904Y-68556142D01*
X38560285Y-68603761D01*
X38465047Y-68651380D01*
X38179333Y-68651380D01*
X38084095Y-68603761D01*
X38036476Y-68556142D01*
%TO.C,R9*%
X48745380Y-41568666D02*
X48269190Y-41902000D01*
X48745380Y-42140095D02*
X47745380Y-42140095D01*
X47745380Y-41759142D01*
X47793000Y-41663904D01*
X47840619Y-41616285D01*
X47935857Y-41568666D01*
X48078714Y-41568666D01*
X48173952Y-41616285D01*
X48221571Y-41663904D01*
X48269190Y-41759142D01*
X48269190Y-42140095D01*
X48745380Y-41092476D02*
X48745380Y-40902000D01*
X48697761Y-40806761D01*
X48650142Y-40759142D01*
X48507285Y-40663904D01*
X48316809Y-40616285D01*
X47935857Y-40616285D01*
X47840619Y-40663904D01*
X47793000Y-40711523D01*
X47745380Y-40806761D01*
X47745380Y-40997238D01*
X47793000Y-41092476D01*
X47840619Y-41140095D01*
X47935857Y-41187714D01*
X48173952Y-41187714D01*
X48269190Y-41140095D01*
X48316809Y-41092476D01*
X48364428Y-40997238D01*
X48364428Y-40806761D01*
X48316809Y-40711523D01*
X48269190Y-40663904D01*
X48173952Y-40616285D01*
%TO.C,D4*%
X30678380Y-43791095D02*
X29678380Y-43791095D01*
X29678380Y-43553000D01*
X29726000Y-43410142D01*
X29821238Y-43314904D01*
X29916476Y-43267285D01*
X30106952Y-43219666D01*
X30249809Y-43219666D01*
X30440285Y-43267285D01*
X30535523Y-43314904D01*
X30630761Y-43410142D01*
X30678380Y-43553000D01*
X30678380Y-43791095D01*
X30011714Y-42362523D02*
X30678380Y-42362523D01*
X29630761Y-42600619D02*
X30345047Y-42838714D01*
X30345047Y-42219666D01*
%TO.C,D3*%
X43838904Y-71064380D02*
X43838904Y-70064380D01*
X44077000Y-70064380D01*
X44219857Y-70112000D01*
X44315095Y-70207238D01*
X44362714Y-70302476D01*
X44410333Y-70492952D01*
X44410333Y-70635809D01*
X44362714Y-70826285D01*
X44315095Y-70921523D01*
X44219857Y-71016761D01*
X44077000Y-71064380D01*
X43838904Y-71064380D01*
X44743666Y-70064380D02*
X45362714Y-70064380D01*
X45029380Y-70445333D01*
X45172238Y-70445333D01*
X45267476Y-70492952D01*
X45315095Y-70540571D01*
X45362714Y-70635809D01*
X45362714Y-70873904D01*
X45315095Y-70969142D01*
X45267476Y-71016761D01*
X45172238Y-71064380D01*
X44886523Y-71064380D01*
X44791285Y-71016761D01*
X44743666Y-70969142D01*
%TO.C,C7*%
X41411142Y-62777666D02*
X41458761Y-62825285D01*
X41506380Y-62968142D01*
X41506380Y-63063380D01*
X41458761Y-63206238D01*
X41363523Y-63301476D01*
X41268285Y-63349095D01*
X41077809Y-63396714D01*
X40934952Y-63396714D01*
X40744476Y-63349095D01*
X40649238Y-63301476D01*
X40554000Y-63206238D01*
X40506380Y-63063380D01*
X40506380Y-62968142D01*
X40554000Y-62825285D01*
X40601619Y-62777666D01*
X40506380Y-62444333D02*
X40506380Y-61777666D01*
X41506380Y-62206238D01*
%TO.C,R6*%
X32075380Y-63412666D02*
X31599190Y-63746000D01*
X32075380Y-63984095D02*
X31075380Y-63984095D01*
X31075380Y-63603142D01*
X31123000Y-63507904D01*
X31170619Y-63460285D01*
X31265857Y-63412666D01*
X31408714Y-63412666D01*
X31503952Y-63460285D01*
X31551571Y-63507904D01*
X31599190Y-63603142D01*
X31599190Y-63984095D01*
X31075380Y-62555523D02*
X31075380Y-62746000D01*
X31123000Y-62841238D01*
X31170619Y-62888857D01*
X31313476Y-62984095D01*
X31503952Y-63031714D01*
X31884904Y-63031714D01*
X31980142Y-62984095D01*
X32027761Y-62936476D01*
X32075380Y-62841238D01*
X32075380Y-62650761D01*
X32027761Y-62555523D01*
X31980142Y-62507904D01*
X31884904Y-62460285D01*
X31646809Y-62460285D01*
X31551571Y-62507904D01*
X31503952Y-62555523D01*
X31456333Y-62650761D01*
X31456333Y-62841238D01*
X31503952Y-62936476D01*
X31551571Y-62984095D01*
X31646809Y-63031714D01*
%TO.C,C15*%
X27932142Y-73763142D02*
X27884523Y-73810761D01*
X27741666Y-73858380D01*
X27646428Y-73858380D01*
X27503571Y-73810761D01*
X27408333Y-73715523D01*
X27360714Y-73620285D01*
X27313095Y-73429809D01*
X27313095Y-73286952D01*
X27360714Y-73096476D01*
X27408333Y-73001238D01*
X27503571Y-72906000D01*
X27646428Y-72858380D01*
X27741666Y-72858380D01*
X27884523Y-72906000D01*
X27932142Y-72953619D01*
X28884523Y-73858380D02*
X28313095Y-73858380D01*
X28598809Y-73858380D02*
X28598809Y-72858380D01*
X28503571Y-73001238D01*
X28408333Y-73096476D01*
X28313095Y-73144095D01*
X29789285Y-72858380D02*
X29313095Y-72858380D01*
X29265476Y-73334571D01*
X29313095Y-73286952D01*
X29408333Y-73239333D01*
X29646428Y-73239333D01*
X29741666Y-73286952D01*
X29789285Y-73334571D01*
X29836904Y-73429809D01*
X29836904Y-73667904D01*
X29789285Y-73763142D01*
X29741666Y-73810761D01*
X29646428Y-73858380D01*
X29408333Y-73858380D01*
X29313095Y-73810761D01*
X29265476Y-73763142D01*
%TO.C,D2*%
X30573214Y-74366380D02*
X30573214Y-73366380D01*
X30811309Y-73366380D01*
X30954166Y-73414000D01*
X31049404Y-73509238D01*
X31097023Y-73604476D01*
X31144642Y-73794952D01*
X31144642Y-73937809D01*
X31097023Y-74128285D01*
X31049404Y-74223523D01*
X30954166Y-74318761D01*
X30811309Y-74366380D01*
X30573214Y-74366380D01*
X31525595Y-73461619D02*
X31573214Y-73414000D01*
X31668452Y-73366380D01*
X31906547Y-73366380D01*
X32001785Y-73414000D01*
X32049404Y-73461619D01*
X32097023Y-73556857D01*
X32097023Y-73652095D01*
X32049404Y-73794952D01*
X31477976Y-74366380D01*
X32097023Y-74366380D01*
%TO.C,J1*%
X24685666Y-41997380D02*
X24685666Y-42711666D01*
X24638047Y-42854523D01*
X24542809Y-42949761D01*
X24399952Y-42997380D01*
X24304714Y-42997380D01*
X25685666Y-42997380D02*
X25114238Y-42997380D01*
X25399952Y-42997380D02*
X25399952Y-41997380D01*
X25304714Y-42140238D01*
X25209476Y-42235476D01*
X25114238Y-42283095D01*
D11*
X22737000Y-47649952D02*
X22713190Y-47697571D01*
X22713190Y-47769000D01*
X22737000Y-47840428D01*
X22784619Y-47888047D01*
X22832238Y-47911857D01*
X22927476Y-47935666D01*
X22998904Y-47935666D01*
X23094142Y-47911857D01*
X23141761Y-47888047D01*
X23189380Y-47840428D01*
X23213190Y-47769000D01*
X23213190Y-47721380D01*
X23189380Y-47649952D01*
X23165571Y-47626142D01*
X22998904Y-47626142D01*
X22998904Y-47721380D01*
X23213190Y-47411857D02*
X22713190Y-47411857D01*
X23213190Y-47126142D01*
X22713190Y-47126142D01*
X23213190Y-46888047D02*
X22713190Y-46888047D01*
X22713190Y-46769000D01*
X22737000Y-46697571D01*
X22784619Y-46649952D01*
X22832238Y-46626142D01*
X22927476Y-46602333D01*
X22998904Y-46602333D01*
X23094142Y-46626142D01*
X23141761Y-46649952D01*
X23189380Y-46697571D01*
X23213190Y-46769000D01*
X23213190Y-46888047D01*
X22713190Y-45370666D02*
X23213190Y-45204000D01*
X22713190Y-45037333D01*
X23213190Y-44870666D02*
X22713190Y-44870666D01*
X22713190Y-44751619D01*
X22737000Y-44680190D01*
X22784619Y-44632571D01*
X22832238Y-44608761D01*
X22927476Y-44584952D01*
X22998904Y-44584952D01*
X23094142Y-44608761D01*
X23141761Y-44632571D01*
X23189380Y-44680190D01*
X23213190Y-44751619D01*
X23213190Y-44870666D01*
X23213190Y-44370666D02*
X22713190Y-44370666D01*
X22713190Y-44251619D01*
X22737000Y-44180190D01*
X22784619Y-44132571D01*
X22832238Y-44108761D01*
X22927476Y-44084952D01*
X22998904Y-44084952D01*
X23094142Y-44108761D01*
X23141761Y-44132571D01*
X23189380Y-44180190D01*
X23213190Y-44251619D01*
X23213190Y-44370666D01*
D10*
%TO.C,R3*%
X32202380Y-43219666D02*
X31726190Y-43553000D01*
X32202380Y-43791095D02*
X31202380Y-43791095D01*
X31202380Y-43410142D01*
X31250000Y-43314904D01*
X31297619Y-43267285D01*
X31392857Y-43219666D01*
X31535714Y-43219666D01*
X31630952Y-43267285D01*
X31678571Y-43314904D01*
X31726190Y-43410142D01*
X31726190Y-43791095D01*
X31202380Y-42886333D02*
X31202380Y-42267285D01*
X31583333Y-42600619D01*
X31583333Y-42457761D01*
X31630952Y-42362523D01*
X31678571Y-42314904D01*
X31773809Y-42267285D01*
X32011904Y-42267285D01*
X32107142Y-42314904D01*
X32154761Y-42362523D01*
X32202380Y-42457761D01*
X32202380Y-42743476D01*
X32154761Y-42838714D01*
X32107142Y-42886333D01*
%TO.C,C22*%
X43426142Y-69572142D02*
X43378523Y-69619761D01*
X43235666Y-69667380D01*
X43140428Y-69667380D01*
X42997571Y-69619761D01*
X42902333Y-69524523D01*
X42854714Y-69429285D01*
X42807095Y-69238809D01*
X42807095Y-69095952D01*
X42854714Y-68905476D01*
X42902333Y-68810238D01*
X42997571Y-68715000D01*
X43140428Y-68667380D01*
X43235666Y-68667380D01*
X43378523Y-68715000D01*
X43426142Y-68762619D01*
X43807095Y-68762619D02*
X43854714Y-68715000D01*
X43949952Y-68667380D01*
X44188047Y-68667380D01*
X44283285Y-68715000D01*
X44330904Y-68762619D01*
X44378523Y-68857857D01*
X44378523Y-68953095D01*
X44330904Y-69095952D01*
X43759476Y-69667380D01*
X44378523Y-69667380D01*
X44759476Y-68762619D02*
X44807095Y-68715000D01*
X44902333Y-68667380D01*
X45140428Y-68667380D01*
X45235666Y-68715000D01*
X45283285Y-68762619D01*
X45330904Y-68857857D01*
X45330904Y-68953095D01*
X45283285Y-69095952D01*
X44711857Y-69667380D01*
X45330904Y-69667380D01*
%TO.C,C4*%
X23725142Y-76366666D02*
X23772761Y-76414285D01*
X23820380Y-76557142D01*
X23820380Y-76652380D01*
X23772761Y-76795238D01*
X23677523Y-76890476D01*
X23582285Y-76938095D01*
X23391809Y-76985714D01*
X23248952Y-76985714D01*
X23058476Y-76938095D01*
X22963238Y-76890476D01*
X22868000Y-76795238D01*
X22820380Y-76652380D01*
X22820380Y-76557142D01*
X22868000Y-76414285D01*
X22915619Y-76366666D01*
X23153714Y-75509523D02*
X23820380Y-75509523D01*
X22772761Y-75747619D02*
X23487047Y-75985714D01*
X23487047Y-75366666D01*
%TO.C,C9*%
X37060142Y-62777666D02*
X37107761Y-62825285D01*
X37155380Y-62968142D01*
X37155380Y-63063380D01*
X37107761Y-63206238D01*
X37012523Y-63301476D01*
X36917285Y-63349095D01*
X36726809Y-63396714D01*
X36583952Y-63396714D01*
X36393476Y-63349095D01*
X36298238Y-63301476D01*
X36203000Y-63206238D01*
X36155380Y-63063380D01*
X36155380Y-62968142D01*
X36203000Y-62825285D01*
X36250619Y-62777666D01*
X37155380Y-62301476D02*
X37155380Y-62111000D01*
X37107761Y-62015761D01*
X37060142Y-61968142D01*
X36917285Y-61872904D01*
X36726809Y-61825285D01*
X36345857Y-61825285D01*
X36250619Y-61872904D01*
X36203000Y-61920523D01*
X36155380Y-62015761D01*
X36155380Y-62206238D01*
X36203000Y-62301476D01*
X36250619Y-62349095D01*
X36345857Y-62396714D01*
X36583952Y-62396714D01*
X36679190Y-62349095D01*
X36726809Y-62301476D01*
X36774428Y-62206238D01*
X36774428Y-62015761D01*
X36726809Y-61920523D01*
X36679190Y-61872904D01*
X36583952Y-61825285D01*
%TO.C,J2*%
X37933380Y-80597333D02*
X38647666Y-80597333D01*
X38790523Y-80644952D01*
X38885761Y-80740190D01*
X38933380Y-80883047D01*
X38933380Y-80978285D01*
X38028619Y-80168761D02*
X37981000Y-80121142D01*
X37933380Y-80025904D01*
X37933380Y-79787809D01*
X37981000Y-79692571D01*
X38028619Y-79644952D01*
X38123857Y-79597333D01*
X38219095Y-79597333D01*
X38361952Y-79644952D01*
X38933380Y-80216380D01*
X38933380Y-79597333D01*
D12*
%TO.C,FB1*%
X29279857Y-61753666D02*
X29279857Y-62020333D01*
X29698904Y-62020333D02*
X28898904Y-62020333D01*
X28898904Y-61639380D01*
X29279857Y-61067952D02*
X29317952Y-60953666D01*
X29356047Y-60915571D01*
X29432238Y-60877476D01*
X29546523Y-60877476D01*
X29622714Y-60915571D01*
X29660809Y-60953666D01*
X29698904Y-61029857D01*
X29698904Y-61334619D01*
X28898904Y-61334619D01*
X28898904Y-61067952D01*
X28937000Y-60991761D01*
X28975095Y-60953666D01*
X29051285Y-60915571D01*
X29127476Y-60915571D01*
X29203666Y-60953666D01*
X29241761Y-60991761D01*
X29279857Y-61067952D01*
X29279857Y-61334619D01*
X29698904Y-60115571D02*
X29698904Y-60572714D01*
X29698904Y-60344142D02*
X28898904Y-60344142D01*
X29013190Y-60420333D01*
X29089380Y-60496523D01*
X29127476Y-60572714D01*
D10*
%TO.C,C14*%
X25138142Y-65127142D02*
X25090523Y-65174761D01*
X24947666Y-65222380D01*
X24852428Y-65222380D01*
X24709571Y-65174761D01*
X24614333Y-65079523D01*
X24566714Y-64984285D01*
X24519095Y-64793809D01*
X24519095Y-64650952D01*
X24566714Y-64460476D01*
X24614333Y-64365238D01*
X24709571Y-64270000D01*
X24852428Y-64222380D01*
X24947666Y-64222380D01*
X25090523Y-64270000D01*
X25138142Y-64317619D01*
X26090523Y-65222380D02*
X25519095Y-65222380D01*
X25804809Y-65222380D02*
X25804809Y-64222380D01*
X25709571Y-64365238D01*
X25614333Y-64460476D01*
X25519095Y-64508095D01*
X26947666Y-64555714D02*
X26947666Y-65222380D01*
X26709571Y-64174761D02*
X26471476Y-64889047D01*
X27090523Y-64889047D01*
%TO.C,C11*%
X24630142Y-59158142D02*
X24582523Y-59205761D01*
X24439666Y-59253380D01*
X24344428Y-59253380D01*
X24201571Y-59205761D01*
X24106333Y-59110523D01*
X24058714Y-59015285D01*
X24011095Y-58824809D01*
X24011095Y-58681952D01*
X24058714Y-58491476D01*
X24106333Y-58396238D01*
X24201571Y-58301000D01*
X24344428Y-58253380D01*
X24439666Y-58253380D01*
X24582523Y-58301000D01*
X24630142Y-58348619D01*
X25582523Y-59253380D02*
X25011095Y-59253380D01*
X25296809Y-59253380D02*
X25296809Y-58253380D01*
X25201571Y-58396238D01*
X25106333Y-58491476D01*
X25011095Y-58539095D01*
X26534904Y-59253380D02*
X25963476Y-59253380D01*
X26249190Y-59253380D02*
X26249190Y-58253380D01*
X26153952Y-58396238D01*
X26058714Y-58491476D01*
X25963476Y-58539095D01*
%TO.C,C13*%
X49125142Y-56268857D02*
X49172761Y-56316476D01*
X49220380Y-56459333D01*
X49220380Y-56554571D01*
X49172761Y-56697428D01*
X49077523Y-56792666D01*
X48982285Y-56840285D01*
X48791809Y-56887904D01*
X48648952Y-56887904D01*
X48458476Y-56840285D01*
X48363238Y-56792666D01*
X48268000Y-56697428D01*
X48220380Y-56554571D01*
X48220380Y-56459333D01*
X48268000Y-56316476D01*
X48315619Y-56268857D01*
X49220380Y-55316476D02*
X49220380Y-55887904D01*
X49220380Y-55602190D02*
X48220380Y-55602190D01*
X48363238Y-55697428D01*
X48458476Y-55792666D01*
X48506095Y-55887904D01*
X48220380Y-54983142D02*
X48220380Y-54364095D01*
X48601333Y-54697428D01*
X48601333Y-54554571D01*
X48648952Y-54459333D01*
X48696571Y-54411714D01*
X48791809Y-54364095D01*
X49029904Y-54364095D01*
X49125142Y-54411714D01*
X49172761Y-54459333D01*
X49220380Y-54554571D01*
X49220380Y-54840285D01*
X49172761Y-54935523D01*
X49125142Y-54983142D01*
%TO.C,C6*%
X34520142Y-63412666D02*
X34567761Y-63460285D01*
X34615380Y-63603142D01*
X34615380Y-63698380D01*
X34567761Y-63841238D01*
X34472523Y-63936476D01*
X34377285Y-63984095D01*
X34186809Y-64031714D01*
X34043952Y-64031714D01*
X33853476Y-63984095D01*
X33758238Y-63936476D01*
X33663000Y-63841238D01*
X33615380Y-63698380D01*
X33615380Y-63603142D01*
X33663000Y-63460285D01*
X33710619Y-63412666D01*
X33615380Y-62555523D02*
X33615380Y-62746000D01*
X33663000Y-62841238D01*
X33710619Y-62888857D01*
X33853476Y-62984095D01*
X34043952Y-63031714D01*
X34424904Y-63031714D01*
X34520142Y-62984095D01*
X34567761Y-62936476D01*
X34615380Y-62841238D01*
X34615380Y-62650761D01*
X34567761Y-62555523D01*
X34520142Y-62507904D01*
X34424904Y-62460285D01*
X34186809Y-62460285D01*
X34091571Y-62507904D01*
X34043952Y-62555523D01*
X33996333Y-62650761D01*
X33996333Y-62841238D01*
X34043952Y-62936476D01*
X34091571Y-62984095D01*
X34186809Y-63031714D01*
%TO.C,C18*%
X22979142Y-57888142D02*
X22931523Y-57935761D01*
X22788666Y-57983380D01*
X22693428Y-57983380D01*
X22550571Y-57935761D01*
X22455333Y-57840523D01*
X22407714Y-57745285D01*
X22360095Y-57554809D01*
X22360095Y-57411952D01*
X22407714Y-57221476D01*
X22455333Y-57126238D01*
X22550571Y-57031000D01*
X22693428Y-56983380D01*
X22788666Y-56983380D01*
X22931523Y-57031000D01*
X22979142Y-57078619D01*
X23931523Y-57983380D02*
X23360095Y-57983380D01*
X23645809Y-57983380D02*
X23645809Y-56983380D01*
X23550571Y-57126238D01*
X23455333Y-57221476D01*
X23360095Y-57269095D01*
X24502952Y-57411952D02*
X24407714Y-57364333D01*
X24360095Y-57316714D01*
X24312476Y-57221476D01*
X24312476Y-57173857D01*
X24360095Y-57078619D01*
X24407714Y-57031000D01*
X24502952Y-56983380D01*
X24693428Y-56983380D01*
X24788666Y-57031000D01*
X24836285Y-57078619D01*
X24883904Y-57173857D01*
X24883904Y-57221476D01*
X24836285Y-57316714D01*
X24788666Y-57364333D01*
X24693428Y-57411952D01*
X24502952Y-57411952D01*
X24407714Y-57459571D01*
X24360095Y-57507190D01*
X24312476Y-57602428D01*
X24312476Y-57792904D01*
X24360095Y-57888142D01*
X24407714Y-57935761D01*
X24502952Y-57983380D01*
X24693428Y-57983380D01*
X24788666Y-57935761D01*
X24836285Y-57888142D01*
X24883904Y-57792904D01*
X24883904Y-57602428D01*
X24836285Y-57507190D01*
X24788666Y-57459571D01*
X24693428Y-57411952D01*
%TO.C,R1*%
X36995380Y-65952666D02*
X36519190Y-66286000D01*
X36995380Y-66524095D02*
X35995380Y-66524095D01*
X35995380Y-66143142D01*
X36043000Y-66047904D01*
X36090619Y-66000285D01*
X36185857Y-65952666D01*
X36328714Y-65952666D01*
X36423952Y-66000285D01*
X36471571Y-66047904D01*
X36519190Y-66143142D01*
X36519190Y-66524095D01*
X36995380Y-65000285D02*
X36995380Y-65571714D01*
X36995380Y-65286000D02*
X35995380Y-65286000D01*
X36138238Y-65381238D01*
X36233476Y-65476476D01*
X36281095Y-65571714D01*
%TO.C,U8*%
X22479095Y-66000380D02*
X22479095Y-66809904D01*
X22526714Y-66905142D01*
X22574333Y-66952761D01*
X22669571Y-67000380D01*
X22860047Y-67000380D01*
X22955285Y-66952761D01*
X23002904Y-66905142D01*
X23050523Y-66809904D01*
X23050523Y-66000380D01*
X23669571Y-66428952D02*
X23574333Y-66381333D01*
X23526714Y-66333714D01*
X23479095Y-66238476D01*
X23479095Y-66190857D01*
X23526714Y-66095619D01*
X23574333Y-66048000D01*
X23669571Y-66000380D01*
X23860047Y-66000380D01*
X23955285Y-66048000D01*
X24002904Y-66095619D01*
X24050523Y-66190857D01*
X24050523Y-66238476D01*
X24002904Y-66333714D01*
X23955285Y-66381333D01*
X23860047Y-66428952D01*
X23669571Y-66428952D01*
X23574333Y-66476571D01*
X23526714Y-66524190D01*
X23479095Y-66619428D01*
X23479095Y-66809904D01*
X23526714Y-66905142D01*
X23574333Y-66952761D01*
X23669571Y-67000380D01*
X23860047Y-67000380D01*
X23955285Y-66952761D01*
X24002904Y-66905142D01*
X24050523Y-66809904D01*
X24050523Y-66619428D01*
X24002904Y-66524190D01*
X23955285Y-66476571D01*
X23860047Y-66428952D01*
%TO.C,J6*%
X37639666Y-46315380D02*
X37639666Y-47029666D01*
X37592047Y-47172523D01*
X37496809Y-47267761D01*
X37353952Y-47315380D01*
X37258714Y-47315380D01*
X38544428Y-46315380D02*
X38353952Y-46315380D01*
X38258714Y-46363000D01*
X38211095Y-46410619D01*
X38115857Y-46553476D01*
X38068238Y-46743952D01*
X38068238Y-47124904D01*
X38115857Y-47220142D01*
X38163476Y-47267761D01*
X38258714Y-47315380D01*
X38449190Y-47315380D01*
X38544428Y-47267761D01*
X38592047Y-47220142D01*
X38639666Y-47124904D01*
X38639666Y-46886809D01*
X38592047Y-46791571D01*
X38544428Y-46743952D01*
X38449190Y-46696333D01*
X38258714Y-46696333D01*
X38163476Y-46743952D01*
X38115857Y-46791571D01*
X38068238Y-46886809D01*
D11*
X36837047Y-43128380D02*
X36908476Y-43152190D01*
X37027523Y-43152190D01*
X37075142Y-43128380D01*
X37098952Y-43104571D01*
X37122761Y-43056952D01*
X37122761Y-43009333D01*
X37098952Y-42961714D01*
X37075142Y-42937904D01*
X37027523Y-42914095D01*
X36932285Y-42890285D01*
X36884666Y-42866476D01*
X36860857Y-42842666D01*
X36837047Y-42795047D01*
X36837047Y-42747428D01*
X36860857Y-42699809D01*
X36884666Y-42676000D01*
X36932285Y-42652190D01*
X37051333Y-42652190D01*
X37122761Y-42676000D01*
X37289428Y-42652190D02*
X37408476Y-43152190D01*
X37503714Y-42795047D01*
X37598952Y-43152190D01*
X37718000Y-42652190D01*
X38194190Y-43104571D02*
X38170380Y-43128380D01*
X38098952Y-43152190D01*
X38051333Y-43152190D01*
X37979904Y-43128380D01*
X37932285Y-43080761D01*
X37908476Y-43033142D01*
X37884666Y-42937904D01*
X37884666Y-42866476D01*
X37908476Y-42771238D01*
X37932285Y-42723619D01*
X37979904Y-42676000D01*
X38051333Y-42652190D01*
X38098952Y-42652190D01*
X38170380Y-42676000D01*
X38194190Y-42699809D01*
X38646571Y-43152190D02*
X38408476Y-43152190D01*
X38408476Y-42652190D01*
X38813238Y-43152190D02*
X38813238Y-42652190D01*
X39098952Y-43152190D02*
X38884666Y-42866476D01*
X39098952Y-42652190D02*
X38813238Y-42937904D01*
X39478476Y-43128380D02*
X39549904Y-43152190D01*
X39668952Y-43152190D01*
X39716571Y-43128380D01*
X39740380Y-43104571D01*
X39764190Y-43056952D01*
X39764190Y-43009333D01*
X39740380Y-42961714D01*
X39716571Y-42937904D01*
X39668952Y-42914095D01*
X39573714Y-42890285D01*
X39526095Y-42866476D01*
X39502285Y-42842666D01*
X39478476Y-42795047D01*
X39478476Y-42747428D01*
X39502285Y-42699809D01*
X39526095Y-42676000D01*
X39573714Y-42652190D01*
X39692761Y-42652190D01*
X39764190Y-42676000D01*
X39930857Y-42652190D02*
X40049904Y-43152190D01*
X40145142Y-42795047D01*
X40240380Y-43152190D01*
X40359428Y-42652190D01*
X40549904Y-43152190D02*
X40549904Y-42652190D01*
X40668952Y-42652190D01*
X40740380Y-42676000D01*
X40788000Y-42723619D01*
X40811809Y-42771238D01*
X40835619Y-42866476D01*
X40835619Y-42937904D01*
X40811809Y-43033142D01*
X40788000Y-43080761D01*
X40740380Y-43128380D01*
X40668952Y-43152190D01*
X40549904Y-43152190D01*
X41049904Y-43152190D02*
X41049904Y-42652190D01*
X41383238Y-42652190D02*
X41478476Y-42652190D01*
X41526095Y-42676000D01*
X41573714Y-42723619D01*
X41597523Y-42818857D01*
X41597523Y-42985523D01*
X41573714Y-43080761D01*
X41526095Y-43128380D01*
X41478476Y-43152190D01*
X41383238Y-43152190D01*
X41335619Y-43128380D01*
X41288000Y-43080761D01*
X41264190Y-42985523D01*
X41264190Y-42818857D01*
X41288000Y-42723619D01*
X41335619Y-42676000D01*
X41383238Y-42652190D01*
D10*
%TO.C,R7*%
X35250380Y-43219666D02*
X34774190Y-43553000D01*
X35250380Y-43791095D02*
X34250380Y-43791095D01*
X34250380Y-43410142D01*
X34298000Y-43314904D01*
X34345619Y-43267285D01*
X34440857Y-43219666D01*
X34583714Y-43219666D01*
X34678952Y-43267285D01*
X34726571Y-43314904D01*
X34774190Y-43410142D01*
X34774190Y-43791095D01*
X34250380Y-42886333D02*
X34250380Y-42219666D01*
X35250380Y-42648238D01*
%TO.C,U11*%
X28860904Y-65238380D02*
X28860904Y-66047904D01*
X28908523Y-66143142D01*
X28956142Y-66190761D01*
X29051380Y-66238380D01*
X29241857Y-66238380D01*
X29337095Y-66190761D01*
X29384714Y-66143142D01*
X29432333Y-66047904D01*
X29432333Y-65238380D01*
X30432333Y-66238380D02*
X29860904Y-66238380D01*
X30146619Y-66238380D02*
X30146619Y-65238380D01*
X30051380Y-65381238D01*
X29956142Y-65476476D01*
X29860904Y-65524095D01*
X31384714Y-66238380D02*
X30813285Y-66238380D01*
X31099000Y-66238380D02*
X31099000Y-65238380D01*
X31003761Y-65381238D01*
X30908523Y-65476476D01*
X30813285Y-65524095D01*
%TO.C,U7*%
X30226095Y-74890380D02*
X30226095Y-75699904D01*
X30273714Y-75795142D01*
X30321333Y-75842761D01*
X30416571Y-75890380D01*
X30607047Y-75890380D01*
X30702285Y-75842761D01*
X30749904Y-75795142D01*
X30797523Y-75699904D01*
X30797523Y-74890380D01*
X31178476Y-74890380D02*
X31845142Y-74890380D01*
X31416571Y-75890380D01*
%TO.C,U12*%
X34829904Y-23980380D02*
X34829904Y-24789904D01*
X34877523Y-24885142D01*
X34925142Y-24932761D01*
X35020380Y-24980380D01*
X35210857Y-24980380D01*
X35306095Y-24932761D01*
X35353714Y-24885142D01*
X35401333Y-24789904D01*
X35401333Y-23980380D01*
X36401333Y-24980380D02*
X35829904Y-24980380D01*
X36115619Y-24980380D02*
X36115619Y-23980380D01*
X36020380Y-24123238D01*
X35925142Y-24218476D01*
X35829904Y-24266095D01*
X36782285Y-24075619D02*
X36829904Y-24028000D01*
X36925142Y-23980380D01*
X37163238Y-23980380D01*
X37258476Y-24028000D01*
X37306095Y-24075619D01*
X37353714Y-24170857D01*
X37353714Y-24266095D01*
X37306095Y-24408952D01*
X36734666Y-24980380D01*
X37353714Y-24980380D01*
%TO.C,C1*%
X45172333Y-60555142D02*
X45124714Y-60602761D01*
X44981857Y-60650380D01*
X44886619Y-60650380D01*
X44743761Y-60602761D01*
X44648523Y-60507523D01*
X44600904Y-60412285D01*
X44553285Y-60221809D01*
X44553285Y-60078952D01*
X44600904Y-59888476D01*
X44648523Y-59793238D01*
X44743761Y-59698000D01*
X44886619Y-59650380D01*
X44981857Y-59650380D01*
X45124714Y-59698000D01*
X45172333Y-59745619D01*
X46124714Y-60650380D02*
X45553285Y-60650380D01*
X45839000Y-60650380D02*
X45839000Y-59650380D01*
X45743761Y-59793238D01*
X45648523Y-59888476D01*
X45553285Y-59936095D01*
%TO.C,Y1*%
X22836190Y-53308190D02*
X23312380Y-53308190D01*
X22312380Y-53641523D02*
X22836190Y-53308190D01*
X22312380Y-52974857D01*
X23312380Y-52117714D02*
X23312380Y-52689142D01*
X23312380Y-52403428D02*
X22312380Y-52403428D01*
X22455238Y-52498666D01*
X22550476Y-52593904D01*
X22598095Y-52689142D01*
%TO.C,C2*%
X43283142Y-57951666D02*
X43330761Y-57999285D01*
X43378380Y-58142142D01*
X43378380Y-58237380D01*
X43330761Y-58380238D01*
X43235523Y-58475476D01*
X43140285Y-58523095D01*
X42949809Y-58570714D01*
X42806952Y-58570714D01*
X42616476Y-58523095D01*
X42521238Y-58475476D01*
X42426000Y-58380238D01*
X42378380Y-58237380D01*
X42378380Y-58142142D01*
X42426000Y-57999285D01*
X42473619Y-57951666D01*
X42473619Y-57570714D02*
X42426000Y-57523095D01*
X42378380Y-57427857D01*
X42378380Y-57189761D01*
X42426000Y-57094523D01*
X42473619Y-57046904D01*
X42568857Y-56999285D01*
X42664095Y-56999285D01*
X42806952Y-57046904D01*
X43378380Y-57618333D01*
X43378380Y-56999285D01*
%TO.C,JP2*%
X43108666Y-73620380D02*
X43108666Y-74334666D01*
X43061047Y-74477523D01*
X42965809Y-74572761D01*
X42822952Y-74620380D01*
X42727714Y-74620380D01*
X43584857Y-74620380D02*
X43584857Y-73620380D01*
X43965809Y-73620380D01*
X44061047Y-73668000D01*
X44108666Y-73715619D01*
X44156285Y-73810857D01*
X44156285Y-73953714D01*
X44108666Y-74048952D01*
X44061047Y-74096571D01*
X43965809Y-74144190D01*
X43584857Y-74144190D01*
X44537238Y-73715619D02*
X44584857Y-73668000D01*
X44680095Y-73620380D01*
X44918190Y-73620380D01*
X45013428Y-73668000D01*
X45061047Y-73715619D01*
X45108666Y-73810857D01*
X45108666Y-73906095D01*
X45061047Y-74048952D01*
X44489619Y-74620380D01*
X45108666Y-74620380D01*
%TO.C,U5*%
X33909095Y-81875380D02*
X33909095Y-82684904D01*
X33956714Y-82780142D01*
X34004333Y-82827761D01*
X34099571Y-82875380D01*
X34290047Y-82875380D01*
X34385285Y-82827761D01*
X34432904Y-82780142D01*
X34480523Y-82684904D01*
X34480523Y-81875380D01*
X35432904Y-81875380D02*
X34956714Y-81875380D01*
X34909095Y-82351571D01*
X34956714Y-82303952D01*
X35051952Y-82256333D01*
X35290047Y-82256333D01*
X35385285Y-82303952D01*
X35432904Y-82351571D01*
X35480523Y-82446809D01*
X35480523Y-82684904D01*
X35432904Y-82780142D01*
X35385285Y-82827761D01*
X35290047Y-82875380D01*
X35051952Y-82875380D01*
X34956714Y-82827761D01*
X34909095Y-82780142D01*
D12*
%TO.C,C24*%
X47110714Y-68357714D02*
X47072619Y-68395809D01*
X46958333Y-68433904D01*
X46882142Y-68433904D01*
X46767857Y-68395809D01*
X46691666Y-68319619D01*
X46653571Y-68243428D01*
X46615476Y-68091047D01*
X46615476Y-67976761D01*
X46653571Y-67824380D01*
X46691666Y-67748190D01*
X46767857Y-67672000D01*
X46882142Y-67633904D01*
X46958333Y-67633904D01*
X47072619Y-67672000D01*
X47110714Y-67710095D01*
X47415476Y-67710095D02*
X47453571Y-67672000D01*
X47529761Y-67633904D01*
X47720238Y-67633904D01*
X47796428Y-67672000D01*
X47834523Y-67710095D01*
X47872619Y-67786285D01*
X47872619Y-67862476D01*
X47834523Y-67976761D01*
X47377380Y-68433904D01*
X47872619Y-68433904D01*
X48558333Y-67900571D02*
X48558333Y-68433904D01*
X48367857Y-67595809D02*
X48177380Y-68167238D01*
X48672619Y-68167238D01*
D10*
%TO.C,R4*%
X44410333Y-72588380D02*
X44077000Y-72112190D01*
X43838904Y-72588380D02*
X43838904Y-71588380D01*
X44219857Y-71588380D01*
X44315095Y-71636000D01*
X44362714Y-71683619D01*
X44410333Y-71778857D01*
X44410333Y-71921714D01*
X44362714Y-72016952D01*
X44315095Y-72064571D01*
X44219857Y-72112190D01*
X43838904Y-72112190D01*
X45267476Y-71921714D02*
X45267476Y-72588380D01*
X45029380Y-71540761D02*
X44791285Y-72255047D01*
X45410333Y-72255047D01*
%TO.C,C21*%
X42283142Y-62460142D02*
X42235523Y-62507761D01*
X42092666Y-62555380D01*
X41997428Y-62555380D01*
X41854571Y-62507761D01*
X41759333Y-62412523D01*
X41711714Y-62317285D01*
X41664095Y-62126809D01*
X41664095Y-61983952D01*
X41711714Y-61793476D01*
X41759333Y-61698238D01*
X41854571Y-61603000D01*
X41997428Y-61555380D01*
X42092666Y-61555380D01*
X42235523Y-61603000D01*
X42283142Y-61650619D01*
X42664095Y-61650619D02*
X42711714Y-61603000D01*
X42806952Y-61555380D01*
X43045047Y-61555380D01*
X43140285Y-61603000D01*
X43187904Y-61650619D01*
X43235523Y-61745857D01*
X43235523Y-61841095D01*
X43187904Y-61983952D01*
X42616476Y-62555380D01*
X43235523Y-62555380D01*
X44187904Y-62555380D02*
X43616476Y-62555380D01*
X43902190Y-62555380D02*
X43902190Y-61555380D01*
X43806952Y-61698238D01*
X43711714Y-61793476D01*
X43616476Y-61841095D01*
%TO.C,C12*%
X24630142Y-63857142D02*
X24582523Y-63904761D01*
X24439666Y-63952380D01*
X24344428Y-63952380D01*
X24201571Y-63904761D01*
X24106333Y-63809523D01*
X24058714Y-63714285D01*
X24011095Y-63523809D01*
X24011095Y-63380952D01*
X24058714Y-63190476D01*
X24106333Y-63095238D01*
X24201571Y-63000000D01*
X24344428Y-62952380D01*
X24439666Y-62952380D01*
X24582523Y-63000000D01*
X24630142Y-63047619D01*
X25582523Y-63952380D02*
X25011095Y-63952380D01*
X25296809Y-63952380D02*
X25296809Y-62952380D01*
X25201571Y-63095238D01*
X25106333Y-63190476D01*
X25011095Y-63238095D01*
X25963476Y-63047619D02*
X26011095Y-63000000D01*
X26106333Y-62952380D01*
X26344428Y-62952380D01*
X26439666Y-63000000D01*
X26487285Y-63047619D01*
X26534904Y-63142857D01*
X26534904Y-63238095D01*
X26487285Y-63380952D01*
X25915857Y-63952380D01*
X26534904Y-63952380D01*
D12*
%TO.C,C23*%
X43935714Y-68357714D02*
X43897619Y-68395809D01*
X43783333Y-68433904D01*
X43707142Y-68433904D01*
X43592857Y-68395809D01*
X43516666Y-68319619D01*
X43478571Y-68243428D01*
X43440476Y-68091047D01*
X43440476Y-67976761D01*
X43478571Y-67824380D01*
X43516666Y-67748190D01*
X43592857Y-67672000D01*
X43707142Y-67633904D01*
X43783333Y-67633904D01*
X43897619Y-67672000D01*
X43935714Y-67710095D01*
X44240476Y-67710095D02*
X44278571Y-67672000D01*
X44354761Y-67633904D01*
X44545238Y-67633904D01*
X44621428Y-67672000D01*
X44659523Y-67710095D01*
X44697619Y-67786285D01*
X44697619Y-67862476D01*
X44659523Y-67976761D01*
X44202380Y-68433904D01*
X44697619Y-68433904D01*
X44964285Y-67633904D02*
X45459523Y-67633904D01*
X45192857Y-67938666D01*
X45307142Y-67938666D01*
X45383333Y-67976761D01*
X45421428Y-68014857D01*
X45459523Y-68091047D01*
X45459523Y-68281523D01*
X45421428Y-68357714D01*
X45383333Y-68395809D01*
X45307142Y-68433904D01*
X45078571Y-68433904D01*
X45002380Y-68395809D01*
X44964285Y-68357714D01*
D10*
%TO.C,C19*%
X26392142Y-35186857D02*
X26439761Y-35234476D01*
X26487380Y-35377333D01*
X26487380Y-35472571D01*
X26439761Y-35615428D01*
X26344523Y-35710666D01*
X26249285Y-35758285D01*
X26058809Y-35805904D01*
X25915952Y-35805904D01*
X25725476Y-35758285D01*
X25630238Y-35710666D01*
X25535000Y-35615428D01*
X25487380Y-35472571D01*
X25487380Y-35377333D01*
X25535000Y-35234476D01*
X25582619Y-35186857D01*
X26487380Y-34234476D02*
X26487380Y-34805904D01*
X26487380Y-34520190D02*
X25487380Y-34520190D01*
X25630238Y-34615428D01*
X25725476Y-34710666D01*
X25773095Y-34805904D01*
X26487380Y-33758285D02*
X26487380Y-33567809D01*
X26439761Y-33472571D01*
X26392142Y-33424952D01*
X26249285Y-33329714D01*
X26058809Y-33282095D01*
X25677857Y-33282095D01*
X25582619Y-33329714D01*
X25535000Y-33377333D01*
X25487380Y-33472571D01*
X25487380Y-33663047D01*
X25535000Y-33758285D01*
X25582619Y-33805904D01*
X25677857Y-33853523D01*
X25915952Y-33853523D01*
X26011190Y-33805904D01*
X26058809Y-33758285D01*
X26106428Y-33663047D01*
X26106428Y-33472571D01*
X26058809Y-33377333D01*
X26011190Y-33329714D01*
X25915952Y-33282095D01*
%TO.C,C10*%
X22979142Y-56237142D02*
X22931523Y-56284761D01*
X22788666Y-56332380D01*
X22693428Y-56332380D01*
X22550571Y-56284761D01*
X22455333Y-56189523D01*
X22407714Y-56094285D01*
X22360095Y-55903809D01*
X22360095Y-55760952D01*
X22407714Y-55570476D01*
X22455333Y-55475238D01*
X22550571Y-55380000D01*
X22693428Y-55332380D01*
X22788666Y-55332380D01*
X22931523Y-55380000D01*
X22979142Y-55427619D01*
X23931523Y-56332380D02*
X23360095Y-56332380D01*
X23645809Y-56332380D02*
X23645809Y-55332380D01*
X23550571Y-55475238D01*
X23455333Y-55570476D01*
X23360095Y-55618095D01*
X24550571Y-55332380D02*
X24645809Y-55332380D01*
X24741047Y-55380000D01*
X24788666Y-55427619D01*
X24836285Y-55522857D01*
X24883904Y-55713333D01*
X24883904Y-55951428D01*
X24836285Y-56141904D01*
X24788666Y-56237142D01*
X24741047Y-56284761D01*
X24645809Y-56332380D01*
X24550571Y-56332380D01*
X24455333Y-56284761D01*
X24407714Y-56237142D01*
X24360095Y-56141904D01*
X24312476Y-55951428D01*
X24312476Y-55713333D01*
X24360095Y-55522857D01*
X24407714Y-55427619D01*
X24455333Y-55380000D01*
X24550571Y-55332380D01*
%TO.C,D1*%
X26741380Y-85135404D02*
X25741380Y-85135404D01*
X25741380Y-84897309D01*
X25789000Y-84754452D01*
X25884238Y-84659214D01*
X25979476Y-84611595D01*
X26169952Y-84563976D01*
X26312809Y-84563976D01*
X26503285Y-84611595D01*
X26598523Y-84659214D01*
X26693761Y-84754452D01*
X26741380Y-84897309D01*
X26741380Y-85135404D01*
X26741380Y-83611595D02*
X26741380Y-84183023D01*
X26741380Y-83897309D02*
X25741380Y-83897309D01*
X25884238Y-83992547D01*
X25979476Y-84087785D01*
X26027095Y-84183023D01*
%TO.C,U4*%
X43434095Y-55459380D02*
X43434095Y-56268904D01*
X43481714Y-56364142D01*
X43529333Y-56411761D01*
X43624571Y-56459380D01*
X43815047Y-56459380D01*
X43910285Y-56411761D01*
X43957904Y-56364142D01*
X44005523Y-56268904D01*
X44005523Y-55459380D01*
X44910285Y-55792714D02*
X44910285Y-56459380D01*
X44672190Y-55411761D02*
X44434095Y-56126047D01*
X45053142Y-56126047D01*
D12*
%TO.C,C16*%
X45713714Y-78771714D02*
X45675619Y-78809809D01*
X45561333Y-78847904D01*
X45485142Y-78847904D01*
X45370857Y-78809809D01*
X45294666Y-78733619D01*
X45256571Y-78657428D01*
X45218476Y-78505047D01*
X45218476Y-78390761D01*
X45256571Y-78238380D01*
X45294666Y-78162190D01*
X45370857Y-78086000D01*
X45485142Y-78047904D01*
X45561333Y-78047904D01*
X45675619Y-78086000D01*
X45713714Y-78124095D01*
X46475619Y-78847904D02*
X46018476Y-78847904D01*
X46247047Y-78847904D02*
X46247047Y-78047904D01*
X46170857Y-78162190D01*
X46094666Y-78238380D01*
X46018476Y-78276476D01*
X47161333Y-78047904D02*
X47008952Y-78047904D01*
X46932761Y-78086000D01*
X46894666Y-78124095D01*
X46818476Y-78238380D01*
X46780380Y-78390761D01*
X46780380Y-78695523D01*
X46818476Y-78771714D01*
X46856571Y-78809809D01*
X46932761Y-78847904D01*
X47085142Y-78847904D01*
X47161333Y-78809809D01*
X47199428Y-78771714D01*
X47237523Y-78695523D01*
X47237523Y-78505047D01*
X47199428Y-78428857D01*
X47161333Y-78390761D01*
X47085142Y-78352666D01*
X46932761Y-78352666D01*
X46856571Y-78390761D01*
X46818476Y-78428857D01*
X46780380Y-78505047D01*
D10*
%TO.C,C20*%
X26425142Y-39250857D02*
X26472761Y-39298476D01*
X26520380Y-39441333D01*
X26520380Y-39536571D01*
X26472761Y-39679428D01*
X26377523Y-39774666D01*
X26282285Y-39822285D01*
X26091809Y-39869904D01*
X25948952Y-39869904D01*
X25758476Y-39822285D01*
X25663238Y-39774666D01*
X25568000Y-39679428D01*
X25520380Y-39536571D01*
X25520380Y-39441333D01*
X25568000Y-39298476D01*
X25615619Y-39250857D01*
X25615619Y-38869904D02*
X25568000Y-38822285D01*
X25520380Y-38727047D01*
X25520380Y-38488952D01*
X25568000Y-38393714D01*
X25615619Y-38346095D01*
X25710857Y-38298476D01*
X25806095Y-38298476D01*
X25948952Y-38346095D01*
X26520380Y-38917523D01*
X26520380Y-38298476D01*
X25520380Y-37679428D02*
X25520380Y-37584190D01*
X25568000Y-37488952D01*
X25615619Y-37441333D01*
X25710857Y-37393714D01*
X25901333Y-37346095D01*
X26139428Y-37346095D01*
X26329904Y-37393714D01*
X26425142Y-37441333D01*
X26472761Y-37488952D01*
X26520380Y-37584190D01*
X26520380Y-37679428D01*
X26472761Y-37774666D01*
X26425142Y-37822285D01*
X26329904Y-37869904D01*
X26139428Y-37917523D01*
X25901333Y-37917523D01*
X25710857Y-37869904D01*
X25615619Y-37822285D01*
X25568000Y-37774666D01*
X25520380Y-37679428D01*
%TO.C,C8*%
X40743142Y-48172666D02*
X40790761Y-48220285D01*
X40838380Y-48363142D01*
X40838380Y-48458380D01*
X40790761Y-48601238D01*
X40695523Y-48696476D01*
X40600285Y-48744095D01*
X40409809Y-48791714D01*
X40266952Y-48791714D01*
X40076476Y-48744095D01*
X39981238Y-48696476D01*
X39886000Y-48601238D01*
X39838380Y-48458380D01*
X39838380Y-48363142D01*
X39886000Y-48220285D01*
X39933619Y-48172666D01*
X40266952Y-47601238D02*
X40219333Y-47696476D01*
X40171714Y-47744095D01*
X40076476Y-47791714D01*
X40028857Y-47791714D01*
X39933619Y-47744095D01*
X39886000Y-47696476D01*
X39838380Y-47601238D01*
X39838380Y-47410761D01*
X39886000Y-47315523D01*
X39933619Y-47267904D01*
X40028857Y-47220285D01*
X40076476Y-47220285D01*
X40171714Y-47267904D01*
X40219333Y-47315523D01*
X40266952Y-47410761D01*
X40266952Y-47601238D01*
X40314571Y-47696476D01*
X40362190Y-47744095D01*
X40457428Y-47791714D01*
X40647904Y-47791714D01*
X40743142Y-47744095D01*
X40790761Y-47696476D01*
X40838380Y-47601238D01*
X40838380Y-47410761D01*
X40790761Y-47315523D01*
X40743142Y-47267904D01*
X40647904Y-47220285D01*
X40457428Y-47220285D01*
X40362190Y-47267904D01*
X40314571Y-47315523D01*
X40266952Y-47410761D01*
%TO.C,R5*%
X46774380Y-32043666D02*
X46298190Y-32377000D01*
X46774380Y-32615095D02*
X45774380Y-32615095D01*
X45774380Y-32234142D01*
X45822000Y-32138904D01*
X45869619Y-32091285D01*
X45964857Y-32043666D01*
X46107714Y-32043666D01*
X46202952Y-32091285D01*
X46250571Y-32138904D01*
X46298190Y-32234142D01*
X46298190Y-32615095D01*
X45774380Y-31138904D02*
X45774380Y-31615095D01*
X46250571Y-31662714D01*
X46202952Y-31615095D01*
X46155333Y-31519857D01*
X46155333Y-31281761D01*
X46202952Y-31186523D01*
X46250571Y-31138904D01*
X46345809Y-31091285D01*
X46583904Y-31091285D01*
X46679142Y-31138904D01*
X46726761Y-31186523D01*
X46774380Y-31281761D01*
X46774380Y-31519857D01*
X46726761Y-31615095D01*
X46679142Y-31662714D01*
%TO.C,U6*%
X30226095Y-83653380D02*
X30226095Y-84462904D01*
X30273714Y-84558142D01*
X30321333Y-84605761D01*
X30416571Y-84653380D01*
X30607047Y-84653380D01*
X30702285Y-84605761D01*
X30749904Y-84558142D01*
X30797523Y-84462904D01*
X30797523Y-83653380D01*
X31702285Y-83653380D02*
X31511809Y-83653380D01*
X31416571Y-83701000D01*
X31368952Y-83748619D01*
X31273714Y-83891476D01*
X31226095Y-84081952D01*
X31226095Y-84462904D01*
X31273714Y-84558142D01*
X31321333Y-84605761D01*
X31416571Y-84653380D01*
X31607047Y-84653380D01*
X31702285Y-84605761D01*
X31749904Y-84558142D01*
X31797523Y-84462904D01*
X31797523Y-84224809D01*
X31749904Y-84129571D01*
X31702285Y-84081952D01*
X31607047Y-84034333D01*
X31416571Y-84034333D01*
X31321333Y-84081952D01*
X31273714Y-84129571D01*
X31226095Y-84224809D01*
%TO.C,C3*%
X24233142Y-83986666D02*
X24280761Y-84034285D01*
X24328380Y-84177142D01*
X24328380Y-84272380D01*
X24280761Y-84415238D01*
X24185523Y-84510476D01*
X24090285Y-84558095D01*
X23899809Y-84605714D01*
X23756952Y-84605714D01*
X23566476Y-84558095D01*
X23471238Y-84510476D01*
X23376000Y-84415238D01*
X23328380Y-84272380D01*
X23328380Y-84177142D01*
X23376000Y-84034285D01*
X23423619Y-83986666D01*
X23328380Y-83653333D02*
X23328380Y-83034285D01*
X23709333Y-83367619D01*
X23709333Y-83224761D01*
X23756952Y-83129523D01*
X23804571Y-83081904D01*
X23899809Y-83034285D01*
X24137904Y-83034285D01*
X24233142Y-83081904D01*
X24280761Y-83129523D01*
X24328380Y-83224761D01*
X24328380Y-83510476D01*
X24280761Y-83605714D01*
X24233142Y-83653333D01*
%TO.C,U1*%
X27813095Y-48855380D02*
X27813095Y-49664904D01*
X27860714Y-49760142D01*
X27908333Y-49807761D01*
X28003571Y-49855380D01*
X28194047Y-49855380D01*
X28289285Y-49807761D01*
X28336904Y-49760142D01*
X28384523Y-49664904D01*
X28384523Y-48855380D01*
X29384523Y-49855380D02*
X28813095Y-49855380D01*
X29098809Y-49855380D02*
X29098809Y-48855380D01*
X29003571Y-48998238D01*
X28908333Y-49093476D01*
X28813095Y-49141095D01*
%TO.C,R2*%
X41506380Y-65952666D02*
X41030190Y-66286000D01*
X41506380Y-66524095D02*
X40506380Y-66524095D01*
X40506380Y-66143142D01*
X40554000Y-66047904D01*
X40601619Y-66000285D01*
X40696857Y-65952666D01*
X40839714Y-65952666D01*
X40934952Y-66000285D01*
X40982571Y-66047904D01*
X41030190Y-66143142D01*
X41030190Y-66524095D01*
X40601619Y-65571714D02*
X40554000Y-65524095D01*
X40506380Y-65428857D01*
X40506380Y-65190761D01*
X40554000Y-65095523D01*
X40601619Y-65047904D01*
X40696857Y-65000285D01*
X40792095Y-65000285D01*
X40934952Y-65047904D01*
X41506380Y-65619333D01*
X41506380Y-65000285D01*
%TO.C,U2*%
X48601380Y-46862904D02*
X49410904Y-46862904D01*
X49506142Y-46815285D01*
X49553761Y-46767666D01*
X49601380Y-46672428D01*
X49601380Y-46481952D01*
X49553761Y-46386714D01*
X49506142Y-46339095D01*
X49410904Y-46291476D01*
X48601380Y-46291476D01*
X48696619Y-45862904D02*
X48649000Y-45815285D01*
X48601380Y-45720047D01*
X48601380Y-45481952D01*
X48649000Y-45386714D01*
X48696619Y-45339095D01*
X48791857Y-45291476D01*
X48887095Y-45291476D01*
X49029952Y-45339095D01*
X49601380Y-45910523D01*
X49601380Y-45291476D01*
D11*
%TO.C,C17*%
X23455285Y-50423714D02*
X23483857Y-50452285D01*
X23512428Y-50538000D01*
X23512428Y-50595142D01*
X23483857Y-50680857D01*
X23426714Y-50738000D01*
X23369571Y-50766571D01*
X23255285Y-50795142D01*
X23169571Y-50795142D01*
X23055285Y-50766571D01*
X22998142Y-50738000D01*
X22941000Y-50680857D01*
X22912428Y-50595142D01*
X22912428Y-50538000D01*
X22941000Y-50452285D01*
X22969571Y-50423714D01*
X23512428Y-49852285D02*
X23512428Y-50195142D01*
X23512428Y-50023714D02*
X22912428Y-50023714D01*
X22998142Y-50080857D01*
X23055285Y-50138000D01*
X23083857Y-50195142D01*
X22912428Y-49652285D02*
X22912428Y-49252285D01*
X23512428Y-49509428D01*
D10*
%TO.C,R8*%
X33726380Y-43219666D02*
X33250190Y-43553000D01*
X33726380Y-43791095D02*
X32726380Y-43791095D01*
X32726380Y-43410142D01*
X32774000Y-43314904D01*
X32821619Y-43267285D01*
X32916857Y-43219666D01*
X33059714Y-43219666D01*
X33154952Y-43267285D01*
X33202571Y-43314904D01*
X33250190Y-43410142D01*
X33250190Y-43791095D01*
X33154952Y-42648238D02*
X33107333Y-42743476D01*
X33059714Y-42791095D01*
X32964476Y-42838714D01*
X32916857Y-42838714D01*
X32821619Y-42791095D01*
X32774000Y-42743476D01*
X32726380Y-42648238D01*
X32726380Y-42457761D01*
X32774000Y-42362523D01*
X32821619Y-42314904D01*
X32916857Y-42267285D01*
X32964476Y-42267285D01*
X33059714Y-42314904D01*
X33107333Y-42362523D01*
X33154952Y-42457761D01*
X33154952Y-42648238D01*
X33202571Y-42743476D01*
X33250190Y-42791095D01*
X33345428Y-42838714D01*
X33535904Y-42838714D01*
X33631142Y-42791095D01*
X33678761Y-42743476D01*
X33726380Y-42648238D01*
X33726380Y-42457761D01*
X33678761Y-42362523D01*
X33631142Y-42314904D01*
X33535904Y-42267285D01*
X33345428Y-42267285D01*
X33250190Y-42314904D01*
X33202571Y-42362523D01*
X33154952Y-42457761D01*
%TO.C,JP1*%
X27233666Y-42505380D02*
X27233666Y-43219666D01*
X27186047Y-43362523D01*
X27090809Y-43457761D01*
X26947952Y-43505380D01*
X26852714Y-43505380D01*
X27709857Y-43505380D02*
X27709857Y-42505380D01*
X28090809Y-42505380D01*
X28186047Y-42553000D01*
X28233666Y-42600619D01*
X28281285Y-42695857D01*
X28281285Y-42838714D01*
X28233666Y-42933952D01*
X28186047Y-42981571D01*
X28090809Y-43029190D01*
X27709857Y-43029190D01*
X29233666Y-43505380D02*
X28662238Y-43505380D01*
X28947952Y-43505380D02*
X28947952Y-42505380D01*
X28852714Y-42648238D01*
X28757476Y-42743476D01*
X28662238Y-42791095D01*
%TO.C,C5*%
X27535142Y-48045666D02*
X27582761Y-48093285D01*
X27630380Y-48236142D01*
X27630380Y-48331380D01*
X27582761Y-48474238D01*
X27487523Y-48569476D01*
X27392285Y-48617095D01*
X27201809Y-48664714D01*
X27058952Y-48664714D01*
X26868476Y-48617095D01*
X26773238Y-48569476D01*
X26678000Y-48474238D01*
X26630380Y-48331380D01*
X26630380Y-48236142D01*
X26678000Y-48093285D01*
X26725619Y-48045666D01*
X26630380Y-47140904D02*
X26630380Y-47617095D01*
X27106571Y-47664714D01*
X27058952Y-47617095D01*
X27011333Y-47521857D01*
X27011333Y-47283761D01*
X27058952Y-47188523D01*
X27106571Y-47140904D01*
X27201809Y-47093285D01*
X27439904Y-47093285D01*
X27535142Y-47140904D01*
X27582761Y-47188523D01*
X27630380Y-47283761D01*
X27630380Y-47521857D01*
X27582761Y-47617095D01*
X27535142Y-47664714D01*
D13*
%TO.C,U9*%
X44446807Y-62048456D02*
G75*
G03*
X44446807Y-62048456I-100000J0D01*
G01*
D14*
%TO.C,J3*%
X32497000Y-92101000D02*
X32497000Y-93101000D01*
X32497000Y-93101000D02*
X39997000Y-93101000D01*
X39997000Y-92101000D02*
X39997000Y-93101000D01*
D13*
%TO.C,U3*%
X42262598Y-68869527D02*
G75*
G03*
X42262598Y-68869527I-90370J0D01*
G01*
D12*
X33346000Y-69160000D02*
X42346000Y-69160000D01*
X42346000Y-69160000D02*
X42346000Y-78160000D01*
X42346000Y-78160000D02*
X33346000Y-78160000D01*
X33346000Y-78160000D02*
X33346000Y-69160000D01*
%TO.C,R9*%
X46340500Y-41164742D02*
X46340500Y-41639258D01*
X47385500Y-41164742D02*
X47385500Y-41639258D01*
%TO.C,D4*%
X29696843Y-44185198D02*
G75*
G03*
X29696843Y-44185198I-38681J0D01*
G01*
X30736000Y-45606580D02*
X30736000Y-45325420D01*
X29716000Y-45606580D02*
X29716000Y-45325420D01*
%TO.C,D3*%
X48456671Y-70617240D02*
G75*
G03*
X48456671Y-70617240I-51617J0D01*
G01*
X46849420Y-70102000D02*
X47130580Y-70102000D01*
X46849420Y-71122000D02*
X47130580Y-71122000D01*
%TO.C,C7*%
X39114000Y-62470420D02*
X39114000Y-62751580D01*
X40134000Y-62470420D02*
X40134000Y-62751580D01*
%TO.C,R6*%
X29830500Y-63008742D02*
X29830500Y-63483258D01*
X30875500Y-63008742D02*
X30875500Y-63483258D01*
%TO.C,C15*%
X25667580Y-73916000D02*
X25386420Y-73916000D01*
X25667580Y-72896000D02*
X25386420Y-72896000D01*
D10*
%TO.C,D2*%
X30224314Y-69620000D02*
X30224314Y-72620000D01*
X32574314Y-72620000D02*
X32574314Y-69620000D01*
X33021687Y-72467669D02*
G75*
G03*
X33021687Y-72467669I-72051J0D01*
G01*
D12*
%TO.C,J1*%
X23562000Y-45969000D02*
X23562000Y-48569000D01*
X26222000Y-45969000D02*
X26222000Y-48569000D01*
X23562000Y-45969000D02*
X26222000Y-45969000D01*
X23562000Y-48569000D02*
X26222000Y-48569000D01*
X23562000Y-44699000D02*
X23562000Y-43369000D01*
X23562000Y-43369000D02*
X24892000Y-43369000D01*
%TO.C,R3*%
X32272500Y-45703258D02*
X32272500Y-45228742D01*
X31227500Y-45703258D02*
X31227500Y-45228742D01*
%TO.C,C22*%
X47130580Y-68578000D02*
X46849420Y-68578000D01*
X47130580Y-69598000D02*
X46849420Y-69598000D01*
%TO.C,C4*%
X24128000Y-76467580D02*
X24128000Y-76186420D01*
X25148000Y-76467580D02*
X25148000Y-76186420D01*
%TO.C,C9*%
X38483000Y-62470420D02*
X38483000Y-62751580D01*
X37463000Y-62470420D02*
X37463000Y-62751580D01*
%TO.C,J2*%
X39524000Y-84690000D02*
X39524000Y-85610000D01*
X41124000Y-85610000D02*
X41124000Y-84690000D01*
X43484000Y-83850000D02*
X43484000Y-84850000D01*
X45084000Y-80250000D02*
X45084000Y-81250000D01*
X45084000Y-84350000D02*
X47344000Y-84350000D01*
X41124000Y-84410000D02*
X39909000Y-84410000D01*
X42984000Y-83050000D02*
X42984000Y-82050000D01*
X39524000Y-79490000D02*
X39524000Y-80410000D01*
X45084000Y-83850000D02*
X47344000Y-83850000D01*
X41124000Y-80410000D02*
X41124000Y-80690000D01*
X47344000Y-85610000D02*
X47344000Y-79490000D01*
X43484000Y-80250000D02*
X45084000Y-80250000D01*
X47344000Y-83050000D02*
X42984000Y-83050000D01*
X39524000Y-85610000D02*
X47344000Y-85610000D01*
X47344000Y-79490000D02*
X39524000Y-79490000D01*
X41124000Y-79490000D02*
X41124000Y-80410000D01*
X41124000Y-84690000D02*
X39524000Y-84690000D01*
X45084000Y-81250000D02*
X43484000Y-81250000D01*
X45084000Y-84850000D02*
X45084000Y-83850000D01*
X41124000Y-84410000D02*
X41124000Y-84690000D01*
X43484000Y-81250000D02*
X43484000Y-80250000D01*
X42984000Y-82050000D02*
X47344000Y-82050000D01*
X43484000Y-84850000D02*
X45084000Y-84850000D01*
X45084000Y-83850000D02*
X43484000Y-83850000D01*
X39524000Y-80410000D02*
X41124000Y-80410000D01*
%TO.C,FB1*%
X28675000Y-60859936D02*
X28675000Y-61314064D01*
X27205000Y-60859936D02*
X27205000Y-61314064D01*
%TO.C,C14*%
X25640420Y-65403000D02*
X25921580Y-65403000D01*
X25640420Y-66423000D02*
X25921580Y-66423000D01*
%TO.C,C11*%
X25413580Y-59434000D02*
X25132420Y-59434000D01*
X25413580Y-60454000D02*
X25132420Y-60454000D01*
%TO.C,C13*%
X48258000Y-52564420D02*
X48258000Y-52845580D01*
X49278000Y-52564420D02*
X49278000Y-52845580D01*
%TO.C,C6*%
X33403000Y-63105420D02*
X33403000Y-63386580D01*
X32383000Y-63105420D02*
X32383000Y-63386580D01*
%TO.C,C18*%
X26275420Y-55370000D02*
X26556580Y-55370000D01*
X26275420Y-56390000D02*
X26556580Y-56390000D01*
%TO.C,R1*%
X38495500Y-66023258D02*
X38495500Y-65548742D01*
X37450500Y-66023258D02*
X37450500Y-65548742D01*
D11*
%TO.C,U8*%
X28285000Y-68063500D02*
X28285000Y-69063500D01*
X23785000Y-68063500D02*
X24120000Y-68063500D01*
X28035000Y-71063500D02*
X28285000Y-71063500D01*
X23785000Y-70063500D02*
X23785000Y-70063500D01*
X23785000Y-69063500D02*
X23785000Y-68063500D01*
X23785000Y-71063500D02*
X23785000Y-70063500D01*
X28285000Y-71063500D02*
X28285000Y-70063500D01*
X27950000Y-68063500D02*
X28285000Y-68063500D01*
X24120000Y-71063500D02*
X23785000Y-71063500D01*
D13*
X24077774Y-67507122D02*
G75*
G03*
X24077774Y-67507122I-94249J0D01*
G01*
D12*
%TO.C,J6*%
X41838000Y-46034000D02*
X41838000Y-43374000D01*
X39238000Y-46034000D02*
X41838000Y-46034000D01*
X37968000Y-46034000D02*
X36638000Y-46034000D01*
X39238000Y-46034000D02*
X39238000Y-43374000D01*
X36638000Y-46034000D02*
X36638000Y-44704000D01*
X39238000Y-43374000D02*
X41838000Y-43374000D01*
%TO.C,R7*%
X34275500Y-45703258D02*
X34275500Y-45228742D01*
X35320500Y-45703258D02*
X35320500Y-45228742D01*
D15*
%TO.C,U11*%
X32715200Y-66291739D02*
X32715200Y-67058261D01*
X34671000Y-68300600D02*
X34671000Y-67291740D01*
X34671000Y-66058260D02*
X34671000Y-65049400D01*
X34671000Y-65049400D02*
X32715200Y-65049400D01*
X32715200Y-68300600D02*
X34671000Y-68300600D01*
X32225568Y-64632819D02*
G75*
G03*
X32225568Y-64632819I-78372J0D01*
G01*
D14*
%TO.C,U7*%
X28684000Y-74635000D02*
X27084000Y-74635000D01*
X28684000Y-77765000D02*
X27084000Y-77765000D01*
D13*
X30484000Y-77150000D02*
G75*
G03*
X30484000Y-77150000I-100000J0D01*
G01*
D12*
%TO.C,U12*%
X44068000Y-41638000D02*
X28068000Y-41638000D01*
X27958000Y-25418000D02*
X27958000Y-27028000D01*
X44068000Y-25418000D02*
X27958000Y-25418000D01*
%TO.C,C1*%
X47611420Y-59688000D02*
X47892580Y-59688000D01*
X47611420Y-60708000D02*
X47892580Y-60708000D01*
%TO.C,Y1*%
X23577000Y-51232000D02*
X23577000Y-51832000D01*
X27477000Y-53832000D02*
X27477000Y-54432000D01*
X24177000Y-51232000D02*
X23577000Y-51232000D01*
X27477000Y-54432000D02*
X26877000Y-54432000D01*
D10*
X26795894Y-51096717D02*
G75*
G03*
X26795894Y-51096717I-66655J0D01*
G01*
D12*
%TO.C,C2*%
X43686000Y-57925580D02*
X43686000Y-57644420D01*
X44706000Y-57925580D02*
X44706000Y-57644420D01*
%TO.C,JP2*%
X45602641Y-73208388D02*
X48402641Y-73208388D01*
X48402641Y-73208388D02*
X48402641Y-75208388D01*
X48402641Y-75208388D02*
X45602641Y-75208388D01*
X45602641Y-75208388D02*
X45602641Y-73208388D01*
D16*
%TO.C,U5*%
X34421332Y-83270153D02*
X34420515Y-83270153D01*
D14*
X37487000Y-83209000D02*
X37487000Y-86209000D01*
X33887000Y-86209000D02*
X33887000Y-83209000D01*
X36387000Y-86209000D02*
X34987000Y-86209000D01*
X34987000Y-83209000D02*
X36387000Y-83209000D01*
D12*
%TO.C,C24*%
X47484420Y-67439000D02*
X47765580Y-67439000D01*
X47484420Y-66419000D02*
X47765580Y-66419000D01*
%TO.C,R4*%
X47227258Y-71613500D02*
X46752742Y-71613500D01*
X47227258Y-72658500D02*
X46752742Y-72658500D01*
%TO.C,C21*%
X42416000Y-64402580D02*
X42416000Y-64121420D01*
X43436000Y-64402580D02*
X43436000Y-64121420D01*
%TO.C,C12*%
X25413580Y-62740000D02*
X25132420Y-62740000D01*
X25413580Y-61720000D02*
X25132420Y-61720000D01*
%TO.C,C23*%
X44590580Y-67439000D02*
X44309420Y-67439000D01*
X44590580Y-66419000D02*
X44309420Y-66419000D01*
%TO.C,C19*%
X24128000Y-34684580D02*
X24128000Y-34403420D01*
X25148000Y-34684580D02*
X25148000Y-34403420D01*
%TO.C,C10*%
X26556580Y-57021000D02*
X26275420Y-57021000D01*
X26556580Y-58041000D02*
X26275420Y-58041000D01*
D10*
%TO.C,D1*%
X25114000Y-79907000D02*
X25114000Y-82907000D01*
X27464000Y-82907000D02*
X27464000Y-79907000D01*
X26380885Y-79006210D02*
G75*
G03*
X26380885Y-79006210I-77965J0D01*
G01*
D11*
%TO.C,U4*%
X47809000Y-55546000D02*
X47959000Y-55546000D01*
X45259000Y-55696000D02*
X45259000Y-55446000D01*
X45259000Y-58256000D02*
X45409000Y-58256000D01*
X47959000Y-58246000D02*
X47809000Y-58246000D01*
X45259000Y-58246000D02*
X45259000Y-58096000D01*
X47959000Y-55546000D02*
X47959000Y-55696000D01*
X47959000Y-58246000D02*
X47959000Y-58096000D01*
D10*
X45234944Y-54980746D02*
G75*
G03*
X45234944Y-54980746I-83852J0D01*
G01*
D12*
%TO.C,C16*%
X45516748Y-77618000D02*
X46939252Y-77618000D01*
X45516748Y-75798000D02*
X46939252Y-75798000D01*
D13*
X43637417Y-76673107D02*
G75*
G03*
X43637417Y-76673107I-113638J0D01*
G01*
D12*
%TO.C,C20*%
X24128000Y-38467420D02*
X24128000Y-38748580D01*
X25148000Y-38467420D02*
X25148000Y-38748580D01*
%TO.C,C8*%
X42039000Y-48527580D02*
X42039000Y-48246420D01*
X41019000Y-48527580D02*
X41019000Y-48246420D01*
%TO.C,R5*%
X47229500Y-32114258D02*
X47229500Y-31639742D01*
X48274500Y-32114258D02*
X48274500Y-31639742D01*
%TO.C,U6*%
X31786000Y-81407000D02*
X31786000Y-82207000D01*
D16*
X29224694Y-83449400D02*
X29221892Y-83453221D01*
D12*
X31786000Y-81407000D02*
X31786000Y-80607000D01*
X28666000Y-81407000D02*
X28666000Y-83207000D01*
X28666000Y-81407000D02*
X28666000Y-80607000D01*
%TO.C,C3*%
X24386000Y-81266420D02*
X24386000Y-81547580D01*
X23366000Y-81266420D02*
X23366000Y-81547580D01*
%TO.C,U1*%
X40416000Y-49119000D02*
X40416000Y-50069000D01*
X30196000Y-49119000D02*
X30196000Y-50069000D01*
X30196000Y-59339000D02*
X30196000Y-58389000D01*
X39466000Y-59339000D02*
X40416000Y-59339000D01*
X30196000Y-50069000D02*
X28856000Y-50069000D01*
X31146000Y-49119000D02*
X30196000Y-49119000D01*
X39466000Y-49119000D02*
X40416000Y-49119000D01*
X40416000Y-59339000D02*
X40416000Y-58389000D01*
X31146000Y-59339000D02*
X30196000Y-59339000D01*
D10*
X29472095Y-49489631D02*
G75*
G03*
X29472095Y-49489631I-66706J0D01*
G01*
D12*
%TO.C,R2*%
X39101500Y-65548742D02*
X39101500Y-66023258D01*
X40146500Y-65548742D02*
X40146500Y-66023258D01*
%TO.C,U2*%
X48234600Y-50901600D02*
X48234600Y-45364400D01*
X42697400Y-45364400D02*
X42697400Y-50901600D01*
X47947686Y-50901600D02*
X48234600Y-50901600D01*
X42984314Y-45364400D02*
X42697400Y-45364400D01*
X48234600Y-45364400D02*
X47947686Y-45364400D01*
X42697400Y-50901600D02*
X42984314Y-50901600D01*
D17*
X48409242Y-44345540D02*
G75*
G03*
X48409242Y-44345540I-135121J0D01*
G01*
D12*
%TO.C,C17*%
X25286580Y-50548000D02*
X25005420Y-50548000D01*
X25286580Y-49528000D02*
X25005420Y-49528000D01*
%TO.C,R8*%
X33796500Y-45703258D02*
X33796500Y-45228742D01*
X32751500Y-45703258D02*
X32751500Y-45228742D01*
%TO.C,JP1*%
X29067000Y-46739000D02*
X27067000Y-46739000D01*
X27067000Y-46739000D02*
X27067000Y-43939000D01*
X27067000Y-43939000D02*
X29067000Y-43939000D01*
X29067000Y-43939000D02*
X29067000Y-46739000D01*
%TO.C,C5*%
X29477580Y-47369000D02*
X29196420Y-47369000D01*
X29477580Y-48389000D02*
X29196420Y-48389000D01*
%TD*%
M02*
