%TF.GenerationSoftware,KiCad,Pcbnew,(6.0.8)*%
%TF.CreationDate,2023-06-03T22:28:48+01:00*%
%TF.ProjectId,circuit board design v2.1,63697263-7569-4742-9062-6f6172642064,rev?*%
%TF.SameCoordinates,Original*%
%TF.FileFunction,Copper,L2,Inr*%
%TF.FilePolarity,Positive*%
%FSLAX46Y46*%
G04 Gerber Fmt 4.6, Leading zero omitted, Abs format (unit mm)*
G04 Created by KiCad (PCBNEW (6.0.8)) date 2023-06-03 22:28:48*
%MOMM*%
%LPD*%
G01*
G04 APERTURE LIST*
G04 Aperture macros list*
%AMRoundRect*
0 Rectangle with rounded corners*
0 $1 Rounding radius*
0 $2 $3 $4 $5 $6 $7 $8 $9 X,Y pos of 4 corners*
0 Add a 4 corners polygon primitive as box body*
4,1,4,$2,$3,$4,$5,$6,$7,$8,$9,$2,$3,0*
0 Add four circle primitives for the rounded corners*
1,1,$1+$1,$2,$3*
1,1,$1+$1,$4,$5*
1,1,$1+$1,$6,$7*
1,1,$1+$1,$8,$9*
0 Add four rect primitives between the rounded corners*
20,1,$1+$1,$2,$3,$4,$5,0*
20,1,$1+$1,$4,$5,$6,$7,0*
20,1,$1+$1,$6,$7,$8,$9,0*
20,1,$1+$1,$8,$9,$2,$3,0*%
G04 Aperture macros list end*
%TA.AperFunction,ComponentPad*%
%ADD10C,1.450000*%
%TD*%
%TA.AperFunction,ComponentPad*%
%ADD11O,0.800000X1.600000*%
%TD*%
%TA.AperFunction,ComponentPad*%
%ADD12C,3.600000*%
%TD*%
%TA.AperFunction,ComponentPad*%
%ADD13R,1.700000X1.700000*%
%TD*%
%TA.AperFunction,ComponentPad*%
%ADD14O,1.700000X1.700000*%
%TD*%
%TA.AperFunction,ComponentPad*%
%ADD15RoundRect,0.250000X0.625000X-0.350000X0.625000X0.350000X-0.625000X0.350000X-0.625000X-0.350000X0*%
%TD*%
%TA.AperFunction,ComponentPad*%
%ADD16O,1.750000X1.200000*%
%TD*%
%TA.AperFunction,ViaPad*%
%ADD17C,0.800000*%
%TD*%
G04 APERTURE END LIST*
D10*
%TO.N,GND*%
%TO.C,J3*%
X33747000Y-88251000D03*
X38747000Y-88251000D03*
D11*
X32747000Y-90951000D03*
X39747000Y-90951000D03*
%TD*%
D12*
%TO.N,GND*%
%TO.C,H4*%
X46482000Y-90500000D03*
%TD*%
D13*
%TO.N,+3.3V*%
%TO.C,J1*%
X24892000Y-44699000D03*
D14*
%TO.N,GND*%
X24892000Y-47239000D03*
%TD*%
D15*
%TO.N,GND*%
%TO.C,J2*%
X40984000Y-83550000D03*
D16*
%TO.N,/Power/Battery+*%
X40984000Y-81550000D03*
%TD*%
D12*
%TO.N,GND*%
%TO.C,H2*%
X46482000Y-21336000D03*
%TD*%
D13*
%TO.N,/MCU/SYS_JTCK_SWCLK*%
%TO.C,J6*%
X37968000Y-44704000D03*
D14*
%TO.N,/MCU/SYS_JTMS_SWDIO*%
X40508000Y-44704000D03*
%TD*%
D12*
%TO.N,GND*%
%TO.C,H3*%
X25527000Y-21336000D03*
%TD*%
%TO.N,GND*%
%TO.C,H1*%
X25654000Y-90500000D03*
%TD*%
D17*
%TO.N,/GPS/GPS_UART_TX_Module*%
X26289000Y-30226000D03*
%TO.N,/GPS/GPS_UART_RX_Module*%
X26289000Y-27686000D03*
X36195000Y-42291000D03*
%TO.N,/GPS/GPS_UART_TX_Module*%
X35179000Y-42545000D03*
%TO.N,/GPS/GPS_Reset*%
X37211000Y-42545000D03*
X46236000Y-32758000D03*
%TO.N,+3.3V*%
X48133000Y-40640000D03*
X44831000Y-42799000D03*
%TO.N,/MCU/Radio_DIO2*%
X31242000Y-54102000D03*
%TO.N,/MCU/Radio_DIO4*%
X39364753Y-55537530D03*
%TO.N,/MCU/Radio_DIO5*%
X39656500Y-56441100D03*
%TO.N,/MCU/Radio_DIO3*%
X39619959Y-54622969D03*
%TO.N,/MCU/Radio_Enable*%
X37039311Y-64025423D03*
%TO.N,/MCU/I2C1_SDA*%
X48921140Y-61203806D03*
X33782000Y-50038000D03*
X28908006Y-71734469D03*
X47621270Y-53427500D03*
%TO.N,GND*%
X41021000Y-66802000D03*
X47800000Y-34800000D03*
X41500000Y-20000000D03*
X42846944Y-62086056D03*
X23114000Y-51816000D03*
X47965502Y-61007500D03*
X23876000Y-70739000D03*
X23749000Y-65278000D03*
X38735000Y-86741000D03*
X37900000Y-20000000D03*
X32004000Y-50038000D03*
X42799000Y-56642000D03*
X24400000Y-30700000D03*
X41500000Y-23400000D03*
X38312005Y-58606306D03*
X42063380Y-63981120D03*
X42866498Y-55372000D03*
X23622000Y-73406000D03*
X42237579Y-50011144D03*
X23495000Y-75438000D03*
X42796677Y-59999064D03*
X47800000Y-37500000D03*
X22860000Y-82169000D03*
X30226000Y-83820000D03*
X27432000Y-47879000D03*
X24400000Y-26100000D03*
X40666629Y-62584370D03*
X48260000Y-66040000D03*
X29015502Y-65913000D03*
X24400000Y-28400000D03*
X44577000Y-74676000D03*
X34300000Y-20000000D03*
X30700000Y-20000000D03*
X23876000Y-71842500D03*
X48895000Y-76454000D03*
X34300000Y-23400000D03*
X37900000Y-23400000D03*
X48855500Y-56769000D03*
X23368000Y-39370000D03*
X48768000Y-54610000D03*
X31369000Y-55549060D03*
X32512000Y-66929000D03*
X31767812Y-58594670D03*
X32512000Y-68326000D03*
X26035000Y-32766000D03*
X23368000Y-33782000D03*
X30700000Y-23400000D03*
X29150138Y-72790972D03*
X48895000Y-63119000D03*
X42799000Y-47625000D03*
X27773500Y-53562944D03*
X30226000Y-76200000D03*
X31242000Y-67056000D03*
X28067000Y-43180000D03*
X23876000Y-57531000D03*
X31242000Y-68199000D03*
X34729500Y-64008000D03*
%TO.N,+3.3V*%
X28956000Y-67945000D03*
X49149000Y-74168000D03*
X39751000Y-60833000D03*
X44704000Y-78359000D03*
X48641000Y-59173500D03*
X23368000Y-35306000D03*
X39116000Y-70993000D03*
X39878000Y-71755000D03*
X23622000Y-77089000D03*
X29015502Y-61205962D03*
X23860498Y-67381000D03*
X44450000Y-53838498D03*
X48895000Y-50673000D03*
X47965502Y-62357000D03*
X41021000Y-68834000D03*
X29015502Y-73787000D03*
X39370000Y-69596000D03*
X31369000Y-73787000D03*
X40640000Y-72517000D03*
X47752000Y-29464000D03*
X47965502Y-67945000D03*
X34729500Y-62611000D03*
X41910000Y-72136000D03*
X23368000Y-37846000D03*
X34798000Y-43561000D03*
X33274000Y-43561000D03*
X30099000Y-49022000D03*
X42799000Y-49149000D03*
%TO.N,+3.3VA*%
X39656500Y-57912000D03*
X41910000Y-58928000D03*
%TO.N,/MCU/I2C1_SCL*%
X29591000Y-70104000D03*
X42866413Y-61022688D03*
X33521151Y-50950970D03*
X48514000Y-55626000D03*
%TO.N,/MCU/Radio_DIO1*%
X31382154Y-57148560D03*
%TO.N,/MCU/Radio_DIO0*%
X30988000Y-58039000D03*
%TO.N,/MCU/Radio_TX*%
X32139681Y-57721017D03*
%TO.N,/MCU/Radio_RX*%
X30226000Y-58928000D03*
%TO.N,/MCU/Radio_Reset*%
X41110500Y-60452000D03*
%TO.N,/MCU/Radio_SPI1_SCK*%
X36277596Y-58596949D03*
%TO.N,/MCU/Radio_SPI1_MISO*%
X35323843Y-58599597D03*
%TO.N,/MCU/Radio_SPI1_MOSI*%
X34729500Y-61595000D03*
%TO.N,/MCU/Flash_QUADSPI_CLK*%
X42545000Y-51816000D03*
X37338000Y-58547000D03*
%TO.N,/MCU/USB_D-*%
X33186500Y-84673043D03*
X35941000Y-52451000D03*
%TO.N,/MCU/USB_D+*%
X36957000Y-52423000D03*
X33186500Y-85622546D03*
%TO.N,/MCU/Flash_QUADSPI_BK1_IO1*%
X38100000Y-50038000D03*
X46101000Y-46609000D03*
%TO.N,/MCU/Flash_QUADSPI_BK1_NCS*%
X34798000Y-50038000D03*
X47371000Y-45847000D03*
%TO.N,/MCU/Acc_Int1*%
X22606000Y-69596000D03*
X31242000Y-51308000D03*
%TO.N,/MCU/Gyro_Int3*%
X22987000Y-72517000D03*
X31242000Y-52257503D03*
%TO.N,/MCU/Mag_Data_Ready*%
X38354000Y-53722000D03*
X48006000Y-65024000D03*
%TD*%
%TA.AperFunction,Conductor*%
%TO.N,+3.3V*%
G36*
X49434023Y-18435502D02*
G01*
X49480516Y-18489158D01*
X49491902Y-18541418D01*
X49514194Y-53781805D01*
X49494235Y-53849939D01*
X49440609Y-53896465D01*
X49370341Y-53906614D01*
X49314133Y-53883821D01*
X49230094Y-53822763D01*
X49230093Y-53822762D01*
X49224752Y-53818882D01*
X49218724Y-53816198D01*
X49218722Y-53816197D01*
X49056319Y-53743891D01*
X49056318Y-53743891D01*
X49050288Y-53741206D01*
X48956888Y-53721353D01*
X48869944Y-53702872D01*
X48869939Y-53702872D01*
X48863487Y-53701500D01*
X48672513Y-53701500D01*
X48666056Y-53702872D01*
X48659485Y-53703563D01*
X48659181Y-53700672D01*
X48601095Y-53696279D01*
X48544433Y-53653502D01*
X48519893Y-53586881D01*
X48520298Y-53565234D01*
X48534084Y-53434065D01*
X48534774Y-53427500D01*
X48522235Y-53308198D01*
X48515502Y-53244135D01*
X48515502Y-53244133D01*
X48514812Y-53237572D01*
X48455797Y-53055944D01*
X48449329Y-53044740D01*
X48363611Y-52896274D01*
X48360310Y-52890556D01*
X48329099Y-52855892D01*
X48236945Y-52753545D01*
X48236944Y-52753544D01*
X48232523Y-52748634D01*
X48133427Y-52676636D01*
X48083364Y-52640263D01*
X48083363Y-52640262D01*
X48078022Y-52636382D01*
X48071994Y-52633698D01*
X48071992Y-52633697D01*
X47909589Y-52561391D01*
X47909588Y-52561391D01*
X47903558Y-52558706D01*
X47810158Y-52538853D01*
X47723214Y-52520372D01*
X47723209Y-52520372D01*
X47716757Y-52519000D01*
X47525783Y-52519000D01*
X47519331Y-52520372D01*
X47519326Y-52520372D01*
X47432383Y-52538853D01*
X47338982Y-52558706D01*
X47332952Y-52561391D01*
X47332951Y-52561391D01*
X47170548Y-52633697D01*
X47170546Y-52633698D01*
X47164518Y-52636382D01*
X47159177Y-52640262D01*
X47159176Y-52640263D01*
X47109113Y-52676636D01*
X47010017Y-52748634D01*
X47005596Y-52753544D01*
X47005595Y-52753545D01*
X46913442Y-52855892D01*
X46882230Y-52890556D01*
X46878929Y-52896274D01*
X46793212Y-53044740D01*
X46786743Y-53055944D01*
X46727728Y-53237572D01*
X46727038Y-53244133D01*
X46727038Y-53244135D01*
X46720305Y-53308198D01*
X46707766Y-53427500D01*
X46708456Y-53434065D01*
X46722825Y-53570774D01*
X46727728Y-53617428D01*
X46786743Y-53799056D01*
X46790046Y-53804778D01*
X46790047Y-53804779D01*
X46800430Y-53822763D01*
X46882230Y-53964444D01*
X46886648Y-53969351D01*
X46886649Y-53969352D01*
X46987283Y-54081117D01*
X47010017Y-54106366D01*
X47164518Y-54218618D01*
X47170546Y-54221302D01*
X47170548Y-54221303D01*
X47332951Y-54293609D01*
X47338982Y-54296294D01*
X47432383Y-54316147D01*
X47519326Y-54334628D01*
X47519331Y-54334628D01*
X47525783Y-54336000D01*
X47716757Y-54336000D01*
X47723214Y-54334628D01*
X47729785Y-54333937D01*
X47730089Y-54336828D01*
X47788175Y-54341221D01*
X47844837Y-54383998D01*
X47869377Y-54450619D01*
X47868972Y-54472266D01*
X47864396Y-54515803D01*
X47854496Y-54610000D01*
X47855186Y-54616565D01*
X47872455Y-54780866D01*
X47874458Y-54799928D01*
X47894627Y-54862002D01*
X47896655Y-54932968D01*
X47868430Y-54985247D01*
X47839089Y-55017834D01*
X47774960Y-55089056D01*
X47679473Y-55254444D01*
X47620458Y-55436072D01*
X47619768Y-55442633D01*
X47619768Y-55442635D01*
X47609104Y-55544095D01*
X47600496Y-55626000D01*
X47601186Y-55632565D01*
X47614815Y-55762234D01*
X47620458Y-55815928D01*
X47679473Y-55997556D01*
X47774960Y-56162944D01*
X47779378Y-56167851D01*
X47779379Y-56167852D01*
X47836964Y-56231807D01*
X47902747Y-56304866D01*
X47908089Y-56308747D01*
X47908091Y-56308749D01*
X47948669Y-56338230D01*
X47992023Y-56394452D01*
X47998099Y-56465188D01*
X47994445Y-56479090D01*
X47961958Y-56579072D01*
X47961268Y-56585633D01*
X47961268Y-56585635D01*
X47953220Y-56662206D01*
X47941996Y-56769000D01*
X47942686Y-56775565D01*
X47950326Y-56848251D01*
X47961958Y-56958928D01*
X48020973Y-57140556D01*
X48024276Y-57146278D01*
X48024277Y-57146279D01*
X48030032Y-57156247D01*
X48116460Y-57305944D01*
X48120878Y-57310851D01*
X48120879Y-57310852D01*
X48148089Y-57341072D01*
X48244247Y-57447866D01*
X48312078Y-57497148D01*
X48383622Y-57549128D01*
X48398748Y-57560118D01*
X48404776Y-57562802D01*
X48404778Y-57562803D01*
X48488567Y-57600108D01*
X48573212Y-57637794D01*
X48666613Y-57657647D01*
X48753556Y-57676128D01*
X48753561Y-57676128D01*
X48760013Y-57677500D01*
X48950987Y-57677500D01*
X48957439Y-57676128D01*
X48957444Y-57676128D01*
X49044387Y-57657647D01*
X49137788Y-57637794D01*
X49222433Y-57600108D01*
X49306222Y-57562803D01*
X49306224Y-57562802D01*
X49312252Y-57560118D01*
X49317593Y-57556237D01*
X49323311Y-57552936D01*
X49324093Y-57554291D01*
X49383455Y-57533111D01*
X49452606Y-57549193D01*
X49502086Y-57600108D01*
X49516646Y-57658826D01*
X49518305Y-60281101D01*
X49498346Y-60349235D01*
X49444720Y-60395761D01*
X49374452Y-60405910D01*
X49341058Y-60396289D01*
X49203428Y-60335012D01*
X49089544Y-60310805D01*
X49023084Y-60296678D01*
X49023079Y-60296678D01*
X49016627Y-60295306D01*
X48825653Y-60295306D01*
X48819201Y-60296678D01*
X48819196Y-60296678D01*
X48652474Y-60332116D01*
X48581683Y-60326714D01*
X48552216Y-60310805D01*
X48427596Y-60220263D01*
X48427595Y-60220262D01*
X48422254Y-60216382D01*
X48416226Y-60213698D01*
X48416224Y-60213697D01*
X48253821Y-60141391D01*
X48253820Y-60141391D01*
X48247790Y-60138706D01*
X48154389Y-60118853D01*
X48067446Y-60100372D01*
X48067441Y-60100372D01*
X48060989Y-60099000D01*
X47870015Y-60099000D01*
X47863563Y-60100372D01*
X47863558Y-60100372D01*
X47776615Y-60118853D01*
X47683214Y-60138706D01*
X47677184Y-60141391D01*
X47677183Y-60141391D01*
X47514780Y-60213697D01*
X47514778Y-60213698D01*
X47508750Y-60216382D01*
X47354249Y-60328634D01*
X47349828Y-60333544D01*
X47349827Y-60333545D01*
X47278567Y-60412688D01*
X47226462Y-60470556D01*
X47130975Y-60635944D01*
X47071960Y-60817572D01*
X47071270Y-60824133D01*
X47071270Y-60824135D01*
X47069674Y-60839323D01*
X47051998Y-61007500D01*
X47071960Y-61197428D01*
X47130975Y-61379056D01*
X47134278Y-61384778D01*
X47134279Y-61384779D01*
X47168188Y-61443510D01*
X47226462Y-61544444D01*
X47230880Y-61549351D01*
X47230881Y-61549352D01*
X47271983Y-61595000D01*
X47354249Y-61686366D01*
X47508750Y-61798618D01*
X47514778Y-61801302D01*
X47514780Y-61801303D01*
X47642987Y-61858384D01*
X47683214Y-61876294D01*
X47776525Y-61896128D01*
X47863558Y-61914628D01*
X47863563Y-61914628D01*
X47870015Y-61916000D01*
X48060989Y-61916000D01*
X48067441Y-61914628D01*
X48067446Y-61914628D01*
X48234168Y-61879190D01*
X48304959Y-61884592D01*
X48334426Y-61900501D01*
X48416692Y-61960271D01*
X48464388Y-61994924D01*
X48470416Y-61997608D01*
X48470418Y-61997609D01*
X48566702Y-62040477D01*
X48620798Y-62086457D01*
X48641447Y-62154384D01*
X48622095Y-62222692D01*
X48566702Y-62270691D01*
X48550849Y-62277749D01*
X48444278Y-62325197D01*
X48444276Y-62325198D01*
X48438248Y-62327882D01*
X48283747Y-62440134D01*
X48155960Y-62582056D01*
X48060473Y-62747444D01*
X48001458Y-62929072D01*
X48000768Y-62935633D01*
X48000768Y-62935635D01*
X47983524Y-63099703D01*
X47981496Y-63119000D01*
X47982186Y-63125565D01*
X48000757Y-63302254D01*
X48001458Y-63308928D01*
X48060473Y-63490556D01*
X48155960Y-63655944D01*
X48283747Y-63797866D01*
X48438248Y-63910118D01*
X48444276Y-63912802D01*
X48444278Y-63912803D01*
X48597722Y-63981120D01*
X48612712Y-63987794D01*
X48676888Y-64001435D01*
X48793056Y-64026128D01*
X48793061Y-64026128D01*
X48799513Y-64027500D01*
X48990487Y-64027500D01*
X48996939Y-64026128D01*
X48996944Y-64026128D01*
X49113112Y-64001435D01*
X49177288Y-63987794D01*
X49207024Y-63974555D01*
X49221718Y-63968013D01*
X49343429Y-63913824D01*
X49413794Y-63904390D01*
X49478091Y-63934496D01*
X49515905Y-63994585D01*
X49520676Y-64028851D01*
X49527962Y-75547233D01*
X49508003Y-75615367D01*
X49454377Y-75661893D01*
X49384109Y-75672042D01*
X49350717Y-75662421D01*
X49177288Y-75585206D01*
X49083887Y-75565353D01*
X48996944Y-75546872D01*
X48996939Y-75546872D01*
X48990487Y-75545500D01*
X48799513Y-75545500D01*
X48793061Y-75546872D01*
X48793056Y-75546872D01*
X48706113Y-75565353D01*
X48612712Y-75585206D01*
X48606682Y-75587891D01*
X48606681Y-75587891D01*
X48444278Y-75660197D01*
X48444276Y-75660198D01*
X48438248Y-75662882D01*
X48283747Y-75775134D01*
X48279326Y-75780044D01*
X48279325Y-75780045D01*
X48235747Y-75828444D01*
X48155960Y-75917056D01*
X48060473Y-76082444D01*
X48001458Y-76264072D01*
X48000768Y-76270633D01*
X48000768Y-76270635D01*
X47988920Y-76383365D01*
X47981496Y-76454000D01*
X48001458Y-76643928D01*
X48060473Y-76825556D01*
X48155960Y-76990944D01*
X48160378Y-76995851D01*
X48160379Y-76995852D01*
X48261808Y-77108500D01*
X48283747Y-77132866D01*
X48438248Y-77245118D01*
X48444276Y-77247802D01*
X48444278Y-77247803D01*
X48444420Y-77247866D01*
X48612712Y-77322794D01*
X48706112Y-77342647D01*
X48793056Y-77361128D01*
X48793061Y-77361128D01*
X48799513Y-77362500D01*
X48990487Y-77362500D01*
X48996939Y-77361128D01*
X48996944Y-77361128D01*
X49083888Y-77342647D01*
X49177288Y-77322794D01*
X49351752Y-77245118D01*
X49352975Y-77247866D01*
X49409414Y-77234321D01*
X49476448Y-77257707D01*
X49520198Y-77313622D01*
X49529109Y-77360082D01*
X49529150Y-77424916D01*
X49529265Y-77606966D01*
X49509306Y-77675100D01*
X49465038Y-77716865D01*
X47819718Y-78642357D01*
X47809397Y-78647554D01*
X47804857Y-78649585D01*
X47796229Y-78652051D01*
X47788638Y-78656840D01*
X47788639Y-78656840D01*
X47747510Y-78682790D01*
X47742049Y-78686046D01*
X47724878Y-78695705D01*
X47721333Y-78698426D01*
X47721328Y-78698429D01*
X47719480Y-78699848D01*
X47709999Y-78706457D01*
X47680638Y-78724982D01*
X47680633Y-78724986D01*
X47673042Y-78729776D01*
X47667099Y-78736505D01*
X47667097Y-78736507D01*
X47665436Y-78738388D01*
X47647713Y-78754932D01*
X47638592Y-78761933D01*
X47633293Y-78769175D01*
X47612787Y-78797201D01*
X47605544Y-78806202D01*
X47576622Y-78838951D01*
X47572806Y-78847079D01*
X47571737Y-78849355D01*
X47559371Y-78870205D01*
X47557883Y-78872239D01*
X47557881Y-78872242D01*
X47552582Y-78879485D01*
X47549529Y-78887923D01*
X47537711Y-78920582D01*
X47533284Y-78931256D01*
X47514719Y-78970800D01*
X47513338Y-78979672D01*
X47513337Y-78979674D01*
X47512949Y-78982163D01*
X47506934Y-79005639D01*
X47503022Y-79016451D01*
X47500283Y-79060079D01*
X47499033Y-79071541D01*
X47497500Y-79081386D01*
X47497500Y-79100459D01*
X47497252Y-79108354D01*
X47493895Y-79161823D01*
X47495871Y-79170586D01*
X47496584Y-79179528D01*
X47496133Y-79179564D01*
X47497500Y-79191838D01*
X47497500Y-85665838D01*
X47495344Y-85689048D01*
X47492747Y-85702905D01*
X47493636Y-85711836D01*
X47496880Y-85744425D01*
X47497500Y-85756906D01*
X47497500Y-85761513D01*
X47498134Y-85765942D01*
X47498135Y-85765951D01*
X47500662Y-85783592D01*
X47501315Y-85788975D01*
X47505648Y-85832500D01*
X47507175Y-85847846D01*
X47510434Y-85855917D01*
X47510626Y-85856909D01*
X47511359Y-85859630D01*
X47511687Y-85860574D01*
X47512920Y-85869187D01*
X47516636Y-85877359D01*
X47537417Y-85923064D01*
X47539541Y-85928014D01*
X47561704Y-85982911D01*
X47567096Y-85989743D01*
X47567559Y-85990639D01*
X47569019Y-85993036D01*
X47569606Y-85993860D01*
X47573208Y-86001782D01*
X47579068Y-86008583D01*
X47579070Y-86008586D01*
X47611828Y-86046604D01*
X47615278Y-86050785D01*
X47651949Y-86097244D01*
X47659040Y-86102286D01*
X47659728Y-86103009D01*
X47661826Y-86104919D01*
X47662608Y-86105536D01*
X47668287Y-86112127D01*
X47675815Y-86117007D01*
X47675819Y-86117010D01*
X47717951Y-86144319D01*
X47722431Y-86147361D01*
X47739199Y-86159284D01*
X47739203Y-86159286D01*
X47743160Y-86162100D01*
X47747510Y-86164275D01*
X47749743Y-86165616D01*
X47758793Y-86170790D01*
X47790515Y-86191352D01*
X47807788Y-86196517D01*
X47828029Y-86204534D01*
X49459850Y-87020445D01*
X49511833Y-87068799D01*
X49529500Y-87133142D01*
X49529500Y-93345500D01*
X49509498Y-93413621D01*
X49455842Y-93460114D01*
X49403500Y-93471500D01*
X41286142Y-93471500D01*
X41218021Y-93451498D01*
X41173444Y-93401848D01*
X41121274Y-93297507D01*
X41112823Y-93275783D01*
X41111417Y-93270863D01*
X41111416Y-93270861D01*
X41108949Y-93262229D01*
X41086679Y-93226932D01*
X41080556Y-93216069D01*
X41080499Y-93215956D01*
X41080494Y-93215947D01*
X41078487Y-93211934D01*
X41075936Y-93208253D01*
X41075932Y-93208245D01*
X41065799Y-93193620D01*
X41062809Y-93189101D01*
X41036012Y-93146631D01*
X41031224Y-93139042D01*
X41024704Y-93133284D01*
X41024085Y-93132478D01*
X41022220Y-93130380D01*
X41021497Y-93129675D01*
X41016542Y-93122523D01*
X41009565Y-93116876D01*
X40970532Y-93085285D01*
X40966391Y-93081784D01*
X40965839Y-93081296D01*
X40922049Y-93042622D01*
X40914172Y-93038924D01*
X40913359Y-93038330D01*
X40910971Y-93036833D01*
X40910083Y-93036361D01*
X40903320Y-93030888D01*
X40848707Y-93008059D01*
X40843790Y-93005879D01*
X40790200Y-92980719D01*
X40781602Y-92979380D01*
X40780661Y-92979041D01*
X40777937Y-92978271D01*
X40776958Y-92978069D01*
X40768931Y-92974713D01*
X40729683Y-92970321D01*
X40710118Y-92968131D01*
X40704749Y-92967413D01*
X40684421Y-92964248D01*
X40684415Y-92964248D01*
X40679614Y-92963500D01*
X40674751Y-92963500D01*
X40672153Y-92963299D01*
X40661744Y-92962718D01*
X40633098Y-92959512D01*
X40633096Y-92959512D01*
X40624177Y-92958514D01*
X40606420Y-92961618D01*
X40584724Y-92963500D01*
X31936162Y-92963500D01*
X31912952Y-92961344D01*
X31899095Y-92958747D01*
X31890165Y-92959636D01*
X31857579Y-92962880D01*
X31845097Y-92963500D01*
X31840487Y-92963500D01*
X31836046Y-92964136D01*
X31836045Y-92964136D01*
X31818389Y-92966664D01*
X31813013Y-92967316D01*
X31763090Y-92972286D01*
X31763088Y-92972287D01*
X31754154Y-92973176D01*
X31746085Y-92976433D01*
X31745088Y-92976627D01*
X31742384Y-92977355D01*
X31741432Y-92977685D01*
X31732813Y-92978920D01*
X31724641Y-92982636D01*
X31724640Y-92982636D01*
X31678932Y-93003419D01*
X31673947Y-93005557D01*
X31627414Y-93024343D01*
X31619089Y-93027704D01*
X31612258Y-93033096D01*
X31611366Y-93033556D01*
X31608959Y-93035023D01*
X31608141Y-93035605D01*
X31600218Y-93039208D01*
X31593417Y-93045068D01*
X31593414Y-93045070D01*
X31555374Y-93077847D01*
X31551193Y-93081296D01*
X31511802Y-93112388D01*
X31511800Y-93112390D01*
X31504756Y-93117950D01*
X31499712Y-93125043D01*
X31498979Y-93125741D01*
X31497091Y-93127814D01*
X31496467Y-93128605D01*
X31489873Y-93134287D01*
X31484991Y-93141819D01*
X31484990Y-93141820D01*
X31457679Y-93183954D01*
X31454637Y-93188434D01*
X31439900Y-93209160D01*
X31437724Y-93213511D01*
X31436384Y-93215743D01*
X31431210Y-93224792D01*
X31410648Y-93256515D01*
X31405483Y-93273788D01*
X31397466Y-93294029D01*
X31343556Y-93401849D01*
X31295201Y-93453833D01*
X31230858Y-93471500D01*
X22731441Y-93471500D01*
X22663320Y-93451498D01*
X22616827Y-93397842D01*
X22605441Y-93345710D01*
X22605059Y-93116876D01*
X22600690Y-90500000D01*
X23340547Y-90500000D01*
X23360339Y-90801966D01*
X23419376Y-91098766D01*
X23516648Y-91385320D01*
X23523202Y-91398610D01*
X23596482Y-91547206D01*
X23650491Y-91656726D01*
X23818614Y-91908341D01*
X23821328Y-91911435D01*
X23821332Y-91911441D01*
X23920882Y-92024955D01*
X24018142Y-92135858D01*
X24021231Y-92138567D01*
X24242559Y-92332668D01*
X24242565Y-92332672D01*
X24245659Y-92335386D01*
X24249085Y-92337675D01*
X24249090Y-92337679D01*
X24437371Y-92463484D01*
X24497273Y-92503509D01*
X24500972Y-92505333D01*
X24500977Y-92505336D01*
X24640308Y-92574046D01*
X24768680Y-92637352D01*
X24772585Y-92638677D01*
X24772586Y-92638678D01*
X25051327Y-92733298D01*
X25051330Y-92733299D01*
X25055234Y-92734624D01*
X25059273Y-92735427D01*
X25059279Y-92735429D01*
X25347991Y-92792857D01*
X25347994Y-92792857D01*
X25352034Y-92793661D01*
X25356145Y-92793930D01*
X25356149Y-92793931D01*
X25649881Y-92813183D01*
X25654000Y-92813453D01*
X25658119Y-92813183D01*
X25951851Y-92793931D01*
X25951855Y-92793930D01*
X25955966Y-92793661D01*
X25960006Y-92792857D01*
X25960009Y-92792857D01*
X26248721Y-92735429D01*
X26248727Y-92735427D01*
X26252766Y-92734624D01*
X26256670Y-92733299D01*
X26256673Y-92733298D01*
X26535414Y-92638678D01*
X26535415Y-92638677D01*
X26539320Y-92637352D01*
X26667692Y-92574046D01*
X26807023Y-92505336D01*
X26807028Y-92505333D01*
X26810727Y-92503509D01*
X26870629Y-92463484D01*
X27058910Y-92337679D01*
X27058915Y-92337675D01*
X27062341Y-92335386D01*
X27065435Y-92332672D01*
X27065441Y-92332668D01*
X27286769Y-92138567D01*
X27289858Y-92135858D01*
X27387118Y-92024955D01*
X27486668Y-91911441D01*
X27486672Y-91911435D01*
X27489386Y-91908341D01*
X27657509Y-91656726D01*
X27711519Y-91547206D01*
X27784798Y-91398610D01*
X31838500Y-91398610D01*
X31853458Y-91540928D01*
X31912473Y-91722556D01*
X32007960Y-91887944D01*
X32012378Y-91892851D01*
X32012379Y-91892852D01*
X32029117Y-91911441D01*
X32135747Y-92029866D01*
X32290248Y-92142118D01*
X32296276Y-92144802D01*
X32296278Y-92144803D01*
X32458681Y-92217109D01*
X32464712Y-92219794D01*
X32558113Y-92239647D01*
X32645056Y-92258128D01*
X32645061Y-92258128D01*
X32651513Y-92259500D01*
X32842487Y-92259500D01*
X32848939Y-92258128D01*
X32848944Y-92258128D01*
X32935887Y-92239647D01*
X33029288Y-92219794D01*
X33035319Y-92217109D01*
X33197722Y-92144803D01*
X33197724Y-92144802D01*
X33203752Y-92142118D01*
X33358253Y-92029866D01*
X33464883Y-91911441D01*
X33481621Y-91892852D01*
X33481622Y-91892851D01*
X33486040Y-91887944D01*
X33581527Y-91722556D01*
X33640542Y-91540928D01*
X33655500Y-91398610D01*
X38838500Y-91398610D01*
X38853458Y-91540928D01*
X38912473Y-91722556D01*
X39007960Y-91887944D01*
X39012378Y-91892851D01*
X39012379Y-91892852D01*
X39029117Y-91911441D01*
X39135747Y-92029866D01*
X39290248Y-92142118D01*
X39296276Y-92144802D01*
X39296278Y-92144803D01*
X39458681Y-92217109D01*
X39464712Y-92219794D01*
X39558113Y-92239647D01*
X39645056Y-92258128D01*
X39645061Y-92258128D01*
X39651513Y-92259500D01*
X39842487Y-92259500D01*
X39848939Y-92258128D01*
X39848944Y-92258128D01*
X39935887Y-92239647D01*
X40029288Y-92219794D01*
X40035319Y-92217109D01*
X40197722Y-92144803D01*
X40197724Y-92144802D01*
X40203752Y-92142118D01*
X40358253Y-92029866D01*
X40464883Y-91911441D01*
X40481621Y-91892852D01*
X40481622Y-91892851D01*
X40486040Y-91887944D01*
X40581527Y-91722556D01*
X40640542Y-91540928D01*
X40655500Y-91398610D01*
X40655500Y-90503390D01*
X40655144Y-90500000D01*
X44168547Y-90500000D01*
X44188339Y-90801966D01*
X44247376Y-91098766D01*
X44344648Y-91385320D01*
X44351202Y-91398610D01*
X44424482Y-91547206D01*
X44478491Y-91656726D01*
X44646614Y-91908341D01*
X44649328Y-91911435D01*
X44649332Y-91911441D01*
X44748882Y-92024955D01*
X44846142Y-92135858D01*
X44849231Y-92138567D01*
X45070559Y-92332668D01*
X45070565Y-92332672D01*
X45073659Y-92335386D01*
X45077085Y-92337675D01*
X45077090Y-92337679D01*
X45265371Y-92463484D01*
X45325273Y-92503509D01*
X45328972Y-92505333D01*
X45328977Y-92505336D01*
X45468308Y-92574046D01*
X45596680Y-92637352D01*
X45600585Y-92638677D01*
X45600586Y-92638678D01*
X45879327Y-92733298D01*
X45879330Y-92733299D01*
X45883234Y-92734624D01*
X45887273Y-92735427D01*
X45887279Y-92735429D01*
X46175991Y-92792857D01*
X46175994Y-92792857D01*
X46180034Y-92793661D01*
X46184145Y-92793930D01*
X46184149Y-92793931D01*
X46477881Y-92813183D01*
X46482000Y-92813453D01*
X46486119Y-92813183D01*
X46779851Y-92793931D01*
X46779855Y-92793930D01*
X46783966Y-92793661D01*
X46788006Y-92792857D01*
X46788009Y-92792857D01*
X47076721Y-92735429D01*
X47076727Y-92735427D01*
X47080766Y-92734624D01*
X47084670Y-92733299D01*
X47084673Y-92733298D01*
X47363414Y-92638678D01*
X47363415Y-92638677D01*
X47367320Y-92637352D01*
X47495692Y-92574046D01*
X47635023Y-92505336D01*
X47635028Y-92505333D01*
X47638727Y-92503509D01*
X47698629Y-92463484D01*
X47886910Y-92337679D01*
X47886915Y-92337675D01*
X47890341Y-92335386D01*
X47893435Y-92332672D01*
X47893441Y-92332668D01*
X48114769Y-92138567D01*
X48117858Y-92135858D01*
X48215118Y-92024955D01*
X48314668Y-91911441D01*
X48314672Y-91911435D01*
X48317386Y-91908341D01*
X48485509Y-91656726D01*
X48539519Y-91547206D01*
X48612798Y-91398610D01*
X48619352Y-91385320D01*
X48716624Y-91098766D01*
X48775661Y-90801966D01*
X48795453Y-90500000D01*
X48775661Y-90198034D01*
X48774857Y-90193991D01*
X48717429Y-89905279D01*
X48717427Y-89905273D01*
X48716624Y-89901234D01*
X48668642Y-89759882D01*
X48620678Y-89618586D01*
X48620677Y-89618585D01*
X48619352Y-89614680D01*
X48556112Y-89486442D01*
X48487336Y-89346978D01*
X48487333Y-89346973D01*
X48485509Y-89343274D01*
X48317386Y-89091659D01*
X48314672Y-89088565D01*
X48314668Y-89088559D01*
X48120567Y-88867231D01*
X48117858Y-88864142D01*
X47901606Y-88674493D01*
X47893441Y-88667332D01*
X47893435Y-88667328D01*
X47890341Y-88664614D01*
X47886911Y-88662322D01*
X47886910Y-88662321D01*
X47642160Y-88498785D01*
X47638727Y-88496491D01*
X47635028Y-88494667D01*
X47635023Y-88494664D01*
X47495692Y-88425954D01*
X47367320Y-88362648D01*
X47363414Y-88361322D01*
X47084673Y-88266702D01*
X47084670Y-88266701D01*
X47080766Y-88265376D01*
X47076727Y-88264573D01*
X47076721Y-88264571D01*
X46788009Y-88207143D01*
X46788006Y-88207143D01*
X46783966Y-88206339D01*
X46779855Y-88206070D01*
X46779851Y-88206069D01*
X46486119Y-88186817D01*
X46482000Y-88186547D01*
X46477881Y-88186817D01*
X46184149Y-88206069D01*
X46184145Y-88206070D01*
X46180034Y-88206339D01*
X46175994Y-88207143D01*
X46175991Y-88207143D01*
X45887279Y-88264571D01*
X45887273Y-88264573D01*
X45883234Y-88265376D01*
X45879330Y-88266701D01*
X45879327Y-88266702D01*
X45600586Y-88361322D01*
X45596680Y-88362648D01*
X45468442Y-88425888D01*
X45328978Y-88494664D01*
X45328973Y-88494667D01*
X45325274Y-88496491D01*
X45073659Y-88664614D01*
X45070565Y-88667328D01*
X45070559Y-88667332D01*
X45062394Y-88674493D01*
X44846142Y-88864142D01*
X44843433Y-88867231D01*
X44649332Y-89088559D01*
X44649328Y-89088565D01*
X44646614Y-89091659D01*
X44478491Y-89343274D01*
X44476667Y-89346973D01*
X44476664Y-89346978D01*
X44407888Y-89486442D01*
X44344648Y-89614680D01*
X44343323Y-89618585D01*
X44343322Y-89618586D01*
X44295359Y-89759882D01*
X44247376Y-89901234D01*
X44246573Y-89905273D01*
X44246571Y-89905279D01*
X44189143Y-90193991D01*
X44188339Y-90198034D01*
X44168547Y-90500000D01*
X40655144Y-90500000D01*
X40640542Y-90361072D01*
X40581527Y-90179444D01*
X40486040Y-90014056D01*
X40358253Y-89872134D01*
X40203752Y-89759882D01*
X40197724Y-89757198D01*
X40197722Y-89757197D01*
X40035319Y-89684891D01*
X40035318Y-89684891D01*
X40029288Y-89682206D01*
X39935887Y-89662353D01*
X39848944Y-89643872D01*
X39848939Y-89643872D01*
X39842487Y-89642500D01*
X39651513Y-89642500D01*
X39645061Y-89643872D01*
X39645056Y-89643872D01*
X39558113Y-89662353D01*
X39464712Y-89682206D01*
X39458682Y-89684891D01*
X39458681Y-89684891D01*
X39296278Y-89757197D01*
X39296276Y-89757198D01*
X39290248Y-89759882D01*
X39135747Y-89872134D01*
X39007960Y-90014056D01*
X38912473Y-90179444D01*
X38853458Y-90361072D01*
X38838500Y-90503390D01*
X38838500Y-91398610D01*
X33655500Y-91398610D01*
X33655500Y-90503390D01*
X33640542Y-90361072D01*
X33581527Y-90179444D01*
X33486040Y-90014056D01*
X33358253Y-89872134D01*
X33203752Y-89759882D01*
X33197724Y-89757198D01*
X33197722Y-89757197D01*
X33035319Y-89684891D01*
X33035318Y-89684891D01*
X33029288Y-89682206D01*
X32935887Y-89662353D01*
X32848944Y-89643872D01*
X32848939Y-89643872D01*
X32842487Y-89642500D01*
X32651513Y-89642500D01*
X32645061Y-89643872D01*
X32645056Y-89643872D01*
X32558113Y-89662353D01*
X32464712Y-89682206D01*
X32458682Y-89684891D01*
X32458681Y-89684891D01*
X32296278Y-89757197D01*
X32296276Y-89757198D01*
X32290248Y-89759882D01*
X32135747Y-89872134D01*
X32007960Y-90014056D01*
X31912473Y-90179444D01*
X31853458Y-90361072D01*
X31838500Y-90503390D01*
X31838500Y-91398610D01*
X27784798Y-91398610D01*
X27791352Y-91385320D01*
X27888624Y-91098766D01*
X27947661Y-90801966D01*
X27967453Y-90500000D01*
X27947661Y-90198034D01*
X27946857Y-90193991D01*
X27889429Y-89905279D01*
X27889427Y-89905273D01*
X27888624Y-89901234D01*
X27840642Y-89759882D01*
X27792678Y-89618586D01*
X27792677Y-89618585D01*
X27791352Y-89614680D01*
X27728112Y-89486442D01*
X27659336Y-89346978D01*
X27659333Y-89346973D01*
X27657509Y-89343274D01*
X27489386Y-89091659D01*
X27486672Y-89088565D01*
X27486668Y-89088559D01*
X27292567Y-88867231D01*
X27289858Y-88864142D01*
X27073606Y-88674493D01*
X27065441Y-88667332D01*
X27065435Y-88667328D01*
X27062341Y-88664614D01*
X27058911Y-88662322D01*
X27058910Y-88662321D01*
X26814160Y-88498785D01*
X26810727Y-88496491D01*
X26807028Y-88494667D01*
X26807023Y-88494664D01*
X26667692Y-88425954D01*
X26539320Y-88362648D01*
X26535414Y-88361322D01*
X26256673Y-88266702D01*
X26256670Y-88266701D01*
X26252766Y-88265376D01*
X26248727Y-88264573D01*
X26248721Y-88264571D01*
X26180495Y-88251000D01*
X32508788Y-88251000D01*
X32527599Y-88466013D01*
X32529023Y-88471326D01*
X32529023Y-88471328D01*
X32580200Y-88662321D01*
X32583461Y-88674493D01*
X32585783Y-88679474D01*
X32585784Y-88679475D01*
X32672351Y-88865119D01*
X32672354Y-88865124D01*
X32674677Y-88870106D01*
X32798475Y-89046907D01*
X32951093Y-89199525D01*
X33127894Y-89323323D01*
X33132876Y-89325646D01*
X33132881Y-89325649D01*
X33318525Y-89412216D01*
X33323507Y-89414539D01*
X33328815Y-89415961D01*
X33328817Y-89415962D01*
X33526672Y-89468977D01*
X33526674Y-89468977D01*
X33531987Y-89470401D01*
X33747000Y-89489212D01*
X33962013Y-89470401D01*
X33967326Y-89468977D01*
X33967328Y-89468977D01*
X34165183Y-89415962D01*
X34165185Y-89415961D01*
X34170493Y-89414539D01*
X34175475Y-89412216D01*
X34361119Y-89325649D01*
X34361124Y-89325646D01*
X34366106Y-89323323D01*
X34542907Y-89199525D01*
X34695525Y-89046907D01*
X34819323Y-88870106D01*
X34821646Y-88865124D01*
X34821649Y-88865119D01*
X34908216Y-88679475D01*
X34908217Y-88679474D01*
X34910539Y-88674493D01*
X34913801Y-88662321D01*
X34964977Y-88471328D01*
X34964977Y-88471326D01*
X34966401Y-88466013D01*
X34985212Y-88251000D01*
X37508788Y-88251000D01*
X37527599Y-88466013D01*
X37529023Y-88471326D01*
X37529023Y-88471328D01*
X37580200Y-88662321D01*
X37583461Y-88674493D01*
X37585783Y-88679474D01*
X37585784Y-88679475D01*
X37672351Y-88865119D01*
X37672354Y-88865124D01*
X37674677Y-88870106D01*
X37798475Y-89046907D01*
X37951093Y-89199525D01*
X38127894Y-89323323D01*
X38132876Y-89325646D01*
X38132881Y-89325649D01*
X38318525Y-89412216D01*
X38323507Y-89414539D01*
X38328815Y-89415961D01*
X38328817Y-89415962D01*
X38526672Y-89468977D01*
X38526674Y-89468977D01*
X38531987Y-89470401D01*
X38747000Y-89489212D01*
X38962013Y-89470401D01*
X38967326Y-89468977D01*
X38967328Y-89468977D01*
X39165183Y-89415962D01*
X39165185Y-89415961D01*
X39170493Y-89414539D01*
X39175475Y-89412216D01*
X39361119Y-89325649D01*
X39361124Y-89325646D01*
X39366106Y-89323323D01*
X39542907Y-89199525D01*
X39695525Y-89046907D01*
X39819323Y-88870106D01*
X39821646Y-88865124D01*
X39821649Y-88865119D01*
X39908216Y-88679475D01*
X39908217Y-88679474D01*
X39910539Y-88674493D01*
X39913801Y-88662321D01*
X39964977Y-88471328D01*
X39964977Y-88471326D01*
X39966401Y-88466013D01*
X39985212Y-88251000D01*
X39966401Y-88035987D01*
X39910539Y-87827507D01*
X39908216Y-87822525D01*
X39821649Y-87636881D01*
X39821646Y-87636876D01*
X39819323Y-87631894D01*
X39695525Y-87455093D01*
X39558634Y-87318202D01*
X39524608Y-87255890D01*
X39529673Y-87185075D01*
X39538609Y-87166108D01*
X39548218Y-87149464D01*
X39569527Y-87112556D01*
X39628542Y-86930928D01*
X39648504Y-86741000D01*
X39628542Y-86551072D01*
X39569527Y-86369444D01*
X39474040Y-86204056D01*
X39346253Y-86062134D01*
X39191752Y-85949882D01*
X39185724Y-85947198D01*
X39185722Y-85947197D01*
X39023319Y-85874891D01*
X39023318Y-85874891D01*
X39017288Y-85872206D01*
X38902684Y-85847846D01*
X38836944Y-85833872D01*
X38836939Y-85833872D01*
X38830487Y-85832500D01*
X38639513Y-85832500D01*
X38633061Y-85833872D01*
X38633056Y-85833872D01*
X38567316Y-85847846D01*
X38452712Y-85872206D01*
X38446682Y-85874891D01*
X38446681Y-85874891D01*
X38284278Y-85947197D01*
X38284276Y-85947198D01*
X38278248Y-85949882D01*
X38123747Y-86062134D01*
X37995960Y-86204056D01*
X37900473Y-86369444D01*
X37841458Y-86551072D01*
X37821496Y-86741000D01*
X37841458Y-86930928D01*
X37900473Y-87112556D01*
X37903776Y-87118278D01*
X37903777Y-87118279D01*
X37940175Y-87181322D01*
X37956913Y-87250317D01*
X37933693Y-87317409D01*
X37920151Y-87333417D01*
X37798475Y-87455093D01*
X37674677Y-87631894D01*
X37672354Y-87636876D01*
X37672351Y-87636881D01*
X37585784Y-87822525D01*
X37583461Y-87827507D01*
X37527599Y-88035987D01*
X37508788Y-88251000D01*
X34985212Y-88251000D01*
X34966401Y-88035987D01*
X34910539Y-87827507D01*
X34908216Y-87822525D01*
X34821649Y-87636881D01*
X34821646Y-87636876D01*
X34819323Y-87631894D01*
X34695525Y-87455093D01*
X34542907Y-87302475D01*
X34366106Y-87178677D01*
X34361124Y-87176354D01*
X34361119Y-87176351D01*
X34175475Y-87089784D01*
X34175474Y-87089783D01*
X34170493Y-87087461D01*
X34165185Y-87086039D01*
X34165183Y-87086038D01*
X33967328Y-87033023D01*
X33967326Y-87033023D01*
X33962013Y-87031599D01*
X33747000Y-87012788D01*
X33531987Y-87031599D01*
X33526674Y-87033023D01*
X33526672Y-87033023D01*
X33328817Y-87086038D01*
X33328815Y-87086039D01*
X33323507Y-87087461D01*
X33318526Y-87089783D01*
X33318525Y-87089784D01*
X33132881Y-87176351D01*
X33132876Y-87176354D01*
X33127894Y-87178677D01*
X32951093Y-87302475D01*
X32798475Y-87455093D01*
X32674677Y-87631894D01*
X32672354Y-87636876D01*
X32672351Y-87636881D01*
X32585784Y-87822525D01*
X32583461Y-87827507D01*
X32527599Y-88035987D01*
X32508788Y-88251000D01*
X26180495Y-88251000D01*
X25960009Y-88207143D01*
X25960006Y-88207143D01*
X25955966Y-88206339D01*
X25951855Y-88206070D01*
X25951851Y-88206069D01*
X25658119Y-88186817D01*
X25654000Y-88186547D01*
X25649881Y-88186817D01*
X25356149Y-88206069D01*
X25356145Y-88206070D01*
X25352034Y-88206339D01*
X25347994Y-88207143D01*
X25347991Y-88207143D01*
X25059279Y-88264571D01*
X25059273Y-88264573D01*
X25055234Y-88265376D01*
X25051330Y-88266701D01*
X25051327Y-88266702D01*
X24772586Y-88361322D01*
X24768680Y-88362648D01*
X24640442Y-88425888D01*
X24500978Y-88494664D01*
X24500973Y-88494667D01*
X24497274Y-88496491D01*
X24245659Y-88664614D01*
X24242565Y-88667328D01*
X24242559Y-88667332D01*
X24234394Y-88674493D01*
X24018142Y-88864142D01*
X24015433Y-88867231D01*
X23821332Y-89088559D01*
X23821328Y-89088565D01*
X23818614Y-89091659D01*
X23650491Y-89343274D01*
X23648667Y-89346973D01*
X23648664Y-89346978D01*
X23579888Y-89486442D01*
X23516648Y-89614680D01*
X23515323Y-89618585D01*
X23515322Y-89618586D01*
X23467359Y-89759882D01*
X23419376Y-89901234D01*
X23418573Y-89905273D01*
X23418571Y-89905279D01*
X23361143Y-90193991D01*
X23360339Y-90198034D01*
X23340547Y-90500000D01*
X22600690Y-90500000D01*
X22592548Y-85622546D01*
X32272996Y-85622546D01*
X32273686Y-85629111D01*
X32287118Y-85756906D01*
X32292958Y-85812474D01*
X32351973Y-85994102D01*
X32447460Y-86159490D01*
X32451878Y-86164397D01*
X32451879Y-86164398D01*
X32570825Y-86296501D01*
X32575247Y-86301412D01*
X32729748Y-86413664D01*
X32735776Y-86416348D01*
X32735778Y-86416349D01*
X32898181Y-86488655D01*
X32904212Y-86491340D01*
X32997613Y-86511193D01*
X33084556Y-86529674D01*
X33084561Y-86529674D01*
X33091013Y-86531046D01*
X33281987Y-86531046D01*
X33288439Y-86529674D01*
X33288444Y-86529674D01*
X33375387Y-86511193D01*
X33468788Y-86491340D01*
X33474819Y-86488655D01*
X33637222Y-86416349D01*
X33637224Y-86416348D01*
X33643252Y-86413664D01*
X33797753Y-86301412D01*
X33802175Y-86296501D01*
X33921121Y-86164398D01*
X33921122Y-86164397D01*
X33925540Y-86159490D01*
X34021027Y-85994102D01*
X34080042Y-85812474D01*
X34085883Y-85756906D01*
X34099314Y-85629111D01*
X34100004Y-85622546D01*
X34080042Y-85432618D01*
X34021027Y-85250990D01*
X33997819Y-85210793D01*
X33981082Y-85141801D01*
X33997820Y-85084795D01*
X34017723Y-85050322D01*
X34017724Y-85050321D01*
X34021027Y-85044599D01*
X34080042Y-84862971D01*
X34100004Y-84673043D01*
X34093778Y-84613803D01*
X34080732Y-84489678D01*
X34080732Y-84489676D01*
X34080042Y-84483115D01*
X34021027Y-84301487D01*
X33925540Y-84136099D01*
X33797753Y-83994177D01*
X33643252Y-83881925D01*
X33637224Y-83879241D01*
X33637222Y-83879240D01*
X33474819Y-83806934D01*
X33474818Y-83806934D01*
X33468788Y-83804249D01*
X33375387Y-83784396D01*
X33288444Y-83765915D01*
X33288439Y-83765915D01*
X33281987Y-83764543D01*
X33091013Y-83764543D01*
X33084561Y-83765915D01*
X33084556Y-83765915D01*
X32997613Y-83784396D01*
X32904212Y-83804249D01*
X32898182Y-83806934D01*
X32898181Y-83806934D01*
X32735778Y-83879240D01*
X32735776Y-83879241D01*
X32729748Y-83881925D01*
X32575247Y-83994177D01*
X32447460Y-84136099D01*
X32351973Y-84301487D01*
X32292958Y-84483115D01*
X32292268Y-84489676D01*
X32292268Y-84489678D01*
X32279222Y-84613803D01*
X32272996Y-84673043D01*
X32292958Y-84862971D01*
X32351973Y-85044599D01*
X32355276Y-85050321D01*
X32355277Y-85050322D01*
X32375180Y-85084795D01*
X32391918Y-85153791D01*
X32375181Y-85210793D01*
X32351973Y-85250990D01*
X32292958Y-85432618D01*
X32272996Y-85622546D01*
X22592548Y-85622546D01*
X22589539Y-83820000D01*
X29312496Y-83820000D01*
X29313186Y-83826565D01*
X29331319Y-83999088D01*
X29332458Y-84009928D01*
X29391473Y-84191556D01*
X29486960Y-84356944D01*
X29491378Y-84361851D01*
X29491379Y-84361852D01*
X29506354Y-84378483D01*
X29614747Y-84498866D01*
X29620638Y-84503146D01*
X29745506Y-84593868D01*
X29769248Y-84611118D01*
X29775276Y-84613802D01*
X29775278Y-84613803D01*
X29937681Y-84686109D01*
X29943712Y-84688794D01*
X30037113Y-84708647D01*
X30124056Y-84727128D01*
X30124061Y-84727128D01*
X30130513Y-84728500D01*
X30321487Y-84728500D01*
X30327939Y-84727128D01*
X30327944Y-84727128D01*
X30414887Y-84708647D01*
X30508288Y-84688794D01*
X30514319Y-84686109D01*
X30676722Y-84613803D01*
X30676724Y-84613802D01*
X30682752Y-84611118D01*
X30706495Y-84593868D01*
X30831362Y-84503146D01*
X30837253Y-84498866D01*
X30945646Y-84378483D01*
X30960621Y-84361852D01*
X30960622Y-84361851D01*
X30965040Y-84356944D01*
X31060527Y-84191556D01*
X31119542Y-84009928D01*
X31120682Y-83999088D01*
X31138814Y-83826565D01*
X31139504Y-83820000D01*
X31119542Y-83630072D01*
X31060527Y-83448444D01*
X30965040Y-83283056D01*
X30847773Y-83152817D01*
X30841675Y-83146045D01*
X30841674Y-83146044D01*
X30837253Y-83141134D01*
X30696143Y-83038611D01*
X30688094Y-83032763D01*
X30688093Y-83032762D01*
X30682752Y-83028882D01*
X30676724Y-83026198D01*
X30676722Y-83026197D01*
X30514319Y-82953891D01*
X30514318Y-82953891D01*
X30508288Y-82951206D01*
X30414888Y-82931353D01*
X30327944Y-82912872D01*
X30327939Y-82912872D01*
X30321487Y-82911500D01*
X30130513Y-82911500D01*
X30124061Y-82912872D01*
X30124056Y-82912872D01*
X30037112Y-82931353D01*
X29943712Y-82951206D01*
X29937682Y-82953891D01*
X29937681Y-82953891D01*
X29775278Y-83026197D01*
X29775276Y-83026198D01*
X29769248Y-83028882D01*
X29763907Y-83032762D01*
X29763906Y-83032763D01*
X29755857Y-83038611D01*
X29614747Y-83141134D01*
X29610326Y-83146044D01*
X29610325Y-83146045D01*
X29604228Y-83152817D01*
X29486960Y-83283056D01*
X29391473Y-83448444D01*
X29332458Y-83630072D01*
X29312496Y-83820000D01*
X22589539Y-83820000D01*
X22588497Y-83195893D01*
X22608385Y-83127740D01*
X22661963Y-83081158D01*
X22732220Y-83070937D01*
X22740694Y-83072438D01*
X22758047Y-83076127D01*
X22758060Y-83076128D01*
X22764513Y-83077500D01*
X22955487Y-83077500D01*
X22961939Y-83076128D01*
X22961944Y-83076128D01*
X23048888Y-83057647D01*
X23142288Y-83037794D01*
X23162305Y-83028882D01*
X23310722Y-82962803D01*
X23310724Y-82962802D01*
X23316752Y-82960118D01*
X23329019Y-82951206D01*
X23421231Y-82884209D01*
X23471253Y-82847866D01*
X23599040Y-82705944D01*
X23694527Y-82540556D01*
X23753542Y-82358928D01*
X23773504Y-82169000D01*
X23766213Y-82099632D01*
X23754232Y-81985635D01*
X23754232Y-81985633D01*
X23753542Y-81979072D01*
X23694527Y-81797444D01*
X23599040Y-81632056D01*
X23476178Y-81495604D01*
X39596787Y-81495604D01*
X39606567Y-81706899D01*
X39656125Y-81912534D01*
X39658607Y-81917992D01*
X39658608Y-81917996D01*
X39702053Y-82013546D01*
X39743674Y-82105087D01*
X39866054Y-82277611D01*
X39870381Y-82281753D01*
X39870386Y-82281759D01*
X39961317Y-82368806D01*
X39996694Y-82430361D01*
X39993175Y-82501270D01*
X39951879Y-82559021D01*
X39940496Y-82566965D01*
X39884652Y-82601522D01*
X39759695Y-82726697D01*
X39755855Y-82732927D01*
X39755854Y-82732928D01*
X39682612Y-82851749D01*
X39666885Y-82877262D01*
X39611203Y-83045139D01*
X39610503Y-83051975D01*
X39610502Y-83051978D01*
X39606091Y-83095031D01*
X39600500Y-83149600D01*
X39600500Y-83950400D01*
X39600837Y-83953646D01*
X39600837Y-83953650D01*
X39605996Y-84003365D01*
X39611474Y-84056166D01*
X39613655Y-84062702D01*
X39613655Y-84062704D01*
X39654547Y-84185271D01*
X39667450Y-84223946D01*
X39760522Y-84374348D01*
X39885697Y-84499305D01*
X39891927Y-84503145D01*
X39891928Y-84503146D01*
X40029090Y-84587694D01*
X40036262Y-84592115D01*
X40081854Y-84607237D01*
X40197611Y-84645632D01*
X40197613Y-84645632D01*
X40204139Y-84647797D01*
X40210975Y-84648497D01*
X40210978Y-84648498D01*
X40254031Y-84652909D01*
X40308600Y-84658500D01*
X41659400Y-84658500D01*
X41662646Y-84658163D01*
X41662650Y-84658163D01*
X41758308Y-84648238D01*
X41758312Y-84648237D01*
X41765166Y-84647526D01*
X41771702Y-84645345D01*
X41771704Y-84645345D01*
X41903806Y-84601272D01*
X41932946Y-84591550D01*
X42083348Y-84498478D01*
X42208305Y-84373303D01*
X42301115Y-84222738D01*
X42356797Y-84054861D01*
X42367500Y-83950400D01*
X42367500Y-83149600D01*
X42359494Y-83072438D01*
X42357238Y-83050692D01*
X42357237Y-83050688D01*
X42356526Y-83043834D01*
X42352833Y-83032763D01*
X42302868Y-82883002D01*
X42300550Y-82876054D01*
X42207478Y-82725652D01*
X42082303Y-82600695D01*
X42030764Y-82568925D01*
X41983271Y-82516154D01*
X41971847Y-82446082D01*
X42000121Y-82380958D01*
X42019045Y-82362582D01*
X42026920Y-82356396D01*
X42030852Y-82351865D01*
X42030855Y-82351862D01*
X42161621Y-82201167D01*
X42165552Y-82196637D01*
X42168552Y-82191451D01*
X42168555Y-82191447D01*
X42268467Y-82018742D01*
X42271473Y-82013546D01*
X42340861Y-81813729D01*
X42357219Y-81700909D01*
X42370352Y-81610336D01*
X42370352Y-81610333D01*
X42371213Y-81604396D01*
X42361433Y-81393101D01*
X42311875Y-81187466D01*
X42268525Y-81092122D01*
X42226806Y-81000368D01*
X42224326Y-80994913D01*
X42101946Y-80822389D01*
X41949150Y-80676119D01*
X41771452Y-80561380D01*
X41711354Y-80537160D01*
X41580832Y-80484558D01*
X41580829Y-80484557D01*
X41575263Y-80482314D01*
X41367663Y-80441772D01*
X41362101Y-80441500D01*
X40656154Y-80441500D01*
X40498434Y-80456548D01*
X40295466Y-80516092D01*
X40290139Y-80518836D01*
X40290138Y-80518836D01*
X40112751Y-80610196D01*
X40112748Y-80610198D01*
X40107420Y-80612942D01*
X39941080Y-80743604D01*
X39937148Y-80748135D01*
X39937145Y-80748138D01*
X39868474Y-80827275D01*
X39802448Y-80903363D01*
X39799448Y-80908549D01*
X39799445Y-80908553D01*
X39752312Y-80990026D01*
X39696527Y-81086454D01*
X39627139Y-81286271D01*
X39626278Y-81292206D01*
X39626278Y-81292208D01*
X39625119Y-81300206D01*
X39596787Y-81495604D01*
X23476178Y-81495604D01*
X23471253Y-81490134D01*
X23316752Y-81377882D01*
X23310724Y-81375198D01*
X23310722Y-81375197D01*
X23148319Y-81302891D01*
X23148318Y-81302891D01*
X23142288Y-81300206D01*
X23048888Y-81280353D01*
X22961944Y-81261872D01*
X22961939Y-81261872D01*
X22955487Y-81260500D01*
X22764513Y-81260500D01*
X22758054Y-81261873D01*
X22758053Y-81261873D01*
X22737266Y-81266291D01*
X22666475Y-81260888D01*
X22609843Y-81218071D01*
X22585350Y-81151433D01*
X22585070Y-81143254D01*
X22576658Y-76104259D01*
X22596546Y-76036105D01*
X22650124Y-75989523D01*
X22720381Y-75979302D01*
X22785011Y-76008687D01*
X22796283Y-76019727D01*
X22883747Y-76116866D01*
X22982843Y-76188864D01*
X23007207Y-76206565D01*
X23038248Y-76229118D01*
X23044276Y-76231802D01*
X23044278Y-76231803D01*
X23116756Y-76264072D01*
X23212712Y-76306794D01*
X23306112Y-76326647D01*
X23393056Y-76345128D01*
X23393061Y-76345128D01*
X23399513Y-76346500D01*
X23590487Y-76346500D01*
X23596939Y-76345128D01*
X23596944Y-76345128D01*
X23683888Y-76326647D01*
X23777288Y-76306794D01*
X23873244Y-76264072D01*
X23945722Y-76231803D01*
X23945724Y-76231802D01*
X23951752Y-76229118D01*
X23982794Y-76206565D01*
X23991830Y-76200000D01*
X29312496Y-76200000D01*
X29313186Y-76206565D01*
X29327894Y-76346500D01*
X29332458Y-76389928D01*
X29391473Y-76571556D01*
X29486960Y-76736944D01*
X29491378Y-76741851D01*
X29491379Y-76741852D01*
X29610325Y-76873955D01*
X29614747Y-76878866D01*
X29769248Y-76991118D01*
X29775276Y-76993802D01*
X29775278Y-76993803D01*
X29937681Y-77066109D01*
X29943712Y-77068794D01*
X30037113Y-77088647D01*
X30124056Y-77107128D01*
X30124061Y-77107128D01*
X30130513Y-77108500D01*
X30321487Y-77108500D01*
X30327939Y-77107128D01*
X30327944Y-77107128D01*
X30414887Y-77088647D01*
X30508288Y-77068794D01*
X30514319Y-77066109D01*
X30676722Y-76993803D01*
X30676724Y-76993802D01*
X30682752Y-76991118D01*
X30837253Y-76878866D01*
X30841675Y-76873955D01*
X30960621Y-76741852D01*
X30960622Y-76741851D01*
X30965040Y-76736944D01*
X31060527Y-76571556D01*
X31119542Y-76389928D01*
X31124107Y-76346500D01*
X31138814Y-76206565D01*
X31139504Y-76200000D01*
X31138814Y-76193435D01*
X31120232Y-76016635D01*
X31120232Y-76016633D01*
X31119542Y-76010072D01*
X31060527Y-75828444D01*
X30965040Y-75663056D01*
X30939064Y-75634206D01*
X30841675Y-75526045D01*
X30841674Y-75526044D01*
X30837253Y-75521134D01*
X30722829Y-75438000D01*
X30688094Y-75412763D01*
X30688093Y-75412762D01*
X30682752Y-75408882D01*
X30676724Y-75406198D01*
X30676722Y-75406197D01*
X30514319Y-75333891D01*
X30514318Y-75333891D01*
X30508288Y-75331206D01*
X30414887Y-75311353D01*
X30327944Y-75292872D01*
X30327939Y-75292872D01*
X30321487Y-75291500D01*
X30130513Y-75291500D01*
X30124061Y-75292872D01*
X30124056Y-75292872D01*
X30037113Y-75311353D01*
X29943712Y-75331206D01*
X29937682Y-75333891D01*
X29937681Y-75333891D01*
X29775278Y-75406197D01*
X29775276Y-75406198D01*
X29769248Y-75408882D01*
X29763907Y-75412762D01*
X29763906Y-75412763D01*
X29729171Y-75438000D01*
X29614747Y-75521134D01*
X29610326Y-75526044D01*
X29610325Y-75526045D01*
X29512937Y-75634206D01*
X29486960Y-75663056D01*
X29391473Y-75828444D01*
X29332458Y-76010072D01*
X29331768Y-76016633D01*
X29331768Y-76016635D01*
X29313186Y-76193435D01*
X29312496Y-76200000D01*
X23991830Y-76200000D01*
X24007157Y-76188864D01*
X24106253Y-76116866D01*
X24110675Y-76111955D01*
X24229621Y-75979852D01*
X24229622Y-75979851D01*
X24234040Y-75974944D01*
X24329527Y-75809556D01*
X24388542Y-75627928D01*
X24393107Y-75584500D01*
X24407814Y-75444565D01*
X24408504Y-75438000D01*
X24405161Y-75406197D01*
X24389232Y-75254635D01*
X24389232Y-75254633D01*
X24388542Y-75248072D01*
X24329527Y-75066444D01*
X24234040Y-74901056D01*
X24208064Y-74872206D01*
X24110675Y-74764045D01*
X24110674Y-74764044D01*
X24106253Y-74759134D01*
X23991829Y-74676000D01*
X43663496Y-74676000D01*
X43664186Y-74682565D01*
X43675475Y-74789970D01*
X43683458Y-74865928D01*
X43742473Y-75047556D01*
X43837960Y-75212944D01*
X43842378Y-75217851D01*
X43842379Y-75217852D01*
X43869589Y-75248072D01*
X43965747Y-75354866D01*
X44036398Y-75406197D01*
X44089207Y-75444565D01*
X44120248Y-75467118D01*
X44126276Y-75469802D01*
X44126278Y-75469803D01*
X44288681Y-75542109D01*
X44294712Y-75544794D01*
X44388113Y-75564647D01*
X44475056Y-75583128D01*
X44475061Y-75583128D01*
X44481513Y-75584500D01*
X44672487Y-75584500D01*
X44678939Y-75583128D01*
X44678944Y-75583128D01*
X44765887Y-75564647D01*
X44859288Y-75544794D01*
X44865319Y-75542109D01*
X45027722Y-75469803D01*
X45027724Y-75469802D01*
X45033752Y-75467118D01*
X45064794Y-75444565D01*
X45117602Y-75406197D01*
X45188253Y-75354866D01*
X45284411Y-75248072D01*
X45311621Y-75217852D01*
X45311622Y-75217851D01*
X45316040Y-75212944D01*
X45411527Y-75047556D01*
X45470542Y-74865928D01*
X45478526Y-74789970D01*
X45489814Y-74682565D01*
X45490504Y-74676000D01*
X45479280Y-74569206D01*
X45471232Y-74492635D01*
X45471232Y-74492633D01*
X45470542Y-74486072D01*
X45411527Y-74304444D01*
X45395203Y-74276169D01*
X45319341Y-74144774D01*
X45316040Y-74139056D01*
X45270744Y-74088749D01*
X45192675Y-74002045D01*
X45192674Y-74002044D01*
X45188253Y-73997134D01*
X45033752Y-73884882D01*
X45027724Y-73882198D01*
X45027722Y-73882197D01*
X44865319Y-73809891D01*
X44865318Y-73809891D01*
X44859288Y-73807206D01*
X44746721Y-73783279D01*
X44678944Y-73768872D01*
X44678939Y-73768872D01*
X44672487Y-73767500D01*
X44481513Y-73767500D01*
X44475061Y-73768872D01*
X44475056Y-73768872D01*
X44407279Y-73783279D01*
X44294712Y-73807206D01*
X44288682Y-73809891D01*
X44288681Y-73809891D01*
X44126278Y-73882197D01*
X44126276Y-73882198D01*
X44120248Y-73884882D01*
X43965747Y-73997134D01*
X43961326Y-74002044D01*
X43961325Y-74002045D01*
X43883257Y-74088749D01*
X43837960Y-74139056D01*
X43834659Y-74144774D01*
X43758798Y-74276169D01*
X43742473Y-74304444D01*
X43683458Y-74486072D01*
X43682768Y-74492633D01*
X43682768Y-74492635D01*
X43674720Y-74569206D01*
X43663496Y-74676000D01*
X23991829Y-74676000D01*
X23957094Y-74650763D01*
X23957093Y-74650762D01*
X23951752Y-74646882D01*
X23945724Y-74644198D01*
X23945722Y-74644197D01*
X23783319Y-74571891D01*
X23783318Y-74571891D01*
X23777288Y-74569206D01*
X23770833Y-74567834D01*
X23770824Y-74567831D01*
X23728069Y-74558743D01*
X23665596Y-74525015D01*
X23631275Y-74462865D01*
X23636003Y-74392026D01*
X23678280Y-74334989D01*
X23728068Y-74312251D01*
X23904288Y-74274794D01*
X23910319Y-74272109D01*
X24072722Y-74199803D01*
X24072724Y-74199802D01*
X24078752Y-74197118D01*
X24233253Y-74084866D01*
X24312247Y-73997134D01*
X24356621Y-73947852D01*
X24356622Y-73947851D01*
X24361040Y-73942944D01*
X24456527Y-73777556D01*
X24515542Y-73595928D01*
X24516997Y-73582090D01*
X24534814Y-73412565D01*
X24535504Y-73406000D01*
X24515542Y-73216072D01*
X24456527Y-73034444D01*
X24361040Y-72869056D01*
X24315333Y-72818294D01*
X24284618Y-72754290D01*
X24293381Y-72683836D01*
X24334910Y-72632050D01*
X24481909Y-72525249D01*
X24481911Y-72525247D01*
X24487253Y-72521366D01*
X24491675Y-72516455D01*
X24610621Y-72384352D01*
X24610622Y-72384351D01*
X24615040Y-72379444D01*
X24710527Y-72214056D01*
X24769542Y-72032428D01*
X24789504Y-71842500D01*
X24778150Y-71734469D01*
X27994502Y-71734469D01*
X28014464Y-71924397D01*
X28073479Y-72106025D01*
X28168966Y-72271413D01*
X28173384Y-72276320D01*
X28173385Y-72276321D01*
X28263385Y-72376276D01*
X28294103Y-72440283D01*
X28289582Y-72499522D01*
X28258638Y-72594758D01*
X28256596Y-72601044D01*
X28255906Y-72607607D01*
X28255905Y-72607614D01*
X28240489Y-72754290D01*
X28236634Y-72790972D01*
X28256596Y-72980900D01*
X28315611Y-73162528D01*
X28411098Y-73327916D01*
X28415516Y-73332823D01*
X28415517Y-73332824D01*
X28464317Y-73387022D01*
X28538885Y-73469838D01*
X28693386Y-73582090D01*
X28699414Y-73584774D01*
X28699416Y-73584775D01*
X28738567Y-73602206D01*
X28867850Y-73659766D01*
X28961250Y-73679619D01*
X29048194Y-73698100D01*
X29048199Y-73698100D01*
X29054651Y-73699472D01*
X29245625Y-73699472D01*
X29252077Y-73698100D01*
X29252082Y-73698100D01*
X29339026Y-73679619D01*
X29432426Y-73659766D01*
X29561709Y-73602206D01*
X29600860Y-73584775D01*
X29600862Y-73584774D01*
X29606890Y-73582090D01*
X29761391Y-73469838D01*
X29835959Y-73387022D01*
X29884759Y-73332824D01*
X29884760Y-73332823D01*
X29889178Y-73327916D01*
X29984665Y-73162528D01*
X30043680Y-72980900D01*
X30063642Y-72790972D01*
X30059787Y-72754290D01*
X30044370Y-72607607D01*
X30044370Y-72607605D01*
X30043680Y-72601044D01*
X29984665Y-72419416D01*
X29889178Y-72254028D01*
X29794759Y-72149165D01*
X29764041Y-72085158D01*
X29768562Y-72025919D01*
X29799506Y-71930683D01*
X29799508Y-71930675D01*
X29801548Y-71924397D01*
X29821510Y-71734469D01*
X29811507Y-71639298D01*
X29802238Y-71551104D01*
X29802238Y-71551102D01*
X29801548Y-71544541D01*
X29742533Y-71362913D01*
X29700870Y-71290750D01*
X29650351Y-71203249D01*
X29650347Y-71203243D01*
X29647046Y-71197525D01*
X29647601Y-71197205D01*
X29625323Y-71134780D01*
X29641399Y-71065627D01*
X29692309Y-71016143D01*
X29724920Y-71004331D01*
X29770807Y-70994577D01*
X29873288Y-70972794D01*
X29879319Y-70970109D01*
X30041722Y-70897803D01*
X30041724Y-70897802D01*
X30047752Y-70895118D01*
X30202253Y-70782866D01*
X30330040Y-70640944D01*
X30425527Y-70475556D01*
X30484542Y-70293928D01*
X30504504Y-70104000D01*
X30499485Y-70056251D01*
X30485232Y-69920635D01*
X30485232Y-69920633D01*
X30484542Y-69914072D01*
X30425527Y-69732444D01*
X30330040Y-69567056D01*
X30202253Y-69425134D01*
X30047752Y-69312882D01*
X30041724Y-69310198D01*
X30041722Y-69310197D01*
X29879319Y-69237891D01*
X29879318Y-69237891D01*
X29873288Y-69235206D01*
X29779888Y-69215353D01*
X29692944Y-69196872D01*
X29692939Y-69196872D01*
X29686487Y-69195500D01*
X29495513Y-69195500D01*
X29489061Y-69196872D01*
X29489056Y-69196872D01*
X29402112Y-69215353D01*
X29308712Y-69235206D01*
X29302682Y-69237891D01*
X29302681Y-69237891D01*
X29140278Y-69310197D01*
X29140276Y-69310198D01*
X29134248Y-69312882D01*
X28979747Y-69425134D01*
X28851960Y-69567056D01*
X28756473Y-69732444D01*
X28697458Y-69914072D01*
X28696768Y-69920633D01*
X28696768Y-69920635D01*
X28682515Y-70056251D01*
X28677496Y-70104000D01*
X28697458Y-70293928D01*
X28756473Y-70475556D01*
X28759776Y-70481278D01*
X28759777Y-70481279D01*
X28836906Y-70614869D01*
X28850207Y-70637907D01*
X28850207Y-70637908D01*
X28851960Y-70640944D01*
X28851405Y-70641264D01*
X28873683Y-70703689D01*
X28857607Y-70772842D01*
X28806697Y-70822326D01*
X28774086Y-70834138D01*
X28728199Y-70843892D01*
X28625718Y-70865675D01*
X28619688Y-70868360D01*
X28619687Y-70868360D01*
X28457284Y-70940666D01*
X28457282Y-70940667D01*
X28451254Y-70943351D01*
X28296753Y-71055603D01*
X28168966Y-71197525D01*
X28073479Y-71362913D01*
X28014464Y-71544541D01*
X28013774Y-71551102D01*
X28013774Y-71551104D01*
X28004505Y-71639298D01*
X27994502Y-71734469D01*
X24778150Y-71734469D01*
X24769542Y-71652572D01*
X24710527Y-71470944D01*
X24642865Y-71353750D01*
X24626127Y-71284755D01*
X24642865Y-71227750D01*
X24707223Y-71116279D01*
X24707224Y-71116278D01*
X24710527Y-71110556D01*
X24769542Y-70928928D01*
X24772814Y-70897803D01*
X24788814Y-70745565D01*
X24789504Y-70739000D01*
X24778597Y-70635226D01*
X24770232Y-70555635D01*
X24770232Y-70555633D01*
X24769542Y-70549072D01*
X24710527Y-70367444D01*
X24615040Y-70202056D01*
X24487253Y-70060134D01*
X24332752Y-69947882D01*
X24326724Y-69945198D01*
X24326722Y-69945197D01*
X24164319Y-69872891D01*
X24164318Y-69872891D01*
X24158288Y-69870206D01*
X24064888Y-69850353D01*
X23977944Y-69831872D01*
X23977939Y-69831872D01*
X23971487Y-69830500D01*
X23780513Y-69830500D01*
X23774061Y-69831872D01*
X23774056Y-69831872D01*
X23698506Y-69847931D01*
X23657963Y-69856549D01*
X23587173Y-69851147D01*
X23530541Y-69808330D01*
X23506047Y-69741693D01*
X23506457Y-69720131D01*
X23518814Y-69602564D01*
X23519504Y-69596000D01*
X23502062Y-69430045D01*
X23500232Y-69412635D01*
X23500232Y-69412633D01*
X23499542Y-69406072D01*
X23440527Y-69224444D01*
X23345040Y-69059056D01*
X23299744Y-69008749D01*
X23221675Y-68922045D01*
X23221674Y-68922044D01*
X23217253Y-68917134D01*
X23062752Y-68804882D01*
X23056724Y-68802198D01*
X23056722Y-68802197D01*
X22894319Y-68729891D01*
X22894318Y-68729891D01*
X22888288Y-68727206D01*
X22775721Y-68703279D01*
X22707944Y-68688872D01*
X22707939Y-68688872D01*
X22701487Y-68687500D01*
X22690066Y-68687500D01*
X22621945Y-68667498D01*
X22575452Y-68613842D01*
X22564066Y-68561710D01*
X22563460Y-68199000D01*
X30328496Y-68199000D01*
X30348458Y-68388928D01*
X30407473Y-68570556D01*
X30502960Y-68735944D01*
X30630747Y-68877866D01*
X30679450Y-68913251D01*
X30779904Y-68986235D01*
X30785248Y-68990118D01*
X30791276Y-68992802D01*
X30791278Y-68992803D01*
X30827094Y-69008749D01*
X30959712Y-69067794D01*
X31053112Y-69087647D01*
X31140056Y-69106128D01*
X31140061Y-69106128D01*
X31146513Y-69107500D01*
X31337487Y-69107500D01*
X31343939Y-69106128D01*
X31343944Y-69106128D01*
X31430888Y-69087647D01*
X31524288Y-69067794D01*
X31656906Y-69008749D01*
X31692722Y-68992803D01*
X31692724Y-68992802D01*
X31698752Y-68990118D01*
X31704091Y-68986239D01*
X31704098Y-68986235D01*
X31721055Y-68973915D01*
X31787923Y-68950057D01*
X31857074Y-68966139D01*
X31888747Y-68991538D01*
X31900747Y-69004866D01*
X31968578Y-69054148D01*
X32040122Y-69106128D01*
X32055248Y-69117118D01*
X32061276Y-69119802D01*
X32061278Y-69119803D01*
X32223681Y-69192109D01*
X32229712Y-69194794D01*
X32323113Y-69214647D01*
X32410056Y-69233128D01*
X32410061Y-69233128D01*
X32416513Y-69234500D01*
X32607487Y-69234500D01*
X32613939Y-69233128D01*
X32613944Y-69233128D01*
X32700887Y-69214647D01*
X32794288Y-69194794D01*
X32800319Y-69192109D01*
X32962722Y-69119803D01*
X32962724Y-69119802D01*
X32968752Y-69117118D01*
X32983879Y-69106128D01*
X33055422Y-69054148D01*
X33123253Y-69004866D01*
X33140027Y-68986237D01*
X33246621Y-68867852D01*
X33246622Y-68867851D01*
X33251040Y-68862944D01*
X33346527Y-68697556D01*
X33405542Y-68515928D01*
X33425504Y-68326000D01*
X33405542Y-68136072D01*
X33346527Y-67954444D01*
X33251040Y-67789056D01*
X33181485Y-67711808D01*
X33150770Y-67647803D01*
X33159533Y-67577350D01*
X33181484Y-67543194D01*
X33251040Y-67465944D01*
X33346527Y-67300556D01*
X33405542Y-67118928D01*
X33423455Y-66948500D01*
X33424814Y-66935565D01*
X33425504Y-66929000D01*
X33424814Y-66922435D01*
X33412156Y-66802000D01*
X40107496Y-66802000D01*
X40108186Y-66808565D01*
X40122894Y-66948500D01*
X40127458Y-66991928D01*
X40186473Y-67173556D01*
X40281960Y-67338944D01*
X40286378Y-67343851D01*
X40286379Y-67343852D01*
X40391163Y-67460226D01*
X40409747Y-67480866D01*
X40564248Y-67593118D01*
X40570276Y-67595802D01*
X40570278Y-67595803D01*
X40687073Y-67647803D01*
X40738712Y-67670794D01*
X40831421Y-67690500D01*
X40919056Y-67709128D01*
X40919061Y-67709128D01*
X40925513Y-67710500D01*
X41116487Y-67710500D01*
X41122939Y-67709128D01*
X41122944Y-67709128D01*
X41210579Y-67690500D01*
X41303288Y-67670794D01*
X41354927Y-67647803D01*
X41471722Y-67595803D01*
X41471724Y-67595802D01*
X41477752Y-67593118D01*
X41632253Y-67480866D01*
X41650837Y-67460226D01*
X41755621Y-67343852D01*
X41755622Y-67343851D01*
X41760040Y-67338944D01*
X41855527Y-67173556D01*
X41914542Y-66991928D01*
X41919107Y-66948500D01*
X41933814Y-66808565D01*
X41934504Y-66802000D01*
X41933814Y-66795435D01*
X41915232Y-66618635D01*
X41915232Y-66618633D01*
X41914542Y-66612072D01*
X41855527Y-66430444D01*
X41760040Y-66265056D01*
X41751023Y-66255041D01*
X41636675Y-66128045D01*
X41636674Y-66128044D01*
X41632253Y-66123134D01*
X41517829Y-66040000D01*
X41483094Y-66014763D01*
X41483093Y-66014762D01*
X41477752Y-66010882D01*
X41471724Y-66008198D01*
X41471722Y-66008197D01*
X41309319Y-65935891D01*
X41309318Y-65935891D01*
X41303288Y-65933206D01*
X41208227Y-65913000D01*
X41122944Y-65894872D01*
X41122939Y-65894872D01*
X41116487Y-65893500D01*
X40925513Y-65893500D01*
X40919061Y-65894872D01*
X40919056Y-65894872D01*
X40833773Y-65913000D01*
X40738712Y-65933206D01*
X40732682Y-65935891D01*
X40732681Y-65935891D01*
X40570278Y-66008197D01*
X40570276Y-66008198D01*
X40564248Y-66010882D01*
X40558907Y-66014762D01*
X40558906Y-66014763D01*
X40524171Y-66040000D01*
X40409747Y-66123134D01*
X40405326Y-66128044D01*
X40405325Y-66128045D01*
X40290978Y-66255041D01*
X40281960Y-66265056D01*
X40186473Y-66430444D01*
X40127458Y-66612072D01*
X40126768Y-66618633D01*
X40126768Y-66618635D01*
X40108186Y-66795435D01*
X40107496Y-66802000D01*
X33412156Y-66802000D01*
X33406232Y-66745635D01*
X33406232Y-66745633D01*
X33405542Y-66739072D01*
X33346527Y-66557444D01*
X33251040Y-66392056D01*
X33151122Y-66281085D01*
X33127675Y-66255045D01*
X33127671Y-66255041D01*
X33123253Y-66250134D01*
X33024157Y-66178136D01*
X32974094Y-66141763D01*
X32974093Y-66141762D01*
X32968752Y-66137882D01*
X32962724Y-66135198D01*
X32962722Y-66135197D01*
X32800319Y-66062891D01*
X32800318Y-66062891D01*
X32794288Y-66060206D01*
X32699227Y-66040000D01*
X32613944Y-66021872D01*
X32613939Y-66021872D01*
X32607487Y-66020500D01*
X32416513Y-66020500D01*
X32410061Y-66021872D01*
X32410056Y-66021872D01*
X32324773Y-66040000D01*
X32229712Y-66060206D01*
X32223682Y-66062891D01*
X32223681Y-66062891D01*
X32061278Y-66135197D01*
X32061276Y-66135198D01*
X32055248Y-66137882D01*
X32049907Y-66141762D01*
X32049906Y-66141763D01*
X31999843Y-66178136D01*
X31900747Y-66250134D01*
X31888748Y-66263460D01*
X31828304Y-66300698D01*
X31757320Y-66299346D01*
X31721055Y-66281085D01*
X31704098Y-66268765D01*
X31704091Y-66268761D01*
X31698752Y-66264882D01*
X31692724Y-66262198D01*
X31692722Y-66262197D01*
X31530319Y-66189891D01*
X31530318Y-66189891D01*
X31524288Y-66187206D01*
X31430887Y-66167353D01*
X31343944Y-66148872D01*
X31343939Y-66148872D01*
X31337487Y-66147500D01*
X31146513Y-66147500D01*
X31140061Y-66148872D01*
X31140056Y-66148872D01*
X31053113Y-66167353D01*
X30959712Y-66187206D01*
X30953682Y-66189891D01*
X30953681Y-66189891D01*
X30791278Y-66262197D01*
X30791276Y-66262198D01*
X30785248Y-66264882D01*
X30779907Y-66268762D01*
X30779906Y-66268763D01*
X30758169Y-66284556D01*
X30630747Y-66377134D01*
X30626326Y-66382044D01*
X30626325Y-66382045D01*
X30582747Y-66430444D01*
X30502960Y-66519056D01*
X30407473Y-66684444D01*
X30348458Y-66866072D01*
X30347768Y-66872633D01*
X30347768Y-66872635D01*
X30335920Y-66985365D01*
X30328496Y-67056000D01*
X30348458Y-67245928D01*
X30407473Y-67427556D01*
X30410776Y-67433278D01*
X30410777Y-67433279D01*
X30486538Y-67564500D01*
X30503276Y-67633495D01*
X30486538Y-67690499D01*
X30407473Y-67827444D01*
X30348458Y-68009072D01*
X30328496Y-68199000D01*
X22563460Y-68199000D01*
X22558584Y-65278000D01*
X22835496Y-65278000D01*
X22855458Y-65467928D01*
X22914473Y-65649556D01*
X23009960Y-65814944D01*
X23014378Y-65819851D01*
X23014379Y-65819852D01*
X23035939Y-65843797D01*
X23137747Y-65956866D01*
X23208398Y-66008197D01*
X23279982Y-66060206D01*
X23292248Y-66069118D01*
X23298276Y-66071802D01*
X23298278Y-66071803D01*
X23446695Y-66137882D01*
X23466712Y-66146794D01*
X23560112Y-66166647D01*
X23647056Y-66185128D01*
X23647061Y-66185128D01*
X23653513Y-66186500D01*
X23844487Y-66186500D01*
X23850939Y-66185128D01*
X23850944Y-66185128D01*
X23937888Y-66166647D01*
X24031288Y-66146794D01*
X24051305Y-66137882D01*
X24199722Y-66071803D01*
X24199724Y-66071802D01*
X24205752Y-66069118D01*
X24218019Y-66060206D01*
X24289602Y-66008197D01*
X24360253Y-65956866D01*
X24399750Y-65913000D01*
X28101998Y-65913000D01*
X28102688Y-65919565D01*
X28118689Y-66071803D01*
X28121960Y-66102928D01*
X28180975Y-66284556D01*
X28184278Y-66290278D01*
X28184279Y-66290279D01*
X28217471Y-66347769D01*
X28276462Y-66449944D01*
X28404249Y-66591866D01*
X28503345Y-66663864D01*
X28540322Y-66690729D01*
X28558750Y-66704118D01*
X28564778Y-66706802D01*
X28564780Y-66706803D01*
X28637258Y-66739072D01*
X28733214Y-66781794D01*
X28797390Y-66795435D01*
X28913558Y-66820128D01*
X28913563Y-66820128D01*
X28920015Y-66821500D01*
X29110989Y-66821500D01*
X29117441Y-66820128D01*
X29117446Y-66820128D01*
X29233614Y-66795435D01*
X29297790Y-66781794D01*
X29393746Y-66739072D01*
X29466224Y-66706803D01*
X29466226Y-66706802D01*
X29472254Y-66704118D01*
X29490683Y-66690729D01*
X29527659Y-66663864D01*
X29626755Y-66591866D01*
X29754542Y-66449944D01*
X29813533Y-66347769D01*
X29846725Y-66290279D01*
X29846726Y-66290278D01*
X29850029Y-66284556D01*
X29909044Y-66102928D01*
X29912316Y-66071803D01*
X29928316Y-65919565D01*
X29929006Y-65913000D01*
X29927101Y-65894872D01*
X29909734Y-65729635D01*
X29909734Y-65729633D01*
X29909044Y-65723072D01*
X29850029Y-65541444D01*
X29754542Y-65376056D01*
X29626755Y-65234134D01*
X29472254Y-65121882D01*
X29466226Y-65119198D01*
X29466224Y-65119197D01*
X29303821Y-65046891D01*
X29303820Y-65046891D01*
X29297790Y-65044206D01*
X29202729Y-65024000D01*
X47092496Y-65024000D01*
X47093186Y-65030565D01*
X47103192Y-65125763D01*
X47112458Y-65213928D01*
X47171473Y-65395556D01*
X47266960Y-65560944D01*
X47271378Y-65565851D01*
X47271379Y-65565852D01*
X47360430Y-65664753D01*
X47391148Y-65728760D01*
X47386627Y-65787997D01*
X47366458Y-65850072D01*
X47365768Y-65856633D01*
X47365768Y-65856635D01*
X47348401Y-66021872D01*
X47346496Y-66040000D01*
X47347186Y-66046565D01*
X47361894Y-66186500D01*
X47366458Y-66229928D01*
X47425473Y-66411556D01*
X47520960Y-66576944D01*
X47525378Y-66581851D01*
X47525379Y-66581852D01*
X47552589Y-66612072D01*
X47648747Y-66718866D01*
X47731664Y-66779109D01*
X47788122Y-66820128D01*
X47803248Y-66831118D01*
X47809276Y-66833802D01*
X47809278Y-66833803D01*
X47881756Y-66866072D01*
X47977712Y-66908794D01*
X48041888Y-66922435D01*
X48158056Y-66947128D01*
X48158061Y-66947128D01*
X48164513Y-66948500D01*
X48355487Y-66948500D01*
X48361939Y-66947128D01*
X48361944Y-66947128D01*
X48478112Y-66922435D01*
X48542288Y-66908794D01*
X48638244Y-66866072D01*
X48710722Y-66833803D01*
X48710724Y-66833802D01*
X48716752Y-66831118D01*
X48731879Y-66820128D01*
X48788336Y-66779109D01*
X48871253Y-66718866D01*
X48967411Y-66612072D01*
X48994621Y-66581852D01*
X48994622Y-66581851D01*
X48999040Y-66576944D01*
X49094527Y-66411556D01*
X49153542Y-66229928D01*
X49158107Y-66186500D01*
X49172814Y-66046565D01*
X49173504Y-66040000D01*
X49171599Y-66021872D01*
X49154232Y-65856635D01*
X49154232Y-65856633D01*
X49153542Y-65850072D01*
X49094527Y-65668444D01*
X48999040Y-65503056D01*
X48905570Y-65399247D01*
X48874852Y-65335240D01*
X48879373Y-65276003D01*
X48899542Y-65213928D01*
X48908809Y-65125763D01*
X48918814Y-65030565D01*
X48919504Y-65024000D01*
X48917599Y-65005872D01*
X48900232Y-64840635D01*
X48900232Y-64840633D01*
X48899542Y-64834072D01*
X48840527Y-64652444D01*
X48745040Y-64487056D01*
X48669088Y-64402702D01*
X48621675Y-64350045D01*
X48621674Y-64350044D01*
X48617253Y-64345134D01*
X48462752Y-64232882D01*
X48456724Y-64230198D01*
X48456722Y-64230197D01*
X48294319Y-64157891D01*
X48294318Y-64157891D01*
X48288288Y-64155206D01*
X48194887Y-64135353D01*
X48107944Y-64116872D01*
X48107939Y-64116872D01*
X48101487Y-64115500D01*
X47910513Y-64115500D01*
X47904061Y-64116872D01*
X47904056Y-64116872D01*
X47817113Y-64135353D01*
X47723712Y-64155206D01*
X47717682Y-64157891D01*
X47717681Y-64157891D01*
X47555278Y-64230197D01*
X47555276Y-64230198D01*
X47549248Y-64232882D01*
X47394747Y-64345134D01*
X47390326Y-64350044D01*
X47390325Y-64350045D01*
X47342913Y-64402702D01*
X47266960Y-64487056D01*
X47171473Y-64652444D01*
X47112458Y-64834072D01*
X47111768Y-64840633D01*
X47111768Y-64840635D01*
X47094401Y-65005872D01*
X47092496Y-65024000D01*
X29202729Y-65024000D01*
X29117446Y-65005872D01*
X29117441Y-65005872D01*
X29110989Y-65004500D01*
X28920015Y-65004500D01*
X28913563Y-65005872D01*
X28913558Y-65005872D01*
X28828275Y-65024000D01*
X28733214Y-65044206D01*
X28727184Y-65046891D01*
X28727183Y-65046891D01*
X28564780Y-65119197D01*
X28564778Y-65119198D01*
X28558750Y-65121882D01*
X28404249Y-65234134D01*
X28276462Y-65376056D01*
X28180975Y-65541444D01*
X28121960Y-65723072D01*
X28121270Y-65729633D01*
X28121270Y-65729635D01*
X28103903Y-65894872D01*
X28101998Y-65913000D01*
X24399750Y-65913000D01*
X24462061Y-65843797D01*
X24483621Y-65819852D01*
X24483622Y-65819851D01*
X24488040Y-65814944D01*
X24583527Y-65649556D01*
X24642542Y-65467928D01*
X24662504Y-65278000D01*
X24655080Y-65207365D01*
X24643232Y-65094635D01*
X24643232Y-65094633D01*
X24642542Y-65088072D01*
X24583527Y-64906444D01*
X24488040Y-64741056D01*
X24442744Y-64690749D01*
X24364675Y-64604045D01*
X24364674Y-64604044D01*
X24360253Y-64599134D01*
X24205752Y-64486882D01*
X24199724Y-64484198D01*
X24199722Y-64484197D01*
X24037319Y-64411891D01*
X24037318Y-64411891D01*
X24031288Y-64409206D01*
X23918721Y-64385279D01*
X23850944Y-64370872D01*
X23850939Y-64370872D01*
X23844487Y-64369500D01*
X23653513Y-64369500D01*
X23647061Y-64370872D01*
X23647056Y-64370872D01*
X23579279Y-64385279D01*
X23466712Y-64409206D01*
X23460682Y-64411891D01*
X23460681Y-64411891D01*
X23298278Y-64484197D01*
X23298276Y-64484198D01*
X23292248Y-64486882D01*
X23137747Y-64599134D01*
X23133326Y-64604044D01*
X23133325Y-64604045D01*
X23055257Y-64690749D01*
X23009960Y-64741056D01*
X22914473Y-64906444D01*
X22855458Y-65088072D01*
X22854768Y-65094633D01*
X22854768Y-65094635D01*
X22842920Y-65207365D01*
X22835496Y-65278000D01*
X22558584Y-65278000D01*
X22556464Y-64008000D01*
X33815996Y-64008000D01*
X33816686Y-64014565D01*
X33833793Y-64177326D01*
X33835958Y-64197928D01*
X33894973Y-64379556D01*
X33898276Y-64385278D01*
X33898277Y-64385279D01*
X33905032Y-64396979D01*
X33990460Y-64544944D01*
X33994878Y-64549851D01*
X33994879Y-64549852D01*
X34039253Y-64599134D01*
X34118247Y-64686866D01*
X34142228Y-64704289D01*
X34239447Y-64774923D01*
X34272748Y-64799118D01*
X34278776Y-64801802D01*
X34278778Y-64801803D01*
X34441181Y-64874109D01*
X34447212Y-64876794D01*
X34535635Y-64895589D01*
X34627556Y-64915128D01*
X34627561Y-64915128D01*
X34634013Y-64916500D01*
X34824987Y-64916500D01*
X34831439Y-64915128D01*
X34831444Y-64915128D01*
X34923365Y-64895589D01*
X35011788Y-64876794D01*
X35017819Y-64874109D01*
X35180222Y-64801803D01*
X35180224Y-64801802D01*
X35186252Y-64799118D01*
X35219554Y-64774923D01*
X35316772Y-64704289D01*
X35340753Y-64686866D01*
X35419747Y-64599134D01*
X35464121Y-64549852D01*
X35464122Y-64549851D01*
X35468540Y-64544944D01*
X35553968Y-64396979D01*
X35560723Y-64385279D01*
X35560724Y-64385278D01*
X35564027Y-64379556D01*
X35623042Y-64197928D01*
X35625208Y-64177326D01*
X35641173Y-64025423D01*
X36125807Y-64025423D01*
X36126497Y-64031988D01*
X36144598Y-64204206D01*
X36145769Y-64215351D01*
X36204784Y-64396979D01*
X36300271Y-64562367D01*
X36304689Y-64567274D01*
X36304690Y-64567275D01*
X36423636Y-64699378D01*
X36428058Y-64704289D01*
X36582559Y-64816541D01*
X36588587Y-64819225D01*
X36588589Y-64819226D01*
X36743616Y-64888248D01*
X36757023Y-64894217D01*
X36844115Y-64912729D01*
X36937367Y-64932551D01*
X36937372Y-64932551D01*
X36943824Y-64933923D01*
X37134798Y-64933923D01*
X37141250Y-64932551D01*
X37141255Y-64932551D01*
X37234507Y-64912729D01*
X37321599Y-64894217D01*
X37335006Y-64888248D01*
X37490033Y-64819226D01*
X37490035Y-64819225D01*
X37496063Y-64816541D01*
X37650564Y-64704289D01*
X37654986Y-64699378D01*
X37773932Y-64567275D01*
X37773933Y-64567274D01*
X37778351Y-64562367D01*
X37873838Y-64396979D01*
X37932853Y-64215351D01*
X37934025Y-64204206D01*
X37952125Y-64031988D01*
X37952815Y-64025423D01*
X37932853Y-63835495D01*
X37873838Y-63653867D01*
X37867408Y-63642729D01*
X37781652Y-63494197D01*
X37778351Y-63488479D01*
X37738461Y-63444176D01*
X37654986Y-63351468D01*
X37654985Y-63351467D01*
X37650564Y-63346557D01*
X37496063Y-63234305D01*
X37490035Y-63231621D01*
X37490033Y-63231620D01*
X37327630Y-63159314D01*
X37327629Y-63159314D01*
X37321599Y-63156629D01*
X37226590Y-63136434D01*
X37141255Y-63118295D01*
X37141250Y-63118295D01*
X37134798Y-63116923D01*
X36943824Y-63116923D01*
X36937372Y-63118295D01*
X36937367Y-63118295D01*
X36852032Y-63136434D01*
X36757023Y-63156629D01*
X36750993Y-63159314D01*
X36750992Y-63159314D01*
X36588589Y-63231620D01*
X36588587Y-63231621D01*
X36582559Y-63234305D01*
X36428058Y-63346557D01*
X36423637Y-63351467D01*
X36423636Y-63351468D01*
X36340162Y-63444176D01*
X36300271Y-63488479D01*
X36296970Y-63494197D01*
X36211215Y-63642729D01*
X36204784Y-63653867D01*
X36145769Y-63835495D01*
X36125807Y-64025423D01*
X35641173Y-64025423D01*
X35642314Y-64014565D01*
X35643004Y-64008000D01*
X35641594Y-63994585D01*
X35623732Y-63824635D01*
X35623732Y-63824633D01*
X35623042Y-63818072D01*
X35564027Y-63636444D01*
X35552137Y-63615849D01*
X35508793Y-63540776D01*
X35468540Y-63471056D01*
X35453666Y-63454536D01*
X35345175Y-63334045D01*
X35345174Y-63334044D01*
X35340753Y-63329134D01*
X35186252Y-63216882D01*
X35180224Y-63214198D01*
X35180222Y-63214197D01*
X35017819Y-63141891D01*
X35017818Y-63141891D01*
X35011788Y-63139206D01*
X34913410Y-63118295D01*
X34831444Y-63100872D01*
X34831439Y-63100872D01*
X34824987Y-63099500D01*
X34634013Y-63099500D01*
X34627561Y-63100872D01*
X34627556Y-63100872D01*
X34545590Y-63118295D01*
X34447212Y-63139206D01*
X34441182Y-63141891D01*
X34441181Y-63141891D01*
X34278778Y-63214197D01*
X34278776Y-63214198D01*
X34272748Y-63216882D01*
X34118247Y-63329134D01*
X34113826Y-63334044D01*
X34113825Y-63334045D01*
X34005335Y-63454536D01*
X33990460Y-63471056D01*
X33950207Y-63540776D01*
X33906864Y-63615849D01*
X33894973Y-63636444D01*
X33835958Y-63818072D01*
X33835268Y-63824633D01*
X33835268Y-63824635D01*
X33817406Y-63994585D01*
X33815996Y-64008000D01*
X22556464Y-64008000D01*
X22554087Y-62584370D01*
X39753125Y-62584370D01*
X39753815Y-62590935D01*
X39772102Y-62764922D01*
X39773087Y-62774298D01*
X39832102Y-62955926D01*
X39927589Y-63121314D01*
X39932007Y-63126221D01*
X39932008Y-63126222D01*
X40011221Y-63214197D01*
X40055376Y-63263236D01*
X40209877Y-63375488D01*
X40215905Y-63378172D01*
X40215907Y-63378173D01*
X40376996Y-63449894D01*
X40384341Y-63453164D01*
X40445426Y-63466148D01*
X40564685Y-63491498D01*
X40564690Y-63491498D01*
X40571142Y-63492870D01*
X40762116Y-63492870D01*
X40768568Y-63491498D01*
X40768573Y-63491498D01*
X40887832Y-63466148D01*
X40948917Y-63453164D01*
X40954944Y-63450481D01*
X40954952Y-63450478D01*
X41092987Y-63389021D01*
X41163354Y-63379587D01*
X41227651Y-63409694D01*
X41265464Y-63469783D01*
X41264788Y-63540776D01*
X41253357Y-63567121D01*
X41228853Y-63609564D01*
X41169838Y-63791192D01*
X41169148Y-63797753D01*
X41169148Y-63797755D01*
X41157056Y-63912803D01*
X41149876Y-63981120D01*
X41169838Y-64171048D01*
X41228853Y-64352676D01*
X41232156Y-64358398D01*
X41232157Y-64358399D01*
X41244372Y-64379556D01*
X41324340Y-64518064D01*
X41328758Y-64522971D01*
X41328759Y-64522972D01*
X41440183Y-64646721D01*
X41452127Y-64659986D01*
X41606628Y-64772238D01*
X41612656Y-64774922D01*
X41612658Y-64774923D01*
X41712165Y-64819226D01*
X41781092Y-64849914D01*
X41874492Y-64869767D01*
X41961436Y-64888248D01*
X41961441Y-64888248D01*
X41967893Y-64889620D01*
X42158867Y-64889620D01*
X42165319Y-64888248D01*
X42165324Y-64888248D01*
X42252268Y-64869767D01*
X42345668Y-64849914D01*
X42414595Y-64819226D01*
X42514102Y-64774923D01*
X42514104Y-64774922D01*
X42520132Y-64772238D01*
X42674633Y-64659986D01*
X42686577Y-64646721D01*
X42798001Y-64522972D01*
X42798002Y-64522971D01*
X42802420Y-64518064D01*
X42882388Y-64379556D01*
X42894603Y-64358399D01*
X42894604Y-64358398D01*
X42897907Y-64352676D01*
X42956922Y-64171048D01*
X42976884Y-63981120D01*
X42969704Y-63912803D01*
X42957612Y-63797755D01*
X42957612Y-63797753D01*
X42956922Y-63791192D01*
X42897907Y-63609564D01*
X42802420Y-63444176D01*
X42718946Y-63351468D01*
X42679055Y-63307165D01*
X42679054Y-63307164D01*
X42674633Y-63302254D01*
X42523785Y-63192656D01*
X42480431Y-63136434D01*
X42474356Y-63065697D01*
X42507488Y-63002906D01*
X42569308Y-62967994D01*
X42624042Y-62967473D01*
X42655009Y-62974055D01*
X42745000Y-62993184D01*
X42745005Y-62993184D01*
X42751457Y-62994556D01*
X42942431Y-62994556D01*
X42948883Y-62993184D01*
X42948888Y-62993184D01*
X43035832Y-62974703D01*
X43129232Y-62954850D01*
X43187131Y-62929072D01*
X43297666Y-62879859D01*
X43297668Y-62879858D01*
X43303696Y-62877174D01*
X43458197Y-62764922D01*
X43585984Y-62623000D01*
X43644258Y-62522066D01*
X43678167Y-62463335D01*
X43678168Y-62463334D01*
X43681471Y-62457612D01*
X43740486Y-62275984D01*
X43743196Y-62250206D01*
X43759758Y-62092621D01*
X43760448Y-62086056D01*
X43742575Y-61916000D01*
X43741176Y-61902691D01*
X43741176Y-61902689D01*
X43740486Y-61896128D01*
X43681471Y-61714500D01*
X43635127Y-61634231D01*
X43618390Y-61565239D01*
X43635128Y-61508233D01*
X43697636Y-61399967D01*
X43697637Y-61399966D01*
X43700940Y-61394244D01*
X43759955Y-61212616D01*
X43760892Y-61203706D01*
X43779227Y-61029253D01*
X43779917Y-61022688D01*
X43759955Y-60832760D01*
X43700940Y-60651132D01*
X43621468Y-60513483D01*
X43604730Y-60444488D01*
X43621467Y-60387485D01*
X43631204Y-60370620D01*
X43690219Y-60188992D01*
X43695649Y-60137334D01*
X43709491Y-60005629D01*
X43710181Y-59999064D01*
X43707891Y-59977276D01*
X43690909Y-59815699D01*
X43690909Y-59815697D01*
X43690219Y-59809136D01*
X43631204Y-59627508D01*
X43535717Y-59462120D01*
X43529757Y-59455500D01*
X43412352Y-59325109D01*
X43412351Y-59325108D01*
X43407930Y-59320198D01*
X43253429Y-59207946D01*
X43247401Y-59205262D01*
X43247399Y-59205261D01*
X43084996Y-59132955D01*
X43084995Y-59132955D01*
X43078965Y-59130270D01*
X42919263Y-59096324D01*
X42856789Y-59062595D01*
X42822468Y-59000446D01*
X42820150Y-58959909D01*
X42823504Y-58928000D01*
X42815330Y-58850229D01*
X42804232Y-58744635D01*
X42804232Y-58744633D01*
X42803542Y-58738072D01*
X42744527Y-58556444D01*
X42649040Y-58391056D01*
X42521253Y-58249134D01*
X42366752Y-58136882D01*
X42360724Y-58134198D01*
X42360722Y-58134197D01*
X42198319Y-58061891D01*
X42198316Y-58061890D01*
X42192288Y-58059206D01*
X42098888Y-58039353D01*
X42011944Y-58020872D01*
X42011939Y-58020872D01*
X42005487Y-58019500D01*
X41814513Y-58019500D01*
X41808061Y-58020872D01*
X41808056Y-58020872D01*
X41721112Y-58039353D01*
X41627712Y-58059206D01*
X41621684Y-58061890D01*
X41621681Y-58061891D01*
X41459278Y-58134197D01*
X41459276Y-58134198D01*
X41453248Y-58136882D01*
X41298747Y-58249134D01*
X41170960Y-58391056D01*
X41075473Y-58556444D01*
X41016458Y-58738072D01*
X41015768Y-58744633D01*
X41015768Y-58744635D01*
X41004670Y-58850229D01*
X40996496Y-58928000D01*
X40997186Y-58934562D01*
X40997186Y-58934565D01*
X41001032Y-58971153D01*
X41016458Y-59117928D01*
X41075473Y-59299556D01*
X41078776Y-59305278D01*
X41078777Y-59305279D01*
X41108164Y-59356178D01*
X41124902Y-59425173D01*
X41101682Y-59492265D01*
X41045875Y-59536152D01*
X41016204Y-59543500D01*
X41015013Y-59543500D01*
X41008560Y-59544872D01*
X41008557Y-59544872D01*
X40945987Y-59558172D01*
X40828212Y-59583206D01*
X40822182Y-59585891D01*
X40822181Y-59585891D01*
X40659778Y-59658197D01*
X40659776Y-59658198D01*
X40653748Y-59660882D01*
X40499247Y-59773134D01*
X40371460Y-59915056D01*
X40275973Y-60080444D01*
X40216958Y-60262072D01*
X40216268Y-60268633D01*
X40216268Y-60268635D01*
X40207797Y-60349235D01*
X40196996Y-60452000D01*
X40197686Y-60458565D01*
X40215728Y-60630221D01*
X40216958Y-60641928D01*
X40275973Y-60823556D01*
X40371460Y-60988944D01*
X40375878Y-60993851D01*
X40375879Y-60993852D01*
X40471435Y-61099978D01*
X40499247Y-61130866D01*
X40554652Y-61171120D01*
X40635320Y-61229729D01*
X40653748Y-61243118D01*
X40659776Y-61245802D01*
X40659778Y-61245803D01*
X40822181Y-61318109D01*
X40828212Y-61320794D01*
X40921613Y-61340647D01*
X41008556Y-61359128D01*
X41008561Y-61359128D01*
X41015013Y-61360500D01*
X41205987Y-61360500D01*
X41212439Y-61359128D01*
X41212444Y-61359128D01*
X41299387Y-61340647D01*
X41392788Y-61320794D01*
X41398819Y-61318109D01*
X41561222Y-61245803D01*
X41561224Y-61245802D01*
X41567252Y-61243118D01*
X41585681Y-61229729D01*
X41666348Y-61171120D01*
X41721753Y-61130866D01*
X41749565Y-61099977D01*
X41810010Y-61062739D01*
X41880994Y-61064091D01*
X41939978Y-61103605D01*
X41968510Y-61171120D01*
X41971935Y-61203706D01*
X41972871Y-61212616D01*
X42031886Y-61394244D01*
X42078230Y-61474513D01*
X42094967Y-61543505D01*
X42078229Y-61600510D01*
X42012417Y-61714500D01*
X41953402Y-61896128D01*
X41952712Y-61902689D01*
X41952712Y-61902691D01*
X41951313Y-61916000D01*
X41933440Y-62086056D01*
X41934130Y-62092621D01*
X41950693Y-62250206D01*
X41953402Y-62275984D01*
X42012417Y-62457612D01*
X42015720Y-62463334D01*
X42015721Y-62463335D01*
X42049630Y-62522066D01*
X42107904Y-62623000D01*
X42235691Y-62764922D01*
X42248596Y-62774298D01*
X42386539Y-62874520D01*
X42429893Y-62930742D01*
X42435968Y-63001479D01*
X42402836Y-63064270D01*
X42341016Y-63099182D01*
X42286282Y-63099703D01*
X42255315Y-63093121D01*
X42165324Y-63073992D01*
X42165319Y-63073992D01*
X42158867Y-63072620D01*
X41967893Y-63072620D01*
X41961441Y-63073992D01*
X41961436Y-63073992D01*
X41874493Y-63092473D01*
X41781092Y-63112326D01*
X41775065Y-63115009D01*
X41775057Y-63115012D01*
X41637022Y-63176469D01*
X41566655Y-63185903D01*
X41502358Y-63155796D01*
X41464545Y-63095707D01*
X41465221Y-63024714D01*
X41476652Y-62998369D01*
X41501156Y-62955926D01*
X41560171Y-62774298D01*
X41561157Y-62764922D01*
X41579443Y-62590935D01*
X41580133Y-62584370D01*
X41565490Y-62445045D01*
X41560861Y-62401005D01*
X41560861Y-62401003D01*
X41560171Y-62394442D01*
X41501156Y-62212814D01*
X41405669Y-62047426D01*
X41338007Y-61972279D01*
X41282304Y-61910415D01*
X41282303Y-61910414D01*
X41277882Y-61905504D01*
X41123381Y-61793252D01*
X41117353Y-61790568D01*
X41117351Y-61790567D01*
X40954948Y-61718261D01*
X40954947Y-61718261D01*
X40948917Y-61715576D01*
X40855516Y-61695723D01*
X40768573Y-61677242D01*
X40768568Y-61677242D01*
X40762116Y-61675870D01*
X40571142Y-61675870D01*
X40564690Y-61677242D01*
X40564685Y-61677242D01*
X40477742Y-61695723D01*
X40384341Y-61715576D01*
X40378311Y-61718261D01*
X40378310Y-61718261D01*
X40215907Y-61790567D01*
X40215905Y-61790568D01*
X40209877Y-61793252D01*
X40055376Y-61905504D01*
X40050955Y-61910414D01*
X40050954Y-61910415D01*
X39995252Y-61972279D01*
X39927589Y-62047426D01*
X39832102Y-62212814D01*
X39773087Y-62394442D01*
X39772397Y-62401003D01*
X39772397Y-62401005D01*
X39767768Y-62445045D01*
X39753125Y-62584370D01*
X22554087Y-62584370D01*
X22552435Y-61595000D01*
X33815996Y-61595000D01*
X33835958Y-61784928D01*
X33894973Y-61966556D01*
X33898276Y-61972278D01*
X33898277Y-61972279D01*
X33911351Y-61994924D01*
X33990460Y-62131944D01*
X33994878Y-62136851D01*
X33994879Y-62136852D01*
X34072170Y-62222692D01*
X34118247Y-62273866D01*
X34272748Y-62386118D01*
X34278776Y-62388802D01*
X34278778Y-62388803D01*
X34433327Y-62457612D01*
X34447212Y-62463794D01*
X34540613Y-62483647D01*
X34627556Y-62502128D01*
X34627561Y-62502128D01*
X34634013Y-62503500D01*
X34824987Y-62503500D01*
X34831439Y-62502128D01*
X34831444Y-62502128D01*
X34918387Y-62483647D01*
X35011788Y-62463794D01*
X35025673Y-62457612D01*
X35180222Y-62388803D01*
X35180224Y-62388802D01*
X35186252Y-62386118D01*
X35340753Y-62273866D01*
X35386830Y-62222692D01*
X35464121Y-62136852D01*
X35464122Y-62136851D01*
X35468540Y-62131944D01*
X35547649Y-61994924D01*
X35560723Y-61972279D01*
X35560724Y-61972278D01*
X35564027Y-61966556D01*
X35623042Y-61784928D01*
X35643004Y-61595000D01*
X35642314Y-61588435D01*
X35623732Y-61411635D01*
X35623732Y-61411633D01*
X35623042Y-61405072D01*
X35564027Y-61223444D01*
X35557776Y-61212616D01*
X35507744Y-61125959D01*
X35468540Y-61058056D01*
X35430784Y-61016123D01*
X35345175Y-60921045D01*
X35345174Y-60921044D01*
X35340753Y-60916134D01*
X35205095Y-60817572D01*
X35191594Y-60807763D01*
X35191593Y-60807762D01*
X35186252Y-60803882D01*
X35180224Y-60801198D01*
X35180222Y-60801197D01*
X35017819Y-60728891D01*
X35017818Y-60728891D01*
X35011788Y-60726206D01*
X34918387Y-60706353D01*
X34831444Y-60687872D01*
X34831439Y-60687872D01*
X34824987Y-60686500D01*
X34634013Y-60686500D01*
X34627561Y-60687872D01*
X34627556Y-60687872D01*
X34540613Y-60706353D01*
X34447212Y-60726206D01*
X34441182Y-60728891D01*
X34441181Y-60728891D01*
X34278778Y-60801197D01*
X34278776Y-60801198D01*
X34272748Y-60803882D01*
X34267407Y-60807762D01*
X34267406Y-60807763D01*
X34253905Y-60817572D01*
X34118247Y-60916134D01*
X34113826Y-60921044D01*
X34113825Y-60921045D01*
X34028217Y-61016123D01*
X33990460Y-61058056D01*
X33951256Y-61125959D01*
X33901225Y-61212616D01*
X33894973Y-61223444D01*
X33835958Y-61405072D01*
X33835268Y-61411633D01*
X33835268Y-61411635D01*
X33816686Y-61588435D01*
X33815996Y-61595000D01*
X22552435Y-61595000D01*
X22547983Y-58928000D01*
X29312496Y-58928000D01*
X29313186Y-58934562D01*
X29313186Y-58934565D01*
X29317032Y-58971153D01*
X29332458Y-59117928D01*
X29391473Y-59299556D01*
X29394776Y-59305278D01*
X29394777Y-59305279D01*
X29413737Y-59338118D01*
X29486960Y-59464944D01*
X29491378Y-59469851D01*
X29491379Y-59469852D01*
X29531856Y-59514806D01*
X29614747Y-59606866D01*
X29769248Y-59719118D01*
X29775276Y-59721802D01*
X29775278Y-59721803D01*
X29937681Y-59794109D01*
X29943712Y-59796794D01*
X30032653Y-59815699D01*
X30124056Y-59835128D01*
X30124061Y-59835128D01*
X30130513Y-59836500D01*
X30321487Y-59836500D01*
X30327939Y-59835128D01*
X30327944Y-59835128D01*
X30419347Y-59815699D01*
X30508288Y-59796794D01*
X30514319Y-59794109D01*
X30676722Y-59721803D01*
X30676724Y-59721802D01*
X30682752Y-59719118D01*
X30837253Y-59606866D01*
X30920144Y-59514806D01*
X30960621Y-59469852D01*
X30960622Y-59469851D01*
X30965040Y-59464944D01*
X31029521Y-59353260D01*
X31080902Y-59304268D01*
X31150616Y-59290832D01*
X31212700Y-59314325D01*
X31281215Y-59364104D01*
X31311060Y-59385788D01*
X31317088Y-59388472D01*
X31317090Y-59388473D01*
X31476005Y-59459226D01*
X31485524Y-59463464D01*
X31578925Y-59483317D01*
X31665868Y-59501798D01*
X31665873Y-59501798D01*
X31672325Y-59503170D01*
X31863299Y-59503170D01*
X31869751Y-59501798D01*
X31869756Y-59501798D01*
X31956699Y-59483317D01*
X32050100Y-59463464D01*
X32059619Y-59459226D01*
X32218534Y-59388473D01*
X32218536Y-59388472D01*
X32224564Y-59385788D01*
X32379065Y-59273536D01*
X32434628Y-59211827D01*
X32502433Y-59136522D01*
X32502434Y-59136521D01*
X32506852Y-59131614D01*
X32602339Y-58966226D01*
X32661354Y-58784598D01*
X32680798Y-58599597D01*
X34410339Y-58599597D01*
X34411029Y-58606162D01*
X34429528Y-58782166D01*
X34430301Y-58789525D01*
X34489316Y-58971153D01*
X34492619Y-58976875D01*
X34492620Y-58976876D01*
X34506228Y-59000446D01*
X34584803Y-59136541D01*
X34712590Y-59278463D01*
X34791019Y-59335445D01*
X34860310Y-59385788D01*
X34867091Y-59390715D01*
X34873119Y-59393399D01*
X34873121Y-59393400D01*
X35033570Y-59464836D01*
X35041555Y-59468391D01*
X35134955Y-59488244D01*
X35221899Y-59506725D01*
X35221904Y-59506725D01*
X35228356Y-59508097D01*
X35419330Y-59508097D01*
X35425782Y-59506725D01*
X35425787Y-59506725D01*
X35512731Y-59488244D01*
X35606131Y-59468391D01*
X35617198Y-59463464D01*
X35643005Y-59451974D01*
X35752446Y-59403248D01*
X35822811Y-59393814D01*
X35854940Y-59403247D01*
X35886202Y-59417166D01*
X35987171Y-59462120D01*
X35995308Y-59465743D01*
X36088708Y-59485596D01*
X36175652Y-59504077D01*
X36175657Y-59504077D01*
X36182109Y-59505449D01*
X36373083Y-59505449D01*
X36379535Y-59504077D01*
X36379540Y-59504077D01*
X36466484Y-59485596D01*
X36559884Y-59465743D01*
X36565915Y-59463058D01*
X36728318Y-59390752D01*
X36728320Y-59390751D01*
X36734348Y-59388067D01*
X36742827Y-59381907D01*
X36773938Y-59359303D01*
X36840805Y-59335445D01*
X36899248Y-59346132D01*
X37020483Y-59400109D01*
X37055712Y-59415794D01*
X37149112Y-59435647D01*
X37236056Y-59454128D01*
X37236061Y-59454128D01*
X37242513Y-59455500D01*
X37433487Y-59455500D01*
X37439939Y-59454128D01*
X37439944Y-59454128D01*
X37526888Y-59435647D01*
X37620288Y-59415794D01*
X37715197Y-59373538D01*
X37785563Y-59364104D01*
X37840507Y-59386710D01*
X37855253Y-59397424D01*
X37861281Y-59400108D01*
X37861283Y-59400109D01*
X38023686Y-59472415D01*
X38029717Y-59475100D01*
X38110472Y-59492265D01*
X38210061Y-59513434D01*
X38210066Y-59513434D01*
X38216518Y-59514806D01*
X38407492Y-59514806D01*
X38413944Y-59513434D01*
X38413949Y-59513434D01*
X38513538Y-59492265D01*
X38594293Y-59475100D01*
X38600324Y-59472415D01*
X38762727Y-59400109D01*
X38762729Y-59400108D01*
X38768757Y-59397424D01*
X38786978Y-59384186D01*
X38854063Y-59335445D01*
X38923258Y-59285172D01*
X39051045Y-59143250D01*
X39146532Y-58977862D01*
X39188003Y-58850229D01*
X39228077Y-58791624D01*
X39293474Y-58763987D01*
X39359085Y-58774059D01*
X39374212Y-58780794D01*
X39467613Y-58800647D01*
X39554556Y-58819128D01*
X39554561Y-58819128D01*
X39561013Y-58820500D01*
X39751987Y-58820500D01*
X39758439Y-58819128D01*
X39758444Y-58819128D01*
X39845387Y-58800647D01*
X39938788Y-58780794D01*
X39944985Y-58778035D01*
X40107222Y-58705803D01*
X40107224Y-58705802D01*
X40113252Y-58703118D01*
X40267753Y-58590866D01*
X40395540Y-58448944D01*
X40491027Y-58283556D01*
X40550042Y-58101928D01*
X40554677Y-58057834D01*
X40569314Y-57918565D01*
X40570004Y-57912000D01*
X40558845Y-57805831D01*
X40550732Y-57728635D01*
X40550732Y-57728633D01*
X40550042Y-57722072D01*
X40491027Y-57540444D01*
X40485575Y-57531000D01*
X40437577Y-57447866D01*
X40395540Y-57375056D01*
X40351233Y-57325848D01*
X40292718Y-57260860D01*
X40262000Y-57196853D01*
X40270765Y-57126399D01*
X40292718Y-57092240D01*
X40391121Y-56982952D01*
X40391122Y-56982951D01*
X40395540Y-56978044D01*
X40479900Y-56831928D01*
X40487723Y-56818379D01*
X40487724Y-56818378D01*
X40491027Y-56812656D01*
X40546477Y-56642000D01*
X41885496Y-56642000D01*
X41886186Y-56648565D01*
X41896192Y-56743763D01*
X41905458Y-56831928D01*
X41964473Y-57013556D01*
X41967776Y-57019278D01*
X41967777Y-57019279D01*
X41980982Y-57042151D01*
X42059960Y-57178944D01*
X42064378Y-57183851D01*
X42064379Y-57183852D01*
X42108753Y-57233134D01*
X42187747Y-57320866D01*
X42342248Y-57433118D01*
X42348276Y-57435802D01*
X42348278Y-57435803D01*
X42384094Y-57451749D01*
X42516712Y-57510794D01*
X42610112Y-57530647D01*
X42697056Y-57549128D01*
X42697061Y-57549128D01*
X42703513Y-57550500D01*
X42894487Y-57550500D01*
X42900939Y-57549128D01*
X42900944Y-57549128D01*
X42987888Y-57530647D01*
X43081288Y-57510794D01*
X43213906Y-57451749D01*
X43249722Y-57435803D01*
X43249724Y-57435802D01*
X43255752Y-57433118D01*
X43410253Y-57320866D01*
X43489247Y-57233134D01*
X43533621Y-57183852D01*
X43533622Y-57183851D01*
X43538040Y-57178944D01*
X43617018Y-57042151D01*
X43630223Y-57019279D01*
X43630224Y-57019278D01*
X43633527Y-57013556D01*
X43692542Y-56831928D01*
X43701809Y-56743763D01*
X43711814Y-56648565D01*
X43712504Y-56642000D01*
X43710599Y-56623872D01*
X43693232Y-56458635D01*
X43693232Y-56458633D01*
X43692542Y-56452072D01*
X43633527Y-56270444D01*
X43626190Y-56257735D01*
X43541194Y-56110519D01*
X43524456Y-56041524D01*
X43547676Y-55974432D01*
X43556665Y-55963223D01*
X43605538Y-55908944D01*
X43690241Y-55762234D01*
X43697721Y-55749279D01*
X43697722Y-55749278D01*
X43701025Y-55743556D01*
X43760040Y-55561928D01*
X43761393Y-55549060D01*
X43779312Y-55378565D01*
X43780002Y-55372000D01*
X43778128Y-55354168D01*
X43760730Y-55188635D01*
X43760730Y-55188633D01*
X43760040Y-55182072D01*
X43701025Y-55000444D01*
X43605538Y-54835056D01*
X43583720Y-54810824D01*
X43482173Y-54698045D01*
X43482172Y-54698044D01*
X43477751Y-54693134D01*
X43357827Y-54606004D01*
X43328592Y-54584763D01*
X43328591Y-54584762D01*
X43323250Y-54580882D01*
X43317222Y-54578198D01*
X43317220Y-54578197D01*
X43154817Y-54505891D01*
X43154816Y-54505891D01*
X43148786Y-54503206D01*
X43036219Y-54479279D01*
X42968442Y-54464872D01*
X42968437Y-54464872D01*
X42961985Y-54463500D01*
X42771011Y-54463500D01*
X42764559Y-54464872D01*
X42764554Y-54464872D01*
X42696777Y-54479279D01*
X42584210Y-54503206D01*
X42578180Y-54505891D01*
X42578179Y-54505891D01*
X42415776Y-54578197D01*
X42415774Y-54578198D01*
X42409746Y-54580882D01*
X42404405Y-54584762D01*
X42404404Y-54584763D01*
X42375169Y-54606004D01*
X42255245Y-54693134D01*
X42250824Y-54698044D01*
X42250823Y-54698045D01*
X42149277Y-54810824D01*
X42127458Y-54835056D01*
X42031971Y-55000444D01*
X41972956Y-55182072D01*
X41972266Y-55188633D01*
X41972266Y-55188635D01*
X41954868Y-55354168D01*
X41952994Y-55372000D01*
X41953684Y-55378565D01*
X41971604Y-55549060D01*
X41972956Y-55561928D01*
X42031971Y-55743556D01*
X42035274Y-55749278D01*
X42035275Y-55749279D01*
X42124304Y-55903481D01*
X42141042Y-55972476D01*
X42117822Y-56039568D01*
X42108833Y-56050777D01*
X42059960Y-56105056D01*
X42029840Y-56157226D01*
X41971811Y-56257735D01*
X41964473Y-56270444D01*
X41905458Y-56452072D01*
X41904768Y-56458633D01*
X41904768Y-56458635D01*
X41887401Y-56623872D01*
X41885496Y-56642000D01*
X40546477Y-56642000D01*
X40550042Y-56631028D01*
X40550939Y-56622500D01*
X40569314Y-56447665D01*
X40570004Y-56441100D01*
X40556094Y-56308749D01*
X40550732Y-56257735D01*
X40550732Y-56257733D01*
X40550042Y-56251172D01*
X40491027Y-56069544D01*
X40476558Y-56044482D01*
X40405043Y-55920616D01*
X40395540Y-55904156D01*
X40293546Y-55790880D01*
X40262831Y-55726876D01*
X40261874Y-55693402D01*
X40268269Y-55632565D01*
X40278257Y-55537530D01*
X40258295Y-55347602D01*
X40258208Y-55347336D01*
X40263430Y-55278884D01*
X40287640Y-55239165D01*
X40354580Y-55164821D01*
X40354581Y-55164820D01*
X40358999Y-55159913D01*
X40447161Y-55007213D01*
X40451182Y-55000248D01*
X40451183Y-55000247D01*
X40454486Y-54994525D01*
X40513501Y-54812897D01*
X40514319Y-54805120D01*
X40532773Y-54629534D01*
X40533463Y-54622969D01*
X40521917Y-54513118D01*
X40514191Y-54439604D01*
X40514191Y-54439602D01*
X40513501Y-54433041D01*
X40454486Y-54251413D01*
X40358999Y-54086025D01*
X40231212Y-53944103D01*
X40076711Y-53831851D01*
X40070683Y-53829167D01*
X40070681Y-53829166D01*
X39908278Y-53756860D01*
X39908277Y-53756860D01*
X39902247Y-53754175D01*
X39808846Y-53734322D01*
X39721903Y-53715841D01*
X39721898Y-53715841D01*
X39715446Y-53714469D01*
X39524472Y-53714469D01*
X39518019Y-53715841D01*
X39518006Y-53715842D01*
X39409225Y-53738965D01*
X39338435Y-53733564D01*
X39281802Y-53690747D01*
X39257718Y-53628890D01*
X39248232Y-53538635D01*
X39248232Y-53538633D01*
X39247542Y-53532072D01*
X39188527Y-53350444D01*
X39156436Y-53294860D01*
X39120839Y-53233206D01*
X39093040Y-53185056D01*
X39026020Y-53110622D01*
X38969675Y-53048045D01*
X38969674Y-53048044D01*
X38965253Y-53043134D01*
X38810752Y-52930882D01*
X38804724Y-52928198D01*
X38804722Y-52928197D01*
X38642319Y-52855891D01*
X38642318Y-52855891D01*
X38636288Y-52853206D01*
X38542887Y-52833353D01*
X38455944Y-52814872D01*
X38455939Y-52814872D01*
X38449487Y-52813500D01*
X38258513Y-52813500D01*
X38252061Y-52814872D01*
X38252056Y-52814872D01*
X38165113Y-52833353D01*
X38071712Y-52853206D01*
X38065685Y-52855889D01*
X38065677Y-52855892D01*
X37980393Y-52893863D01*
X37910026Y-52903297D01*
X37845729Y-52873190D01*
X37807916Y-52813101D01*
X37809312Y-52739820D01*
X37836607Y-52655816D01*
X37850542Y-52612928D01*
X37870504Y-52423000D01*
X37850542Y-52233072D01*
X37791527Y-52051444D01*
X37696040Y-51886056D01*
X37690794Y-51880229D01*
X37572675Y-51749045D01*
X37572674Y-51749044D01*
X37568253Y-51744134D01*
X37413752Y-51631882D01*
X37407724Y-51629198D01*
X37407722Y-51629197D01*
X37245319Y-51556891D01*
X37245318Y-51556891D01*
X37239288Y-51554206D01*
X37145888Y-51534353D01*
X37058944Y-51515872D01*
X37058939Y-51515872D01*
X37052487Y-51514500D01*
X36861513Y-51514500D01*
X36855061Y-51515872D01*
X36855056Y-51515872D01*
X36768113Y-51534353D01*
X36674712Y-51554206D01*
X36668682Y-51556891D01*
X36668681Y-51556891D01*
X36506278Y-51629197D01*
X36506276Y-51629198D01*
X36500248Y-51631882D01*
X36494907Y-51635762D01*
X36489189Y-51639064D01*
X36488345Y-51637602D01*
X36429399Y-51658637D01*
X36370953Y-51647950D01*
X36223288Y-51582206D01*
X36129888Y-51562353D01*
X36042944Y-51543872D01*
X36042939Y-51543872D01*
X36036487Y-51542500D01*
X35845513Y-51542500D01*
X35839061Y-51543872D01*
X35839056Y-51543872D01*
X35752113Y-51562353D01*
X35658712Y-51582206D01*
X35652682Y-51584891D01*
X35652681Y-51584891D01*
X35490278Y-51657197D01*
X35490276Y-51657198D01*
X35484248Y-51659882D01*
X35478907Y-51663762D01*
X35478906Y-51663763D01*
X35457169Y-51679556D01*
X35329747Y-51772134D01*
X35325326Y-51777044D01*
X35325325Y-51777045D01*
X35320187Y-51782752D01*
X35201960Y-51914056D01*
X35198659Y-51919774D01*
X35113326Y-52067575D01*
X35106473Y-52079444D01*
X35047458Y-52261072D01*
X35027496Y-52451000D01*
X35028186Y-52457565D01*
X35046211Y-52629059D01*
X35047458Y-52640928D01*
X35106473Y-52822556D01*
X35109776Y-52828278D01*
X35109777Y-52828279D01*
X35135707Y-52873190D01*
X35201960Y-52987944D01*
X35206378Y-52992851D01*
X35206379Y-52992852D01*
X35236226Y-53026000D01*
X35329747Y-53129866D01*
X35417331Y-53193500D01*
X35471982Y-53233206D01*
X35484248Y-53242118D01*
X35490276Y-53244802D01*
X35490278Y-53244803D01*
X35638695Y-53310882D01*
X35658712Y-53319794D01*
X35752113Y-53339647D01*
X35839056Y-53358128D01*
X35839061Y-53358128D01*
X35845513Y-53359500D01*
X36036487Y-53359500D01*
X36042939Y-53358128D01*
X36042944Y-53358128D01*
X36129887Y-53339647D01*
X36223288Y-53319794D01*
X36243305Y-53310882D01*
X36391722Y-53244803D01*
X36391724Y-53244802D01*
X36397752Y-53242118D01*
X36403094Y-53238237D01*
X36408811Y-53234936D01*
X36409655Y-53236398D01*
X36468601Y-53215363D01*
X36527047Y-53226050D01*
X36674712Y-53291794D01*
X36768113Y-53311647D01*
X36855056Y-53330128D01*
X36855061Y-53330128D01*
X36861513Y-53331500D01*
X37052487Y-53331500D01*
X37058939Y-53330128D01*
X37058944Y-53330128D01*
X37145887Y-53311647D01*
X37239288Y-53291794D01*
X37245315Y-53289111D01*
X37245323Y-53289108D01*
X37330607Y-53251137D01*
X37400974Y-53241703D01*
X37465271Y-53271810D01*
X37503084Y-53331899D01*
X37501688Y-53405180D01*
X37460458Y-53532072D01*
X37459768Y-53538633D01*
X37459768Y-53538635D01*
X37451487Y-53617428D01*
X37440496Y-53722000D01*
X37441186Y-53728565D01*
X37452450Y-53835732D01*
X37460458Y-53911928D01*
X37519473Y-54093556D01*
X37614960Y-54258944D01*
X37619378Y-54263851D01*
X37619379Y-54263852D01*
X37703022Y-54356747D01*
X37742747Y-54400866D01*
X37897248Y-54513118D01*
X37903276Y-54515802D01*
X37903278Y-54515803D01*
X38049449Y-54580882D01*
X38071712Y-54590794D01*
X38162069Y-54610000D01*
X38252056Y-54629128D01*
X38252061Y-54629128D01*
X38258513Y-54630500D01*
X38449487Y-54630500D01*
X38455940Y-54629128D01*
X38455953Y-54629127D01*
X38564734Y-54606004D01*
X38635524Y-54611405D01*
X38692157Y-54654222D01*
X38716241Y-54716079D01*
X38726417Y-54812897D01*
X38726504Y-54813163D01*
X38721282Y-54881615D01*
X38697072Y-54921334D01*
X38625713Y-55000586D01*
X38530226Y-55165974D01*
X38471211Y-55347602D01*
X38470521Y-55354163D01*
X38470521Y-55354165D01*
X38461223Y-55442635D01*
X38451249Y-55537530D01*
X38451939Y-55544094D01*
X38451939Y-55544095D01*
X38467632Y-55693402D01*
X38471211Y-55727458D01*
X38530226Y-55909086D01*
X38533529Y-55914808D01*
X38533530Y-55914809D01*
X38566824Y-55972476D01*
X38625713Y-56074474D01*
X38727707Y-56187750D01*
X38758422Y-56251754D01*
X38759379Y-56285225D01*
X38742996Y-56441100D01*
X38743686Y-56447665D01*
X38762062Y-56622500D01*
X38762958Y-56631028D01*
X38821973Y-56812656D01*
X38825276Y-56818378D01*
X38825277Y-56818379D01*
X38833100Y-56831928D01*
X38917460Y-56978044D01*
X38921878Y-56982951D01*
X38921879Y-56982952D01*
X39020282Y-57092240D01*
X39051000Y-57156247D01*
X39042235Y-57226701D01*
X39020282Y-57260860D01*
X38961767Y-57325848D01*
X38917460Y-57375056D01*
X38875423Y-57447866D01*
X38827426Y-57531000D01*
X38821973Y-57540444D01*
X38814708Y-57562803D01*
X38780502Y-57668077D01*
X38740428Y-57726682D01*
X38675031Y-57754319D01*
X38609420Y-57744247D01*
X38600324Y-57740197D01*
X38600323Y-57740197D01*
X38594293Y-57737512D01*
X38500893Y-57717659D01*
X38413949Y-57699178D01*
X38413944Y-57699178D01*
X38407492Y-57697806D01*
X38216518Y-57697806D01*
X38210066Y-57699178D01*
X38210061Y-57699178D01*
X38123117Y-57717659D01*
X38029717Y-57737512D01*
X37934808Y-57779768D01*
X37864442Y-57789202D01*
X37809498Y-57766596D01*
X37794752Y-57755882D01*
X37788724Y-57753198D01*
X37788722Y-57753197D01*
X37626319Y-57680891D01*
X37626318Y-57680891D01*
X37620288Y-57678206D01*
X37526887Y-57658353D01*
X37439944Y-57639872D01*
X37439939Y-57639872D01*
X37433487Y-57638500D01*
X37242513Y-57638500D01*
X37236061Y-57639872D01*
X37236056Y-57639872D01*
X37149113Y-57658353D01*
X37055712Y-57678206D01*
X37049682Y-57680891D01*
X37049681Y-57680891D01*
X36887278Y-57753197D01*
X36887276Y-57753198D01*
X36881248Y-57755882D01*
X36875909Y-57759761D01*
X36875906Y-57759763D01*
X36841658Y-57784646D01*
X36774791Y-57808504D01*
X36716348Y-57797817D01*
X36565915Y-57730840D01*
X36565914Y-57730840D01*
X36559884Y-57728155D01*
X36466484Y-57708302D01*
X36379540Y-57689821D01*
X36379535Y-57689821D01*
X36373083Y-57688449D01*
X36182109Y-57688449D01*
X36175657Y-57689821D01*
X36175652Y-57689821D01*
X36088708Y-57708302D01*
X35995308Y-57728155D01*
X35848993Y-57793298D01*
X35778628Y-57802732D01*
X35746499Y-57793299D01*
X35636327Y-57744247D01*
X35612162Y-57733488D01*
X35612161Y-57733488D01*
X35606131Y-57730803D01*
X35512731Y-57710950D01*
X35425787Y-57692469D01*
X35425782Y-57692469D01*
X35419330Y-57691097D01*
X35228356Y-57691097D01*
X35221904Y-57692469D01*
X35221899Y-57692469D01*
X35134955Y-57710950D01*
X35041555Y-57730803D01*
X35035525Y-57733488D01*
X35035524Y-57733488D01*
X34873121Y-57805794D01*
X34873119Y-57805795D01*
X34867091Y-57808479D01*
X34712590Y-57920731D01*
X34708169Y-57925641D01*
X34708168Y-57925642D01*
X34613094Y-58031233D01*
X34584803Y-58062653D01*
X34562128Y-58101928D01*
X34497568Y-58213749D01*
X34489316Y-58228041D01*
X34430301Y-58409669D01*
X34429611Y-58416230D01*
X34429611Y-58416232D01*
X34414214Y-58562729D01*
X34410339Y-58599597D01*
X32680798Y-58599597D01*
X32681316Y-58594670D01*
X32677959Y-58562729D01*
X32674839Y-58533041D01*
X32687612Y-58463202D01*
X32726086Y-58417936D01*
X32750934Y-58399883D01*
X32878721Y-58257961D01*
X32974208Y-58092573D01*
X33033223Y-57910945D01*
X33043993Y-57808479D01*
X33052495Y-57727582D01*
X33053185Y-57721017D01*
X33046649Y-57658826D01*
X33033913Y-57537652D01*
X33033913Y-57537650D01*
X33033223Y-57531089D01*
X32974208Y-57349461D01*
X32959941Y-57324749D01*
X32894119Y-57210743D01*
X32878721Y-57184073D01*
X32868955Y-57173226D01*
X32755356Y-57047062D01*
X32755355Y-57047061D01*
X32750934Y-57042151D01*
X32636388Y-56958928D01*
X32601775Y-56933780D01*
X32601774Y-56933779D01*
X32596433Y-56929899D01*
X32590405Y-56927215D01*
X32590403Y-56927214D01*
X32428000Y-56854908D01*
X32427999Y-56854908D01*
X32421969Y-56852223D01*
X32295613Y-56825365D01*
X32292339Y-56824669D01*
X32229865Y-56790940D01*
X32209417Y-56764422D01*
X32149610Y-56660834D01*
X32121194Y-56611616D01*
X31993407Y-56469694D01*
X31960749Y-56445967D01*
X31917397Y-56389747D01*
X31911320Y-56319011D01*
X31944451Y-56256219D01*
X31960745Y-56242099D01*
X31980253Y-56227926D01*
X32038763Y-56162944D01*
X32103621Y-56090912D01*
X32103622Y-56090911D01*
X32108040Y-56086004D01*
X32175293Y-55969518D01*
X32200223Y-55926339D01*
X32200224Y-55926338D01*
X32203527Y-55920616D01*
X32262542Y-55738988D01*
X32282504Y-55549060D01*
X32280602Y-55530965D01*
X32263232Y-55365695D01*
X32263232Y-55365693D01*
X32262542Y-55359132D01*
X32203527Y-55177504D01*
X32196205Y-55164821D01*
X32111341Y-55017834D01*
X32108040Y-55012116D01*
X32097659Y-55000586D01*
X31984675Y-54875105D01*
X31984674Y-54875104D01*
X31980253Y-54870194D01*
X31968066Y-54861340D01*
X31924713Y-54805120D01*
X31918636Y-54734384D01*
X31948490Y-54675094D01*
X31967284Y-54654222D01*
X31981040Y-54638944D01*
X32076527Y-54473556D01*
X32135542Y-54291928D01*
X32140402Y-54245693D01*
X32154814Y-54108565D01*
X32155504Y-54102000D01*
X32141562Y-53969352D01*
X32136232Y-53918635D01*
X32136232Y-53918633D01*
X32135542Y-53912072D01*
X32076527Y-53730444D01*
X31981040Y-53565056D01*
X31957251Y-53538635D01*
X31857675Y-53428045D01*
X31857674Y-53428044D01*
X31853253Y-53423134D01*
X31712907Y-53321166D01*
X31704094Y-53314763D01*
X31704093Y-53314762D01*
X31698752Y-53310882D01*
X31692713Y-53308193D01*
X31687424Y-53305839D01*
X31662762Y-53294858D01*
X31608668Y-53248881D01*
X31588017Y-53180954D01*
X31607368Y-53112645D01*
X31662762Y-53064646D01*
X31692714Y-53051310D01*
X31692719Y-53051307D01*
X31698752Y-53048621D01*
X31853253Y-52936369D01*
X31981040Y-52794447D01*
X32066050Y-52647206D01*
X32073223Y-52634782D01*
X32073224Y-52634781D01*
X32076527Y-52629059D01*
X32135542Y-52447431D01*
X32155504Y-52257503D01*
X32137450Y-52085729D01*
X32136232Y-52074138D01*
X32136232Y-52074136D01*
X32135542Y-52067575D01*
X32076527Y-51885947D01*
X32053319Y-51845750D01*
X32036582Y-51776758D01*
X32053320Y-51719752D01*
X32073223Y-51685279D01*
X32073224Y-51685278D01*
X32076527Y-51679556D01*
X32135542Y-51497928D01*
X32137196Y-51482196D01*
X32154814Y-51314565D01*
X32155504Y-51308000D01*
X32138062Y-51142045D01*
X32136233Y-51124642D01*
X32136232Y-51124635D01*
X32135542Y-51118072D01*
X32124310Y-51083504D01*
X32122282Y-51012538D01*
X32158944Y-50951740D01*
X32217945Y-50921322D01*
X32279824Y-50908169D01*
X32279833Y-50908166D01*
X32286288Y-50906794D01*
X32352639Y-50877253D01*
X32431088Y-50842325D01*
X32501455Y-50832891D01*
X32565752Y-50862997D01*
X32603566Y-50923086D01*
X32607442Y-50950992D01*
X32607647Y-50950970D01*
X32608337Y-50957535D01*
X32618380Y-51053085D01*
X32627609Y-51140898D01*
X32686624Y-51322526D01*
X32782111Y-51487914D01*
X32786529Y-51492821D01*
X32786530Y-51492822D01*
X32844218Y-51556891D01*
X32909898Y-51629836D01*
X33064399Y-51742088D01*
X33070427Y-51744772D01*
X33070429Y-51744773D01*
X33230409Y-51816000D01*
X33238863Y-51819764D01*
X33332264Y-51839617D01*
X33419207Y-51858098D01*
X33419212Y-51858098D01*
X33425664Y-51859470D01*
X33616638Y-51859470D01*
X33623090Y-51858098D01*
X33623095Y-51858098D01*
X33710039Y-51839617D01*
X33803439Y-51819764D01*
X33811893Y-51816000D01*
X33971873Y-51744773D01*
X33971875Y-51744772D01*
X33977903Y-51742088D01*
X34132404Y-51629836D01*
X34198084Y-51556891D01*
X34255772Y-51492822D01*
X34255773Y-51492821D01*
X34260191Y-51487914D01*
X34355678Y-51322526D01*
X34414693Y-51140898D01*
X34426341Y-51030076D01*
X34453353Y-50964421D01*
X34511574Y-50923791D01*
X34577846Y-50920001D01*
X34620669Y-50929103D01*
X34696056Y-50945128D01*
X34696061Y-50945128D01*
X34702513Y-50946500D01*
X34893487Y-50946500D01*
X34899939Y-50945128D01*
X34899944Y-50945128D01*
X34986887Y-50926647D01*
X35080288Y-50906794D01*
X35086319Y-50904109D01*
X35248722Y-50831803D01*
X35248724Y-50831802D01*
X35254752Y-50829118D01*
X35288021Y-50804947D01*
X35348450Y-50761042D01*
X35409253Y-50716866D01*
X35437856Y-50685099D01*
X35532621Y-50579852D01*
X35532622Y-50579851D01*
X35537040Y-50574944D01*
X35615409Y-50439206D01*
X35629223Y-50415279D01*
X35629224Y-50415278D01*
X35632527Y-50409556D01*
X35691542Y-50227928D01*
X35695055Y-50194509D01*
X35710814Y-50044565D01*
X35711504Y-50038000D01*
X37186496Y-50038000D01*
X37187186Y-50044565D01*
X37202946Y-50194509D01*
X37206458Y-50227928D01*
X37265473Y-50409556D01*
X37268776Y-50415278D01*
X37268777Y-50415279D01*
X37282591Y-50439206D01*
X37360960Y-50574944D01*
X37365378Y-50579851D01*
X37365379Y-50579852D01*
X37460144Y-50685099D01*
X37488747Y-50716866D01*
X37549550Y-50761042D01*
X37609980Y-50804947D01*
X37643248Y-50829118D01*
X37649276Y-50831802D01*
X37649278Y-50831803D01*
X37811681Y-50904109D01*
X37817712Y-50906794D01*
X37911113Y-50926647D01*
X37998056Y-50945128D01*
X37998061Y-50945128D01*
X38004513Y-50946500D01*
X38195487Y-50946500D01*
X38201939Y-50945128D01*
X38201944Y-50945128D01*
X38288887Y-50926647D01*
X38382288Y-50906794D01*
X38388319Y-50904109D01*
X38550722Y-50831803D01*
X38550724Y-50831802D01*
X38556752Y-50829118D01*
X38590021Y-50804947D01*
X38650450Y-50761042D01*
X38711253Y-50716866D01*
X38739856Y-50685099D01*
X38834621Y-50579852D01*
X38834622Y-50579851D01*
X38839040Y-50574944D01*
X38917409Y-50439206D01*
X38931223Y-50415279D01*
X38931224Y-50415278D01*
X38934527Y-50409556D01*
X38993542Y-50227928D01*
X38997055Y-50194509D01*
X39012814Y-50044565D01*
X39013504Y-50038000D01*
X39010681Y-50011144D01*
X41324075Y-50011144D01*
X41344037Y-50201072D01*
X41403052Y-50382700D01*
X41406355Y-50388422D01*
X41406356Y-50388423D01*
X41427288Y-50424678D01*
X41498539Y-50548088D01*
X41626326Y-50690010D01*
X41780827Y-50802262D01*
X41786855Y-50804946D01*
X41786857Y-50804947D01*
X41832430Y-50825237D01*
X41951145Y-50878092D01*
X41955291Y-50879938D01*
X41954953Y-50880696D01*
X42009120Y-50917732D01*
X42036758Y-50983127D01*
X42024654Y-51053085D01*
X41985642Y-51099429D01*
X41939093Y-51133249D01*
X41939091Y-51133251D01*
X41933747Y-51137134D01*
X41805960Y-51279056D01*
X41710473Y-51444444D01*
X41651458Y-51626072D01*
X41650768Y-51632633D01*
X41650768Y-51632635D01*
X41645235Y-51685279D01*
X41631496Y-51816000D01*
X41651458Y-52005928D01*
X41710473Y-52187556D01*
X41805960Y-52352944D01*
X41810378Y-52357851D01*
X41810379Y-52357852D01*
X41874950Y-52429565D01*
X41933747Y-52494866D01*
X42088248Y-52607118D01*
X42094276Y-52609802D01*
X42094278Y-52609803D01*
X42256681Y-52682109D01*
X42262712Y-52684794D01*
X42356113Y-52704647D01*
X42443056Y-52723128D01*
X42443061Y-52723128D01*
X42449513Y-52724500D01*
X42640487Y-52724500D01*
X42646939Y-52723128D01*
X42646944Y-52723128D01*
X42733888Y-52704647D01*
X42827288Y-52684794D01*
X42833319Y-52682109D01*
X42995722Y-52609803D01*
X42995724Y-52609802D01*
X43001752Y-52607118D01*
X43156253Y-52494866D01*
X43215050Y-52429565D01*
X43279621Y-52357852D01*
X43279622Y-52357851D01*
X43284040Y-52352944D01*
X43379527Y-52187556D01*
X43438542Y-52005928D01*
X43458504Y-51816000D01*
X43444765Y-51685279D01*
X43439232Y-51632635D01*
X43439232Y-51632633D01*
X43438542Y-51626072D01*
X43379527Y-51444444D01*
X43284040Y-51279056D01*
X43156253Y-51137134D01*
X43001752Y-51024882D01*
X42995724Y-51022198D01*
X42995722Y-51022197D01*
X42900765Y-50979920D01*
X42827288Y-50947206D01*
X42827626Y-50946448D01*
X42773459Y-50909412D01*
X42745821Y-50844017D01*
X42757925Y-50774059D01*
X42796937Y-50727715D01*
X42843486Y-50693895D01*
X42843491Y-50693890D01*
X42848832Y-50690010D01*
X42976619Y-50548088D01*
X43047870Y-50424678D01*
X43068802Y-50388423D01*
X43068803Y-50388422D01*
X43072106Y-50382700D01*
X43131121Y-50201072D01*
X43151083Y-50011144D01*
X43150393Y-50004579D01*
X43131811Y-49827779D01*
X43131811Y-49827777D01*
X43131121Y-49821216D01*
X43072106Y-49639588D01*
X42976619Y-49474200D01*
X42848832Y-49332278D01*
X42731295Y-49246882D01*
X42699673Y-49223907D01*
X42699672Y-49223906D01*
X42694331Y-49220026D01*
X42688303Y-49217342D01*
X42688301Y-49217341D01*
X42525898Y-49145035D01*
X42525897Y-49145035D01*
X42519867Y-49142350D01*
X42426466Y-49122497D01*
X42339523Y-49104016D01*
X42339518Y-49104016D01*
X42333066Y-49102644D01*
X42142092Y-49102644D01*
X42135640Y-49104016D01*
X42135635Y-49104016D01*
X42048692Y-49122497D01*
X41955291Y-49142350D01*
X41949261Y-49145035D01*
X41949260Y-49145035D01*
X41786857Y-49217341D01*
X41786855Y-49217342D01*
X41780827Y-49220026D01*
X41775486Y-49223906D01*
X41775485Y-49223907D01*
X41743863Y-49246882D01*
X41626326Y-49332278D01*
X41498539Y-49474200D01*
X41403052Y-49639588D01*
X41344037Y-49821216D01*
X41343347Y-49827777D01*
X41343347Y-49827779D01*
X41324765Y-50004579D01*
X41324075Y-50011144D01*
X39010681Y-50011144D01*
X38993542Y-49848072D01*
X38934527Y-49666444D01*
X38915718Y-49633865D01*
X38842341Y-49506774D01*
X38839040Y-49501056D01*
X38711253Y-49359134D01*
X38556752Y-49246882D01*
X38550724Y-49244198D01*
X38550722Y-49244197D01*
X38388319Y-49171891D01*
X38388318Y-49171891D01*
X38382288Y-49169206D01*
X38288888Y-49149353D01*
X38201944Y-49130872D01*
X38201939Y-49130872D01*
X38195487Y-49129500D01*
X38004513Y-49129500D01*
X37998061Y-49130872D01*
X37998056Y-49130872D01*
X37911112Y-49149353D01*
X37817712Y-49169206D01*
X37811682Y-49171891D01*
X37811681Y-49171891D01*
X37649278Y-49244197D01*
X37649276Y-49244198D01*
X37643248Y-49246882D01*
X37488747Y-49359134D01*
X37360960Y-49501056D01*
X37357659Y-49506774D01*
X37284283Y-49633865D01*
X37265473Y-49666444D01*
X37206458Y-49848072D01*
X37186496Y-50038000D01*
X35711504Y-50038000D01*
X35691542Y-49848072D01*
X35632527Y-49666444D01*
X35613718Y-49633865D01*
X35540341Y-49506774D01*
X35537040Y-49501056D01*
X35409253Y-49359134D01*
X35254752Y-49246882D01*
X35248724Y-49244198D01*
X35248722Y-49244197D01*
X35086319Y-49171891D01*
X35086318Y-49171891D01*
X35080288Y-49169206D01*
X34986888Y-49149353D01*
X34899944Y-49130872D01*
X34899939Y-49130872D01*
X34893487Y-49129500D01*
X34702513Y-49129500D01*
X34696061Y-49130872D01*
X34696056Y-49130872D01*
X34609112Y-49149353D01*
X34515712Y-49169206D01*
X34341248Y-49246882D01*
X34270882Y-49256316D01*
X34238753Y-49246882D01*
X34238752Y-49246882D01*
X34064288Y-49169206D01*
X33970888Y-49149353D01*
X33883944Y-49130872D01*
X33883939Y-49130872D01*
X33877487Y-49129500D01*
X33686513Y-49129500D01*
X33680061Y-49130872D01*
X33680056Y-49130872D01*
X33593112Y-49149353D01*
X33499712Y-49169206D01*
X33493682Y-49171891D01*
X33493681Y-49171891D01*
X33331278Y-49244197D01*
X33331276Y-49244198D01*
X33325248Y-49246882D01*
X33170747Y-49359134D01*
X33042960Y-49501056D01*
X33039659Y-49506774D01*
X33002119Y-49571795D01*
X32950737Y-49620788D01*
X32881023Y-49634224D01*
X32815112Y-49607838D01*
X32783881Y-49571795D01*
X32746341Y-49506774D01*
X32743040Y-49501056D01*
X32615253Y-49359134D01*
X32460752Y-49246882D01*
X32454724Y-49244198D01*
X32454722Y-49244197D01*
X32292319Y-49171891D01*
X32292318Y-49171891D01*
X32286288Y-49169206D01*
X32192888Y-49149353D01*
X32105944Y-49130872D01*
X32105939Y-49130872D01*
X32099487Y-49129500D01*
X31908513Y-49129500D01*
X31902061Y-49130872D01*
X31902056Y-49130872D01*
X31815112Y-49149353D01*
X31721712Y-49169206D01*
X31715682Y-49171891D01*
X31715681Y-49171891D01*
X31553278Y-49244197D01*
X31553276Y-49244198D01*
X31547248Y-49246882D01*
X31392747Y-49359134D01*
X31264960Y-49501056D01*
X31261659Y-49506774D01*
X31188283Y-49633865D01*
X31169473Y-49666444D01*
X31110458Y-49848072D01*
X31090496Y-50038000D01*
X31091186Y-50044565D01*
X31106946Y-50194509D01*
X31110458Y-50227928D01*
X31121690Y-50262496D01*
X31123718Y-50333462D01*
X31087056Y-50394260D01*
X31028055Y-50424678D01*
X30966176Y-50437831D01*
X30966167Y-50437834D01*
X30959712Y-50439206D01*
X30953682Y-50441891D01*
X30953681Y-50441891D01*
X30791278Y-50514197D01*
X30791276Y-50514198D01*
X30785248Y-50516882D01*
X30630747Y-50629134D01*
X30626326Y-50634044D01*
X30626325Y-50634045D01*
X30511977Y-50761042D01*
X30502960Y-50771056D01*
X30461813Y-50842325D01*
X30417065Y-50919831D01*
X30407473Y-50936444D01*
X30348458Y-51118072D01*
X30347768Y-51124633D01*
X30347768Y-51124635D01*
X30346059Y-51140898D01*
X30328496Y-51308000D01*
X30329186Y-51314565D01*
X30346805Y-51482196D01*
X30348458Y-51497928D01*
X30407473Y-51679556D01*
X30410776Y-51685278D01*
X30410777Y-51685279D01*
X30430680Y-51719752D01*
X30447418Y-51788748D01*
X30430681Y-51845750D01*
X30407473Y-51885947D01*
X30348458Y-52067575D01*
X30347768Y-52074136D01*
X30347768Y-52074138D01*
X30346550Y-52085729D01*
X30328496Y-52257503D01*
X30348458Y-52447431D01*
X30407473Y-52629059D01*
X30410776Y-52634781D01*
X30410777Y-52634782D01*
X30417950Y-52647206D01*
X30502960Y-52794447D01*
X30630747Y-52936369D01*
X30785248Y-53048621D01*
X30791275Y-53051304D01*
X30791276Y-53051305D01*
X30796576Y-53053664D01*
X30821238Y-53064645D01*
X30875332Y-53110622D01*
X30895983Y-53178549D01*
X30876632Y-53246858D01*
X30821238Y-53294857D01*
X30791286Y-53308193D01*
X30791281Y-53308196D01*
X30785248Y-53310882D01*
X30779907Y-53314762D01*
X30779906Y-53314763D01*
X30771093Y-53321166D01*
X30630747Y-53423134D01*
X30626326Y-53428044D01*
X30626325Y-53428045D01*
X30526750Y-53538635D01*
X30502960Y-53565056D01*
X30407473Y-53730444D01*
X30348458Y-53912072D01*
X30347768Y-53918633D01*
X30347768Y-53918635D01*
X30342438Y-53969352D01*
X30328496Y-54102000D01*
X30329186Y-54108565D01*
X30343599Y-54245693D01*
X30348458Y-54291928D01*
X30407473Y-54473556D01*
X30502960Y-54638944D01*
X30507375Y-54643847D01*
X30507379Y-54643852D01*
X30588894Y-54734384D01*
X30630747Y-54780866D01*
X30642934Y-54789720D01*
X30686287Y-54845940D01*
X30692364Y-54916676D01*
X30662511Y-54975965D01*
X30629960Y-55012116D01*
X30626659Y-55017834D01*
X30541796Y-55164821D01*
X30534473Y-55177504D01*
X30475458Y-55359132D01*
X30474768Y-55365693D01*
X30474768Y-55365695D01*
X30457398Y-55530965D01*
X30455496Y-55549060D01*
X30475458Y-55738988D01*
X30534473Y-55920616D01*
X30537776Y-55926338D01*
X30537777Y-55926339D01*
X30562707Y-55969518D01*
X30629960Y-56086004D01*
X30634378Y-56090911D01*
X30634379Y-56090912D01*
X30699237Y-56162944D01*
X30757747Y-56227926D01*
X30790405Y-56251653D01*
X30833757Y-56307873D01*
X30839834Y-56378609D01*
X30806703Y-56441401D01*
X30790409Y-56455521D01*
X30770901Y-56469694D01*
X30643114Y-56611616D01*
X30547627Y-56777004D01*
X30488612Y-56958632D01*
X30487922Y-56965193D01*
X30487922Y-56965195D01*
X30484889Y-56994056D01*
X30468650Y-57148560D01*
X30469340Y-57155125D01*
X30469340Y-57155127D01*
X30475185Y-57210743D01*
X30462412Y-57280581D01*
X30423937Y-57325848D01*
X30376747Y-57360134D01*
X30372327Y-57365043D01*
X30294257Y-57451749D01*
X30248960Y-57502056D01*
X30218802Y-57554291D01*
X30158449Y-57658826D01*
X30153473Y-57667444D01*
X30150422Y-57676834D01*
X30106387Y-57812360D01*
X30094458Y-57849072D01*
X30093768Y-57855637D01*
X30084881Y-57940191D01*
X30057868Y-58005848D01*
X29999646Y-58046478D01*
X29985788Y-58050262D01*
X29943712Y-58059206D01*
X29882885Y-58086288D01*
X29775278Y-58134197D01*
X29775276Y-58134198D01*
X29769248Y-58136882D01*
X29614747Y-58249134D01*
X29486960Y-58391056D01*
X29391473Y-58556444D01*
X29332458Y-58738072D01*
X29331768Y-58744633D01*
X29331768Y-58744635D01*
X29320670Y-58850229D01*
X29312496Y-58928000D01*
X22547983Y-58928000D01*
X22545651Y-57531000D01*
X22962496Y-57531000D01*
X22963186Y-57537565D01*
X22979323Y-57691097D01*
X22982458Y-57720928D01*
X23041473Y-57902556D01*
X23044776Y-57908278D01*
X23044777Y-57908279D01*
X23049941Y-57917223D01*
X23136960Y-58067944D01*
X23264747Y-58209866D01*
X23419248Y-58322118D01*
X23425276Y-58324802D01*
X23425278Y-58324803D01*
X23586929Y-58396774D01*
X23593712Y-58399794D01*
X23679058Y-58417935D01*
X23774056Y-58438128D01*
X23774061Y-58438128D01*
X23780513Y-58439500D01*
X23971487Y-58439500D01*
X23977939Y-58438128D01*
X23977944Y-58438128D01*
X24072942Y-58417935D01*
X24158288Y-58399794D01*
X24165071Y-58396774D01*
X24326722Y-58324803D01*
X24326724Y-58324802D01*
X24332752Y-58322118D01*
X24487253Y-58209866D01*
X24615040Y-58067944D01*
X24702059Y-57917223D01*
X24707223Y-57908279D01*
X24707224Y-57908278D01*
X24710527Y-57902556D01*
X24769542Y-57720928D01*
X24772678Y-57691097D01*
X24788814Y-57537565D01*
X24789504Y-57531000D01*
X24788814Y-57524435D01*
X24770232Y-57347635D01*
X24770232Y-57347633D01*
X24769542Y-57341072D01*
X24710527Y-57159444D01*
X24691449Y-57126399D01*
X24640566Y-57038268D01*
X24615040Y-56994056D01*
X24589064Y-56965206D01*
X24491675Y-56857045D01*
X24491674Y-56857044D01*
X24487253Y-56852134D01*
X24366528Y-56764422D01*
X24338094Y-56743763D01*
X24338093Y-56743762D01*
X24332752Y-56739882D01*
X24326724Y-56737198D01*
X24326722Y-56737197D01*
X24164319Y-56664891D01*
X24164318Y-56664891D01*
X24158288Y-56662206D01*
X24063227Y-56642000D01*
X23977944Y-56623872D01*
X23977939Y-56623872D01*
X23971487Y-56622500D01*
X23780513Y-56622500D01*
X23774061Y-56623872D01*
X23774056Y-56623872D01*
X23688773Y-56642000D01*
X23593712Y-56662206D01*
X23587682Y-56664891D01*
X23587681Y-56664891D01*
X23425278Y-56737197D01*
X23425276Y-56737198D01*
X23419248Y-56739882D01*
X23413907Y-56743762D01*
X23413906Y-56743763D01*
X23385472Y-56764422D01*
X23264747Y-56852134D01*
X23260326Y-56857044D01*
X23260325Y-56857045D01*
X23162937Y-56965206D01*
X23136960Y-56994056D01*
X23111434Y-57038268D01*
X23060552Y-57126399D01*
X23041473Y-57159444D01*
X22982458Y-57341072D01*
X22981768Y-57347633D01*
X22981768Y-57347635D01*
X22963186Y-57524435D01*
X22962496Y-57531000D01*
X22545651Y-57531000D01*
X22539026Y-53562944D01*
X26859996Y-53562944D01*
X26860686Y-53569509D01*
X26878588Y-53739834D01*
X26879958Y-53752872D01*
X26938973Y-53934500D01*
X27034460Y-54099888D01*
X27162247Y-54241810D01*
X27239126Y-54297666D01*
X27293028Y-54336828D01*
X27316748Y-54354062D01*
X27322776Y-54356746D01*
X27322778Y-54356747D01*
X27480038Y-54426763D01*
X27491212Y-54431738D01*
X27580040Y-54450619D01*
X27671556Y-54470072D01*
X27671561Y-54470072D01*
X27678013Y-54471444D01*
X27868987Y-54471444D01*
X27875439Y-54470072D01*
X27875444Y-54470072D01*
X27966960Y-54450619D01*
X28055788Y-54431738D01*
X28066962Y-54426763D01*
X28224222Y-54356747D01*
X28224224Y-54356746D01*
X28230252Y-54354062D01*
X28253973Y-54336828D01*
X28307874Y-54297666D01*
X28384753Y-54241810D01*
X28512540Y-54099888D01*
X28608027Y-53934500D01*
X28667042Y-53752872D01*
X28668413Y-53739834D01*
X28686314Y-53569509D01*
X28687004Y-53562944D01*
X28683099Y-53525794D01*
X28667732Y-53379579D01*
X28667732Y-53379577D01*
X28667042Y-53373016D01*
X28608027Y-53191388D01*
X28600615Y-53178549D01*
X28534852Y-53064646D01*
X28512540Y-53026000D01*
X28482694Y-52992852D01*
X28389175Y-52888989D01*
X28389174Y-52888988D01*
X28384753Y-52884078D01*
X28230252Y-52771826D01*
X28224224Y-52769142D01*
X28224222Y-52769141D01*
X28061819Y-52696835D01*
X28061818Y-52696835D01*
X28055788Y-52694150D01*
X27962388Y-52674297D01*
X27875444Y-52655816D01*
X27875439Y-52655816D01*
X27868987Y-52654444D01*
X27678013Y-52654444D01*
X27671561Y-52655816D01*
X27671556Y-52655816D01*
X27584612Y-52674297D01*
X27491212Y-52694150D01*
X27485182Y-52696835D01*
X27485181Y-52696835D01*
X27322778Y-52769141D01*
X27322776Y-52769142D01*
X27316748Y-52771826D01*
X27162247Y-52884078D01*
X27157826Y-52888988D01*
X27157825Y-52888989D01*
X27064307Y-52992852D01*
X27034460Y-53026000D01*
X27012148Y-53064646D01*
X26946386Y-53178549D01*
X26938973Y-53191388D01*
X26879958Y-53373016D01*
X26879268Y-53379577D01*
X26879268Y-53379579D01*
X26863901Y-53525794D01*
X26859996Y-53562944D01*
X22539026Y-53562944D01*
X22537666Y-52748110D01*
X22557554Y-52679956D01*
X22611132Y-52633374D01*
X22681389Y-52623153D01*
X22714915Y-52632793D01*
X22820846Y-52679956D01*
X22831712Y-52684794D01*
X22925113Y-52704647D01*
X23012056Y-52723128D01*
X23012061Y-52723128D01*
X23018513Y-52724500D01*
X23209487Y-52724500D01*
X23215939Y-52723128D01*
X23215944Y-52723128D01*
X23302888Y-52704647D01*
X23396288Y-52684794D01*
X23402319Y-52682109D01*
X23564722Y-52609803D01*
X23564724Y-52609802D01*
X23570752Y-52607118D01*
X23725253Y-52494866D01*
X23784050Y-52429565D01*
X23848621Y-52357852D01*
X23848622Y-52357851D01*
X23853040Y-52352944D01*
X23948527Y-52187556D01*
X24007542Y-52005928D01*
X24027504Y-51816000D01*
X24013765Y-51685279D01*
X24008232Y-51632635D01*
X24008232Y-51632633D01*
X24007542Y-51626072D01*
X23948527Y-51444444D01*
X23853040Y-51279056D01*
X23725253Y-51137134D01*
X23570752Y-51024882D01*
X23564724Y-51022198D01*
X23564722Y-51022197D01*
X23402319Y-50949891D01*
X23402318Y-50949891D01*
X23396288Y-50947206D01*
X23282813Y-50923086D01*
X23215944Y-50908872D01*
X23215939Y-50908872D01*
X23209487Y-50907500D01*
X23018513Y-50907500D01*
X23012061Y-50908872D01*
X23012056Y-50908872D01*
X22945187Y-50923086D01*
X22831712Y-50947206D01*
X22825682Y-50949891D01*
X22825681Y-50949891D01*
X22793046Y-50964421D01*
X22711804Y-51000592D01*
X22641438Y-51010026D01*
X22577141Y-50979920D01*
X22539327Y-50919831D01*
X22534556Y-50885695D01*
X22534547Y-50879938D01*
X22528413Y-47205695D01*
X23529251Y-47205695D01*
X23529548Y-47210848D01*
X23529548Y-47210851D01*
X23535011Y-47305590D01*
X23542110Y-47428715D01*
X23543247Y-47433761D01*
X23543248Y-47433767D01*
X23561269Y-47513729D01*
X23591222Y-47646639D01*
X23629461Y-47740811D01*
X23659557Y-47814928D01*
X23675266Y-47853616D01*
X23791987Y-48044088D01*
X23938250Y-48212938D01*
X24110126Y-48355632D01*
X24303000Y-48468338D01*
X24511692Y-48548030D01*
X24516760Y-48549061D01*
X24516763Y-48549062D01*
X24624017Y-48570883D01*
X24730597Y-48592567D01*
X24735772Y-48592757D01*
X24735774Y-48592757D01*
X24948673Y-48600564D01*
X24948677Y-48600564D01*
X24953837Y-48600753D01*
X24958957Y-48600097D01*
X24958959Y-48600097D01*
X25170288Y-48573025D01*
X25170289Y-48573025D01*
X25175416Y-48572368D01*
X25210811Y-48561749D01*
X25384429Y-48509661D01*
X25384434Y-48509659D01*
X25389384Y-48508174D01*
X25589994Y-48409896D01*
X25771860Y-48280173D01*
X25930096Y-48122489D01*
X25989594Y-48039689D01*
X26057435Y-47945277D01*
X26060453Y-47941077D01*
X26091134Y-47879000D01*
X26518496Y-47879000D01*
X26538458Y-48068928D01*
X26597473Y-48250556D01*
X26600776Y-48256278D01*
X26600777Y-48256279D01*
X26614572Y-48280173D01*
X26692960Y-48415944D01*
X26820747Y-48557866D01*
X26975248Y-48670118D01*
X26981276Y-48672802D01*
X26981278Y-48672803D01*
X27143681Y-48745109D01*
X27149712Y-48747794D01*
X27243113Y-48767647D01*
X27330056Y-48786128D01*
X27330061Y-48786128D01*
X27336513Y-48787500D01*
X27527487Y-48787500D01*
X27533939Y-48786128D01*
X27533944Y-48786128D01*
X27620887Y-48767647D01*
X27714288Y-48747794D01*
X27720319Y-48745109D01*
X27882722Y-48672803D01*
X27882724Y-48672802D01*
X27888752Y-48670118D01*
X28043253Y-48557866D01*
X28171040Y-48415944D01*
X28249428Y-48280173D01*
X28263223Y-48256279D01*
X28263224Y-48256278D01*
X28266527Y-48250556D01*
X28325542Y-48068928D01*
X28345504Y-47879000D01*
X28325542Y-47689072D01*
X28304724Y-47625000D01*
X41885496Y-47625000D01*
X41905458Y-47814928D01*
X41964473Y-47996556D01*
X42059960Y-48161944D01*
X42064378Y-48166851D01*
X42064379Y-48166852D01*
X42163133Y-48276529D01*
X42187747Y-48303866D01*
X42262589Y-48358242D01*
X42329550Y-48406892D01*
X42342248Y-48416118D01*
X42348276Y-48418802D01*
X42348278Y-48418803D01*
X42463676Y-48470181D01*
X42516712Y-48493794D01*
X42591360Y-48509661D01*
X42697056Y-48532128D01*
X42697061Y-48532128D01*
X42703513Y-48533500D01*
X42894487Y-48533500D01*
X42900939Y-48532128D01*
X42900944Y-48532128D01*
X43006640Y-48509661D01*
X43081288Y-48493794D01*
X43134324Y-48470181D01*
X43249722Y-48418803D01*
X43249724Y-48418802D01*
X43255752Y-48416118D01*
X43268451Y-48406892D01*
X43335411Y-48358242D01*
X43410253Y-48303866D01*
X43434867Y-48276529D01*
X43533621Y-48166852D01*
X43533622Y-48166851D01*
X43538040Y-48161944D01*
X43633527Y-47996556D01*
X43692542Y-47814928D01*
X43712504Y-47625000D01*
X43701672Y-47521939D01*
X43693232Y-47441635D01*
X43693232Y-47441633D01*
X43692542Y-47435072D01*
X43633527Y-47253444D01*
X43538040Y-47088056D01*
X43468967Y-47011342D01*
X43414675Y-46951045D01*
X43414674Y-46951044D01*
X43410253Y-46946134D01*
X43255752Y-46833882D01*
X43249724Y-46831198D01*
X43249722Y-46831197D01*
X43087319Y-46758891D01*
X43087318Y-46758891D01*
X43081288Y-46756206D01*
X42987888Y-46736353D01*
X42900944Y-46717872D01*
X42900939Y-46717872D01*
X42894487Y-46716500D01*
X42703513Y-46716500D01*
X42697061Y-46717872D01*
X42697056Y-46717872D01*
X42610112Y-46736353D01*
X42516712Y-46756206D01*
X42510682Y-46758891D01*
X42510681Y-46758891D01*
X42348278Y-46831197D01*
X42348276Y-46831198D01*
X42342248Y-46833882D01*
X42187747Y-46946134D01*
X42183326Y-46951044D01*
X42183325Y-46951045D01*
X42129034Y-47011342D01*
X42059960Y-47088056D01*
X41964473Y-47253444D01*
X41905458Y-47435072D01*
X41904768Y-47441633D01*
X41904768Y-47441635D01*
X41896328Y-47521939D01*
X41885496Y-47625000D01*
X28304724Y-47625000D01*
X28266527Y-47507444D01*
X28171040Y-47342056D01*
X28141194Y-47308908D01*
X28047675Y-47205045D01*
X28047674Y-47205044D01*
X28043253Y-47200134D01*
X27888752Y-47087882D01*
X27882724Y-47085198D01*
X27882722Y-47085197D01*
X27720319Y-47012891D01*
X27720318Y-47012891D01*
X27714288Y-47010206D01*
X27601721Y-46986279D01*
X27533944Y-46971872D01*
X27533939Y-46971872D01*
X27527487Y-46970500D01*
X27336513Y-46970500D01*
X27330061Y-46971872D01*
X27330056Y-46971872D01*
X27262279Y-46986279D01*
X27149712Y-47010206D01*
X27143682Y-47012891D01*
X27143681Y-47012891D01*
X26981278Y-47085197D01*
X26981276Y-47085198D01*
X26975248Y-47087882D01*
X26820747Y-47200134D01*
X26816326Y-47205044D01*
X26816325Y-47205045D01*
X26722807Y-47308908D01*
X26692960Y-47342056D01*
X26597473Y-47507444D01*
X26538458Y-47689072D01*
X26518496Y-47879000D01*
X26091134Y-47879000D01*
X26122800Y-47814928D01*
X26157136Y-47745453D01*
X26157137Y-47745451D01*
X26159430Y-47740811D01*
X26224370Y-47527069D01*
X26253529Y-47305590D01*
X26255156Y-47239000D01*
X26236852Y-47016361D01*
X26182431Y-46799702D01*
X26099511Y-46609000D01*
X45187496Y-46609000D01*
X45188186Y-46615565D01*
X45202894Y-46755500D01*
X45207458Y-46798928D01*
X45266473Y-46980556D01*
X45361960Y-47145944D01*
X45366378Y-47150851D01*
X45366379Y-47150852D01*
X45410753Y-47200134D01*
X45489747Y-47287866D01*
X45644248Y-47400118D01*
X45650276Y-47402802D01*
X45650278Y-47402803D01*
X45719825Y-47433767D01*
X45818712Y-47477794D01*
X45912112Y-47497647D01*
X45999056Y-47516128D01*
X45999061Y-47516128D01*
X46005513Y-47517500D01*
X46196487Y-47517500D01*
X46202939Y-47516128D01*
X46202944Y-47516128D01*
X46289888Y-47497647D01*
X46383288Y-47477794D01*
X46482175Y-47433767D01*
X46551722Y-47402803D01*
X46551724Y-47402802D01*
X46557752Y-47400118D01*
X46712253Y-47287866D01*
X46791247Y-47200134D01*
X46835621Y-47150852D01*
X46835622Y-47150851D01*
X46840040Y-47145944D01*
X46935527Y-46980556D01*
X46990834Y-46810340D01*
X47030908Y-46751734D01*
X47096304Y-46724097D01*
X47136864Y-46726029D01*
X47269056Y-46754128D01*
X47269061Y-46754128D01*
X47275513Y-46755500D01*
X47466487Y-46755500D01*
X47472939Y-46754128D01*
X47472944Y-46754128D01*
X47559888Y-46735647D01*
X47653288Y-46715794D01*
X47659319Y-46713109D01*
X47821722Y-46640803D01*
X47821724Y-46640802D01*
X47827752Y-46638118D01*
X47858794Y-46615565D01*
X47933343Y-46561401D01*
X47982253Y-46525866D01*
X48078411Y-46419072D01*
X48105621Y-46388852D01*
X48105622Y-46388851D01*
X48110040Y-46383944D01*
X48168314Y-46283010D01*
X48202223Y-46224279D01*
X48202224Y-46224278D01*
X48205527Y-46218556D01*
X48264542Y-46036928D01*
X48269077Y-45993786D01*
X48283814Y-45853565D01*
X48284504Y-45847000D01*
X48278755Y-45792297D01*
X48265232Y-45663635D01*
X48265232Y-45663633D01*
X48264542Y-45657072D01*
X48205527Y-45475444D01*
X48110040Y-45310056D01*
X48016178Y-45205811D01*
X47986675Y-45173045D01*
X47986674Y-45173044D01*
X47982253Y-45168134D01*
X47827752Y-45055882D01*
X47821724Y-45053198D01*
X47821722Y-45053197D01*
X47659319Y-44980891D01*
X47659318Y-44980891D01*
X47653288Y-44978206D01*
X47555757Y-44957475D01*
X47472944Y-44939872D01*
X47472939Y-44939872D01*
X47466487Y-44938500D01*
X47275513Y-44938500D01*
X47269061Y-44939872D01*
X47269056Y-44939872D01*
X47186243Y-44957475D01*
X47088712Y-44978206D01*
X47082682Y-44980891D01*
X47082681Y-44980891D01*
X46920278Y-45053197D01*
X46920276Y-45053198D01*
X46914248Y-45055882D01*
X46759747Y-45168134D01*
X46755326Y-45173044D01*
X46755325Y-45173045D01*
X46725823Y-45205811D01*
X46631960Y-45310056D01*
X46536473Y-45475444D01*
X46534431Y-45481729D01*
X46481166Y-45645660D01*
X46441092Y-45704266D01*
X46375696Y-45731903D01*
X46335136Y-45729971D01*
X46202944Y-45701872D01*
X46202939Y-45701872D01*
X46196487Y-45700500D01*
X46005513Y-45700500D01*
X45999061Y-45701872D01*
X45999056Y-45701872D01*
X45912113Y-45720353D01*
X45818712Y-45740206D01*
X45812682Y-45742891D01*
X45812681Y-45742891D01*
X45650278Y-45815197D01*
X45650276Y-45815198D01*
X45644248Y-45817882D01*
X45638907Y-45821762D01*
X45638906Y-45821763D01*
X45604171Y-45847000D01*
X45489747Y-45930134D01*
X45485326Y-45935044D01*
X45485325Y-45935045D01*
X45370897Y-46062131D01*
X45361960Y-46072056D01*
X45266473Y-46237444D01*
X45207458Y-46419072D01*
X45206768Y-46425633D01*
X45206768Y-46425635D01*
X45192499Y-46561401D01*
X45187496Y-46609000D01*
X26099511Y-46609000D01*
X26093354Y-46594840D01*
X26045556Y-46520955D01*
X25974822Y-46411617D01*
X25974820Y-46411614D01*
X25972014Y-46407277D01*
X25968540Y-46403459D01*
X25968533Y-46403450D01*
X25824435Y-46245088D01*
X25793383Y-46181242D01*
X25801779Y-46110744D01*
X25846956Y-46055976D01*
X25873400Y-46042307D01*
X25980052Y-46002325D01*
X25995649Y-45993786D01*
X26097724Y-45917285D01*
X26110285Y-45904724D01*
X26186786Y-45802649D01*
X26195324Y-45787054D01*
X26240478Y-45666606D01*
X26244105Y-45651351D01*
X26249631Y-45600486D01*
X26250000Y-45593672D01*
X26250000Y-44971115D01*
X26245525Y-44955876D01*
X26244135Y-44954671D01*
X26236452Y-44953000D01*
X23552116Y-44953000D01*
X23536877Y-44957475D01*
X23535672Y-44958865D01*
X23534001Y-44966548D01*
X23534001Y-45593669D01*
X23534371Y-45600490D01*
X23539895Y-45651352D01*
X23543521Y-45666604D01*
X23588676Y-45787054D01*
X23597214Y-45802649D01*
X23673715Y-45904724D01*
X23686276Y-45917285D01*
X23788351Y-45993786D01*
X23803946Y-46002324D01*
X23912827Y-46043142D01*
X23969591Y-46085784D01*
X23994291Y-46152345D01*
X23979083Y-46221694D01*
X23959691Y-46248175D01*
X23836200Y-46377401D01*
X23832629Y-46381138D01*
X23706743Y-46565680D01*
X23691003Y-46599590D01*
X23617058Y-46758891D01*
X23612688Y-46768305D01*
X23552989Y-46983570D01*
X23529251Y-47205695D01*
X22528413Y-47205695D01*
X22527041Y-46383944D01*
X22523774Y-44426885D01*
X23534000Y-44426885D01*
X23538475Y-44442124D01*
X23539865Y-44443329D01*
X23547548Y-44445000D01*
X24619885Y-44445000D01*
X24635124Y-44440525D01*
X24636329Y-44439135D01*
X24638000Y-44431452D01*
X24638000Y-44426885D01*
X25146000Y-44426885D01*
X25150475Y-44442124D01*
X25151865Y-44443329D01*
X25159548Y-44445000D01*
X26231884Y-44445000D01*
X26247123Y-44440525D01*
X26248328Y-44439135D01*
X26249999Y-44431452D01*
X26249999Y-43804331D01*
X26249629Y-43797510D01*
X26244105Y-43746648D01*
X26240479Y-43731396D01*
X26195324Y-43610946D01*
X26186786Y-43595351D01*
X26110285Y-43493276D01*
X26097724Y-43480715D01*
X25995649Y-43404214D01*
X25980054Y-43395676D01*
X25859606Y-43350522D01*
X25844351Y-43346895D01*
X25793486Y-43341369D01*
X25786672Y-43341000D01*
X25164115Y-43341000D01*
X25148876Y-43345475D01*
X25147671Y-43346865D01*
X25146000Y-43354548D01*
X25146000Y-44426885D01*
X24638000Y-44426885D01*
X24638000Y-43359116D01*
X24633525Y-43343877D01*
X24632135Y-43342672D01*
X24624452Y-43341001D01*
X23997331Y-43341001D01*
X23990510Y-43341371D01*
X23939648Y-43346895D01*
X23924396Y-43350521D01*
X23803946Y-43395676D01*
X23788351Y-43404214D01*
X23686276Y-43480715D01*
X23673715Y-43493276D01*
X23597214Y-43595351D01*
X23588676Y-43610946D01*
X23543522Y-43731394D01*
X23539895Y-43746649D01*
X23534369Y-43797514D01*
X23534000Y-43804328D01*
X23534000Y-44426885D01*
X22523774Y-44426885D01*
X22521693Y-43180000D01*
X27153496Y-43180000D01*
X27154186Y-43186565D01*
X27172322Y-43359116D01*
X27173458Y-43369928D01*
X27232473Y-43551556D01*
X27235776Y-43557278D01*
X27235777Y-43557279D01*
X27242312Y-43568598D01*
X27327960Y-43716944D01*
X27332378Y-43721851D01*
X27332379Y-43721852D01*
X27411102Y-43809283D01*
X27455747Y-43858866D01*
X27610248Y-43971118D01*
X27616276Y-43973802D01*
X27616278Y-43973803D01*
X27778681Y-44046109D01*
X27784712Y-44048794D01*
X27859026Y-44064590D01*
X27965056Y-44087128D01*
X27965061Y-44087128D01*
X27971513Y-44088500D01*
X28162487Y-44088500D01*
X28168939Y-44087128D01*
X28168944Y-44087128D01*
X28274974Y-44064590D01*
X28349288Y-44048794D01*
X28355319Y-44046109D01*
X28517722Y-43973803D01*
X28517724Y-43973802D01*
X28523752Y-43971118D01*
X28678253Y-43858866D01*
X28722898Y-43809283D01*
X28801621Y-43721852D01*
X28801622Y-43721851D01*
X28806040Y-43716944D01*
X28891688Y-43568598D01*
X28898223Y-43557279D01*
X28898224Y-43557278D01*
X28901527Y-43551556D01*
X28960542Y-43369928D01*
X28961679Y-43359116D01*
X28979814Y-43186565D01*
X28980504Y-43180000D01*
X28960542Y-42990072D01*
X28901527Y-42808444D01*
X28806040Y-42643056D01*
X28717750Y-42545000D01*
X34265496Y-42545000D01*
X34285458Y-42734928D01*
X34344473Y-42916556D01*
X34439960Y-43081944D01*
X34444375Y-43086847D01*
X34444379Y-43086852D01*
X34545808Y-43199500D01*
X34567747Y-43223866D01*
X34722248Y-43336118D01*
X34728276Y-43338802D01*
X34728278Y-43338803D01*
X34885430Y-43408771D01*
X34896712Y-43413794D01*
X34990113Y-43433647D01*
X35077056Y-43452128D01*
X35077061Y-43452128D01*
X35083513Y-43453500D01*
X35274487Y-43453500D01*
X35280939Y-43452128D01*
X35280944Y-43452128D01*
X35367887Y-43433647D01*
X35461288Y-43413794D01*
X35472570Y-43408771D01*
X35629722Y-43338803D01*
X35629724Y-43338802D01*
X35635752Y-43336118D01*
X35790253Y-43223866D01*
X35794671Y-43218959D01*
X35794678Y-43218953D01*
X35809672Y-43202300D01*
X35870117Y-43165060D01*
X35929505Y-43163364D01*
X36093047Y-43198127D01*
X36093060Y-43198128D01*
X36099513Y-43199500D01*
X36290487Y-43199500D01*
X36296940Y-43198128D01*
X36296953Y-43198127D01*
X36460495Y-43163364D01*
X36531285Y-43168765D01*
X36580328Y-43202300D01*
X36595322Y-43218953D01*
X36595329Y-43218959D01*
X36599747Y-43223866D01*
X36726136Y-43315693D01*
X36769489Y-43371914D01*
X36775564Y-43442650D01*
X36752900Y-43493192D01*
X36667385Y-43607295D01*
X36616255Y-43743684D01*
X36609500Y-43805866D01*
X36609500Y-45602134D01*
X36616255Y-45664316D01*
X36667385Y-45800705D01*
X36754739Y-45917261D01*
X36871295Y-46004615D01*
X37007684Y-46055745D01*
X37069866Y-46062500D01*
X38866134Y-46062500D01*
X38928316Y-46055745D01*
X39064705Y-46004615D01*
X39181261Y-45917261D01*
X39268615Y-45800705D01*
X39291295Y-45740206D01*
X39312598Y-45683382D01*
X39355240Y-45626618D01*
X39421802Y-45601918D01*
X39491150Y-45617126D01*
X39525817Y-45645114D01*
X39554250Y-45677938D01*
X39635235Y-45745173D01*
X39719580Y-45815197D01*
X39726126Y-45820632D01*
X39919000Y-45933338D01*
X40127692Y-46013030D01*
X40132760Y-46014061D01*
X40132763Y-46014062D01*
X40240017Y-46035883D01*
X40346597Y-46057567D01*
X40351772Y-46057757D01*
X40351774Y-46057757D01*
X40564673Y-46065564D01*
X40564677Y-46065564D01*
X40569837Y-46065753D01*
X40574957Y-46065097D01*
X40574959Y-46065097D01*
X40786288Y-46038025D01*
X40786289Y-46038025D01*
X40791416Y-46037368D01*
X40814758Y-46030365D01*
X41000429Y-45974661D01*
X41000434Y-45974659D01*
X41005384Y-45973174D01*
X41205994Y-45874896D01*
X41387860Y-45745173D01*
X41392845Y-45740206D01*
X41533049Y-45600490D01*
X41546096Y-45587489D01*
X41676453Y-45406077D01*
X41775430Y-45205811D01*
X41840370Y-44992069D01*
X41869529Y-44770590D01*
X41871156Y-44704000D01*
X41852852Y-44481361D01*
X41798431Y-44264702D01*
X41709354Y-44059840D01*
X41588014Y-43872277D01*
X41437670Y-43707051D01*
X41433619Y-43703852D01*
X41433615Y-43703848D01*
X41266414Y-43571800D01*
X41266410Y-43571798D01*
X41262359Y-43568598D01*
X41066789Y-43460638D01*
X41061920Y-43458914D01*
X41061916Y-43458912D01*
X40861087Y-43387795D01*
X40861083Y-43387794D01*
X40856212Y-43386069D01*
X40851119Y-43385162D01*
X40851116Y-43385161D01*
X40641373Y-43347800D01*
X40641367Y-43347799D01*
X40636284Y-43346894D01*
X40562452Y-43345992D01*
X40418081Y-43344228D01*
X40418079Y-43344228D01*
X40412911Y-43344165D01*
X40192091Y-43377955D01*
X39979756Y-43447357D01*
X39781607Y-43550507D01*
X39777474Y-43553610D01*
X39777471Y-43553612D01*
X39607100Y-43681530D01*
X39602965Y-43684635D01*
X39546537Y-43743684D01*
X39522283Y-43769064D01*
X39460759Y-43804494D01*
X39389846Y-43801037D01*
X39332060Y-43759791D01*
X39313207Y-43726243D01*
X39271767Y-43615703D01*
X39268615Y-43607295D01*
X39181261Y-43490739D01*
X39064705Y-43403385D01*
X38928316Y-43352255D01*
X38866134Y-43345500D01*
X37995733Y-43345500D01*
X37927612Y-43325498D01*
X37881119Y-43271842D01*
X37871015Y-43201568D01*
X37902096Y-43135191D01*
X37950040Y-43081944D01*
X38045527Y-42916556D01*
X38104542Y-42734928D01*
X38124504Y-42545000D01*
X38119485Y-42497251D01*
X38105232Y-42361635D01*
X38105232Y-42361633D01*
X38104542Y-42355072D01*
X38045527Y-42173444D01*
X37950040Y-42008056D01*
X37822253Y-41866134D01*
X37667752Y-41753882D01*
X37661724Y-41751198D01*
X37661722Y-41751197D01*
X37499319Y-41678891D01*
X37499318Y-41678891D01*
X37493288Y-41676206D01*
X37399888Y-41656353D01*
X37312944Y-41637872D01*
X37312939Y-41637872D01*
X37306487Y-41636500D01*
X37115513Y-41636500D01*
X37109060Y-41637872D01*
X37109047Y-41637873D01*
X36945505Y-41672636D01*
X36874715Y-41667235D01*
X36825672Y-41633700D01*
X36810678Y-41617047D01*
X36810671Y-41617041D01*
X36806253Y-41612134D01*
X36651752Y-41499882D01*
X36645724Y-41497198D01*
X36645722Y-41497197D01*
X36483319Y-41424891D01*
X36483318Y-41424891D01*
X36477288Y-41422206D01*
X36383888Y-41402353D01*
X36296944Y-41383872D01*
X36296939Y-41383872D01*
X36290487Y-41382500D01*
X36099513Y-41382500D01*
X36093061Y-41383872D01*
X36093056Y-41383872D01*
X36006112Y-41402353D01*
X35912712Y-41422206D01*
X35906682Y-41424891D01*
X35906681Y-41424891D01*
X35744278Y-41497197D01*
X35744276Y-41497198D01*
X35738248Y-41499882D01*
X35583747Y-41612134D01*
X35579329Y-41617041D01*
X35579322Y-41617047D01*
X35564328Y-41633700D01*
X35503883Y-41670940D01*
X35444495Y-41672636D01*
X35280953Y-41637873D01*
X35280940Y-41637872D01*
X35274487Y-41636500D01*
X35083513Y-41636500D01*
X35077061Y-41637872D01*
X35077056Y-41637872D01*
X34990112Y-41656353D01*
X34896712Y-41676206D01*
X34890682Y-41678891D01*
X34890681Y-41678891D01*
X34728278Y-41751197D01*
X34728276Y-41751198D01*
X34722248Y-41753882D01*
X34567747Y-41866134D01*
X34439960Y-42008056D01*
X34344473Y-42173444D01*
X34285458Y-42355072D01*
X34284768Y-42361633D01*
X34284768Y-42361635D01*
X34270515Y-42497251D01*
X34265496Y-42545000D01*
X28717750Y-42545000D01*
X28678253Y-42501134D01*
X28523752Y-42388882D01*
X28517724Y-42386198D01*
X28517722Y-42386197D01*
X28355319Y-42313891D01*
X28355318Y-42313891D01*
X28349288Y-42311206D01*
X28255887Y-42291353D01*
X28168944Y-42272872D01*
X28168939Y-42272872D01*
X28162487Y-42271500D01*
X27971513Y-42271500D01*
X27965061Y-42272872D01*
X27965056Y-42272872D01*
X27878113Y-42291353D01*
X27784712Y-42311206D01*
X27778682Y-42313891D01*
X27778681Y-42313891D01*
X27616278Y-42386197D01*
X27616276Y-42386198D01*
X27610248Y-42388882D01*
X27455747Y-42501134D01*
X27327960Y-42643056D01*
X27232473Y-42808444D01*
X27173458Y-42990072D01*
X27153496Y-43180000D01*
X22521693Y-43180000D01*
X22516569Y-40110571D01*
X22536457Y-40042417D01*
X22590035Y-39995835D01*
X22660292Y-39985614D01*
X22724922Y-40014999D01*
X22736192Y-40026037D01*
X22756747Y-40048866D01*
X22911248Y-40161118D01*
X22917276Y-40163802D01*
X22917278Y-40163803D01*
X23079681Y-40236109D01*
X23085712Y-40238794D01*
X23179112Y-40258647D01*
X23266056Y-40277128D01*
X23266061Y-40277128D01*
X23272513Y-40278500D01*
X23463487Y-40278500D01*
X23469939Y-40277128D01*
X23469944Y-40277128D01*
X23556888Y-40258647D01*
X23650288Y-40238794D01*
X23656319Y-40236109D01*
X23818722Y-40163803D01*
X23818724Y-40163802D01*
X23824752Y-40161118D01*
X23979253Y-40048866D01*
X24107040Y-39906944D01*
X24202527Y-39741556D01*
X24261542Y-39559928D01*
X24281504Y-39370000D01*
X24261542Y-39180072D01*
X24202527Y-38998444D01*
X24107040Y-38833056D01*
X24034578Y-38752578D01*
X23983675Y-38696045D01*
X23983671Y-38696041D01*
X23979253Y-38691134D01*
X23824752Y-38578882D01*
X23818724Y-38576198D01*
X23818722Y-38576197D01*
X23656319Y-38503891D01*
X23656318Y-38503891D01*
X23650288Y-38501206D01*
X23556887Y-38481353D01*
X23469944Y-38462872D01*
X23469939Y-38462872D01*
X23463487Y-38461500D01*
X23272513Y-38461500D01*
X23266061Y-38462872D01*
X23266056Y-38462872D01*
X23179113Y-38481353D01*
X23085712Y-38501206D01*
X23079682Y-38503891D01*
X23079681Y-38503891D01*
X22917278Y-38576197D01*
X22917276Y-38576198D01*
X22911248Y-38578882D01*
X22756747Y-38691134D01*
X22733735Y-38716692D01*
X22673289Y-38753930D01*
X22602306Y-38752578D01*
X22543321Y-38713064D01*
X22515064Y-38647933D01*
X22514100Y-38632590D01*
X22514017Y-38582763D01*
X22512209Y-37500000D01*
X46886496Y-37500000D01*
X46906458Y-37689928D01*
X46965473Y-37871556D01*
X47060960Y-38036944D01*
X47188747Y-38178866D01*
X47343248Y-38291118D01*
X47349276Y-38293802D01*
X47349278Y-38293803D01*
X47511681Y-38366109D01*
X47517712Y-38368794D01*
X47611112Y-38388647D01*
X47698056Y-38407128D01*
X47698061Y-38407128D01*
X47704513Y-38408500D01*
X47895487Y-38408500D01*
X47901939Y-38407128D01*
X47901944Y-38407128D01*
X47988888Y-38388647D01*
X48082288Y-38368794D01*
X48088319Y-38366109D01*
X48250722Y-38293803D01*
X48250724Y-38293802D01*
X48256752Y-38291118D01*
X48411253Y-38178866D01*
X48539040Y-38036944D01*
X48634527Y-37871556D01*
X48693542Y-37689928D01*
X48713504Y-37500000D01*
X48693542Y-37310072D01*
X48634527Y-37128444D01*
X48539040Y-36963056D01*
X48411253Y-36821134D01*
X48256752Y-36708882D01*
X48250724Y-36706198D01*
X48250722Y-36706197D01*
X48088319Y-36633891D01*
X48088318Y-36633891D01*
X48082288Y-36631206D01*
X47988887Y-36611353D01*
X47901944Y-36592872D01*
X47901939Y-36592872D01*
X47895487Y-36591500D01*
X47704513Y-36591500D01*
X47698061Y-36592872D01*
X47698056Y-36592872D01*
X47611113Y-36611353D01*
X47517712Y-36631206D01*
X47511682Y-36633891D01*
X47511681Y-36633891D01*
X47349278Y-36706197D01*
X47349276Y-36706198D01*
X47343248Y-36708882D01*
X47188747Y-36821134D01*
X47060960Y-36963056D01*
X46965473Y-37128444D01*
X46906458Y-37310072D01*
X46886496Y-37500000D01*
X22512209Y-37500000D01*
X22507702Y-34800000D01*
X46886496Y-34800000D01*
X46906458Y-34989928D01*
X46965473Y-35171556D01*
X47060960Y-35336944D01*
X47188747Y-35478866D01*
X47343248Y-35591118D01*
X47349276Y-35593802D01*
X47349278Y-35593803D01*
X47511681Y-35666109D01*
X47517712Y-35668794D01*
X47611113Y-35688647D01*
X47698056Y-35707128D01*
X47698061Y-35707128D01*
X47704513Y-35708500D01*
X47895487Y-35708500D01*
X47901939Y-35707128D01*
X47901944Y-35707128D01*
X47988887Y-35688647D01*
X48082288Y-35668794D01*
X48088319Y-35666109D01*
X48250722Y-35593803D01*
X48250724Y-35593802D01*
X48256752Y-35591118D01*
X48411253Y-35478866D01*
X48539040Y-35336944D01*
X48634527Y-35171556D01*
X48693542Y-34989928D01*
X48713504Y-34800000D01*
X48693542Y-34610072D01*
X48634527Y-34428444D01*
X48539040Y-34263056D01*
X48411253Y-34121134D01*
X48256752Y-34008882D01*
X48250724Y-34006198D01*
X48250722Y-34006197D01*
X48088319Y-33933891D01*
X48088318Y-33933891D01*
X48082288Y-33931206D01*
X47988888Y-33911353D01*
X47901944Y-33892872D01*
X47901939Y-33892872D01*
X47895487Y-33891500D01*
X47704513Y-33891500D01*
X47698061Y-33892872D01*
X47698056Y-33892872D01*
X47611112Y-33911353D01*
X47517712Y-33931206D01*
X47511682Y-33933891D01*
X47511681Y-33933891D01*
X47349278Y-34006197D01*
X47349276Y-34006198D01*
X47343248Y-34008882D01*
X47188747Y-34121134D01*
X47060960Y-34263056D01*
X46965473Y-34428444D01*
X46906458Y-34610072D01*
X46886496Y-34800000D01*
X22507702Y-34800000D01*
X22507221Y-34512189D01*
X22527109Y-34444036D01*
X22580687Y-34397454D01*
X22650944Y-34387233D01*
X22715574Y-34416618D01*
X22726851Y-34427663D01*
X22756747Y-34460866D01*
X22911248Y-34573118D01*
X22917276Y-34575802D01*
X22917278Y-34575803D01*
X22994248Y-34610072D01*
X23085712Y-34650794D01*
X23179112Y-34670647D01*
X23266056Y-34689128D01*
X23266061Y-34689128D01*
X23272513Y-34690500D01*
X23463487Y-34690500D01*
X23469939Y-34689128D01*
X23469944Y-34689128D01*
X23556888Y-34670647D01*
X23650288Y-34650794D01*
X23741752Y-34610072D01*
X23818722Y-34575803D01*
X23818724Y-34575802D01*
X23824752Y-34573118D01*
X23979253Y-34460866D01*
X24019094Y-34416618D01*
X24102621Y-34323852D01*
X24102622Y-34323851D01*
X24107040Y-34318944D01*
X24202527Y-34153556D01*
X24261542Y-33971928D01*
X24281504Y-33782000D01*
X24280814Y-33775435D01*
X24262232Y-33598635D01*
X24262232Y-33598633D01*
X24261542Y-33592072D01*
X24202527Y-33410444D01*
X24107040Y-33245056D01*
X24043889Y-33174919D01*
X23983675Y-33108045D01*
X23983671Y-33108041D01*
X23979253Y-33103134D01*
X23824752Y-32990882D01*
X23818724Y-32988198D01*
X23818722Y-32988197D01*
X23656319Y-32915891D01*
X23656318Y-32915891D01*
X23650288Y-32913206D01*
X23556887Y-32893353D01*
X23469944Y-32874872D01*
X23469939Y-32874872D01*
X23463487Y-32873500D01*
X23272513Y-32873500D01*
X23266061Y-32874872D01*
X23266056Y-32874872D01*
X23179113Y-32893353D01*
X23085712Y-32913206D01*
X23079682Y-32915891D01*
X23079681Y-32915891D01*
X22917278Y-32988197D01*
X22917276Y-32988198D01*
X22911248Y-32990882D01*
X22756747Y-33103134D01*
X22724423Y-33139033D01*
X22663979Y-33176271D01*
X22592995Y-33174919D01*
X22534011Y-33135405D01*
X22505753Y-33070275D01*
X22504789Y-33054931D01*
X22504307Y-32766000D01*
X25121496Y-32766000D01*
X25122186Y-32772565D01*
X25136824Y-32911834D01*
X25141458Y-32955928D01*
X25200473Y-33137556D01*
X25203776Y-33143278D01*
X25203777Y-33143279D01*
X25222825Y-33176271D01*
X25295960Y-33302944D01*
X25423747Y-33444866D01*
X25494753Y-33496455D01*
X25570933Y-33551803D01*
X25578248Y-33557118D01*
X25584276Y-33559802D01*
X25584278Y-33559803D01*
X25737825Y-33628166D01*
X25752712Y-33634794D01*
X25846112Y-33654647D01*
X25933056Y-33673128D01*
X25933061Y-33673128D01*
X25939513Y-33674500D01*
X26130487Y-33674500D01*
X26136939Y-33673128D01*
X26136944Y-33673128D01*
X26223888Y-33654647D01*
X26317288Y-33634794D01*
X26332175Y-33628166D01*
X26485722Y-33559803D01*
X26485724Y-33559802D01*
X26491752Y-33557118D01*
X26499068Y-33551803D01*
X26575247Y-33496455D01*
X26646253Y-33444866D01*
X26774040Y-33302944D01*
X26847175Y-33176271D01*
X26866223Y-33143279D01*
X26866224Y-33143278D01*
X26869527Y-33137556D01*
X26928542Y-32955928D01*
X26933177Y-32911834D01*
X26947814Y-32772565D01*
X26948504Y-32766000D01*
X26947663Y-32758000D01*
X45322496Y-32758000D01*
X45323186Y-32764565D01*
X45338809Y-32913206D01*
X45342458Y-32947928D01*
X45401473Y-33129556D01*
X45496960Y-33294944D01*
X45501378Y-33299851D01*
X45501379Y-33299852D01*
X45620325Y-33431955D01*
X45624747Y-33436866D01*
X45779248Y-33549118D01*
X45785276Y-33551802D01*
X45785278Y-33551803D01*
X45947681Y-33624109D01*
X45953712Y-33626794D01*
X46047113Y-33646647D01*
X46134056Y-33665128D01*
X46134061Y-33665128D01*
X46140513Y-33666500D01*
X46331487Y-33666500D01*
X46337939Y-33665128D01*
X46337944Y-33665128D01*
X46424887Y-33646647D01*
X46518288Y-33626794D01*
X46524319Y-33624109D01*
X46686722Y-33551803D01*
X46686724Y-33551802D01*
X46692752Y-33549118D01*
X46847253Y-33436866D01*
X46851675Y-33431955D01*
X46970621Y-33299852D01*
X46970622Y-33299851D01*
X46975040Y-33294944D01*
X47070527Y-33129556D01*
X47129542Y-32947928D01*
X47133192Y-32913206D01*
X47148814Y-32764565D01*
X47149504Y-32758000D01*
X47129542Y-32568072D01*
X47070527Y-32386444D01*
X46975040Y-32221056D01*
X46847253Y-32079134D01*
X46703763Y-31974882D01*
X46698094Y-31970763D01*
X46698093Y-31970762D01*
X46692752Y-31966882D01*
X46686724Y-31964198D01*
X46686722Y-31964197D01*
X46524319Y-31891891D01*
X46524318Y-31891891D01*
X46518288Y-31889206D01*
X46424888Y-31869353D01*
X46337944Y-31850872D01*
X46337939Y-31850872D01*
X46331487Y-31849500D01*
X46140513Y-31849500D01*
X46134061Y-31850872D01*
X46134056Y-31850872D01*
X46047112Y-31869353D01*
X45953712Y-31889206D01*
X45947682Y-31891891D01*
X45947681Y-31891891D01*
X45785278Y-31964197D01*
X45785276Y-31964198D01*
X45779248Y-31966882D01*
X45773907Y-31970762D01*
X45773906Y-31970763D01*
X45768237Y-31974882D01*
X45624747Y-32079134D01*
X45496960Y-32221056D01*
X45401473Y-32386444D01*
X45342458Y-32568072D01*
X45322496Y-32758000D01*
X26947663Y-32758000D01*
X26928542Y-32576072D01*
X26869527Y-32394444D01*
X26774040Y-32229056D01*
X26646253Y-32087134D01*
X26491752Y-31974882D01*
X26485724Y-31972198D01*
X26485722Y-31972197D01*
X26323319Y-31899891D01*
X26323318Y-31899891D01*
X26317288Y-31897206D01*
X26223887Y-31877353D01*
X26136944Y-31858872D01*
X26136939Y-31858872D01*
X26130487Y-31857500D01*
X25939513Y-31857500D01*
X25933061Y-31858872D01*
X25933056Y-31858872D01*
X25846113Y-31877353D01*
X25752712Y-31897206D01*
X25746682Y-31899891D01*
X25746681Y-31899891D01*
X25584278Y-31972197D01*
X25584276Y-31972198D01*
X25578248Y-31974882D01*
X25423747Y-32087134D01*
X25295960Y-32229056D01*
X25200473Y-32394444D01*
X25141458Y-32576072D01*
X25121496Y-32766000D01*
X22504307Y-32766000D01*
X22500858Y-30700000D01*
X23486496Y-30700000D01*
X23506458Y-30889928D01*
X23565473Y-31071556D01*
X23568776Y-31077278D01*
X23568777Y-31077279D01*
X23601022Y-31133128D01*
X23660960Y-31236944D01*
X23788747Y-31378866D01*
X23943248Y-31491118D01*
X23949276Y-31493802D01*
X23949278Y-31493803D01*
X24111681Y-31566109D01*
X24117712Y-31568794D01*
X24211112Y-31588647D01*
X24298056Y-31607128D01*
X24298061Y-31607128D01*
X24304513Y-31608500D01*
X24495487Y-31608500D01*
X24501939Y-31607128D01*
X24501944Y-31607128D01*
X24588888Y-31588647D01*
X24682288Y-31568794D01*
X24688319Y-31566109D01*
X24850722Y-31493803D01*
X24850724Y-31493802D01*
X24856752Y-31491118D01*
X25011253Y-31378866D01*
X25139040Y-31236944D01*
X25198978Y-31133128D01*
X25231223Y-31077279D01*
X25231224Y-31077278D01*
X25234527Y-31071556D01*
X25293542Y-30889928D01*
X25303789Y-30792435D01*
X25330802Y-30726778D01*
X25389024Y-30686149D01*
X25459969Y-30683446D01*
X25521113Y-30719528D01*
X25538216Y-30742603D01*
X25549960Y-30762944D01*
X25554378Y-30767851D01*
X25554379Y-30767852D01*
X25673325Y-30899955D01*
X25677747Y-30904866D01*
X25832248Y-31017118D01*
X25838276Y-31019802D01*
X25838278Y-31019803D01*
X25954518Y-31071556D01*
X26006712Y-31094794D01*
X26100113Y-31114647D01*
X26187056Y-31133128D01*
X26187061Y-31133128D01*
X26193513Y-31134500D01*
X26384487Y-31134500D01*
X26390939Y-31133128D01*
X26390944Y-31133128D01*
X26477887Y-31114647D01*
X26571288Y-31094794D01*
X26623482Y-31071556D01*
X26739722Y-31019803D01*
X26739724Y-31019802D01*
X26745752Y-31017118D01*
X26900253Y-30904866D01*
X26904675Y-30899955D01*
X27023621Y-30767852D01*
X27023622Y-30767851D01*
X27028040Y-30762944D01*
X27123527Y-30597556D01*
X27182542Y-30415928D01*
X27202504Y-30226000D01*
X27182542Y-30036072D01*
X27123527Y-29854444D01*
X27109319Y-29829834D01*
X27031341Y-29694774D01*
X27028040Y-29689056D01*
X26900253Y-29547134D01*
X26745752Y-29434882D01*
X26739724Y-29432198D01*
X26739722Y-29432197D01*
X26577319Y-29359891D01*
X26577318Y-29359891D01*
X26571288Y-29357206D01*
X26477888Y-29337353D01*
X26390944Y-29318872D01*
X26390939Y-29318872D01*
X26384487Y-29317500D01*
X26193513Y-29317500D01*
X26187061Y-29318872D01*
X26187056Y-29318872D01*
X26100112Y-29337353D01*
X26006712Y-29357206D01*
X26000682Y-29359891D01*
X26000681Y-29359891D01*
X25838278Y-29432197D01*
X25838276Y-29432198D01*
X25832248Y-29434882D01*
X25677747Y-29547134D01*
X25549960Y-29689056D01*
X25546659Y-29694774D01*
X25468682Y-29829834D01*
X25454473Y-29854444D01*
X25395458Y-30036072D01*
X25394768Y-30042633D01*
X25394768Y-30042635D01*
X25385211Y-30133565D01*
X25358198Y-30199222D01*
X25299976Y-30239851D01*
X25229031Y-30242554D01*
X25167887Y-30206472D01*
X25150784Y-30183397D01*
X25139040Y-30163056D01*
X25019051Y-30029794D01*
X25015675Y-30026045D01*
X25015674Y-30026044D01*
X25011253Y-30021134D01*
X24856752Y-29908882D01*
X24850724Y-29906198D01*
X24850722Y-29906197D01*
X24688319Y-29833891D01*
X24688318Y-29833891D01*
X24682288Y-29831206D01*
X24588887Y-29811353D01*
X24501944Y-29792872D01*
X24501939Y-29792872D01*
X24495487Y-29791500D01*
X24304513Y-29791500D01*
X24298061Y-29792872D01*
X24298056Y-29792872D01*
X24211113Y-29811353D01*
X24117712Y-29831206D01*
X24111682Y-29833891D01*
X24111681Y-29833891D01*
X23949278Y-29906197D01*
X23949276Y-29906198D01*
X23943248Y-29908882D01*
X23788747Y-30021134D01*
X23784326Y-30026044D01*
X23784325Y-30026045D01*
X23780950Y-30029794D01*
X23660960Y-30163056D01*
X23565473Y-30328444D01*
X23506458Y-30510072D01*
X23486496Y-30700000D01*
X22500858Y-30700000D01*
X22497018Y-28400000D01*
X23486496Y-28400000D01*
X23487186Y-28406565D01*
X23502910Y-28556166D01*
X23506458Y-28589928D01*
X23565473Y-28771556D01*
X23660960Y-28936944D01*
X23788747Y-29078866D01*
X23943248Y-29191118D01*
X23949276Y-29193802D01*
X23949278Y-29193803D01*
X24111681Y-29266109D01*
X24117712Y-29268794D01*
X24211112Y-29288647D01*
X24298056Y-29307128D01*
X24298061Y-29307128D01*
X24304513Y-29308500D01*
X24495487Y-29308500D01*
X24501939Y-29307128D01*
X24501944Y-29307128D01*
X24588888Y-29288647D01*
X24682288Y-29268794D01*
X24688319Y-29266109D01*
X24850722Y-29193803D01*
X24850724Y-29193802D01*
X24856752Y-29191118D01*
X25011253Y-29078866D01*
X25139040Y-28936944D01*
X25234527Y-28771556D01*
X25293542Y-28589928D01*
X25297091Y-28556166D01*
X25312814Y-28406565D01*
X25313504Y-28400000D01*
X25312814Y-28393435D01*
X25300090Y-28272369D01*
X25312862Y-28202531D01*
X25361365Y-28150684D01*
X25430197Y-28133290D01*
X25497507Y-28155872D01*
X25534518Y-28196198D01*
X25549960Y-28222944D01*
X25677747Y-28364866D01*
X25832248Y-28477118D01*
X25838276Y-28479802D01*
X25838278Y-28479803D01*
X26000681Y-28552109D01*
X26006712Y-28554794D01*
X26100113Y-28574647D01*
X26187056Y-28593128D01*
X26187061Y-28593128D01*
X26193513Y-28594500D01*
X26384487Y-28594500D01*
X26390939Y-28593128D01*
X26390944Y-28593128D01*
X26477887Y-28574647D01*
X26571288Y-28554794D01*
X26577319Y-28552109D01*
X26739722Y-28479803D01*
X26739724Y-28479802D01*
X26745752Y-28477118D01*
X26900253Y-28364866D01*
X27028040Y-28222944D01*
X27123527Y-28057556D01*
X27182542Y-27875928D01*
X27202504Y-27686000D01*
X27194399Y-27608882D01*
X27183232Y-27502635D01*
X27183232Y-27502633D01*
X27182542Y-27496072D01*
X27123527Y-27314444D01*
X27028040Y-27149056D01*
X26900253Y-27007134D01*
X26745752Y-26894882D01*
X26739724Y-26892198D01*
X26739722Y-26892197D01*
X26577319Y-26819891D01*
X26577318Y-26819891D01*
X26571288Y-26817206D01*
X26477887Y-26797353D01*
X26390944Y-26778872D01*
X26390939Y-26778872D01*
X26384487Y-26777500D01*
X26193513Y-26777500D01*
X26187061Y-26778872D01*
X26187056Y-26778872D01*
X26100113Y-26797353D01*
X26006712Y-26817206D01*
X26000682Y-26819891D01*
X26000681Y-26819891D01*
X25838278Y-26892197D01*
X25838276Y-26892198D01*
X25832248Y-26894882D01*
X25677747Y-27007134D01*
X25549960Y-27149056D01*
X25454473Y-27314444D01*
X25395458Y-27496072D01*
X25394768Y-27502633D01*
X25394768Y-27502635D01*
X25383601Y-27608882D01*
X25375496Y-27686000D01*
X25376186Y-27692565D01*
X25388910Y-27813631D01*
X25376138Y-27883469D01*
X25327635Y-27935316D01*
X25258803Y-27952710D01*
X25191493Y-27930128D01*
X25154482Y-27889802D01*
X25139040Y-27863056D01*
X25011253Y-27721134D01*
X24856752Y-27608882D01*
X24850724Y-27606198D01*
X24850722Y-27606197D01*
X24688319Y-27533891D01*
X24688318Y-27533891D01*
X24682288Y-27531206D01*
X24588887Y-27511353D01*
X24501944Y-27492872D01*
X24501939Y-27492872D01*
X24495487Y-27491500D01*
X24304513Y-27491500D01*
X24298061Y-27492872D01*
X24298056Y-27492872D01*
X24211113Y-27511353D01*
X24117712Y-27531206D01*
X24111682Y-27533891D01*
X24111681Y-27533891D01*
X23949278Y-27606197D01*
X23949276Y-27606198D01*
X23943248Y-27608882D01*
X23788747Y-27721134D01*
X23660960Y-27863056D01*
X23565473Y-28028444D01*
X23506458Y-28210072D01*
X23486496Y-28400000D01*
X22497018Y-28400000D01*
X22493178Y-26100000D01*
X23486496Y-26100000D01*
X23506458Y-26289928D01*
X23565473Y-26471556D01*
X23660960Y-26636944D01*
X23788747Y-26778866D01*
X23943248Y-26891118D01*
X23949276Y-26893802D01*
X23949278Y-26893803D01*
X24111681Y-26966109D01*
X24117712Y-26968794D01*
X24211112Y-26988647D01*
X24298056Y-27007128D01*
X24298061Y-27007128D01*
X24304513Y-27008500D01*
X24495487Y-27008500D01*
X24501939Y-27007128D01*
X24501944Y-27007128D01*
X24588887Y-26988647D01*
X24682288Y-26968794D01*
X24688319Y-26966109D01*
X24850722Y-26893803D01*
X24850724Y-26893802D01*
X24856752Y-26891118D01*
X25011253Y-26778866D01*
X25139040Y-26636944D01*
X25234527Y-26471556D01*
X25293542Y-26289928D01*
X25313504Y-26100000D01*
X25293542Y-25910072D01*
X25234527Y-25728444D01*
X25139040Y-25563056D01*
X25011253Y-25421134D01*
X24856752Y-25308882D01*
X24850724Y-25306198D01*
X24850722Y-25306197D01*
X24688319Y-25233891D01*
X24688318Y-25233891D01*
X24682288Y-25231206D01*
X24588888Y-25211353D01*
X24501944Y-25192872D01*
X24501939Y-25192872D01*
X24495487Y-25191500D01*
X24304513Y-25191500D01*
X24298061Y-25192872D01*
X24298056Y-25192872D01*
X24211112Y-25211353D01*
X24117712Y-25231206D01*
X24111682Y-25233891D01*
X24111681Y-25233891D01*
X23949278Y-25306197D01*
X23949276Y-25306198D01*
X23943248Y-25308882D01*
X23788747Y-25421134D01*
X23660960Y-25563056D01*
X23565473Y-25728444D01*
X23506458Y-25910072D01*
X23486496Y-26100000D01*
X22493178Y-26100000D01*
X22485225Y-21336000D01*
X23213547Y-21336000D01*
X23233339Y-21637966D01*
X23292376Y-21934766D01*
X23389648Y-22221320D01*
X23523491Y-22492726D01*
X23691614Y-22744341D01*
X23694328Y-22747435D01*
X23694332Y-22747441D01*
X23800739Y-22868774D01*
X23891142Y-22971858D01*
X23894231Y-22974567D01*
X24115559Y-23168668D01*
X24115565Y-23168672D01*
X24118659Y-23171386D01*
X24122085Y-23173675D01*
X24122090Y-23173679D01*
X24310371Y-23299484D01*
X24370273Y-23339509D01*
X24373972Y-23341333D01*
X24373977Y-23341336D01*
X24479624Y-23393435D01*
X24641680Y-23473352D01*
X24645585Y-23474677D01*
X24645586Y-23474678D01*
X24924327Y-23569298D01*
X24924330Y-23569299D01*
X24928234Y-23570624D01*
X24932273Y-23571427D01*
X24932279Y-23571429D01*
X25220991Y-23628857D01*
X25220994Y-23628857D01*
X25225034Y-23629661D01*
X25229145Y-23629930D01*
X25229149Y-23629931D01*
X25522881Y-23649183D01*
X25527000Y-23649453D01*
X25531119Y-23649183D01*
X25824851Y-23629931D01*
X25824855Y-23629930D01*
X25828966Y-23629661D01*
X25833006Y-23628857D01*
X25833009Y-23628857D01*
X26121721Y-23571429D01*
X26121727Y-23571427D01*
X26125766Y-23570624D01*
X26129670Y-23569299D01*
X26129673Y-23569298D01*
X26408414Y-23474678D01*
X26408415Y-23474677D01*
X26412320Y-23473352D01*
X26561063Y-23400000D01*
X29786496Y-23400000D01*
X29787186Y-23406565D01*
X29794206Y-23473352D01*
X29806458Y-23589928D01*
X29865473Y-23771556D01*
X29960960Y-23936944D01*
X30088747Y-24078866D01*
X30243248Y-24191118D01*
X30249276Y-24193802D01*
X30249278Y-24193803D01*
X30411681Y-24266109D01*
X30417712Y-24268794D01*
X30511112Y-24288647D01*
X30598056Y-24307128D01*
X30598061Y-24307128D01*
X30604513Y-24308500D01*
X30795487Y-24308500D01*
X30801939Y-24307128D01*
X30801944Y-24307128D01*
X30888888Y-24288647D01*
X30982288Y-24268794D01*
X30988319Y-24266109D01*
X31150722Y-24193803D01*
X31150724Y-24193802D01*
X31156752Y-24191118D01*
X31311253Y-24078866D01*
X31439040Y-23936944D01*
X31534527Y-23771556D01*
X31593542Y-23589928D01*
X31605795Y-23473352D01*
X31612814Y-23406565D01*
X31613504Y-23400000D01*
X33386496Y-23400000D01*
X33387186Y-23406565D01*
X33394206Y-23473352D01*
X33406458Y-23589928D01*
X33465473Y-23771556D01*
X33560960Y-23936944D01*
X33688747Y-24078866D01*
X33843248Y-24191118D01*
X33849276Y-24193802D01*
X33849278Y-24193803D01*
X34011681Y-24266109D01*
X34017712Y-24268794D01*
X34111112Y-24288647D01*
X34198056Y-24307128D01*
X34198061Y-24307128D01*
X34204513Y-24308500D01*
X34395487Y-24308500D01*
X34401939Y-24307128D01*
X34401944Y-24307128D01*
X34488888Y-24288647D01*
X34582288Y-24268794D01*
X34588319Y-24266109D01*
X34750722Y-24193803D01*
X34750724Y-24193802D01*
X34756752Y-24191118D01*
X34911253Y-24078866D01*
X35039040Y-23936944D01*
X35134527Y-23771556D01*
X35193542Y-23589928D01*
X35205795Y-23473352D01*
X35212814Y-23406565D01*
X35213504Y-23400000D01*
X36986496Y-23400000D01*
X36987186Y-23406565D01*
X36994206Y-23473352D01*
X37006458Y-23589928D01*
X37065473Y-23771556D01*
X37160960Y-23936944D01*
X37288747Y-24078866D01*
X37443248Y-24191118D01*
X37449276Y-24193802D01*
X37449278Y-24193803D01*
X37611681Y-24266109D01*
X37617712Y-24268794D01*
X37711112Y-24288647D01*
X37798056Y-24307128D01*
X37798061Y-24307128D01*
X37804513Y-24308500D01*
X37995487Y-24308500D01*
X38001939Y-24307128D01*
X38001944Y-24307128D01*
X38088888Y-24288647D01*
X38182288Y-24268794D01*
X38188319Y-24266109D01*
X38350722Y-24193803D01*
X38350724Y-24193802D01*
X38356752Y-24191118D01*
X38511253Y-24078866D01*
X38639040Y-23936944D01*
X38734527Y-23771556D01*
X38793542Y-23589928D01*
X38805795Y-23473352D01*
X38812814Y-23406565D01*
X38813504Y-23400000D01*
X40586496Y-23400000D01*
X40587186Y-23406565D01*
X40594206Y-23473352D01*
X40606458Y-23589928D01*
X40665473Y-23771556D01*
X40760960Y-23936944D01*
X40888747Y-24078866D01*
X41043248Y-24191118D01*
X41049276Y-24193802D01*
X41049278Y-24193803D01*
X41211681Y-24266109D01*
X41217712Y-24268794D01*
X41311112Y-24288647D01*
X41398056Y-24307128D01*
X41398061Y-24307128D01*
X41404513Y-24308500D01*
X41595487Y-24308500D01*
X41601939Y-24307128D01*
X41601944Y-24307128D01*
X41688888Y-24288647D01*
X41782288Y-24268794D01*
X41788319Y-24266109D01*
X41950722Y-24193803D01*
X41950724Y-24193802D01*
X41956752Y-24191118D01*
X42111253Y-24078866D01*
X42239040Y-23936944D01*
X42334527Y-23771556D01*
X42393542Y-23589928D01*
X42405795Y-23473352D01*
X42412814Y-23406565D01*
X42413504Y-23400000D01*
X42393542Y-23210072D01*
X42334527Y-23028444D01*
X42239040Y-22863056D01*
X42111253Y-22721134D01*
X41956752Y-22608882D01*
X41950724Y-22606198D01*
X41950722Y-22606197D01*
X41788319Y-22533891D01*
X41788318Y-22533891D01*
X41782288Y-22531206D01*
X41688887Y-22511353D01*
X41601944Y-22492872D01*
X41601939Y-22492872D01*
X41595487Y-22491500D01*
X41404513Y-22491500D01*
X41398061Y-22492872D01*
X41398056Y-22492872D01*
X41311113Y-22511353D01*
X41217712Y-22531206D01*
X41211682Y-22533891D01*
X41211681Y-22533891D01*
X41049278Y-22606197D01*
X41049276Y-22606198D01*
X41043248Y-22608882D01*
X40888747Y-22721134D01*
X40760960Y-22863056D01*
X40665473Y-23028444D01*
X40606458Y-23210072D01*
X40586496Y-23400000D01*
X38813504Y-23400000D01*
X38793542Y-23210072D01*
X38734527Y-23028444D01*
X38639040Y-22863056D01*
X38511253Y-22721134D01*
X38356752Y-22608882D01*
X38350724Y-22606198D01*
X38350722Y-22606197D01*
X38188319Y-22533891D01*
X38188318Y-22533891D01*
X38182288Y-22531206D01*
X38088887Y-22511353D01*
X38001944Y-22492872D01*
X38001939Y-22492872D01*
X37995487Y-22491500D01*
X37804513Y-22491500D01*
X37798061Y-22492872D01*
X37798056Y-22492872D01*
X37711113Y-22511353D01*
X37617712Y-22531206D01*
X37611682Y-22533891D01*
X37611681Y-22533891D01*
X37449278Y-22606197D01*
X37449276Y-22606198D01*
X37443248Y-22608882D01*
X37288747Y-22721134D01*
X37160960Y-22863056D01*
X37065473Y-23028444D01*
X37006458Y-23210072D01*
X36986496Y-23400000D01*
X35213504Y-23400000D01*
X35193542Y-23210072D01*
X35134527Y-23028444D01*
X35039040Y-22863056D01*
X34911253Y-22721134D01*
X34756752Y-22608882D01*
X34750724Y-22606198D01*
X34750722Y-22606197D01*
X34588319Y-22533891D01*
X34588318Y-22533891D01*
X34582288Y-22531206D01*
X34488887Y-22511353D01*
X34401944Y-22492872D01*
X34401939Y-22492872D01*
X34395487Y-22491500D01*
X34204513Y-22491500D01*
X34198061Y-22492872D01*
X34198056Y-22492872D01*
X34111113Y-22511353D01*
X34017712Y-22531206D01*
X34011682Y-22533891D01*
X34011681Y-22533891D01*
X33849278Y-22606197D01*
X33849276Y-22606198D01*
X33843248Y-22608882D01*
X33688747Y-22721134D01*
X33560960Y-22863056D01*
X33465473Y-23028444D01*
X33406458Y-23210072D01*
X33386496Y-23400000D01*
X31613504Y-23400000D01*
X31593542Y-23210072D01*
X31534527Y-23028444D01*
X31439040Y-22863056D01*
X31311253Y-22721134D01*
X31156752Y-22608882D01*
X31150724Y-22606198D01*
X31150722Y-22606197D01*
X30988319Y-22533891D01*
X30988318Y-22533891D01*
X30982288Y-22531206D01*
X30888887Y-22511353D01*
X30801944Y-22492872D01*
X30801939Y-22492872D01*
X30795487Y-22491500D01*
X30604513Y-22491500D01*
X30598061Y-22492872D01*
X30598056Y-22492872D01*
X30511113Y-22511353D01*
X30417712Y-22531206D01*
X30411682Y-22533891D01*
X30411681Y-22533891D01*
X30249278Y-22606197D01*
X30249276Y-22606198D01*
X30243248Y-22608882D01*
X30088747Y-22721134D01*
X29960960Y-22863056D01*
X29865473Y-23028444D01*
X29806458Y-23210072D01*
X29786496Y-23400000D01*
X26561063Y-23400000D01*
X26574376Y-23393435D01*
X26680023Y-23341336D01*
X26680028Y-23341333D01*
X26683727Y-23339509D01*
X26743629Y-23299484D01*
X26931910Y-23173679D01*
X26931915Y-23173675D01*
X26935341Y-23171386D01*
X26938435Y-23168672D01*
X26938441Y-23168668D01*
X27159769Y-22974567D01*
X27162858Y-22971858D01*
X27253261Y-22868774D01*
X27359668Y-22747441D01*
X27359672Y-22747435D01*
X27362386Y-22744341D01*
X27530509Y-22492726D01*
X27664352Y-22221320D01*
X27761624Y-21934766D01*
X27820661Y-21637966D01*
X27840453Y-21336000D01*
X44168547Y-21336000D01*
X44188339Y-21637966D01*
X44247376Y-21934766D01*
X44344648Y-22221320D01*
X44478491Y-22492726D01*
X44646614Y-22744341D01*
X44649328Y-22747435D01*
X44649332Y-22747441D01*
X44755739Y-22868774D01*
X44846142Y-22971858D01*
X44849231Y-22974567D01*
X45070559Y-23168668D01*
X45070565Y-23168672D01*
X45073659Y-23171386D01*
X45077085Y-23173675D01*
X45077090Y-23173679D01*
X45265371Y-23299484D01*
X45325273Y-23339509D01*
X45328972Y-23341333D01*
X45328977Y-23341336D01*
X45434624Y-23393435D01*
X45596680Y-23473352D01*
X45600585Y-23474677D01*
X45600586Y-23474678D01*
X45879327Y-23569298D01*
X45879330Y-23569299D01*
X45883234Y-23570624D01*
X45887273Y-23571427D01*
X45887279Y-23571429D01*
X46175991Y-23628857D01*
X46175994Y-23628857D01*
X46180034Y-23629661D01*
X46184145Y-23629930D01*
X46184149Y-23629931D01*
X46477881Y-23649183D01*
X46482000Y-23649453D01*
X46486119Y-23649183D01*
X46779851Y-23629931D01*
X46779855Y-23629930D01*
X46783966Y-23629661D01*
X46788006Y-23628857D01*
X46788009Y-23628857D01*
X47076721Y-23571429D01*
X47076727Y-23571427D01*
X47080766Y-23570624D01*
X47084670Y-23569299D01*
X47084673Y-23569298D01*
X47363414Y-23474678D01*
X47363415Y-23474677D01*
X47367320Y-23473352D01*
X47529376Y-23393435D01*
X47635023Y-23341336D01*
X47635028Y-23341333D01*
X47638727Y-23339509D01*
X47698629Y-23299484D01*
X47886910Y-23173679D01*
X47886915Y-23173675D01*
X47890341Y-23171386D01*
X47893435Y-23168672D01*
X47893441Y-23168668D01*
X48114769Y-22974567D01*
X48117858Y-22971858D01*
X48208261Y-22868774D01*
X48314668Y-22747441D01*
X48314672Y-22747435D01*
X48317386Y-22744341D01*
X48485509Y-22492726D01*
X48619352Y-22221320D01*
X48716624Y-21934766D01*
X48775661Y-21637966D01*
X48795453Y-21336000D01*
X48775661Y-21034034D01*
X48742259Y-20866109D01*
X48717429Y-20741279D01*
X48717427Y-20741273D01*
X48716624Y-20737234D01*
X48619352Y-20450680D01*
X48490763Y-20189928D01*
X48487336Y-20182978D01*
X48487333Y-20182973D01*
X48485509Y-20179274D01*
X48317386Y-19927659D01*
X48314672Y-19924565D01*
X48314668Y-19924559D01*
X48120567Y-19703231D01*
X48117858Y-19700142D01*
X48043269Y-19634729D01*
X47893441Y-19503332D01*
X47893435Y-19503328D01*
X47890341Y-19500614D01*
X47886911Y-19498322D01*
X47886910Y-19498321D01*
X47642160Y-19334785D01*
X47638727Y-19332491D01*
X47635028Y-19330667D01*
X47635023Y-19330664D01*
X47395942Y-19212763D01*
X47367320Y-19198648D01*
X47363414Y-19197322D01*
X47084673Y-19102702D01*
X47084670Y-19102701D01*
X47080766Y-19101376D01*
X47076727Y-19100573D01*
X47076721Y-19100571D01*
X46788009Y-19043143D01*
X46788006Y-19043143D01*
X46783966Y-19042339D01*
X46779855Y-19042070D01*
X46779851Y-19042069D01*
X46486119Y-19022817D01*
X46482000Y-19022547D01*
X46477881Y-19022817D01*
X46184149Y-19042069D01*
X46184145Y-19042070D01*
X46180034Y-19042339D01*
X46175994Y-19043143D01*
X46175991Y-19043143D01*
X45887279Y-19100571D01*
X45887273Y-19100573D01*
X45883234Y-19101376D01*
X45879330Y-19102701D01*
X45879327Y-19102702D01*
X45600586Y-19197322D01*
X45596680Y-19198648D01*
X45575928Y-19208882D01*
X45328978Y-19330664D01*
X45328973Y-19330667D01*
X45325274Y-19332491D01*
X45073659Y-19500614D01*
X45070565Y-19503328D01*
X45070559Y-19503332D01*
X44920731Y-19634729D01*
X44846142Y-19700142D01*
X44843433Y-19703231D01*
X44649332Y-19924559D01*
X44649328Y-19924565D01*
X44646614Y-19927659D01*
X44478491Y-20179274D01*
X44476667Y-20182973D01*
X44476664Y-20182978D01*
X44473237Y-20189928D01*
X44344648Y-20450680D01*
X44247376Y-20737234D01*
X44246573Y-20741273D01*
X44246571Y-20741279D01*
X44221741Y-20866109D01*
X44188339Y-21034034D01*
X44168547Y-21336000D01*
X27840453Y-21336000D01*
X27820661Y-21034034D01*
X27787259Y-20866109D01*
X27762429Y-20741279D01*
X27762427Y-20741273D01*
X27761624Y-20737234D01*
X27664352Y-20450680D01*
X27535763Y-20189928D01*
X27532336Y-20182978D01*
X27532333Y-20182973D01*
X27530509Y-20179274D01*
X27410722Y-20000000D01*
X29786496Y-20000000D01*
X29787186Y-20006565D01*
X29805728Y-20182978D01*
X29806458Y-20189928D01*
X29865473Y-20371556D01*
X29960960Y-20536944D01*
X30088747Y-20678866D01*
X30243248Y-20791118D01*
X30249276Y-20793802D01*
X30249278Y-20793803D01*
X30411681Y-20866109D01*
X30417712Y-20868794D01*
X30511112Y-20888647D01*
X30598056Y-20907128D01*
X30598061Y-20907128D01*
X30604513Y-20908500D01*
X30795487Y-20908500D01*
X30801939Y-20907128D01*
X30801944Y-20907128D01*
X30888888Y-20888647D01*
X30982288Y-20868794D01*
X30988319Y-20866109D01*
X31150722Y-20793803D01*
X31150724Y-20793802D01*
X31156752Y-20791118D01*
X31311253Y-20678866D01*
X31439040Y-20536944D01*
X31534527Y-20371556D01*
X31593542Y-20189928D01*
X31594273Y-20182978D01*
X31612814Y-20006565D01*
X31613504Y-20000000D01*
X33386496Y-20000000D01*
X33387186Y-20006565D01*
X33405728Y-20182978D01*
X33406458Y-20189928D01*
X33465473Y-20371556D01*
X33560960Y-20536944D01*
X33688747Y-20678866D01*
X33843248Y-20791118D01*
X33849276Y-20793802D01*
X33849278Y-20793803D01*
X34011681Y-20866109D01*
X34017712Y-20868794D01*
X34111112Y-20888647D01*
X34198056Y-20907128D01*
X34198061Y-20907128D01*
X34204513Y-20908500D01*
X34395487Y-20908500D01*
X34401939Y-20907128D01*
X34401944Y-20907128D01*
X34488888Y-20888647D01*
X34582288Y-20868794D01*
X34588319Y-20866109D01*
X34750722Y-20793803D01*
X34750724Y-20793802D01*
X34756752Y-20791118D01*
X34911253Y-20678866D01*
X35039040Y-20536944D01*
X35134527Y-20371556D01*
X35193542Y-20189928D01*
X35194273Y-20182978D01*
X35212814Y-20006565D01*
X35213504Y-20000000D01*
X36986496Y-20000000D01*
X36987186Y-20006565D01*
X37005728Y-20182978D01*
X37006458Y-20189928D01*
X37065473Y-20371556D01*
X37160960Y-20536944D01*
X37288747Y-20678866D01*
X37443248Y-20791118D01*
X37449276Y-20793802D01*
X37449278Y-20793803D01*
X37611681Y-20866109D01*
X37617712Y-20868794D01*
X37711112Y-20888647D01*
X37798056Y-20907128D01*
X37798061Y-20907128D01*
X37804513Y-20908500D01*
X37995487Y-20908500D01*
X38001939Y-20907128D01*
X38001944Y-20907128D01*
X38088888Y-20888647D01*
X38182288Y-20868794D01*
X38188319Y-20866109D01*
X38350722Y-20793803D01*
X38350724Y-20793802D01*
X38356752Y-20791118D01*
X38511253Y-20678866D01*
X38639040Y-20536944D01*
X38734527Y-20371556D01*
X38793542Y-20189928D01*
X38794273Y-20182978D01*
X38812814Y-20006565D01*
X38813504Y-20000000D01*
X40586496Y-20000000D01*
X40587186Y-20006565D01*
X40605728Y-20182978D01*
X40606458Y-20189928D01*
X40665473Y-20371556D01*
X40760960Y-20536944D01*
X40888747Y-20678866D01*
X41043248Y-20791118D01*
X41049276Y-20793802D01*
X41049278Y-20793803D01*
X41211681Y-20866109D01*
X41217712Y-20868794D01*
X41311112Y-20888647D01*
X41398056Y-20907128D01*
X41398061Y-20907128D01*
X41404513Y-20908500D01*
X41595487Y-20908500D01*
X41601939Y-20907128D01*
X41601944Y-20907128D01*
X41688888Y-20888647D01*
X41782288Y-20868794D01*
X41788319Y-20866109D01*
X41950722Y-20793803D01*
X41950724Y-20793802D01*
X41956752Y-20791118D01*
X42111253Y-20678866D01*
X42239040Y-20536944D01*
X42334527Y-20371556D01*
X42393542Y-20189928D01*
X42394273Y-20182978D01*
X42412814Y-20006565D01*
X42413504Y-20000000D01*
X42393542Y-19810072D01*
X42334527Y-19628444D01*
X42239040Y-19463056D01*
X42123545Y-19334785D01*
X42115675Y-19326045D01*
X42115674Y-19326044D01*
X42111253Y-19321134D01*
X41956752Y-19208882D01*
X41950724Y-19206198D01*
X41950722Y-19206197D01*
X41788319Y-19133891D01*
X41788318Y-19133891D01*
X41782288Y-19131206D01*
X41688887Y-19111353D01*
X41601944Y-19092872D01*
X41601939Y-19092872D01*
X41595487Y-19091500D01*
X41404513Y-19091500D01*
X41398061Y-19092872D01*
X41398056Y-19092872D01*
X41311113Y-19111353D01*
X41217712Y-19131206D01*
X41211682Y-19133891D01*
X41211681Y-19133891D01*
X41049278Y-19206197D01*
X41049276Y-19206198D01*
X41043248Y-19208882D01*
X40888747Y-19321134D01*
X40884326Y-19326044D01*
X40884325Y-19326045D01*
X40876456Y-19334785D01*
X40760960Y-19463056D01*
X40665473Y-19628444D01*
X40606458Y-19810072D01*
X40586496Y-20000000D01*
X38813504Y-20000000D01*
X38793542Y-19810072D01*
X38734527Y-19628444D01*
X38639040Y-19463056D01*
X38523545Y-19334785D01*
X38515675Y-19326045D01*
X38515674Y-19326044D01*
X38511253Y-19321134D01*
X38356752Y-19208882D01*
X38350724Y-19206198D01*
X38350722Y-19206197D01*
X38188319Y-19133891D01*
X38188318Y-19133891D01*
X38182288Y-19131206D01*
X38088887Y-19111353D01*
X38001944Y-19092872D01*
X38001939Y-19092872D01*
X37995487Y-19091500D01*
X37804513Y-19091500D01*
X37798061Y-19092872D01*
X37798056Y-19092872D01*
X37711113Y-19111353D01*
X37617712Y-19131206D01*
X37611682Y-19133891D01*
X37611681Y-19133891D01*
X37449278Y-19206197D01*
X37449276Y-19206198D01*
X37443248Y-19208882D01*
X37288747Y-19321134D01*
X37284326Y-19326044D01*
X37284325Y-19326045D01*
X37276456Y-19334785D01*
X37160960Y-19463056D01*
X37065473Y-19628444D01*
X37006458Y-19810072D01*
X36986496Y-20000000D01*
X35213504Y-20000000D01*
X35193542Y-19810072D01*
X35134527Y-19628444D01*
X35039040Y-19463056D01*
X34923545Y-19334785D01*
X34915675Y-19326045D01*
X34915674Y-19326044D01*
X34911253Y-19321134D01*
X34756752Y-19208882D01*
X34750724Y-19206198D01*
X34750722Y-19206197D01*
X34588319Y-19133891D01*
X34588318Y-19133891D01*
X34582288Y-19131206D01*
X34488887Y-19111353D01*
X34401944Y-19092872D01*
X34401939Y-19092872D01*
X34395487Y-19091500D01*
X34204513Y-19091500D01*
X34198061Y-19092872D01*
X34198056Y-19092872D01*
X34111113Y-19111353D01*
X34017712Y-19131206D01*
X34011682Y-19133891D01*
X34011681Y-19133891D01*
X33849278Y-19206197D01*
X33849276Y-19206198D01*
X33843248Y-19208882D01*
X33688747Y-19321134D01*
X33684326Y-19326044D01*
X33684325Y-19326045D01*
X33676456Y-19334785D01*
X33560960Y-19463056D01*
X33465473Y-19628444D01*
X33406458Y-19810072D01*
X33386496Y-20000000D01*
X31613504Y-20000000D01*
X31593542Y-19810072D01*
X31534527Y-19628444D01*
X31439040Y-19463056D01*
X31323545Y-19334785D01*
X31315675Y-19326045D01*
X31315674Y-19326044D01*
X31311253Y-19321134D01*
X31156752Y-19208882D01*
X31150724Y-19206198D01*
X31150722Y-19206197D01*
X30988319Y-19133891D01*
X30988318Y-19133891D01*
X30982288Y-19131206D01*
X30888887Y-19111353D01*
X30801944Y-19092872D01*
X30801939Y-19092872D01*
X30795487Y-19091500D01*
X30604513Y-19091500D01*
X30598061Y-19092872D01*
X30598056Y-19092872D01*
X30511113Y-19111353D01*
X30417712Y-19131206D01*
X30411682Y-19133891D01*
X30411681Y-19133891D01*
X30249278Y-19206197D01*
X30249276Y-19206198D01*
X30243248Y-19208882D01*
X30088747Y-19321134D01*
X30084326Y-19326044D01*
X30084325Y-19326045D01*
X30076456Y-19334785D01*
X29960960Y-19463056D01*
X29865473Y-19628444D01*
X29806458Y-19810072D01*
X29786496Y-20000000D01*
X27410722Y-20000000D01*
X27362386Y-19927659D01*
X27359672Y-19924565D01*
X27359668Y-19924559D01*
X27165567Y-19703231D01*
X27162858Y-19700142D01*
X27088269Y-19634729D01*
X26938441Y-19503332D01*
X26938435Y-19503328D01*
X26935341Y-19500614D01*
X26931911Y-19498322D01*
X26931910Y-19498321D01*
X26687160Y-19334785D01*
X26683727Y-19332491D01*
X26680028Y-19330667D01*
X26680023Y-19330664D01*
X26440942Y-19212763D01*
X26412320Y-19198648D01*
X26408414Y-19197322D01*
X26129673Y-19102702D01*
X26129670Y-19102701D01*
X26125766Y-19101376D01*
X26121727Y-19100573D01*
X26121721Y-19100571D01*
X25833009Y-19043143D01*
X25833006Y-19043143D01*
X25828966Y-19042339D01*
X25824855Y-19042070D01*
X25824851Y-19042069D01*
X25531119Y-19022817D01*
X25527000Y-19022547D01*
X25522881Y-19022817D01*
X25229149Y-19042069D01*
X25229145Y-19042070D01*
X25225034Y-19042339D01*
X25220994Y-19043143D01*
X25220991Y-19043143D01*
X24932279Y-19100571D01*
X24932273Y-19100573D01*
X24928234Y-19101376D01*
X24924330Y-19102701D01*
X24924327Y-19102702D01*
X24645586Y-19197322D01*
X24641680Y-19198648D01*
X24620928Y-19208882D01*
X24373978Y-19330664D01*
X24373973Y-19330667D01*
X24370274Y-19332491D01*
X24118659Y-19500614D01*
X24115565Y-19503328D01*
X24115559Y-19503332D01*
X23965731Y-19634729D01*
X23891142Y-19700142D01*
X23888433Y-19703231D01*
X23694332Y-19924559D01*
X23694328Y-19924565D01*
X23691614Y-19927659D01*
X23523491Y-20179274D01*
X23521667Y-20182973D01*
X23521664Y-20182978D01*
X23518237Y-20189928D01*
X23389648Y-20450680D01*
X23292376Y-20737234D01*
X23291573Y-20741273D01*
X23291571Y-20741279D01*
X23266741Y-20866109D01*
X23233339Y-21034034D01*
X23213547Y-21336000D01*
X22485225Y-21336000D01*
X22480560Y-18541710D01*
X22500448Y-18473556D01*
X22554026Y-18426974D01*
X22606560Y-18415500D01*
X49365902Y-18415500D01*
X49434023Y-18435502D01*
G37*
%TD.AperFunction*%
%TD*%
M02*
