%TF.GenerationSoftware,KiCad,Pcbnew,(6.0.8)*%
%TF.CreationDate,2023-06-03T22:28:48+01:00*%
%TF.ProjectId,circuit board design v2.1,63697263-7569-4742-9062-6f6172642064,rev?*%
%TF.SameCoordinates,Original*%
%TF.FileFunction,Legend,Bot*%
%TF.FilePolarity,Positive*%
%FSLAX46Y46*%
G04 Gerber Fmt 4.6, Leading zero omitted, Abs format (unit mm)*
G04 Created by KiCad (PCBNEW (6.0.8)) date 2023-06-03 22:28:48*
%MOMM*%
%LPD*%
G01*
G04 APERTURE LIST*
%ADD10C,0.150000*%
%ADD11C,0.254000*%
%ADD12C,0.127000*%
%ADD13C,0.120000*%
%ADD14C,0.200000*%
%ADD15C,0.010000*%
G04 APERTURE END LIST*
D10*
X47839380Y-40846952D02*
X48553666Y-40846952D01*
X48696523Y-40799333D01*
X48791761Y-40704095D01*
X48839380Y-40561238D01*
X48839380Y-40466000D01*
X48839380Y-41799333D02*
X48839380Y-41323142D01*
X47839380Y-41323142D01*
X48744142Y-42704095D02*
X48791761Y-42656476D01*
X48839380Y-42513619D01*
X48839380Y-42418380D01*
X48791761Y-42275523D01*
X48696523Y-42180285D01*
X48601285Y-42132666D01*
X48410809Y-42085047D01*
X48267952Y-42085047D01*
X48077476Y-42132666D01*
X47982238Y-42180285D01*
X47887000Y-42275523D01*
X47839380Y-42418380D01*
X47839380Y-42513619D01*
X47887000Y-42656476D01*
X47934619Y-42704095D01*
X47839380Y-43418380D02*
X48553666Y-43418380D01*
X48696523Y-43370761D01*
X48791761Y-43275523D01*
X48839380Y-43132666D01*
X48839380Y-43037428D01*
X48839380Y-44370761D02*
X48839380Y-43894571D01*
X47839380Y-43894571D01*
X48744142Y-45275523D02*
X48791761Y-45227904D01*
X48839380Y-45085047D01*
X48839380Y-44989809D01*
X48791761Y-44846952D01*
X48696523Y-44751714D01*
X48601285Y-44704095D01*
X48410809Y-44656476D01*
X48267952Y-44656476D01*
X48077476Y-44704095D01*
X47982238Y-44751714D01*
X47887000Y-44846952D01*
X47839380Y-44989809D01*
X47839380Y-45085047D01*
X47887000Y-45227904D01*
X47934619Y-45275523D01*
X47839380Y-45989809D02*
X48553666Y-45989809D01*
X48696523Y-45942190D01*
X48791761Y-45846952D01*
X48839380Y-45704095D01*
X48839380Y-45608857D01*
X48839380Y-46942190D02*
X48839380Y-46466000D01*
X47839380Y-46466000D01*
X48744142Y-47846952D02*
X48791761Y-47799333D01*
X48839380Y-47656476D01*
X48839380Y-47561238D01*
X48791761Y-47418380D01*
X48696523Y-47323142D01*
X48601285Y-47275523D01*
X48410809Y-47227904D01*
X48267952Y-47227904D01*
X48077476Y-47275523D01*
X47982238Y-47323142D01*
X47887000Y-47418380D01*
X47839380Y-47561238D01*
X47839380Y-47656476D01*
X47887000Y-47799333D01*
X47934619Y-47846952D01*
X47839380Y-48561238D02*
X48553666Y-48561238D01*
X48696523Y-48513619D01*
X48791761Y-48418380D01*
X48839380Y-48275523D01*
X48839380Y-48180285D01*
X48839380Y-49513619D02*
X48839380Y-49037428D01*
X47839380Y-49037428D01*
X48744142Y-50418380D02*
X48791761Y-50370761D01*
X48839380Y-50227904D01*
X48839380Y-50132666D01*
X48791761Y-49989809D01*
X48696523Y-49894571D01*
X48601285Y-49846952D01*
X48410809Y-49799333D01*
X48267952Y-49799333D01*
X48077476Y-49846952D01*
X47982238Y-49894571D01*
X47887000Y-49989809D01*
X47839380Y-50132666D01*
X47839380Y-50227904D01*
X47887000Y-50370761D01*
X47934619Y-50418380D01*
X45702904Y-25328571D02*
X46036238Y-25328571D01*
X46036238Y-25852380D02*
X46036238Y-24852380D01*
X45560047Y-24852380D01*
X45036238Y-25852380D02*
X45131476Y-25804761D01*
X45179095Y-25709523D01*
X45179095Y-24852380D01*
X44655285Y-25852380D02*
X44655285Y-25185714D01*
X44655285Y-24852380D02*
X44702904Y-24900000D01*
X44655285Y-24947619D01*
X44607666Y-24900000D01*
X44655285Y-24852380D01*
X44655285Y-24947619D01*
X43750523Y-25185714D02*
X43750523Y-25995238D01*
X43798142Y-26090476D01*
X43845761Y-26138095D01*
X43941000Y-26185714D01*
X44083857Y-26185714D01*
X44179095Y-26138095D01*
X43750523Y-25804761D02*
X43845761Y-25852380D01*
X44036238Y-25852380D01*
X44131476Y-25804761D01*
X44179095Y-25757142D01*
X44226714Y-25661904D01*
X44226714Y-25376190D01*
X44179095Y-25280952D01*
X44131476Y-25233333D01*
X44036238Y-25185714D01*
X43845761Y-25185714D01*
X43750523Y-25233333D01*
X43274333Y-25852380D02*
X43274333Y-24852380D01*
X42845761Y-25852380D02*
X42845761Y-25328571D01*
X42893380Y-25233333D01*
X42988619Y-25185714D01*
X43131476Y-25185714D01*
X43226714Y-25233333D01*
X43274333Y-25280952D01*
X42512428Y-25185714D02*
X42131476Y-25185714D01*
X42369571Y-24852380D02*
X42369571Y-25709523D01*
X42321952Y-25804761D01*
X42226714Y-25852380D01*
X42131476Y-25852380D01*
X40464809Y-25757142D02*
X40512428Y-25804761D01*
X40655285Y-25852380D01*
X40750523Y-25852380D01*
X40893380Y-25804761D01*
X40988619Y-25709523D01*
X41036238Y-25614285D01*
X41083857Y-25423809D01*
X41083857Y-25280952D01*
X41036238Y-25090476D01*
X40988619Y-24995238D01*
X40893380Y-24900000D01*
X40750523Y-24852380D01*
X40655285Y-24852380D01*
X40512428Y-24900000D01*
X40464809Y-24947619D01*
X39893380Y-25852380D02*
X39988619Y-25804761D01*
X40036238Y-25757142D01*
X40083857Y-25661904D01*
X40083857Y-25376190D01*
X40036238Y-25280952D01*
X39988619Y-25233333D01*
X39893380Y-25185714D01*
X39750523Y-25185714D01*
X39655285Y-25233333D01*
X39607666Y-25280952D01*
X39560047Y-25376190D01*
X39560047Y-25661904D01*
X39607666Y-25757142D01*
X39655285Y-25804761D01*
X39750523Y-25852380D01*
X39893380Y-25852380D01*
X39131476Y-25852380D02*
X39131476Y-25185714D01*
X39131476Y-25280952D02*
X39083857Y-25233333D01*
X38988619Y-25185714D01*
X38845761Y-25185714D01*
X38750523Y-25233333D01*
X38702904Y-25328571D01*
X38702904Y-25852380D01*
X38702904Y-25328571D02*
X38655285Y-25233333D01*
X38560047Y-25185714D01*
X38417190Y-25185714D01*
X38321952Y-25233333D01*
X38274333Y-25328571D01*
X38274333Y-25852380D01*
X37798142Y-25185714D02*
X37798142Y-26185714D01*
X37798142Y-25233333D02*
X37702904Y-25185714D01*
X37512428Y-25185714D01*
X37417190Y-25233333D01*
X37369571Y-25280952D01*
X37321952Y-25376190D01*
X37321952Y-25661904D01*
X37369571Y-25757142D01*
X37417190Y-25804761D01*
X37512428Y-25852380D01*
X37702904Y-25852380D01*
X37798142Y-25804761D01*
X36464809Y-25185714D02*
X36464809Y-25852380D01*
X36893380Y-25185714D02*
X36893380Y-25709523D01*
X36845761Y-25804761D01*
X36750523Y-25852380D01*
X36607666Y-25852380D01*
X36512428Y-25804761D01*
X36464809Y-25757142D01*
X36131476Y-25185714D02*
X35750523Y-25185714D01*
X35988619Y-24852380D02*
X35988619Y-25709523D01*
X35941000Y-25804761D01*
X35845761Y-25852380D01*
X35750523Y-25852380D01*
X35036238Y-25804761D02*
X35131476Y-25852380D01*
X35321952Y-25852380D01*
X35417190Y-25804761D01*
X35464809Y-25709523D01*
X35464809Y-25328571D01*
X35417190Y-25233333D01*
X35321952Y-25185714D01*
X35131476Y-25185714D01*
X35036238Y-25233333D01*
X34988619Y-25328571D01*
X34988619Y-25423809D01*
X35464809Y-25519047D01*
X34560047Y-25852380D02*
X34560047Y-25185714D01*
X34560047Y-25376190D02*
X34512428Y-25280952D01*
X34464809Y-25233333D01*
X34369571Y-25185714D01*
X34274333Y-25185714D01*
X33321952Y-24852380D02*
X32988619Y-25852380D01*
X32655285Y-24852380D01*
X32369571Y-24947619D02*
X32321952Y-24900000D01*
X32226714Y-24852380D01*
X31988619Y-24852380D01*
X31893380Y-24900000D01*
X31845761Y-24947619D01*
X31798142Y-25042857D01*
X31798142Y-25138095D01*
X31845761Y-25280952D01*
X32417190Y-25852380D01*
X31798142Y-25852380D01*
X31369571Y-25757142D02*
X31321952Y-25804761D01*
X31369571Y-25852380D01*
X31417190Y-25804761D01*
X31369571Y-25757142D01*
X31369571Y-25852380D01*
X30369571Y-25852380D02*
X30941000Y-25852380D01*
X30655285Y-25852380D02*
X30655285Y-24852380D01*
X30750523Y-24995238D01*
X30845761Y-25090476D01*
X30941000Y-25138095D01*
X29226714Y-24947619D02*
X29179095Y-24900000D01*
X29083857Y-24852380D01*
X28845761Y-24852380D01*
X28750523Y-24900000D01*
X28702904Y-24947619D01*
X28655285Y-25042857D01*
X28655285Y-25138095D01*
X28702904Y-25280952D01*
X29274333Y-25852380D01*
X28655285Y-25852380D01*
X28036238Y-24852380D02*
X27941000Y-24852380D01*
X27845761Y-24900000D01*
X27798142Y-24947619D01*
X27750523Y-25042857D01*
X27702904Y-25233333D01*
X27702904Y-25471428D01*
X27750523Y-25661904D01*
X27798142Y-25757142D01*
X27845761Y-25804761D01*
X27941000Y-25852380D01*
X28036238Y-25852380D01*
X28131476Y-25804761D01*
X28179095Y-25757142D01*
X28226714Y-25661904D01*
X28274333Y-25471428D01*
X28274333Y-25233333D01*
X28226714Y-25042857D01*
X28179095Y-24947619D01*
X28131476Y-24900000D01*
X28036238Y-24852380D01*
X27321952Y-24947619D02*
X27274333Y-24900000D01*
X27179095Y-24852380D01*
X26941000Y-24852380D01*
X26845761Y-24900000D01*
X26798142Y-24947619D01*
X26750523Y-25042857D01*
X26750523Y-25138095D01*
X26798142Y-25280952D01*
X27369571Y-25852380D01*
X26750523Y-25852380D01*
X26417190Y-24852380D02*
X25798142Y-24852380D01*
X26131476Y-25233333D01*
X25988619Y-25233333D01*
X25893380Y-25280952D01*
X25845761Y-25328571D01*
X25798142Y-25423809D01*
X25798142Y-25661904D01*
X25845761Y-25757142D01*
X25893380Y-25804761D01*
X25988619Y-25852380D01*
X26274333Y-25852380D01*
X26369571Y-25804761D01*
X26417190Y-25757142D01*
X40266428Y-35035380D02*
X40742619Y-35035380D01*
X40742619Y-34035380D01*
X39790238Y-35035380D02*
X39885476Y-34987761D01*
X39933095Y-34940142D01*
X39980714Y-34844904D01*
X39980714Y-34559190D01*
X39933095Y-34463952D01*
X39885476Y-34416333D01*
X39790238Y-34368714D01*
X39647380Y-34368714D01*
X39552142Y-34416333D01*
X39504523Y-34463952D01*
X39456904Y-34559190D01*
X39456904Y-34844904D01*
X39504523Y-34940142D01*
X39552142Y-34987761D01*
X39647380Y-35035380D01*
X39790238Y-35035380D01*
X38599761Y-34368714D02*
X38599761Y-35035380D01*
X39028333Y-34368714D02*
X39028333Y-34892523D01*
X38980714Y-34987761D01*
X38885476Y-35035380D01*
X38742619Y-35035380D01*
X38647380Y-34987761D01*
X38599761Y-34940142D01*
X37409285Y-34749666D02*
X36933095Y-34749666D01*
X37504523Y-35035380D02*
X37171190Y-34035380D01*
X36837857Y-35035380D01*
X36361666Y-35035380D02*
X36456904Y-34987761D01*
X36504523Y-34892523D01*
X36504523Y-34035380D01*
X36028333Y-34987761D02*
X35933095Y-35035380D01*
X35742619Y-35035380D01*
X35647380Y-34987761D01*
X35599761Y-34892523D01*
X35599761Y-34844904D01*
X35647380Y-34749666D01*
X35742619Y-34702047D01*
X35885476Y-34702047D01*
X35980714Y-34654428D01*
X36028333Y-34559190D01*
X36028333Y-34511571D01*
X35980714Y-34416333D01*
X35885476Y-34368714D01*
X35742619Y-34368714D01*
X35647380Y-34416333D01*
X35314047Y-34368714D02*
X34933095Y-34368714D01*
X35171190Y-34035380D02*
X35171190Y-34892523D01*
X35123571Y-34987761D01*
X35028333Y-35035380D01*
X34933095Y-35035380D01*
X34218809Y-34987761D02*
X34314047Y-35035380D01*
X34504523Y-35035380D01*
X34599761Y-34987761D01*
X34647380Y-34892523D01*
X34647380Y-34511571D01*
X34599761Y-34416333D01*
X34504523Y-34368714D01*
X34314047Y-34368714D01*
X34218809Y-34416333D01*
X34171190Y-34511571D01*
X34171190Y-34606809D01*
X34647380Y-34702047D01*
X33361666Y-34987761D02*
X33456904Y-35035380D01*
X33647380Y-35035380D01*
X33742619Y-34987761D01*
X33790238Y-34892523D01*
X33790238Y-34511571D01*
X33742619Y-34416333D01*
X33647380Y-34368714D01*
X33456904Y-34368714D01*
X33361666Y-34416333D01*
X33314047Y-34511571D01*
X33314047Y-34606809D01*
X33790238Y-34702047D01*
X32885476Y-34368714D02*
X32885476Y-35035380D01*
X32885476Y-34463952D02*
X32837857Y-34416333D01*
X32742619Y-34368714D01*
X32599761Y-34368714D01*
X32504523Y-34416333D01*
X32456904Y-34511571D01*
X32456904Y-35035380D01*
X32028333Y-34987761D02*
X31933095Y-35035380D01*
X31742619Y-35035380D01*
X31647380Y-34987761D01*
X31599761Y-34892523D01*
X31599761Y-34844904D01*
X31647380Y-34749666D01*
X31742619Y-34702047D01*
X31885476Y-34702047D01*
X31980714Y-34654428D01*
X32028333Y-34559190D01*
X32028333Y-34511571D01*
X31980714Y-34416333D01*
X31885476Y-34368714D01*
X31742619Y-34368714D01*
X31647380Y-34416333D01*
X39575952Y-36645380D02*
X39909285Y-36169190D01*
X40147380Y-36645380D02*
X40147380Y-35645380D01*
X39766428Y-35645380D01*
X39671190Y-35693000D01*
X39623571Y-35740619D01*
X39575952Y-35835857D01*
X39575952Y-35978714D01*
X39623571Y-36073952D01*
X39671190Y-36121571D01*
X39766428Y-36169190D01*
X40147380Y-36169190D01*
X39147380Y-36645380D02*
X39147380Y-35978714D01*
X39147380Y-35645380D02*
X39195000Y-35693000D01*
X39147380Y-35740619D01*
X39099761Y-35693000D01*
X39147380Y-35645380D01*
X39147380Y-35740619D01*
X38242619Y-36597761D02*
X38337857Y-36645380D01*
X38528333Y-36645380D01*
X38623571Y-36597761D01*
X38671190Y-36550142D01*
X38718809Y-36454904D01*
X38718809Y-36169190D01*
X38671190Y-36073952D01*
X38623571Y-36026333D01*
X38528333Y-35978714D01*
X38337857Y-35978714D01*
X38242619Y-36026333D01*
X37814047Y-36645380D02*
X37814047Y-35645380D01*
X37385476Y-36645380D02*
X37385476Y-36121571D01*
X37433095Y-36026333D01*
X37528333Y-35978714D01*
X37671190Y-35978714D01*
X37766428Y-36026333D01*
X37814047Y-36073952D01*
X36480714Y-36645380D02*
X36480714Y-36121571D01*
X36528333Y-36026333D01*
X36623571Y-35978714D01*
X36814047Y-35978714D01*
X36909285Y-36026333D01*
X36480714Y-36597761D02*
X36575952Y-36645380D01*
X36814047Y-36645380D01*
X36909285Y-36597761D01*
X36956904Y-36502523D01*
X36956904Y-36407285D01*
X36909285Y-36312047D01*
X36814047Y-36264428D01*
X36575952Y-36264428D01*
X36480714Y-36216809D01*
X36004523Y-36645380D02*
X36004523Y-35978714D01*
X36004523Y-36169190D02*
X35956904Y-36073952D01*
X35909285Y-36026333D01*
X35814047Y-35978714D01*
X35718809Y-35978714D01*
X34956904Y-36645380D02*
X34956904Y-35645380D01*
X34956904Y-36597761D02*
X35052142Y-36645380D01*
X35242619Y-36645380D01*
X35337857Y-36597761D01*
X35385476Y-36550142D01*
X35433095Y-36454904D01*
X35433095Y-36169190D01*
X35385476Y-36073952D01*
X35337857Y-36026333D01*
X35242619Y-35978714D01*
X35052142Y-35978714D01*
X34956904Y-36026333D01*
X33718809Y-36645380D02*
X33718809Y-35645380D01*
X33718809Y-36121571D02*
X33147380Y-36121571D01*
X33147380Y-36645380D02*
X33147380Y-35645380D01*
X32242619Y-35978714D02*
X32242619Y-36645380D01*
X32671190Y-35978714D02*
X32671190Y-36502523D01*
X32623571Y-36597761D01*
X32528333Y-36645380D01*
X32385476Y-36645380D01*
X32290238Y-36597761D01*
X32242619Y-36550142D01*
X42837857Y-37255380D02*
X42837857Y-37969666D01*
X42885476Y-38112523D01*
X42980714Y-38207761D01*
X43123571Y-38255380D01*
X43218809Y-38255380D01*
X41933095Y-38255380D02*
X41933095Y-37731571D01*
X41980714Y-37636333D01*
X42075952Y-37588714D01*
X42266428Y-37588714D01*
X42361666Y-37636333D01*
X41933095Y-38207761D02*
X42028333Y-38255380D01*
X42266428Y-38255380D01*
X42361666Y-38207761D01*
X42409285Y-38112523D01*
X42409285Y-38017285D01*
X42361666Y-37922047D01*
X42266428Y-37874428D01*
X42028333Y-37874428D01*
X41933095Y-37826809D01*
X41456904Y-38255380D02*
X41456904Y-37255380D01*
X41361666Y-37874428D02*
X41075952Y-38255380D01*
X41075952Y-37588714D02*
X41456904Y-37969666D01*
X40218809Y-37588714D02*
X40218809Y-38255380D01*
X40647380Y-37588714D02*
X40647380Y-38112523D01*
X40599761Y-38207761D01*
X40504523Y-38255380D01*
X40361666Y-38255380D01*
X40266428Y-38207761D01*
X40218809Y-38160142D01*
X39742619Y-38255380D02*
X39742619Y-37255380D01*
X39742619Y-37636333D02*
X39647380Y-37588714D01*
X39456904Y-37588714D01*
X39361666Y-37636333D01*
X39314047Y-37683952D01*
X39266428Y-37779190D01*
X39266428Y-38064904D01*
X39314047Y-38160142D01*
X39361666Y-38207761D01*
X39456904Y-38255380D01*
X39647380Y-38255380D01*
X39742619Y-38207761D01*
X37790238Y-37255380D02*
X37790238Y-37969666D01*
X37837857Y-38112523D01*
X37933095Y-38207761D01*
X38075952Y-38255380D01*
X38171190Y-38255380D01*
X36933095Y-38207761D02*
X37028333Y-38255380D01*
X37218809Y-38255380D01*
X37314047Y-38207761D01*
X37361666Y-38112523D01*
X37361666Y-37731571D01*
X37314047Y-37636333D01*
X37218809Y-37588714D01*
X37028333Y-37588714D01*
X36933095Y-37636333D01*
X36885476Y-37731571D01*
X36885476Y-37826809D01*
X37361666Y-37922047D01*
X37123571Y-38255380D02*
X37218809Y-38350619D01*
X37266428Y-38445857D01*
X37218809Y-38541095D01*
X37123571Y-38588714D01*
X37028333Y-38588714D01*
X36028333Y-38255380D02*
X36028333Y-37255380D01*
X36028333Y-38207761D02*
X36123571Y-38255380D01*
X36314047Y-38255380D01*
X36409285Y-38207761D01*
X36456904Y-38160142D01*
X36504523Y-38064904D01*
X36504523Y-37779190D01*
X36456904Y-37683952D01*
X36409285Y-37636333D01*
X36314047Y-37588714D01*
X36123571Y-37588714D01*
X36028333Y-37636333D01*
X35552142Y-38255380D02*
X35552142Y-37588714D01*
X35552142Y-37779190D02*
X35504523Y-37683952D01*
X35456904Y-37636333D01*
X35361666Y-37588714D01*
X35266428Y-37588714D01*
X35028333Y-37588714D02*
X34504523Y-37588714D01*
X35028333Y-38255380D01*
X34504523Y-38255380D01*
X33742619Y-38207761D02*
X33837857Y-38255380D01*
X34028333Y-38255380D01*
X34123571Y-38207761D01*
X34171190Y-38112523D01*
X34171190Y-37731571D01*
X34123571Y-37636333D01*
X34028333Y-37588714D01*
X33837857Y-37588714D01*
X33742619Y-37636333D01*
X33695000Y-37731571D01*
X33695000Y-37826809D01*
X34171190Y-37922047D01*
X33266428Y-37588714D02*
X33266428Y-38445857D01*
X33314047Y-38541095D01*
X33409285Y-38588714D01*
X33456904Y-38588714D01*
X33266428Y-37255380D02*
X33314047Y-37303000D01*
X33266428Y-37350619D01*
X33218809Y-37303000D01*
X33266428Y-37255380D01*
X33266428Y-37350619D01*
X32409285Y-38207761D02*
X32504523Y-38255380D01*
X32695000Y-38255380D01*
X32790238Y-38207761D01*
X32837857Y-38112523D01*
X32837857Y-37731571D01*
X32790238Y-37636333D01*
X32695000Y-37588714D01*
X32504523Y-37588714D01*
X32409285Y-37636333D01*
X32361666Y-37731571D01*
X32361666Y-37826809D01*
X32837857Y-37922047D01*
X32028333Y-37588714D02*
X31837857Y-38255380D01*
X31647380Y-37779190D01*
X31456904Y-38255380D01*
X31266428Y-37588714D01*
X30933095Y-38207761D02*
X30837857Y-38255380D01*
X30647380Y-38255380D01*
X30552142Y-38207761D01*
X30504523Y-38112523D01*
X30504523Y-38064904D01*
X30552142Y-37969666D01*
X30647380Y-37922047D01*
X30790238Y-37922047D01*
X30885476Y-37874428D01*
X30933095Y-37779190D01*
X30933095Y-37731571D01*
X30885476Y-37636333D01*
X30790238Y-37588714D01*
X30647380Y-37588714D01*
X30552142Y-37636333D01*
X30075952Y-38255380D02*
X30075952Y-37255380D01*
X29980714Y-37874428D02*
X29695000Y-38255380D01*
X29695000Y-37588714D02*
X30075952Y-37969666D01*
X29266428Y-38255380D02*
X29266428Y-37588714D01*
X29266428Y-37255380D02*
X29314047Y-37303000D01*
X29266428Y-37350619D01*
X29218809Y-37303000D01*
X29266428Y-37255380D01*
X29266428Y-37350619D01*
X39314047Y-39341571D02*
X39171190Y-39389190D01*
X39123571Y-39436809D01*
X39075952Y-39532047D01*
X39075952Y-39674904D01*
X39123571Y-39770142D01*
X39171190Y-39817761D01*
X39266428Y-39865380D01*
X39647380Y-39865380D01*
X39647380Y-38865380D01*
X39314047Y-38865380D01*
X39218809Y-38913000D01*
X39171190Y-38960619D01*
X39123571Y-39055857D01*
X39123571Y-39151095D01*
X39171190Y-39246333D01*
X39218809Y-39293952D01*
X39314047Y-39341571D01*
X39647380Y-39341571D01*
X38266428Y-39817761D02*
X38361666Y-39865380D01*
X38552142Y-39865380D01*
X38647380Y-39817761D01*
X38695000Y-39722523D01*
X38695000Y-39341571D01*
X38647380Y-39246333D01*
X38552142Y-39198714D01*
X38361666Y-39198714D01*
X38266428Y-39246333D01*
X38218809Y-39341571D01*
X38218809Y-39436809D01*
X38695000Y-39532047D01*
X37790238Y-39198714D02*
X37790238Y-39865380D01*
X37790238Y-39293952D02*
X37742619Y-39246333D01*
X37647380Y-39198714D01*
X37504523Y-39198714D01*
X37409285Y-39246333D01*
X37361666Y-39341571D01*
X37361666Y-39865380D01*
X36885476Y-39198714D02*
X36885476Y-39865380D01*
X36885476Y-39293952D02*
X36837857Y-39246333D01*
X36742619Y-39198714D01*
X36599761Y-39198714D01*
X36504523Y-39246333D01*
X36456904Y-39341571D01*
X36456904Y-39865380D01*
X36075952Y-39198714D02*
X35837857Y-39865380D01*
X35599761Y-39198714D02*
X35837857Y-39865380D01*
X35933095Y-40103476D01*
X35980714Y-40151095D01*
X36075952Y-40198714D01*
X33980714Y-39865380D02*
X34456904Y-39865380D01*
X34456904Y-38865380D01*
X33647380Y-39865380D02*
X33647380Y-39198714D01*
X33647380Y-38865380D02*
X33695000Y-38913000D01*
X33647380Y-38960619D01*
X33599761Y-38913000D01*
X33647380Y-38865380D01*
X33647380Y-38960619D01*
X32742619Y-39198714D02*
X32742619Y-39865380D01*
X33171190Y-39198714D02*
X33171190Y-39722523D01*
X33123571Y-39817761D01*
X33028333Y-39865380D01*
X32885476Y-39865380D01*
X32790238Y-39817761D01*
X32742619Y-39770142D01*
X42385476Y-40475380D02*
X41814047Y-40475380D01*
X42099761Y-41475380D02*
X42099761Y-40475380D01*
X41480714Y-41475380D02*
X41480714Y-40808714D01*
X41480714Y-40475380D02*
X41528333Y-40523000D01*
X41480714Y-40570619D01*
X41433095Y-40523000D01*
X41480714Y-40475380D01*
X41480714Y-40570619D01*
X41004523Y-41475380D02*
X41004523Y-40808714D01*
X41004523Y-40903952D02*
X40956904Y-40856333D01*
X40861666Y-40808714D01*
X40718809Y-40808714D01*
X40623571Y-40856333D01*
X40575952Y-40951571D01*
X40575952Y-41475380D01*
X40575952Y-40951571D02*
X40528333Y-40856333D01*
X40433095Y-40808714D01*
X40290238Y-40808714D01*
X40195000Y-40856333D01*
X40147380Y-40951571D01*
X40147380Y-41475380D01*
X39528333Y-41475380D02*
X39623571Y-41427761D01*
X39671190Y-41380142D01*
X39718809Y-41284904D01*
X39718809Y-40999190D01*
X39671190Y-40903952D01*
X39623571Y-40856333D01*
X39528333Y-40808714D01*
X39385476Y-40808714D01*
X39290238Y-40856333D01*
X39242619Y-40903952D01*
X39195000Y-40999190D01*
X39195000Y-41284904D01*
X39242619Y-41380142D01*
X39290238Y-41427761D01*
X39385476Y-41475380D01*
X39528333Y-41475380D01*
X38909285Y-40808714D02*
X38528333Y-40808714D01*
X38766428Y-40475380D02*
X38766428Y-41332523D01*
X38718809Y-41427761D01*
X38623571Y-41475380D01*
X38528333Y-41475380D01*
X38195000Y-41475380D02*
X38195000Y-40475380D01*
X37766428Y-41475380D02*
X37766428Y-40951571D01*
X37814047Y-40856333D01*
X37909285Y-40808714D01*
X38052142Y-40808714D01*
X38147380Y-40856333D01*
X38195000Y-40903952D01*
X37385476Y-40808714D02*
X37147380Y-41475380D01*
X36909285Y-40808714D02*
X37147380Y-41475380D01*
X37242619Y-41713476D01*
X37290238Y-41761095D01*
X37385476Y-41808714D01*
X35766428Y-41475380D02*
X35766428Y-40475380D01*
X35195000Y-41475380D01*
X35195000Y-40475380D01*
X34337857Y-41427761D02*
X34433095Y-41475380D01*
X34623571Y-41475380D01*
X34718809Y-41427761D01*
X34766428Y-41332523D01*
X34766428Y-40951571D01*
X34718809Y-40856333D01*
X34623571Y-40808714D01*
X34433095Y-40808714D01*
X34337857Y-40856333D01*
X34290238Y-40951571D01*
X34290238Y-41046809D01*
X34766428Y-41142047D01*
X33956904Y-40808714D02*
X33766428Y-41475380D01*
X33575952Y-40999190D01*
X33385476Y-41475380D01*
X33195000Y-40808714D01*
X32814047Y-41475380D02*
X32814047Y-40808714D01*
X32814047Y-40903952D02*
X32766428Y-40856333D01*
X32671190Y-40808714D01*
X32528333Y-40808714D01*
X32433095Y-40856333D01*
X32385476Y-40951571D01*
X32385476Y-41475380D01*
X32385476Y-40951571D02*
X32337857Y-40856333D01*
X32242619Y-40808714D01*
X32099761Y-40808714D01*
X32004523Y-40856333D01*
X31956904Y-40951571D01*
X31956904Y-41475380D01*
X31052142Y-41475380D02*
X31052142Y-40951571D01*
X31099761Y-40856333D01*
X31195000Y-40808714D01*
X31385476Y-40808714D01*
X31480714Y-40856333D01*
X31052142Y-41427761D02*
X31147380Y-41475380D01*
X31385476Y-41475380D01*
X31480714Y-41427761D01*
X31528333Y-41332523D01*
X31528333Y-41237285D01*
X31480714Y-41142047D01*
X31385476Y-41094428D01*
X31147380Y-41094428D01*
X31052142Y-41046809D01*
X30575952Y-40808714D02*
X30575952Y-41475380D01*
X30575952Y-40903952D02*
X30528333Y-40856333D01*
X30433095Y-40808714D01*
X30290238Y-40808714D01*
X30195000Y-40856333D01*
X30147380Y-40951571D01*
X30147380Y-41475380D01*
X41980714Y-42085380D02*
X41647380Y-43085380D01*
X41314047Y-42085380D01*
X40552142Y-43085380D02*
X40552142Y-42561571D01*
X40599761Y-42466333D01*
X40695000Y-42418714D01*
X40885476Y-42418714D01*
X40980714Y-42466333D01*
X40552142Y-43037761D02*
X40647380Y-43085380D01*
X40885476Y-43085380D01*
X40980714Y-43037761D01*
X41028333Y-42942523D01*
X41028333Y-42847285D01*
X40980714Y-42752047D01*
X40885476Y-42704428D01*
X40647380Y-42704428D01*
X40552142Y-42656809D01*
X40695000Y-42037761D02*
X40837857Y-42180619D01*
X39647380Y-43037761D02*
X39742619Y-43085380D01*
X39933095Y-43085380D01*
X40028333Y-43037761D01*
X40075952Y-42990142D01*
X40123571Y-42894904D01*
X40123571Y-42609190D01*
X40075952Y-42513952D01*
X40028333Y-42466333D01*
X39933095Y-42418714D01*
X39742619Y-42418714D01*
X39647380Y-42466333D01*
X39075952Y-43085380D02*
X39171190Y-43037761D01*
X39218809Y-42942523D01*
X39218809Y-42085380D01*
X38266428Y-43085380D02*
X38266428Y-42561571D01*
X38314047Y-42466333D01*
X38409285Y-42418714D01*
X38599761Y-42418714D01*
X38695000Y-42466333D01*
X38266428Y-43037761D02*
X38361666Y-43085380D01*
X38599761Y-43085380D01*
X38695000Y-43037761D01*
X38742619Y-42942523D01*
X38742619Y-42847285D01*
X38695000Y-42752047D01*
X38599761Y-42704428D01*
X38361666Y-42704428D01*
X38266428Y-42656809D01*
X37885476Y-42418714D02*
X37647380Y-43085380D01*
X37409285Y-42418714D01*
X36266428Y-43085380D02*
X36266428Y-42085380D01*
X35885476Y-42085380D01*
X35790238Y-42133000D01*
X35742619Y-42180619D01*
X35695000Y-42275857D01*
X35695000Y-42418714D01*
X35742619Y-42513952D01*
X35790238Y-42561571D01*
X35885476Y-42609190D01*
X36266428Y-42609190D01*
X34837857Y-43085380D02*
X34837857Y-42561571D01*
X34885476Y-42466333D01*
X34980714Y-42418714D01*
X35171190Y-42418714D01*
X35266428Y-42466333D01*
X34837857Y-43037761D02*
X34933095Y-43085380D01*
X35171190Y-43085380D01*
X35266428Y-43037761D01*
X35314047Y-42942523D01*
X35314047Y-42847285D01*
X35266428Y-42752047D01*
X35171190Y-42704428D01*
X34933095Y-42704428D01*
X34837857Y-42656809D01*
X34456904Y-42418714D02*
X34218809Y-43085380D01*
X33980714Y-42418714D01*
X33456904Y-43085380D02*
X33552142Y-43037761D01*
X33599761Y-42942523D01*
X33599761Y-42085380D01*
X33075952Y-43085380D02*
X33075952Y-42418714D01*
X32980714Y-42037761D02*
X33123571Y-42180619D01*
X32171190Y-43037761D02*
X32266428Y-43085380D01*
X32456904Y-43085380D01*
X32552142Y-43037761D01*
X32599761Y-42990142D01*
X32647380Y-42894904D01*
X32647380Y-42609190D01*
X32599761Y-42513952D01*
X32552142Y-42466333D01*
X32456904Y-42418714D01*
X32266428Y-42418714D01*
X32171190Y-42466333D01*
X31361666Y-43037761D02*
X31456904Y-43085380D01*
X31647380Y-43085380D01*
X31742619Y-43037761D01*
X31790238Y-42942523D01*
X31790238Y-42561571D01*
X31742619Y-42466333D01*
X31647380Y-42418714D01*
X31456904Y-42418714D01*
X31361666Y-42466333D01*
X31314047Y-42561571D01*
X31314047Y-42656809D01*
X31790238Y-42752047D01*
X30885476Y-43085380D02*
X30885476Y-42085380D01*
X30790238Y-42704428D02*
X30504523Y-43085380D01*
X30504523Y-42418714D02*
X30885476Y-42799666D01*
%TO.C,U10*%
X25368095Y-78192380D02*
X25368095Y-79001904D01*
X25320476Y-79097142D01*
X25272857Y-79144761D01*
X25177619Y-79192380D01*
X24987142Y-79192380D01*
X24891904Y-79144761D01*
X24844285Y-79097142D01*
X24796666Y-79001904D01*
X24796666Y-78192380D01*
X23796666Y-79192380D02*
X24368095Y-79192380D01*
X24082380Y-79192380D02*
X24082380Y-78192380D01*
X24177619Y-78335238D01*
X24272857Y-78430476D01*
X24368095Y-78478095D01*
X23177619Y-78192380D02*
X23082380Y-78192380D01*
X22987142Y-78240000D01*
X22939523Y-78287619D01*
X22891904Y-78382857D01*
X22844285Y-78573333D01*
X22844285Y-78811428D01*
X22891904Y-79001904D01*
X22939523Y-79097142D01*
X22987142Y-79144761D01*
X23082380Y-79192380D01*
X23177619Y-79192380D01*
X23272857Y-79144761D01*
X23320476Y-79097142D01*
X23368095Y-79001904D01*
X23415714Y-78811428D01*
X23415714Y-78573333D01*
X23368095Y-78382857D01*
X23320476Y-78287619D01*
X23272857Y-78240000D01*
X23177619Y-78192380D01*
%TO.C,C27*%
X24106142Y-69688642D02*
X24153761Y-69641023D01*
X24201380Y-69498166D01*
X24201380Y-69402928D01*
X24153761Y-69260071D01*
X24058523Y-69164833D01*
X23963285Y-69117214D01*
X23772809Y-69069595D01*
X23629952Y-69069595D01*
X23439476Y-69117214D01*
X23344238Y-69164833D01*
X23249000Y-69260071D01*
X23201380Y-69402928D01*
X23201380Y-69498166D01*
X23249000Y-69641023D01*
X23296619Y-69688642D01*
X23296619Y-70069595D02*
X23249000Y-70117214D01*
X23201380Y-70212452D01*
X23201380Y-70450547D01*
X23249000Y-70545785D01*
X23296619Y-70593404D01*
X23391857Y-70641023D01*
X23487095Y-70641023D01*
X23629952Y-70593404D01*
X24201380Y-70021976D01*
X24201380Y-70641023D01*
X23201380Y-70974357D02*
X23201380Y-71641023D01*
X24201380Y-71212452D01*
D11*
%TO.C,J4*%
X27093333Y-84013523D02*
X27093333Y-84920666D01*
X27153809Y-85102095D01*
X27274761Y-85223047D01*
X27456190Y-85283523D01*
X27577142Y-85283523D01*
X25944285Y-84436857D02*
X25944285Y-85283523D01*
X26246666Y-83953047D02*
X26549047Y-84860190D01*
X25762857Y-84860190D01*
D12*
%TO.C,U10*%
X25969238Y-74799928D02*
X25966000Y-79388000D01*
X25966000Y-79388000D02*
X45916000Y-79388000D01*
X45916000Y-52438000D02*
X25966000Y-52438000D01*
D13*
X25966000Y-52438000D02*
X25969627Y-53609115D01*
D12*
X45916000Y-79388000D02*
X45906309Y-74882071D01*
D13*
X45916000Y-52438000D02*
X45914012Y-53640401D01*
D14*
X25718878Y-74806517D02*
G75*
G03*
X25718878Y-74806517I-100000J0D01*
G01*
%TO.C,L1*%
G36*
X45905921Y-26468130D02*
G01*
X45918652Y-26487659D01*
X45933547Y-26521419D01*
X45951832Y-26571951D01*
X45974733Y-26641798D01*
X46003474Y-26733500D01*
X46030520Y-26824167D01*
X46072354Y-26976229D01*
X46114327Y-27141708D01*
X46154730Y-27313530D01*
X46191859Y-27484619D01*
X46224005Y-27647900D01*
X46225831Y-27658296D01*
X46230222Y-27689018D01*
X46234060Y-27725945D01*
X46237365Y-27770556D01*
X46240156Y-27824326D01*
X46242452Y-27888731D01*
X46244272Y-27965248D01*
X46245636Y-28055353D01*
X46246562Y-28160522D01*
X46247069Y-28282232D01*
X46247177Y-28421959D01*
X46246905Y-28581178D01*
X46246272Y-28761367D01*
X46245297Y-28964002D01*
X46243999Y-29190559D01*
X46243847Y-29217013D01*
X46243434Y-29339341D01*
X46243690Y-29438582D01*
X46244669Y-29516672D01*
X46246423Y-29575543D01*
X46249006Y-29617128D01*
X46252473Y-29643362D01*
X46256875Y-29656177D01*
X46257019Y-29656375D01*
X46270098Y-29673168D01*
X46296378Y-29706053D01*
X46333058Y-29751553D01*
X46377333Y-29806192D01*
X46426403Y-29866492D01*
X46580355Y-30055298D01*
X46607398Y-30423224D01*
X46608550Y-30438858D01*
X46615767Y-30535143D01*
X46622706Y-30625055D01*
X46629061Y-30704801D01*
X46634524Y-30770590D01*
X46638789Y-30818629D01*
X46641549Y-30845125D01*
X46648656Y-30899100D01*
X46392627Y-30899100D01*
X46319839Y-30841957D01*
X46297923Y-30825797D01*
X46252584Y-30799060D01*
X46214278Y-30785175D01*
X46187129Y-30785321D01*
X46175263Y-30800675D01*
X46173532Y-30817330D01*
X46170850Y-30848300D01*
X46168903Y-30871350D01*
X46166438Y-30895925D01*
X46165538Y-30900678D01*
X46156211Y-30910400D01*
X46134286Y-30906826D01*
X46095485Y-30889575D01*
X46088694Y-30885958D01*
X46061461Y-30865157D01*
X46050513Y-30845125D01*
X46049751Y-30839380D01*
X46043687Y-30832018D01*
X46028177Y-30827225D01*
X45999235Y-30824465D01*
X45952872Y-30823202D01*
X45885100Y-30822900D01*
X45842443Y-30822991D01*
X45787738Y-30823793D01*
X45752096Y-30825872D01*
X45731530Y-30829763D01*
X45722052Y-30836002D01*
X45719673Y-30845125D01*
X45718127Y-30850719D01*
X45700735Y-30869757D01*
X45670838Y-30889698D01*
X45637026Y-30905420D01*
X45607890Y-30911800D01*
X45603799Y-30910131D01*
X45595819Y-30889662D01*
X45593000Y-30848300D01*
X45592520Y-30814510D01*
X45588254Y-30793632D01*
X45575869Y-30785915D01*
X45551031Y-30784800D01*
X45528021Y-30787967D01*
X45484401Y-30806148D01*
X45427900Y-30841950D01*
X45346740Y-30899100D01*
X45215870Y-30899100D01*
X45189287Y-30899075D01*
X45139579Y-30898480D01*
X45108864Y-30896323D01*
X45092581Y-30891609D01*
X45086170Y-30883342D01*
X45085073Y-30870525D01*
X45085188Y-30866831D01*
X45086864Y-30839862D01*
X45090328Y-30792083D01*
X45095319Y-30726898D01*
X45101570Y-30647711D01*
X45108820Y-30557927D01*
X45116803Y-30460950D01*
X45119653Y-30426605D01*
X45127375Y-30332966D01*
X45134276Y-30248466D01*
X45140097Y-30176339D01*
X45144578Y-30119820D01*
X45147460Y-30082143D01*
X45148481Y-30066543D01*
X45149951Y-30063192D01*
X45164424Y-30043062D01*
X45192392Y-30008176D01*
X45231421Y-29961466D01*
X45279079Y-29905861D01*
X45332934Y-29844293D01*
X45517367Y-29635450D01*
X45511125Y-29190950D01*
X45510749Y-29164439D01*
X45508811Y-29035429D01*
X45506580Y-28896649D01*
X45504178Y-28755132D01*
X45501726Y-28617913D01*
X45499345Y-28492024D01*
X45497159Y-28384500D01*
X45496222Y-28337233D01*
X45494602Y-28191295D01*
X45495765Y-28063779D01*
X45500196Y-27949362D01*
X45508384Y-27842725D01*
X45520816Y-27738546D01*
X45537979Y-27631504D01*
X45560360Y-27516279D01*
X45588447Y-27387550D01*
X45596926Y-27350857D01*
X45620989Y-27252629D01*
X45648080Y-27148928D01*
X45677266Y-27042761D01*
X45707616Y-26937137D01*
X45738196Y-26835063D01*
X45768074Y-26739548D01*
X45796318Y-26653599D01*
X45821994Y-26580225D01*
X45844169Y-26522434D01*
X45861912Y-26483233D01*
X45874290Y-26465632D01*
X45882050Y-26461597D01*
X45894129Y-26460290D01*
X45905921Y-26468130D01*
G37*
D15*
X45905921Y-26468130D02*
X45918652Y-26487659D01*
X45933547Y-26521419D01*
X45951832Y-26571951D01*
X45974733Y-26641798D01*
X46003474Y-26733500D01*
X46030520Y-26824167D01*
X46072354Y-26976229D01*
X46114327Y-27141708D01*
X46154730Y-27313530D01*
X46191859Y-27484619D01*
X46224005Y-27647900D01*
X46225831Y-27658296D01*
X46230222Y-27689018D01*
X46234060Y-27725945D01*
X46237365Y-27770556D01*
X46240156Y-27824326D01*
X46242452Y-27888731D01*
X46244272Y-27965248D01*
X46245636Y-28055353D01*
X46246562Y-28160522D01*
X46247069Y-28282232D01*
X46247177Y-28421959D01*
X46246905Y-28581178D01*
X46246272Y-28761367D01*
X46245297Y-28964002D01*
X46243999Y-29190559D01*
X46243847Y-29217013D01*
X46243434Y-29339341D01*
X46243690Y-29438582D01*
X46244669Y-29516672D01*
X46246423Y-29575543D01*
X46249006Y-29617128D01*
X46252473Y-29643362D01*
X46256875Y-29656177D01*
X46257019Y-29656375D01*
X46270098Y-29673168D01*
X46296378Y-29706053D01*
X46333058Y-29751553D01*
X46377333Y-29806192D01*
X46426403Y-29866492D01*
X46580355Y-30055298D01*
X46607398Y-30423224D01*
X46608550Y-30438858D01*
X46615767Y-30535143D01*
X46622706Y-30625055D01*
X46629061Y-30704801D01*
X46634524Y-30770590D01*
X46638789Y-30818629D01*
X46641549Y-30845125D01*
X46648656Y-30899100D01*
X46392627Y-30899100D01*
X46319839Y-30841957D01*
X46297923Y-30825797D01*
X46252584Y-30799060D01*
X46214278Y-30785175D01*
X46187129Y-30785321D01*
X46175263Y-30800675D01*
X46173532Y-30817330D01*
X46170850Y-30848300D01*
X46168903Y-30871350D01*
X46166438Y-30895925D01*
X46165538Y-30900678D01*
X46156211Y-30910400D01*
X46134286Y-30906826D01*
X46095485Y-30889575D01*
X46088694Y-30885958D01*
X46061461Y-30865157D01*
X46050513Y-30845125D01*
X46049751Y-30839380D01*
X46043687Y-30832018D01*
X46028177Y-30827225D01*
X45999235Y-30824465D01*
X45952872Y-30823202D01*
X45885100Y-30822900D01*
X45842443Y-30822991D01*
X45787738Y-30823793D01*
X45752096Y-30825872D01*
X45731530Y-30829763D01*
X45722052Y-30836002D01*
X45719673Y-30845125D01*
X45718127Y-30850719D01*
X45700735Y-30869757D01*
X45670838Y-30889698D01*
X45637026Y-30905420D01*
X45607890Y-30911800D01*
X45603799Y-30910131D01*
X45595819Y-30889662D01*
X45593000Y-30848300D01*
X45592520Y-30814510D01*
X45588254Y-30793632D01*
X45575869Y-30785915D01*
X45551031Y-30784800D01*
X45528021Y-30787967D01*
X45484401Y-30806148D01*
X45427900Y-30841950D01*
X45346740Y-30899100D01*
X45215870Y-30899100D01*
X45189287Y-30899075D01*
X45139579Y-30898480D01*
X45108864Y-30896323D01*
X45092581Y-30891609D01*
X45086170Y-30883342D01*
X45085073Y-30870525D01*
X45085188Y-30866831D01*
X45086864Y-30839862D01*
X45090328Y-30792083D01*
X45095319Y-30726898D01*
X45101570Y-30647711D01*
X45108820Y-30557927D01*
X45116803Y-30460950D01*
X45119653Y-30426605D01*
X45127375Y-30332966D01*
X45134276Y-30248466D01*
X45140097Y-30176339D01*
X45144578Y-30119820D01*
X45147460Y-30082143D01*
X45148481Y-30066543D01*
X45149951Y-30063192D01*
X45164424Y-30043062D01*
X45192392Y-30008176D01*
X45231421Y-29961466D01*
X45279079Y-29905861D01*
X45332934Y-29844293D01*
X45517367Y-29635450D01*
X45511125Y-29190950D01*
X45510749Y-29164439D01*
X45508811Y-29035429D01*
X45506580Y-28896649D01*
X45504178Y-28755132D01*
X45501726Y-28617913D01*
X45499345Y-28492024D01*
X45497159Y-28384500D01*
X45496222Y-28337233D01*
X45494602Y-28191295D01*
X45495765Y-28063779D01*
X45500196Y-27949362D01*
X45508384Y-27842725D01*
X45520816Y-27738546D01*
X45537979Y-27631504D01*
X45560360Y-27516279D01*
X45588447Y-27387550D01*
X45596926Y-27350857D01*
X45620989Y-27252629D01*
X45648080Y-27148928D01*
X45677266Y-27042761D01*
X45707616Y-26937137D01*
X45738196Y-26835063D01*
X45768074Y-26739548D01*
X45796318Y-26653599D01*
X45821994Y-26580225D01*
X45844169Y-26522434D01*
X45861912Y-26483233D01*
X45874290Y-26465632D01*
X45882050Y-26461597D01*
X45894129Y-26460290D01*
X45905921Y-26468130D01*
G36*
X40972959Y-26470596D02*
G01*
X41271034Y-26499477D01*
X41566239Y-26552345D01*
X41857050Y-26629145D01*
X42141943Y-26729820D01*
X42419394Y-26854315D01*
X42613864Y-26958025D01*
X42818082Y-27084193D01*
X43010791Y-27223556D01*
X43197370Y-27380042D01*
X43383200Y-27557577D01*
X43435471Y-27611201D01*
X43537882Y-27722257D01*
X43629735Y-27831816D01*
X43717808Y-27948193D01*
X43808880Y-28079700D01*
X43873623Y-28180109D01*
X44011946Y-28424525D01*
X44128636Y-28678160D01*
X44224471Y-28943056D01*
X44300232Y-29221255D01*
X44356697Y-29514800D01*
X44361172Y-29548159D01*
X44368515Y-29628459D01*
X44374174Y-29725635D01*
X44378111Y-29834411D01*
X44380287Y-29949514D01*
X44380664Y-30065669D01*
X44379204Y-30177601D01*
X44375867Y-30280035D01*
X44370616Y-30367696D01*
X44363412Y-30435310D01*
X44336733Y-30597139D01*
X44275689Y-30874440D01*
X44196746Y-31136790D01*
X44098614Y-31387318D01*
X43980000Y-31629152D01*
X43839611Y-31865420D01*
X43676156Y-32099250D01*
X43629250Y-32159548D01*
X43530282Y-32276821D01*
X43419562Y-32397637D01*
X43303242Y-32515635D01*
X43187471Y-32624450D01*
X43078400Y-32717718D01*
X42963996Y-32805918D01*
X42719136Y-32971916D01*
X42460740Y-33118506D01*
X42191836Y-33244201D01*
X41915454Y-33347513D01*
X41634626Y-33426952D01*
X41606408Y-33433404D01*
X41521284Y-33450859D01*
X41423829Y-33468645D01*
X41321463Y-33485572D01*
X41221606Y-33500448D01*
X41131678Y-33512084D01*
X41059100Y-33519289D01*
X41039560Y-33520353D01*
X40993486Y-33521944D01*
X40931528Y-33523467D01*
X40859325Y-33524790D01*
X40782514Y-33525781D01*
X40572775Y-33522040D01*
X40270579Y-33495727D01*
X39974069Y-33445082D01*
X39684385Y-33370572D01*
X39402667Y-33272664D01*
X39130055Y-33151824D01*
X38867690Y-33008521D01*
X38616711Y-32843221D01*
X38378257Y-32656392D01*
X38153469Y-32448500D01*
X38142336Y-32437260D01*
X38086530Y-32379029D01*
X38030127Y-32317425D01*
X37975712Y-32255563D01*
X37925868Y-32196556D01*
X37883179Y-32143516D01*
X37850227Y-32099557D01*
X37829597Y-32067792D01*
X37823872Y-32051334D01*
X37828261Y-32046141D01*
X37850319Y-32027516D01*
X37887553Y-31999028D01*
X37936275Y-31963466D01*
X37992796Y-31923620D01*
X38114653Y-31839152D01*
X38264341Y-31735598D01*
X38394981Y-31645481D01*
X38506327Y-31568971D01*
X38598133Y-31506235D01*
X38670152Y-31457442D01*
X38722138Y-31422760D01*
X38753843Y-31402357D01*
X38765021Y-31396402D01*
X38765595Y-31397161D01*
X38777481Y-31411381D01*
X38802149Y-31440355D01*
X38836434Y-31480379D01*
X38877175Y-31527750D01*
X39005964Y-31665348D01*
X39186824Y-31825778D01*
X39384803Y-31968045D01*
X39598600Y-32091134D01*
X39699268Y-32140665D01*
X39844555Y-32203913D01*
X39988916Y-32255644D01*
X40141086Y-32298874D01*
X40309800Y-32336617D01*
X40315110Y-32337675D01*
X40365164Y-32347020D01*
X40411724Y-32354064D01*
X40459606Y-32359119D01*
X40513625Y-32362493D01*
X40578596Y-32364497D01*
X40659332Y-32365441D01*
X40760650Y-32365634D01*
X40828259Y-32365384D01*
X40941270Y-32363508D01*
X41037664Y-32359181D01*
X41123186Y-32351673D01*
X41203582Y-32340253D01*
X41284597Y-32324189D01*
X41371975Y-32302750D01*
X41471461Y-32275207D01*
X41618933Y-32227494D01*
X41836020Y-32137261D01*
X42044722Y-32026656D01*
X42242474Y-31897586D01*
X42426712Y-31751953D01*
X42594871Y-31591662D01*
X42744386Y-31418619D01*
X42872693Y-31234726D01*
X42946615Y-31108288D01*
X43050795Y-30895912D01*
X43130677Y-30681255D01*
X43186930Y-30462020D01*
X43220221Y-30235909D01*
X43231217Y-30000626D01*
X43224644Y-29809919D01*
X43198447Y-29591406D01*
X43151269Y-29381387D01*
X43082045Y-29175309D01*
X42989710Y-28968618D01*
X42976560Y-28942710D01*
X42853807Y-28731648D01*
X42711335Y-28535800D01*
X42550338Y-28356066D01*
X42372014Y-28193349D01*
X42177556Y-28048548D01*
X41968160Y-27922565D01*
X41745022Y-27816300D01*
X41509337Y-27730656D01*
X41262300Y-27666533D01*
X41194650Y-27654277D01*
X41073715Y-27639113D01*
X40939750Y-27628825D01*
X40800030Y-27623634D01*
X40661831Y-27623762D01*
X40532428Y-27629431D01*
X40419098Y-27640861D01*
X40338158Y-27653439D01*
X40097268Y-27706403D01*
X39867316Y-27780784D01*
X39650690Y-27875851D01*
X39636712Y-27882837D01*
X39589515Y-27905205D01*
X39558800Y-27916687D01*
X39540035Y-27918643D01*
X39528691Y-27912429D01*
X39517869Y-27900333D01*
X39492905Y-27871880D01*
X39458822Y-27832740D01*
X39419713Y-27787600D01*
X39386552Y-27749368D01*
X39353591Y-27711686D01*
X39329879Y-27684944D01*
X39319073Y-27673300D01*
X39315987Y-27670057D01*
X39298528Y-27650571D01*
X39268108Y-27616116D01*
X39227197Y-27569502D01*
X39178266Y-27513543D01*
X39123786Y-27451050D01*
X39109022Y-27434096D01*
X39048283Y-27364483D01*
X38988545Y-27296202D01*
X38933722Y-27233716D01*
X38887725Y-27181487D01*
X38854468Y-27143975D01*
X38833257Y-27119973D01*
X38802303Y-27083941D01*
X38781018Y-27057813D01*
X38773100Y-27046041D01*
X38780239Y-27036891D01*
X38807286Y-27017310D01*
X38851313Y-26990313D01*
X38908939Y-26957673D01*
X38976785Y-26921165D01*
X39051467Y-26882565D01*
X39129606Y-26843647D01*
X39207821Y-26806186D01*
X39282729Y-26771956D01*
X39350950Y-26742732D01*
X39492854Y-26687930D01*
X39782426Y-26596047D01*
X40076746Y-26528427D01*
X40374291Y-26485016D01*
X40673536Y-26465757D01*
X40972959Y-26470596D01*
G37*
X40972959Y-26470596D02*
X41271034Y-26499477D01*
X41566239Y-26552345D01*
X41857050Y-26629145D01*
X42141943Y-26729820D01*
X42419394Y-26854315D01*
X42613864Y-26958025D01*
X42818082Y-27084193D01*
X43010791Y-27223556D01*
X43197370Y-27380042D01*
X43383200Y-27557577D01*
X43435471Y-27611201D01*
X43537882Y-27722257D01*
X43629735Y-27831816D01*
X43717808Y-27948193D01*
X43808880Y-28079700D01*
X43873623Y-28180109D01*
X44011946Y-28424525D01*
X44128636Y-28678160D01*
X44224471Y-28943056D01*
X44300232Y-29221255D01*
X44356697Y-29514800D01*
X44361172Y-29548159D01*
X44368515Y-29628459D01*
X44374174Y-29725635D01*
X44378111Y-29834411D01*
X44380287Y-29949514D01*
X44380664Y-30065669D01*
X44379204Y-30177601D01*
X44375867Y-30280035D01*
X44370616Y-30367696D01*
X44363412Y-30435310D01*
X44336733Y-30597139D01*
X44275689Y-30874440D01*
X44196746Y-31136790D01*
X44098614Y-31387318D01*
X43980000Y-31629152D01*
X43839611Y-31865420D01*
X43676156Y-32099250D01*
X43629250Y-32159548D01*
X43530282Y-32276821D01*
X43419562Y-32397637D01*
X43303242Y-32515635D01*
X43187471Y-32624450D01*
X43078400Y-32717718D01*
X42963996Y-32805918D01*
X42719136Y-32971916D01*
X42460740Y-33118506D01*
X42191836Y-33244201D01*
X41915454Y-33347513D01*
X41634626Y-33426952D01*
X41606408Y-33433404D01*
X41521284Y-33450859D01*
X41423829Y-33468645D01*
X41321463Y-33485572D01*
X41221606Y-33500448D01*
X41131678Y-33512084D01*
X41059100Y-33519289D01*
X41039560Y-33520353D01*
X40993486Y-33521944D01*
X40931528Y-33523467D01*
X40859325Y-33524790D01*
X40782514Y-33525781D01*
X40572775Y-33522040D01*
X40270579Y-33495727D01*
X39974069Y-33445082D01*
X39684385Y-33370572D01*
X39402667Y-33272664D01*
X39130055Y-33151824D01*
X38867690Y-33008521D01*
X38616711Y-32843221D01*
X38378257Y-32656392D01*
X38153469Y-32448500D01*
X38142336Y-32437260D01*
X38086530Y-32379029D01*
X38030127Y-32317425D01*
X37975712Y-32255563D01*
X37925868Y-32196556D01*
X37883179Y-32143516D01*
X37850227Y-32099557D01*
X37829597Y-32067792D01*
X37823872Y-32051334D01*
X37828261Y-32046141D01*
X37850319Y-32027516D01*
X37887553Y-31999028D01*
X37936275Y-31963466D01*
X37992796Y-31923620D01*
X38114653Y-31839152D01*
X38264341Y-31735598D01*
X38394981Y-31645481D01*
X38506327Y-31568971D01*
X38598133Y-31506235D01*
X38670152Y-31457442D01*
X38722138Y-31422760D01*
X38753843Y-31402357D01*
X38765021Y-31396402D01*
X38765595Y-31397161D01*
X38777481Y-31411381D01*
X38802149Y-31440355D01*
X38836434Y-31480379D01*
X38877175Y-31527750D01*
X39005964Y-31665348D01*
X39186824Y-31825778D01*
X39384803Y-31968045D01*
X39598600Y-32091134D01*
X39699268Y-32140665D01*
X39844555Y-32203913D01*
X39988916Y-32255644D01*
X40141086Y-32298874D01*
X40309800Y-32336617D01*
X40315110Y-32337675D01*
X40365164Y-32347020D01*
X40411724Y-32354064D01*
X40459606Y-32359119D01*
X40513625Y-32362493D01*
X40578596Y-32364497D01*
X40659332Y-32365441D01*
X40760650Y-32365634D01*
X40828259Y-32365384D01*
X40941270Y-32363508D01*
X41037664Y-32359181D01*
X41123186Y-32351673D01*
X41203582Y-32340253D01*
X41284597Y-32324189D01*
X41371975Y-32302750D01*
X41471461Y-32275207D01*
X41618933Y-32227494D01*
X41836020Y-32137261D01*
X42044722Y-32026656D01*
X42242474Y-31897586D01*
X42426712Y-31751953D01*
X42594871Y-31591662D01*
X42744386Y-31418619D01*
X42872693Y-31234726D01*
X42946615Y-31108288D01*
X43050795Y-30895912D01*
X43130677Y-30681255D01*
X43186930Y-30462020D01*
X43220221Y-30235909D01*
X43231217Y-30000626D01*
X43224644Y-29809919D01*
X43198447Y-29591406D01*
X43151269Y-29381387D01*
X43082045Y-29175309D01*
X42989710Y-28968618D01*
X42976560Y-28942710D01*
X42853807Y-28731648D01*
X42711335Y-28535800D01*
X42550338Y-28356066D01*
X42372014Y-28193349D01*
X42177556Y-28048548D01*
X41968160Y-27922565D01*
X41745022Y-27816300D01*
X41509337Y-27730656D01*
X41262300Y-27666533D01*
X41194650Y-27654277D01*
X41073715Y-27639113D01*
X40939750Y-27628825D01*
X40800030Y-27623634D01*
X40661831Y-27623762D01*
X40532428Y-27629431D01*
X40419098Y-27640861D01*
X40338158Y-27653439D01*
X40097268Y-27706403D01*
X39867316Y-27780784D01*
X39650690Y-27875851D01*
X39636712Y-27882837D01*
X39589515Y-27905205D01*
X39558800Y-27916687D01*
X39540035Y-27918643D01*
X39528691Y-27912429D01*
X39517869Y-27900333D01*
X39492905Y-27871880D01*
X39458822Y-27832740D01*
X39419713Y-27787600D01*
X39386552Y-27749368D01*
X39353591Y-27711686D01*
X39329879Y-27684944D01*
X39319073Y-27673300D01*
X39315987Y-27670057D01*
X39298528Y-27650571D01*
X39268108Y-27616116D01*
X39227197Y-27569502D01*
X39178266Y-27513543D01*
X39123786Y-27451050D01*
X39109022Y-27434096D01*
X39048283Y-27364483D01*
X38988545Y-27296202D01*
X38933722Y-27233716D01*
X38887725Y-27181487D01*
X38854468Y-27143975D01*
X38833257Y-27119973D01*
X38802303Y-27083941D01*
X38781018Y-27057813D01*
X38773100Y-27046041D01*
X38780239Y-27036891D01*
X38807286Y-27017310D01*
X38851313Y-26990313D01*
X38908939Y-26957673D01*
X38976785Y-26921165D01*
X39051467Y-26882565D01*
X39129606Y-26843647D01*
X39207821Y-26806186D01*
X39282729Y-26771956D01*
X39350950Y-26742732D01*
X39492854Y-26687930D01*
X39782426Y-26596047D01*
X40076746Y-26528427D01*
X40374291Y-26485016D01*
X40673536Y-26465757D01*
X40972959Y-26470596D01*
G36*
X33886374Y-26458655D02*
G01*
X34000671Y-26464683D01*
X34276045Y-26489344D01*
X34538226Y-26527489D01*
X34785591Y-26578695D01*
X35016519Y-26642536D01*
X35229388Y-26718588D01*
X35422577Y-26806428D01*
X35594463Y-26905629D01*
X35687250Y-26968665D01*
X35804048Y-27058319D01*
X35907664Y-27152730D01*
X36004876Y-27258242D01*
X36102460Y-27381200D01*
X36149134Y-27446524D01*
X36224224Y-27569387D01*
X36286022Y-27699087D01*
X36339189Y-27844750D01*
X36352511Y-27886641D01*
X36385332Y-27996557D01*
X36410215Y-28094256D01*
X36428021Y-28185982D01*
X36439608Y-28277980D01*
X36445838Y-28376493D01*
X36447568Y-28487765D01*
X36445660Y-28618041D01*
X36439619Y-28765500D01*
X36426583Y-28915812D01*
X36406119Y-29050389D01*
X36377282Y-29174055D01*
X36339124Y-29291637D01*
X36290700Y-29407960D01*
X36250605Y-29486857D01*
X36162059Y-29625404D01*
X36054526Y-29758816D01*
X35932068Y-29882744D01*
X35798748Y-29992837D01*
X35658629Y-30084746D01*
X35579719Y-30127744D01*
X35469871Y-30180880D01*
X35351186Y-30230712D01*
X35221598Y-30277840D01*
X35079044Y-30322864D01*
X34921458Y-30366383D01*
X34746776Y-30408996D01*
X34552932Y-30451303D01*
X34337862Y-30493904D01*
X34099500Y-30537397D01*
X33955705Y-30563183D01*
X33740010Y-30604043D01*
X33547160Y-30643706D01*
X33375622Y-30682672D01*
X33223857Y-30721439D01*
X33090330Y-30760508D01*
X32973507Y-30800376D01*
X32871849Y-30841544D01*
X32783823Y-30884509D01*
X32707891Y-30929773D01*
X32642518Y-30977833D01*
X32586168Y-31029188D01*
X32574856Y-31040925D01*
X32503974Y-31129995D01*
X32452091Y-31227979D01*
X32418298Y-31337706D01*
X32401684Y-31462006D01*
X32401339Y-31603707D01*
X32402906Y-31630554D01*
X32417390Y-31749397D01*
X32445087Y-31851788D01*
X32488561Y-31943411D01*
X32550378Y-32029947D01*
X32633103Y-32117078D01*
X32733027Y-32200105D01*
X32865592Y-32284826D01*
X33014222Y-32357459D01*
X33174797Y-32416281D01*
X33343197Y-32459571D01*
X33515300Y-32485607D01*
X33564104Y-32489998D01*
X33692835Y-32498667D01*
X33830685Y-32504378D01*
X33973354Y-32507199D01*
X34116540Y-32507198D01*
X34255944Y-32504442D01*
X34387264Y-32498998D01*
X34506202Y-32490934D01*
X34608456Y-32480316D01*
X34689725Y-32467213D01*
X34752751Y-32453516D01*
X34938990Y-32405858D01*
X35129564Y-32347296D01*
X35319520Y-32279789D01*
X35503904Y-32205296D01*
X35677763Y-32125773D01*
X35836142Y-32043180D01*
X35974089Y-31959474D01*
X35987206Y-31950827D01*
X36040238Y-31916916D01*
X36085729Y-31889438D01*
X36119202Y-31871022D01*
X36136176Y-31864300D01*
X36142975Y-31865857D01*
X36161602Y-31878306D01*
X36188451Y-31904412D01*
X36224767Y-31945622D01*
X36271796Y-32003382D01*
X36330781Y-32079140D01*
X36402969Y-32174341D01*
X36414302Y-32189449D01*
X36486444Y-32286836D01*
X36553977Y-32380033D01*
X36615076Y-32466393D01*
X36667917Y-32543268D01*
X36710674Y-32608010D01*
X36741524Y-32657969D01*
X36758641Y-32690499D01*
X36759773Y-32693266D01*
X36769430Y-32726804D01*
X36770312Y-32751925D01*
X36769107Y-32755202D01*
X36749432Y-32779596D01*
X36709930Y-32812726D01*
X36653367Y-32853000D01*
X36582508Y-32898829D01*
X36500119Y-32948622D01*
X36408965Y-33000791D01*
X36311812Y-33053745D01*
X36211426Y-33105894D01*
X36110572Y-33155648D01*
X36012016Y-33201417D01*
X35918523Y-33241612D01*
X35827386Y-33277579D01*
X35641872Y-33343550D01*
X35448119Y-33403870D01*
X35251143Y-33457321D01*
X35055959Y-33502688D01*
X34867580Y-33538753D01*
X34691023Y-33564300D01*
X34531300Y-33578113D01*
X34516253Y-33578860D01*
X34386922Y-33584215D01*
X34258467Y-33587442D01*
X34125650Y-33588549D01*
X33983234Y-33587540D01*
X33825980Y-33584423D01*
X33648650Y-33579205D01*
X33557704Y-33576039D01*
X33451278Y-33571593D01*
X33361989Y-33566504D01*
X33285056Y-33560186D01*
X33215698Y-33552052D01*
X33149135Y-33541515D01*
X33080585Y-33527990D01*
X33005267Y-33510889D01*
X32918400Y-33489627D01*
X32843427Y-33470322D01*
X32612465Y-33402451D01*
X32403637Y-33326995D01*
X32215041Y-33242941D01*
X32044772Y-33149275D01*
X31890929Y-33044982D01*
X31751608Y-32929050D01*
X31624907Y-32800464D01*
X31558165Y-32721684D01*
X31437615Y-32551844D01*
X31339407Y-32371039D01*
X31263337Y-32178698D01*
X31209200Y-31974254D01*
X31176791Y-31757137D01*
X31165905Y-31526780D01*
X31173061Y-31328252D01*
X31200369Y-31107836D01*
X31248129Y-30902404D01*
X31316371Y-30711874D01*
X31405127Y-30536160D01*
X31514427Y-30375179D01*
X31644303Y-30228845D01*
X31663879Y-30209723D01*
X31714886Y-30163265D01*
X31767417Y-30121316D01*
X31825843Y-30080986D01*
X31894535Y-30039388D01*
X31977863Y-29993633D01*
X32080199Y-29940835D01*
X32088013Y-29936890D01*
X32174206Y-29894188D01*
X32255659Y-29855750D01*
X32334847Y-29820835D01*
X32414249Y-29788703D01*
X32496339Y-29758616D01*
X32583595Y-29729833D01*
X32678493Y-29701615D01*
X32783510Y-29673222D01*
X32901122Y-29643914D01*
X33033805Y-29612952D01*
X33184037Y-29579597D01*
X33354293Y-29543108D01*
X33547050Y-29502746D01*
X33700686Y-29470788D01*
X33832917Y-29443156D01*
X33945118Y-29419528D01*
X34039724Y-29399360D01*
X34119170Y-29382110D01*
X34185890Y-29367234D01*
X34242322Y-29354190D01*
X34290899Y-29342434D01*
X34334056Y-29331424D01*
X34374231Y-29320616D01*
X34413856Y-29309468D01*
X34428251Y-29305306D01*
X34607322Y-29245799D01*
X34762465Y-29178720D01*
X34894050Y-29103830D01*
X35002447Y-29020888D01*
X35088024Y-28929655D01*
X35151151Y-28829889D01*
X35159722Y-28812243D01*
X35184510Y-28751890D01*
X35201479Y-28690116D01*
X35211593Y-28621003D01*
X35215816Y-28538635D01*
X35215109Y-28437096D01*
X35210745Y-28263850D01*
X35155103Y-28150025D01*
X35145419Y-28130554D01*
X35115743Y-28076703D01*
X35083813Y-28030158D01*
X35043833Y-27983117D01*
X34990006Y-27927775D01*
X34989712Y-27927484D01*
X34902154Y-27848434D01*
X34810690Y-27782233D01*
X34711045Y-27726817D01*
X34598948Y-27680127D01*
X34470124Y-27640100D01*
X34320300Y-27604674D01*
X34307705Y-27602056D01*
X34142313Y-27570981D01*
X33989292Y-27549420D01*
X33843542Y-27537451D01*
X33699965Y-27535152D01*
X33553461Y-27542601D01*
X33398932Y-27559877D01*
X33231278Y-27587058D01*
X33045400Y-27624222D01*
X33039478Y-27625496D01*
X32945205Y-27647081D01*
X32859057Y-27669886D01*
X32775963Y-27695736D01*
X32690852Y-27726453D01*
X32598653Y-27763860D01*
X32494296Y-27809779D01*
X32372708Y-27866034D01*
X32327317Y-27887844D01*
X32254284Y-27924641D01*
X32183348Y-27962219D01*
X32118677Y-27998233D01*
X32064434Y-28030343D01*
X32024786Y-28056203D01*
X32003898Y-28073472D01*
X31994352Y-28082274D01*
X31961370Y-28092173D01*
X31923094Y-28083561D01*
X31887093Y-28057474D01*
X31877143Y-28045428D01*
X31852660Y-28011837D01*
X31818732Y-27962588D01*
X31777160Y-27900518D01*
X31729748Y-27828462D01*
X31678298Y-27749254D01*
X31624612Y-27665731D01*
X31570492Y-27580728D01*
X31517741Y-27497081D01*
X31468160Y-27417624D01*
X31423553Y-27345194D01*
X31385721Y-27282625D01*
X31356467Y-27232754D01*
X31337592Y-27198415D01*
X31330900Y-27182445D01*
X31335212Y-27175247D01*
X31358926Y-27155882D01*
X31400661Y-27128359D01*
X31457363Y-27094328D01*
X31525976Y-27055437D01*
X31603446Y-27013335D01*
X31686716Y-26969670D01*
X31772732Y-26926092D01*
X31858438Y-26884249D01*
X31940779Y-26845790D01*
X32016700Y-26812363D01*
X32047509Y-26799478D01*
X32297863Y-26705700D01*
X32560398Y-26625425D01*
X32830273Y-26559569D01*
X33102648Y-26509049D01*
X33372683Y-26474779D01*
X33635539Y-26457676D01*
X33886374Y-26458655D01*
G37*
X33886374Y-26458655D02*
X34000671Y-26464683D01*
X34276045Y-26489344D01*
X34538226Y-26527489D01*
X34785591Y-26578695D01*
X35016519Y-26642536D01*
X35229388Y-26718588D01*
X35422577Y-26806428D01*
X35594463Y-26905629D01*
X35687250Y-26968665D01*
X35804048Y-27058319D01*
X35907664Y-27152730D01*
X36004876Y-27258242D01*
X36102460Y-27381200D01*
X36149134Y-27446524D01*
X36224224Y-27569387D01*
X36286022Y-27699087D01*
X36339189Y-27844750D01*
X36352511Y-27886641D01*
X36385332Y-27996557D01*
X36410215Y-28094256D01*
X36428021Y-28185982D01*
X36439608Y-28277980D01*
X36445838Y-28376493D01*
X36447568Y-28487765D01*
X36445660Y-28618041D01*
X36439619Y-28765500D01*
X36426583Y-28915812D01*
X36406119Y-29050389D01*
X36377282Y-29174055D01*
X36339124Y-29291637D01*
X36290700Y-29407960D01*
X36250605Y-29486857D01*
X36162059Y-29625404D01*
X36054526Y-29758816D01*
X35932068Y-29882744D01*
X35798748Y-29992837D01*
X35658629Y-30084746D01*
X35579719Y-30127744D01*
X35469871Y-30180880D01*
X35351186Y-30230712D01*
X35221598Y-30277840D01*
X35079044Y-30322864D01*
X34921458Y-30366383D01*
X34746776Y-30408996D01*
X34552932Y-30451303D01*
X34337862Y-30493904D01*
X34099500Y-30537397D01*
X33955705Y-30563183D01*
X33740010Y-30604043D01*
X33547160Y-30643706D01*
X33375622Y-30682672D01*
X33223857Y-30721439D01*
X33090330Y-30760508D01*
X32973507Y-30800376D01*
X32871849Y-30841544D01*
X32783823Y-30884509D01*
X32707891Y-30929773D01*
X32642518Y-30977833D01*
X32586168Y-31029188D01*
X32574856Y-31040925D01*
X32503974Y-31129995D01*
X32452091Y-31227979D01*
X32418298Y-31337706D01*
X32401684Y-31462006D01*
X32401339Y-31603707D01*
X32402906Y-31630554D01*
X32417390Y-31749397D01*
X32445087Y-31851788D01*
X32488561Y-31943411D01*
X32550378Y-32029947D01*
X32633103Y-32117078D01*
X32733027Y-32200105D01*
X32865592Y-32284826D01*
X33014222Y-32357459D01*
X33174797Y-32416281D01*
X33343197Y-32459571D01*
X33515300Y-32485607D01*
X33564104Y-32489998D01*
X33692835Y-32498667D01*
X33830685Y-32504378D01*
X33973354Y-32507199D01*
X34116540Y-32507198D01*
X34255944Y-32504442D01*
X34387264Y-32498998D01*
X34506202Y-32490934D01*
X34608456Y-32480316D01*
X34689725Y-32467213D01*
X34752751Y-32453516D01*
X34938990Y-32405858D01*
X35129564Y-32347296D01*
X35319520Y-32279789D01*
X35503904Y-32205296D01*
X35677763Y-32125773D01*
X35836142Y-32043180D01*
X35974089Y-31959474D01*
X35987206Y-31950827D01*
X36040238Y-31916916D01*
X36085729Y-31889438D01*
X36119202Y-31871022D01*
X36136176Y-31864300D01*
X36142975Y-31865857D01*
X36161602Y-31878306D01*
X36188451Y-31904412D01*
X36224767Y-31945622D01*
X36271796Y-32003382D01*
X36330781Y-32079140D01*
X36402969Y-32174341D01*
X36414302Y-32189449D01*
X36486444Y-32286836D01*
X36553977Y-32380033D01*
X36615076Y-32466393D01*
X36667917Y-32543268D01*
X36710674Y-32608010D01*
X36741524Y-32657969D01*
X36758641Y-32690499D01*
X36759773Y-32693266D01*
X36769430Y-32726804D01*
X36770312Y-32751925D01*
X36769107Y-32755202D01*
X36749432Y-32779596D01*
X36709930Y-32812726D01*
X36653367Y-32853000D01*
X36582508Y-32898829D01*
X36500119Y-32948622D01*
X36408965Y-33000791D01*
X36311812Y-33053745D01*
X36211426Y-33105894D01*
X36110572Y-33155648D01*
X36012016Y-33201417D01*
X35918523Y-33241612D01*
X35827386Y-33277579D01*
X35641872Y-33343550D01*
X35448119Y-33403870D01*
X35251143Y-33457321D01*
X35055959Y-33502688D01*
X34867580Y-33538753D01*
X34691023Y-33564300D01*
X34531300Y-33578113D01*
X34516253Y-33578860D01*
X34386922Y-33584215D01*
X34258467Y-33587442D01*
X34125650Y-33588549D01*
X33983234Y-33587540D01*
X33825980Y-33584423D01*
X33648650Y-33579205D01*
X33557704Y-33576039D01*
X33451278Y-33571593D01*
X33361989Y-33566504D01*
X33285056Y-33560186D01*
X33215698Y-33552052D01*
X33149135Y-33541515D01*
X33080585Y-33527990D01*
X33005267Y-33510889D01*
X32918400Y-33489627D01*
X32843427Y-33470322D01*
X32612465Y-33402451D01*
X32403637Y-33326995D01*
X32215041Y-33242941D01*
X32044772Y-33149275D01*
X31890929Y-33044982D01*
X31751608Y-32929050D01*
X31624907Y-32800464D01*
X31558165Y-32721684D01*
X31437615Y-32551844D01*
X31339407Y-32371039D01*
X31263337Y-32178698D01*
X31209200Y-31974254D01*
X31176791Y-31757137D01*
X31165905Y-31526780D01*
X31173061Y-31328252D01*
X31200369Y-31107836D01*
X31248129Y-30902404D01*
X31316371Y-30711874D01*
X31405127Y-30536160D01*
X31514427Y-30375179D01*
X31644303Y-30228845D01*
X31663879Y-30209723D01*
X31714886Y-30163265D01*
X31767417Y-30121316D01*
X31825843Y-30080986D01*
X31894535Y-30039388D01*
X31977863Y-29993633D01*
X32080199Y-29940835D01*
X32088013Y-29936890D01*
X32174206Y-29894188D01*
X32255659Y-29855750D01*
X32334847Y-29820835D01*
X32414249Y-29788703D01*
X32496339Y-29758616D01*
X32583595Y-29729833D01*
X32678493Y-29701615D01*
X32783510Y-29673222D01*
X32901122Y-29643914D01*
X33033805Y-29612952D01*
X33184037Y-29579597D01*
X33354293Y-29543108D01*
X33547050Y-29502746D01*
X33700686Y-29470788D01*
X33832917Y-29443156D01*
X33945118Y-29419528D01*
X34039724Y-29399360D01*
X34119170Y-29382110D01*
X34185890Y-29367234D01*
X34242322Y-29354190D01*
X34290899Y-29342434D01*
X34334056Y-29331424D01*
X34374231Y-29320616D01*
X34413856Y-29309468D01*
X34428251Y-29305306D01*
X34607322Y-29245799D01*
X34762465Y-29178720D01*
X34894050Y-29103830D01*
X35002447Y-29020888D01*
X35088024Y-28929655D01*
X35151151Y-28829889D01*
X35159722Y-28812243D01*
X35184510Y-28751890D01*
X35201479Y-28690116D01*
X35211593Y-28621003D01*
X35215816Y-28538635D01*
X35215109Y-28437096D01*
X35210745Y-28263850D01*
X35155103Y-28150025D01*
X35145419Y-28130554D01*
X35115743Y-28076703D01*
X35083813Y-28030158D01*
X35043833Y-27983117D01*
X34990006Y-27927775D01*
X34989712Y-27927484D01*
X34902154Y-27848434D01*
X34810690Y-27782233D01*
X34711045Y-27726817D01*
X34598948Y-27680127D01*
X34470124Y-27640100D01*
X34320300Y-27604674D01*
X34307705Y-27602056D01*
X34142313Y-27570981D01*
X33989292Y-27549420D01*
X33843542Y-27537451D01*
X33699965Y-27535152D01*
X33553461Y-27542601D01*
X33398932Y-27559877D01*
X33231278Y-27587058D01*
X33045400Y-27624222D01*
X33039478Y-27625496D01*
X32945205Y-27647081D01*
X32859057Y-27669886D01*
X32775963Y-27695736D01*
X32690852Y-27726453D01*
X32598653Y-27763860D01*
X32494296Y-27809779D01*
X32372708Y-27866034D01*
X32327317Y-27887844D01*
X32254284Y-27924641D01*
X32183348Y-27962219D01*
X32118677Y-27998233D01*
X32064434Y-28030343D01*
X32024786Y-28056203D01*
X32003898Y-28073472D01*
X31994352Y-28082274D01*
X31961370Y-28092173D01*
X31923094Y-28083561D01*
X31887093Y-28057474D01*
X31877143Y-28045428D01*
X31852660Y-28011837D01*
X31818732Y-27962588D01*
X31777160Y-27900518D01*
X31729748Y-27828462D01*
X31678298Y-27749254D01*
X31624612Y-27665731D01*
X31570492Y-27580728D01*
X31517741Y-27497081D01*
X31468160Y-27417624D01*
X31423553Y-27345194D01*
X31385721Y-27282625D01*
X31356467Y-27232754D01*
X31337592Y-27198415D01*
X31330900Y-27182445D01*
X31335212Y-27175247D01*
X31358926Y-27155882D01*
X31400661Y-27128359D01*
X31457363Y-27094328D01*
X31525976Y-27055437D01*
X31603446Y-27013335D01*
X31686716Y-26969670D01*
X31772732Y-26926092D01*
X31858438Y-26884249D01*
X31940779Y-26845790D01*
X32016700Y-26812363D01*
X32047509Y-26799478D01*
X32297863Y-26705700D01*
X32560398Y-26625425D01*
X32830273Y-26559569D01*
X33102648Y-26509049D01*
X33372683Y-26474779D01*
X33635539Y-26457676D01*
X33886374Y-26458655D01*
G36*
X37132890Y-25869902D02*
G01*
X37145753Y-25879193D01*
X37169514Y-25903004D01*
X37199104Y-25936263D01*
X37221761Y-25962865D01*
X37263756Y-26011884D01*
X37310297Y-26065945D01*
X37358371Y-26121574D01*
X37404963Y-26175298D01*
X37447060Y-26223646D01*
X37481648Y-26263144D01*
X37505713Y-26290319D01*
X37516242Y-26301700D01*
X37516550Y-26301994D01*
X37528045Y-26314807D01*
X37554023Y-26344480D01*
X37592622Y-26388865D01*
X37641975Y-26445808D01*
X37700220Y-26513161D01*
X37765492Y-26588773D01*
X37835927Y-26670493D01*
X37842260Y-26677844D01*
X37912968Y-26759738D01*
X37978912Y-26835780D01*
X38038129Y-26903731D01*
X38088657Y-26961354D01*
X38128535Y-27006411D01*
X38155801Y-27036663D01*
X38168493Y-27049873D01*
X38171136Y-27052068D01*
X38183100Y-27062998D01*
X38189215Y-27073656D01*
X38187566Y-27086446D01*
X38176235Y-27103772D01*
X38153307Y-27128038D01*
X38116864Y-27161648D01*
X38064991Y-27207005D01*
X37995770Y-27266514D01*
X37951462Y-27305157D01*
X37919277Y-27335470D01*
X37901924Y-27356056D01*
X37896761Y-27370107D01*
X37901147Y-27380814D01*
X37912090Y-27393767D01*
X37937282Y-27423095D01*
X37971645Y-27462834D01*
X38011050Y-27508200D01*
X38044288Y-27546411D01*
X38078098Y-27585344D01*
X38102820Y-27613887D01*
X38114654Y-27627658D01*
X38127041Y-27629465D01*
X38157300Y-27622042D01*
X38198622Y-27605808D01*
X38293597Y-27571712D01*
X38412152Y-27551182D01*
X38529473Y-27553218D01*
X38642879Y-27576395D01*
X38749691Y-27619290D01*
X38847225Y-27680479D01*
X38932802Y-27758538D01*
X39003740Y-27852044D01*
X39057357Y-27959572D01*
X39090974Y-28079700D01*
X39093638Y-28095985D01*
X39098726Y-28209856D01*
X39082621Y-28326466D01*
X39046840Y-28438699D01*
X38992900Y-28539442D01*
X38953972Y-28597122D01*
X39050861Y-28712125D01*
X39088377Y-28755727D01*
X39123428Y-28794622D01*
X39150104Y-28822222D01*
X39164529Y-28834363D01*
X39167515Y-28834448D01*
X39188189Y-28824085D01*
X39223419Y-28799185D01*
X39270221Y-28761967D01*
X39325609Y-28714648D01*
X39351221Y-28692359D01*
X39400246Y-28651109D01*
X39441648Y-28618120D01*
X39471689Y-28596317D01*
X39486631Y-28588626D01*
X39490477Y-28590337D01*
X39509949Y-28606793D01*
X39540942Y-28637878D01*
X39580083Y-28680120D01*
X39624000Y-28730047D01*
X39662907Y-28775334D01*
X39736259Y-28860628D01*
X39811953Y-28948548D01*
X39887290Y-29035965D01*
X39959571Y-29119753D01*
X40026097Y-29196782D01*
X40084170Y-29263927D01*
X40131090Y-29318058D01*
X40164160Y-29356050D01*
X40189172Y-29384688D01*
X40230412Y-29431954D01*
X40280603Y-29489514D01*
X40335580Y-29552588D01*
X40391176Y-29616400D01*
X40551581Y-29800550D01*
X40467160Y-29876750D01*
X40452321Y-29890025D01*
X40412529Y-29925178D01*
X40358258Y-29972770D01*
X40292557Y-30030142D01*
X40218473Y-30094634D01*
X40139053Y-30163587D01*
X40057345Y-30234341D01*
X40028207Y-30259529D01*
X39945775Y-30330571D01*
X39879832Y-30386862D01*
X39828372Y-30429913D01*
X39789389Y-30461232D01*
X39760878Y-30482329D01*
X39740834Y-30494714D01*
X39727250Y-30499896D01*
X39718121Y-30499385D01*
X39711441Y-30494691D01*
X39702610Y-30485370D01*
X39674157Y-30454103D01*
X39633130Y-30408056D01*
X39581250Y-30349225D01*
X39520238Y-30279604D01*
X39451817Y-30201190D01*
X39377709Y-30115977D01*
X39299634Y-30025962D01*
X39219316Y-29933139D01*
X39138475Y-29839504D01*
X39058834Y-29747052D01*
X38982114Y-29657779D01*
X38910037Y-29573680D01*
X38844325Y-29496750D01*
X38786700Y-29428986D01*
X38738883Y-29372381D01*
X38702596Y-29328933D01*
X38679561Y-29300636D01*
X38671500Y-29289485D01*
X38674997Y-29284156D01*
X38694404Y-29264058D01*
X38727950Y-29232492D01*
X38772360Y-29192508D01*
X38824358Y-29147156D01*
X38870532Y-29107949D01*
X38915518Y-29069558D01*
X38944315Y-29041499D01*
X38957927Y-29019456D01*
X38957354Y-28999114D01*
X38943599Y-28976157D01*
X38917663Y-28946270D01*
X38880549Y-28905138D01*
X38859888Y-28881466D01*
X38823994Y-28839737D01*
X38794790Y-28805102D01*
X38759329Y-28762278D01*
X38679839Y-28788372D01*
X38583353Y-28813047D01*
X38456555Y-28824453D01*
X38333384Y-28812019D01*
X38216249Y-28776288D01*
X38107556Y-28717804D01*
X38009712Y-28637111D01*
X37962802Y-28585093D01*
X37894100Y-28481420D01*
X37848013Y-28369108D01*
X37824931Y-28250766D01*
X37825243Y-28129000D01*
X37849338Y-28006420D01*
X37897605Y-27885633D01*
X37935457Y-27811145D01*
X37813362Y-27672288D01*
X37691266Y-27533432D01*
X37642630Y-27574791D01*
X37622453Y-27591987D01*
X37582427Y-27626190D01*
X37534232Y-27667439D01*
X37484318Y-27710217D01*
X37441032Y-27746771D01*
X37405862Y-27774342D01*
X37382661Y-27788705D01*
X37367857Y-27792013D01*
X37357880Y-27786417D01*
X37354703Y-27782919D01*
X37335824Y-27761320D01*
X37305197Y-27725758D01*
X37266284Y-27680258D01*
X37222541Y-27628850D01*
X37206446Y-27609902D01*
X37164586Y-27560778D01*
X37129138Y-27519392D01*
X37103435Y-27489629D01*
X37090809Y-27475370D01*
X37088085Y-27472433D01*
X37069975Y-27452106D01*
X37041601Y-27419711D01*
X37007800Y-27380765D01*
X37004476Y-27376920D01*
X36963109Y-27329222D01*
X36921092Y-27281002D01*
X36887037Y-27242145D01*
X36865235Y-27217394D01*
X36830312Y-27177743D01*
X36802578Y-27146250D01*
X36785768Y-27126998D01*
X36754510Y-27090954D01*
X36713104Y-27043067D01*
X36664225Y-26986444D01*
X36610548Y-26924190D01*
X36554748Y-26859414D01*
X36499499Y-26795221D01*
X36447477Y-26734719D01*
X36401356Y-26681013D01*
X36363812Y-26637212D01*
X36337518Y-26606421D01*
X36325151Y-26591747D01*
X36323167Y-26588315D01*
X36323624Y-26578790D01*
X36331996Y-26564600D01*
X36350211Y-26543806D01*
X36380201Y-26514473D01*
X36423893Y-26474663D01*
X36483216Y-26422440D01*
X36560101Y-26355865D01*
X36599285Y-26322086D01*
X36680613Y-26251946D01*
X36763151Y-26180731D01*
X36841786Y-26112855D01*
X36911403Y-26052730D01*
X36966890Y-26004771D01*
X37002610Y-25974104D01*
X37051765Y-25932706D01*
X37092138Y-25899676D01*
X37120294Y-25877809D01*
X37132793Y-25869900D01*
X37132890Y-25869902D01*
G37*
X37132890Y-25869902D02*
X37145753Y-25879193D01*
X37169514Y-25903004D01*
X37199104Y-25936263D01*
X37221761Y-25962865D01*
X37263756Y-26011884D01*
X37310297Y-26065945D01*
X37358371Y-26121574D01*
X37404963Y-26175298D01*
X37447060Y-26223646D01*
X37481648Y-26263144D01*
X37505713Y-26290319D01*
X37516242Y-26301700D01*
X37516550Y-26301994D01*
X37528045Y-26314807D01*
X37554023Y-26344480D01*
X37592622Y-26388865D01*
X37641975Y-26445808D01*
X37700220Y-26513161D01*
X37765492Y-26588773D01*
X37835927Y-26670493D01*
X37842260Y-26677844D01*
X37912968Y-26759738D01*
X37978912Y-26835780D01*
X38038129Y-26903731D01*
X38088657Y-26961354D01*
X38128535Y-27006411D01*
X38155801Y-27036663D01*
X38168493Y-27049873D01*
X38171136Y-27052068D01*
X38183100Y-27062998D01*
X38189215Y-27073656D01*
X38187566Y-27086446D01*
X38176235Y-27103772D01*
X38153307Y-27128038D01*
X38116864Y-27161648D01*
X38064991Y-27207005D01*
X37995770Y-27266514D01*
X37951462Y-27305157D01*
X37919277Y-27335470D01*
X37901924Y-27356056D01*
X37896761Y-27370107D01*
X37901147Y-27380814D01*
X37912090Y-27393767D01*
X37937282Y-27423095D01*
X37971645Y-27462834D01*
X38011050Y-27508200D01*
X38044288Y-27546411D01*
X38078098Y-27585344D01*
X38102820Y-27613887D01*
X38114654Y-27627658D01*
X38127041Y-27629465D01*
X38157300Y-27622042D01*
X38198622Y-27605808D01*
X38293597Y-27571712D01*
X38412152Y-27551182D01*
X38529473Y-27553218D01*
X38642879Y-27576395D01*
X38749691Y-27619290D01*
X38847225Y-27680479D01*
X38932802Y-27758538D01*
X39003740Y-27852044D01*
X39057357Y-27959572D01*
X39090974Y-28079700D01*
X39093638Y-28095985D01*
X39098726Y-28209856D01*
X39082621Y-28326466D01*
X39046840Y-28438699D01*
X38992900Y-28539442D01*
X38953972Y-28597122D01*
X39050861Y-28712125D01*
X39088377Y-28755727D01*
X39123428Y-28794622D01*
X39150104Y-28822222D01*
X39164529Y-28834363D01*
X39167515Y-28834448D01*
X39188189Y-28824085D01*
X39223419Y-28799185D01*
X39270221Y-28761967D01*
X39325609Y-28714648D01*
X39351221Y-28692359D01*
X39400246Y-28651109D01*
X39441648Y-28618120D01*
X39471689Y-28596317D01*
X39486631Y-28588626D01*
X39490477Y-28590337D01*
X39509949Y-28606793D01*
X39540942Y-28637878D01*
X39580083Y-28680120D01*
X39624000Y-28730047D01*
X39662907Y-28775334D01*
X39736259Y-28860628D01*
X39811953Y-28948548D01*
X39887290Y-29035965D01*
X39959571Y-29119753D01*
X40026097Y-29196782D01*
X40084170Y-29263927D01*
X40131090Y-29318058D01*
X40164160Y-29356050D01*
X40189172Y-29384688D01*
X40230412Y-29431954D01*
X40280603Y-29489514D01*
X40335580Y-29552588D01*
X40391176Y-29616400D01*
X40551581Y-29800550D01*
X40467160Y-29876750D01*
X40452321Y-29890025D01*
X40412529Y-29925178D01*
X40358258Y-29972770D01*
X40292557Y-30030142D01*
X40218473Y-30094634D01*
X40139053Y-30163587D01*
X40057345Y-30234341D01*
X40028207Y-30259529D01*
X39945775Y-30330571D01*
X39879832Y-30386862D01*
X39828372Y-30429913D01*
X39789389Y-30461232D01*
X39760878Y-30482329D01*
X39740834Y-30494714D01*
X39727250Y-30499896D01*
X39718121Y-30499385D01*
X39711441Y-30494691D01*
X39702610Y-30485370D01*
X39674157Y-30454103D01*
X39633130Y-30408056D01*
X39581250Y-30349225D01*
X39520238Y-30279604D01*
X39451817Y-30201190D01*
X39377709Y-30115977D01*
X39299634Y-30025962D01*
X39219316Y-29933139D01*
X39138475Y-29839504D01*
X39058834Y-29747052D01*
X38982114Y-29657779D01*
X38910037Y-29573680D01*
X38844325Y-29496750D01*
X38786700Y-29428986D01*
X38738883Y-29372381D01*
X38702596Y-29328933D01*
X38679561Y-29300636D01*
X38671500Y-29289485D01*
X38674997Y-29284156D01*
X38694404Y-29264058D01*
X38727950Y-29232492D01*
X38772360Y-29192508D01*
X38824358Y-29147156D01*
X38870532Y-29107949D01*
X38915518Y-29069558D01*
X38944315Y-29041499D01*
X38957927Y-29019456D01*
X38957354Y-28999114D01*
X38943599Y-28976157D01*
X38917663Y-28946270D01*
X38880549Y-28905138D01*
X38859888Y-28881466D01*
X38823994Y-28839737D01*
X38794790Y-28805102D01*
X38759329Y-28762278D01*
X38679839Y-28788372D01*
X38583353Y-28813047D01*
X38456555Y-28824453D01*
X38333384Y-28812019D01*
X38216249Y-28776288D01*
X38107556Y-28717804D01*
X38009712Y-28637111D01*
X37962802Y-28585093D01*
X37894100Y-28481420D01*
X37848013Y-28369108D01*
X37824931Y-28250766D01*
X37825243Y-28129000D01*
X37849338Y-28006420D01*
X37897605Y-27885633D01*
X37935457Y-27811145D01*
X37813362Y-27672288D01*
X37691266Y-27533432D01*
X37642630Y-27574791D01*
X37622453Y-27591987D01*
X37582427Y-27626190D01*
X37534232Y-27667439D01*
X37484318Y-27710217D01*
X37441032Y-27746771D01*
X37405862Y-27774342D01*
X37382661Y-27788705D01*
X37367857Y-27792013D01*
X37357880Y-27786417D01*
X37354703Y-27782919D01*
X37335824Y-27761320D01*
X37305197Y-27725758D01*
X37266284Y-27680258D01*
X37222541Y-27628850D01*
X37206446Y-27609902D01*
X37164586Y-27560778D01*
X37129138Y-27519392D01*
X37103435Y-27489629D01*
X37090809Y-27475370D01*
X37088085Y-27472433D01*
X37069975Y-27452106D01*
X37041601Y-27419711D01*
X37007800Y-27380765D01*
X37004476Y-27376920D01*
X36963109Y-27329222D01*
X36921092Y-27281002D01*
X36887037Y-27242145D01*
X36865235Y-27217394D01*
X36830312Y-27177743D01*
X36802578Y-27146250D01*
X36785768Y-27126998D01*
X36754510Y-27090954D01*
X36713104Y-27043067D01*
X36664225Y-26986444D01*
X36610548Y-26924190D01*
X36554748Y-26859414D01*
X36499499Y-26795221D01*
X36447477Y-26734719D01*
X36401356Y-26681013D01*
X36363812Y-26637212D01*
X36337518Y-26606421D01*
X36325151Y-26591747D01*
X36323167Y-26588315D01*
X36323624Y-26578790D01*
X36331996Y-26564600D01*
X36350211Y-26543806D01*
X36380201Y-26514473D01*
X36423893Y-26474663D01*
X36483216Y-26422440D01*
X36560101Y-26355865D01*
X36599285Y-26322086D01*
X36680613Y-26251946D01*
X36763151Y-26180731D01*
X36841786Y-26112855D01*
X36911403Y-26052730D01*
X36966890Y-26004771D01*
X37002610Y-25974104D01*
X37051765Y-25932706D01*
X37092138Y-25899676D01*
X37120294Y-25877809D01*
X37132793Y-25869900D01*
X37132890Y-25869902D01*
G36*
X46316900Y-33578800D02*
G01*
X45402500Y-33578800D01*
X45402500Y-31140400D01*
X46316900Y-31140400D01*
X46316900Y-33578800D01*
G37*
X46316900Y-33578800D02*
X45402500Y-33578800D01*
X45402500Y-31140400D01*
X46316900Y-31140400D01*
X46316900Y-33578800D01*
G36*
X27688774Y-26458655D02*
G01*
X27803071Y-26464683D01*
X28078445Y-26489344D01*
X28340626Y-26527489D01*
X28587991Y-26578695D01*
X28818919Y-26642536D01*
X29031788Y-26718588D01*
X29224977Y-26806428D01*
X29396863Y-26905629D01*
X29489650Y-26968665D01*
X29606448Y-27058319D01*
X29710064Y-27152730D01*
X29807276Y-27258242D01*
X29904860Y-27381200D01*
X29951534Y-27446524D01*
X30026624Y-27569387D01*
X30088422Y-27699087D01*
X30141589Y-27844750D01*
X30154911Y-27886641D01*
X30187732Y-27996557D01*
X30212615Y-28094256D01*
X30230421Y-28185982D01*
X30242008Y-28277980D01*
X30248238Y-28376493D01*
X30249968Y-28487765D01*
X30248060Y-28618041D01*
X30242019Y-28765500D01*
X30228983Y-28915812D01*
X30208519Y-29050389D01*
X30179682Y-29174055D01*
X30141524Y-29291637D01*
X30093100Y-29407960D01*
X30053005Y-29486857D01*
X29964459Y-29625404D01*
X29856926Y-29758816D01*
X29734468Y-29882744D01*
X29601148Y-29992837D01*
X29461029Y-30084746D01*
X29382119Y-30127744D01*
X29272271Y-30180880D01*
X29153586Y-30230712D01*
X29023998Y-30277840D01*
X28881444Y-30322864D01*
X28723858Y-30366383D01*
X28549176Y-30408996D01*
X28355332Y-30451303D01*
X28140262Y-30493904D01*
X27901900Y-30537397D01*
X27758105Y-30563183D01*
X27542410Y-30604043D01*
X27349560Y-30643706D01*
X27178022Y-30682672D01*
X27026257Y-30721439D01*
X26892730Y-30760508D01*
X26775907Y-30800376D01*
X26674249Y-30841544D01*
X26586223Y-30884509D01*
X26510291Y-30929773D01*
X26444918Y-30977833D01*
X26388568Y-31029188D01*
X26377256Y-31040925D01*
X26306374Y-31129995D01*
X26254491Y-31227979D01*
X26220698Y-31337706D01*
X26204084Y-31462006D01*
X26203739Y-31603707D01*
X26205306Y-31630554D01*
X26219790Y-31749397D01*
X26247487Y-31851788D01*
X26290961Y-31943411D01*
X26352778Y-32029947D01*
X26435503Y-32117078D01*
X26535427Y-32200105D01*
X26667992Y-32284826D01*
X26816622Y-32357459D01*
X26977197Y-32416281D01*
X27145597Y-32459571D01*
X27317700Y-32485607D01*
X27366504Y-32489998D01*
X27495235Y-32498667D01*
X27633085Y-32504378D01*
X27775754Y-32507199D01*
X27918940Y-32507198D01*
X28058344Y-32504442D01*
X28189664Y-32498998D01*
X28308602Y-32490934D01*
X28410856Y-32480316D01*
X28492125Y-32467213D01*
X28555151Y-32453516D01*
X28741390Y-32405858D01*
X28931964Y-32347296D01*
X29121920Y-32279789D01*
X29306304Y-32205296D01*
X29480163Y-32125773D01*
X29638542Y-32043180D01*
X29776489Y-31959474D01*
X29789606Y-31950827D01*
X29842638Y-31916916D01*
X29888129Y-31889438D01*
X29921602Y-31871022D01*
X29938576Y-31864300D01*
X29945375Y-31865857D01*
X29964002Y-31878306D01*
X29990851Y-31904412D01*
X30027167Y-31945622D01*
X30074196Y-32003382D01*
X30133181Y-32079140D01*
X30205369Y-32174341D01*
X30216702Y-32189449D01*
X30288844Y-32286836D01*
X30356377Y-32380033D01*
X30417476Y-32466393D01*
X30470317Y-32543268D01*
X30513074Y-32608010D01*
X30543924Y-32657969D01*
X30561041Y-32690499D01*
X30562173Y-32693266D01*
X30571830Y-32726804D01*
X30572712Y-32751925D01*
X30571507Y-32755202D01*
X30551832Y-32779596D01*
X30512330Y-32812726D01*
X30455767Y-32853000D01*
X30384908Y-32898829D01*
X30302519Y-32948622D01*
X30211365Y-33000791D01*
X30114212Y-33053745D01*
X30013826Y-33105894D01*
X29912972Y-33155648D01*
X29814416Y-33201417D01*
X29720923Y-33241612D01*
X29629786Y-33277579D01*
X29444272Y-33343550D01*
X29250519Y-33403870D01*
X29053543Y-33457321D01*
X28858359Y-33502688D01*
X28669980Y-33538753D01*
X28493423Y-33564300D01*
X28333700Y-33578113D01*
X28318653Y-33578860D01*
X28189322Y-33584215D01*
X28060867Y-33587442D01*
X27928050Y-33588549D01*
X27785634Y-33587540D01*
X27628380Y-33584423D01*
X27451050Y-33579205D01*
X27360104Y-33576039D01*
X27253678Y-33571593D01*
X27164389Y-33566504D01*
X27087456Y-33560186D01*
X27018098Y-33552052D01*
X26951535Y-33541515D01*
X26882985Y-33527990D01*
X26807667Y-33510889D01*
X26720800Y-33489627D01*
X26645827Y-33470322D01*
X26414865Y-33402451D01*
X26206037Y-33326995D01*
X26017441Y-33242941D01*
X25847172Y-33149275D01*
X25693329Y-33044982D01*
X25554008Y-32929050D01*
X25427307Y-32800464D01*
X25355290Y-32715286D01*
X25238799Y-32551184D01*
X25143951Y-32377740D01*
X25070172Y-32193401D01*
X25016890Y-31996616D01*
X24983533Y-31785833D01*
X24969528Y-31559500D01*
X24974505Y-31342558D01*
X24999986Y-31124243D01*
X25046079Y-30919211D01*
X25112580Y-30728036D01*
X25199287Y-30551292D01*
X25305998Y-30389555D01*
X25432511Y-30243399D01*
X25461049Y-30215056D01*
X25513476Y-30166806D01*
X25567124Y-30123549D01*
X25626428Y-30082303D01*
X25695819Y-30040089D01*
X25779732Y-29993926D01*
X25882599Y-29940835D01*
X25890413Y-29936890D01*
X25976606Y-29894188D01*
X26058059Y-29855750D01*
X26137247Y-29820835D01*
X26216649Y-29788703D01*
X26298739Y-29758616D01*
X26385995Y-29729833D01*
X26480893Y-29701615D01*
X26585910Y-29673222D01*
X26703522Y-29643914D01*
X26836205Y-29612952D01*
X26986437Y-29579597D01*
X27156693Y-29543108D01*
X27349450Y-29502746D01*
X27503086Y-29470788D01*
X27635317Y-29443156D01*
X27747518Y-29419528D01*
X27842124Y-29399360D01*
X27921570Y-29382110D01*
X27988290Y-29367234D01*
X28044722Y-29354190D01*
X28093299Y-29342434D01*
X28136456Y-29331424D01*
X28176631Y-29320616D01*
X28216256Y-29309468D01*
X28230651Y-29305306D01*
X28409722Y-29245799D01*
X28564865Y-29178720D01*
X28696450Y-29103830D01*
X28804847Y-29020888D01*
X28890424Y-28929655D01*
X28953551Y-28829889D01*
X28962122Y-28812243D01*
X28986910Y-28751890D01*
X29003879Y-28690116D01*
X29013993Y-28621003D01*
X29018216Y-28538635D01*
X29017509Y-28437096D01*
X29013145Y-28263850D01*
X28957503Y-28150025D01*
X28947819Y-28130554D01*
X28918143Y-28076703D01*
X28886213Y-28030158D01*
X28846233Y-27983117D01*
X28792406Y-27927775D01*
X28792112Y-27927484D01*
X28704554Y-27848434D01*
X28613090Y-27782233D01*
X28513445Y-27726817D01*
X28401348Y-27680127D01*
X28272524Y-27640100D01*
X28122700Y-27604674D01*
X28110105Y-27602056D01*
X27944713Y-27570981D01*
X27791692Y-27549420D01*
X27645942Y-27537451D01*
X27502365Y-27535152D01*
X27355861Y-27542601D01*
X27201332Y-27559877D01*
X27033678Y-27587058D01*
X26847800Y-27624222D01*
X26841878Y-27625496D01*
X26747605Y-27647081D01*
X26661457Y-27669886D01*
X26578363Y-27695736D01*
X26493252Y-27726453D01*
X26401053Y-27763860D01*
X26296696Y-27809779D01*
X26175108Y-27866034D01*
X26129717Y-27887844D01*
X26056684Y-27924641D01*
X25985748Y-27962219D01*
X25921077Y-27998233D01*
X25866834Y-28030343D01*
X25827186Y-28056203D01*
X25806298Y-28073472D01*
X25796752Y-28082274D01*
X25763770Y-28092173D01*
X25725494Y-28083561D01*
X25689493Y-28057474D01*
X25679543Y-28045428D01*
X25655060Y-28011837D01*
X25621132Y-27962588D01*
X25579560Y-27900518D01*
X25532148Y-27828462D01*
X25480698Y-27749254D01*
X25427012Y-27665731D01*
X25372892Y-27580728D01*
X25320141Y-27497081D01*
X25270560Y-27417624D01*
X25225953Y-27345194D01*
X25188121Y-27282625D01*
X25158867Y-27232754D01*
X25139992Y-27198415D01*
X25133300Y-27182445D01*
X25137612Y-27175247D01*
X25161326Y-27155882D01*
X25203061Y-27128359D01*
X25259763Y-27094328D01*
X25328376Y-27055437D01*
X25405846Y-27013335D01*
X25489116Y-26969670D01*
X25575132Y-26926092D01*
X25660838Y-26884249D01*
X25743179Y-26845790D01*
X25819100Y-26812363D01*
X25849909Y-26799478D01*
X26100263Y-26705700D01*
X26362798Y-26625425D01*
X26632673Y-26559569D01*
X26905048Y-26509049D01*
X27175083Y-26474779D01*
X27437939Y-26457676D01*
X27688774Y-26458655D01*
G37*
X27688774Y-26458655D02*
X27803071Y-26464683D01*
X28078445Y-26489344D01*
X28340626Y-26527489D01*
X28587991Y-26578695D01*
X28818919Y-26642536D01*
X29031788Y-26718588D01*
X29224977Y-26806428D01*
X29396863Y-26905629D01*
X29489650Y-26968665D01*
X29606448Y-27058319D01*
X29710064Y-27152730D01*
X29807276Y-27258242D01*
X29904860Y-27381200D01*
X29951534Y-27446524D01*
X30026624Y-27569387D01*
X30088422Y-27699087D01*
X30141589Y-27844750D01*
X30154911Y-27886641D01*
X30187732Y-27996557D01*
X30212615Y-28094256D01*
X30230421Y-28185982D01*
X30242008Y-28277980D01*
X30248238Y-28376493D01*
X30249968Y-28487765D01*
X30248060Y-28618041D01*
X30242019Y-28765500D01*
X30228983Y-28915812D01*
X30208519Y-29050389D01*
X30179682Y-29174055D01*
X30141524Y-29291637D01*
X30093100Y-29407960D01*
X30053005Y-29486857D01*
X29964459Y-29625404D01*
X29856926Y-29758816D01*
X29734468Y-29882744D01*
X29601148Y-29992837D01*
X29461029Y-30084746D01*
X29382119Y-30127744D01*
X29272271Y-30180880D01*
X29153586Y-30230712D01*
X29023998Y-30277840D01*
X28881444Y-30322864D01*
X28723858Y-30366383D01*
X28549176Y-30408996D01*
X28355332Y-30451303D01*
X28140262Y-30493904D01*
X27901900Y-30537397D01*
X27758105Y-30563183D01*
X27542410Y-30604043D01*
X27349560Y-30643706D01*
X27178022Y-30682672D01*
X27026257Y-30721439D01*
X26892730Y-30760508D01*
X26775907Y-30800376D01*
X26674249Y-30841544D01*
X26586223Y-30884509D01*
X26510291Y-30929773D01*
X26444918Y-30977833D01*
X26388568Y-31029188D01*
X26377256Y-31040925D01*
X26306374Y-31129995D01*
X26254491Y-31227979D01*
X26220698Y-31337706D01*
X26204084Y-31462006D01*
X26203739Y-31603707D01*
X26205306Y-31630554D01*
X26219790Y-31749397D01*
X26247487Y-31851788D01*
X26290961Y-31943411D01*
X26352778Y-32029947D01*
X26435503Y-32117078D01*
X26535427Y-32200105D01*
X26667992Y-32284826D01*
X26816622Y-32357459D01*
X26977197Y-32416281D01*
X27145597Y-32459571D01*
X27317700Y-32485607D01*
X27366504Y-32489998D01*
X27495235Y-32498667D01*
X27633085Y-32504378D01*
X27775754Y-32507199D01*
X27918940Y-32507198D01*
X28058344Y-32504442D01*
X28189664Y-32498998D01*
X28308602Y-32490934D01*
X28410856Y-32480316D01*
X28492125Y-32467213D01*
X28555151Y-32453516D01*
X28741390Y-32405858D01*
X28931964Y-32347296D01*
X29121920Y-32279789D01*
X29306304Y-32205296D01*
X29480163Y-32125773D01*
X29638542Y-32043180D01*
X29776489Y-31959474D01*
X29789606Y-31950827D01*
X29842638Y-31916916D01*
X29888129Y-31889438D01*
X29921602Y-31871022D01*
X29938576Y-31864300D01*
X29945375Y-31865857D01*
X29964002Y-31878306D01*
X29990851Y-31904412D01*
X30027167Y-31945622D01*
X30074196Y-32003382D01*
X30133181Y-32079140D01*
X30205369Y-32174341D01*
X30216702Y-32189449D01*
X30288844Y-32286836D01*
X30356377Y-32380033D01*
X30417476Y-32466393D01*
X30470317Y-32543268D01*
X30513074Y-32608010D01*
X30543924Y-32657969D01*
X30561041Y-32690499D01*
X30562173Y-32693266D01*
X30571830Y-32726804D01*
X30572712Y-32751925D01*
X30571507Y-32755202D01*
X30551832Y-32779596D01*
X30512330Y-32812726D01*
X30455767Y-32853000D01*
X30384908Y-32898829D01*
X30302519Y-32948622D01*
X30211365Y-33000791D01*
X30114212Y-33053745D01*
X30013826Y-33105894D01*
X29912972Y-33155648D01*
X29814416Y-33201417D01*
X29720923Y-33241612D01*
X29629786Y-33277579D01*
X29444272Y-33343550D01*
X29250519Y-33403870D01*
X29053543Y-33457321D01*
X28858359Y-33502688D01*
X28669980Y-33538753D01*
X28493423Y-33564300D01*
X28333700Y-33578113D01*
X28318653Y-33578860D01*
X28189322Y-33584215D01*
X28060867Y-33587442D01*
X27928050Y-33588549D01*
X27785634Y-33587540D01*
X27628380Y-33584423D01*
X27451050Y-33579205D01*
X27360104Y-33576039D01*
X27253678Y-33571593D01*
X27164389Y-33566504D01*
X27087456Y-33560186D01*
X27018098Y-33552052D01*
X26951535Y-33541515D01*
X26882985Y-33527990D01*
X26807667Y-33510889D01*
X26720800Y-33489627D01*
X26645827Y-33470322D01*
X26414865Y-33402451D01*
X26206037Y-33326995D01*
X26017441Y-33242941D01*
X25847172Y-33149275D01*
X25693329Y-33044982D01*
X25554008Y-32929050D01*
X25427307Y-32800464D01*
X25355290Y-32715286D01*
X25238799Y-32551184D01*
X25143951Y-32377740D01*
X25070172Y-32193401D01*
X25016890Y-31996616D01*
X24983533Y-31785833D01*
X24969528Y-31559500D01*
X24974505Y-31342558D01*
X24999986Y-31124243D01*
X25046079Y-30919211D01*
X25112580Y-30728036D01*
X25199287Y-30551292D01*
X25305998Y-30389555D01*
X25432511Y-30243399D01*
X25461049Y-30215056D01*
X25513476Y-30166806D01*
X25567124Y-30123549D01*
X25626428Y-30082303D01*
X25695819Y-30040089D01*
X25779732Y-29993926D01*
X25882599Y-29940835D01*
X25890413Y-29936890D01*
X25976606Y-29894188D01*
X26058059Y-29855750D01*
X26137247Y-29820835D01*
X26216649Y-29788703D01*
X26298739Y-29758616D01*
X26385995Y-29729833D01*
X26480893Y-29701615D01*
X26585910Y-29673222D01*
X26703522Y-29643914D01*
X26836205Y-29612952D01*
X26986437Y-29579597D01*
X27156693Y-29543108D01*
X27349450Y-29502746D01*
X27503086Y-29470788D01*
X27635317Y-29443156D01*
X27747518Y-29419528D01*
X27842124Y-29399360D01*
X27921570Y-29382110D01*
X27988290Y-29367234D01*
X28044722Y-29354190D01*
X28093299Y-29342434D01*
X28136456Y-29331424D01*
X28176631Y-29320616D01*
X28216256Y-29309468D01*
X28230651Y-29305306D01*
X28409722Y-29245799D01*
X28564865Y-29178720D01*
X28696450Y-29103830D01*
X28804847Y-29020888D01*
X28890424Y-28929655D01*
X28953551Y-28829889D01*
X28962122Y-28812243D01*
X28986910Y-28751890D01*
X29003879Y-28690116D01*
X29013993Y-28621003D01*
X29018216Y-28538635D01*
X29017509Y-28437096D01*
X29013145Y-28263850D01*
X28957503Y-28150025D01*
X28947819Y-28130554D01*
X28918143Y-28076703D01*
X28886213Y-28030158D01*
X28846233Y-27983117D01*
X28792406Y-27927775D01*
X28792112Y-27927484D01*
X28704554Y-27848434D01*
X28613090Y-27782233D01*
X28513445Y-27726817D01*
X28401348Y-27680127D01*
X28272524Y-27640100D01*
X28122700Y-27604674D01*
X28110105Y-27602056D01*
X27944713Y-27570981D01*
X27791692Y-27549420D01*
X27645942Y-27537451D01*
X27502365Y-27535152D01*
X27355861Y-27542601D01*
X27201332Y-27559877D01*
X27033678Y-27587058D01*
X26847800Y-27624222D01*
X26841878Y-27625496D01*
X26747605Y-27647081D01*
X26661457Y-27669886D01*
X26578363Y-27695736D01*
X26493252Y-27726453D01*
X26401053Y-27763860D01*
X26296696Y-27809779D01*
X26175108Y-27866034D01*
X26129717Y-27887844D01*
X26056684Y-27924641D01*
X25985748Y-27962219D01*
X25921077Y-27998233D01*
X25866834Y-28030343D01*
X25827186Y-28056203D01*
X25806298Y-28073472D01*
X25796752Y-28082274D01*
X25763770Y-28092173D01*
X25725494Y-28083561D01*
X25689493Y-28057474D01*
X25679543Y-28045428D01*
X25655060Y-28011837D01*
X25621132Y-27962588D01*
X25579560Y-27900518D01*
X25532148Y-27828462D01*
X25480698Y-27749254D01*
X25427012Y-27665731D01*
X25372892Y-27580728D01*
X25320141Y-27497081D01*
X25270560Y-27417624D01*
X25225953Y-27345194D01*
X25188121Y-27282625D01*
X25158867Y-27232754D01*
X25139992Y-27198415D01*
X25133300Y-27182445D01*
X25137612Y-27175247D01*
X25161326Y-27155882D01*
X25203061Y-27128359D01*
X25259763Y-27094328D01*
X25328376Y-27055437D01*
X25405846Y-27013335D01*
X25489116Y-26969670D01*
X25575132Y-26926092D01*
X25660838Y-26884249D01*
X25743179Y-26845790D01*
X25819100Y-26812363D01*
X25849909Y-26799478D01*
X26100263Y-26705700D01*
X26362798Y-26625425D01*
X26632673Y-26559569D01*
X26905048Y-26509049D01*
X27175083Y-26474779D01*
X27437939Y-26457676D01*
X27688774Y-26458655D01*
D13*
%TO.C,C27*%
X23239000Y-67302767D02*
X23239000Y-67010233D01*
X24259000Y-67302767D02*
X24259000Y-67010233D01*
D11*
%TO.C,J4*%
X25370000Y-80799500D02*
X25882000Y-80799500D01*
X27970000Y-83399500D02*
X25370000Y-83399500D01*
X27970000Y-80799500D02*
X27439670Y-80799500D01*
%TD*%
M02*
