M48
; DRILL file {KiCad (6.0.8)} date Sat Jun  3 22:28:32 2023
; FORMAT={-:-/ absolute / inch / decimal}
; #@! TF.CreationDate,2023-06-03T22:28:32+01:00
; #@! TF.GenerationSoftware,Kicad,Pcbnew,(6.0.8)
; #@! TF.FileFunction,Plated,1,4,PTH
FMAT,2
INCH
; #@! TA.AperFunction,Plated,PTH,ViaDrill
T1C0.0157
; #@! TA.AperFunction,Plated,PTH,ComponentDrill
T2C0.0236
; #@! TA.AperFunction,Plated,PTH,ComponentDrill
T3C0.0295
; #@! TA.AperFunction,Plated,PTH,ComponentDrill
T4C0.0335
; #@! TA.AperFunction,Plated,PTH,ComponentDrill
T5C0.0394
; #@! TA.AperFunction,Plated,PTH,ComponentDrill
T6C0.1260
%
G90
G05
T1
X0.89Y-2.74
X0.9Y-3.235
X0.905Y-2.855
X0.91Y-2.04
X0.92Y-1.33
X0.92Y-1.39
X0.92Y-1.49
X0.92Y-1.55
X0.925Y-2.97
X0.93Y-2.89
X0.93Y-3.035
X0.935Y-2.57
X0.9394Y-2.6528
X0.94Y-2.265
X0.94Y-2.785
X0.94Y-2.8284
X0.9606Y-1.0276
X0.9606Y-1.1181
X0.9606Y-1.2087
X1.025Y-1.29
X1.035Y-1.09
X1.035Y-1.19
X1.08Y-1.885
X1.0934Y-2.1088
X1.105Y-1.7
X1.1381Y-2.8242
X1.14Y-2.675
X1.1423Y-2.4097
X1.1423Y-2.595
X1.1423Y-2.905
X1.1476Y-2.8658
X1.165Y-2.76
X1.185Y-1.93
X1.19Y-2.32
X1.19Y-3.0
X1.19Y-3.3
X1.2087Y-0.7874
X1.2087Y-0.9213
X1.22Y-2.285
X1.23Y-2.02
X1.23Y-2.0574
X1.23Y-2.13
X1.23Y-2.64
X1.23Y-2.685
X1.235Y-2.187
X1.235Y-2.905
X1.2355Y-2.2499
X1.2507Y-2.3069
X1.26Y-1.97
X1.2653Y-2.2725
X1.28Y-2.635
X1.28Y-2.69
X1.3066Y-3.3336
X1.3066Y-3.371
X1.31Y-1.715
X1.3197Y-2.0059
X1.33Y-1.97
X1.3504Y-0.7874
X1.3504Y-0.9213
X1.3673Y-2.425
X1.3673Y-2.465
X1.3673Y-2.52
X1.37Y-1.715
X1.37Y-1.97
X1.385Y-1.675
X1.3907Y-2.3071
X1.415Y-2.065
X1.425Y-1.665
X1.4283Y-2.307
X1.455Y-2.0639
X1.4582Y-2.5207
X1.465Y-1.675
X1.47Y-2.305
X1.4921Y-0.7874
X1.4921Y-0.9213
X1.5Y-1.97
X1.5083Y-2.3073
X1.51Y-2.115
X1.525Y-3.415
X1.54Y-2.795
X1.5498Y-2.1865
X1.55Y-2.74
X1.5598Y-2.1505
X1.5613Y-2.2221
X1.5613Y-2.28
X1.565Y-2.395
X1.57Y-2.825
X1.6Y-2.855
X1.601Y-2.464
X1.615Y-2.63
X1.615Y-2.71
X1.6185Y-2.38
X1.6339Y-0.7874
X1.6339Y-0.9213
X1.65Y-2.32
X1.65Y-2.84
X1.656Y-2.5189
X1.6629Y-1.9689
X1.675Y-2.04
X1.6849Y-2.3622
X1.685Y-1.875
X1.685Y-1.935
X1.685Y-2.23
X1.6869Y-2.4443
X1.6877Y-2.4025
X1.6877Y-2.18
X1.75Y-2.1196
X1.755Y-2.94
X1.76Y-3.085
X1.765Y-1.685
X1.815Y-1.835
X1.8203Y-1.2897
X1.865Y-1.805
X1.8749Y-2.1034
X1.88Y-1.16
X1.8819Y-1.3701
X1.8819Y-1.4764
X1.8884Y-2.4019
X1.8884Y-2.455
X1.8884Y-2.675
X1.89Y-2.56
X1.895Y-1.6
X1.9Y-2.6
X1.91Y-2.19
X1.915Y-2.3297
X1.92Y-2.15
X1.9234Y-2.235
X1.925Y-1.995
X1.925Y-2.485
X1.925Y-3.01
X1.926Y-2.4096
X1.935Y-2.92
T3
X1.6135Y-3.2106
X1.6135Y-3.2894
T4
X1.3286Y-3.4744
X1.5255Y-3.4744
T5
X0.98Y-1.7598
X0.98Y-1.8598
X1.4948Y-1.76
X1.5948Y-1.76
T6
X1.005Y-0.84
X1.01Y-3.563
X1.83Y-0.84
X1.83Y-3.563
T2
G00X1.2893Y-3.567
M15
G01X1.2893Y-3.5945
M16
G05
G00X1.5648Y-3.567
M15
G01X1.5648Y-3.5945
M16
G05
T0
M30
